<svg width="34" height="35" viewBox="0 0 34 35" fill="none" xmlns="http://www.w3.org/2000/svg">
<path d="M25.6422 6.29988C21.6755 1.48321 14.4505 0.916545 9.63386 4.88321C4.8172 8.84988 4.25053 16.0749 8.2172 20.8915C9.35053 21.8832 9.91719 23.2999 9.91719 24.8582V26.2749C9.91719 25.4249 10.4839 24.8582 11.3339 24.8582H22.6672C23.5172 24.8582 24.0839 25.4249 24.0839 26.2749V25.1415C24.0839 23.4415 24.7922 21.8832 25.7839 20.6082C29.1839 16.3582 29.1839 10.4082 25.6422 6.29988Z" fill="#D8D8FF"/>
<path d="M19.8346 33.3594H14.168C11.7596 33.3594 9.91797 31.5177 9.91797 29.1094V26.276C9.91797 25.426 10.4846 24.8594 11.3346 24.8594H22.668C23.518 24.8594 24.0846 25.426 24.0846 26.276V29.1094C24.0846 31.5177 22.243 33.3594 19.8346 33.3594Z" fill="#B2B1FF"/>
<path d="M18.4154 24.8581V20.6081C18.4154 19.7581 17.8487 19.1914 16.9987 19.1914C16.1487 19.1914 15.582 19.7581 15.582 20.6081V24.8581H18.4154Z" fill="#6563FF"/>
</svg>
