<svg width="35" height="34" viewBox="0 0 35 34" fill="none" xmlns="http://www.w3.org/2000/svg">
<path d="M4.72135 18.4173H7.55469V15.584H4.72135C3.93892 15.584 3.30469 16.2182 3.30469 17.0007C3.30469 17.7831 3.93892 18.4173 4.72135 18.4173ZM18.888 7.08398V4.25065C18.888 3.46821 18.2538 2.83398 17.4714 2.83398C16.6889 2.83398 16.0547 3.46821 16.0547 4.25065V7.08398H18.888ZM4.72135 12.7507H7.55469V11.334C7.55521 10.8346 7.65767 10.3624 7.81625 9.91732H4.72135C3.93892 9.91732 3.30469 10.5515 3.30469 11.334C3.30469 12.1164 3.93892 12.7507 4.72135 12.7507ZM27.388 11.334V12.7507H30.2214C31.0038 12.7507 31.638 12.1164 31.638 11.334C31.638 10.5515 31.0038 9.91732 30.2214 9.91732H27.1265C27.285 10.3624 27.3875 10.8346 27.388 11.334ZM23.138 7.08398C23.6375 7.08451 24.1096 7.18696 24.5547 7.34554V4.25065C24.5547 3.46821 23.9205 2.83398 23.138 2.83398C22.3556 2.83398 21.7214 3.46821 21.7214 4.25065V7.08398H23.138ZM11.8047 7.08398H13.2214V4.25065C13.2214 3.46821 12.5871 2.83398 11.8047 2.83398C11.0222 2.83398 10.388 3.46821 10.388 4.25065V7.34554C10.8332 7.18696 11.3053 7.08451 11.8047 7.08398ZM7.55469 22.6673V21.2507H4.72135C3.93892 21.2507 3.30469 21.8849 3.30469 22.6673C3.30469 23.4498 3.93892 24.084 4.72135 24.084H7.81625C7.65767 23.6389 7.55521 23.1667 7.55469 22.6673ZM30.2214 21.2507H27.388V22.6673C27.3875 23.1667 27.285 23.6389 27.1265 24.084H30.2214C31.0038 24.084 31.638 23.4498 31.638 22.6673C31.638 21.8849 31.0038 21.2507 30.2214 21.2507ZM30.2214 15.584H27.388V18.4173H30.2214C31.0038 18.4173 31.638 17.7831 31.638 17.0007C31.638 16.2182 31.0038 15.584 30.2214 15.584ZM23.138 26.9173H21.7214V29.7507C21.7214 29.7504 21.7214 29.7509 21.7214 29.7507C21.7215 30.5328 22.3559 31.1675 23.138 31.1673C23.1378 31.1673 23.1383 31.1673 23.138 31.1673C23.9202 31.1671 24.5549 30.5328 24.5547 29.7507V26.6558C24.1096 26.8143 23.6375 26.9168 23.138 26.9173ZM11.8047 26.9173C11.3053 26.9168 10.8332 26.8143 10.388 26.6558V29.7507C10.388 29.7504 10.388 29.7509 10.388 29.7507C10.3882 30.5328 11.0225 31.1675 11.8047 31.1673C11.8044 31.1673 11.8049 31.1673 11.8047 31.1673C12.5869 31.1671 13.2215 30.5328 13.2214 29.7507V26.9173H11.8047ZM16.0547 26.9173V29.7507C16.0547 29.7504 16.0547 29.7509 16.0547 29.7507C16.0549 30.5328 16.6892 31.1675 17.4714 31.1673C17.4711 31.1673 17.4716 31.1673 17.4714 31.1673C18.2535 31.1671 18.8882 30.5328 18.888 29.7507V26.9173H16.0547Z" fill="#6563FF"/>
<path d="M14.6374 15.5833C15.4198 15.5833 16.054 14.9491 16.054 14.1667C16.054 13.3843 15.4198 12.75 14.6374 12.75C13.855 12.75 13.2207 13.3843 13.2207 14.1667C13.2207 14.9491 13.855 15.5833 14.6374 15.5833Z" fill="#D8D8FF"/>
<path d="M20.3034 15.5833C21.0858 15.5833 21.7201 14.9491 21.7201 14.1667C21.7201 13.3843 21.0858 12.75 20.3034 12.75C19.521 12.75 18.8867 13.3843 18.8867 14.1667C18.8867 14.9491 19.521 15.5833 20.3034 15.5833Z" fill="#D8D8FF"/>
<path d="M20.3034 21.2493C21.0858 21.2493 21.7201 20.6151 21.7201 19.8327C21.7201 19.0503 21.0858 18.416 20.3034 18.416C19.521 18.416 18.8867 19.0503 18.8867 19.8327C18.8867 20.6151 19.521 21.2493 20.3034 21.2493Z" fill="#D8D8FF"/>
<path d="M14.6374 21.2493C15.4198 21.2493 16.054 20.6151 16.054 19.8327C16.054 19.0503 15.4198 18.416 14.6374 18.416C13.855 18.416 13.2207 19.0503 13.2207 19.8327C13.2207 20.6151 13.855 21.2493 14.6374 21.2493Z" fill="#D8D8FF"/>
<path d="M23.138 7.08398H11.8047C9.4585 7.08658 7.55728 8.9878 7.55469 11.334V22.6673C7.55728 25.0135 9.4585 26.9147 11.8047 26.9173H23.138C25.4842 26.9147 27.3854 25.0135 27.388 22.6673V11.334C27.3854 8.9878 25.4842 7.08658 23.138 7.08398ZM14.638 21.2507C13.8556 21.2507 13.2214 20.6164 13.2214 19.834C13.2214 19.0515 13.8556 18.4173 14.638 18.4173C15.4205 18.4173 16.0547 19.0515 16.0547 19.834C16.0547 20.6164 15.4205 21.2507 14.638 21.2507ZM14.638 15.584C13.8556 15.584 13.2214 14.9498 13.2214 14.1673C13.2214 13.3849 13.8556 12.7507 14.638 12.7507C15.4205 12.7507 16.0547 13.3849 16.0547 14.1673C16.0547 14.9498 15.4205 15.584 14.638 15.584ZM20.3047 21.2507C19.5222 21.2507 18.888 20.6164 18.888 19.834C18.888 19.0515 19.5222 18.4173 20.3047 18.4173C21.0871 18.4173 21.7214 19.0515 21.7214 19.834C21.7214 20.6164 21.0871 21.2507 20.3047 21.2507ZM20.3047 15.584C19.5222 15.584 18.888 14.9498 18.888 14.1673C18.888 13.3849 19.5222 12.7507 20.3047 12.7507C21.0871 12.7507 21.7214 13.3849 21.7214 14.1673C21.7214 14.9498 21.0871 15.584 20.3047 15.584Z" fill="#B2B1FF"/>
</svg>
