<svg width="34" height="34" viewBox="0 0 34 34" fill="none" xmlns="http://www.w3.org/2000/svg">
<path d="M28.3346 12.7507L18.418 2.83398H9.91797C8.7908 2.83398 7.70979 3.28175 6.91277 4.07878C6.11574 4.87581 5.66797 5.95681 5.66797 7.08398V26.9173C5.66797 28.0445 6.11574 29.1255 6.91277 29.9225C7.70979 30.7196 8.7908 31.1673 9.91797 31.1673H24.0846C25.2118 31.1673 26.2928 30.7196 27.0898 29.9225C27.8869 29.1255 28.3346 28.0445 28.3346 26.9173V12.7507Z" fill="#B2B1FF"/>
<path d="M28.332 12.7507H21.2487C20.4973 12.7507 19.7766 12.4521 19.2452 11.9208C18.7139 11.3894 18.4154 10.6688 18.4154 9.91732V2.83398L28.332 12.7507ZM21.2487 25.5007H12.7487C12.373 25.5007 12.0126 25.3514 11.747 25.0857C11.4813 24.82 11.332 24.4597 11.332 24.084C11.332 23.7083 11.4813 23.3479 11.747 23.0822C12.0126 22.8166 12.373 22.6673 12.7487 22.6673H21.2487C21.6244 22.6673 21.9848 22.8166 22.2504 23.0822C22.5161 23.3479 22.6654 23.7083 22.6654 24.084C22.6654 24.4597 22.5161 24.82 22.2504 25.0857C21.9848 25.3514 21.6244 25.5007 21.2487 25.5007ZM21.2487 19.834H12.7487C12.373 19.834 12.0126 19.6847 11.747 19.4191C11.4813 19.1534 11.332 18.793 11.332 18.4173C11.332 18.0416 11.4813 17.6813 11.747 17.4156C12.0126 17.1499 12.373 17.0007 12.7487 17.0007H21.2487C21.6244 17.0007 21.9848 17.1499 22.2504 17.4156C22.5161 17.6813 22.6654 18.0416 22.6654 18.4173C22.6654 18.793 22.5161 19.1534 22.2504 19.4191C21.9848 19.6847 21.6244 19.834 21.2487 19.834ZM14.1654 14.1673H12.7487C12.373 14.1673 12.0126 14.0181 11.747 13.7524C11.4813 13.4867 11.332 13.1264 11.332 12.7507C11.332 12.3749 11.4813 12.0146 11.747 11.7489C12.0126 11.4832 12.373 11.334 12.7487 11.334H14.1654C14.5411 11.334 14.9014 11.4832 15.1671 11.7489C15.4328 12.0146 15.582 12.3749 15.582 12.7507C15.582 13.1264 15.4328 13.4867 15.1671 13.7524C14.9014 14.0181 14.5411 14.1673 14.1654 14.1673Z" fill="#6563FF"/>
</svg>
