<svg width="35" height="35" viewBox="0 0 35 35" fill="none" xmlns="http://www.w3.org/2000/svg">
<path d="M13.4857 10.804C13.4857 8.3957 15.3273 6.55404 17.7357 6.55404C20.144 6.55404 21.9857 8.3957 21.9857 10.804V13.6374H24.819V10.804C24.819 6.83737 21.7023 3.7207 17.7357 3.7207C13.769 3.7207 10.6523 6.83737 10.6523 10.804V13.6374H13.4857V10.804ZM19.8607 21.429C19.8607 20.2957 18.869 19.304 17.7357 19.304C16.6023 19.304 15.6107 20.2957 15.6107 21.429C15.6107 21.9957 15.894 22.5624 16.319 22.9874V24.9707C16.319 25.8207 16.8857 26.3874 17.7357 26.3874C18.5857 26.3874 19.1523 25.8207 19.1523 24.9707V22.9874C19.5773 22.5624 19.8607 21.9957 19.8607 21.429Z" fill="#B2B1FF"/>
<path d="M24.819 13.6367H10.6523C8.24401 13.6367 6.40234 15.4784 6.40234 17.8867V27.8034C6.40234 30.2117 8.24401 32.0534 10.6523 32.0534H24.819C27.2273 32.0534 29.069 30.2117 29.069 27.8034V17.8867C29.069 15.4784 27.2273 13.6367 24.819 13.6367ZM19.1523 22.9867V24.9701C19.1523 25.8201 18.5857 26.3867 17.7357 26.3867C16.8857 26.3867 16.319 25.8201 16.319 24.9701V22.9867C15.894 22.5617 15.6107 21.9951 15.6107 21.4284C15.6107 20.2951 16.6023 19.3034 17.7357 19.3034C18.869 19.3034 19.8607 20.2951 19.8607 21.4284C19.8607 21.9951 19.5773 22.5617 19.1523 22.9867Z" fill="#6563FF"/>
</svg>
