<svg width="35" height="34" viewBox="0 0 35 34" fill="none" xmlns="http://www.w3.org/2000/svg">
<path d="M18.2635 32.5837C16.1761 32.5838 14.11 32.1645 12.1878 31.3507C10.2656 30.537 8.52646 29.3453 7.07363 27.8465C5.62081 26.3477 4.4839 24.5723 3.73041 22.6256C2.97691 20.679 2.62218 18.6008 2.68727 16.5145C2.79553 13.0466 4.05791 9.714 6.27439 7.04471C8.49087 4.37541 11.5347 2.52207 14.9236 1.77831C18.3125 1.03456 21.8527 1.44294 24.9833 2.93874C28.1139 4.43455 30.6558 6.93223 32.2064 10.0361C32.542 10.7146 32.7375 11.4538 32.7813 12.2095C32.8251 12.9652 32.7163 13.722 32.4613 14.4348C32.2172 15.1365 31.8321 15.7809 31.3298 16.3284C30.8274 16.8758 30.2184 17.3147 29.5402 17.6181C28.0695 18.2746 26.8667 19.413 26.1301 20.8452C25.3935 22.2774 25.1672 23.918 25.4885 25.4961C25.6477 26.2664 25.6527 27.0606 25.5034 27.8328C25.3542 28.605 25.0535 29.34 24.6187 29.9955C24.2144 30.6012 23.6926 31.1196 23.0842 31.5199C22.4758 31.9202 21.7933 32.1943 21.077 32.3259C20.149 32.4971 19.2072 32.5834 18.2635 32.5837Z" fill="#D8D8FF"/>
<path d="M18.2643 9.91732C19.0467 9.91732 19.681 9.28305 19.681 8.50065C19.681 7.71825 19.0467 7.08398 18.2643 7.08398C17.4819 7.08398 16.8477 7.71825 16.8477 8.50065C16.8477 9.28305 17.4819 9.91732 18.2643 9.91732Z" fill="#6563FF"/>
<path d="M18.2643 18.4173C19.0467 18.4173 19.681 17.7831 19.681 17.0007C19.681 16.2182 19.0467 15.584 18.2643 15.584C17.4819 15.584 16.8477 16.2182 16.8477 17.0007C16.8477 17.7831 17.4819 18.4173 18.2643 18.4173Z" fill="#6563FF"/>
<path d="M18.2643 26.9173C19.0467 26.9173 19.681 26.2831 19.681 25.5007C19.681 24.7182 19.0467 24.084 18.2643 24.084C17.4819 24.084 16.8477 24.7182 16.8477 25.5007C16.8477 26.2831 17.4819 26.9173 18.2643 26.9173Z" fill="#6563FF"/>
<path d="M9.76432 18.4173C10.5467 18.4173 11.181 17.7831 11.181 17.0007C11.181 16.2182 10.5467 15.584 9.76432 15.584C8.98192 15.584 8.34766 16.2182 8.34766 17.0007C8.34766 17.7831 8.98192 18.4173 9.76432 18.4173Z" fill="#6563FF"/>
<path d="M12.2526 12.4056C13.035 12.4056 13.6693 11.7713 13.6693 10.9889C13.6693 10.2065 13.035 9.57227 12.2526 9.57227C11.4702 9.57227 10.8359 10.2065 10.8359 10.9889C10.8359 11.7713 11.4702 12.4056 12.2526 12.4056Z" fill="#6563FF"/>
<path d="M12.2526 24.4271C13.035 24.4271 13.6693 23.7928 13.6693 23.0104C13.6693 22.228 13.035 21.5938 12.2526 21.5938C11.4702 21.5938 10.8359 22.228 10.8359 23.0104C10.8359 23.7928 11.4702 24.4271 12.2526 24.4271Z" fill="#6563FF"/>
<path d="M24.2741 12.4056C25.0565 12.4056 25.6908 11.7713 25.6908 10.9889C25.6908 10.2065 25.0565 9.57227 24.2741 9.57227C23.4917 9.57227 22.8574 10.2065 22.8574 10.9889C22.8574 11.7713 23.4917 12.4056 24.2741 12.4056Z" fill="#6563FF"/>
</svg>
