<svg width="35" height="35" viewBox="0 0 35 35" fill="none" xmlns="http://www.w3.org/2000/svg">
<path d="M25.5981 21.6017L22.1613 24.7609C20.3939 26.3016 18.3174 27.4464 16.0711 28.1184L16.9834 32.374C17.03 32.5912 17.1271 32.7943 17.2667 32.9671C17.4063 33.1398 17.5846 33.2773 17.7872 33.3685C17.9897 33.4596 18.2108 33.5018 18.4327 33.4918C18.6546 33.4817 18.871 33.4196 19.0645 33.3105L24.5966 30.191C25.3753 29.7179 25.9837 29.0096 26.3338 28.1683C26.6839 27.327 26.7577 26.3962 26.5445 25.5103L25.5981 21.6017ZM10.7642 13.3199L13.7222 9.80654L10.0332 8.91688C9.13612 8.60386 8.15605 8.6261 7.27407 8.97946C6.39208 9.33283 5.66778 9.99345 5.23497 10.8393L2.11831 16.3643C2.00919 16.5577 1.94708 16.7742 1.93701 16.996C1.92693 17.2179 1.96917 17.4391 2.06031 17.6416C2.15145 17.8442 2.28894 18.0224 2.46168 18.1621C2.63442 18.3017 2.83757 18.3987 3.05472 18.4454L7.40814 19.379C8.12994 17.1636 9.26914 15.1069 10.7642 13.3199ZM24.1772 13.3765C24.5975 13.3765 25.0084 13.2519 25.3578 13.0184C25.7073 12.7849 25.9796 12.453 26.1405 12.0647C26.3013 11.6765 26.3434 11.2492 26.2614 10.837C26.1794 10.4248 25.977 10.0461 25.6798 9.74894C25.3826 9.45175 25.004 9.24937 24.5918 9.16737C24.1796 9.08538 23.7523 9.12746 23.364 9.2883C22.9757 9.44913 22.6439 9.7215 22.4104 10.071C22.1769 10.4204 22.0522 10.8313 22.0522 11.2515C22.0522 11.8151 22.2761 12.3556 22.6746 12.7541C23.0731 13.1527 23.6136 13.3765 24.1772 13.3765Z" fill="#6563FF"/>
<path d="M32.4884 3.80748C32.4246 3.56473 32.2974 3.34329 32.12 3.16581C31.9425 2.98833 31.721 2.86119 31.4783 2.7974C28.5724 2.04229 25.5123 2.12344 22.6505 3.0315C19.7887 3.93956 17.2417 5.63759 15.3028 7.92998L10.7638 13.319C8.49667 16.0227 7.05831 19.3235 6.62145 22.8248C6.59316 23.0401 6.61474 23.259 6.6845 23.4646C6.75426 23.6701 6.87034 23.857 7.02378 24.0106L11.4154 28.4022C11.5471 28.534 11.7035 28.6384 11.8756 28.7097C12.0477 28.7809 12.2322 28.8175 12.4184 28.8173C12.4581 28.8173 12.4992 28.8159 12.5403 28.8116C16.0958 28.5178 19.4652 27.0986 22.1594 24.76L27.3501 19.9886C29.6504 18.0545 31.3544 15.5071 32.2637 12.6426C33.1731 9.77806 33.2519 6.71425 32.4884 3.80748ZM24.1768 13.3756C23.7565 13.3756 23.3456 13.251 22.9962 13.0175C22.6467 12.784 22.3744 12.4521 22.2135 12.0638C22.0527 11.6756 22.0106 11.2483 22.0926 10.8361C22.1746 10.4239 22.377 10.0452 22.6742 9.74805C22.9714 9.45086 23.35 9.24847 23.7622 9.16648C24.1744 9.08449 24.6017 9.12657 24.99 9.2874C25.3783 9.44824 25.7102 9.72061 25.9437 10.0701C26.1772 10.4195 26.3018 10.8304 26.3018 11.2506C26.3018 11.8142 26.0779 12.3547 25.6794 12.7533C25.2809 13.1518 24.7404 13.3756 24.1768 13.3756Z" fill="#B2B1FF"/>
</svg>
