<svg width="34" height="35" viewBox="0 0 34 35" fill="none" xmlns="http://www.w3.org/2000/svg">
<path d="M28.3346 33.4694H5.66797C4.54114 33.4683 3.46079 33.0201 2.66401 32.2234C1.86722 31.4266 1.41909 30.3462 1.41797 29.2194V6.55273C1.41909 5.42591 1.86722 4.34556 2.66401 3.54877C3.46079 2.75199 4.54114 2.30386 5.66797 2.30273H28.3346C29.4615 2.30386 30.5418 2.75199 31.3386 3.54877C32.1354 4.34556 32.5835 5.42591 32.5846 6.55273V29.2194C32.5835 30.3462 32.1354 31.4266 31.3386 32.2234C30.5418 33.0201 29.4615 33.4683 28.3346 33.4694Z" fill="#B2B1FF"/>
<path d="M11.3346 7.97005C12.117 7.97005 12.7513 7.33579 12.7513 6.55339C12.7513 5.77098 12.117 5.13672 11.3346 5.13672C10.5522 5.13672 9.91797 5.77098 9.91797 6.55339C9.91797 7.33579 10.5522 7.97005 11.3346 7.97005Z" fill="#B2B1FF"/>
<path d="M5.66667 7.97005C6.44907 7.97005 7.08333 7.33579 7.08333 6.55339C7.08333 5.77098 6.44907 5.13672 5.66667 5.13672C4.88426 5.13672 4.25 5.77098 4.25 6.55339C4.25 7.33579 4.88426 7.97005 5.66667 7.97005Z" fill="#B2B1FF"/>
<path d="M16.9987 7.97005C17.7811 7.97005 18.4154 7.33579 18.4154 6.55339C18.4154 5.77098 17.7811 5.13672 16.9987 5.13672C16.2163 5.13672 15.582 5.77098 15.582 6.55339C15.582 7.33579 16.2163 7.97005 16.9987 7.97005Z" fill="#B2B1FF"/>
<path d="M28.3346 2.30273H5.66797C4.5408 2.30273 3.45979 2.7505 2.66277 3.54753C1.86574 4.34456 1.41797 5.42556 1.41797 6.55273V10.8027H32.5846V6.55273C32.5846 5.42556 32.1369 4.34456 31.3398 3.54753C30.5428 2.7505 29.4618 2.30273 28.3346 2.30273ZM5.66797 7.9694C5.29225 7.9694 4.93191 7.82015 4.66623 7.55447C4.40056 7.28879 4.2513 6.92846 4.2513 6.55273C4.2513 6.17701 4.40056 5.81668 4.66623 5.551C4.93191 5.28532 5.29225 5.13607 5.66797 5.13607C6.04369 5.13607 6.40403 5.28532 6.6697 5.551C6.93538 5.81668 7.08464 6.17701 7.08464 6.55273C7.08464 6.92846 6.93538 7.28879 6.6697 7.55447C6.40403 7.82015 6.04369 7.9694 5.66797 7.9694ZM11.3346 7.9694C10.9589 7.9694 10.5986 7.82015 10.3329 7.55447C10.0672 7.28879 9.91797 6.92846 9.91797 6.55273C9.91797 6.17701 10.0672 5.81668 10.3329 5.551C10.5986 5.28532 10.9589 5.13607 11.3346 5.13607C11.7104 5.13607 12.0707 5.28532 12.3364 5.551C12.602 5.81668 12.7513 6.17701 12.7513 6.55273C12.7513 6.92846 12.602 7.28879 12.3364 7.55447C12.0707 7.82015 11.7104 7.9694 11.3346 7.9694ZM17.0013 7.9694C16.6256 7.9694 16.2652 7.82015 15.9996 7.55447C15.7339 7.28879 15.5846 6.92846 15.5846 6.55273C15.5846 6.17701 15.7339 5.81668 15.9996 5.551C16.2652 5.28532 16.6256 5.13607 17.0013 5.13607C17.377 5.13607 17.7374 5.28532 18.003 5.551C18.2687 5.81668 18.418 6.17701 18.418 6.55273C18.418 6.92846 18.2687 7.28879 18.003 7.55447C17.7374 7.82015 17.377 7.9694 17.0013 7.9694Z" fill="#6563FF"/>
</svg>
