<svg width="34" height="34" viewBox="0 0 34 34" fill="none" xmlns="http://www.w3.org/2000/svg">
<g id="approve">
<path id="Vector" opacity="0.99" d="M14.61 22.8015C14.4238 22.8019 14.2392 22.7654 14.0671 22.6942C13.8949 22.6229 13.7386 22.5183 13.607 22.3864L9.62338 18.4013C9.36533 18.1342 9.22253 17.7763 9.22576 17.4049C9.22899 17.0334 9.37798 16.6781 9.64064 16.4154C9.9033 16.1528 10.2586 16.0038 10.6301 16.0006C11.0015 15.9973 11.3594 16.1401 11.6265 16.3982L14.6086 19.3817L22.3734 11.6183C22.6416 11.3665 22.9973 11.2288 23.3652 11.2345C23.733 11.2403 24.0843 11.3889 24.3445 11.649C24.6048 11.909 24.7537 12.2602 24.7596 12.628C24.7656 12.9959 24.6282 13.3517 24.3766 13.6201L15.6102 22.3864C15.4788 22.5182 15.3227 22.6227 15.1508 22.6939C14.979 22.7651 14.7961 22.8017 14.61 22.8015Z" fill="#6563FF"/>
<path id="Vector_2" d="M17 2.83203C14.1981 2.83203 11.4592 3.66289 9.12947 5.21955C6.79977 6.7762 4.984 8.98873 3.91175 11.5773C2.83951 14.166 2.55896 17.0144 3.10559 19.7625C3.65221 22.5105 5.00146 25.0348 6.9827 27.016C8.96395 28.9973 11.4882 30.3465 14.2363 30.8932C16.9843 31.4398 19.8328 31.1592 22.4214 30.087C25.01 29.0147 27.2225 27.199 28.7792 24.8693C30.3359 22.5396 31.1667 19.8006 31.1667 16.9987C31.1626 13.2427 29.6687 9.64178 27.0128 6.98591C24.357 4.33004 20.756 2.83616 17 2.83203ZM24.3766 13.6171L15.6103 22.3834C15.3446 22.649 14.9844 22.7982 14.6087 22.7982C14.2331 22.7982 13.8728 22.649 13.6071 22.3834L9.62346 18.3984C9.36541 18.1312 9.22261 17.7733 9.22584 17.4019C9.22907 17.0304 9.37806 16.6751 9.64072 16.4125C9.90338 16.1498 10.2587 16.0008 10.6301 15.9976C11.0016 15.9943 11.3594 16.1371 11.6266 16.3952L14.6087 19.3787L22.3735 11.6154C22.6417 11.3635 22.9974 11.2259 23.3652 11.2316C23.7331 11.2373 24.0844 11.3859 24.3446 11.646C24.6049 11.9061 24.7537 12.2572 24.7597 12.6251C24.7657 12.9929 24.6283 13.3487 24.3766 13.6171Z" fill="#B2B1FF"/>
</g>
</svg>
