<svg width="34" height="34" viewBox="0 0 34 34" fill="none" xmlns="http://www.w3.org/2000/svg">
<g id="chat-bubble-user">
<path id="Vector" d="M25.5 2.83203H8.5C7.37318 2.83316 6.29282 3.28128 5.49604 4.07807C4.69925 4.87486 4.25113 5.95521 4.25 7.08203V22.6654C4.25113 23.7922 4.69925 24.8725 5.49604 25.6693C6.29282 26.4661 7.37318 26.9142 8.5 26.9154H12.1635L15.9984 30.7503C16.2503 31.0032 16.5885 31.1514 16.9451 31.165C17.3018 31.1787 17.6504 31.0568 17.9208 30.8239L22.4825 26.9154H25.5C26.6268 26.9142 27.7072 26.4661 28.504 25.6693C29.3007 24.8725 29.7489 23.7922 29.75 22.6654V7.08203C29.7489 5.95521 29.3007 4.87486 28.504 4.07807C27.7072 3.28128 26.6268 2.83316 25.5 2.83203ZM17 17.4024C16.4354 17.4128 15.8745 17.3105 15.3499 17.1015C14.8253 16.8926 14.3477 16.5813 13.9448 16.1857C13.5419 15.7901 13.2218 15.3181 13.0034 14.7975C12.7849 14.2768 12.6724 13.7178 12.6724 13.1532C12.6724 12.5885 12.7849 12.0295 13.0034 11.5088C13.2218 10.9882 13.5419 10.5162 13.9448 10.1206C14.3477 9.72504 14.8253 9.41368 15.3499 9.20477C15.8745 8.99585 16.4354 8.89356 17 8.90386C18.1272 8.90386 19.2082 9.35163 20.0052 10.1487C20.8022 10.9457 21.25 12.0267 21.25 13.1539C21.25 14.281 20.8022 15.362 20.0052 16.1591C19.2082 16.9561 18.1272 17.4039 17 17.4039V17.4024Z" fill="#B2B1FF"/>
<path id="Vector_2" d="M17 17.4023C16.1594 17.4023 15.3376 17.1531 14.6387 16.686C13.9397 16.2189 13.395 15.5551 13.0734 14.7784C12.7517 14.0018 12.6677 13.1471 12.8318 12.3227C12.9959 11.4982 13.4008 10.741 13.9953 10.1466C14.5898 9.55232 15.3472 9.14766 16.1717 8.98384C16.9962 8.82001 17.8508 8.90437 18.6274 9.22626C19.4039 9.54815 20.0676 10.0931 20.5344 10.7922C21.0013 11.4913 21.2503 12.3131 21.25 13.1538C21.2489 14.2806 20.8007 15.3609 20.004 16.1577C19.2072 16.9545 18.1268 17.4026 17 17.4038V17.4023Z" fill="#D8D8FF"/>
<path id="Vector_3" d="M23.5167 19.2759C22.8697 17.7853 21.7284 16.5635 20.2853 15.8164C19.8909 16.3094 19.3911 16.7078 18.8226 16.9824C18.2541 17.257 17.6314 17.4007 17 17.4031C16.3685 17.4015 15.7454 17.2582 15.1766 16.9839C14.6078 16.7095 14.1078 16.3111 13.7134 15.8178C12.2689 16.5619 11.1274 17.7841 10.4834 19.2759C10.3913 19.4914 10.3541 19.7264 10.3751 19.9598C10.3961 20.1933 10.4748 20.4178 10.6039 20.6134C10.7331 20.8089 10.9088 20.9694 11.1152 21.0804C11.3216 21.1914 11.5523 21.2494 11.7867 21.2493H22.2134C22.4477 21.2494 22.6785 21.1914 22.8849 21.0804C23.0913 20.9694 23.267 20.8089 23.3961 20.6134C23.5253 20.4178 23.6039 20.1933 23.625 19.9598C23.646 19.7264 23.6088 19.4914 23.5167 19.2759Z" fill="#6563FF"/>
</g>
</svg>
