<svg width="40" height="40" viewBox="0 0 40 40" fill="none" xmlns="http://www.w3.org/2000/svg">
<g id="focus">
<path id="Vector" d="M20 33.3346C17.3629 33.3346 14.785 32.5527 12.5924 31.0876C10.3997 29.6225 8.69077 27.5401 7.6816 25.1038C6.67243 22.6674 6.40839 19.9865 6.92286 17.4001C7.43733 14.8137 8.70721 12.4379 10.5719 10.5732C12.4366 8.70852 14.8124 7.43864 17.3988 6.92417C19.9852 6.4097 22.6661 6.67375 25.1024 7.68291C27.5388 8.69208 29.6212 10.401 31.0863 12.5937C32.5513 14.7864 33.3333 17.3642 33.3333 20.0013C33.3289 23.5362 31.9227 26.925 29.4232 29.4245C26.9237 31.9241 23.5349 33.3302 20 33.3346ZM20 10.0013C18.0222 10.0013 16.0888 10.5878 14.4443 11.6866C12.7998 12.7854 11.5181 14.3472 10.7612 16.1745C10.0043 18.0017 9.80629 20.0124 10.1921 21.9522C10.578 23.892 11.5304 25.6739 12.9289 27.0724C14.3275 28.4709 16.1093 29.4233 18.0491 29.8092C19.9889 30.195 21.9996 29.997 23.8268 29.2401C25.6541 28.4832 27.2159 27.2015 28.3147 25.557C29.4135 23.9125 30 21.9791 30 20.0013C29.9969 17.3501 28.9423 14.8083 27.0677 12.9337C25.193 11.059 22.6512 10.0044 20 10.0013Z" fill="#6563FF"/>
<path id="Vector_2" d="M20 25C19.0111 25 18.0444 24.7068 17.2222 24.1574C16.3999 23.6079 15.759 22.8271 15.3806 21.9134C15.0022 20.9998 14.9031 19.9945 15.0961 19.0246C15.289 18.0546 15.7652 17.1637 16.4645 16.4645C17.1637 15.7652 18.0546 15.289 19.0246 15.0961C19.9945 14.9031 20.9998 15.0022 21.9134 15.3806C22.8271 15.759 23.6079 16.3999 24.1574 17.2222C24.7068 18.0444 25 19.0111 25 20C24.9987 21.3257 24.4715 22.5967 23.5341 23.5341C22.5967 24.4715 21.3257 24.9987 20 25Z" fill="#6563FF"/>
<path id="Vector_3" d="M20 36.6654C19.558 36.6654 19.1341 36.4898 18.8215 36.1772C18.5089 35.8647 18.3333 35.4407 18.3333 34.9987V31.6654C18.3333 31.2233 18.5089 30.7994 18.8215 30.4869C19.1341 30.1743 19.558 29.9987 20 29.9987C20.442 29.9987 20.866 30.1743 21.1785 30.4869C21.4911 30.7994 21.6667 31.2233 21.6667 31.6654V34.9987C21.6667 35.4407 21.4911 35.8647 21.1785 36.1772C20.866 36.4898 20.442 36.6654 20 36.6654ZM20 9.9987C19.558 9.9987 19.1341 9.8231 18.8215 9.51054C18.5089 9.19798 18.3333 8.77406 18.3333 8.33203V4.9987C18.3333 4.55667 18.5089 4.13275 18.8215 3.82019C19.1341 3.50763 19.558 3.33203 20 3.33203C20.442 3.33203 20.866 3.50763 21.1785 3.82019C21.4911 4.13275 21.6667 4.55667 21.6667 4.9987V8.33203C21.6667 8.77406 21.4911 9.19798 21.1785 9.51054C20.866 9.8231 20.442 9.9987 20 9.9987ZM8.33334 21.6654H5.00001C4.55798 21.6654 4.13406 21.4898 3.8215 21.1772C3.50894 20.8646 3.33334 20.4407 3.33334 19.9987C3.33334 19.5567 3.50894 19.1327 3.8215 18.8202C4.13406 18.5076 4.55798 18.332 5.00001 18.332H8.33334C8.77537 18.332 9.19929 18.5076 9.51185 18.8202C9.82441 19.1327 10 19.5567 10 19.9987C10 20.4407 9.82441 20.8646 9.51185 21.1772C9.19929 21.4898 8.77537 21.6654 8.33334 21.6654ZM35 21.6654H31.6667C31.2246 21.6654 30.8007 21.4898 30.4882 21.1772C30.1756 20.8646 30 20.4407 30 19.9987C30 19.5567 30.1756 19.1327 30.4882 18.8202C30.8007 18.5076 31.2246 18.332 31.6667 18.332H35C35.442 18.332 35.866 18.5076 36.1785 18.8202C36.4911 19.1327 36.6667 19.5567 36.6667 19.9987C36.6667 20.4407 36.4911 20.8646 36.1785 21.1772C35.866 21.4898 35.442 21.6654 35 21.6654Z" fill="#6563FF"/>
</g>
</svg>
