<svg width="40" height="40" viewBox="0 0 40 40" fill="none" xmlns="http://www.w3.org/2000/svg">
<g id="folder">
<path id="Vector" d="M33.2931 16.6667V15C33.2931 13.6739 32.7663 12.4021 31.8287 11.4645C30.891 10.5268 29.6192 10 28.2931 10H17.828L17.301 8.41887C16.9691 7.42331 16.3324 6.55739 15.4811 5.94379C14.6298 5.33019 13.607 5 12.5575 5H6.62646C5.30038 5 4.02861 5.52678 3.09093 6.46447C2.15325 7.40215 1.62646 8.67392 1.62646 10V31.6667C1.62646 32.5507 1.97765 33.3986 2.60278 34.0237C3.2279 34.6488 4.07574 35 4.9598 35H5.5112C6.29183 35 7.04769 34.726 7.64702 34.2258C8.24635 33.7257 8.65112 33.031 8.79076 32.263L11.1288 19.4037C11.2685 18.6357 11.6732 17.941 12.2725 17.4408C12.8719 16.9406 13.6277 16.6667 14.4084 16.6667H33.2931Z" fill="#6563FF"/>
<path id="Vector_2" d="M36.7064 16.668H14.4083C13.6277 16.668 12.8718 16.9419 12.2725 17.4421C11.6732 17.9423 11.2684 18.6369 11.1287 19.405L8.79069 32.2642C8.65106 33.0322 8.2463 33.7269 7.64698 34.2271C7.04766 34.7273 6.2918 35.0013 5.51117 35.0013H32.5882C33.3688 35.0013 34.1247 34.7273 34.724 34.2271C35.3233 33.7269 35.7281 33.0322 35.8677 32.2642L38.3463 18.6328C38.3899 18.3926 38.3803 18.1458 38.3181 17.9097C38.2558 17.6736 38.1425 17.4541 37.986 17.2667C37.8296 17.0793 37.6339 16.9285 37.4128 16.8251C37.1917 16.7216 36.9506 16.668 36.7064 16.668Z" fill="#E2E2FF"/>
</g>
</svg>
