<svg width="27" height="21" viewBox="0 0 27 21" fill="none" xmlns="http://www.w3.org/2000/svg">
<path fill-rule="evenodd" clip-rule="evenodd" d="M9.89132 17.5H9.06885V19.4583H9.58359V18.854H9.89132C10.0405 18.854 10.1701 18.826 10.2802 18.7701C10.3921 18.7141 10.4788 18.6358 10.5404 18.5351C10.6019 18.4325 10.6327 18.3132 10.6327 18.177C10.6327 18.039 10.6019 17.9196 10.5404 17.8189C10.4788 17.7182 10.3921 17.6399 10.2802 17.5839C10.1701 17.528 10.0405 17.5 9.89132 17.5ZM9.58359 18.4344V17.9196H9.84377C9.89785 17.9196 9.94448 17.9299 9.98364 17.9504C10.0247 17.9709 10.0554 18.0008 10.076 18.0399C10.0983 18.0772 10.1095 18.1229 10.1095 18.177C10.1095 18.2292 10.0983 18.2749 10.076 18.3141C10.0554 18.3532 10.0247 18.3831 9.98364 18.4036C9.94448 18.4241 9.89785 18.4344 9.84377 18.4344H9.58359ZM11.1298 17.5H11.955C12.1061 17.5 12.2376 17.528 12.3495 17.5839C12.4633 17.6399 12.5518 17.7182 12.6153 17.8189C12.6787 17.9196 12.7104 18.039 12.7104 18.177C12.7104 18.2964 12.6833 18.4036 12.6292 18.4987C12.577 18.5938 12.5071 18.6703 12.4194 18.7281L12.7747 19.4583H12.2096L11.9215 18.854H11.6445V19.4583H11.1298V17.5ZM11.9131 17.9196H11.6445V18.4344H11.9131C11.997 18.4344 12.0632 18.412 12.1117 18.3672C12.1602 18.3206 12.1844 18.2572 12.1844 18.177C12.1844 18.0968 12.1602 18.0343 12.1117 17.9896C12.0632 17.9429 11.997 17.9196 11.9131 17.9196ZM14.5885 17.5H13.2373V19.4583H14.6193V19.0219H13.7521V18.6806H14.4207V18.2721H13.7521V17.9364H14.5885V17.5ZM14.9693 17.5H15.5148L15.9177 18.8316L16.3345 17.5H16.8688L16.2254 19.4583H15.6155L14.9693 17.5ZM17.5552 17.5L16.8558 19.4583H17.3902L17.5105 19.0862H18.1931L18.3161 19.4583H18.8701L18.1763 17.5H17.5552ZM18.0588 18.6806H17.6419L17.849 18.0455L18.0588 18.6806ZM19.3028 17.5H19.8176V19.4583H19.3028V17.5ZM20.4049 19.4583V17.5H20.9196V19.0219H21.6358V19.4583H20.4049Z" fill="url(#paint0_linear_0_36743)"/>
<path d="M16.9468 20H17.0895L17.3776 20.4854L17.6699 20H17.807L17.4377 20.6169V20.9791H17.3161V20.6169L16.9468 20Z" fill="#52525A"/>
<path d="M15.8474 20.9881C15.7542 20.9881 15.673 20.9676 15.604 20.9266C15.536 20.8846 15.4833 20.8263 15.446 20.7517C15.4087 20.6771 15.39 20.5899 15.39 20.4901C15.39 20.3913 15.4091 20.3046 15.4474 20.23C15.4856 20.1554 15.5397 20.0971 15.6096 20.0551C15.6805 20.0132 15.763 19.9922 15.8572 19.9922C15.9299 19.9922 15.9947 20.0057 16.0516 20.0328C16.1094 20.0589 16.157 20.0966 16.1943 20.1461C16.2316 20.1945 16.2563 20.2528 16.2684 20.3209H16.1398C16.1211 20.2528 16.0866 20.1997 16.0362 20.1614C15.9868 20.1232 15.9253 20.1041 15.8516 20.1041C15.7835 20.1041 15.7239 20.1204 15.6726 20.153C15.6222 20.1857 15.583 20.2314 15.5551 20.2901C15.528 20.3479 15.5145 20.4146 15.5145 20.4901C15.5145 20.5647 15.5276 20.6314 15.5537 20.6902C15.5807 20.748 15.6189 20.7937 15.6684 20.8273C15.7187 20.8599 15.7779 20.8762 15.846 20.8762C15.9215 20.8762 15.9845 20.8571 16.0348 20.8189C16.0861 20.7806 16.1206 20.7275 16.1384 20.6594H16.267C16.2549 20.7265 16.2297 20.7848 16.1915 20.8342C16.1533 20.8837 16.1048 20.9219 16.046 20.9489C15.9873 20.9751 15.9211 20.9881 15.8474 20.9881Z" fill="#52525A"/>
<path d="M13.8224 20.9791V20H13.9343L14.4602 20.7553V20H14.5791V20.9791H14.4672L13.9413 20.2238V20.9791H13.8224Z" fill="#52525A"/>
<path d="M12.3865 20H13.0103V20.1119H12.5082V20.4252H12.9264V20.5371H12.5082V20.8672H13.0285V20.9791H12.3865V20Z" fill="#52525A"/>
<path d="M11.1078 20.9881C11.0173 20.9881 10.9376 20.9671 10.8686 20.9252C10.7996 20.8832 10.7455 20.8249 10.7063 20.7503C10.6672 20.6757 10.6476 20.589 10.6476 20.4901C10.6476 20.3913 10.6667 20.3046 10.7049 20.23C10.7432 20.1554 10.7973 20.0971 10.8672 20.0551C10.9381 20.0132 11.0206 19.9922 11.1148 19.9922C11.1875 19.9922 11.2528 20.0057 11.3106 20.0328C11.3693 20.0589 11.4174 20.0966 11.4547 20.1461C11.4929 20.1945 11.5176 20.2524 11.5288 20.3195H11.3987C11.3819 20.2514 11.3484 20.1987 11.298 20.1614C11.2486 20.1232 11.1866 20.1041 11.112 20.1041C11.0439 20.1041 10.9842 20.1204 10.9329 20.153C10.8816 20.1857 10.842 20.2314 10.814 20.2901C10.7861 20.3479 10.7721 20.4146 10.7721 20.4901C10.7721 20.5657 10.7861 20.6328 10.814 20.6916C10.842 20.7494 10.8812 20.7946 10.9315 20.8273C10.9819 20.8599 11.0411 20.8762 11.1092 20.8762C11.1539 20.8762 11.195 20.8697 11.2323 20.8566C11.2705 20.8436 11.3036 20.8249 11.3316 20.8007C11.3596 20.7764 11.381 20.7471 11.3959 20.7126C11.4118 20.6771 11.4197 20.638 11.4197 20.5951V20.5615H11.126V20.4496H11.5386V20.9797H11.4337L11.4253 20.837C11.4104 20.8604 11.3885 20.8837 11.3596 20.907C11.3316 20.9303 11.2966 20.9499 11.2546 20.9657C11.2127 20.9807 11.1637 20.9881 11.1078 20.9881Z" fill="#52525A"/>
<path d="M9.06848 20.9791L9.44195 20H9.58603L9.9581 20.9791H9.82801L9.7245 20.7148H9.29788L9.19437 20.9791H9.06848ZM9.33425 20.6043H9.68814L9.51049 20.1329L9.33425 20.6043Z" fill="#52525A"/>
<path fill-rule="evenodd" clip-rule="evenodd" d="M17.5804 1.91597C17.5804 0.857808 18.4383 0 19.4964 0H21.1211C21.1211 4.10585 21.1211 8.2117 21.1211 12.3176C20.1609 11.9182 19.1202 11.2891 18.0124 10.6193C17.8695 10.533 17.7255 10.4459 17.5804 10.3586C17.5804 7.5444 17.5804 4.73019 17.5804 1.91597ZM16.7098 9.84209C16.7098 7.16192 16.7098 4.48175 16.7098 1.80157H15.0851C14.0269 1.80157 13.1691 2.65938 13.1691 3.71754C13.1691 5.19424 13.1691 6.67094 13.1691 8.14764C13.3941 8.22148 13.6219 8.30476 13.8525 8.39797C14.8394 8.79692 15.794 9.30953 16.7098 9.84209ZM12.2404 7.89152C12.2404 6.46206 12.2404 5.03261 12.2404 3.60315H10.6158C9.5576 3.60315 8.69978 4.46095 8.69975 5.51911C8.69973 6.30396 8.69971 7.0888 8.69971 7.87364C9.74477 7.62902 10.9364 7.60092 12.2404 7.89152Z" fill="url(#paint1_linear_0_36743)"/>
<path fill-rule="evenodd" clip-rule="evenodd" d="M10.274 12.9222C7.01276 11.8539 5.41145 13.284 5.3884 14.5322C5.3737 15.3276 6.27829 15.8282 7.04552 15.6177C7.47742 15.4991 7.94562 15.2462 8.44105 14.8288C9.79708 18.8712 5.2127 21.1074 2.03723 18.4413C-1.13822 15.7751 0.571779 10.0823 5.69091 9.12301C4.63785 10.0449 4.1836 11.3417 4.18483 12.5403C4.87456 9.93781 8.68119 7.06702 13.8502 9.15397C15.3211 9.74785 16.7206 10.5928 18.027 11.3817C19.4634 12.249 20.7874 13.0483 21.9702 13.3714C22.2335 13.4433 22.4717 13.4928 22.6868 13.523C23.9569 13.7013 24.5655 11.7366 23.2895 11.6065C22.8944 11.5662 22.3967 11.6664 21.7958 11.9501C21.88 9.69954 24.8447 8.34089 26.132 10.4732C27.3689 12.5222 25.6906 15.0167 23.3508 15.8612C23.3539 15.8572 23.3569 15.8533 23.36 15.8494C21.9821 16.4715 19.8582 16.2535 18.2653 15.7533C17.2629 15.4386 16.1327 15.0199 14.8695 14.552C13.497 14.0435 11.9673 13.4769 10.274 12.9222Z" fill="#409AFF"/>
<path d="M11.4349 14.1267C7.17699 13.0348 6.74381 14.4397 7.32753 15.0984C6.62429 15.4711 5.32941 14.5429 6.48644 13.5819C7.87478 12.4288 11.0253 13.7184 11.4349 14.1267Z" fill="#409AFF"/>
<defs>
<linearGradient id="paint0_linear_0_36743" x1="13.755" y1="17.4969" x2="13.755" y2="20.9456" gradientUnits="userSpaceOnUse">
<stop stop-color="#8555ED"/>
<stop offset="1" stop-color="#4C3087"/>
</linearGradient>
<linearGradient id="paint1_linear_0_36743" x1="14.9104" y1="0" x2="14.9104" y2="12.3176" gradientUnits="userSpaceOnUse">
<stop stop-color="#8555ED"/>
<stop offset="1" stop-color="#4C3087"/>
</linearGradient>
</defs>
</svg>
