<svg width="86" height="67" viewBox="0 0 86 67" fill="none" xmlns="http://www.w3.org/2000/svg">
<g id="Group 1410085960">
<path id="Union" fill-rule="evenodd" clip-rule="evenodd" d="M31.186 55.1819H28.5929V61.356H30.2158V59.4509H31.186C31.6564 59.4509 32.0651 59.3627 32.412 59.1863C32.7648 59.0098 33.0382 58.7629 33.2323 58.4454C33.4263 58.1219 33.5234 57.7456 33.5234 57.3164C33.5234 56.8812 33.4263 56.5049 33.2323 56.1874C33.0382 55.8699 32.7648 55.6229 32.412 55.4465C32.0651 55.2701 31.6564 55.1819 31.186 55.1819ZM30.2158 58.1278V56.5049H31.0361C31.2066 56.5049 31.3536 56.5373 31.4771 56.6019C31.6064 56.6666 31.7035 56.7607 31.7681 56.8842C31.8387 57.0018 31.874 57.1458 31.874 57.3164C31.874 57.481 31.8387 57.6251 31.7681 57.7486C31.7035 57.872 31.6064 57.9661 31.4771 58.0308C31.3536 58.0955 31.2066 58.1278 31.0361 58.1278H30.2158ZM35.0906 55.1819H37.6926C38.1688 55.1819 38.5834 55.2701 38.9362 55.4465C39.2949 55.6229 39.5742 55.8699 39.7741 56.1874C39.974 56.5049 40.074 56.8812 40.074 57.3164C40.074 57.6927 39.9887 58.0308 39.8182 58.3307C39.6536 58.6306 39.4331 58.8717 39.1567 59.054L40.2769 61.356H38.4952L37.5867 59.4509H36.7135V61.356H35.0906V55.1819ZM37.5603 56.5049H36.7135V58.1278H37.5603C37.8249 58.1278 38.0336 58.0573 38.1865 57.9161C38.3394 57.7691 38.4158 57.5692 38.4158 57.3164C38.4158 57.0635 38.3394 56.8665 38.1865 56.7254C38.0336 56.5784 37.8249 56.5049 37.5603 56.5049ZM45.9956 55.1819H41.7354V61.356H46.0926V59.9801H43.3583V58.904H45.4664V57.6163H43.3583V56.5578H45.9956V55.1819ZM47.1961 55.1819H48.916L50.1861 59.3803L51.5003 55.1819H53.185L51.1564 61.356H49.2335L47.1961 55.1819ZM55.3491 55.1819L53.144 61.356H54.8287L55.2079 60.1829H57.3601L57.7482 61.356H59.4946L57.3072 55.1819H55.3491ZM56.9367 58.904H55.6225L56.2752 56.9018L56.9367 58.904ZM60.8589 55.1819H62.4819V61.356H60.8589V55.1819ZM64.3336 61.356V55.1819H65.9565V59.9801H68.2144V61.356H64.3336Z" fill="url(#paint0_linear_0_14412)"/>
<g id="AGENCY">
<path id="Vector" d="M53.4316 63.0469H53.8814L54.7899 64.5772L55.7116 63.0469H56.1438L54.9796 64.9917V66.1339H54.5959V64.9917L53.4316 63.0469Z" fill="#52525A"/>
<path id="Vector_2" d="M49.966 66.1605C49.672 66.1605 49.4162 66.0958 49.1986 65.9665C48.984 65.8342 48.8179 65.6504 48.7003 65.4152C48.5827 65.18 48.5239 64.9051 48.5239 64.5905C48.5239 64.2789 48.5842 64.0054 48.7047 63.7702C48.8253 63.535 48.9958 63.3513 49.2163 63.219C49.4397 63.0867 49.6999 63.0205 49.9969 63.0205C50.2262 63.0205 50.4305 63.0631 50.6099 63.1484C50.7922 63.2307 50.9421 63.3498 51.0597 63.5056C51.1773 63.6585 51.2552 63.8423 51.2934 64.0569H50.8877C50.8289 63.8423 50.7201 63.6747 50.5614 63.5541C50.4055 63.4336 50.2115 63.3733 49.9792 63.3733C49.7646 63.3733 49.5764 63.4248 49.4147 63.5277C49.256 63.6306 49.1325 63.7746 49.0443 63.9599C48.959 64.1421 48.9164 64.3524 48.9164 64.5905C48.9164 64.8257 48.9576 65.0359 49.0399 65.2211C49.1251 65.4034 49.2457 65.5475 49.4015 65.6533C49.5603 65.7562 49.747 65.8077 49.9616 65.8077C50.1997 65.8077 50.3982 65.7474 50.5569 65.6269C50.7187 65.5063 50.8274 65.3387 50.8833 65.1241H51.289C51.2508 65.3358 51.1714 65.5196 51.0509 65.6754C50.9303 65.8312 50.7775 65.9518 50.5922 66.037C50.407 66.1193 50.1983 66.1605 49.966 66.1605Z" fill="#52525A"/>
<path id="Vector_3" d="M43.5816 66.1339V63.0469H43.9344L45.5926 65.4283V63.0469H45.9674V66.1339H45.6146L43.9564 63.7525V66.1339H43.5816Z" fill="#52525A"/>
<path id="Vector_4" d="M39.0538 63.0469H41.0207V63.3997H39.4375V64.3875H40.7561V64.7404H39.4375V65.7811H41.078V66.1339H39.0538V63.0469Z" fill="#52525A"/>
<path id="Vector_5" d="M35.0224 66.1605C34.7372 66.1605 34.4858 66.0943 34.2683 65.962C34.0507 65.8297 33.8802 65.646 33.7567 65.4108C33.6332 65.1756 33.5715 64.9021 33.5715 64.5905C33.5715 64.2789 33.6317 64.0054 33.7523 63.7702C33.8728 63.535 34.0434 63.3513 34.2639 63.219C34.4873 63.0867 34.7475 63.0205 35.0444 63.0205C35.2738 63.0205 35.4796 63.0631 35.6619 63.1484C35.8471 63.2307 35.9985 63.3498 36.1161 63.5056C36.2366 63.6585 36.3146 63.8408 36.3498 64.0525H35.9397C35.8868 63.8378 35.7809 63.6717 35.6222 63.5541C35.4663 63.4336 35.2708 63.3733 35.0356 63.3733C34.821 63.3733 34.6328 63.4248 34.4711 63.5277C34.3094 63.6306 34.1845 63.7746 34.0963 63.9599C34.0081 64.1421 33.964 64.3524 33.964 64.5905C33.964 64.8286 34.0081 65.0403 34.0963 65.2256C34.1845 65.4078 34.308 65.5504 34.4667 65.6533C34.6255 65.7562 34.8122 65.8077 35.0268 65.8077C35.1679 65.8077 35.2973 65.7871 35.4149 65.7459C35.5354 65.7048 35.6398 65.646 35.728 65.5695C35.8162 65.4931 35.8838 65.4005 35.9309 65.2917C35.9809 65.18 36.0058 65.0565 36.0058 64.9213V64.8154H35.0797V64.4626H36.3807V66.134H36.0499L36.0235 65.6842C35.9764 65.7577 35.9074 65.8312 35.8162 65.9047C35.728 65.9782 35.6178 66.04 35.4855 66.0899C35.3532 66.137 35.1988 66.1605 35.0224 66.1605Z" fill="#52525A"/>
<path id="Vector_6" d="M28.5929 66.1342L29.7704 63.0471H30.2246L31.3977 66.1342H30.9875L30.6612 65.3007H29.3161L28.9898 66.1342H28.5929ZM29.4308 64.9523H30.5465L29.9865 63.4661L29.4308 64.9523Z" fill="#52525A"/>
</g>
<path id="Subtract" fill-rule="evenodd" clip-rule="evenodd" d="M55.4288 6.04075C55.4288 2.70453 58.1333 0 61.4695 0H66.592C66.592 12.9451 66.592 25.8902 66.592 38.8353C63.5645 37.5762 60.2834 35.5927 56.7905 33.4811C56.3402 33.2089 55.886 32.9343 55.4288 32.6591C55.4288 23.7863 55.4288 14.9135 55.4288 6.04075ZM52.6837 31.0306C52.6837 22.5804 52.6837 14.1302 52.6837 5.68008H47.5612C44.225 5.68008 41.5205 8.38462 41.5205 11.7208C41.5205 16.3766 41.5205 21.0324 41.5205 25.6882C42.2297 25.921 42.9481 26.1836 43.675 26.4775C46.7867 27.7353 49.7965 29.3515 52.6837 31.0306ZM38.5924 24.8807C38.5924 20.3739 38.5924 15.867 38.5924 11.3602H33.4702C30.134 11.3602 27.4294 14.0647 27.4293 17.4009C27.4292 19.8754 27.4292 22.3499 27.4292 24.8244C30.7241 24.0531 34.4812 23.9645 38.5924 24.8807Z" fill="url(#paint1_linear_0_14412)"/>
<path id="Union_2" fill-rule="evenodd" clip-rule="evenodd" d="M32.3922 40.7483C22.1101 37.3802 17.0615 41.8888 16.9888 45.8243C16.9425 48.3322 19.7945 49.9103 22.2134 49.2466C23.5751 48.873 25.0513 48.0754 26.6133 46.7596C30.8887 59.5044 16.4348 66.555 6.42307 58.149C-3.58864 49.743 1.80273 31.7946 17.9426 28.77C14.6224 31.6765 13.1902 35.7651 13.1941 39.544C15.3687 31.3389 27.3704 22.2878 43.6674 28.8676C48.305 30.74 52.7174 33.4042 56.8364 35.8912C61.3651 38.6256 65.5393 41.146 69.2685 42.1646C70.0987 42.3913 70.8497 42.5472 71.528 42.6425C75.5324 43.2047 77.4511 37.0103 73.4282 36.6001C72.1824 36.473 70.6134 36.7891 68.7188 37.6832C68.9844 30.5877 78.3316 26.3041 82.39 33.027C86.2899 39.4872 80.9983 47.352 73.6215 50.0143C73.6311 50.002 73.6407 49.9896 73.6504 49.9772C69.3062 51.9387 62.61 51.2512 57.5878 49.6743C54.4273 48.682 50.864 47.362 46.8812 45.8867C42.5538 44.2836 37.7312 42.4971 32.3922 40.7483Z" fill="#409AFF"/>
<path id="Vector 594" d="M36.0527 44.5338C22.6282 41.0913 21.2624 45.5208 23.1028 47.5975C20.8856 48.7726 16.803 45.8461 20.451 42.8162C24.8282 39.1805 34.7612 43.2465 36.0527 44.5338Z" fill="#409AFF"/>
</g>
<defs>
<linearGradient id="paint0_linear_0_14412" x1="43.3675" y1="55.1721" x2="43.3675" y2="66.0454" gradientUnits="userSpaceOnUse">
<stop stop-color="#8555ED"/>
<stop offset="1" stop-color="#4C3087"/>
</linearGradient>
<linearGradient id="paint1_linear_0_14412" x1="47.0106" y1="0" x2="47.0106" y2="38.8353" gradientUnits="userSpaceOnUse">
<stop stop-color="#8555ED"/>
<stop offset="1" stop-color="#4C3087"/>
</linearGradient>
</defs>
</svg>
