<svg width="30" height="30" viewBox="0 0 30 30" fill="none" xmlns="http://www.w3.org/2000/svg">
<g id="announcement">
<path id="Vector" d="M26.25 22.5C26.25 22.7624 26.1675 23.0181 26.0141 23.2309C25.8607 23.4437 25.6442 23.6029 25.3953 23.6859C25.1464 23.7688 24.8777 23.7714 24.6273 23.6931C24.3769 23.6149 24.1574 23.4599 24 23.25C22.9492 21.8559 21.5897 20.7242 20.0283 19.9435C18.4668 19.1627 16.7458 18.7543 15 18.75H10C9.6687 18.75 9.35094 18.6185 9.11656 18.3843C8.88217 18.1502 8.75033 17.8326 8.75 17.5013V10C8.75 9.6687 8.88152 9.35095 9.11567 9.11657C9.34982 8.88218 9.66745 8.75034 9.99875 8.75001H15C16.7458 8.74576 18.4668 8.33727 20.0283 7.55654C21.5897 6.77581 22.9492 5.64407 24 4.25001C24.1572 4.04038 24.3763 3.88546 24.6264 3.80714C24.8765 3.72882 25.1448 3.73106 25.3935 3.81355C25.6422 3.89604 25.8587 4.05461 26.0124 4.26683C26.1661 4.47906 26.2492 4.73422 26.25 4.99626V22.5Z" fill="#4745CE"/>
<path id="Vector_2" d="M11.25 18.75H7.5C6.50544 18.75 5.55161 18.3549 4.84835 17.6517C4.14509 16.9484 3.75 15.9946 3.75 15V12.5C3.75 11.5054 4.14509 10.5516 4.84835 9.84835C5.55161 9.14509 6.50544 8.75 7.5 8.75H11.25V18.75ZM25 25C24.6687 25 24.3509 24.8685 24.1166 24.6343C23.8822 24.4002 23.7503 24.0826 23.75 23.7512V3.75C23.75 3.41848 23.8817 3.10054 24.1161 2.86612C24.3505 2.6317 24.6685 2.5 25 2.5C25.3315 2.5 25.6495 2.6317 25.8839 2.86612C26.1183 3.10054 26.25 3.41848 26.25 3.75V23.75C26.25 24.0813 26.1185 24.3991 25.8843 24.6334C25.6502 24.8678 25.3313 24.9997 25 25Z" fill="#6563FF"/>
<path id="Vector_3" d="M11.2501 18.75H8.10514L5.10014 25.7575C5.01859 25.9477 4.98556 26.1552 5.00399 26.3613C5.02243 26.5675 5.09175 26.7658 5.20575 26.9385C5.31975 27.1113 5.47485 27.253 5.65713 27.351C5.83942 27.449 6.04318 27.5002 6.25014 27.5H11.2501C11.7501 27.5 12.2026 27.2025 12.3989 26.7425L15.8026 18.7987C15.5364 18.7787 15.2701 18.7513 15.0001 18.75H11.2501Z" fill="#D8D8FF"/>
</g>
</svg>
