<svg width="40" height="40" viewBox="0 0 40 40" fill="none" xmlns="http://www.w3.org/2000/svg">
<g id="announcement">
<path id="Vector" d="M35.0001 30C35.0001 30.3498 34.89 30.6908 34.6855 30.9745C34.481 31.2583 34.1923 31.4705 33.8605 31.5811C33.5286 31.6918 33.1704 31.6952 32.8365 31.5909C32.5026 31.4866 32.21 31.2799 32.0001 31C30.5989 29.1413 28.7864 27.6323 26.7044 26.5913C24.6225 25.5503 22.3278 25.0057 20.0001 25H13.3334C12.8917 25 12.468 24.8246 12.1555 24.5124C11.843 24.2002 11.6672 23.7768 11.6667 23.335V13.3333C11.6667 12.8916 11.8421 12.4679 12.1543 12.1554C12.4665 11.8429 12.89 11.6671 13.3317 11.6667H20.0001C22.3278 11.661 24.6225 11.1164 26.7044 10.0754C28.7864 9.03442 30.5989 7.52542 32.0001 5.66668C32.2097 5.38717 32.5019 5.18061 32.8353 5.07619C33.1687 4.97176 33.5265 4.97475 33.8581 5.08474C34.1897 5.19472 34.4784 5.40614 34.6833 5.68911C34.8882 5.97208 34.999 6.3123 35.0001 6.66168V30Z" fill="#7E7DED"/>
<path id="Vector_2" d="M15 24.9987H10C8.67392 24.9987 7.40215 24.4719 6.46447 23.5342C5.52678 22.5965 5 21.3248 5 19.9987V16.6654C5 15.3393 5.52678 14.0675 6.46447 13.1298C7.40215 12.1921 8.67392 11.6654 10 11.6654H15V24.9987ZM33.3333 33.332C32.8916 33.332 32.4679 33.1567 32.1554 32.8445C31.8429 32.5323 31.6671 32.1088 31.6667 31.667V4.9987C31.6667 4.55667 31.8423 4.13275 32.1548 3.82019C32.4674 3.50763 32.8913 3.33203 33.3333 3.33203C33.7754 3.33203 34.1993 3.50763 34.5118 3.82019C34.8244 4.13275 35 4.55667 35 4.9987V31.6654C35 32.1071 34.8246 32.5308 34.5124 32.8433C34.2002 33.1558 33.7751 33.3316 33.3333 33.332Z" fill="#6563FF"/>
<path id="Vector_3" d="M15.0001 25H10.8068L6.8001 34.3433C6.69138 34.597 6.64733 34.8736 6.67191 35.1484C6.69649 35.4233 6.78892 35.6877 6.94092 35.918C7.09291 36.1483 7.29971 36.3373 7.54276 36.468C7.78581 36.5986 8.05749 36.6669 8.33343 36.6667H15.0001C15.6668 36.6667 16.2701 36.27 16.5318 35.6567L21.0701 25.065C20.7151 25.0383 20.3601 25.0017 20.0001 25H15.0001Z" fill="#D8D8FF"/>
</g>
</svg>
