<svg width="40" height="40" viewBox="0 0 40 40" fill="none" xmlns="http://www.w3.org/2000/svg">
<g id="archery">
<path id="Vector" d="M20 5C18.0302 5 16.0796 5.38799 14.2597 6.14181C12.4399 6.89563 10.7863 8.00052 9.3934 9.3934C8.00052 10.7863 6.89563 12.4399 6.14181 14.2597C5.38799 16.0796 5 18.0302 5 20C5 21.9698 5.38799 23.9204 6.14181 25.7403C6.89563 27.5601 8.00052 29.2137 9.3934 30.6066C10.7863 31.9995 12.4399 33.1044 14.2597 33.8582C16.0796 34.612 18.0302 35 20 35C23.9782 35 27.7936 33.4196 30.6066 30.6066C33.4196 27.7936 35 23.9782 35 20C35 16.0218 33.4196 12.2064 30.6066 9.3934C27.7936 6.58035 23.9782 5 20 5ZM20 31.6667C18.4679 31.6667 16.9508 31.3649 15.5354 30.7786C14.1199 30.1923 12.8338 29.3329 11.7504 28.2496C10.6671 27.1662 9.80771 25.8801 9.22141 24.4646C8.6351 23.0492 8.33333 21.5321 8.33333 20C8.33333 18.4679 8.6351 16.9508 9.22141 15.5354C9.80771 14.1199 10.6671 12.8338 11.7504 11.7504C12.8338 10.6671 14.1199 9.80771 15.5354 9.22141C16.9508 8.6351 18.4679 8.33333 20 8.33333C23.0942 8.33333 26.0617 9.5625 28.2496 11.7504C30.4375 13.9383 31.6667 16.9058 31.6667 20C31.6667 23.0942 30.4375 26.0617 28.2496 28.2496C26.0617 30.4375 23.0942 31.6667 20 31.6667Z" fill="#6563FF"/>
<path id="Vector_2" d="M20.0002 8.33398C18.4681 8.33398 16.951 8.63575 15.5355 9.22206C14.1201 9.80836 12.8339 10.6677 11.7506 11.7511C10.6672 12.8344 9.80787 14.1205 9.22157 15.536C8.63526 16.9515 8.3335 18.4686 8.3335 20.0007C8.3335 21.5327 8.63526 23.0498 9.22157 24.4653C9.80787 25.8808 10.6672 27.1669 11.7506 28.2502C12.8339 29.3336 14.1201 30.1929 15.5355 30.7792C16.951 31.3656 18.4681 31.6673 20.0002 31.6673C23.0944 31.6673 26.0618 30.4382 28.2497 28.2502C30.4377 26.0623 31.6668 23.0948 31.6668 20.0007C31.6668 16.9065 30.4377 13.939 28.2497 11.7511C26.0618 9.56315 23.0944 8.33398 20.0002 8.33398ZM20.0002 28.334C17.79 28.334 15.6704 27.456 14.1076 25.8932C12.5448 24.3304 11.6668 22.2108 11.6668 20.0007C11.6668 17.7905 12.5448 15.6709 14.1076 14.1081C15.6704 12.5453 17.79 11.6673 20.0002 11.6673C22.2103 11.6673 24.3299 12.5453 25.8927 14.1081C27.4555 15.6709 28.3335 17.7905 28.3335 20.0007C28.3335 22.2108 27.4555 24.3304 25.8927 25.8932C24.3299 27.456 22.2103 28.334 20.0002 28.334Z" fill="#4745CE"/>
<path id="Vector_3" d="M20 25C22.7614 25 25 22.7614 25 20C25 17.2386 22.7614 15 20 15C17.2386 15 15 17.2386 15 20C15 22.7614 17.2386 25 20 25Z" fill="#4745CE"/>
<path id="Vector_4" d="M19.9998 11.666C17.7897 11.666 15.6701 12.544 14.1073 14.1068C12.5445 15.6696 11.6665 17.7892 11.6665 19.9993C11.6665 22.2095 12.5445 24.3291 14.1073 25.8919C15.6701 27.4547 17.7897 28.3327 19.9998 28.3327C22.21 28.3327 24.3296 27.4547 25.8924 25.8919C27.4552 24.3291 28.3332 22.2095 28.3332 19.9993C28.3332 17.7892 27.4552 15.6696 25.8924 14.1068C24.3296 12.544 22.21 11.666 19.9998 11.666ZM19.9998 24.9993C18.6738 24.9993 17.402 24.4726 16.4643 23.5349C15.5266 22.5972 14.9998 21.3254 14.9998 19.9993C14.9998 18.6733 15.5266 17.4015 16.4643 16.4638C17.402 15.5261 18.6738 14.9993 19.9998 14.9993C21.3259 14.9993 22.5977 15.5261 23.5354 16.4638C24.4731 17.4015 24.9998 18.6733 24.9998 19.9993C24.9998 21.3254 24.4731 22.5972 23.5354 23.5349C22.5977 24.4726 21.3259 24.9993 19.9998 24.9993Z" fill="#6563FF"/>
<path id="Vector_5" d="M20.0002 21.6673C20.9206 21.6673 21.6668 20.9211 21.6668 20.0007C21.6668 19.0802 20.9206 18.334 20.0002 18.334C19.0797 18.334 18.3335 19.0802 18.3335 20.0007C18.3335 20.9211 19.0797 21.6673 20.0002 21.6673Z" fill="#6563FF"/>
</g>
</svg>
