<svg width="30" height="30" viewBox="0 0 30 30" fill="none" xmlns="http://www.w3.org/2000/svg">
<g id="bar-graph">
<path id="Vector" d="M8.75 27.5C8.58582 27.5001 8.42323 27.4678 8.27154 27.405C8.11984 27.3423 7.982 27.2502 7.86591 27.1341C7.74982 27.018 7.65775 26.8802 7.59496 26.7285C7.53217 26.5768 7.49991 26.4142 7.5 26.25V21.25C7.5 20.9185 7.6317 20.6005 7.86612 20.3661C8.10054 20.1317 8.41848 20 8.75 20C9.08152 20 9.39946 20.1317 9.63388 20.3661C9.8683 20.6005 10 20.9185 10 21.25V26.25C10.0001 26.4142 9.96783 26.5768 9.90504 26.7285C9.84226 26.8802 9.75018 27.018 9.63409 27.1341C9.518 27.2502 9.38016 27.3423 9.22847 27.405C9.07677 27.4678 8.91418 27.5001 8.75 27.5Z" fill="#D8D8FF"/>
<path id="Vector_2" d="M13.75 27.5C13.5858 27.5001 13.4232 27.4678 13.2715 27.405C13.1198 27.3423 12.982 27.2502 12.8659 27.1341C12.7498 27.018 12.6577 26.8802 12.595 26.7285C12.5322 26.5768 12.4999 26.4142 12.5 26.25V11.25C12.5 10.9185 12.6317 10.6005 12.8661 10.3661C13.1005 10.1317 13.4185 10 13.75 10C14.0815 10 14.3995 10.1317 14.6339 10.3661C14.8683 10.6005 15 10.9185 15 11.25V26.25C15.0001 26.4142 14.9678 26.5768 14.905 26.7285C14.8423 26.8802 14.7502 27.018 14.6341 27.1341C14.518 27.2502 14.3802 27.3423 14.2285 27.405C14.0768 27.4678 13.9142 27.5001 13.75 27.5Z" fill="#4745CE"/>
<path id="Vector_3" d="M18.75 27.5C18.5858 27.5001 18.4232 27.4678 18.2715 27.405C18.1198 27.3423 17.982 27.2502 17.8659 27.1341C17.7498 27.018 17.6577 26.8802 17.595 26.7285C17.5322 26.5768 17.4999 26.4142 17.5 26.25V16.25C17.5 15.9185 17.6317 15.6005 17.8661 15.3661C18.1005 15.1317 18.4185 15 18.75 15C19.0815 15 19.3995 15.1317 19.6339 15.3661C19.8683 15.6005 20 15.9185 20 16.25V26.25C20.0001 26.4142 19.9678 26.5768 19.905 26.7285C19.8423 26.8802 19.7502 27.018 19.6341 27.1341C19.518 27.2502 19.3802 27.3423 19.2285 27.405C19.0768 27.4678 18.9142 27.5001 18.75 27.5Z" fill="#D8D8FF"/>
<path id="Vector_4" d="M23.75 27.5C23.5858 27.5001 23.4232 27.4678 23.2715 27.405C23.1198 27.3423 22.982 27.2502 22.8659 27.1341C22.7498 27.018 22.6577 26.8802 22.595 26.7285C22.5322 26.5768 22.4999 26.4142 22.5 26.25V6.25C22.5 5.91848 22.6317 5.60054 22.8661 5.36612C23.1005 5.1317 23.4185 5 23.75 5C24.0815 5 24.3995 5.1317 24.6339 5.36612C24.8683 5.60054 25 5.91848 25 6.25V26.25C25.0001 26.4142 24.9678 26.5768 24.905 26.7285C24.8423 26.8802 24.7502 27.018 24.6341 27.1341C24.518 27.2502 24.3802 27.3423 24.2285 27.405C24.0768 27.4678 23.9142 27.5001 23.75 27.5Z" fill="#4745CE"/>
<path id="Vector_5" d="M26.25 27.5H3.75C3.58582 27.5001 3.42323 27.4678 3.27154 27.405C3.11984 27.3423 2.982 27.2502 2.86591 27.1341C2.74982 27.018 2.65775 26.8802 2.59496 26.7285C2.53217 26.5768 2.49991 26.4142 2.5 26.25V3.75C2.5 3.41848 2.6317 3.10054 2.86612 2.86612C3.10054 2.6317 3.41848 2.5 3.75 2.5C4.08152 2.5 4.39946 2.6317 4.63388 2.86612C4.8683 3.10054 5 3.41848 5 3.75V25H26.25C26.5815 25 26.8995 25.1317 27.1339 25.3661C27.3683 25.6005 27.5 25.9185 27.5 26.25C27.5 26.5815 27.3683 26.8995 27.1339 27.1339C26.8995 27.3683 26.5815 27.5 26.25 27.5Z" fill="#6563FF"/>
</g>
</svg>
