<svg width="37" height="38" viewBox="0 0 37 38" fill="none" xmlns="http://www.w3.org/2000/svg">
<g id="calendar">
<path id="Vector" d="M33.0306 13.9347H3.12793V9.2896C3.12793 8.05765 3.6005 6.87616 4.44167 6.00504C5.28285 5.13392 6.42372 4.64453 7.61333 4.64453H28.5452C29.7348 4.64453 30.8757 5.13392 31.7168 6.00504C32.558 6.87616 33.0306 8.05765 33.0306 9.2896V13.9347Z" fill="#B2B1FF"/>
<path id="Vector_2" d="M3.12793 29.4191C3.12912 30.6507 3.60207 31.8315 4.44298 32.7023C5.2839 33.5732 6.42409 34.063 7.61333 34.0642H28.5452C29.7344 34.063 30.8746 33.5732 31.7155 32.7023C32.5564 31.8315 33.0294 30.6507 33.0306 29.4191V13.9355H3.12793V29.4191Z" fill="#D8D8FF"/>
<path id="Vector_3" d="M10.6035 10.837C10.207 10.837 9.8267 10.6739 9.54631 10.3835C9.26592 10.0931 9.1084 9.69931 9.1084 9.28866V3.09523C9.1084 2.68458 9.26592 2.29075 9.54631 2.00038C9.8267 1.71 10.207 1.54688 10.6035 1.54688C11.0001 1.54688 11.3804 1.71 11.6607 2.00038C11.9411 2.29075 12.0987 2.68458 12.0987 3.09523V9.28866C12.0987 9.69931 11.9411 10.0931 11.6607 10.3835C11.3804 10.6739 11.0001 10.837 10.6035 10.837ZM25.5548 10.837C25.1583 10.837 24.778 10.6739 24.4976 10.3835C24.2172 10.0931 24.0597 9.69931 24.0597 9.28866V3.09523C24.0597 2.68458 24.2172 2.29075 24.4976 2.00038C24.778 1.71 25.1583 1.54688 25.5548 1.54688C25.9514 1.54688 26.3317 1.71 26.6121 2.00038C26.8925 2.29075 27.05 2.68458 27.05 3.09523V9.28866C27.05 9.69931 26.8925 10.0931 26.6121 10.3835C26.3317 10.6739 25.9514 10.837 25.5548 10.837Z" fill="#6563FF"/>
<path id="Vector_4" d="M10.6035 21.6768C11.4293 21.6768 12.0987 20.9836 12.0987 20.1284C12.0987 19.2733 11.4293 18.5801 10.6035 18.5801C9.77779 18.5801 9.1084 19.2733 9.1084 20.1284C9.1084 20.9836 9.77779 21.6768 10.6035 21.6768Z" fill="#6563FF"/>
<path id="Vector_5" d="M25.5547 21.6768C26.3804 21.6768 27.0498 20.9836 27.0498 20.1284C27.0498 19.2733 26.3804 18.5801 25.5547 18.5801C24.729 18.5801 24.0596 19.2733 24.0596 20.1284C24.0596 20.9836 24.729 21.6768 25.5547 21.6768Z" fill="#6563FF"/>
<path id="Vector_6" d="M18.0791 21.6768C18.9049 21.6768 19.5742 20.9836 19.5742 20.1284C19.5742 19.2733 18.9049 18.5801 18.0791 18.5801C17.2534 18.5801 16.584 19.2733 16.584 20.1284C16.584 20.9836 17.2534 21.6768 18.0791 21.6768Z" fill="#6563FF"/>
<path id="Vector_7" d="M18.0791 27.8702C18.9049 27.8702 19.5742 27.1769 19.5742 26.3218C19.5742 25.4667 18.9049 24.7734 18.0791 24.7734C17.2534 24.7734 16.584 25.4667 16.584 26.3218C16.584 27.1769 17.2534 27.8702 18.0791 27.8702Z" fill="#6563FF"/>
<path id="Vector_8" d="M10.6035 27.8702C11.4293 27.8702 12.0987 27.1769 12.0987 26.3218C12.0987 25.4667 11.4293 24.7734 10.6035 24.7734C9.77779 24.7734 9.1084 25.4667 9.1084 26.3218C9.1084 27.1769 9.77779 27.8702 10.6035 27.8702Z" fill="#6563FF"/>
<path id="Vector_9" d="M25.5557 27.8702C26.3814 27.8702 27.0508 27.1769 27.0508 26.3218C27.0508 25.4667 26.3814 24.7734 25.5557 24.7734C24.7299 24.7734 24.0605 25.4667 24.0605 26.3218C24.0605 27.1769 24.7299 27.8702 25.5557 27.8702Z" fill="#6563FF"/>
</g>
</svg>
