<svg width="38" height="38" viewBox="0 0 38 38" fill="none" xmlns="http://www.w3.org/2000/svg">
<g id="cash">
<path id="Vector" d="M31.2918 7.74219H6.51812C5.28655 7.74342 4.10577 8.2332 3.23491 9.10406C2.36406 9.97491 1.87428 11.1557 1.87305 12.3873V24.7741C1.87428 26.0057 2.36406 27.1865 3.23491 28.0573C4.10577 28.9282 5.28655 29.418 6.51812 29.4192H31.2918C32.5234 29.418 33.7042 28.9282 34.575 28.0573C35.4459 27.1865 35.9357 26.0057 35.9369 24.7741V12.3873C35.9357 11.1557 35.4459 9.97491 34.575 9.10406C33.7042 8.2332 32.5234 7.74342 31.2918 7.74219ZM18.905 23.2289C17.6722 23.2289 16.4899 22.7391 15.6182 21.8674C14.7465 20.9957 14.2568 19.8135 14.2568 18.5807C14.2568 17.3479 14.7465 16.1656 15.6182 15.2939C16.4899 14.4222 17.6722 13.9325 18.905 13.9325C20.1377 13.9325 21.32 14.4222 22.1917 15.2939C23.0634 16.1656 23.5531 17.3479 23.5531 18.5807C23.5531 19.8135 23.0634 20.9957 22.1917 21.8674C21.32 22.7391 20.1377 23.2289 18.905 23.2289Z" fill="#B2B1FF"/>
<path id="Vector_2" d="M9.61476 20.1299C10.4699 20.1299 11.1631 19.4367 11.1631 18.5816C11.1631 17.7264 10.4699 17.0332 9.61476 17.0332C8.75963 17.0332 8.06641 17.7264 8.06641 18.5816C8.06641 19.4367 8.75963 20.1299 9.61476 20.1299Z" fill="#6563FF"/>
<path id="Vector_3" d="M28.1948 20.1299C29.05 20.1299 29.7432 19.4367 29.7432 18.5816C29.7432 17.7264 29.05 17.0332 28.1948 17.0332C27.3397 17.0332 26.6465 17.7264 26.6465 18.5816C26.6465 19.4367 27.3397 20.1299 28.1948 20.1299Z" fill="#6563FF"/>
<path id="Vector_4" d="M18.904 23.2299C21.4711 23.2299 23.5522 21.1489 23.5522 18.5818C23.5522 16.0146 21.4711 13.9336 18.904 13.9336C16.3369 13.9336 14.2559 16.0146 14.2559 18.5818C14.2559 21.1489 16.3369 23.2299 18.904 23.2299Z" fill="#D8D8FF"/>
</g>
</svg>
