<svg width="38" height="38" viewBox="0 0 38 38" fill="none" xmlns="http://www.w3.org/2000/svg">
<g id="data-storage">
<path id="Vector" d="M30.0218 4.9043H8.34476C6.63449 4.9043 5.24805 6.29074 5.24805 8.00101V11.0977C5.24805 12.808 6.63449 14.1944 8.34476 14.1944H30.0218C31.732 14.1944 33.1185 12.808 33.1185 11.0977V8.00101C33.1185 6.29074 31.732 4.9043 30.0218 4.9043Z" fill="#D8D8FF"/>
<path id="Vector_2" d="M30.0218 14.1953H8.34476C6.63449 14.1953 5.24805 15.5818 5.24805 17.292V20.3887C5.24805 22.099 6.63449 23.4855 8.34476 23.4855H30.0218C31.732 23.4855 33.1185 22.099 33.1185 20.3887V17.292C33.1185 15.5818 31.732 14.1953 30.0218 14.1953Z" fill="#B2B1FF"/>
<path id="Vector_3" d="M30.0218 23.4863H8.34476C6.63449 23.4863 5.24805 24.8728 5.24805 26.583V29.6798C5.24805 31.39 6.63449 32.7765 8.34476 32.7765H30.0218C31.732 32.7765 33.1185 31.39 33.1185 29.6798V26.583C33.1185 24.8728 31.732 23.4863 30.0218 23.4863Z" fill="#D8D8FF"/>
<path id="Vector_4" d="M28.4741 11.0987C29.3293 11.0987 30.0225 10.4054 30.0225 9.55031C30.0225 8.69518 29.3293 8.00195 28.4741 8.00195C27.619 8.00195 26.9258 8.69518 26.9258 9.55031C26.9258 10.4054 27.619 11.0987 28.4741 11.0987Z" fill="#6563FF"/>
<path id="Vector_5" d="M28.4741 20.3897C29.3293 20.3897 30.0225 19.6965 30.0225 18.8413C30.0225 17.9862 29.3293 17.293 28.4741 17.293C27.619 17.293 26.9258 17.9862 26.9258 18.8413C26.9258 19.6965 27.619 20.3897 28.4741 20.3897Z" fill="#6563FF"/>
<path id="Vector_6" d="M28.4741 29.6787C29.3293 29.6787 30.0225 28.9855 30.0225 28.1304C30.0225 27.2753 29.3293 26.582 28.4741 26.582C27.619 26.582 26.9258 27.2753 26.9258 28.1304C26.9258 28.9855 27.619 29.6787 28.4741 29.6787Z" fill="#6563FF"/>
<path id="Vector_7" d="M23.8286 11.0987C24.6838 11.0987 25.377 10.4054 25.377 9.55031C25.377 8.69518 24.6838 8.00195 23.8286 8.00195C22.9735 8.00195 22.2803 8.69518 22.2803 9.55031C22.2803 10.4054 22.9735 11.0987 23.8286 11.0987Z" fill="#6563FF"/>
<path id="Vector_8" d="M23.8286 20.3897C24.6838 20.3897 25.377 19.6965 25.377 18.8413C25.377 17.9862 24.6838 17.293 23.8286 17.293C22.9735 17.293 22.2803 17.9862 22.2803 18.8413C22.2803 19.6965 22.9735 20.3897 23.8286 20.3897Z" fill="#6563FF"/>
<path id="Vector_9" d="M23.8286 29.6787C24.6838 29.6787 25.377 28.9855 25.377 28.1304C25.377 27.2753 24.6838 26.582 23.8286 26.582C22.9735 26.582 22.2803 27.2753 22.2803 28.1304C22.2803 28.9855 22.9735 29.6787 23.8286 29.6787Z" fill="#6563FF"/>
<path id="Vector_10" d="M14.5391 11.0987H9.89406C9.48341 11.0987 9.08958 10.9355 8.79921 10.6452C8.50883 10.3548 8.3457 9.96096 8.3457 9.55031C8.3457 9.13966 8.50883 8.74583 8.79921 8.45546C9.08958 8.16508 9.48341 8.00195 9.89406 8.00195H14.5391C14.9498 8.00195 15.3436 8.16508 15.634 8.45546C15.9244 8.74583 16.0875 9.13966 16.0875 9.55031C16.0875 9.96096 15.9244 10.3548 15.634 10.6452C15.3436 10.9355 14.9498 11.0987 14.5391 11.0987ZM14.5391 20.3888H9.89406C9.48341 20.3888 9.08958 20.2257 8.79921 19.9353C8.50883 19.6449 8.3457 19.2511 8.3457 18.8405C8.3457 18.4298 8.50883 18.036 8.79921 17.7456C9.08958 17.4552 9.48341 17.2921 9.89406 17.2921H14.5391C14.9498 17.2921 15.3436 17.4552 15.634 17.7456C15.9244 18.036 16.0875 18.4298 16.0875 18.8405C16.0875 19.2511 15.9244 19.6449 15.634 19.9353C15.3436 20.2257 14.9498 20.3888 14.5391 20.3888ZM14.5391 29.6789H9.89406C9.48341 29.6789 9.08958 29.5158 8.79921 29.2254C8.50883 28.9351 8.3457 28.5412 8.3457 28.1306C8.3457 27.7199 8.50883 27.3261 8.79921 27.0357C9.08958 26.7454 9.48341 26.5822 9.89406 26.5822H14.5391C14.9498 26.5822 15.3436 26.7454 15.634 27.0357C15.9244 27.3261 16.0875 27.7199 16.0875 28.1306C16.0875 28.5412 15.9244 28.9351 15.634 29.2254C15.3436 29.5158 14.9498 29.6789 14.5391 29.6789Z" fill="#6563FF"/>
</g>
</svg>
