<svg width="34" height="34" viewBox="0 0 34 34" fill="none" xmlns="http://www.w3.org/2000/svg">
<g id="disc">
<path id="Vector" d="M16.9997 2.83398C14.1978 2.83398 11.4588 3.66484 9.1291 5.2215C6.79941 6.77815 4.98363 8.99068 3.91139 11.5793C2.83915 14.1679 2.5586 17.0164 3.10522 19.7644C3.65185 22.5125 5.00109 25.0368 6.98234 27.018C8.96358 28.9992 11.4878 30.3485 14.2359 30.8951C16.984 31.4417 19.8324 31.1612 22.421 30.0889C25.0097 29.0167 27.2222 27.2009 28.7788 24.8712C30.3355 22.5415 31.1663 19.8026 31.1663 17.0007C31.1618 13.2448 29.6678 9.64406 27.0121 6.98827C24.3563 4.33248 20.7555 2.83848 16.9997 2.83398ZM16.9997 18.4173C16.7195 18.4173 16.4456 18.3342 16.2126 18.1786C15.9797 18.0229 15.7981 17.8016 15.6909 17.5428C15.5836 17.2839 15.5556 16.9991 15.6102 16.7243C15.6649 16.4495 15.7998 16.197 15.9979 15.9989C16.1961 15.8008 16.4485 15.6659 16.7233 15.6112C16.9981 15.5565 17.283 15.5846 17.5418 15.6918C17.8007 15.799 18.0219 15.9806 18.1776 16.2136C18.3333 16.4466 18.4163 16.7205 18.4163 17.0007C18.4163 17.3764 18.2671 17.7367 18.0014 18.0024C17.7357 18.2681 17.3754 18.4173 16.9997 18.4173Z" fill="#B2B1FF"/>
<path id="Vector_2" d="M17 21.25C16.1594 21.25 15.3377 21.0007 14.6388 20.5337C13.9399 20.0668 13.3952 19.403 13.0735 18.6264C12.7518 17.8498 12.6677 16.9953 12.8317 16.1709C12.9957 15.3464 13.4004 14.5892 13.9948 13.9948C14.5892 13.4004 15.3464 12.9957 16.1709 12.8317C16.9953 12.6677 17.8498 12.7518 18.6264 13.0735C19.403 13.3952 20.0668 13.9399 20.5337 14.6388C21.0007 15.3377 21.25 16.1594 21.25 17C21.2489 18.1268 20.8007 19.2072 20.004 20.004C19.2072 20.8007 18.1268 21.2489 17 21.25ZM17 15.5833C16.7198 15.5833 16.4459 15.6664 16.2129 15.8221C15.98 15.9778 15.7984 16.199 15.6912 16.4579C15.5839 16.7167 15.5559 17.0016 15.6106 17.2764C15.6652 17.5512 15.8001 17.8036 15.9983 18.0017C16.1964 18.1999 16.4488 18.3348 16.7236 18.3894C16.9984 18.4441 17.2833 18.4161 17.5421 18.3088C17.801 18.2016 18.0223 18.02 18.1779 17.7871C18.3336 17.5541 18.4167 17.2802 18.4167 17C18.4167 16.6243 18.2674 16.2639 18.0017 15.9983C17.7361 15.7326 17.3757 15.5833 17 15.5833Z" fill="#6563FF"/>
</g>
</svg>
