<svg width="34" height="34" viewBox="0 0 34 34" fill="none" xmlns="http://www.w3.org/2000/svg">
<g id="dollar">
<path id="Vector" d="M18.4173 15.584H15.584C15.2083 15.584 14.8479 15.4347 14.5822 15.1691C14.3166 14.9034 14.1673 14.543 14.1673 14.1673C14.1673 13.7916 14.3166 13.4313 14.5822 13.1656C14.8479 12.8999 15.2083 12.7507 15.584 12.7507H21.2507C21.6264 12.7507 21.9867 12.6014 22.2524 12.3357C22.5181 12.07 22.6673 11.7097 22.6673 11.334C22.6673 10.9583 22.5181 10.5979 22.2524 10.3323C21.9867 10.0666 21.6264 9.91732 21.2507 9.91732H18.4173V8.50065C18.4173 8.12493 18.2681 7.76459 18.0024 7.49892C17.7367 7.23324 17.3764 7.08398 17.0007 7.08398C16.6249 7.08398 16.2646 7.23324 15.9989 7.49892C15.7332 7.76459 15.584 8.12493 15.584 8.50065V9.91732C14.4568 9.91732 13.3758 10.3651 12.5788 11.1621C11.7818 11.9591 11.334 13.0401 11.334 14.1673C11.334 15.2945 11.7818 16.3755 12.5788 17.1725C13.3758 17.9696 14.4568 18.4173 15.584 18.4173H18.4173C18.793 18.4173 19.1534 18.5666 19.4191 18.8323C19.6847 19.0979 19.834 19.4583 19.834 19.834C19.834 20.2097 19.6847 20.57 19.4191 20.8357C19.1534 21.1014 18.793 21.2507 18.4173 21.2507H12.7507C12.3749 21.2507 12.0146 21.3999 11.7489 21.6656C11.4832 21.9313 11.334 22.2916 11.334 22.6673C11.334 23.043 11.4832 23.4034 11.7489 23.6691C12.0146 23.9347 12.3749 24.084 12.7507 24.084H15.584V25.5007C15.584 25.8764 15.7332 26.2367 15.9989 26.5024C16.2646 26.7681 16.6249 26.9173 17.0007 26.9173C17.3764 26.9173 17.7367 26.7681 18.0024 26.5024C18.2681 26.2367 18.4173 25.8764 18.4173 25.5007V24.084C19.5445 24.084 20.6255 23.6362 21.4225 22.8392C22.2196 22.0422 22.6673 20.9612 22.6673 19.834C22.6673 18.7068 22.2196 17.6258 21.4225 16.8288C20.6255 16.0318 19.5445 15.584 18.4173 15.584Z" fill="#6563FF"/>
<path id="Vector_2" d="M26.9173 2.83398H7.08398C5.95716 2.83511 4.87681 3.28324 4.08002 4.08002C3.28324 4.87681 2.83511 5.95716 2.83398 7.08398V26.9173C2.83511 28.0441 3.28324 29.1245 4.08002 29.9213C4.87681 30.7181 5.95716 31.1662 7.08398 31.1673H26.9173C28.0441 31.1662 29.1245 30.7181 29.9213 29.9213C30.7181 29.1245 31.1662 28.0441 31.1673 26.9173V7.08398C31.1662 5.95716 30.7181 4.87681 29.9213 4.08002C29.1245 3.28324 28.0441 2.83511 26.9173 2.83398ZM15.584 15.584H18.4173C19.5445 15.584 20.6255 16.0318 21.4225 16.8288C22.2196 17.6258 22.6673 18.7068 22.6673 19.834C22.6673 20.9612 22.2196 22.0422 21.4225 22.8392C20.6255 23.6362 19.5445 24.084 18.4173 24.084V25.5007C18.4173 25.8764 18.2681 26.2367 18.0024 26.5024C17.7367 26.7681 17.3764 26.9173 17.0007 26.9173C16.6249 26.9173 16.2646 26.7681 15.9989 26.5024C15.7332 26.2367 15.584 25.8764 15.584 25.5007V24.084H12.7507C12.3749 24.084 12.0146 23.9347 11.7489 23.6691C11.4832 23.4034 11.334 23.043 11.334 22.6673C11.334 22.2916 11.4832 21.9313 11.7489 21.6656C12.0146 21.3999 12.3749 21.2507 12.7507 21.2507H18.4173C18.793 21.2507 19.1534 21.1014 19.4191 20.8357C19.6847 20.57 19.834 20.2097 19.834 19.834C19.834 19.4583 19.6847 19.0979 19.4191 18.8323C19.1534 18.5666 18.793 18.4173 18.4173 18.4173H15.584C14.4568 18.4173 13.3758 17.9696 12.5788 17.1725C11.7818 16.3755 11.334 15.2945 11.334 14.1673C11.334 13.0401 11.7818 11.9591 12.5788 11.1621C13.3758 10.3651 14.4568 9.91732 15.584 9.91732V8.50065C15.584 8.12493 15.7332 7.76459 15.9989 7.49892C16.2646 7.23324 16.6249 7.08398 17.0007 7.08398C17.3764 7.08398 17.7367 7.23324 18.0024 7.49892C18.2681 7.76459 18.4173 8.12493 18.4173 8.50065V9.91732H21.2507C21.6264 9.91732 21.9867 10.0666 22.2524 10.3323C22.5181 10.5979 22.6673 10.9583 22.6673 11.334C22.6673 11.7097 22.5181 12.07 22.2524 12.3357C21.9867 12.6014 21.6264 12.7507 21.2507 12.7507H15.584C15.2083 12.7507 14.8479 12.8999 14.5823 13.1656C14.3166 13.4313 14.1673 13.7916 14.1673 14.1673C14.1673 14.543 14.3166 14.9034 14.5823 15.1691C14.8479 15.4347 15.2083 15.584 15.584 15.584Z" fill="#B2B1FF"/>
</g>
</svg>
