<svg width="34" height="34" viewBox="0 0 34 34" fill="none" xmlns="http://www.w3.org/2000/svg">
<g id="envelope">
<path id="Vector" d="M31.167 28.3327H2.83366C1.98366 28.3327 1.41699 27.766 1.41699 26.916V7.08268C1.41699 6.23268 1.98366 5.66602 2.83366 5.66602H31.167C32.017 5.66602 32.5837 6.23268 32.5837 7.08268V26.916C32.5837 27.766 32.017 28.3327 31.167 28.3327Z" fill="#B2B1FF"/>
<path id="Vector_2" d="M15.583 17.0007H8.49967C7.64967 17.0007 7.08301 16.434 7.08301 15.584C7.08301 14.734 7.64967 14.1673 8.49967 14.1673H15.583C16.433 14.1673 16.9997 14.734 16.9997 15.584C16.9997 16.434 16.433 17.0007 15.583 17.0007ZM15.583 22.6673H8.49967C7.64967 22.6673 7.08301 22.1007 7.08301 21.2507C7.08301 20.4007 7.64967 19.834 8.49967 19.834H15.583C16.433 19.834 16.9997 20.4007 16.9997 21.2507C16.9997 22.1007 16.433 22.6673 15.583 22.6673ZM25.4997 15.584H24.083C23.233 15.584 22.6663 15.0173 22.6663 14.1673V12.7507C22.6663 11.9007 23.233 11.334 24.083 11.334H25.4997C26.3497 11.334 26.9163 11.9007 26.9163 12.7507V14.1673C26.9163 15.0173 26.3497 15.584 25.4997 15.584Z" fill="#6563FF"/>
</g>
</svg>
