<svg width="30" height="30" viewBox="0 0 30 30" fill="none" xmlns="http://www.w3.org/2000/svg">
<g id="gear">
<path id="Vector" d="M14.5488 20C13.5599 20 12.5932 19.7068 11.771 19.1574C10.9487 18.6079 10.3079 17.8271 9.92943 16.9134C9.55099 15.9998 9.45198 14.9945 9.6449 14.0246C9.83783 13.0546 10.314 12.1637 11.0133 11.4645C11.7126 10.7652 12.6035 10.289 13.5734 10.0961C14.5433 9.90315 15.5486 10.0022 16.4622 10.3806C17.3759 10.759 18.1568 11.3999 18.7062 12.2222C19.2556 13.0444 19.5488 14.0111 19.5488 15C19.5473 16.3256 19.02 17.5965 18.0827 18.5339C17.1453 19.4712 15.8744 19.9985 14.5488 20ZM14.5488 12.5C14.0544 12.5 13.571 12.6466 13.1599 12.9213C12.7488 13.196 12.4284 13.5865 12.2391 14.0433C12.0499 14.5001 12.0004 15.0028 12.0969 15.4877C12.1933 15.9727 12.4314 16.4181 12.7811 16.7678C13.1307 17.1174 13.5762 17.3555 14.0611 17.452C14.5461 17.5484 15.0487 17.4989 15.5055 17.3097C15.9624 17.1205 16.3528 16.8001 16.6275 16.3889C16.9022 15.9778 17.0488 15.4945 17.0488 15C17.0482 14.3372 16.7846 13.7017 16.3159 13.233C15.8472 12.7643 15.2117 12.5007 14.5488 12.5Z" fill="#6563FF"/>
<path id="Vector_2" d="M24.8793 15.8295C24.6767 15.6007 24.5648 15.3056 24.5648 15C24.5648 14.6944 24.6767 14.3993 24.8793 14.1705L26.4766 12.3694C26.6506 12.1731 26.7585 11.927 26.785 11.666C26.8115 11.405 26.7553 11.1422 26.6243 10.9149L24.1243 6.58509C23.9926 6.35833 23.7933 6.17851 23.5542 6.07089C23.3151 5.96327 23.0483 5.93327 22.7913 5.98509L20.4323 6.46788C20.1329 6.52902 19.8216 6.47846 19.557 6.32576C19.2924 6.17305 19.0929 5.92877 18.9961 5.63901L18.235 3.35508C18.1521 3.10609 17.993 2.8895 17.7801 2.73602C17.5673 2.58255 17.3115 2.49997 17.0491 2.5H12.0491C11.7868 2.50005 11.5311 2.58259 11.3183 2.73594C11.1055 2.88929 10.9462 3.10567 10.8632 3.35449L10.1014 5.63904C10.0039 5.92844 9.80419 6.17233 9.53967 6.32493C9.27514 6.47753 8.96402 6.52837 8.66468 6.4679L6.30628 5.98511C6.04928 5.93383 5.78268 5.96408 5.5437 6.07164C5.30472 6.17921 5.1053 6.35872 4.97328 6.58511L2.47328 10.9149C2.34228 11.1422 2.28605 11.405 2.31255 11.666C2.33906 11.927 2.44696 12.1731 2.62098 12.3694L4.21827 14.1706C4.42089 14.3994 4.53275 14.6944 4.53275 15C4.53275 15.3056 4.42089 15.6007 4.21827 15.8295L2.62098 17.6306C2.44696 17.8269 2.33906 18.073 2.31255 18.334C2.28605 18.595 2.34228 18.8578 2.47328 19.0851L4.97328 23.4149C5.10434 23.6423 5.30375 23.8227 5.54316 23.9303C5.78258 24.0379 6.04982 24.0673 6.3069 24.0143L8.66468 23.5321C8.96421 23.4702 9.27606 23.5204 9.54095 23.6734C9.80584 23.8263 10.0053 24.0712 10.1014 24.3616L10.8632 26.6455C10.9462 26.8943 11.1055 27.1107 11.3183 27.2641C11.5311 27.4174 11.7868 27.4999 12.0491 27.5H17.0491C17.3115 27.5 17.5673 27.4174 17.7801 27.264C17.993 27.1105 18.1521 26.8939 18.235 26.6449L18.9961 24.361C19.0935 24.0716 19.2931 23.8277 19.5575 23.675C19.8219 23.5223 20.1329 23.4713 20.4323 23.5315L22.7907 24.0143C23.0478 24.0678 23.3152 24.0386 23.5547 23.9309C23.7942 23.8233 23.9936 23.6427 24.1243 23.4149L26.6243 19.0851C26.7553 18.8578 26.8115 18.595 26.785 18.334C26.7585 18.073 26.6506 17.8269 26.4766 17.6306L24.8793 15.8295ZM14.5491 20C13.5602 20 12.5935 19.7068 11.7712 19.1573C10.949 18.6079 10.3081 17.827 9.92969 16.9134C9.55125 15.9998 9.45223 14.9945 9.64516 14.0245C9.83808 13.0546 10.3143 12.1637 11.0135 11.4645C11.7128 10.7652 12.6037 10.289 13.5736 10.0961C14.5435 9.90315 15.5489 10.0022 16.4625 10.3806C17.3761 10.759 18.157 11.3999 18.7064 12.2221C19.2558 13.0444 19.5491 14.0111 19.5491 15C19.5476 16.3256 19.0203 17.5965 18.0829 18.5339C17.1456 19.4712 15.8747 19.9985 14.5491 20Z" fill="#4745CE"/>
</g>
</svg>
