<svg width="34" height="34" viewBox="0 0 34 34" fill="none" xmlns="http://www.w3.org/2000/svg">
<g id="invoice">
<path id="Vector" d="M25.5007 28.3329V4.24959C25.5005 4.00142 25.4351 3.75765 25.3111 3.54269C25.187 3.32773 25.0087 3.14912 24.794 3.02474C24.5792 2.90037 24.3356 2.83459 24.0874 2.83399C23.8392 2.83339 23.5953 2.898 23.3799 3.02134L19.1257 5.458L14.8714 3.02134C14.6571 2.89857 14.4143 2.83398 14.1673 2.83398C13.9203 2.83398 13.6776 2.89857 13.4632 3.02134L9.20898 5.458L4.95473 3.02134C4.73938 2.898 4.49541 2.83339 4.24724 2.83399C3.99907 2.83459 3.75541 2.90037 3.54066 3.02474C3.3259 3.14912 3.14759 3.32773 3.02357 3.54269C2.89955 3.75765 2.83417 4.00142 2.83398 4.24959V28.3329C2.83398 29.0844 3.1325 29.805 3.66385 30.3364C4.1952 30.8677 4.91587 31.1663 5.66732 31.1663H28.334C27.5825 31.1663 26.8619 30.8677 26.3305 30.3364C25.7992 29.805 25.5007 29.0844 25.5007 28.3329Z" fill="#B2B1FF"/>
<path id="Vector_2" d="M31.1653 19.834V28.334C31.1653 29.0854 30.8667 29.8061 30.3354 30.3375C29.804 30.8688 29.0834 31.1673 28.3319 31.1673C27.5805 31.1673 26.8598 30.8688 26.3284 30.3375C25.7971 29.8061 25.4986 29.0854 25.4986 28.334V17.0007H28.3319C29.0834 17.0007 29.804 17.2992 30.3354 17.8305C30.8667 18.3619 31.1653 19.0825 31.1653 19.834ZM17 14.1673H11.3333C10.9576 14.1673 10.5973 14.0181 10.3316 13.7524C10.0659 13.4867 9.91667 13.1264 9.91667 12.7507C9.91667 12.3749 10.0659 12.0146 10.3316 11.7489C10.5973 11.4832 10.9576 11.334 11.3333 11.334H17C17.3757 11.334 17.7361 11.4832 18.0017 11.7489C18.2674 12.0146 18.4167 12.3749 18.4167 12.7507C18.4167 13.1264 18.2674 13.4867 18.0017 13.7524C17.7361 14.0181 17.3757 14.1673 17 14.1673ZM12.75 19.834H9.91667C9.54094 19.834 9.18061 19.6847 8.91493 19.4191C8.64926 19.1534 8.5 18.793 8.5 18.4173C8.5 18.0416 8.64926 17.6813 8.91493 17.4156C9.18061 17.1499 9.54094 17.0007 9.91667 17.0007H12.75C13.1257 17.0007 13.4861 17.1499 13.7517 17.4156C14.0174 17.6813 14.1667 18.0416 14.1667 18.4173C14.1667 18.793 14.0174 19.1534 13.7517 19.4191C13.4861 19.6847 13.1257 19.834 12.75 19.834ZM12.75 25.5007H9.91667C9.54094 25.5007 9.18061 25.3514 8.91493 25.0857C8.64926 24.82 8.5 24.4597 8.5 24.084C8.5 23.7083 8.64926 23.3479 8.91493 23.0822C9.18061 22.8166 9.54094 22.6673 9.91667 22.6673H12.75C13.1257 22.6673 13.4861 22.8166 13.7517 23.0822C14.0174 23.3479 14.1667 23.7083 14.1667 24.084C14.1667 24.4597 14.0174 24.82 13.7517 25.0857C13.4861 25.3514 13.1257 25.5007 12.75 25.5007ZM18.4167 19.834C18.1834 19.8364 17.9532 19.7805 17.7469 19.6715C17.5407 19.5624 17.3649 19.4036 17.2354 19.2095C17.106 19.0154 17.0271 18.7921 17.0058 18.5597C16.9844 18.3274 17.0214 18.0934 17.1133 17.879C17.1969 17.661 17.3341 17.4675 17.5123 17.3166C17.6904 17.1657 17.9038 17.0621 18.1326 17.0155C18.3614 16.9689 18.5982 16.9808 18.8212 17.05C19.0442 17.1192 19.2461 17.2435 19.4083 17.4115C19.5453 17.5425 19.6517 17.7021 19.72 17.879C19.7926 18.0493 19.8311 18.2322 19.8333 18.4173C19.8277 19.1965 19.1958 19.8283 18.4167 19.834ZM18.4167 25.5007C18.2315 25.4984 18.0486 25.4599 17.8783 25.3873C17.7066 25.3157 17.5485 25.215 17.4108 25.0898C17.2821 24.952 17.1769 24.7941 17.0992 24.6223C17.031 24.4511 16.9973 24.2682 17 24.084C17.0042 23.7086 17.1516 23.3502 17.4108 23.0782C17.6098 22.8813 17.8628 22.7479 18.1377 22.6949C18.4126 22.6419 18.6971 22.6718 18.955 22.7807C19.0454 22.8113 19.1312 22.8542 19.21 22.9082C19.2837 22.9606 19.3545 23.0172 19.4225 23.0782C19.6817 23.3502 19.8277 23.7086 19.8333 24.084C19.8349 24.2705 19.7994 24.4555 19.7288 24.6281C19.6583 24.8008 19.5542 24.9577 19.4225 25.0898C19.2846 25.2147 19.1265 25.3153 18.955 25.3873C18.7847 25.4599 18.6018 25.4984 18.4167 25.5007Z" fill="#6563FF"/>
</g>
</svg>
