<svg width="38" height="38" viewBox="0 0 38 38" fill="none" xmlns="http://www.w3.org/2000/svg">
<g id="invoice">
<path id="Vector" d="M28.0081 31.131V4.80891C28.0079 4.53767 27.9364 4.27124 27.8009 4.0363C27.6653 3.80136 27.4704 3.60615 27.2357 3.47021C27.001 3.33427 26.7347 3.26238 26.4635 3.26172C26.1922 3.26107 25.9256 3.33168 25.6902 3.46649L21.0405 6.12966L16.3908 3.46649C16.1565 3.33231 15.8912 3.26172 15.6212 3.26172C15.3513 3.26172 15.086 3.33231 14.8517 3.46649L10.202 6.12966L5.55227 3.46649C5.3169 3.33168 5.05024 3.26107 4.779 3.26172C4.50776 3.26238 4.24145 3.33427 4.00674 3.47021C3.77202 3.60615 3.57713 3.80136 3.44158 4.0363C3.30603 4.27124 3.23458 4.53767 3.23438 4.80891V31.131C3.23438 31.9523 3.56063 32.7399 4.14138 33.3207C4.72213 33.9014 5.50979 34.2277 6.33109 34.2277H31.1048C30.2835 34.2277 29.4958 33.9014 28.9151 33.3207C28.3343 32.7399 28.0081 31.9523 28.0081 31.131Z" fill="#B2B1FF"/>
<path id="Vector_2" d="M34.2004 21.8421V31.1323C34.2004 31.9536 33.8741 32.7412 33.2934 33.322C32.7126 33.9027 31.925 34.229 31.1037 34.229C30.2824 34.229 29.4947 33.9027 28.9139 33.322C28.3332 32.7412 28.0069 31.9536 28.0069 31.1323V18.7454H31.1037C31.925 18.7454 32.7126 19.0717 33.2934 19.6524C33.8741 20.2332 34.2004 21.0208 34.2004 21.8421ZM16.3958 25.713H12.5249C12.1143 25.713 11.7204 25.5499 11.4301 25.2595C11.1397 24.9692 10.9766 24.5753 10.9766 24.1647C10.9766 23.754 11.1397 23.3602 11.4301 23.0698C11.7204 22.7794 12.1143 22.6163 12.5249 22.6163H16.3958C16.6011 22.6163 16.7981 22.5347 16.9432 22.3896C17.0884 22.2444 17.17 22.0475 17.17 21.8421C17.17 21.6368 17.0884 21.4399 16.9432 21.2947C16.7981 21.1495 16.6011 21.068 16.3958 21.068H14.8475C13.8208 21.068 12.8363 20.6601 12.1103 19.9342C11.3844 19.2083 10.9766 18.2237 10.9766 17.1971C10.9766 16.1704 11.3844 15.1859 12.1103 14.4599C12.8363 13.734 13.8208 13.3262 14.8475 13.3262H18.7183C19.129 13.3262 19.5228 13.4893 19.8132 13.7797C20.1036 14.07 20.2667 14.4639 20.2667 14.8745C20.2667 15.2852 20.1036 15.679 19.8132 15.9694C19.5228 16.2598 19.129 16.4229 18.7183 16.4229H14.8475C14.6421 16.4229 14.4452 16.5044 14.3 16.6496C14.1548 16.7948 14.0733 16.9917 14.0733 17.1971C14.0733 17.4024 14.1548 17.5993 14.3 17.7445C14.4452 17.8897 14.6421 17.9712 14.8475 17.9712H16.3958C17.4224 17.9712 18.407 18.3791 19.1329 19.105C19.8589 19.8309 20.2667 20.8155 20.2667 21.8421C20.2667 22.8688 19.8589 23.8533 19.1329 24.5793C18.407 25.3052 17.4224 25.713 16.3958 25.713Z" fill="#6563FF"/>
<path id="Vector_3" d="M15.6206 16.4212C15.2102 16.4212 14.8166 16.2583 14.5263 15.9682C14.236 15.6782 14.0727 15.2848 14.0723 14.8744V12.5503C14.0723 12.1397 14.2354 11.7458 14.5258 11.4555C14.8161 11.1651 15.21 11.002 15.6206 11.002C16.0313 11.002 16.4251 11.1651 16.7155 11.4555C17.0058 11.7458 17.169 12.1397 17.169 12.5503V14.8728C17.169 15.2832 17.0061 15.6768 16.716 15.9672C16.426 16.2575 16.0326 16.4208 15.6222 16.4212H15.6206ZM15.6206 28.0339C15.2102 28.0339 14.8166 27.871 14.5263 27.5809C14.236 27.2909 14.0727 26.8975 14.0723 26.4871V24.163C14.0723 23.7523 14.2354 23.3585 14.5258 23.0681C14.8161 22.7778 15.21 22.6146 15.6206 22.6146C16.0313 22.6146 16.4251 22.7778 16.7155 23.0681C17.0058 23.3585 17.169 23.7523 17.169 24.163V26.4855C17.169 26.8959 17.0061 27.2895 16.716 27.5798C16.426 27.8702 16.0326 28.0335 15.6222 28.0339H15.6206Z" fill="#6563FF"/>
</g>
</svg>
