<svg width="38" height="38" viewBox="0 0 38 38" fill="none" xmlns="http://www.w3.org/2000/svg">
<g id="money">
<path id="Vector" d="M8.34476 6.19141H17.6349C18.4562 6.19141 19.2439 6.51767 19.8246 7.09841C20.4054 7.67916 20.7316 8.46682 20.7316 9.28812C20.7316 10.1094 20.4054 10.8971 19.8246 11.4778C19.2439 12.0586 18.4562 12.3848 17.6349 12.3848H8.34476C7.52346 12.3848 6.7358 12.0586 6.15505 11.4778C5.57431 10.8971 5.24805 10.1094 5.24805 9.28812C5.24805 8.46682 5.57431 7.67916 6.15505 7.09841C6.7358 6.51767 7.52346 6.19141 8.34476 6.19141Z" fill="#6563FF"/>
<path id="Vector_2" d="M8.34378 12.3867H17.6339C18.4552 12.3867 19.2429 12.713 19.8236 13.2937C20.4044 13.8745 20.7306 14.6621 20.7306 15.4834C20.7306 16.3047 20.4044 17.0924 19.8236 17.6731C19.2429 18.2539 18.4552 18.5801 17.6339 18.5801H8.34378C7.52248 18.5801 6.73482 18.2539 6.15408 17.6731C5.57333 17.0924 5.24707 16.3047 5.24707 15.4834C5.24707 14.6621 5.57333 13.8745 6.15408 13.2937C6.73482 12.713 7.52248 12.3867 8.34378 12.3867Z" fill="#B2B1FF"/>
<path id="Vector_3" d="M8.34476 18.5801H17.6349C18.4562 18.5801 19.2439 18.9063 19.8246 19.4871C20.4054 20.0678 20.7316 20.8555 20.7316 21.6768C20.7316 22.4981 20.4054 23.2858 19.8246 23.8665C19.2439 24.4472 18.4562 24.7735 17.6349 24.7735H8.34476C7.52346 24.7735 6.7358 24.4472 6.15505 23.8665C5.57431 23.2858 5.24805 22.4981 5.24805 21.6768C5.24805 20.8555 5.57431 20.0678 6.15505 19.4871C6.7358 18.9063 7.52346 18.5801 8.34476 18.5801Z" fill="#6563FF"/>
<path id="Vector_4" d="M8.34476 24.7715H17.6349C18.4562 24.7715 19.2439 25.0977 19.8246 25.6785C20.4054 26.2592 20.7316 27.0469 20.7316 27.8682C20.7316 28.6895 20.4054 29.4772 19.8246 30.0579C19.2439 30.6387 18.4562 30.9649 17.6349 30.9649H8.34476C7.52346 30.9649 6.7358 30.6387 6.15505 30.0579C5.57431 29.4772 5.24805 28.6895 5.24805 27.8682C5.24805 27.0469 5.57431 26.2592 6.15505 25.6785C6.7358 25.0977 7.52346 24.7715 8.34476 24.7715Z" fill="#B2B1FF"/>
<path id="Vector_5" d="M30.0211 24.7715H20.731C20.1859 24.7743 19.6514 24.9223 19.1826 25.2004C19.6531 25.469 20.0442 25.8572 20.3162 26.3258C20.5883 26.7943 20.7315 27.3264 20.7315 27.8682C20.7315 28.41 20.5883 28.9421 20.3162 29.4106C20.0442 29.8792 19.6531 30.2674 19.1826 30.536C19.6518 30.8147 20.186 30.9618 20.731 30.9649H30.0211C30.8424 30.9649 31.6301 30.6387 32.2108 30.0579C32.7916 29.4772 33.1178 28.6895 33.1178 27.8682C33.1178 27.0469 32.7916 26.2592 32.2108 25.6785C31.6301 25.0977 30.8424 24.7715 30.0211 24.7715Z" fill="#6563FF"/>
<path id="Vector_6" d="M30.0211 18.5801H20.731C20.1859 18.5829 19.6514 18.7309 19.1826 19.009C19.6531 19.2776 20.0442 19.6658 20.3162 20.1344C20.5883 20.6029 20.7315 21.135 20.7315 21.6768C20.7315 22.2186 20.5883 22.7507 20.3162 23.2192C20.0442 23.6878 19.6531 24.076 19.1826 24.3446C19.6518 24.6233 20.186 24.7704 20.731 24.7735H30.0211C30.8424 24.7735 31.6301 24.4472 32.2108 23.8665C32.7916 23.2858 33.1178 22.4981 33.1178 21.6768C33.1178 20.8555 32.7916 20.0678 32.2108 19.4871C31.6301 18.9063 30.8424 18.5801 30.0211 18.5801Z" fill="#B2B1FF"/>
<path id="Vector_7" d="M30.0211 12.3867H20.731C20.1859 12.3895 19.6514 12.5375 19.1826 12.8156C19.6531 13.0842 20.0442 13.4725 20.3162 13.941C20.5883 14.4095 20.7315 14.9417 20.7315 15.4834C20.7315 16.0252 20.5883 16.5573 20.3162 17.0259C20.0442 17.4944 19.6531 17.8826 19.1826 18.1513C19.6518 18.43 20.186 18.577 20.731 18.5801H30.0211C30.8424 18.5801 31.6301 18.2539 32.2108 17.6731C32.7916 17.0924 33.1178 16.3047 33.1178 15.4834C33.1178 14.6621 32.7916 13.8745 32.2108 13.2937C31.6301 12.713 30.8424 12.3867 30.0211 12.3867Z" fill="#6563FF"/>
</g>
</svg>
