<svg width="30" height="30" viewBox="0 0 30 30" fill="none" xmlns="http://www.w3.org/2000/svg">
<g id="multiple-tab">
<path id="Vector" d="M18.75 27.5H6.25C5.25574 27.499 4.30249 27.1036 3.59945 26.4006C2.8964 25.6975 2.50099 24.7443 2.5 23.75V11.25C2.50099 10.2557 2.8964 9.30249 3.59945 8.59945C4.30249 7.8964 5.25574 7.50099 6.25 7.5H18.75C19.7443 7.50099 20.6975 7.8964 21.4006 8.59945C22.1036 9.30249 22.499 10.2557 22.5 11.25V23.75C22.499 24.7443 22.1036 25.6975 21.4006 26.4006C20.6975 27.1036 19.7443 27.499 18.75 27.5Z" fill="#4745CE"/>
<path id="Vector_2" d="M23.75 2.5H11.25C10.2557 2.50099 9.30249 2.8964 8.59945 3.59945C7.8964 4.30249 7.50099 5.25574 7.5 6.25V7.5H18.75C19.7443 7.50099 20.6975 7.8964 21.4006 8.59945C22.1036 9.30249 22.499 10.2557 22.5 11.25V22.5H23.75C24.7443 22.499 25.6975 22.1036 26.4006 21.4006C27.1036 20.6975 27.499 19.7443 27.5 18.75V6.25C27.499 5.25574 27.1036 4.30249 26.4006 3.59945C25.6975 2.8964 24.7443 2.50099 23.75 2.5Z" fill="#D8D8FF"/>
<path id="Vector_3" d="M22.5 12.5H2.5V11.25C2.5 10.2554 2.89509 9.30161 3.59835 8.59835C4.30161 7.89509 5.25544 7.5 6.25 7.5H18.75C19.7446 7.5 20.6984 7.89509 21.4017 8.59835C22.1049 9.30161 22.5 10.2554 22.5 11.25V12.5Z" fill="#6563FF"/>
<path id="Vector_4" d="M27.5 7.5H7.5V6.25C7.5 5.25544 7.89509 4.30161 8.59835 3.59835C9.30161 2.89509 10.2554 2.5 11.25 2.5H23.75C24.7446 2.5 25.6984 2.89509 26.4017 3.59835C27.1049 4.30161 27.5 5.25544 27.5 6.25V7.5Z" fill="#4745CE"/>
</g>
</svg>
