<svg width="38" height="39" viewBox="0 0 38 39" fill="none" xmlns="http://www.w3.org/2000/svg">
<g id="navigation-arrow">
<path id="Vector" d="M8.06659 33.1865C5.43438 33.1865 3.42152 31.0188 3.42152 28.5415C3.42152 28.077 3.57635 27.6124 3.57635 27.1479L6.05372 19.561L3.57635 12.1289C2.80217 9.6515 4.1957 7.0193 6.51823 6.24512C7.60208 5.93545 8.68593 5.93545 9.76978 6.39995L31.4468 15.3804C33.7693 16.3094 35.008 19.0965 33.9241 21.419C33.4596 22.5029 32.5306 23.4319 31.4468 23.8964L9.76978 32.8769C9.30527 33.0317 8.68593 33.1865 8.06659 33.1865Z" fill="#B2B1FF"/>
<path id="Vector_2" d="M32.8397 21.1104H7.75637C6.82735 21.1104 6.20801 20.491 6.20801 19.562C6.20801 18.633 6.82735 18.0137 7.75637 18.0137H32.8397C33.7688 18.0137 34.3881 18.633 34.3881 19.562C34.3881 20.491 33.7688 21.1104 32.8397 21.1104Z" fill="#6563FF"/>
</g>
</svg>
