<svg width="34" height="34" viewBox="0 0 34 34" fill="none" xmlns="http://www.w3.org/2000/svg">
<g id="presentation-board">
<path id="Vector" d="M26.916 22.6673H7.08268C6.70696 22.6673 6.34662 22.5181 6.08095 22.2524C5.81527 21.9867 5.66602 21.6264 5.66602 21.2507V4.25065C5.66602 3.87493 5.81527 3.51459 6.08095 3.24892C6.34662 2.98324 6.70696 2.83398 7.08268 2.83398H26.916C27.2917 2.83398 27.6521 2.98324 27.9178 3.24892C28.1834 3.51459 28.3327 3.87493 28.3327 4.25065V21.2507C28.3327 21.6264 28.1834 21.9867 27.9178 22.2524C27.6521 22.5181 27.2917 22.6673 26.916 22.6673Z" fill="#B2B1FF"/>
<path id="Vector_2" d="M29.7507 22.6673H4.25065C3.87493 22.6673 3.51459 22.5181 3.24892 22.2524C2.98324 21.9867 2.83398 21.6264 2.83398 21.2507C2.83398 20.8749 2.98324 20.5146 3.24892 20.2489C3.51459 19.9832 3.87493 19.834 4.25065 19.834H29.7507C30.1264 19.834 30.4867 19.9832 30.7524 20.2489C31.0181 20.5146 31.1673 20.8749 31.1673 21.2507C31.1673 21.6264 31.0181 21.9867 30.7524 22.2524C30.4867 22.5181 30.1264 22.6673 29.7507 22.6673Z" fill="#6563FF"/>
<path id="Vector_3" d="M17.0007 31.1673C16.6249 31.1673 16.2646 31.0181 15.9989 30.7524C15.7332 30.4867 15.584 30.1264 15.584 29.7507V21.2507C15.584 20.8749 15.7332 20.5146 15.9989 20.2489C16.2646 19.9832 16.6249 19.834 17.0007 19.834C17.3764 19.834 17.7367 19.9832 18.0024 20.2489C18.2681 20.5146 18.4173 20.8749 18.4173 21.2507V29.7507C18.4173 30.1264 18.2681 30.4867 18.0024 30.7524C17.7367 31.0181 17.3764 31.1673 17.0007 31.1673Z" fill="#6563FF"/>
<path id="Vector_4" d="M24.0815 31.1667C23.8044 31.1666 23.5334 31.0848 23.3024 30.9315L16.219 26.2424C16.0604 26.1413 15.9235 26.0097 15.8163 25.8552C15.709 25.7007 15.6337 25.5264 15.5945 25.3424C15.5554 25.1584 15.5532 24.9685 15.5883 24.7837C15.6233 24.599 15.6947 24.423 15.7985 24.2661C15.9022 24.1092 16.0361 23.9746 16.1925 23.87C16.3488 23.7654 16.5244 23.6931 16.709 23.6571C16.8936 23.6211 17.0835 23.6222 17.2677 23.6603C17.4518 23.6985 17.6265 23.773 17.7816 23.8794L24.865 28.5685C25.119 28.7366 25.3121 28.9821 25.4156 29.2686C25.5192 29.5551 25.5276 29.8674 25.4396 30.159C25.3517 30.4507 25.1721 30.7062 24.9274 30.8877C24.6828 31.0693 24.3862 31.1671 24.0815 31.1667Z" fill="#6563FF"/>
<path id="Vector_5" d="M9.91842 31.1668C9.61379 31.1672 9.31716 31.0694 9.07251 30.8879C8.82787 30.7064 8.64826 30.4508 8.56032 30.1592C8.47237 29.8675 8.48079 29.5553 8.58431 29.2688C8.68783 28.9823 8.88094 28.7368 9.135 28.5687L16.2183 23.8795C16.5317 23.6721 16.9146 23.5977 17.2828 23.6726C17.6511 23.7475 17.9744 23.9657 18.1818 24.279C18.3892 24.5924 18.4637 24.9753 18.3887 25.3435C18.3138 25.7117 18.0957 26.0351 17.7823 26.2425L10.699 30.9317C10.4672 31.0855 10.1966 31.1673 9.91842 31.1668ZM12.7489 17.0002C12.4926 17 12.2411 16.9302 12.0212 16.7983C11.8014 16.6664 11.6215 16.4773 11.5007 16.2512C11.3799 16.0251 11.3226 15.7705 11.3351 15.5144C11.3476 15.2584 11.4294 15.0105 11.5717 14.7973L14.405 10.5473C14.5213 10.3731 14.6747 10.2268 14.8542 10.119C15.0338 10.0113 15.235 9.94462 15.4434 9.92393C15.652 9.90458 15.8623 9.93107 16.0595 10.0016C16.2567 10.072 16.4362 10.1848 16.5853 10.3319L18.1974 11.9441L20.0717 9.1306C20.2802 8.818 20.6044 8.60104 20.9729 8.52744C21.3413 8.45385 21.724 8.52966 22.0366 8.73818C22.3492 8.94671 22.5661 9.27088 22.6397 9.63937C22.7133 10.0079 22.6375 10.3905 22.429 10.7031L19.5957 14.9531C19.4794 15.1274 19.3258 15.2738 19.1461 15.3816C18.9664 15.4894 18.765 15.556 18.5565 15.5766C18.3479 15.5972 18.1374 15.5713 17.9401 15.5007C17.7428 15.4301 17.5636 15.3166 17.4154 15.1684L15.8033 13.5563L13.929 16.3698C13.7995 16.5639 13.6239 16.7231 13.4181 16.8331C13.2122 16.943 12.9823 17.0005 12.7489 17.0002Z" fill="#6563FF"/>
</g>
</svg>
