<svg width="34" height="34" viewBox="0 0 34 34" fill="none" xmlns="http://www.w3.org/2000/svg">
<g id="ungroup">
<path id="Vector" d="M5.66634 22.6673C4.91489 22.6673 4.19422 22.3688 3.66287 21.8375C3.13152 21.3061 2.83301 20.5854 2.83301 19.834C2.83301 19.0825 3.13152 18.3619 3.66287 17.8305C4.19422 17.2992 4.91489 17.0007 5.66634 17.0007C6.41779 17.0007 7.13846 17.2992 7.66981 17.8305C8.20116 18.3619 8.49967 19.0825 8.49967 19.834C8.49967 20.5854 8.20116 21.3061 7.66981 21.8375C7.13846 22.3688 6.41779 22.6673 5.66634 22.6673ZM5.66634 8.50065C4.91489 8.50065 4.19422 8.20214 3.66287 7.67079C3.13152 7.13943 2.83301 6.41876 2.83301 5.66732C2.83301 4.91587 3.13152 4.1952 3.66287 3.66385C4.19422 3.1325 4.91489 2.83398 5.66634 2.83398C6.41779 2.83398 7.13846 3.1325 7.66981 3.66385C8.20116 4.1952 8.49967 4.91587 8.49967 5.66732C8.49967 6.41876 8.20116 7.13943 7.66981 7.67079C7.13846 8.20214 6.41779 8.50065 5.66634 8.50065ZM19.833 8.50065C19.0816 8.50065 18.3609 8.20214 17.8295 7.67079C17.2982 7.13943 16.9997 6.41876 16.9997 5.66732C16.9997 4.91587 17.2982 4.1952 17.8295 3.66385C18.3609 3.1325 19.0816 2.83398 19.833 2.83398C20.5845 2.83398 21.3051 3.1325 21.8365 3.66385C22.3678 4.1952 22.6663 4.91587 22.6663 5.66732C22.6663 6.41876 22.3678 7.13943 21.8365 7.67079C21.3051 8.20214 20.5845 8.50065 19.833 8.50065ZM19.833 22.6673C19.0816 22.6673 18.3609 22.3688 17.8295 21.8375C17.2982 21.3061 16.9997 20.5854 16.9997 19.834C16.9997 19.0825 17.2982 18.3619 17.8295 17.8305C18.3609 17.2992 19.0816 17.0007 19.833 17.0007C20.5845 17.0007 21.3051 17.2992 21.8365 17.8305C22.3678 18.3619 22.6663 19.0825 22.6663 19.834C22.6663 20.5854 22.3678 21.3061 21.8365 21.8375C21.3051 22.3688 20.5845 22.6673 19.833 22.6673Z" fill="#B2B1FF"/>
<path id="Vector_2" d="M14.1663 31.1673C13.4149 31.1673 12.6942 30.8688 12.1629 30.3375C11.6315 29.8061 11.333 29.0854 11.333 28.334C11.333 27.5825 11.6315 26.8619 12.1629 26.3305C12.6942 25.7992 13.4149 25.5007 14.1663 25.5007C14.9178 25.5007 15.6385 25.7992 16.1698 26.3305C16.7012 26.8619 16.9997 27.5825 16.9997 28.334C16.9997 29.0854 16.7012 29.8061 16.1698 30.3375C15.6385 30.8688 14.9178 31.1673 14.1663 31.1673ZM14.1663 17.0007C13.4149 17.0007 12.6942 16.7021 12.1629 16.1708C11.6315 15.6394 11.333 14.9188 11.333 14.1673C11.333 13.4159 11.6315 12.6952 12.1629 12.1638C12.6942 11.6325 13.4149 11.334 14.1663 11.334C14.9178 11.334 15.6385 11.6325 16.1698 12.1638C16.7012 12.6952 16.9997 13.4159 16.9997 14.1673C16.9997 14.9188 16.7012 15.6394 16.1698 16.1708C15.6385 16.7021 14.9178 17.0007 14.1663 17.0007ZM28.333 17.0007C27.5816 17.0007 26.8609 16.7021 26.3295 16.1708C25.7982 15.6394 25.4997 14.9188 25.4997 14.1673C25.4997 13.4159 25.7982 12.6952 26.3295 12.1638C26.8609 11.6325 27.5816 11.334 28.333 11.334C29.0845 11.334 29.8051 11.6325 30.3365 12.1638C30.8678 12.6952 31.1663 13.4159 31.1663 14.1673C31.1663 14.9188 30.8678 15.6394 30.3365 16.1708C29.8051 16.7021 29.0845 17.0007 28.333 17.0007ZM28.333 31.1673C27.5816 31.1673 26.8609 30.8688 26.3295 30.3375C25.7982 29.8061 25.4997 29.0854 25.4997 28.334C25.4997 27.5825 25.7982 26.8619 26.3295 26.3305C26.8609 25.7992 27.5816 25.5007 28.333 25.5007C29.0845 25.5007 29.8051 25.7992 30.3365 26.3305C30.8678 26.8619 31.1663 27.5825 31.1663 28.334C31.1663 29.0854 30.8678 29.8061 30.3365 30.3375C29.8051 30.8688 29.0845 31.1673 28.333 31.1673Z" fill="#6563FF"/>
<path id="Vector_3" d="M17.3938 7.08333C17.1359 6.6558 16.9996 6.16597 16.9996 5.66667C16.9996 5.16737 17.1359 4.67754 17.3938 4.25H8.10617C8.36407 4.67754 8.50037 5.16737 8.50037 5.66667C8.50037 6.16597 8.36407 6.6558 8.10617 7.08333H17.3938ZM5.66667 17C6.16533 17.0028 6.65408 17.1388 7.08333 17.3938V8.10617C6.6558 8.36407 6.16597 8.50037 5.66667 8.50037C5.16737 8.50037 4.67754 8.36407 4.25 8.10617V17.3938C4.67925 17.1388 5.168 17.0028 5.66667 17Z" fill="#D8D8FF"/>
<path id="Vector_4" d="M28.3333 25.4993C28.832 25.5021 29.3207 25.6381 29.75 25.8931V16.6055C29.3225 16.8634 28.8326 16.9997 28.3333 16.9997C27.834 16.9997 27.3442 16.8634 26.9167 16.6055V25.8931C27.3459 25.6381 27.8347 25.5021 28.3333 25.4993ZM14.1667 25.4993C14.6653 25.5021 15.1541 25.6381 15.5833 25.8931V16.6055C15.1558 16.8634 14.666 16.9997 14.1667 16.9997C13.6674 16.9997 13.1775 16.8634 12.75 16.6055V25.8931C13.1793 25.6381 13.668 25.5021 14.1667 25.4993Z" fill="#B2B1FF"/>
<path id="Vector_5" d="M17.3941 18.416H15.5836V21.2493H17.3941C17.1362 20.8218 16.9999 20.332 16.9999 19.8327C16.9999 19.3334 17.1362 18.8436 17.3941 18.416ZM12.7503 21.2493V18.416H8.10645C8.36435 18.8436 8.50065 19.3334 8.50065 19.8327C8.50065 20.332 8.36435 20.8218 8.10645 21.2493H12.7503Z" fill="#D8D8FF"/>
<path id="Vector_6" d="M25.8936 26.9167H16.606C16.8639 27.3442 17.0002 27.834 17.0002 28.3333C17.0002 28.8326 16.8639 29.3225 16.606 29.75H25.8936C25.6357 29.3225 25.4994 28.8326 25.4994 28.3333C25.4994 27.834 25.6357 27.3442 25.8936 26.9167ZM25.8936 15.5833C25.6357 15.1558 25.4994 14.666 25.4994 14.1667C25.4994 13.6674 25.6357 13.1775 25.8936 12.75H16.606C16.8639 13.1775 17.0002 13.6674 17.0002 14.1667C17.0002 14.666 16.8639 15.1558 16.606 15.5833H25.8936Z" fill="#B2B1FF"/>
<path id="Vector_7" d="M21.2503 12.7493V8.10547C20.8228 8.36337 20.333 8.49967 19.8337 8.49967C19.3344 8.49967 18.8445 8.36337 18.417 8.10547V12.7493H21.2503ZM18.417 15.5826V17.3931C18.8445 17.1352 19.3344 16.9989 19.8337 16.9989C20.333 16.9989 20.8228 17.1352 21.2503 17.3931V15.5826H18.417Z" fill="#D8D8FF"/>
</g>
</svg>
