<svg width="34" height="34" viewBox="0 0 34 34" fill="none" xmlns="http://www.w3.org/2000/svg">
<g id="users">
<path id="Vector" d="M25.9349 17.3125C24.6494 18.4723 22.9814 19.1174 21.25 19.1244C20.8647 19.1244 20.4892 19.089 20.1223 19.0281C20.0841 18.9941 20.0387 18.97 20.0005 18.936C21.278 19.9949 22.3062 21.3226 23.012 22.8244C23.7177 24.3261 24.0835 25.9651 24.0833 27.6244C24.0833 28.0001 23.9341 28.3605 23.6684 28.6262C23.4027 28.8918 23.0424 29.0411 22.6667 29.0411H31.1667C31.5424 29.0411 31.9027 28.8918 32.1684 28.6262C32.4341 28.3605 32.5833 28.0001 32.5833 27.6244C32.5827 25.4486 31.9554 23.319 30.7763 21.4903C29.5973 19.6615 27.9165 18.2111 25.9349 17.3125Z" fill="#6563FF"/>
<path id="Vector_2" d="M12.7503 19.1257C10.8717 19.1257 9.07004 18.3794 7.74165 17.051C6.41327 15.7226 5.66699 13.9209 5.66699 12.0423C5.66699 10.1637 6.41327 8.36203 7.74165 7.03364C9.07004 5.70526 10.8717 4.95898 12.7503 4.95898C14.6289 4.95898 16.4306 5.70526 17.759 7.03364C19.0874 8.36203 19.8337 10.1637 19.8337 12.0423C19.8337 13.9209 19.0874 15.7226 17.759 17.051C16.4306 18.3794 14.6289 19.1257 12.7503 19.1257Z" fill="#D8D8FF"/>
<path id="Vector_3" d="M12.7503 19.1257C10.8717 19.1257 9.07004 18.3794 7.74165 17.051C6.41327 15.7226 5.66699 13.9209 5.66699 12.0423C5.66699 10.1637 6.41327 8.36203 7.74165 7.03364C9.07004 5.70526 10.8717 4.95898 12.7503 4.95898C14.6289 4.95898 16.4306 5.70526 17.759 7.03364C19.0874 8.36203 19.8337 10.1637 19.8337 12.0423C19.8337 13.9209 19.0874 15.7226 17.759 17.051C16.4306 18.3794 14.6289 19.1257 12.7503 19.1257Z" fill="#D8D8FF"/>
<path id="Vector_4" d="M17.4352 17.3125C16.1497 18.4723 14.4817 19.1174 12.7503 19.1244C11.0182 19.1198 9.34877 18.4755 8.06258 17.3153C6.08195 18.2142 4.40202 19.6643 3.22354 21.4925C2.04507 23.3206 1.41791 25.4494 1.41699 27.6244C1.41699 28.0001 1.56625 28.3605 1.83192 28.6262C2.0976 28.8918 2.45794 29.0411 2.83366 29.0411H22.667C23.0427 29.0411 23.4031 28.8918 23.6687 28.6262C23.9344 28.3605 24.0837 28.0001 24.0837 27.6244C24.083 25.4486 23.4557 23.319 22.2767 21.4903C21.0977 19.6615 19.4168 18.2111 17.4352 17.3125Z" fill="#B2B1FF"/>
<path id="Vector_5" d="M21.25 4.95898C19.6492 4.95898 18.1872 5.51148 17 6.40823C17.4926 6.78207 17.9341 7.21881 18.3133 7.70732C18.6441 8.12495 18.9264 8.57883 19.1547 9.06023C19.2142 9.18915 19.2752 9.31665 19.3276 9.44982C19.465 9.79123 19.5755 10.144 19.6577 10.5123C19.6761 10.5973 19.6888 10.6866 19.7058 10.7744C19.7809 11.1852 19.8333 11.6074 19.8333 12.0423C19.8333 12.4886 19.7823 12.9207 19.7016 13.3414C19.6888 13.4037 19.6832 13.4689 19.669 13.5298C19.589 13.882 19.4815 14.2273 19.3474 14.5626C19.2964 14.6957 19.2468 14.8289 19.1873 14.9592C19.0683 15.2142 18.9323 15.4579 18.7864 15.6959C18.4181 16.3037 17.9633 16.8434 17.4335 17.3152C18.4124 17.76 19.3177 18.3366 20.1223 19.0293C20.4907 19.0902 20.8647 19.1257 21.25 19.1257C23.1286 19.1257 24.9303 18.3794 26.2587 17.051C27.5871 15.7226 28.3333 13.9209 28.3333 12.0423C28.3333 10.1637 27.5871 8.36203 26.2587 7.03364C24.9303 5.70526 23.1286 4.95898 21.25 4.95898Z" fill="#8C8AFF"/>
</g>
</svg>
