<svg width="28" height="28" viewBox="0 0 28 28" fill="none" xmlns="http://www.w3.org/2000/svg">
<g id="web">
<path id="Vector" d="M23.3337 26.8327H4.66699C3.73902 26.8318 2.84932 26.4627 2.19314 25.8065C1.53697 25.1504 1.16792 24.2607 1.16699 23.3327V4.66602C1.16792 3.73804 1.53697 2.84834 2.19314 2.19217C2.84932 1.53599 3.73902 1.16694 4.66699 1.16602H23.3337C24.2616 1.16694 25.1513 1.53599 25.8075 2.19217C26.4637 2.84834 26.8327 3.73804 26.8337 4.66602V23.3327C26.8327 24.2607 26.4637 25.1504 25.8075 25.8065C25.1513 26.4627 24.2616 26.8318 23.3337 26.8327Z" fill="#4745CE"/>
<path id="Vector_2" d="M9.33317 5.83333C9.9775 5.83333 10.4998 5.311 10.4998 4.66667C10.4998 4.02233 9.9775 3.5 9.33317 3.5C8.68884 3.5 8.1665 4.02233 8.1665 4.66667C8.1665 5.311 8.68884 5.83333 9.33317 5.83333Z" fill="black"/>
<path id="Vector_3" d="M4.66667 5.83333C5.311 5.83333 5.83333 5.311 5.83333 4.66667C5.83333 4.02233 5.311 3.5 4.66667 3.5C4.02233 3.5 3.5 4.02233 3.5 4.66667C3.5 5.311 4.02233 5.83333 4.66667 5.83333Z" fill="black"/>
<path id="Vector_4" d="M14.0002 5.83333C14.6445 5.83333 15.1668 5.311 15.1668 4.66667C15.1668 4.02233 14.6445 3.5 14.0002 3.5C13.3558 3.5 12.8335 4.02233 12.8335 4.66667C12.8335 5.311 13.3558 5.83333 14.0002 5.83333Z" fill="black"/>
<path id="Vector_5" d="M23.3337 1.16602H4.66699C3.73873 1.16602 2.8485 1.53476 2.19212 2.19114C1.53574 2.84752 1.16699 3.73776 1.16699 4.66602V8.16602H26.8337V4.66602C26.8337 3.73776 26.4649 2.84752 25.8085 2.19114C25.1522 1.53476 24.2619 1.16602 23.3337 1.16602ZM4.66699 5.83268C4.35757 5.83268 4.06083 5.70977 3.84203 5.49097C3.62324 5.27218 3.50033 4.97543 3.50033 4.66602C3.50033 4.3566 3.62324 4.05985 3.84203 3.84106C4.06083 3.62227 4.35757 3.49935 4.66699 3.49935C4.97641 3.49935 5.27316 3.62227 5.49195 3.84106C5.71074 4.05985 5.83366 4.3566 5.83366 4.66602C5.83366 4.97543 5.71074 5.27218 5.49195 5.49097C5.27316 5.70977 4.97641 5.83268 4.66699 5.83268ZM9.33366 5.83268C9.02424 5.83268 8.72749 5.70977 8.5087 5.49097C8.28991 5.27218 8.16699 4.97543 8.16699 4.66602C8.16699 4.3566 8.28991 4.05985 8.5087 3.84106C8.72749 3.62227 9.02424 3.49935 9.33366 3.49935C9.64308 3.49935 9.93982 3.62227 10.1586 3.84106C10.3774 4.05985 10.5003 4.3566 10.5003 4.66602C10.5003 4.97543 10.3774 5.27218 10.1586 5.49097C9.93982 5.70977 9.64308 5.83268 9.33366 5.83268ZM14.0003 5.83268C13.6909 5.83268 13.3942 5.70977 13.1754 5.49097C12.9566 5.27218 12.8337 4.97543 12.8337 4.66602C12.8337 4.3566 12.9566 4.05985 13.1754 3.84106C13.3942 3.62227 13.6909 3.49935 14.0003 3.49935C14.3097 3.49935 14.6065 3.62227 14.8253 3.84106C15.0441 4.05985 15.167 4.3566 15.167 4.66602C15.167 4.97543 15.0441 5.27218 14.8253 5.49097C14.6065 5.70977 14.3097 5.83268 14.0003 5.83268Z" fill="#6563FF"/>
</g>
</svg>
