<?xml version="1.0" standalone="no"?>
<!DOCTYPE svg PUBLIC "-//W3C//DTD SVG 20010904//EN"
 "http://www.w3.org/TR/2001/REC-SVG-20010904/DTD/svg10.dtd">
<svg version="1.0" xmlns="http://www.w3.org/2000/svg"
 width="1948.000000pt" height="1160.000000pt" viewBox="0 0 1948.000000 1160.000000"
 preserveAspectRatio="xMidYMid meet">

<g transform="translate(0.000000,1160.000000) scale(0.100000,-0.100000)"
fill="#000000" stroke="none">
<path d="M11289 11580 c30 -25 78 -25 116 0 l30 20 -85 0 -85 -1 24 -19z"/>
<path d="M11570 11564 c-120 -95 -120 -95 -120 -131 0 -45 4 -52 107 -175 323
-384 324 -386 387 -356 18 9 66 42 107 75 40 33 142 113 224 178 234 185 265
218 246 269 -5 12 -40 57 -76 100 l-67 76 -355 0 -354 0 -35 -24 c-45 -31
-124 -105 -124 -117 0 -5 -4 -9 -10 -9 -28 0 0 38 66 87 68 52 79 62 64 63 -8
0 -35 -16 -60 -36z"/>
<path d="M12551 11573 c13 -15 26 -30 29 -33 4 -3 43 -49 88 -102 46 -53 92
-100 103 -103 45 -15 86 7 229 121 80 64 152 122 160 130 12 12 -31 14 -310
14 l-323 0 24 -27z"/>
<path d="M13255 11520 c-55 -45 -134 -107 -175 -139 -111 -86 -180 -154 -180
-177 0 -33 48 -99 232 -314 166 -194 204 -230 247 -230 23 0 99 56 324 238
153 124 177 147 183 177 8 45 6 48 -216 308 l-185 217 -65 0 -65 0 -100 -80z
m239 -295 c21 -25 35 -49 32 -54 -4 -5 -37 -12 -74 -16 -106 -10 -109 -12 -78
-44 28 -30 34 -51 12 -51 -13 0 -86 86 -86 101 0 11 26 16 114 24 l68 7 -26
27 c-14 15 -26 32 -26 39 0 25 29 10 64 -33z"/>
<path d="M13650 11579 c14 -25 68 -59 96 -59 20 0 108 52 120 71 3 5 -44 9
-111 9 -114 0 -116 0 -105 -21z"/>
<path d="M13957 11524 c-137 -108 -141 -129 -51 -240 82 -101 275 -327 323
-376 48 -51 87 -62 134 -36 31 16 362 284 419 339 78 74 77 74 -132 322 l-55
66 -271 0 -272 1 -95 -76z m469 -82 c6 -4 17 -18 23 -31 10 -18 10 -26 1 -35
-9 -8 -14 -8 -17 0 -2 6 -10 20 -18 30 -10 15 -16 16 -26 7 -9 -9 -9 -19 0
-44 6 -17 11 -36 11 -40 0 -18 -41 -49 -63 -49 -26 0 -63 35 -69 64 -5 29 21
31 32 2 6 -16 17 -26 29 -26 28 0 33 13 20 50 -16 45 1 80 38 80 16 0 33 -4
39 -8z"/>
<path d="M14770 11575 c19 -14 46 -25 60 -25 14 0 41 11 60 25 l34 25 -94 0
-94 0 34 -25z"/>
<path d="M15045 11559 c-101 -82 -115 -98 -115 -137 0 -42 15 -61 262 -350
151 -175 184 -201 234 -182 15 6 70 45 123 88 378 305 361 289 361 337 0 34
-36 85 -155 218 l-60 67 -300 0 -300 -1 -50 -40z m481 -114 c33 -44 20 -69
-16 -30 -22 23 -25 24 -42 8 -18 -16 -18 -17 3 -39 20 -21 20 -24 5 -30 -10
-4 -23 2 -34 15 -15 19 -19 20 -36 8 -18 -13 -18 -15 -3 -38 38 -54 12 -66
-28 -13 l-28 36 29 27 c47 43 108 91 116 91 4 0 19 -16 34 -35z"/>
<path d="M15870 11587 c0 -7 35 -54 78 -104 42 -50 122 -144 178 -209 128
-151 175 -194 213 -194 32 0 61 20 221 151 63 52 145 118 182 147 37 30 77 65
88 79 26 33 26 83 -1 117 l-20 26 -470 0 c-374 0 -469 -3 -469 -13z m490 -51
c0 -8 -16 -28 -35 -45 -19 -17 -35 -35 -35 -40 0 -9 -52 -23 -59 -15 -2 2 2
11 9 19 11 13 9 20 -10 40 -28 30 -23 37 38 46 78 11 92 10 92 -5z"/>
<path d="M16283 11522 c-35 -3 -41 -13 -20 -30 8 -7 19 -5 36 9 28 23 26 25
-16 21z"/>
<path d="M16981 11561 c84 -95 120 -93 250 11 l34 28 -159 0 -158 0 33 -39z"/>
<path d="M17320 11507 c-95 -76 -117 -99 -124 -129 -7 -29 -5 -42 10 -66 21
-33 360 -427 412 -479 51 -51 84 -46 179 26 167 127 193 164 161 224 -19 36
-408 481 -436 499 -53 35 -79 25 -202 -75z m270 -241 c0 -3 -4 -8 -10 -11 -5
-3 -10 -1 -10 4 0 6 5 11 10 11 6 0 10 -2 10 -4z m-10 -66 c12 -16 18 -30 14
-30 -11 0 -54 42 -54 52 0 17 20 7 40 -22z m65 0 c3 -5 1 -10 -4 -10 -6 0 -11
5 -11 10 0 6 2 10 4 10 3 0 8 -4 11 -10z m76 -187 c13 -16 12 -17 -3 -4 -16
12 -22 9 -20 -9 0 -3 -8 -6 -18 -6 -18 0 -18 2 -3 18 20 22 27 22 44 1z m37
-43 c3 -7 0 -10 -6 -7 -5 4 -12 -3 -15 -14 -6 -24 -37 -23 -45 1 -5 13 -3 13
11 1 15 -12 17 -11 17 6 0 34 28 44 38 13z"/>
<path d="M18308 11575 c17 -21 320 -371 433 -499 20 -23 99 -113 175 -201 77
-88 235 -269 352 -403 l212 -243 0 438 c0 487 -1 498 -66 630 -67 138 -219
256 -371 288 -51 11 -152 15 -411 15 l-343 0 19 -25z"/>
<path d="M16887 11356 c-62 -42 -416 -336 -432 -359 -20 -29 -19 -66 4 -102
10 -16 83 -105 162 -196 79 -91 163 -188 186 -216 47 -55 89 -79 127 -69 22 5
96 63 387 300 46 37 90 79 97 93 27 50 9 80 -161 278 -234 274 -255 295 -299
295 -21 0 -50 -10 -71 -24z m211 -258 c20 -20 14 -48 -13 -60 -43 -19 -73 23
-39 56 19 19 36 20 52 4z m52 -68 c0 -10 -124 -50 -156 -50 -34 0 0 18 71 39
84 23 85 24 85 11z m-55 -85 c0 -27 -3 -30 -30 -30 -21 0 -31 5 -33 18 -5 25
17 49 42 45 16 -2 21 -10 21 -33z m-165 -70 c29 -31 18 -46 -13 -17 -15 15
-27 18 -37 12 -12 -7 -12 -12 -2 -22 18 -18 15 -41 -8 -66 -37 -39 -100 -17
-100 35 0 30 18 30 22 1 2 -18 10 -23 33 -23 24 0 31 5 33 23 2 13 -3 25 -12
28 -23 9 -20 21 12 38 37 21 45 20 72 -9z"/>
<path d="M17061 11076 c-9 -10 -9 -16 -1 -21 17 -10 37 12 24 25 -8 8 -15 6
-23 -4z"/>
<path d="M17050 10946 c0 -8 4 -17 9 -20 11 -7 33 18 24 27 -12 12 -33 7 -33
-7z"/>
<path d="M12582 11250 c-24 -10 -33 -17 -212 -160 -63 -51 -168 -135 -232
-186 -119 -95 -137 -119 -124 -168 3 -13 78 -109 166 -215 88 -105 160 -194
160 -197 0 -4 -15 -4 -32 -1 -214 37 -298 49 -429 62 -307 30 -1036 74 -1579
95 -151 6 -363 15 -470 20 -494 24 -636 31 -930 42 -356 14 -371 14 -422 3
-20 -4 -58 -4 -83 -1 -39 6 -44 10 -34 22 16 20 1 17 -27 -5 l-24 -19 25 -6
c15 -4 30 -18 36 -33 l10 -26 182 7 c100 4 225 11 277 16 192 19 816 5 1065
-24 17 -2 55 -4 85 -5 37 -1 50 -4 41 -10 -11 -7 -4 -11 25 -16 212 -36 399
-77 594 -130 33 -9 98 -15 164 -15 60 0 106 -3 102 -7 -4 -4 -41 -6 -83 -4
-78 3 -94 -10 -30 -25 17 -4 27 -9 21 -11 -7 -2 -68 12 -135 31 -332 93 -569
139 -889 173 -128 13 -261 17 -595 17 -502 1 -932 -7 -942 -18 -5 -4 -9 -69
-11 -145 l-3 -137 50 -42 c69 -59 87 -111 111 -331 11 -97 16 -177 12 -179 -4
-1 -58 -29 -119 -63 -103 -55 -113 -62 -113 -88 0 -72 146 -189 259 -207 41
-7 44 -10 71 -68 45 -101 132 -202 237 -274 165 -116 550 -228 931 -272 104
-12 458 -14 510 -2 57 12 40 27 -38 33 -47 3 -59 6 -32 7 108 5 323 66 418
119 157 88 334 327 480 646 117 258 129 280 151 294 40 26 278 11 364 -24 47
-18 60 -49 89 -213 29 -157 62 -284 110 -424 47 -136 73 -189 142 -299 96
-148 230 -239 464 -313 63 -20 114 -39 114 -42 0 -4 -25 -24 -55 -46 -29 -21
-66 -52 -82 -69 -26 -28 -24 -27 27 8 30 21 72 54 92 73 l37 35 118 -26 c113
-25 299 -50 465 -63 74 -5 78 -7 104 -42 36 -50 86 -102 96 -102 5 0 -17 30
-49 68 l-57 67 89 2 c163 4 389 24 460 40 39 8 105 29 149 45 55 22 80 27 85
19 4 -6 41 -51 83 -99 85 -98 214 -250 363 -427 121 -144 175 -205 184 -205 3
0 16 18 29 41 79 137 216 311 364 463 86 88 154 164 151 170 -4 6 -41 51 -82
100 -42 48 -92 107 -111 130 -19 22 -111 131 -205 241 -254 299 -336 399 -341
411 -3 6 5 32 16 59 l21 48 23 -22 c27 -26 73 -40 104 -32 22 6 425 326 470
374 31 33 31 79 2 120 -46 62 -370 435 -396 456 -57 45 -76 35 -318 -162
l-145 -119 -66 7 c-36 4 -67 11 -70 15 -3 4 86 81 197 171 111 89 210 171 220
181 38 38 33 96 -15 149 -24 26 -70 79 -247 287 -109 129 -148 162 -188 162
-23 0 -96 -54 -318 -233 -160 -128 -194 -164 -194 -203 0 -21 39 -81 90 -138
110 -124 298 -351 295 -356 -2 -4 -37 -2 -77 2 -52 7 -78 15 -90 29 -9 10
-112 131 -228 269 -222 261 -247 282 -301 261 -13 -5 -122 -88 -242 -184
l-218 -175 -59 15 c-33 9 -60 19 -60 23 0 4 110 96 245 204 135 108 250 206
256 218 24 45 7 77 -136 243 -33 39 -96 113 -140 165 -123 145 -139 160 -171
159 -16 0 -39 -4 -52 -9z m55 -6 c-3 -3 -12 -4 -19 -1 -8 3 -5 6 6 6 11 1 17
-2 13 -5z m-57 -27 c0 -2 -15 -13 -32 -26 l-33 -22 28 25 c26 24 37 31 37 23z
m-171 -140 c-2 -2 -22 -16 -44 -32 l-40 -28 40 36 c22 19 42 33 44 31 2 -2 2
-5 0 -7z m-159 -121 c0 -2 -8 -10 -17 -17 -16 -13 -17 -12 -4 4 13 16 21 21
21 13z m-152 -123 c-14 -16 -28 -35 -31 -43 -4 -12 -6 -11 -6 3 -1 10 11 29
25 42 36 34 44 32 12 -2z m1926 -249 c0 -10 -4 -29 -8 -42 -7 -21 -5 -22 36
-20 33 2 43 -1 43 -12 0 -11 -13 -16 -47 -18 l-46 -3 -13 -50 c-8 -30 -18 -49
-27 -49 -11 0 -13 8 -8 36 4 19 9 41 12 48 4 10 -7 12 -44 8 -31 -2 -52 0 -56
7 -9 14 34 31 78 31 31 0 34 3 45 46 11 45 37 58 35 18z m-824 -8 c0 -2 -7 -7
-16 -10 -8 -3 -12 -2 -9 4 6 10 25 14 25 6z m-4593 -42 c-3 -3 -12 -4 -19 -1
-8 3 -5 6 6 6 11 1 17 -2 13 -5z m1501 -71 c-10 -2 -26 -2 -35 0 -10 3 -2 5
17 5 19 0 27 -2 18 -5z m245 -10 c3 -5 -27 -7 -66 -5 -129 5 -144 9 -40 10 56
1 104 -1 106 -5z m175 -10 c-26 -2 -71 -2 -100 0 -29 2 -8 3 47 3 55 0 79 -1
53 -3z m190 -10 c-27 -2 -69 -2 -95 0 -27 2 -5 3 47 3 52 0 74 -1 48 -3z
m-780 -10 c-10 -2 -26 -2 -35 0 -10 3 -2 5 17 5 19 0 27 -2 18 -5z m955 0
c-24 -2 -62 -2 -85 0 -24 2 -5 4 42 4 47 0 66 -2 43 -4z m170 -10 c-24 -2 -62
-2 -85 0 -24 2 -5 4 42 4 47 0 66 -2 43 -4z m144 -10 c-20 -2 -52 -2 -70 0
-17 2 0 4 38 4 39 0 53 -2 32 -4z m80 -9 c-3 -3 -12 -4 -19 -1 -8 3 -5 6 6 6
11 1 17 -2 13 -5z m-162 -109 c228 -10 740 -53 731 -62 -2 -3 -87 3 -188 11
-268 23 -604 46 -676 46 -41 0 -61 4 -57 10 4 6 14 9 23 6 10 -2 85 -7 167
-11z m-1040 -25 c-16 -4 -41 -8 -55 -8 -22 0 -22 1 5 8 17 4 41 8 55 8 22 0
22 -1 -5 -8z m1848 -47 c-7 -2 -19 -2 -25 0 -7 3 -2 5 12 5 14 0 19 -2 13 -5z
m200 -20 c-7 -2 -21 -2 -30 0 -10 3 -4 5 12 5 17 0 24 -2 18 -5z m-2685 -13
c44 0 72 -4 72 -11 0 -5 -33 -25 -72 -43 -40 -18 -179 -86 -308 -151 -271
-135 -525 -255 -558 -262 l-24 -6 4 184 c3 136 9 197 21 235 l17 51 256 1
c141 1 259 4 263 8 3 3 62 4 131 0 69 -3 158 -6 198 -6z m2755 3 c-7 -2 -19
-2 -25 0 -7 3 -2 5 12 5 14 0 19 -2 13 -5z m100 -10 c-7 -2 -19 -2 -25 0 -7 3
-2 5 12 5 14 0 19 -2 13 -5z m-1028 -50 c87 -22 123 -26 283 -27 122 -1 171
-4 150 -10 -18 -4 -107 -6 -198 -3 -173 4 -327 31 -366 63 -18 15 -18 15 6 9
14 -4 70 -18 125 -32z m950 8 c-12 -11 -200 -21 -188 -10 8 8 60 14 148 17 28
1 45 -2 40 -7z m755 -3 c0 -9 -150 0 -160 9 -3 3 32 3 78 2 45 -2 82 -7 82
-11z m-2145 -74 c142 -72 174 -129 149 -268 -8 -44 -19 -105 -24 -135 -15 -85
-37 -146 -106 -286 -64 -130 -128 -238 -174 -291 -177 -202 -295 -256 -620
-284 -308 -27 -756 25 -986 115 -38 15 -73 33 -79 39 -5 7 -55 36 -110 64
-165 84 -244 173 -274 303 -14 61 -13 93 2 52 18 -48 23 -49 69 -11 24 19 67
47 95 63 29 15 67 41 84 56 18 16 36 26 40 23 5 -3 9 0 9 5 0 6 6 11 14 11 8
0 16 4 18 8 3 8 104 72 114 72 3 0 32 18 65 40 33 22 62 40 65 40 2 0 26 15
52 33 67 48 301 169 407 212 50 20 99 40 110 45 11 4 29 11 40 13 11 3 52 14
90 25 92 26 336 70 450 81 50 4 167 9 260 10 l171 1 69 -36z m2655 15 c16 -6
2 -7 -35 -3 -33 3 -64 10 -70 15 -11 11 61 2 105 -12z m981 -130 c-22 -9 -94
8 -87 20 3 4 28 3 56 -3 39 -8 47 -12 31 -17z m-2410 -17 c34 -16 35 -18 17
-34 -10 -10 -18 -13 -18 -8 0 6 -5 10 -11 10 -8 0 -8 -5 1 -15 7 -8 19 -15 26
-15 8 0 22 -4 32 -9 21 -10 77 -34 115 -50 15 -6 63 -18 105 -27 67 -13 83
-21 122 -58 62 -59 83 -63 126 -20 31 29 34 36 22 48 -10 9 -20 11 -31 4 -13
-7 -17 -5 -17 8 0 10 -3 15 -6 11 -3 -3 -19 7 -36 21 -16 15 -37 30 -46 35
-10 4 53 5 138 2 155 -5 155 -5 177 -32 24 -29 31 -63 13 -63 -26 0 -5 -19 33
-29 58 -17 107 -63 278 -264 34 -41 75 -60 110 -52 16 4 68 36 116 71 48 35
92 64 98 64 6 0 26 -13 45 -30 l35 -30 -36 -32 c-20 -18 -63 -57 -97 -86 -64
-55 -79 -83 -68 -127 5 -19 326 -419 366 -455 3 -3 35 -41 70 -84 36 -44 75
-90 87 -103 25 -26 24 -27 -54 -54 -175 -60 -376 -84 -661 -76 -269 7 -493 45
-737 124 -290 93 -432 265 -540 653 -31 111 -55 241 -43 234 4 -3 8 -1 8 5 0
5 -5 11 -12 13 -8 3 -12 48 -12 154 -1 119 2 156 16 186 20 45 78 85 139 96
24 5 54 14 64 20 24 14 22 14 66 -6z m2136 -8 c-3 -3 -12 -4 -19 -1 -8 3 -5 6
6 6 11 1 17 -2 13 -5z m423 -54 c12 -7 12 -10 1 -10 -7 0 -11 -6 -7 -15 7 -18
-5 -20 -22 -3 -28 28 -6 50 28 28z m-5675 -20 c-3 -5 -12 -10 -18 -10 -7 0 -6
4 3 10 19 12 23 12 15 0z m4862 -124 c9 -9 -28 -46 -45 -46 -17 0 -82 47 -82
59 0 8 118 -3 127 -13z m-5097 -21 c-25 -13 -49 -24 -55 -24 -5 0 10 11 35 24
25 13 50 24 55 24 6 0 -10 -11 -35 -24z m5477 -37 c21 -17 45 -93 41 -134 l-3
-39 -75 88 c-41 49 -77 93 -78 98 -5 12 98 1 115 -13z m450 -60 c-3 -7 -5 -2
-5 12 0 14 2 19 5 13 2 -7 2 -19 0 -25z m-5440 -754 c-3 -3 -12 -4 -19 -1 -8
3 -5 6 6 6 11 1 17 -2 13 -5z m40 -10 c-3 -3 -12 -4 -19 -1 -8 3 -5 6 6 6 11
1 17 -2 13 -5z m100 -20 c-3 -3 -12 -4 -19 -1 -8 3 -5 6 6 6 11 1 17 -2 13 -5z
m4694 -75 c-33 -71 -67 -124 -78 -124 -5 0 -24 -11 -43 -24 l-35 -24 41 44
c47 49 134 174 134 191 0 6 2 9 5 6 3 -3 -8 -34 -24 -69z"/>
<path d="M9253 8863 c9 -2 23 -2 30 0 6 3 -1 5 -18 5 -16 0 -22 -2 -12 -5z"/>
<path d="M9360 8845 c36 -8 74 -14 85 -14 36 1 -26 16 -90 22 l-60 6 65 -14z"/>
<path d="M12033 9913 c-22 -8 -14 -21 12 -19 14 0 25 4 25 7 0 10 -23 17 -37
12z"/>
<path d="M12740 9725 c0 -8 4 -15 9 -15 5 0 11 7 15 15 3 9 0 15 -9 15 -8 0
-15 -7 -15 -15z"/>
<path d="M15960 11168 c-19 -13 -89 -68 -155 -122 -66 -54 -159 -129 -208
-168 -92 -73 -106 -97 -91 -149 10 -35 376 -469 416 -493 34 -21 77 -20 108 1
28 19 244 193 367 295 113 94 118 130 30 226 -24 26 -109 124 -189 217 -80 94
-154 178 -165 187 -34 30 -74 32 -113 6z m129 -374 c12 -15 21 -36 21 -47 0
-44 -59 -74 -88 -45 -9 9 -12 7 -12 -12 0 -35 -11 -70 -21 -70 -5 0 -9 23 -9
50 0 54 -4 59 -32 33 -13 -11 -22 -13 -29 -6 -7 7 10 28 57 67 38 31 74 56 80
56 7 0 22 -12 33 -26z"/>
<path d="M16030 10765 c-10 -12 -10 -18 0 -30 16 -19 39 -19 46 0 6 15 -11 45
-26 45 -4 0 -13 -7 -20 -15z"/>
<path d="M14869 11131 c-85 -56 -434 -347 -447 -374 -11 -23 -10 -33 7 -69 18
-41 327 -412 391 -470 49 -45 85 -39 174 30 145 112 367 295 386 320 41 51 26
89 -80 208 -25 28 -105 121 -178 206 -122 143 -162 178 -202 178 -3 0 -26 -13
-51 -29z m161 -410 c0 -57 -55 -111 -112 -111 -27 0 -103 63 -96 80 2 4 34 33
73 65 l70 57 32 -36 c18 -20 33 -44 33 -55z"/>
<path d="M14912 10728 c-44 -34 -50 -46 -30 -66 32 -32 108 4 108 51 0 22 -16
47 -30 47 -4 0 -25 -14 -48 -32z"/>
<path d="M17980 10868 c-100 -75 -180 -150 -186 -174 -14 -54 -17 -49 319
-436 132 -152 161 -172 216 -143 40 20 204 157 225 187 32 46 21 82 -49 163
-36 41 -95 110 -132 153 -251 290 -253 292 -301 292 -28 0 -51 -10 -92 -42z
m201 -281 c-8 -8 -11 -7 -11 4 0 9 3 19 7 23 4 4 9 2 11 -4 3 -7 -1 -17 -7
-23z m-53 4 c3 -8 -1 -12 -9 -9 -7 2 -15 10 -17 17 -3 8 1 12 9 9 7 -2 15 -10
17 -17z m114 -33 c-6 -6 -15 -8 -19 -4 -4 4 -1 11 7 16 19 12 27 3 12 -12z
m-68 -42 c37 -49 32 -56 -9 -16 -19 19 -35 38 -35 42 0 18 19 6 44 -26z m103
-12 c-3 -3 -12 -4 -19 -1 -8 3 -5 6 6 6 11 1 17 -2 13 -5z m-17 -64 c0 -5 -4
-10 -10 -10 -5 0 -10 5 -10 10 0 6 5 10 10 10 6 0 10 -4 10 -10z m55 -110 c4
-6 3 -9 -2 -8 -4 1 -19 -3 -33 -10 l-25 -13 24 20 c27 24 28 24 36 11z m26
-62 c-5 -13 -16 -24 -25 -24 -13 -2 -13 -1 -1 3 8 2 15 9 15 15 0 5 -8 7 -17
4 -15 -5 -15 -4 1 9 28 21 37 19 27 -7z"/>
<path d="M17470 10693 c-14 -10 -72 -56 -130 -103 -58 -47 -143 -117 -190
-155 -135 -110 -154 -138 -127 -192 18 -35 377 -454 414 -482 40 -32 82 -27
139 17 27 20 131 104 231 186 184 150 211 182 199 230 -6 23 -66 99 -167 211
-25 27 -71 82 -103 120 -32 39 -83 96 -113 128 -48 49 -60 57 -92 57 -20 0
-48 -8 -61 -17z m236 -328 c-12 -47 -26 -75 -37 -75 -7 0 -8 7 -4 18 4 9 10
27 13 40 4 22 2 22 -39 16 -47 -7 -46 10 1 19 63 11 73 9 66 -18z m-206 -165
c15 -10 11 -12 -24 -14 -16 -1 -20 -9 -20 -41 -1 -33 -6 -42 -29 -53 -59 -29
-103 40 -54 85 12 11 29 23 37 26 25 9 74 7 90 -3z"/>
<path d="M17380 10155 c-16 -19 -6 -45 18 -45 25 0 46 25 38 45 -7 19 -40 19
-56 0z"/>
<path d="M16503 10476 c-154 -118 -409 -334 -421 -358 -25 -53 -3 -84 335
-470 120 -138 129 -138 284 -12 360 294 358 292 365 329 3 18 1 42 -4 52 -27
48 -400 474 -429 487 -47 24 -66 20 -130 -28z m165 -366 c19 -23 28 -41 22
-45 -6 -4 -17 -1 -26 5 -12 11 -25 4 -73 -34 -64 -49 -71 -53 -71 -33 0 7 25
32 55 56 56 45 63 55 45 66 -14 9 -12 25 3 25 6 0 27 -18 45 -40z"/>
<path d="M15269 10329 c-266 -215 -279 -227 -279 -270 0 -41 8 -54 125 -190
49 -58 135 -158 189 -222 101 -118 139 -146 182 -131 37 13 478 375 488 400
18 47 6 74 -76 171 -129 153 -328 382 -337 387 -4 3 -26 8 -48 12 -40 6 -41 5
-244 -157z m321 -244 c27 -28 31 -37 21 -48 -10 -10 -17 -6 -37 18 -22 28 -25
29 -40 13 -15 -15 -15 -18 0 -39 9 -13 16 -27 16 -31 0 -14 -23 -9 -42 9 -18
16 -21 16 -47 0 -33 -19 -54 -22 -49 -6 4 11 128 117 139 118 3 1 20 -15 39
-34z"/>
<path d="M18630 10207 c-44 -25 -158 -115 -207 -165 -38 -38 -42 -72 -14 -117
10 -16 68 -87 129 -156 l110 -126 229 -8 c125 -4 244 -8 263 -9 30 -1 35 2 38
24 4 36 -16 62 -222 300 -253 292 -257 294 -326 257z m184 -322 l37 -16 -31
-26 c-17 -14 -33 -23 -36 -20 -7 7 -18 77 -12 77 3 0 22 -7 42 -15z m55 -66
c38 -14 39 -20 2 -47 -32 -23 -41 -16 -41 34 0 28 -2 27 39 13z"/>
<path d="M18080 10043 c-17 -7 -97 -70 -317 -251 -167 -137 -183 -159 -158
-218 8 -19 20 -37 28 -40 8 -3 72 6 143 20 71 14 186 32 256 42 l126 17 -5 32
c-4 28 -1 36 20 50 15 9 31 14 37 10 7 -4 18 2 26 14 19 27 39 27 58 -1 19
-26 5 -48 -30 -48 -19 0 -24 -5 -24 -25 0 -28 -7 -27 207 -9 l62 5 -160 187
c-88 103 -168 192 -177 199 -22 14 -73 23 -92 16z"/>
<path d="M17099 9819 c-24 -18 -80 -62 -124 -99 -44 -36 -133 -110 -197 -164
-78 -64 -120 -106 -124 -123 -8 -30 23 -97 60 -132 l22 -21 139 45 c77 25 177
57 222 71 69 21 84 29 89 50 7 28 34 33 34 5 0 -17 6 -17 113 9 61 15 127 32
145 36 l32 9 -135 157 c-173 201 -195 214 -276 157z"/>
<path d="M16033 9803 c-47 -26 -443 -353 -461 -381 -12 -19 -13 -29 -3 -63 11
-38 15 -41 39 -34 15 4 61 9 102 10 41 2 120 9 175 16 93 11 102 14 131 45 17
18 43 36 57 40 37 9 85 -13 102 -46 12 -23 22 -28 72 -33 65 -7 259 -53 285
-67 9 -5 19 -6 22 -2 8 14 -26 61 -139 192 -59 69 -131 152 -159 185 -135 157
-161 173 -223 138z"/>
<path d="M18257 9713 c-12 -11 -8 -23 8 -23 8 0 15 7 15 15 0 16 -12 20 -23 8z"/>
<path d="M18180 9674 c-10 -11 -11 -20 -3 -32 17 -27 38 -20 38 12 0 34 -16
44 -35 20z"/>
<path d="M15023 9557 c-43 -35 -139 -112 -213 -171 -74 -60 -147 -120 -162
-134 -35 -32 -44 -72 -24 -109 13 -24 99 -129 205 -248 14 -16 61 -71 104
-122 43 -51 90 -101 106 -113 53 -37 87 -25 215 80 67 55 67 55 60 95 -4 22
-6 74 -5 115 2 95 41 179 117 259 30 30 54 56 54 58 0 1 -21 27 -47 56 -27 29
-92 105 -146 169 -54 64 -105 119 -113 122 -44 17 -75 5 -151 -57z m157 -305
c0 -4 -16 -32 -34 -62 -19 -30 -32 -56 -27 -58 4 -1 33 7 65 18 55 18 88 18
69 -1 -8 -8 -171 -69 -185 -69 -18 0 -5 34 38 105 25 41 52 75 60 75 8 0 14
-4 14 -8z"/>
<path d="M16065 9392 l-30 -17 55 -5 c30 -3 57 -4 60 -2 6 4 -39 42 -49 42 -3
-1 -19 -8 -36 -18z"/>
<path d="M15288 8628 c-95 -78 -111 -107 -89 -155 l12 -26 32 30 c18 17 53 44
79 62 26 17 50 36 53 41 8 14 -5 100 -16 100 -4 0 -36 -23 -71 -52z"/>
<path d="M13667 8278 c11 -13 29 -33 39 -45 24 -30 32 -29 26 3 -3 15 -18 34
-36 45 -42 25 -54 24 -29 -3z"/>
<path d="M12240 8249 l-45 -41 42 32 c37 27 61 51 51 50 -2 0 -23 -19 -48 -41z"/>
<path d="M12169 8193 c-13 -16 -12 -17 4 -4 9 7 17 15 17 17 0 8 -8 3 -21 -13z"/>
<path d="M19307 7164 c-53 -7 -236 -27 -405 -44 -316 -32 -497 -52 -853 -95
-113 -14 -213 -23 -222 -20 -8 4 -25 2 -36 -4 l-21 -11 20 -51 c11 -27 20 -69
20 -93 0 -56 30 -86 86 -86 21 0 179 16 349 35 538 62 926 104 1060 115 197
18 175 -1 175 145 l0 125 -37 -1 c-21 -1 -82 -8 -136 -15z"/>
<path d="M7275 6988 c-16 -6 -68 -25 -115 -44 -47 -18 -116 -40 -155 -49 -38
-9 -79 -20 -90 -25 -60 -27 -211 -69 -325 -90 -94 -17 -276 -59 -302 -69 -45
-17 -201 -53 -244 -57 -22 -1 -128 -26 -235 -54 -209 -55 -300 -75 -393 -85
-101 -12 -357 -62 -367 -72 -11 -11 37 -194 139 -529 8 -25 7 -35 -5 -47 -14
-14 -14 -15 3 -14 16 2 28 -26 76 -173 31 -96 71 -222 88 -280 17 -58 49 -159
70 -225 21 -66 64 -203 95 -305 60 -195 163 -498 219 -640 19 -47 37 -93 40
-103 10 -30 22 -17 68 73 49 95 139 266 202 380 23 41 55 104 71 140 53 115
111 213 136 232 22 16 28 17 71 3 53 -15 211 -96 328 -167 79 -48 222 -128
380 -213 52 -28 118 -65 145 -81 76 -47 276 -154 415 -224 69 -34 137 -71 152
-81 14 -11 29 -19 33 -19 5 0 47 -24 94 -54 47 -29 100 -60 116 -68 129 -64
447 -234 535 -286 19 -11 71 -39 115 -62 184 -96 291 -153 300 -160 11 -9 217
-117 254 -134 13 -6 56 -27 95 -48 71 -36 71 -36 74 -81 3 -46 -62 -260 -114
-373 -13 -29 -24 -56 -24 -59 0 -4 -29 -75 -66 -158 -36 -84 -72 -170 -81
-192 -15 -39 -35 -89 -53 -130 -4 -11 -39 -85 -78 -165 -77 -160 -85 -180 -74
-195 9 -13 105 -59 157 -75 81 -26 648 -313 821 -416 50 -30 93 -54 97 -54 3
0 47 -24 99 -53 104 -60 439 -233 893 -462 301 -152 358 -182 443 -236 25 -16
51 -29 56 -29 6 0 36 -15 66 -33 30 -18 82 -48 115 -66 457 -253 440 -242 443
-281 1 -19 -11 -84 -28 -145 -17 -60 -33 -120 -37 -133 l-5 -22 763 1 764 0
-85 42 -85 42 3 50 c1 28 6 59 11 70 5 11 22 56 39 100 60 160 115 283 194
440 44 88 84 165 89 171 16 20 38 94 33 109 -5 12 -202 115 -220 115 -3 0 -56
24 -117 53 -62 30 -141 67 -177 82 -36 16 -72 34 -81 42 -13 11 -210 108 -489
241 -41 20 -136 69 -210 110 -150 83 -729 370 -871 432 -13 6 -36 18 -50 28
-14 9 -50 33 -80 53 -30 20 -189 105 -354 189 -165 84 -311 160 -325 169 -14
10 -65 37 -115 61 -139 68 -147 75 -139 118 4 21 14 46 24 57 10 11 75 137
145 280 69 143 194 395 275 560 159 319 183 372 175 385 -8 13 -142 84 -220
118 -38 16 -108 48 -155 70 -47 21 -149 68 -228 102 -78 35 -145 67 -148 71
-5 9 -86 53 -279 154 -71 37 -166 88 -210 113 -44 25 -186 99 -315 165 -432
219 -784 399 -877 448 -126 66 -318 163 -375 188 -25 11 -151 75 -280 142
-128 67 -390 200 -583 296 -499 249 -508 253 -525 269 -13 13 -10 23 24 87 22
40 64 110 94 157 89 139 96 150 172 280 40 69 83 141 95 160 28 46 65 138 65
161 0 22 -35 24 -85 7z"/>
<path d="M14889 6337 c-45 -35 -52 -109 -14 -172 29 -50 48 -60 83 -43 33 16
52 52 52 101 0 30 -8 46 -41 82 -44 48 -54 52 -80 32z"/>
<path d="M15013 5776 c-23 -20 -28 -32 -28 -69 0 -51 29 -100 62 -105 27 -4
71 43 79 84 9 49 -34 114 -76 114 -5 0 -22 -11 -37 -24z"/>
<path d="M15014 4077 c-94 -82 -406 -345 -508 -428 -45 -36 -88 -74 -96 -84
-8 -10 34 22 94 71 59 49 136 112 170 139 169 138 415 345 421 354 15 26 -15
6 -81 -52z"/>
<path d="M14310 3486 c-41 -35 -82 -71 -90 -82 -8 -10 4 -3 25 17 32 27 94 78
144 116 2 2 2 5 0 7 -2 2 -38 -24 -79 -58z"/>
<path d="M19463 3473 c-17 -6 -16 -28 2 -43 13 -11 15 -8 15 19 0 17 -1 31 -2
30 -2 0 -9 -3 -15 -6z"/>
<path d="M14145 3349 c-63 -51 -77 -65 -50 -51 22 12 113 91 105 91 -3 0 -27
-18 -55 -40z"/>
<path d="M18850 3329 c-118 -21 -276 -47 -350 -59 -74 -11 -158 -25 -186 -31
l-51 -12 10 -33 c7 -22 17 -34 28 -34 10 0 21 -12 28 -31 6 -17 15 -28 21 -24
5 3 10 -1 10 -9 0 -9 4 -15 9 -14 5 2 32 -14 59 -35 53 -40 140 -77 180 -77
38 0 96 44 436 333 27 23 53 44 58 45 17 7 7 22 -14 21 -13 -1 -120 -18 -238
-40z"/>
<path d="M13994 3218 l-19 -23 23 19 c21 18 27 26 19 26 -2 0 -12 -10 -23 -22z"/>
<path d="M13944 3178 l-19 -23 23 19 c21 18 27 26 19 26 -2 0 -12 -10 -23 -22z"/>
<path d="M18890 3068 c-87 -48 -196 -149 -186 -173 3 -9 2 -14 -3 -11 -11 7
-21 -17 -21 -47 0 -18 2 -19 10 -7 8 12 10 10 10 -9 0 -19 50 -95 80 -121 3
-3 77 -88 164 -190 168 -195 197 -226 233 -240 42 -17 80 1 192 96 l111 95 0
68 c0 76 3 71 -130 228 -41 48 -115 135 -163 193 -154 183 -168 188 -297 118z"/>
<path d="M13790 3049 l-45 -41 42 32 c37 27 61 51 51 50 -2 0 -23 -19 -48 -41z"/>
<path d="M13639 2923 l-24 -28 28 24 c15 14 27 26 27 28 0 8 -8 1 -31 -24z"/>
<path d="M13589 2883 c-13 -16 -12 -17 4 -4 16 13 21 21 13 21 -2 0 -10 -8
-17 -17z"/>
<path d="M13360 2705 c-14 -8 -20 -14 -14 -15 5 0 19 7 30 15 24 18 16 19 -16
0z"/>
<path d="M18480 2576 c0 -8 5 -18 10 -21 6 -3 10 1 10 9 0 8 -4 18 -10 21 -5
3 -10 -1 -10 -9z"/>
</g>
</svg>
