<svg width="40" height="40" viewBox="0 0 40 40" fill="none" xmlns="http://www.w3.org/2000/svg">
<path d="M20 23.334C18.0222 23.334 16.0888 22.7475 14.4443 21.6487C12.7998 20.5499 11.5181 18.9881 10.7612 17.1608C10.0043 15.3336 9.8063 13.3229 10.1922 11.3831C10.578 9.44328 11.5304 7.66145 12.9289 6.26292C14.3275 4.8644 16.1093 3.91199 18.0491 3.52614C19.9889 3.14028 21.9996 3.33832 23.8268 4.09519C25.6541 4.85207 27.2159 6.1338 28.3147 7.77829C29.4135 9.42278 30 11.3562 30 13.334C29.9969 15.9852 28.9424 18.527 27.0677 20.4016C25.193 22.2763 22.6512 23.3309 20 23.334Z" fill="#B2B1FF"/>
<path d="M26.1664 21.1875C24.4088 22.5751 22.2349 23.3299 19.9955 23.3299C17.7562 23.3299 15.5823 22.5751 13.8247 21.1875C11.0211 22.3055 8.57409 24.1643 6.7452 26.5654C4.91631 28.9664 3.77434 31.8193 3.44137 34.8192C3.3937 35.2585 3.52248 35.6988 3.7994 36.0433C4.07631 36.3877 4.47869 36.608 4.91804 36.6558L34.8997 36.6658C35.1339 36.666 35.3655 36.6169 35.5794 36.5216C35.7933 36.4263 35.9847 36.287 36.1412 36.1127C36.2976 35.9385 36.4156 35.7333 36.4874 35.5104C36.5593 35.2875 36.5833 35.052 36.558 34.8192C36.2241 31.819 35.0812 28.9659 33.2514 26.5649C31.4217 24.1639 28.9739 22.3052 26.1697 21.1875H26.1664Z" fill="#6563FF"/>
</svg>
