<svg width="40" height="40" viewBox="0 0 40 40" fill="none" xmlns="http://www.w3.org/2000/svg">
<path d="M21.6654 35H14.9987V25C14.9987 24.5583 15.1741 24.1346 15.4863 23.8221C15.7985 23.5096 16.222 23.3338 16.6637 23.3333H23.332C23.7738 23.3333 24.1974 23.5087 24.51 23.8209C24.8225 24.1331 24.9983 24.5566 24.9987 24.9983V35H21.6654ZM16.6654 20H14.9987C14.5567 20 14.1327 19.8244 13.8202 19.5118C13.5076 19.1993 13.332 18.7754 13.332 18.3333C13.332 17.8913 13.5076 17.4674 13.8202 17.1548C14.1327 16.8423 14.5567 16.6667 14.9987 16.6667H16.6654C17.1074 16.6667 17.5313 16.8423 17.8439 17.1548C18.1564 17.4674 18.332 17.8913 18.332 18.3333C18.332 18.7754 18.1564 19.1993 17.8439 19.5118C17.5313 19.8244 17.1074 20 16.6654 20ZM16.6654 13.3333H14.9987C14.5567 13.3333 14.1327 13.1577 13.8202 12.8452C13.5076 12.5326 13.332 12.1087 13.332 11.6667C13.332 11.2246 13.5076 10.8007 13.8202 10.4882C14.1327 10.1756 14.5567 10 14.9987 10H16.6654C17.1074 10 17.5313 10.1756 17.8439 10.4882C18.1564 10.8007 18.332 11.2246 18.332 11.6667C18.332 12.1087 18.1564 12.5326 17.8439 12.8452C17.5313 13.1577 17.1074 13.3333 16.6654 13.3333ZM24.9987 13.3333H23.332C22.89 13.3333 22.4661 13.1577 22.1535 12.8452C21.841 12.5326 21.6654 12.1087 21.6654 11.6667C21.6654 11.2246 21.841 10.8007 22.1535 10.4882C22.4661 10.1756 22.89 10 23.332 10H24.9987C25.4407 10 25.8646 10.1756 26.1772 10.4882C26.4898 10.8007 26.6654 11.2246 26.6654 11.6667C26.6654 12.1087 26.4898 12.5326 26.1772 12.8452C25.8646 13.1577 25.4407 13.3333 24.9987 13.3333ZM24.9987 20H23.332C22.89 20 22.4661 19.8244 22.1535 19.5118C21.841 19.1993 21.6654 18.7754 21.6654 18.3333C21.6654 17.8913 21.841 17.4674 22.1535 17.1548C22.4661 16.8423 22.89 16.6667 23.332 16.6667H24.9987C25.4407 16.6667 25.8646 16.8423 26.1772 17.1548C26.4898 17.4674 26.6654 17.8913 26.6654 18.3333C26.6654 18.7754 26.4898 19.1993 26.1772 19.5118C25.8646 19.8244 25.4407 20 24.9987 20Z" fill="#B2B1FF"/>
<path d="M31.668 3.33398H8.33297C7.89123 3.33443 7.46773 3.51022 7.15553 3.82273C6.84333 4.13524 6.66797 4.55891 6.66797 5.00065V35.0023C6.66841 35.4441 6.8442 35.8675 7.15671 36.1798C7.46923 36.492 7.8929 36.6673 8.33464 36.6673H31.6696C32.1114 36.6669 32.5349 36.4911 32.8471 36.1786C33.1593 35.8661 33.3346 35.4424 33.3346 35.0007V4.99898C33.3342 4.55725 33.1584 4.13375 32.8459 3.82155C32.5334 3.50935 32.1097 3.33398 31.668 3.33398ZM15.0013 10.0007H16.668C17.11 10.0007 17.5339 10.1762 17.8465 10.4888C18.159 10.8014 18.3346 11.2253 18.3346 11.6673C18.3346 12.1093 18.159 12.5333 17.8465 12.8458C17.5339 13.1584 17.11 13.334 16.668 13.334H15.0013C14.5593 13.334 14.1354 13.1584 13.8228 12.8458C13.5102 12.5333 13.3346 12.1093 13.3346 11.6673C13.3346 11.2253 13.5102 10.8014 13.8228 10.4888C14.1354 10.1762 14.5593 10.0007 15.0013 10.0007ZM13.3346 18.334C13.3346 17.892 13.5102 17.468 13.8228 17.1555C14.1354 16.8429 14.5593 16.6673 15.0013 16.6673H16.668C17.11 16.6673 17.5339 16.8429 17.8465 17.1555C18.159 17.468 18.3346 17.892 18.3346 18.334C18.3346 18.776 18.159 19.1999 17.8465 19.5125C17.5339 19.8251 17.11 20.0007 16.668 20.0007H15.0013C14.5593 20.0007 14.1354 19.8251 13.8228 19.5125C13.5102 19.1999 13.3346 18.776 13.3346 18.334ZM25.0013 25.0007V35.0007H15.0013V25.0007C15.0013 24.5589 15.1767 24.1352 15.4889 23.8227C15.8011 23.5102 16.2246 23.3344 16.6663 23.334H23.3346C23.7764 23.334 24.2 23.5093 24.5126 23.8216C24.8251 24.1338 25.0009 24.5572 25.0013 24.999V25.0007ZM25.0013 20.0007H23.3346C22.8926 20.0007 22.4687 19.8251 22.1561 19.5125C21.8436 19.1999 21.668 18.776 21.668 18.334C21.668 17.892 21.8436 17.468 22.1561 17.1555C22.4687 16.8429 22.8926 16.6673 23.3346 16.6673H25.0013C25.4433 16.6673 25.8673 16.8429 26.1798 17.1555C26.4924 17.468 26.668 17.892 26.668 18.334C26.668 18.776 26.4924 19.1999 26.1798 19.5125C25.8673 19.8251 25.4433 20.0007 25.0013 20.0007ZM25.0013 13.334H23.3346C22.8926 13.334 22.4687 13.1584 22.1561 12.8458C21.8436 12.5333 21.668 12.1093 21.668 11.6673C21.668 11.2253 21.8436 10.8014 22.1561 10.4888C22.4687 10.1762 22.8926 10.0007 23.3346 10.0007H25.0013C25.4433 10.0007 25.8673 10.1762 26.1798 10.4888C26.4924 10.8014 26.668 11.2253 26.668 11.6673C26.668 12.1093 26.4924 12.5333 26.1798 12.8458C25.8673 13.1584 25.4433 13.334 25.0013 13.334Z" fill="#D8D8FF"/>
<path d="M34.9987 36.6673H4.9987C4.55667 36.6673 4.13275 36.4917 3.82019 36.1792C3.50763 35.8666 3.33203 35.4427 3.33203 35.0007C3.33203 34.5586 3.50763 34.1347 3.82019 33.8221C4.13275 33.5096 4.55667 33.334 4.9987 33.334H34.9987C35.4407 33.334 35.8647 33.5096 36.1772 33.8221C36.4898 34.1347 36.6654 34.5586 36.6654 35.0007C36.6654 35.4427 36.4898 35.8666 36.1772 36.1792C35.8647 36.4917 35.4407 36.6673 34.9987 36.6673Z" fill="#6563FF"/>
</svg>
