<svg width="28" height="29" viewBox="0 0 28 29" fill="none" xmlns="http://www.w3.org/2000/svg">
<path d="M15.0002 25.0749H10.3844V18.1512C10.3844 17.8454 10.5058 17.552 10.722 17.3356C10.9382 17.1193 11.2314 16.9976 11.5372 16.9973H16.1542C16.46 16.9973 16.7534 17.1187 16.9698 17.3348C17.1861 17.551 17.3078 17.8442 17.3081 18.1501V25.0749H15.0002ZM11.5384 14.6893H10.3844C10.0784 14.6893 9.78486 14.5678 9.56845 14.3514C9.35205 14.135 9.23047 13.8414 9.23047 13.5354C9.23047 13.2293 9.35205 12.9358 9.56845 12.7194C9.78486 12.503 10.0784 12.3814 10.3844 12.3814H11.5384C11.8444 12.3814 12.1379 12.503 12.3543 12.7194C12.5708 12.9358 12.6923 13.2293 12.6923 13.5354C12.6923 13.8414 12.5708 14.135 12.3543 14.3514C12.1379 14.5678 11.8444 14.6893 11.5384 14.6893ZM11.5384 10.0735H10.3844C10.0784 10.0735 9.78486 9.95196 9.56845 9.73555C9.35205 9.51914 9.23047 9.22563 9.23047 8.91958C9.23047 8.61353 9.35205 8.32002 9.56845 8.10361C9.78486 7.8872 10.0784 7.76562 10.3844 7.76562H11.5384C11.8444 7.76562 12.1379 7.8872 12.3543 8.10361C12.5708 8.32002 12.6923 8.61353 12.6923 8.91958C12.6923 9.22563 12.5708 9.51914 12.3543 9.73555C12.1379 9.95196 11.8444 10.0735 11.5384 10.0735ZM17.3081 10.0735H16.1542C15.8481 10.0735 15.5546 9.95196 15.3382 9.73555C15.1218 9.51914 15.0002 9.22563 15.0002 8.91958C15.0002 8.61353 15.1218 8.32002 15.3382 8.10361C15.5546 7.8872 15.8481 7.76562 16.1542 7.76562H17.3081C17.6142 7.76562 17.9077 7.8872 18.1241 8.10361C18.3405 8.32002 18.4621 8.61353 18.4621 8.91958C18.4621 9.22563 18.3405 9.51914 18.1241 9.73555C17.9077 9.95196 17.6142 10.0735 17.3081 10.0735ZM17.3081 14.6893H16.1542C15.8481 14.6893 15.5546 14.5678 15.3382 14.3514C15.1218 14.135 15.0002 13.8414 15.0002 13.5354C15.0002 13.2293 15.1218 12.9358 15.3382 12.7194C15.5546 12.503 15.8481 12.3814 16.1542 12.3814H17.3081C17.6142 12.3814 17.9077 12.503 18.1241 12.7194C18.3405 12.9358 18.4621 13.2293 18.4621 13.5354C18.4621 13.8414 18.3405 14.135 18.1241 14.3514C17.9077 14.5678 17.6142 14.6893 17.3081 14.6893Z" fill="#B2B1FF"/>
<path d="M21.9265 3.15039H5.76999C5.46414 3.1507 5.17092 3.27241 4.95476 3.48878C4.73861 3.70516 4.61719 3.9985 4.61719 4.30434V25.0767C4.61749 25.3825 4.73921 25.6757 4.95558 25.8919C5.17196 26.108 5.46529 26.2295 5.77114 26.2295H21.9276C22.2335 26.2292 22.5267 26.1074 22.7429 25.8911C22.959 25.6747 23.0804 25.3814 23.0804 25.0755V4.30319C23.0801 3.99734 22.9584 3.70413 22.7421 3.48797C22.5257 3.27181 22.2323 3.15039 21.9265 3.15039ZM10.387 7.76621H11.5409C11.847 7.76621 12.1405 7.88778 12.3569 8.10419C12.5733 8.3206 12.6949 8.61411 12.6949 8.92016C12.6949 9.22621 12.5733 9.51972 12.3569 9.73613C12.1405 9.95254 11.847 10.0741 11.5409 10.0741H10.387C10.0809 10.0741 9.7874 9.95254 9.57099 9.73613C9.35458 9.51972 9.233 9.22621 9.233 8.92016C9.233 8.61411 9.35458 8.3206 9.57099 8.10419C9.7874 7.88778 10.0809 7.76621 10.387 7.76621ZM9.233 13.536C9.233 13.2299 9.35458 12.9364 9.57099 12.72C9.7874 12.5036 10.0809 12.382 10.387 12.382H11.5409C11.847 12.382 12.1405 12.5036 12.3569 12.72C12.5733 12.9364 12.6949 13.2299 12.6949 13.536C12.6949 13.842 12.5733 14.1355 12.3569 14.3519C12.1405 14.5684 11.847 14.6899 11.5409 14.6899H10.387C10.0809 14.6899 9.7874 14.5684 9.57099 14.3519C9.35458 14.1355 9.233 13.842 9.233 13.536ZM17.3107 18.1518V25.0755H10.387V18.1518C10.387 17.8459 10.5084 17.5526 10.7245 17.3362C10.9407 17.1199 11.2339 16.9981 11.5398 16.9978H16.1567C16.4626 16.9978 16.7559 17.1193 16.9723 17.3354C17.1887 17.5516 17.3104 17.8448 17.3107 18.1506V18.1518ZM17.3107 14.6899H16.1567C15.8507 14.6899 15.5572 14.5684 15.3408 14.3519C15.1243 14.1355 15.0028 13.842 15.0028 13.536C15.0028 13.2299 15.1243 12.9364 15.3408 12.72C15.5572 12.5036 15.8507 12.382 16.1567 12.382H17.3107C17.6167 12.382 17.9102 12.5036 18.1266 12.72C18.3431 12.9364 18.4646 13.2299 18.4646 13.536C18.4646 13.842 18.3431 14.1355 18.1266 14.3519C17.9102 14.5684 17.6167 14.6899 17.3107 14.6899ZM17.3107 10.0741H16.1567C15.8507 10.0741 15.5572 9.95254 15.3408 9.73613C15.1243 9.51972 15.0028 9.22621 15.0028 8.92016C15.0028 8.61411 15.1243 8.3206 15.3408 8.10419C15.5572 7.88778 15.8507 7.76621 16.1567 7.76621H17.3107C17.6167 7.76621 17.9102 7.88778 18.1266 8.10419C18.3431 8.3206 18.4646 8.61411 18.4646 8.92016C18.4646 9.22621 18.3431 9.51972 18.1266 9.73613C17.9102 9.95254 17.6167 10.0741 17.3107 10.0741Z" fill="#D8D8FF"/>
<path d="M24.2337 26.2298H3.46255C3.1565 26.2298 2.86299 26.1082 2.64658 25.8918C2.43017 25.6754 2.30859 25.3819 2.30859 25.0758C2.30859 24.7698 2.43017 24.4763 2.64658 24.2599C2.86299 24.0435 3.1565 23.9219 3.46255 23.9219H24.2337C24.5398 23.9219 24.8333 24.0435 25.0497 24.2599C25.2661 24.4763 25.3877 24.7698 25.3877 25.0758C25.3877 25.3819 25.2661 25.6754 25.0497 25.8918C24.8333 26.1082 24.5398 26.2298 24.2337 26.2298Z" fill="#6563FF"/>
</svg>
