<svg width="40" height="40" viewBox="0 0 40 40" fill="none" xmlns="http://www.w3.org/2000/svg">
<path d="M34.9987 22.4209L4.9987 22.4192C4.07846 22.4195 3.33228 21.6737 3.33203 20.7535C3.33203 20.7532 3.33203 20.7538 3.33203 20.7535V15.834C3.33505 13.0738 5.57185 10.837 8.33203 10.834H31.6654C34.4255 10.837 36.6623 13.0738 36.6654 15.834V20.7542C36.6651 21.6746 35.9191 22.4207 34.9987 22.4209Z" fill="#B2B1FF"/>
<path d="M34.9987 22.4194L4.9987 22.4178C4.0785 22.418 3.33223 21.6723 3.33203 20.752V30.8325C3.33508 33.5927 5.57181 35.8295 8.33203 35.8325H31.6654C34.4256 35.8295 36.6623 33.5927 36.6654 30.8325V20.7528C36.6652 21.6732 35.9191 22.4192 34.9987 22.4194Z" fill="#D8D8FF"/>
<path d="M25.0013 22.4191V24.166C25.0013 24.1657 25.0013 24.1663 25.0013 24.166C25.0015 25.0862 25.7478 25.8329 26.668 25.8327C26.6677 25.8327 26.6683 25.8327 26.668 25.8327C27.5882 25.8325 28.3348 25.0862 28.3346 24.166V22.4192L25.0013 22.4191ZM16.668 10.8327V9.16602C16.6689 8.24592 17.4145 7.50027 18.3346 7.49935H21.668C22.5881 7.50027 23.3337 8.24592 23.3346 9.16602V10.8327H26.668V9.16602C26.6649 6.4058 24.4282 4.16907 21.668 4.16602H18.3346C15.5744 4.16907 13.3377 6.4058 13.3346 9.16602V10.8327H16.668ZM11.668 22.4184V24.166C11.668 24.1657 11.668 24.1663 11.668 24.166C11.6682 25.0862 12.4144 25.8329 13.3346 25.8327C13.3343 25.8327 13.3349 25.8327 13.3346 25.8327C14.2548 25.8325 15.0015 25.0862 15.0013 24.166V22.4185L11.668 22.4184Z" fill="#6563FF"/>
</svg>
