<svg width="34" height="34" viewBox="0 0 34 34" fill="none" xmlns="http://www.w3.org/2000/svg">
<path d="M26.9154 17.0001H7.08209C6.62451 17.0001 6.18959 16.9094 5.77734 16.7734L6.83418 27.3404C6.93643 28.39 7.42645 29.3638 8.20847 30.0715C8.99049 30.7791 10.0083 31.1696 11.0629 31.1668H22.9346C23.9892 31.1696 25.007 30.7791 25.7891 30.0715C26.5711 29.3638 27.0611 28.39 27.1633 27.3404L28.2202 16.7749C27.8065 16.9094 27.373 17.0001 26.9154 17.0001Z" fill="#B2B1FF"/>
<path d="M26.9154 17H7.08203C5.95486 17 4.87386 16.5522 4.07683 15.7552C3.2798 14.9582 2.83203 13.8772 2.83203 12.75C2.83203 11.6228 3.2798 10.5418 4.07683 9.7448C4.87386 8.94777 5.95486 8.5 7.08203 8.5H26.9154C28.0425 8.5 29.1235 8.94777 29.9206 9.7448C30.7176 10.5418 31.1654 11.6228 31.1654 12.75C31.1654 13.8772 30.7176 14.9582 29.9206 15.7552C29.1235 16.5522 28.0425 17 26.9154 17Z" fill="#D8D8FF"/>
<path d="M26.9154 17H7.08203C5.95486 17 4.87386 16.5522 4.07683 15.7552C3.2798 14.9582 2.83203 13.8772 2.83203 12.75C2.83203 11.6228 3.2798 10.5418 4.07683 9.7448C4.87386 8.94777 5.95486 8.5 7.08203 8.5H26.9154C28.0425 8.5 29.1235 8.94777 29.9206 9.7448C30.7176 10.5418 31.1654 11.6228 31.1654 12.75C31.1654 13.8772 30.7176 14.9582 29.9206 15.7552C29.1235 16.5522 28.0425 17 26.9154 17Z" fill="#D8D8FF"/>
<path d="M21.791 8.50017H24.9587L22.5178 3.61692C22.3498 3.28065 22.0552 3.02487 21.6986 2.90585C21.5221 2.84691 21.3357 2.82333 21.15 2.83644C20.9644 2.84955 20.7831 2.8991 20.6166 2.98226C20.2803 3.15021 20.0245 3.44486 19.9055 3.8014C19.7865 4.15794 19.814 4.54715 19.9819 4.88342L21.791 8.50017ZM12.2087 8.50017L14.0178 4.88342L14.0206 4.87776C14.1878 4.54111 14.2144 4.15183 14.0946 3.79556C13.9748 3.43929 13.7183 3.14521 13.3817 2.97801C13.045 2.81081 12.6558 2.7842 12.2995 2.90402C11.9432 3.02384 11.6491 3.28028 11.4819 3.61692L9.04102 8.50017H12.2087ZM14.1665 19.8335C13.7908 19.8335 13.4305 19.9828 13.1648 20.2484C12.8991 20.5141 12.7498 20.8745 12.7498 21.2502V24.0835C12.7498 24.4592 12.8991 24.8196 13.1648 25.0852C13.4305 25.3509 13.7908 25.5002 14.1665 25.5002C14.5422 25.5002 14.9026 25.3509 15.1682 25.0852C15.4339 24.8196 15.5832 24.4592 15.5832 24.0835V21.2502C15.5832 20.8745 15.4339 20.5141 15.1682 20.2484C14.9026 19.9828 14.5422 19.8335 14.1665 19.8335ZM19.8332 19.8335C19.4575 19.8335 19.0971 19.9828 18.8314 20.2484C18.5658 20.5141 18.4165 20.8745 18.4165 21.2502V24.0835C18.4165 24.4592 18.5658 24.8196 18.8314 25.0852C19.0971 25.3509 19.4575 25.5002 19.8332 25.5002C20.2089 25.5002 20.5692 25.3509 20.8349 25.0852C21.1006 24.8196 21.2498 24.4592 21.2498 24.0835V21.2502C21.2498 20.8745 21.1006 20.5141 20.8349 20.2484C20.5692 19.9828 20.2089 19.8335 19.8332 19.8335Z" fill="#6563FF"/>
</svg>
