<svg width="29" height="29" viewBox="0 0 29 29" fill="none" xmlns="http://www.w3.org/2000/svg">
<path d="M22.6865 26.156C22.5368 26.1559 22.3872 26.1463 22.2387 26.1272C17.426 25.5037 12.9538 23.3087 9.51639 19.8831C6.09013 16.4455 3.89476 11.9729 3.27119 7.15963C3.20725 6.66574 3.24931 6.16389 3.39457 5.68753C3.53983 5.21118 3.78494 4.77125 4.11357 4.39706C4.43774 4.02872 4.83664 3.73365 5.28373 3.5315C5.73082 3.32934 6.21584 3.22474 6.70651 3.22465H10.1995C11.0163 3.22089 11.8078 3.50792 12.4324 4.03436C13.0569 4.56081 13.4738 5.29232 13.6083 6.09799C13.6487 6.36109 13.6972 6.62073 13.7537 6.87806C13.8679 7.3923 14.0171 7.89814 14.2003 8.39205C14.3939 8.93266 14.3783 9.52613 14.1567 10.0559C13.9351 10.5856 13.5234 11.0133 13.0025 11.255L12.4751 11.5008C13.7602 13.7644 15.6339 15.6381 17.8976 16.9232L18.1433 16.3947C18.3857 15.8741 18.8137 15.4628 19.3435 15.2415C19.8734 15.0201 20.4668 15.0046 21.0075 15.1981C21.5023 15.3811 22.0089 15.5307 22.5238 15.6458C22.7799 15.7023 23.0384 15.7508 23.2981 15.7889C24.1043 15.923 24.8366 16.3398 25.3635 16.9646C25.8904 17.5894 26.1777 18.3815 26.1737 19.1988V22.6918C26.1735 23.1825 26.0689 23.6675 25.8668 24.1146C25.6646 24.5617 25.3696 24.9606 25.0013 25.2848C24.3613 25.847 23.5383 26.1567 22.6865 26.156Z" fill="#B2B1FF"/>
</svg>
