<svg width="34" height="34" viewBox="0 0 34 34" fill="none" xmlns="http://www.w3.org/2000/svg">
<path d="M13.4583 31.1667C12.7069 31.1667 11.9862 30.8682 11.4549 30.3368C10.9235 29.8054 10.625 29.0848 10.625 28.3333C10.625 27.5819 10.9235 26.8612 11.4549 26.3299C11.9862 25.7985 12.7069 25.5 13.4583 25.5C14.2098 25.5 14.9304 25.7985 15.4618 26.3299C15.9932 26.8612 16.2917 27.5819 16.2917 28.3333C16.2917 29.0848 15.9932 29.8054 15.4618 30.3368C14.9304 30.8682 14.2098 31.1667 13.4583 31.1667ZM24.7917 31.1667C24.0402 31.1667 23.3196 30.8682 22.7882 30.3368C22.2568 29.8054 21.9583 29.0848 21.9583 28.3333C21.9583 27.5819 22.2568 26.8612 22.7882 26.3299C23.3196 25.7985 24.0402 25.5 24.7917 25.5C25.5431 25.5 26.2638 25.7985 26.7951 26.3299C27.3265 26.8612 27.625 27.5819 27.625 28.3333C27.625 29.0848 27.3265 29.8054 26.7951 30.3368C26.2638 30.8682 25.5431 31.1667 24.7917 31.1667Z" fill="#B2B1FF"/>
<path d="M11.5896 19.834C11.2778 19.834 10.9747 19.7312 10.7272 19.5414C10.4798 19.3516 10.3019 19.0854 10.2211 18.7842L6.70639 5.66732H4.95964C4.58391 5.66732 4.22358 5.51806 3.9579 5.25239C3.69222 4.98671 3.54297 4.62637 3.54297 4.25065C3.54297 3.87493 3.69222 3.51459 3.9579 3.24892C4.22358 2.98324 4.58391 2.83398 4.95964 2.83398L7.79297 2.8354C8.10481 2.83536 8.40795 2.93822 8.65538 3.12802C8.90281 3.31782 9.0807 3.58395 9.16147 3.88515L12.6762 17.0007H26.2096C27.3368 17.0007 28.4178 17.4484 29.2148 18.2454C30.0119 19.0425 30.4596 20.1235 30.4596 21.2507C30.4596 22.3778 30.0119 23.4588 29.2148 24.2559C28.4178 25.0529 27.3368 25.5007 26.2096 25.5007H7.79297C7.41725 25.5007 7.05691 25.3514 6.79123 25.0857C6.52556 24.82 6.3763 24.4597 6.3763 24.084C6.3763 23.7083 6.52556 23.3479 6.79123 23.0822C7.05691 22.8166 7.41725 22.6673 7.79297 22.6673H26.2096C26.5854 22.6673 26.9457 22.5181 27.2114 22.2524C27.477 21.9867 27.6263 21.6264 27.6263 21.2507C27.6263 20.8749 27.477 20.5146 27.2114 20.2489C26.9457 19.9832 26.5854 19.834 26.2096 19.834H11.5896Z" fill="#6563FF"/>
<path d="M12.6741 16.9993H26.2075C26.7444 17.0008 27.2742 17.1056 27.7715 17.3068L30.4093 7.4496C30.4656 7.23968 30.4728 7.01962 30.4305 6.80646C30.3881 6.59329 30.2972 6.39274 30.1649 6.22031C30.0326 6.04788 29.8624 5.9082 29.6675 5.81208C29.4726 5.71597 29.2581 5.66599 29.0408 5.66602H9.63672L12.6741 16.9993Z" fill="#D8D8FF"/>
</svg>
