<svg width="34" height="34" viewBox="0 0 34 34" fill="none" xmlns="http://www.w3.org/2000/svg">
<path d="M28.3346 7.08398H5.66797C4.54114 7.08511 3.46079 7.53324 2.66401 8.33002C1.86722 9.12681 1.41909 10.2072 1.41797 11.334V22.6673C1.41909 23.7941 1.86722 24.8745 2.66401 25.6713C3.46079 26.4681 4.54114 26.9162 5.66797 26.9173H28.3346C29.4615 26.9162 30.5418 26.4681 31.3386 25.6713C32.1354 24.8745 32.5835 23.7941 32.5846 22.6673V11.334C32.5835 10.2072 32.1354 9.12681 31.3386 8.33002C30.5418 7.53324 29.4615 7.08511 28.3346 7.08398ZM17.0013 21.2535C15.8734 21.2535 14.7917 20.8054 13.9941 20.0079C13.1965 19.2103 12.7485 18.1286 12.7485 17.0007C12.7485 15.8727 13.1965 14.791 13.9941 13.9934C14.7917 13.1959 15.8734 12.7478 17.0013 12.7478C18.1292 12.7478 19.2109 13.1959 20.0085 13.9934C20.8061 14.791 21.2541 15.8727 21.2541 17.0007C21.2541 18.1286 20.8061 19.2103 20.0085 20.0079C19.2109 20.8054 18.1292 21.2535 17.0013 21.2535Z" fill="#B2B1FF"/>
<path d="M8.4987 18.4173C9.2811 18.4173 9.91536 17.7831 9.91536 17.0007C9.91536 16.2182 9.2811 15.584 8.4987 15.584C7.71629 15.584 7.08203 16.2182 7.08203 17.0007C7.08203 17.7831 7.71629 18.4173 8.4987 18.4173Z" fill="#6563FF"/>
<path d="M25.4987 18.4173C26.2811 18.4173 26.9154 17.7831 26.9154 17.0007C26.9154 16.2182 26.2811 15.584 25.4987 15.584C24.7163 15.584 24.082 16.2182 24.082 17.0007C24.082 17.7831 24.7163 18.4173 25.4987 18.4173Z" fill="#6563FF"/>
<path d="M16.9989 21.2537C19.3477 21.2537 21.2518 19.3497 21.2518 17.0009C21.2518 14.6521 19.3477 12.748 16.9989 12.748C14.6502 12.748 12.7461 14.6521 12.7461 17.0009C12.7461 19.3497 14.6502 21.2537 16.9989 21.2537Z" fill="#D8D8FF"/>
</svg>
