<svg width="28" height="29" viewBox="0 0 28 29" fill="none" xmlns="http://www.w3.org/2000/svg">
<path d="M14.2522 27.1567C12.5548 27.1568 10.8747 26.8158 9.31167 26.1541C7.74861 25.4924 6.33442 24.5234 5.15304 23.3046C3.97167 22.0858 3.04719 20.6422 2.43448 19.0592C1.82177 17.4763 1.53331 15.7864 1.58624 14.0899C1.67427 11.27 2.70078 8.56006 4.50313 6.3895C6.30548 4.21895 8.78059 2.71189 11.5363 2.10711C14.292 1.50232 17.1708 1.8344 19.7164 3.05072C22.2621 4.26704 24.329 6.29804 25.5899 8.82195C25.8628 9.3737 26.0218 9.97476 26.0574 10.5893C26.093 11.2038 26.0045 11.8192 25.7972 12.3988C25.5987 12.9694 25.2856 13.4934 24.8771 13.9386C24.4686 14.3837 23.9734 14.7406 23.4219 14.9873C22.226 15.5212 21.2479 16.4468 20.6489 17.6114C20.0499 18.7761 19.8659 20.1101 20.1272 21.3934C20.2566 22.0197 20.2608 22.6655 20.1394 23.2935C20.018 23.9214 19.7734 24.5191 19.4199 25.0521C19.0912 25.5446 18.6668 25.9662 18.1721 26.2917C17.6774 26.6172 17.1224 26.84 16.54 26.9471C15.7853 27.0863 15.0196 27.1565 14.2522 27.1567Z" fill="#D8D8FF"/>
<path d="M14.2516 8.72582C14.8878 8.72582 15.4036 8.21006 15.4036 7.57385C15.4036 6.93763 14.8878 6.42188 14.2516 6.42188C13.6154 6.42188 13.0996 6.93763 13.0996 7.57385C13.0996 8.21006 13.6154 8.72582 14.2516 8.72582Z" fill="#6563FF"/>
<path d="M14.2535 15.636C14.8897 15.636 15.4055 15.1202 15.4055 14.484C15.4055 13.8478 14.8897 13.332 14.2535 13.332C13.6173 13.332 13.1016 13.8478 13.1016 14.484C13.1016 15.1202 13.6173 15.636 14.2535 15.636Z" fill="#6563FF"/>
<path d="M14.2535 22.5481C14.8897 22.5481 15.4055 22.0323 15.4055 21.3961C15.4055 20.7599 14.8897 20.2441 14.2535 20.2441C13.6173 20.2441 13.1016 20.7599 13.1016 21.3961C13.1016 22.0323 13.6173 22.5481 14.2535 22.5481Z" fill="#6563FF"/>
<path d="M7.33947 15.636C7.97569 15.636 8.49144 15.1202 8.49144 14.484C8.49144 13.8478 7.97569 13.332 7.33947 13.332C6.70325 13.332 6.1875 13.8478 6.1875 14.484C6.1875 15.1202 6.70325 15.636 7.33947 15.636Z" fill="#6563FF"/>
<path d="M9.36486 10.7493C10.0011 10.7493 10.5168 10.2335 10.5168 9.59728C10.5168 8.96107 10.0011 8.44531 9.36486 8.44531C8.72865 8.44531 8.21289 8.96107 8.21289 9.59728C8.21289 10.2335 8.72865 10.7493 9.36486 10.7493Z" fill="#6563FF"/>
<path d="M9.36486 20.5246C10.0011 20.5246 10.5168 20.0089 10.5168 19.3727C10.5168 18.7365 10.0011 18.2207 9.36486 18.2207C8.72865 18.2207 8.21289 18.7365 8.21289 19.3727C8.21289 20.0089 8.72865 20.5246 9.36486 20.5246Z" fill="#6563FF"/>
<path d="M19.1403 10.7493C19.7765 10.7493 20.2922 10.2335 20.2922 9.59728C20.2922 8.96107 19.7765 8.44531 19.1403 8.44531C18.504 8.44531 17.9883 8.96107 17.9883 9.59728C17.9883 10.2335 18.504 10.7493 19.1403 10.7493Z" fill="#6563FF"/>
</svg>
