<svg width="41" height="40" viewBox="0 0 41 40" fill="none" xmlns="http://www.w3.org/2000/svg">
<path d="M35.8613 36.6667C35.4422 36.6668 35.0385 36.5085 34.7313 36.2233L29.793 31.6667H15.8613C14.5357 31.6653 13.2647 31.1381 12.3273 30.2007C11.3899 29.2633 10.8627 27.9923 10.8613 26.6667V15C10.8627 13.6743 11.3899 12.4033 12.3273 11.4659C13.2647 10.5285 14.5357 10.0013 15.8613 10H32.528C33.8537 10.0013 35.1247 10.5285 36.0621 11.4659C36.9995 12.4033 37.5267 13.6743 37.528 15V35C37.528 35.442 37.3524 35.866 37.0398 36.1785C36.7273 36.4911 36.3034 36.6667 35.8613 36.6667Z" fill="#B2B1FF"/>
<path d="M12.5276 15.0059C12.0856 15.0059 11.6617 14.8303 11.3491 14.5177C11.0365 14.2051 10.8609 13.7812 10.8609 13.3392C10.8609 12.8972 11.0365 12.4732 11.3491 12.1607C11.6617 11.8481 12.0856 11.6725 12.5276 11.6725C12.9696 11.6725 13.3936 11.4969 13.7061 11.1844C14.0187 10.8718 14.1943 10.4479 14.1943 10.0059C14.1943 9.56383 14.0187 9.13991 13.7061 8.82735C13.3936 8.51479 12.9696 8.33919 12.5276 8.33919C12.2351 8.33954 11.9479 8.41669 11.6946 8.56294C11.4413 8.70919 11.2308 8.91939 11.0843 9.17253C10.9756 9.3636 10.8303 9.5313 10.6566 9.66597C10.4829 9.80064 10.2842 9.89962 10.0721 9.95721C9.85998 10.0148 9.63856 10.0299 9.42059 10.0015C9.20263 9.9732 8.99242 9.90203 8.80206 9.79213C8.61171 9.68223 8.44498 9.53576 8.31147 9.36116C8.17795 9.18656 8.08029 8.98727 8.02411 8.77477C7.96793 8.56227 7.95434 8.34076 7.98411 8.12298C8.01389 7.90521 8.08645 7.69548 8.19761 7.50586C8.63646 6.74576 9.26765 6.11457 10.0278 5.67572C10.7879 5.23688 11.6501 5.00585 12.5278 5.00586C13.4055 5.00586 14.2677 5.2369 15.0278 5.67576C15.7879 6.11461 16.4191 6.74581 16.8579 7.50591C17.2967 8.26602 17.5278 9.12825 17.5277 10.0059C17.5277 10.8836 17.2967 11.7458 16.8578 12.5059C16.419 13.266 15.7878 13.8972 15.0276 14.336C14.2675 14.7749 13.4053 15.0059 12.5276 15.0059ZM12.5276 19.9992C12.2 19.9978 11.88 19.9 11.6077 19.7178C11.3354 19.5356 11.1228 19.2772 10.9966 18.9749C10.8703 18.6725 10.836 18.3397 10.8978 18.018C10.9596 17.6962 11.1149 17.3998 11.3443 17.1659C11.6628 16.8611 12.0867 16.6909 12.5276 16.6909C12.9685 16.6909 13.3924 16.8611 13.7109 17.1659C14.0129 17.4802 14.1854 17.8967 14.1943 18.3325C14.2018 18.5567 14.1561 18.7794 14.0609 18.9825C13.9799 19.1813 13.8611 19.3624 13.7109 19.5159C13.5495 19.668 13.3635 19.792 13.1609 19.8825C12.9595 19.9626 12.7443 20.0023 12.5276 19.9992Z" fill="#6563FF"/>
</svg>
