<svg width="34" height="34" viewBox="0 0 34 34" fill="none" xmlns="http://www.w3.org/2000/svg">
<path d="M28.332 31.1673H5.66536C4.91392 31.1673 4.19325 30.8688 3.6619 30.3375C3.13054 29.8061 2.83203 29.0854 2.83203 28.334V5.66732C2.83203 4.91587 3.13054 4.1952 3.6619 3.66385C4.19325 3.1325 4.91392 2.83398 5.66536 2.83398H28.332C29.0835 2.83398 29.8041 3.1325 30.3355 3.66385C30.8669 4.1952 31.1654 4.91587 31.1654 5.66732V28.334C31.1654 29.0854 30.8669 29.8061 30.3355 30.3375C29.8041 30.8688 29.0835 31.1673 28.332 31.1673Z" fill="#B2B1FF"/>
<path d="M19.8333 25.1973H14.1667C13.7909 25.1973 13.4306 25.048 13.1649 24.7823C12.8993 24.5167 12.75 24.1563 12.75 23.7806V20.9473H9.91667C9.54094 20.9473 9.18061 20.798 8.91493 20.5323C8.64926 20.2667 8.5 19.9063 8.5 19.5306V13.8639C8.5 13.4882 8.64926 13.1279 8.91493 12.8622C9.18061 12.5965 9.54094 12.4473 9.91667 12.4473H12.75V9.61393C12.75 9.23821 12.8993 8.87787 13.1649 8.6122C13.4306 8.34652 13.7909 8.19727 14.1667 8.19727H19.8333C20.2091 8.19727 20.5694 8.34652 20.8351 8.6122C21.1007 8.87787 21.25 9.23821 21.25 9.61393V12.4473H24.0833C24.4591 12.4473 24.8194 12.5965 25.0851 12.8622C25.3507 13.1279 25.5 13.4882 25.5 13.8639V19.5306C25.5 19.9063 25.3507 20.2667 25.0851 20.5323C24.8194 20.798 24.4591 20.9473 24.0833 20.9473H21.25V23.7806C21.25 24.1563 21.1007 24.5167 20.8351 24.7823C20.5694 25.048 20.2091 25.1973 19.8333 25.1973Z" fill="#6563FF"/>
</svg>
