<svg width="34" height="34" viewBox="0 0 34 34" fill="none" xmlns="http://www.w3.org/2000/svg">
<path d="M21.2507 31.1669H12.7507V24.2507C12.7326 23.247 13.0612 22.2677 13.6811 21.478C14.301 20.6883 15.1742 20.1366 16.1535 19.9157C16.771 19.7915 17.4083 19.8057 18.0196 19.9575C18.6308 20.1093 19.2008 20.3948 19.6884 20.7935C20.176 21.1922 20.569 21.6941 20.8392 22.263C21.1093 22.832 21.2499 23.4538 21.2507 24.0836V31.1669Z" fill="#D8D8FF"/>
<path d="M26.918 14.166H7.08322C6.70774 14.1664 6.34777 14.3158 6.0824 14.5814C5.81703 14.8471 5.66797 15.2072 5.66797 15.5827V29.7508C5.66834 30.1262 5.81777 30.4862 6.0834 30.7516C6.34904 31.017 6.70916 31.166 7.08464 31.166H12.7513V24.2498C12.7332 23.2461 13.0618 22.2668 13.6817 21.4771C14.3016 20.6875 15.1748 20.1357 16.1541 19.9148C16.7716 19.7906 17.4089 19.8048 18.0202 19.9566C18.6314 20.1084 19.2014 20.3939 19.689 20.7926C20.1765 21.1913 20.5696 21.6932 20.8398 22.2621C21.1099 22.8311 21.2505 23.4529 21.2513 24.0827V31.166H26.9194C27.2949 31.1656 27.6548 31.0162 27.9202 30.7506C28.1856 30.4849 28.3346 30.1248 28.3346 29.7493V15.5813C28.3343 15.2058 28.1848 14.8458 27.9192 14.5804C27.6536 14.3151 27.2934 14.166 26.918 14.166Z" fill="#B2B1FF"/>
<path d="M29.7514 16.9991H4.25144C3.96433 16.9989 3.68407 16.9114 3.44779 16.7483C3.21151 16.5852 3.03037 16.3541 2.92836 16.0858C2.82636 15.8174 2.80831 15.5243 2.8766 15.2455C2.94489 14.9666 3.0963 14.7151 3.31077 14.5242L16.0608 3.19085C16.3196 2.95976 16.6545 2.83203 17.0014 2.83203C17.3484 2.83203 17.6833 2.95976 17.9421 3.19085L30.6921 14.5242C30.9066 14.7151 31.058 14.9666 31.1263 15.2455C31.1946 15.5243 31.1765 15.8174 31.0745 16.0858C30.9725 16.3541 30.7914 16.5852 30.5551 16.7483C30.3188 16.9114 30.0385 16.9989 29.7514 16.9991Z" fill="#6563FF"/>
</svg>
