<svg width="34" height="34" viewBox="0 0 34 34" fill="none" xmlns="http://www.w3.org/2000/svg">
<path d="M28.3346 11.334H5.66797C4.54114 11.3351 3.46079 11.7832 2.66401 12.58C1.86722 13.3768 1.41909 14.4572 1.41797 15.584V26.9173C1.41909 28.0441 1.86722 29.1245 2.66401 29.9213C3.46079 30.7181 4.54114 31.1662 5.66797 31.1673H28.3346C29.4615 31.1662 30.5418 30.7181 31.3386 29.9213C32.1354 29.1245 32.5835 28.0441 32.5846 26.9173V15.584C32.5835 14.4572 32.1354 13.3768 31.3386 12.58C30.5418 11.7832 29.4615 11.3351 28.3346 11.334ZM17.0013 25.5007C15.8741 25.5007 14.7931 25.0529 13.9961 24.2559C13.1991 23.4588 12.7513 22.3778 12.7513 21.2507C12.7513 20.1235 13.1991 19.0425 13.9961 18.2454C14.7931 17.4484 15.8741 17.0007 17.0013 17.0007C18.1285 17.0007 19.2095 17.4484 20.0065 18.2454C20.8035 19.0425 21.2513 20.1235 21.2513 21.2507C21.2513 22.3778 20.8035 23.4588 20.0065 24.2559C19.2095 25.0529 18.1285 25.5007 17.0013 25.5007Z" fill="#B2B1FF"/>
<path d="M16.9987 14.1673C16.623 14.1673 16.2626 14.0181 15.997 13.7524C15.7313 13.4867 15.582 13.1264 15.582 12.7507V4.25065C15.582 3.87493 15.7313 3.51459 15.997 3.24892C16.2626 2.98324 16.623 2.83398 16.9987 2.83398C17.3744 2.83398 17.7348 2.98324 18.0004 3.24892C18.2661 3.51459 18.4154 3.87493 18.4154 4.25065V12.7507C18.4154 13.1264 18.2661 13.4867 18.0004 13.7524C17.7348 14.0181 17.3744 14.1673 16.9987 14.1673Z" fill="#6563FF"/>
<path d="M20.1883 8.85452C20.0023 8.85471 19.818 8.81814 19.6461 8.7469C19.4742 8.67567 19.3181 8.57118 19.1867 8.43943L17.0008 6.25352L14.8149 8.43943C14.5477 8.69749 14.1899 8.84028 13.8184 8.83705C13.447 8.83383 13.0917 8.68484 12.829 8.42217C12.5663 8.15951 12.4173 7.8042 12.4141 7.43275C12.4109 7.0613 12.5537 6.70345 12.8117 6.43627L15.9992 3.24877C16.2649 2.98318 16.6252 2.83398 17.0008 2.83398C17.3765 2.83398 17.7367 2.98318 18.0024 3.24877L21.1899 6.43627C21.388 6.63439 21.5228 6.88679 21.5775 7.16155C21.6321 7.43632 21.6041 7.72112 21.4969 7.97994C21.3897 8.23877 21.2081 8.46 20.9752 8.61567C20.7423 8.77134 20.4685 8.85445 20.1883 8.85452Z" fill="#6563FF"/>
<path d="M17 25.5C15.8728 25.5 14.7918 25.0522 13.9948 24.2552C13.1978 23.4582 12.75 22.3772 12.75 21.25C12.75 20.1228 13.1978 19.0418 13.9948 18.2448C14.7918 17.4478 15.8728 17 17 17C18.1272 17 19.2082 17.4478 20.0052 18.2448C20.8022 19.0418 21.25 20.1228 21.25 21.25C21.25 22.3772 20.8022 23.4582 20.0052 24.2552C19.2082 25.0522 18.1272 25.5 17 25.5Z" fill="#D8D8FF"/>
<path d="M8.4987 22.6673C9.2811 22.6673 9.91536 22.0331 9.91536 21.2507C9.91536 20.4682 9.2811 19.834 8.4987 19.834C7.71629 19.834 7.08203 20.4682 7.08203 21.2507C7.08203 22.0331 7.71629 22.6673 8.4987 22.6673Z" fill="#6563FF"/>
<path d="M25.4987 22.6673C26.2811 22.6673 26.9154 22.0331 26.9154 21.2507C26.9154 20.4682 26.2811 19.834 25.4987 19.834C24.7163 19.834 24.082 20.4682 24.082 21.2507C24.082 22.0331 24.7163 22.6673 25.4987 22.6673Z" fill="#6563FF"/>
</svg>
