<svg width="29" height="29" viewBox="0 0 29 29" fill="none" xmlns="http://www.w3.org/2000/svg">
<path d="M13.1246 21.6124C8.66338 21.6124 5.04688 17.9959 5.04688 13.5347C5.04688 9.07353 8.66338 5.45703 13.1246 5.45703C17.5857 5.45703 21.2022 9.07353 21.2022 13.5347C21.1972 17.9938 17.5836 21.6074 13.1246 21.6124Z" fill="#D8D8FF"/>
<path d="M13.1239 3.15039C7.38805 3.15039 2.73828 7.80016 2.73828 13.536C2.73828 19.2718 7.38805 23.9216 13.1239 23.9216C18.857 23.9151 23.503 19.2691 23.5094 13.536C23.5094 7.80016 18.8597 3.15039 13.1239 3.15039ZM13.1239 21.6137C8.66271 21.6137 5.04619 17.9971 5.04619 13.536C5.04619 9.07482 8.66271 5.4583 13.1239 5.4583C17.585 5.4583 21.2015 9.07482 21.2015 13.536C21.1965 17.9951 17.583 21.6087 13.1239 21.6137Z" fill="#B2B1FF"/>
<path d="M25.4769 24.2574L21.2293 20.0098C20.7472 20.6125 20.2003 21.1593 19.5977 21.6415L23.8452 25.8891L23.8479 25.8919C24.2993 26.3417 25.0298 26.3405 25.4797 25.8891C25.9295 25.4378 25.9283 24.7072 25.4769 24.2574Z" fill="#6563FF"/>
</svg>
