<svg width="41" height="40" viewBox="0 0 41 40" fill="none" xmlns="http://www.w3.org/2000/svg">
<path d="M26.974 36.6673H13.6406C12.3149 36.666 11.0439 36.1388 10.1066 35.2014C9.16916 34.264 8.64195 32.993 8.64062 31.6673V8.33398C8.64195 7.00831 9.16916 5.73731 10.1066 4.79991C11.0439 3.86252 12.3149 3.33531 13.6406 3.33398H26.974C28.2996 3.33531 29.5706 3.86252 30.508 4.79991C31.4454 5.73731 31.9726 7.00831 31.974 8.33398V31.6673C31.9726 32.993 31.4454 34.264 30.508 35.2014C29.5706 36.1388 28.2996 36.666 26.974 36.6673Z" fill="#B2B1FF"/>
<path d="M20.3074 29.9998C20.033 30.0026 19.7621 29.9369 19.5195 29.8086C19.2768 29.6803 19.07 29.4935 18.9177 29.2652C18.7655 29.0368 18.6726 28.774 18.6475 28.5007C18.6224 28.2274 18.6659 27.9521 18.7741 27.6998C18.8585 27.4978 18.9768 27.3118 19.1241 27.1498C19.3207 26.9563 19.5618 26.814 19.8263 26.7356C20.0907 26.6571 20.3704 26.6448 20.6408 26.6998C20.7451 26.7184 20.8462 26.7521 20.9408 26.7998C21.0471 26.8359 21.1481 26.8864 21.2408 26.9498L21.4908 27.1498C21.6413 27.3093 21.76 27.4959 21.8408 27.6998C21.9706 28.0029 22.0067 28.338 21.9443 28.6618C21.8819 28.9856 21.724 29.2833 21.4908 29.5165C21.3251 29.6633 21.14 29.7867 20.9408 29.8832C20.7394 29.9633 20.5241 30.0029 20.3074 29.9998Z" fill="#6563FF"/>
</svg>
