<svg width="34" height="34" viewBox="0 0 34 34" fill="none" xmlns="http://www.w3.org/2000/svg">
<path d="M26.9154 24.0833H7.08203C5.95521 24.0822 4.87486 23.6341 4.07807 22.8373C3.28128 22.0405 2.83316 20.9602 2.83203 19.8333V8.5C2.83316 7.37318 3.28128 6.29282 4.07807 5.49604C4.87486 4.69925 5.95521 4.25113 7.08203 4.25H26.9154C28.0422 4.25113 29.1225 4.69925 29.9193 5.49604C30.7161 6.29282 31.1642 7.37318 31.1654 8.5V19.8333C31.1642 20.9602 30.7161 22.0405 29.9193 22.8373C29.1225 23.6341 28.0422 24.0822 26.9154 24.0833Z" fill="#B2B1FF"/>
<path d="M24.0833 26.9173H18.4167V24.084H15.5833V26.9173H9.91667C9.54094 26.9173 9.18061 27.0666 8.91493 27.3322C8.64926 27.5979 8.5 27.9583 8.5 28.334C8.5 28.7097 8.64926 29.07 8.91493 29.3357C9.18061 29.6014 9.54094 29.7507 9.91667 29.7507H24.0833C24.4591 29.7507 24.8194 29.6014 25.0851 29.3357C25.3507 29.07 25.5 28.7097 25.5 28.334C25.5 27.9583 25.3507 27.5979 25.0851 27.3322C24.8194 27.0666 24.4591 26.9173 24.0833 26.9173Z" fill="#6563FF"/>
</svg>
