<svg width="29" height="29" viewBox="0 0 29 29" fill="none" xmlns="http://www.w3.org/2000/svg">
<path d="M24.6632 21.5007C24.6632 21.7429 24.587 21.979 24.4453 22.1755C24.3037 22.3719 24.1039 22.5189 23.8741 22.5955C23.6444 22.672 23.3963 22.6744 23.1651 22.6022C22.934 22.53 22.7314 22.3869 22.5861 22.1931C21.6159 20.9062 20.361 19.8614 18.9195 19.1406C17.478 18.4199 15.8892 18.0428 14.2776 18.0389H9.66177C9.35592 18.0389 9.06258 17.9174 8.84621 17.7013C8.62983 17.4851 8.50812 17.1919 8.50781 16.8861V9.96118C8.50781 9.65533 8.62923 9.362 8.84539 9.14562C9.06155 8.92925 9.35476 8.80753 9.66061 8.80723H14.2776C15.8892 8.80331 17.478 8.4262 18.9195 7.70546C20.361 6.98472 21.6159 5.93994 22.5861 4.65299C22.7312 4.45947 22.9335 4.31646 23.1643 4.24416C23.3952 4.17185 23.6429 4.17393 23.8725 4.25008C24.1021 4.32623 24.302 4.47261 24.4438 4.66853C24.5857 4.86445 24.6624 5.10001 24.6632 5.34191V21.5007Z" fill="#B2B1FF"/>
<path d="M10.8143 18.0385H7.35249C6.43434 18.0385 5.55381 17.6738 4.90458 17.0246C4.25536 16.3753 3.89063 15.4948 3.89062 14.5766V12.2687C3.89063 11.3506 4.25536 10.4701 4.90458 9.82083C5.55381 9.17161 6.43434 8.80688 7.35249 8.80688H10.8143V18.0385ZM23.5078 23.8083C23.202 23.8083 22.9087 23.6869 22.6923 23.4707C22.4759 23.2545 22.3542 22.9613 22.3539 22.6555V4.19106C22.3539 3.88502 22.4755 3.5915 22.6919 3.37509C22.9083 3.15869 23.2018 3.03711 23.5078 3.03711C23.8139 3.03711 24.1074 3.15869 24.3238 3.37509C24.5402 3.5915 24.6618 3.88502 24.6618 4.19106V22.6543C24.6618 22.9602 24.5404 23.2535 24.3242 23.4699C24.1081 23.6863 23.8137 23.808 23.5078 23.8083Z" fill="#6563FF"/>
<path d="M10.8138 18.0391H7.91042L5.13631 24.5081C5.06104 24.6837 5.03054 24.8753 5.04756 25.0656C5.06457 25.2559 5.12857 25.439 5.23381 25.5984C5.33905 25.7579 5.48223 25.8887 5.65051 25.9792C5.81879 26.0696 6.00689 26.1169 6.19795 26.1167H10.8138C11.2753 26.1167 11.6931 25.8421 11.8742 25.4174L15.0165 18.0841C14.7707 18.0656 14.5249 18.0402 14.2756 18.0391H10.8138Z" fill="#D8D8FF"/>
</svg>
