<svg width="28" height="29" viewBox="0 0 28 29" fill="none" xmlns="http://www.w3.org/2000/svg">
<path d="M13.8488 12.2685C9.2607 12.2685 4.61719 10.683 4.61719 7.6527V14.5764C4.61719 17.6067 9.2607 19.1922 13.8488 19.1922C18.4369 19.1922 23.0804 17.6067 23.0804 14.5764V7.6527C23.0804 10.683 18.4369 12.2685 13.8488 12.2685Z" fill="#D8D8FF"/>
<path d="M13.8469 19.192C9.25874 19.192 4.61523 17.6065 4.61523 14.5762V21.4999C4.61523 24.5302 9.25874 26.1157 13.8469 26.1157C18.435 26.1157 23.0785 24.5302 23.0785 21.4999V14.5762C23.0785 17.6065 18.435 19.192 13.8469 19.192Z" fill="#B2B1FF"/>
<path d="M9.23208 23.2298C9.86939 23.2298 10.386 22.7131 10.386 22.0758C10.386 21.4385 9.86939 20.9219 9.23208 20.9219C8.59477 20.9219 8.07812 21.4385 8.07812 22.0758C8.07812 22.7131 8.59477 23.2298 9.23208 23.2298Z" fill="#6563FF"/>
<path d="M9.23208 16.306C9.86939 16.306 10.386 15.7893 10.386 15.152C10.386 14.5147 9.86939 13.998 9.23208 13.998C8.59477 13.998 8.07812 14.5147 8.07812 15.152C8.07812 15.7893 8.59477 16.306 9.23208 16.306Z" fill="#6563FF"/>
<path d="M13.8488 12.2687C9.2607 12.2687 4.61719 10.6832 4.61719 7.65292C4.61719 4.62264 9.2607 3.03711 13.8488 3.03711C18.4369 3.03711 23.0804 4.62264 23.0804 7.65292C23.0804 10.6832 18.4369 12.2687 13.8488 12.2687Z" fill="#B2B1FF"/>
</svg>
