<svg width="29" height="29" viewBox="0 0 29 29" fill="none" xmlns="http://www.w3.org/2000/svg">
<path d="M14.8978 26.0043C14.5923 26.0042 14.2994 25.8828 14.0834 25.6667L3.4864 15.0582C3.055 14.6264 2.81263 14.0409 2.8125 13.4305V7.46329C2.81241 7.16056 2.87199 6.86079 2.98782 6.58109C3.10365 6.3014 3.27346 6.04728 3.48756 5.83325L5.68091 3.6399C5.89494 3.42581 6.14906 3.25599 6.42875 3.14016C6.70844 3.02433 7.00822 2.96476 7.31095 2.96484H13.7562C13.9146 2.9649 14.0712 2.99767 14.2163 3.0611C14.3614 3.12454 14.4919 3.21727 14.5995 3.33347L25.5144 14.2357C25.7304 14.4518 25.8517 14.7447 25.8517 15.0502C25.8517 15.3556 25.7304 15.6486 25.5144 15.8646L15.7123 25.6667C15.4963 25.8828 15.2033 26.0042 14.8978 26.0043Z" fill="#B2B1FF"/>
<path d="M8.57189 9.87621C9.20811 9.87621 9.72386 9.36045 9.72386 8.72424C9.72386 8.08802 9.20811 7.57227 8.57189 7.57227C7.93568 7.57227 7.41992 8.08802 7.41992 8.72424C7.41992 9.36045 7.93568 9.87621 8.57189 9.87621Z" fill="#6563FF"/>
</svg>
