<svg width="34" height="34" viewBox="0 0 34 34" fill="none" xmlns="http://www.w3.org/2000/svg">
<path d="M25.9344 17.3125C24.6489 18.4723 22.9809 19.1174 21.2495 19.1244C20.8642 19.1244 20.4888 19.089 20.1218 19.0281C20.0836 18.9941 20.0382 18.97 20 18.936C21.2775 19.9949 22.3058 21.3226 23.0115 22.8244C23.7172 24.3261 24.083 25.9651 24.0828 27.6244C24.0828 28.0001 23.9336 28.3605 23.6679 28.6262C23.4022 28.8918 23.0419 29.0411 22.6662 29.0411H31.1662C31.5419 29.0411 31.9022 28.8918 32.1679 28.6262C32.4336 28.3605 32.5828 28.0001 32.5828 27.6244C32.5822 25.4486 31.9549 23.319 30.7759 21.4903C29.5968 19.6615 27.916 18.2111 25.9344 17.3125Z" fill="#6563FF"/>
<path d="M12.7513 19.1257C10.8727 19.1257 9.07101 18.3794 7.74263 17.051C6.41425 15.7226 5.66797 13.9209 5.66797 12.0423C5.66797 10.1637 6.41425 8.36203 7.74263 7.03364C9.07101 5.70526 10.8727 4.95898 12.7513 4.95898C14.6299 4.95898 16.4316 5.70526 17.76 7.03364C19.0884 8.36203 19.8346 10.1637 19.8346 12.0423C19.8346 13.9209 19.0884 15.7226 17.76 17.051C16.4316 18.3794 14.6299 19.1257 12.7513 19.1257Z" fill="#D8D8FF"/>
<path d="M12.7513 19.1257C10.8727 19.1257 9.07101 18.3794 7.74263 17.051C6.41425 15.7226 5.66797 13.9209 5.66797 12.0423C5.66797 10.1637 6.41425 8.36203 7.74263 7.03364C9.07101 5.70526 10.8727 4.95898 12.7513 4.95898C14.6299 4.95898 16.4316 5.70526 17.76 7.03364C19.0884 8.36203 19.8346 10.1637 19.8346 12.0423C19.8346 13.9209 19.0884 15.7226 17.76 17.051C16.4316 18.3794 14.6299 19.1257 12.7513 19.1257Z" fill="#D8D8FF"/>
<path d="M17.4362 17.3125C16.1507 18.4723 14.4827 19.1174 12.7513 19.1244C11.0192 19.1198 9.34974 18.4755 8.06355 17.3153C6.08292 18.2142 4.40299 19.6643 3.22452 21.4925C2.04605 23.3206 1.41888 25.4494 1.41797 27.6244C1.41797 28.0001 1.56722 28.3605 1.8329 28.6262C2.09858 28.8918 2.45891 29.0411 2.83464 29.0411H22.668C23.0437 29.0411 23.404 28.8918 23.6697 28.6262C23.9354 28.3605 24.0846 28.0001 24.0846 27.6244C24.084 25.4486 23.4567 23.319 22.2777 21.4903C21.0986 19.6615 19.4178 18.2111 17.4362 17.3125Z" fill="#B2B1FF"/>
<path d="M21.25 4.95898C19.6492 4.95898 18.1872 5.51148 17 6.40823C17.4926 6.78207 17.9341 7.21881 18.3133 7.70732C18.6441 8.12495 18.9264 8.57883 19.1547 9.06023C19.2142 9.18915 19.2752 9.31665 19.3276 9.44982C19.465 9.79123 19.5755 10.144 19.6577 10.5123C19.6761 10.5973 19.6888 10.6866 19.7058 10.7744C19.7809 11.1852 19.8333 11.6074 19.8333 12.0423C19.8333 12.4886 19.7823 12.9207 19.7016 13.3414C19.6888 13.4037 19.6832 13.4689 19.669 13.5298C19.589 13.882 19.4815 14.2273 19.3474 14.5626C19.2964 14.6957 19.2468 14.8289 19.1873 14.9592C19.0683 15.2142 18.9323 15.4579 18.7864 15.6959C18.4181 16.3037 17.9633 16.8434 17.4335 17.3152C18.4124 17.76 19.3177 18.3366 20.1223 19.0293C20.4907 19.0902 20.8647 19.1257 21.25 19.1257C23.1286 19.1257 24.9303 18.3794 26.2587 17.051C27.5871 15.7226 28.3333 13.9209 28.3333 12.0423C28.3333 10.1637 27.5871 8.36203 26.2587 7.03364C24.9303 5.70526 23.1286 4.95898 21.25 4.95898Z" fill="#8C8AFF"/>
</svg>
