<svg width="30" height="30" viewBox="0 0 30 30" fill="none" xmlns="http://www.w3.org/2000/svg">
<path d="M5.875 27.5C5.5 27.5 5.25 27.375 5 27.125L2.875 25C2.625 24.75 2.5 24.25 2.5 23.875L5.5 9.37505C5.625 8.87505 6 8.50004 6.5 8.37504L15.125 7.00005C15.5 6.87505 15.875 7.12505 16.25 7.37505L22.75 13.875C23 14.125 23.125 14.625 23.125 15L21.75 23.625C21.625 24.125 21.25 24.5 20.75 24.625L6.125 27.5H5.875Z" fill="#B2B1FF"/>
<path d="M27.125 11.625L18.375 2.875C17.875 2.375 17.125 2.375 16.625 2.875C16.5 3 16.5 3.125 16.375 3.25L14.5 7.125L15.125 7C15.5 6.875 15.875 7.125 16.25 7.375L22.75 13.875C23 14.125 23.125 14.625 23.125 15L23 15.625L26.875 13.75C27.5 13.5 27.75 12.75 27.5 12.125C27.375 11.875 27.25 11.75 27.125 11.625ZM16 14C14.5 12.5 12.125 12.5 10.75 14C9.625 15.125 9.375 16.875 10 18.25L3.125 25.125L4.875 26.875L11.75 20C13.625 20.875 15.875 20.125 16.75 18.25C17.375 16.875 17.125 15.125 16 14Z" fill="#6563FF"/>
</svg>
