<svg width="30" height="30" viewBox="0 0 30 30" fill="none" xmlns="http://www.w3.org/2000/svg">
<path d="M25 28.75H5C4.00574 28.749 3.05249 28.3536 2.34945 27.6506C1.6464 26.9475 1.25099 25.9943 1.25 25V5C1.25099 4.00574 1.6464 3.05249 2.34945 2.34945C3.05249 1.6464 4.00574 1.25099 5 1.25H25C25.9943 1.25099 26.9475 1.6464 27.6506 2.34945C28.3536 3.05249 28.749 4.00574 28.75 5V25C28.749 25.9943 28.3536 26.9475 27.6506 27.6506C26.9475 28.3536 25.9943 28.749 25 28.75Z" fill="#B2B1FF"/>
<path d="M10 6.25C10.6904 6.25 11.25 5.69036 11.25 5C11.25 4.30964 10.6904 3.75 10 3.75C9.30964 3.75 8.75 4.30964 8.75 5C8.75 5.69036 9.30964 6.25 10 6.25Z" fill="#B2B1FF"/>
<path d="M5 6.25C5.69036 6.25 6.25 5.69036 6.25 5C6.25 4.30964 5.69036 3.75 5 3.75C4.30964 3.75 3.75 4.30964 3.75 5C3.75 5.69036 4.30964 6.25 5 6.25Z" fill="#B2B1FF"/>
<path d="M15 6.25C15.6904 6.25 16.25 5.69036 16.25 5C16.25 4.30964 15.6904 3.75 15 3.75C14.3096 3.75 13.75 4.30964 13.75 5C13.75 5.69036 14.3096 6.25 15 6.25Z" fill="#B2B1FF"/>
<path d="M25 1.25H5C4.00544 1.25 3.05161 1.64509 2.34835 2.34835C1.64509 3.05161 1.25 4.00544 1.25 5V8.75H28.75V5C28.75 4.00544 28.3549 3.05161 27.6517 2.34835C26.9484 1.64509 25.9946 1.25 25 1.25ZM5 6.25C4.66848 6.25 4.35054 6.1183 4.11612 5.88388C3.8817 5.64946 3.75 5.33152 3.75 5C3.75 4.66848 3.8817 4.35054 4.11612 4.11612C4.35054 3.8817 4.66848 3.75 5 3.75C5.33152 3.75 5.64946 3.8817 5.88388 4.11612C6.1183 4.35054 6.25 4.66848 6.25 5C6.25 5.33152 6.1183 5.64946 5.88388 5.88388C5.64946 6.1183 5.33152 6.25 5 6.25ZM10 6.25C9.66848 6.25 9.35054 6.1183 9.11612 5.88388C8.8817 5.64946 8.75 5.33152 8.75 5C8.75 4.66848 8.8817 4.35054 9.11612 4.11612C9.35054 3.8817 9.66848 3.75 10 3.75C10.3315 3.75 10.6495 3.8817 10.8839 4.11612C11.1183 4.35054 11.25 4.66848 11.25 5C11.25 5.33152 11.1183 5.64946 10.8839 5.88388C10.6495 6.1183 10.3315 6.25 10 6.25ZM15 6.25C14.6685 6.25 14.3505 6.1183 14.1161 5.88388C13.8817 5.64946 13.75 5.33152 13.75 5C13.75 4.66848 13.8817 4.35054 14.1161 4.11612C14.3505 3.8817 14.6685 3.75 15 3.75C15.3315 3.75 15.6495 3.8817 15.8839 4.11612C16.1183 4.35054 16.25 4.66848 16.25 5C16.25 5.33152 16.1183 5.64946 15.8839 5.88388C15.6495 6.1183 15.3315 6.25 15 6.25Z" fill="#6563FF"/>
</svg>
