<svg width="34" height="34" viewBox="0 0 34 34" fill="none" xmlns="http://www.w3.org/2000/svg">
<path d="M31.1673 8.50065H2.83398V4.25065C2.83398 3.46825 3.46825 2.83398 4.25065 2.83398H29.7507C30.533 2.83398 31.1673 3.46825 31.1673 4.25065V8.50065Z" fill="#6563FF"/>
<path d="M15.584 11.334H2.83398V19.834H15.584V11.334Z" fill="#B2B1FF"/>
<path d="M2.83398 22.666H15.584V31.166H4.25065C3.46825 31.166 2.83398 30.5317 2.83398 29.7493V22.666Z" fill="#B2B1FF"/>
<path d="M31.166 11.334H18.416V19.834H31.166V11.334Z" fill="#B2B1FF"/>
<path d="M29.7493 31.166H18.416V22.666H31.166V29.7493C31.166 30.5317 30.5317 31.166 29.7493 31.166Z" fill="#B2B1FF"/>
<path d="M31.1663 11.3333V8.5H2.83301V11.3333H15.583V19.8333H2.83301V22.6667H15.583V31.1667H18.4163V22.6667H31.1663V19.8333H18.4163V11.3333H31.1663Z" fill="#D8D8FF"/>
</svg>
