<?xml version="1.0" standalone="no"?>
<!DOCTYPE svg PUBLIC "-//W3C//DTD SVG 20010904//EN"
 "http://www.w3.org/TR/2001/REC-SVG-20010904/DTD/svg10.dtd">
<svg version="1.0" xmlns="http://www.w3.org/2000/svg"
 width="1948.000000pt" height="1160.000000pt" viewBox="0 0 1948.000000 1160.000000"
 preserveAspectRatio="xMidYMid meet">

<g transform="translate(0.000000,1160.000000) scale(0.100000,-0.100000)"
fill="#000000" stroke="none">
<path d="M468 11590 c-171 -29 -332 -149 -407 -302 -66 -133 -61 322 -61
-5488 0 -5817 -5 -5354 62 -5490 43 -88 160 -205 248 -248 136 -67 -199 -62
4211 -60 l4003 3 -245 64 c-134 35 -265 68 -291 74 -30 6 -48 15 -48 24 0 13
43 196 134 573 48 197 222 885 256 1010 11 41 40 155 64 253 24 98 47 181 50
185 4 3 37 -2 74 -11 161 -40 669 -172 912 -237 431 -116 812 -214 1387 -359
l542 -137 20 56 c11 30 45 123 75 205 80 219 181 502 231 645 24 69 66 185 94
259 l50 133 -249 -7 -248 -7 -6 83 c-3 46 -10 163 -16 259 -6 96 -15 243 -20
325 -6 83 -17 332 -25 555 -8 223 -18 451 -21 506 l-7 102 164 6 c90 3 416 13
724 21 1813 48 2429 66 2970 87 l50 2 6 -124 c4 -69 9 -235 13 -370 4 -135 11
-387 17 -560 20 -609 24 -752 19 -755 -3 -2 -131 -8 -285 -14 -154 -6 -392
-16 -530 -21 -464 -18 -798 -30 -1295 -45 -272 -9 -515 -17 -540 -18 -49 -2
-17 -15 510 -197 107 -37 314 -111 460 -165 379 -138 669 -241 1030 -367 173
-60 360 -125 415 -145 55 -20 159 -55 230 -79 230 -75 759 -265 948 -339 9 -4
17 -13 17 -21 0 -15 -43 -142 -165 -483 -42 -117 -75 -217 -73 -221 3 -8 210
75 728 292 118 49 294 120 390 158 96 38 299 119 450 180 151 62 319 129 374
150 67 26 93 40 80 43 -11 3 -120 33 -244 67 -124 34 -270 74 -325 90 -55 16
-239 67 -410 114 -358 98 -741 204 -1105 306 -140 39 -308 85 -372 102 -82 22
-118 36 -118 46 0 23 162 615 222 812 41 135 96 332 227 805 79 284 112 399
121 408 14 15 280 -56 1525 -408 220 -62 508 -143 640 -180 132 -37 380 -107
550 -155 315 -90 538 -152 700 -196 50 -14 98 -27 108 -30 16 -5 17 33 17 713
l0 718 -122 -7 c-68 -4 -249 -14 -403 -23 -154 -9 -419 -24 -590 -35 -170 -10
-395 -21 -500 -25 -185 -6 -780 -28 -1097 -41 -132 -5 -158 -4 -158 8 0 8 -4
72 -10 144 -5 71 -14 203 -20 294 -5 91 -19 300 -30 465 -11 165 -29 444 -40
620 -10 176 -27 427 -35 559 -9 131 -15 240 -13 241 11 11 524 48 908 65 245
12 549 27 675 35 354 22 727 43 865 50 173 8 432 24 508 31 l62 6 -2 1991 -3
1992 -26 66 c-38 98 -74 154 -141 219 -71 70 -174 126 -265 145 -58 13 -574
15 -3599 15 l-3532 0 123 -292 c68 -161 160 -378 205 -483 45 -104 97 -228
117 -275 19 -47 61 -146 93 -220 32 -74 111 -259 176 -410 189 -443 202 -474
199 -481 -2 -3 -80 -38 -172 -77 -827 -352 -1752 -754 -2463 -1070 -74 -33
-145 -63 -158 -66 -12 -4 -22 -10 -22 -14 0 -4 57 -17 126 -29 69 -12 128 -24
131 -27 3 -2 -9 -76 -26 -163 -17 -87 -47 -248 -66 -358 -20 -110 -58 -310
-85 -445 -26 -135 -56 -288 -65 -340 -20 -110 -150 -741 -219 -1069 -8 -36
-36 -165 -61 -286 -26 -121 -55 -258 -64 -305 -14 -70 -21 -86 -37 -88 -17 -2
-115 17 -669 132 -169 35 -618 123 -1185 232 -374 72 -843 164 -1030 203 -242
50 -899 177 -1173 228 l-259 47 4 35 c5 37 91 494 178 936 27 138 63 327 80
420 17 94 44 238 60 320 16 83 53 276 81 430 28 154 60 323 70 375 10 52 37
199 60 325 23 127 46 233 51 236 4 3 115 -17 246 -43 661 -136 766 -157 769
-154 7 6 -55 149 -239 551 -33 72 -66 144 -73 160 -7 17 -43 94 -79 173 -36
78 -66 146 -66 150 0 4 19 15 43 24 23 9 137 58 252 108 320 140 494 215 675
292 91 38 203 87 250 108 47 21 139 62 205 90 66 29 190 83 275 120 237 103
519 226 680 295 80 35 219 96 310 135 228 100 534 233 660 287 58 25 170 74
248 110 79 35 165 72 190 83 26 10 81 34 122 54 l75 35 -4970 -1 c-2733 0
-4991 -4 -5017 -8z m3886 -1040 c122 -184 249 -377 282 -427 32 -51 126 -192
208 -313 143 -211 149 -221 130 -235 -10 -8 -89 -63 -174 -122 -85 -60 -197
-138 -250 -175 -122 -86 -767 -517 -1015 -679 -159 -103 -594 -400 -818 -558
-31 -23 -236 -162 -455 -310 -218 -147 -455 -309 -527 -360 -179 -127 -440
-301 -451 -301 -6 0 -47 53 -93 118 -45 64 -136 194 -202 287 -66 94 -147 208
-180 255 -80 116 -198 284 -295 421 -158 224 -174 247 -174 252 0 4 111 80
248 171 242 161 309 206 842 576 146 101 427 293 625 426 198 132 470 316 605
407 135 91 407 275 605 408 198 134 378 256 400 271 22 16 123 87 225 158
l185 129 28 -32 c16 -18 128 -183 251 -367z m12091 5 c-16 -14 -29 -32 -27
-41 2 -8 -16 -32 -39 -52 -47 -42 -89 -59 -89 -36 0 8 7 14 16 14 8 0 12 5 9
11 -4 6 1 16 11 23 10 8 15 20 11 30 -5 11 -1 16 14 16 25 0 54 15 80 41 10
10 25 19 32 19 6 -1 -1 -12 -18 -25z m-151 1 c-7 -18 -54 -50 -54 -37 0 12 40
51 52 51 4 0 5 -6 2 -14z m-154 -51 c-7 -8 -17 -15 -22 -15 -6 0 -5 7 2 15 7
8 17 15 22 15 6 0 5 -7 -2 -15z m345 -25 c-10 -11 -20 -18 -23 -16 -5 6 21 35
32 36 5 0 1 -9 -9 -20z m-365 -4 c0 -2 -8 -10 -17 -17 -16 -13 -17 -12 -4 4
13 16 21 21 21 13z m160 -197 c-7 -16 -17 -29 -22 -29 -7 0 -7 4 -1 13 6 6 13
21 17 31 5 16 4 17 -9 6 -12 -10 -15 -10 -15 1 -1 10 -4 9 -14 -3 -16 -22 -26
-23 -26 -3 0 13 34 39 52 40 3 0 10 4 15 8 13 14 16 -33 3 -64z m-295 42 c-3
-6 -11 -11 -17 -11 -6 0 -6 6 2 15 14 17 26 13 15 -4z m28 -76 c-20 -25 -41
-45 -45 -45 -4 0 -28 -18 -53 -40 -25 -22 -52 -40 -58 -40 -14 0 77 84 113
104 14 8 35 26 47 40 13 14 25 26 28 26 3 0 -11 -20 -32 -45z m184 -12 c-4 -3
1 -15 10 -25 15 -17 15 -20 0 -35 -13 -13 -19 -14 -31 -4 -12 10 -16 9 -25 -6
-7 -13 -13 -15 -21 -7 -9 9 -3 21 20 48 18 20 37 36 43 36 6 0 7 -3 4 -7z
m-197 -160 c0 -5 -12 -21 -26 -38 -14 -16 -23 -25 -20 -18 4 6 0 14 -6 17 -9
3 -6 11 11 25 24 21 41 27 41 14z m-261 -164 c-11 -7 -10 -9 4 -9 9 0 17 -5
17 -11 0 -6 -6 -9 -13 -6 -7 2 -23 -4 -36 -14 -21 -17 -20 -23 0 -21 4 1 5 -8
2 -18 -3 -11 -10 -20 -15 -20 -6 0 -7 7 -4 16 5 14 4 15 -9 4 -20 -16 -19 -5
2 33 26 47 44 67 55 61 6 -4 5 -10 -3 -15z m160 4 l21 -18 -31 -34 c-30 -34
-30 -35 -25 -9 4 25 3 26 -20 18 l-24 -9 23 34 c26 40 28 41 56 18z m-149 -73
c0 -5 -5 -10 -11 -10 -5 0 -7 5 -4 10 3 6 8 10 11 10 2 0 4 -4 4 -10z m60 1
c0 -12 -20 -25 -27 -18 -7 7 6 27 18 27 5 0 9 -4 9 -9z m-120 -52 c0 -9 -40
-49 -50 -49 -5 0 -11 -8 -14 -17 -9 -29 -70 -91 -84 -86 -17 6 -42 -15 -42
-36 0 -9 -25 -39 -57 -68 -32 -28 -54 -55 -50 -59 4 -5 18 5 31 21 13 16 28
25 34 21 18 -11 -15 -56 -35 -49 -11 4 -14 2 -9 -6 5 -7 2 -10 -6 -9 -8 2 -12
-5 -11 -17 1 -19 1 -19 -16 1 -14 17 -21 20 -35 12 -15 -8 -17 -7 -10 5 14 24
75 93 131 148 28 28 54 62 57 75 4 13 11 24 16 24 14 0 12 -17 -2 -23 -10 -4
-10 -6 -1 -6 7 -1 17 8 23 19 6 11 15 18 21 15 5 -4 9 -2 9 4 0 5 -6 12 -12
14 -18 8 11 27 29 20 9 -3 11 0 7 10 -3 8 0 18 7 23 7 4 14 3 17 -4 4 -13 32
-4 32 10 0 6 -7 8 -15 4 -17 -6 -18 -4 -9 18 5 12 9 13 25 3 10 -6 19 -14 19
-18z m-170 1 c-6 -11 -13 -20 -16 -20 -2 0 0 9 6 20 6 11 13 20 16 20 2 0 0
-9 -6 -20z m358 -19 c-13 -17 -27 -30 -31 -30 -5 -1 2 12 15 28 13 17 27 30
31 30 5 1 -2 -12 -15 -28z m-278 -1 c0 -5 -2 -10 -4 -10 -3 0 -8 5 -11 10 -3
6 -1 10 4 10 6 0 11 -4 11 -10z m140 -11 c0 -5 -11 -9 -25 -9 -13 0 -29 -8
-34 -17 -6 -10 -11 -13 -11 -6 0 6 12 21 26 32 25 20 44 20 44 0z m-170 1 c0
-5 -5 -10 -11 -10 -5 0 -7 5 -4 10 3 6 8 10 11 10 2 0 4 -4 4 -10z m-100 -44
c-16 -24 -36 -49 -45 -56 -8 -7 -15 -20 -15 -29 0 -14 -2 -14 -10 -1 -5 8 -10
11 -10 5 0 -5 -16 -27 -34 -49 -31 -34 -33 -40 -20 -53 16 -17 16 -16 8 -37
-3 -9 -10 -16 -16 -16 -5 0 -6 5 -3 10 10 16 -14 40 -32 33 -9 -4 -14 -2 -12
4 8 21 204 233 216 233 1 0 -11 -20 -27 -44z m270 14 c0 -5 -5 -10 -11 -10 -5
0 -7 5 -4 10 3 6 8 10 11 10 2 0 4 -4 4 -10z m-10 -29 c0 -5 -7 -11 -15 -15
-15 -5 -20 5 -8 17 9 10 23 9 23 -2z m-230 -21 c0 -5 -9 -14 -20 -20 -15 -8
-20 -8 -20 3 0 8 3 17 7 20 10 10 33 8 33 -3z m-135 -140 c3 -5 1 -10 -4 -10
-6 0 -11 5 -11 10 0 6 2 10 4 10 3 0 8 -4 11 -10z m202 -42 c-3 -8 -6 -5 -6 6
-1 11 2 17 5 13 3 -3 4 -12 1 -19z m-317 -52 c0 -2 -8 -10 -17 -17 -16 -13
-17 -12 -4 4 13 16 21 21 21 13z m-43 -57 c-7 -10 -25 -28 -40 -39 -15 -12
-27 -28 -27 -36 0 -8 -4 -13 -10 -9 -14 8 9 52 37 70 12 9 23 22 23 30 0 9 6
12 15 9 12 -5 13 -9 2 -25z m173 17 c0 -2 -8 -10 -17 -17 -16 -13 -17 -12 -4
4 13 16 21 21 21 13z m-30 -62 c0 -8 -7 -14 -15 -14 -8 0 -15 -4 -15 -10 0 -5
-5 -10 -10 -10 -6 0 -4 13 5 30 16 30 35 32 35 4z m60 -35 c0 -10 -30 -33 -45
-35 -11 -2 -11 3 -3 21 9 21 48 32 48 14z m-196 -13 c-6 -15 -34 -31 -34 -19
0 5 30 32 37 33 1 0 0 -6 -3 -14z m30 -21 c-18 -13 -18 -14 2 -9 25 7 41 -11
22 -23 -20 -12 -38 -12 -38 -1 0 6 -7 8 -15 4 -9 -3 -4 9 12 29 16 19 30 30
32 24 1 -5 -5 -17 -15 -24z m-141 -2 c-4 -10 -15 -29 -25 -42 -19 -26 -24 -46
-8 -36 6 3 10 1 10 -6 0 -16 -40 -59 -54 -59 -6 0 0 9 14 20 14 11 19 20 11
20 -8 0 -11 6 -7 16 6 14 4 15 -9 4 -11 -9 -13 -15 -5 -20 8 -5 7 -9 -4 -13
-9 -4 -16 -15 -16 -24 0 -11 -12 -23 -30 -30 -20 -7 -28 -8 -24 -1 4 6 1 9 -7
6 -11 -4 -36 -38 -55 -75 -3 -7 -10 -10 -16 -7 -19 12 81 123 105 116 4 -1 5
3 2 9 -4 6 19 38 56 75 35 35 65 64 66 64 1 0 -1 -8 -4 -17z m-167 -30 c-10
-10 -19 5 -10 18 6 11 8 11 12 0 2 -7 1 -15 -2 -18z m-1456 -5 c0 -6 -6 -5
-15 2 -8 7 -15 14 -15 16 0 2 7 1 15 -2 8 -4 15 -11 15 -16z m1560 18 c0 -3
-4 -8 -10 -11 -5 -3 -10 -1 -10 4 0 6 5 11 10 11 6 0 10 -2 10 -4z m292 -18
c-6 -6 -15 -8 -19 -4 -4 4 -1 11 7 16 19 12 27 3 12 -12z m-1767 -18 c-4 -11
-2 -20 4 -20 6 0 11 4 11 10 0 5 7 7 15 4 8 -4 15 -10 15 -16 0 -5 -4 -6 -10
-3 -5 3 -10 0 -10 -8 0 -8 -7 -20 -15 -27 -13 -10 -15 -9 -16 11 0 13 -3 18
-6 12 -7 -19 -27 -16 -41 7 -13 21 -9 40 9 40 6 0 7 -4 4 -10 -10 -16 13 -12
27 5 18 20 20 19 13 -5z m1395 -10 c0 -5 -2 -10 -4 -10 -3 0 -8 5 -11 10 -3 6
-1 10 4 10 6 0 11 -4 11 -10z m289 -11 c-16 -10 -23 -4 -14 10 3 6 11 8 17 5
6 -4 5 -9 -3 -15z m-88 -27 c-16 -30 -34 -40 -56 -31 -11 4 -17 8 -12 8 4 1 8
0 10 -1 1 -2 13 7 27 20 29 27 44 29 31 4z m-1294 -39 c-3 -10 -5 -2 -5 17 0
19 2 27 5 18 2 -10 2 -26 0 -35z m30 -10 c-3 -10 -5 -4 -5 12 0 17 2 24 5 18
2 -7 2 -21 0 -30z m-1102 17 c-3 -5 -12 -10 -18 -10 -7 0 -6 4 3 10 19 12 23
12 15 0z m2302 -57 c-5 -12 -17 -23 -26 -23 -13 0 -14 2 -2 9 8 5 15 20 17 33
4 34 4 34 13 19 6 -9 5 -23 -2 -38z m-2387 -67 c0 -8 -7 -19 -15 -26 -12 -10
-13 -16 -4 -26 9 -11 8 -14 -6 -14 -11 0 -15 -5 -12 -14 6 -16 -18 -30 -45
-27 -9 1 -19 -3 -23 -9 -4 -6 9 -10 34 -10 23 0 41 -4 41 -10 0 -5 -16 -10
-35 -10 -19 0 -35 -4 -35 -9 0 -5 -7 -17 -16 -25 -8 -9 -11 -16 -5 -16 19 0
12 -18 -10 -23 -12 -3 -18 -10 -15 -16 4 -5 2 -12 -4 -16 -5 -3 -10 0 -10 9 0
11 -7 12 -27 7 -16 -4 -27 -10 -25 -14 1 -4 2 -12 2 -18 0 -5 4 -8 9 -4 5 3
12 1 16 -4 3 -6 15 -7 27 -2 15 5 27 3 38 -8 9 -9 25 -21 36 -28 16 -10 8 -12
-48 -11 -62 1 -70 -1 -132 -41 -82 -54 -141 -117 -157 -170 -17 -57 -33 -53
-24 7 5 26 7 59 6 74 -1 31 17 47 30 27 8 -12 11 -12 19 1 5 8 8 20 5 27 -2 7
2 10 11 6 8 -3 14 1 14 11 0 31 -36 15 -82 -36 -26 -29 -48 -59 -48 -67 0 -11
-3 -11 -15 -1 -9 7 -25 10 -41 6 -27 -7 -27 -7 -10 18 16 25 16 26 -6 26 -18
0 -10 12 47 67 39 37 76 66 82 65 7 -2 10 3 8 10 -6 14 50 88 66 88 6 0 7 -9
4 -20 -5 -16 -2 -20 14 -20 12 0 21 -4 21 -10 0 -5 7 -7 15 -4 18 7 20 31 3
37 -10 3 -10 7 1 20 15 19 8 22 -20 7 -11 -6 -19 -7 -19 -1 0 26 75 21 97 -7
7 -9 16 -12 20 -7 5 4 2 10 -4 12 -34 12 2 80 45 85 19 2 27 8 26 21 -1 9 5
17 15 18 12 0 12 2 -4 9 -23 10 -14 13 31 10 25 -1 33 3 37 22 6 23 55 59 70
51 4 -2 7 -10 7 -17z m-150 -10 c0 -2 -8 -10 -17 -17 -16 -13 -17 -12 -4 4 13
16 21 21 21 13z m2335 -86 c-3 -5 -10 -10 -16 -10 -5 0 -9 5 -9 10 0 6 7 10
16 10 8 0 12 -4 9 -10z m45 0 c0 -5 -4 -10 -10 -10 -5 0 -10 5 -10 10 0 6 5
10 10 10 6 0 10 -4 10 -10z m20 -31 c-7 -11 -14 -18 -17 -15 -3 3 0 12 7 21
18 21 23 19 10 -6z m-230 -70 c-7 -11 -14 -18 -17 -15 -8 8 5 36 17 36 7 0 7
-6 0 -21z m-160 -3 c0 -2 -8 -10 -17 -17 -16 -13 -17 -12 -4 4 13 16 21 21 21
13z m-1940 -36 c8 -5 12 -12 9 -15 -8 -8 -39 5 -39 16 0 11 11 11 30 -1z
m2123 -61 c7 -25 -34 -74 -62 -76 -24 -2 -25 1 -11 28 8 13 7 19 0 19 -6 0 -5
8 2 20 7 11 19 18 27 15 8 -3 11 0 8 9 -4 9 0 12 13 9 10 -3 20 -14 23 -24z
m-99 -17 c3 -5 -1 -9 -9 -9 -8 0 -12 4 -9 9 3 4 7 8 9 8 2 0 6 -4 9 -8z
m-2089 -32 c-4 -6 -10 -8 -15 -5 -4 3 -10 -5 -13 -17 -4 -12 -9 -19 -13 -16
-12 13 8 48 27 48 11 0 17 -5 14 -10z m-53 -60 c3 -22 0 -34 -12 -40 -15 -8
-16 -5 -12 18 l5 27 -26 -27 c-29 -31 -42 -36 -33 -13 9 24 -5 18 -41 -17 -18
-18 -33 -27 -33 -22 0 6 12 22 28 37 15 14 33 33 40 41 7 9 21 16 32 16 10 0
22 5 25 10 10 16 22 3 27 -30z m72 -31 c-5 -8 -54 1 -54 10 0 16 12 18 35 7
13 -6 22 -14 19 -17z m-478 -56 c-10 -10 -19 5 -10 18 6 11 8 11 12 0 2 -7 1
-15 -2 -18z m354 15 c0 -5 -7 -11 -15 -14 -8 -3 -17 -21 -21 -40 -3 -19 -10
-37 -15 -40 -16 -10 -22 27 -8 54 7 15 15 30 17 35 2 4 -4 4 -14 0 -10 -4 -15
-2 -11 4 7 12 67 13 67 1z m-277 -63 c4 -8 2 -17 -3 -20 -6 -4 -10 3 -10 14 0
25 6 27 13 6z m-46 -27 c-3 -8 -6 -5 -6 6 -1 11 2 17 5 13 3 -3 4 -12 1 -19z
m2207 -73 c-4 -8 -1 -15 6 -15 6 0 8 -4 5 -10 -3 -5 -10 -10 -16 -10 -10 0
-12 33 -2 43 10 11 13 8 7 -8z m-1589 -45 c3 -5 1 -10 -4 -10 -6 0 -11 5 -11
10 0 6 2 10 4 10 3 0 8 -4 11 -10z m-975 -103 c0 -2 -12 -14 -27 -28 l-28 -24
24 28 c23 25 31 32 31 24z m1687 -59 c-6 -4 -15 -2 -19 5 -5 8 -8 4 -8 -10 0
-13 6 -23 13 -24 9 0 9 -2 -1 -6 -7 -3 -22 3 -33 13 -11 10 -19 12 -19 6 0 -7
4 -12 10 -12 24 0 -7 -34 -46 -51 -27 -11 -44 -25 -44 -35 0 -13 -3 -14 -14
-5 -11 9 -15 7 -19 -11 -8 -29 -1 -35 20 -16 23 19 79 41 92 37 6 -2 -21 -37
-61 -78 l-71 -74 39 -33 39 -33 -28 -1 c-19 0 -30 -6 -34 -18 -3 -14 -11 -18
-29 -14 -29 5 -29 6 -3 49 12 19 18 37 14 41 -3 4 -11 -1 -16 -10 -5 -10 -25
-25 -44 -34 -30 -14 -34 -20 -28 -42 l6 -26 -23 22 c-13 12 -26 22 -29 22 -8
0 -7 -73 1 -86 4 -6 1 -11 -7 -11 -8 0 -15 5 -16 11 0 6 -5 0 -10 -13 -6 -14
-15 -21 -24 -17 -9 3 -19 -3 -25 -15 -6 -11 -15 -17 -21 -14 -5 4 -9 0 -9 -8
0 -18 -33 -33 -38 -18 -2 6 -8 11 -14 11 -6 0 -8 -7 -4 -15 7 -19 -8 -20 -23
-1 -9 11 -8 15 6 20 15 6 15 9 3 17 -11 8 -12 12 -2 16 6 2 12 14 12 26 0 18
2 19 10 7 5 -8 7 -22 4 -32 -2 -9 0 -19 5 -22 5 -4 13 8 16 26 5 21 4 33 -4
36 -20 7 -11 41 16 59 34 23 93 83 93 96 0 6 3 7 7 4 7 -8 33 11 33 25 0 5 -4
6 -10 3 -5 -3 -10 -3 -10 2 0 12 16 35 24 34 26 -4 37 1 34 16 -2 11 5 19 17
21 34 7 38 19 15 42 -15 15 -19 25 -12 32 16 16 42 1 43 -24 l0 -23 10 23 c5
14 13 20 21 16 8 -5 9 -2 5 10 -8 21 2 44 12 27 4 -6 22 3 46 24 24 22 49 35
66 35 15 0 29 7 33 15 5 13 9 13 25 3 14 -9 17 -15 8 -20z m-1778 -35 c-18
-20 -49 -50 -67 -68 -18 -18 -37 -45 -42 -61 l-8 -29 -1 32 c-1 26 10 41 72
97 80 73 99 85 46 29z m1761 -33 c0 -5 -4 -10 -10 -10 -5 0 -10 5 -10 10 0 6
5 10 10 10 6 0 10 -4 10 -10z m-290 -21 c0 -5 -4 -9 -10 -9 -5 0 -10 7 -10 16
0 8 5 12 10 9 6 -3 10 -10 10 -16z m22 -51 c-6 -6 -15 -8 -19 -4 -4 4 -1 11 7
16 19 12 27 3 12 -12z m-49 -30 c-10 -18 -20 -6 -15 19 5 24 6 25 12 8 4 -11
6 -23 3 -27z m317 18 c0 -2 -7 -17 -15 -32 -8 -16 -15 -25 -15 -20 0 4 -11 1
-25 -8 -33 -22 -45 -20 -18 3 12 10 19 21 16 25 -8 7 27 35 45 36 6 0 12 -2
12 -4z m-405 -106 c-3 -5 -11 -10 -16 -10 -6 0 -7 5 -4 10 3 6 11 10 16 10 6
0 7 -4 4 -10z m-15 -50 c0 -5 -7 -10 -16 -10 -8 0 -12 5 -9 10 3 6 10 10 16
10 5 0 9 -4 9 -10z m160 -100 c-24 -15 -37 -11 -16 5 11 8 22 12 25 9 3 -3 -1
-9 -9 -14z m-150 -134 c0 -2 -7 -9 -15 -16 -13 -11 -14 -10 -9 4 5 14 24 23
24 12z m-1133 -138 c-3 -7 -5 -2 -5 12 0 14 2 19 5 13 2 -7 2 -19 0 -25z m41
-8 c3 -18 6 -20 14 -9 8 12 9 12 5 -1 -2 -8 -12 -15 -23 -15 -13 0 -20 8 -22
29 -4 35 21 32 26 -4z m42 -44 c0 16 16 19 25 4 3 -5 1 -10 -4 -10 -6 0 -11
-14 -11 -31 0 -17 4 -28 10 -24 6 3 10 13 10 22 0 9 7 21 16 28 19 14 67 8 58
-7 -12 -19 -22 -78 -14 -78 5 0 11 6 13 13 9 21 7 -56 -2 -96 -5 -21 -5 -39 0
-43 5 -3 9 -11 9 -17 0 -7 -4 -6 -10 3 -8 12 -10 11 -10 -7 0 -12 -6 -24 -12
-26 -9 -4 -8 -6 2 -6 12 -1 15 -16 13 -78 -2 -53 0 -72 7 -58 5 11 9 31 9 45
1 20 3 22 11 10 14 -21 13 -53 -2 -44 -8 5 -9 2 -5 -10 4 -10 7 -24 7 -32 0
-26 18 -14 25 16 4 17 11 30 16 30 6 0 7 -10 3 -22 -6 -23 -14 -33 -66 -92
-16 -17 -28 -35 -28 -41 0 -5 5 -2 11 8 17 30 29 19 29 -28 0 -26 -5 -45 -11
-45 -7 0 -9 10 -5 25 4 14 2 25 -3 25 -16 0 -30 -34 -27 -63 2 -18 -1 -27 -11
-27 -8 0 -13 6 -11 13 1 6 -6 28 -16 47 -17 32 -20 33 -27 15 -6 -17 -8 -16
-8 9 -1 22 -5 27 -17 22 -12 -5 -15 -2 -10 10 3 8 6 20 6 25 0 5 5 9 10 9 6 0
10 -9 10 -19 0 -22 16 -36 24 -22 4 5 2 12 -4 16 -7 4 -7 12 0 25 14 25 13 67
-2 72 -9 3 -9 12 0 38 7 18 12 56 11 84 l-1 51 -12 -38 c-6 -21 -15 -35 -19
-31 -4 4 -7 0 -7 -9 0 -9 4 -17 9 -17 10 0 4 -73 -9 -119 -8 -25 -8 -24 -9 8
-1 51 -12 30 -16 -31 -2 -29 -6 -76 -11 -103 -6 -44 -8 -47 -16 -25 -7 19 -11
21 -17 11 -5 -7 -14 -10 -20 -7 -6 4 -11 2 -11 -3 0 -6 8 -12 18 -12 16 -1 16
-2 -1 -6 -9 -2 -15 -9 -12 -14 4 -5 1 -9 -4 -9 -6 0 -11 9 -11 20 0 11 -4 20
-10 20 -5 0 0 21 10 46 11 25 20 52 20 61 0 8 6 13 13 10 6 -2 11 -13 9 -25
-2 -11 2 -23 8 -27 5 -3 10 2 11 12 6 102 9 128 18 131 6 2 11 10 11 18 0 8 5
14 10 14 6 0 2 10 -10 22 -11 12 -21 31 -22 42 -1 19 -17 -115 -19 -156 0 -20
-16 -23 -39 -8 -12 8 -13 13 -2 30 6 11 12 29 12 39 0 11 5 23 11 27 8 4 7 9
-2 14 -10 7 -10 12 0 23 8 10 9 17 1 22 -15 9 -12 25 5 25 8 0 15 4 15 10 0
23 30 -5 31 -29 1 -18 5 -11 14 24 11 43 13 46 15 20 l2 -30 9 30 c12 38 16
125 7 125 -5 0 -8 -15 -8 -34 0 -36 -16 -57 -25 -33 -3 7 -2 33 4 56 5 23 6
51 3 63 -5 20 -6 20 -19 3 -7 -11 -13 -14 -13 -8 0 7 -9 15 -20 18 -11 3 -20
11 -20 16 0 5 9 9 20 9 11 0 20 -6 20 -12 0 -10 3 -9 9 1 6 9 11 10 15 2 11
-17 23 -13 29 11 4 15 0 28 -13 41 -16 14 -20 15 -20 3 0 -24 -18 -28 -30 -6
-17 32 -3 42 36 25 30 -12 34 -12 34 1z m-51 -148 c-1 -54 -12 -118 -20 -118
-11 0 -12 67 -1 74 5 3 7 19 4 36 -2 17 0 30 6 30 6 0 11 -10 11 -22z m-46
-48 c3 -11 1 -18 -4 -14 -5 3 -9 12 -9 20 0 20 7 17 13 -6z m247 -20 c0 -5 -5
-10 -11 -10 -5 0 -7 5 -4 10 3 6 8 10 11 10 2 0 4 -4 4 -10z m-246 -36 c7 -18
0 -34 -15 -34 -5 0 -9 11 -9 25 0 28 15 34 24 9z m213 -36 c-3 -8 -6 -5 -6 6
-1 11 2 17 5 13 3 -3 4 -12 1 -19z m1123 -18 c0 -11 -4 -20 -9 -20 -14 0 -23
18 -16 30 10 17 25 11 25 -10z m-1243 -182 c-3 -8 -6 -5 -6 6 -1 11 2 17 5 13
3 -3 4 -12 1 -19z m1400 -24 c12 -11 13 -18 4 -27 -8 -8 -11 -7 -11 6 0 9 -7
17 -15 17 -8 0 -15 5 -15 10 0 15 19 12 37 -6z m1246 -2 c-2 -6 2 -12 7 -12 6
0 10 -4 10 -10 0 -15 -29 -12 -46 4 -21 22 -17 38 9 34 12 -2 21 -9 20 -16z
m-109 -53 c-5 -8 3 -10 25 -7 22 3 31 1 31 -9 0 -8 -4 -11 -10 -8 -5 3 -10 -1
-10 -9 0 -9 4 -16 9 -16 5 0 9 -13 9 -30 -1 -25 -5 -30 -25 -30 -14 0 -23 -6
-23 -16 0 -9 -9 -18 -19 -21 -11 -3 -22 -11 -25 -19 -4 -10 5 -8 32 6 38 21
62 25 62 12 0 -10 -44 -47 -49 -42 -2 3 -8 -5 -12 -18 -5 -13 -14 -20 -19 -17
-18 11 -40 -15 -40 -46 0 -29 -34 -74 -49 -65 -5 3 -24 -10 -43 -28 -19 -19
-49 -41 -66 -50 -24 -12 -32 -23 -32 -44 -1 -26 -1 -26 -15 -8 -10 13 -12 23
-5 30 17 17 11 29 -12 22 -17 -4 -28 1 -40 17 l-18 22 3 -22 c2 -12 6 -25 9
-29 10 -9 -3 -34 -17 -34 -8 0 -17 -9 -20 -20 -4 -11 -11 -18 -16 -14 -5 3 -7
9 -4 14 3 5 1 19 -6 32 -10 18 -9 24 6 34 16 12 16 16 4 30 -12 15 -11 16 10
9 15 -4 21 -3 17 3 -7 12 13 72 25 72 11 0 59 52 59 64 0 11 68 76 80 76 5 0
11 9 15 19 6 19 54 57 67 53 4 -1 15 15 24 35 13 27 19 32 23 20 5 -14 11 -12
31 13 24 29 49 42 34 19z m-2554 -6 c0 -5 -5 -15 -10 -23 -8 -12 -10 -11 -10
8 0 12 5 22 10 22 6 0 10 -3 10 -7z m1624 -39 c3 -8 2 -12 -4 -9 -6 3 -10 10
-10 16 0 14 7 11 14 -7z m804 -3 c-1 -5 -41 -49 -88 -97 -47 -49 -84 -92 -83
-96 2 -4 -3 -5 -10 -2 -7 2 -21 -4 -31 -15 -10 -11 -23 -18 -28 -15 -9 6 99
114 115 114 5 0 7 7 3 15 -3 9 0 15 8 15 8 0 28 16 45 35 17 19 35 35 41 35 5
0 10 5 10 10 0 6 5 10 11 10 6 0 9 -4 7 -9z m-2431 -23 c-3 -8 -6 -5 -6 6 -1
11 2 17 5 13 3 -3 4 -12 1 -19z m2181 -187 c-7 -9 -13 -17 -14 -19 -1 -2 -4 8
-6 21 -4 20 -1 23 14 19 15 -4 16 -7 6 -21z m187 -430 c10 -17 -12 -21 -25 -6
-10 12 -10 15 3 15 9 0 18 -4 22 -9z m-11305 -125 c183 -43 373 -117 493 -193
21 -13 37 -26 34 -29 -2 -2 -35 2 -73 10 -38 8 -91 17 -119 21 -106 13 -163
23 -240 44 -51 14 -125 24 -205 28 -146 7 -254 -8 -509 -68 -136 -33 -186 -50
-297 -103 l-134 -65 -15 29 c-8 15 -18 46 -23 68 l-9 40 61 40 c112 74 336
159 491 186 50 9 101 18 115 20 14 3 93 3 175 1 113 -3 176 -10 255 -29z m960
-405 c187 -48 398 -168 522 -298 96 -101 191 -373 205 -594 6 -88 -19 -284
-38 -304 -6 -6 -7 4 -4 25 4 29 3 31 -5 15 -8 -16 -10 -13 -6 17 3 22 -1 44
-9 55 -8 10 -15 26 -15 36 0 10 -6 30 -14 45 -7 15 -17 38 -21 52 -7 22 -6 23
9 11 25 -21 27 -10 9 39 -16 47 -19 61 -27 149 -3 29 -12 61 -21 70 -8 10 -15
27 -15 39 0 26 -18 39 -26 17 -4 -9 2 -25 12 -36 12 -14 14 -23 7 -30 -8 -8
-7 -19 0 -40 9 -22 8 -32 -1 -41 -9 -9 -12 -8 -12 8 0 11 -4 24 -9 30 -4 5
-16 33 -27 62 -10 28 -22 52 -27 52 -4 0 -5 4 -2 10 7 12 -94 218 -111 224
-17 7 13 -75 38 -101 12 -13 18 -23 14 -23 -4 0 -1 -10 5 -22 12 -22 22 -78
15 -78 -16 0 -36 15 -36 26 0 8 -7 17 -15 20 -8 4 -12 10 -9 15 3 5 1 9 -3 9
-5 0 -17 15 -28 33 -31 54 -154 173 -198 193 -46 20 -50 24 -106 104 -22 30
-60 76 -86 103 -25 26 -41 47 -36 47 6 0 38 -16 71 -36 34 -20 64 -34 66 -31
3 3 -31 35 -75 73 -45 37 -81 69 -81 71 0 5 13 3 90 -16z m-1024 -385 c13 -21
15 -62 15 -281 -1 -141 -5 -265 -11 -274 -5 -10 -5 -22 -1 -27 11 -11 21 -138
12 -152 -7 -11 -133 -72 -149 -72 -6 0 -73 -29 -150 -65 -78 -36 -150 -65
-162 -65 -12 0 -36 15 -54 33 -17 18 -60 63 -95 100 -34 37 -66 67 -71 67 -4
0 -11 13 -16 29 -9 28 -102 151 -190 250 -47 52 -72 109 -58 134 19 32 162
139 246 182 47 25 89 45 92 45 3 0 17 -18 31 -40 14 -22 32 -40 41 -40 17 0
16 9 -8 68 -16 41 -15 42 106 76 95 27 264 53 353 55 45 1 55 -2 69 -23z
m-1146 -6 c0 -5 -7 -10 -15 -10 -8 0 -15 5 -15 10 0 6 7 10 15 10 8 0 15 -4
15 -10z m-48 -33 c-7 -8 -9 -17 -5 -20 3 -4 -2 -7 -13 -7 -27 0 -64 -43 -59
-69 2 -11 0 -21 -6 -21 -5 0 -9 7 -9 16 0 14 -3 14 -15 4 -16 -13 -21 -35 -7
-26 14 9 7 -32 -9 -51 -36 -41 -132 -218 -174 -318 -30 -70 -74 -216 -86 -279
-6 -33 -15 -71 -19 -82 -5 -12 -6 -31 -3 -43 3 -12 1 -21 -4 -21 -5 0 -9 -26
-9 -57 -1 -32 -4 -84 -9 -115 -5 -38 -4 -58 3 -58 5 0 12 -7 15 -14 4 -11 1
-13 -10 -9 -13 5 -15 1 -9 -29 3 -19 4 -43 0 -52 -8 -22 -41 -20 -54 3 -14 27
-15 318 -1 426 25 194 98 393 190 520 20 28 51 71 69 96 42 61 220 235 230
225 3 -3 0 -12 -6 -19z m8341 -29 c3 -7 44 -107 92 -223 48 -115 97 -237 110
-270 13 -33 68 -168 123 -300 208 -499 232 -559 232 -566 0 -4 -33 -20 -72
-35 -87 -33 -820 -327 -1208 -484 -473 -191 -914 -365 -1320 -520 -146 -56
-350 -135 -453 -176 -103 -41 -190 -74 -192 -74 -2 0 -138 -54 -302 -121 -164
-67 -303 -123 -310 -126 -6 -2 -20 19 -32 52 -41 110 -214 544 -299 750 -213
519 -241 590 -234 596 4 4 138 58 297 122 160 63 394 157 520 207 127 51 295
118 375 150 139 55 326 132 550 225 58 24 166 67 240 94 74 27 277 103 450
169 173 66 403 151 510 191 290 107 832 319 869 341 23 13 48 12 54 -2z
m-5538 -385 c3 -13 2 -23 -3 -23 -11 0 -22 24 -22 48 0 21 15 5 25 -25z
m-2410 -403 c14 0 19 -12 16 -32 0 -5 4 -8 10 -8 5 0 8 -4 5 -9 -5 -8 3 -45
19 -82 4 -11 0 -18 -15 -22 -18 -5 -20 -9 -11 -25 8 -15 7 -23 -4 -32 -12 -10
-17 -5 -32 27 -21 47 -22 47 -28 41 -3 -2 2 -25 11 -51 11 -34 13 -51 5 -64
-9 -16 -10 -14 -11 11 0 28 -1 29 -15 10 -8 -11 -15 -14 -15 -6 0 6 -8 12 -17
12 -10 0 -14 4 -8 8 13 9 15 38 6 89 -6 29 -5 43 3 46 7 3 6 10 -4 22 -14 17
-13 18 10 12 24 -6 25 -4 23 38 -1 24 -7 53 -12 64 -26 48 -8 51 19 4 17 -29
37 -53 45 -53z m40 70 c11 -5 14 -9 8 -9 -7 -1 -13 -8 -13 -16 0 -13 10 -19
31 -17 3 0 5 -15 5 -34 0 -42 -19 -44 -36 -3 -8 18 -18 28 -26 25 -8 -3 -14
-1 -14 4 0 6 4 10 9 10 16 0 0 39 -18 43 -9 3 -5 5 9 5 14 0 34 -3 45 -8z m79
-36 c3 -9 6 -23 6 -32 -1 -12 -5 -10 -15 8 -8 14 -14 28 -15 33 0 13 18 7 24
-9z m-384 -91 c-1 -24 -2 -26 -11 -10 -5 9 -7 22 -4 27 10 17 15 11 15 -17z
m350 -3 c0 -5 -8 -6 -17 -3 -13 5 -15 2 -10 -12 6 -15 5 -16 -8 -5 -8 7 -12
16 -9 21 7 12 44 11 44 -1z m2509 -93 c18 -27 45 -76 61 -110 28 -63 70 -213
70 -252 0 -28 -65 -233 -96 -304 -24 -55 -103 -191 -110 -191 -4 0 0 34 21
195 13 102 11 250 -4 360 -5 35 -5 64 0 70 6 5 9 3 10 -5 1 -8 2 -19 3 -25 1
-5 6 -30 11 -53 4 -24 14 -46 22 -49 10 -4 12 -15 7 -39 -4 -21 -2 -34 4 -34
6 0 12 5 14 11 3 8 10 6 21 -5 16 -16 17 -15 17 18 0 26 -6 38 -22 47 -14 8
-18 14 -10 17 6 2 12 9 12 17 0 7 6 18 14 24 11 10 15 8 19 -6 3 -10 5 -1 6
19 0 20 -3 40 -9 43 -5 3 -10 1 -10 -4 0 -6 -4 -11 -10 -11 -5 0 -13 18 -16
41 -4 22 -13 46 -20 54 -8 7 -14 23 -14 33 0 11 -9 41 -20 67 -11 26 -20 64
-20 86 0 27 -4 39 -14 39 -7 0 -16 12 -19 26 l-5 27 27 -29 c15 -16 42 -51 60
-77z m-742 5 c55 -16 60 -19 49 -35 -7 -9 -18 -17 -25 -17 -6 0 -11 -7 -11
-15 0 -8 -6 -15 -12 -15 -7 0 -5 -5 5 -11 9 -5 17 -17 17 -24 0 -8 4 -15 9
-15 5 0 7 -15 6 -32 -2 -18 -4 -33 -5 -33 -6 0 -7 -57 0 -92 9 -50 -7 -122
-33 -147 -17 -18 -17 -19 0 -32 11 -8 13 -13 6 -14 -19 0 -16 -20 3 -20 8 0
13 -4 9 -10 -3 -5 -13 -6 -23 -3 -14 5 -15 3 -4 -8 16 -18 15 -44 -3 -59 -12
-10 -19 -10 -27 -2 -7 7 -24 12 -39 12 -15 0 -32 6 -38 14 -12 14 -98 46 -125
46 -9 0 -16 -8 -16 -17 0 -10 -7 -31 -15 -47 -13 -24 -13 -36 -5 -60 14 -39
50 -173 56 -206 2 -14 8 -45 14 -70 13 -53 7 -284 -8 -320 -6 -14 -14 -46 -17
-73 -5 -39 -11 -50 -35 -62 -16 -8 -31 -15 -34 -15 -3 0 -20 24 -37 53 -17 28
-29 44 -26 35 3 -9 9 -32 12 -51 6 -30 3 -37 -16 -47 -19 -11 -25 -10 -36 6
-13 17 -14 16 -11 -15 4 -44 -13 -49 -35 -11 -19 31 -37 40 -37 18 0 -7 -7
-22 -15 -32 -14 -19 -16 -18 -77 11 -35 17 -91 43 -125 59 -35 16 -63 32 -63
37 0 4 -6 7 -12 7 -7 0 -30 16 -50 35 -20 19 -41 35 -46 35 -15 0 -42 64 -32
74 5 5 1 15 -9 25 -10 9 -31 48 -46 86 -15 39 -38 95 -50 126 -24 58 -37 147
-39 262 -1 56 2 68 17 73 23 7 22 25 -2 31 -21 5 -31 41 -31 109 0 58 41 100
55 56 3 -11 35 -59 70 -107 63 -85 69 -96 66 -122 -1 -6 3 -14 9 -18 16 -10
11 26 -11 74 -11 25 -18 50 -15 57 4 11 -11 59 -39 127 -12 30 2 19 24 -19 12
-19 25 -32 31 -29 5 3 19 -13 30 -36 33 -65 34 -39 0 46 -16 43 -28 80 -27 82
5 4 169 -260 196 -314 12 -23 21 -49 21 -58 0 -9 4 -14 9 -10 13 8 -6 59 -64
175 -48 96 -117 252 -112 256 1 1 50 25 109 53 119 56 150 62 176 29 9 -12 29
-33 43 -47 14 -15 37 -44 52 -66 14 -22 35 -51 45 -64 l20 -24 6 21 c4 12 12
22 17 22 10 0 12 33 3 43 -6 6 -43 105 -44 117 0 3 9 -9 19 -26 11 -18 24 -35
29 -38 11 -7 -10 70 -28 104 -6 12 -9 26 -6 33 3 8 5 6 5 -3 1 -8 11 -26 22
-40 17 -21 19 -22 10 -3 -6 12 -11 29 -11 38 0 15 1 15 16 1 8 -9 17 -16 19
-16 5 0 -12 56 -20 71 -7 10 10 28 27 29 4 0 14 -12 22 -27 11 -20 15 -23 16
-10 0 19 20 24 21 5 0 -7 4 -3 10 10 7 18 14 22 29 17 23 -7 25 -2 9 27 -7 13
-14 17 -18 10 -8 -13 -51 12 -51 28 0 5 46 11 103 13 56 1 104 4 107 5 3 1 33
-6 67 -16z m-1947 -170 c0 -14 48 -32 83 -32 18 0 39 -5 47 -10 10 -7 -17 -10
-86 -10 -93 0 -102 2 -107 20 -4 15 0 20 13 20 11 0 22 5 25 10 8 12 25 13 25
2z m2111 -89 c8 -21 6 -40 -9 -83 -11 -30 -28 -83 -38 -117 -18 -61 -46 -90
-36 -38 2 14 9 25 14 25 6 0 9 16 5 38 -2 21 -1 46 4 54 5 9 11 35 14 59 3 23
9 47 13 53 4 6 7 14 8 19 3 15 4 17 9 17 3 0 10 -12 16 -27z m308 -299 c-9
-11 -8 -15 5 -20 21 -8 22 -91 2 -189 -24 -117 -28 -155 -18 -155 5 0 17 18
27 40 10 22 22 37 27 33 6 -3 7 4 3 18 -10 33 -11 30 8 73 9 21 17 46 17 56 0
10 7 23 16 30 12 11 18 11 30 -1 13 -13 13 -20 -1 -60 -24 -67 -56 -129 -67
-129 -5 0 -7 -9 -3 -20 6 -19 -23 -78 -65 -130 -17 -21 -19 -22 -14 -5 l6 20
-17 -20 c-23 -29 -68 -86 -82 -104 -11 -14 -13 -13 -19 7 -3 12 -10 22 -15 22
-4 0 -1 16 6 35 8 18 14 44 14 57 -3 42 28 133 79 234 57 114 58 118 38 122
-9 2 -16 -2 -16 -10 0 -7 -8 -22 -17 -33 -15 -19 -15 -19 -9 8 11 47 59 146
69 140 4 -2 3 -11 -4 -19z m-669 -994 c0 -5 -5 -10 -11 -10 -5 0 -7 5 -4 10 3
6 8 10 11 10 2 0 4 -4 4 -10z m-25 -97 c9 20 25 23 25 3 0 -8 -7 -17 -16 -20
-8 -3 -12 -10 -9 -16 3 -5 1 -10 -4 -10 -6 0 -11 3 -11 8 0 4 -3 18 -5 32 -5
21 -4 22 4 5 8 -18 9 -19 16 -2z m-1066 -44 c13 -11 20 -19 16 -19 -14 0 -85
44 -85 52 0 10 34 -7 69 -33z m131 26 c14 -2 32 -4 40 -5 10 -1 9 -4 -5 -9
-19 -7 -18 -8 5 -21 31 -16 51 -36 44 -43 -3 -3 -33 4 -67 16 -92 30 -107 37
-68 30 22 -4 32 -3 28 4 -4 6 -27 14 -52 17 -25 4 -45 11 -45 16 0 7 54 5 120
-5z m890 -5 c0 -5 -5 -10 -11 -10 -5 0 -7 5 -4 10 3 6 8 10 11 10 2 0 4 -4 4
-10z m90 0 c0 -5 -5 -10 -11 -10 -5 0 -7 5 -4 10 3 6 8 10 11 10 2 0 4 -4 4
-10z m5 -90 c3 -5 -1 -10 -9 -10 -9 0 -16 5 -16 10 0 6 4 10 9 10 6 0 13 -4
16 -10z m-32 -22 c21 -16 57 -86 57 -111 0 -30 -22 -6 -50 53 -13 27 -27 50
-32 50 -4 0 -8 5 -8 10 0 14 13 13 33 -2z m71 -57 c-6 -6 -24 19 -24 34 1 6 7
1 15 -9 8 -11 12 -22 9 -25z m571 -81 c3 -5 1 -10 -4 -10 -6 0 -11 5 -11 10 0
6 2 10 4 10 3 0 8 -4 11 -10z m-660 -10 c3 -5 1 -10 -4 -10 -6 0 -11 5 -11 10
0 6 2 10 4 10 3 0 8 -4 11 -10z m775 -11 c0 -6 -4 -7 -10 -4 -5 3 -10 11 -10
16 0 6 5 7 10 4 6 -3 10 -11 10 -16z m-615 -36 c9 -20 13 -43 10 -51 -9 -23 5
-61 21 -55 8 3 14 12 14 21 0 13 3 12 15 -4 13 -16 16 -17 24 -4 6 8 25 15 43
15 29 0 33 4 36 28 2 18 -1 27 -10 27 -8 0 -23 7 -34 15 -18 14 -16 14 16 8
97 -17 90 -82 -13 -136 -45 -24 -51 -24 -83 -11 -19 8 -33 11 -32 7 6 -18 -27
-113 -41 -118 -22 -9 -43 23 -30 46 7 13 6 19 -1 19 -6 0 -8 5 -5 10 9 14 -9
12 -24 -2 -10 -11 -11 -7 -6 17 12 56 12 56 55 49 35 -6 40 -4 40 13 0 11 -11
41 -25 68 -22 45 -23 49 -7 61 9 8 18 14 19 14 2 0 10 -17 18 -37z m68 10 c-7
-2 -19 -2 -25 0 -7 3 -2 5 12 5 14 0 19 -2 13 -5z m462 -3 c19 -8 19 -9 -2 -9
-12 -1 -23 -6 -25 -13 -3 -8 -11 -7 -27 4 -21 15 -21 17 -4 21 27 7 36 6 58
-3z m136 -46 c19 -25 44 -60 57 -77 12 -16 22 -36 22 -44 0 -17 -30 -29 -39
-16 -17 27 -53 33 -153 27 -113 -6 -122 -9 -113 -31 5 -13 3 -14 -10 -3 -19
15 -39 1 -30 -21 5 -13 108 -72 145 -83 11 -3 10 -5 -4 -5 -12 -1 -16 -6 -12
-16 7 -19 -12 -64 -37 -89 -26 -26 -31 -14 -7 17 24 31 26 49 3 40 -11 -4 -14
-3 -9 5 5 8 -1 12 -16 12 -13 0 -18 -4 -13 -8 14 -10 13 -32 -4 -62 -18 -33
-31 -40 -52 -30 -9 5 -19 7 -22 3 -11 -10 -29 51 -23 80 3 15 -1 45 -10 66
-12 32 -21 40 -49 44 -32 5 -79 -2 -119 -18 -15 -7 -17 -5 -12 13 4 11 2 23
-4 27 -17 10 -12 20 20 38 33 20 100 14 100 -8 0 -7 11 -20 25 -29 23 -15 26
-15 31 -1 4 8 4 25 0 38 -5 22 0 25 62 41 37 9 80 20 95 23 18 3 26 10 23 18
-3 8 1 19 9 25 10 9 15 6 20 -9 7 -25 51 -38 107 -33 16 2 15 7 -7 57 -13 30
-21 55 -16 55 4 0 23 -21 42 -46z m-551 8 c0 -13 -12 -22 -22 -16 -10 6 -1 24
13 24 5 0 9 -4 9 -8z m-253 -24 c-3 -8 -6 -5 -6 6 -1 11 2 17 5 13 3 -3 4 -12
1 -19z m285 0 c-7 -7 -12 -8 -12 -2 0 14 12 26 19 19 2 -3 -1 -11 -7 -17z
m-328 -64 c3 -8 2 -12 -4 -9 -6 3 -10 10 -10 16 0 14 7 11 14 -7z m-11 -43
c-3 -13 2 -20 19 -25 22 -7 22 -8 -9 -17 -21 -6 -33 -16 -33 -27 0 -15 -2 -15
-10 -2 -15 23 -12 43 5 36 8 -3 15 -1 15 4 0 6 -5 10 -10 10 -7 0 -7 6 0 20
13 25 30 26 23 1z m307 -65 c0 -7 -7 -19 -15 -26 -13 -11 -15 -8 -15 14 0 16
5 26 15 26 8 0 15 -6 15 -14z m-122 -47 c-2 -6 12 -17 31 -23 l34 -12 -31 -23
c-19 -13 -40 -20 -50 -17 -14 5 -31 -7 -63 -44 -24 -27 -47 -50 -51 -50 -12 0
-10 48 3 71 5 11 21 24 35 29 14 6 23 14 19 20 -3 5 -12 7 -20 3 -22 -8 -18
15 4 27 23 12 47 5 55 -16 3 -8 12 -14 21 -14 20 0 19 10 -2 25 -9 7 -13 17
-9 23 9 15 27 15 24 1z m72 1 c0 -5 -6 -10 -14 -10 -8 0 -18 5 -21 10 -3 6 3
10 14 10 12 0 21 -4 21 -10z m245 -110 c3 -5 1 -10 -4 -10 -6 0 -11 5 -11 10
0 6 2 10 4 10 3 0 8 -4 11 -10z m-474 -62 c49 -39 51 -54 4 -26 l-36 20 -62
-48 c-34 -27 -69 -58 -79 -69 -30 -37 -31 -6 -1 40 24 37 113 115 130 115 2 0
22 -14 44 -32z m494 -8 c-3 -5 -11 -10 -16 -10 -6 0 -7 5 -4 10 3 6 11 10 16
10 6 0 7 -4 4 -10z m332 -10 c2 -20 -8 -26 -20 -13 -4 3 -2 12 4 20 15 17 14
17 16 -7z m-14 -34 c3 -7 0 -19 -6 -25 -8 -8 -7 -11 6 -11 9 0 17 -7 17 -16 0
-8 5 -12 10 -9 16 10 12 -6 -5 -19 -12 -10 -12 -14 0 -30 12 -16 17 -17 31 -5
15 12 14 14 -3 20 -16 7 -16 8 3 8 12 1 27 -5 33 -12 11 -15 -28 -69 -97 -132
-30 -29 -31 -31 -10 -30 13 1 33 7 45 13 42 23 38 12 -12 -33 -27 -24 -81 -61
-120 -81 -38 -21 -83 -47 -100 -60 -52 -38 -157 -86 -250 -114 -45 -14 -147
-28 -138 -20 4 4 82 43 173 87 247 118 279 137 375 223 91 81 121 115 88 103
-10 -4 -40 -30 -68 -59 -51 -54 -52 -54 -160 -69 -11 -1 -28 2 -37 6 -10 5
-28 5 -43 -1 -24 -9 -26 -8 -21 7 4 9 2 19 -4 23 -20 12 27 75 88 119 76 56
185 129 193 130 4 1 9 -5 12 -13z m-1047 -143 c-10 -10 -19 5 -10 18 6 11 8
11 12 0 2 -7 1 -15 -2 -18z m1262 -47 c0 -50 -11 -63 -36 -38 l-21 21 20 25
c27 35 37 33 37 -8z m-109 -78 c-19 -18 -42 -48 -51 -65 -9 -18 -38 -47 -64
-65 -75 -53 -83 -62 -24 -28 95 54 139 74 146 67 4 -4 -2 -18 -14 -30 -12 -13
-20 -26 -16 -29 7 -8 -61 -64 -117 -96 -110 -63 -167 -97 -214 -128 -51 -33
-227 -79 -277 -72 -27 4 -17 10 157 99 54 28 111 59 125 68 14 10 44 28 68 40
23 12 40 26 37 31 -3 5 15 26 40 46 48 41 61 65 20 38 -50 -32 -36 -5 17 33
64 48 89 62 71 42 -22 -22 -14 -30 12 -13 14 9 25 23 25 30 0 14 80 78 88 70
2 -3 -11 -20 -29 -38z m178 -62 c-3 -8 -1 -17 6 -19 9 -3 8 -8 -2 -20 -10 -13
-17 -15 -27 -6 -17 14 -18 46 -1 52 22 9 29 7 24 -7z m-108 -97 c-59 -70 -118
-128 -154 -151 -27 -18 -28 -19 -5 -12 14 4 47 22 75 40 68 46 116 45 65 -1
-12 -10 -19 -24 -16 -30 2 -6 -6 -17 -17 -25 -21 -12 -21 -12 -8 6 8 10 -6 -1
-30 -26 -24 -25 -66 -57 -94 -73 -122 -68 -263 -131 -328 -148 -75 -19 -98
-18 -53 2 15 7 25 17 23 23 -5 16 22 34 172 117 73 40 136 80 139 89 3 8 22
30 41 48 26 24 29 30 13 22 -44 -21 -34 -2 23 44 55 45 90 62 65 31 -27 -33 0
-12 60 46 34 33 65 58 67 55 3 -3 -14 -28 -38 -57z m189 -62 c-2 -30 -16 -47
-34 -40 -18 7 -18 23 2 51 18 26 33 21 32 -11z m-96 -68 c-17 -16 -39 -43 -47
-58 -8 -16 -40 -52 -72 -81 -56 -50 -42 -53 24 -4 17 13 36 24 42 24 20 0 22
-22 4 -42 -10 -12 -12 -18 -4 -13 9 5 7 -2 -5 -17 -10 -14 -30 -32 -44 -41
-228 -138 -339 -192 -426 -208 -94 -17 -108 -8 -39 28 33 17 77 43 98 57 21
14 39 26 41 26 15 0 175 98 169 104 -4 4 15 27 42 51 53 48 53 54 2 30 -32
-16 -31 -15 7 18 21 19 52 42 68 52 l30 17 -12 -22 -12 -23 31 22 c17 12 31
28 31 36 0 17 69 75 90 75 10 0 4 -11 -18 -31z m78 -122 c0 -2 -12 -14 -27
-28 l-28 -24 24 28 c23 25 31 32 31 24z m-30 -90 c0 -2 -12 -14 -27 -28 l-28
-24 24 28 c23 25 31 32 31 24z"/>
<path d="M3525 10010 l-28 -29 34 -52 33 -52 -27 -21 c-31 -25 -34 -38 -11
-57 13 -10 21 -9 46 6 28 16 32 16 42 2 6 -8 51 -71 99 -140 96 -136 131 -164
191 -153 32 6 116 61 116 75 0 4 -9 16 -20 26 -15 14 -23 15 -34 6 -8 -7 -28
-16 -45 -21 -43 -12 -72 15 -171 158 l-79 116 49 33 c61 41 62 43 41 71 l-17
23 -49 -36 c-28 -19 -53 -35 -57 -35 -4 0 -20 19 -34 42 -44 69 -48 71 -79 38z"/>
<path d="M3295 9704 c-16 -9 -38 -24 -49 -33 -25 -22 -56 -85 -56 -115 0 -37
-14 -39 -34 -5 -16 28 -20 29 -39 16 -12 -7 -28 -17 -34 -21 -9 -5 7 -35 52
-99 36 -51 100 -142 142 -204 l77 -112 29 17 c48 28 48 34 4 95 -160 219 -173
249 -144 320 32 75 127 98 184 45 28 -26 109 -132 167 -220 21 -32 40 -58 43
-58 3 0 21 9 39 21 l34 20 -57 82 c-97 142 -154 214 -187 238 -40 30 -128 37
-171 13z"/>
<path d="M2856 9395 c-139 -48 -191 -197 -120 -340 22 -43 46 -72 86 -104 50
-38 64 -44 121 -48 58 -5 70 -3 124 26 59 31 125 88 143 121 7 13 4 22 -11 36
-20 18 -21 18 -52 -18 -90 -101 -196 -123 -273 -56 -19 17 -34 34 -34 38 0 5
63 52 140 105 77 52 140 100 140 106 0 17 -90 107 -123 122 -49 22 -98 26
-141 12z m92 -69 c15 -8 37 -25 50 -38 21 -23 21 -25 5 -40 -25 -21 -183 -129
-198 -134 -16 -7 -35 40 -35 87 0 52 23 91 69 118 42 24 72 26 109 7z"/>
<path d="M2333 9191 l-23 -29 30 -41 c37 -50 37 -60 3 -87 -28 -22 -28 -22 -9
-43 19 -21 19 -21 51 -1 l31 19 99 -140 c54 -77 107 -145 118 -151 63 -33 97
-28 170 25 31 24 33 34 11 58 -16 18 -18 18 -46 -2 -22 -16 -37 -19 -64 -15
-29 6 -43 19 -87 83 -28 42 -69 99 -89 127 -21 28 -38 56 -38 62 0 6 23 25 50
42 44 28 50 34 40 51 -17 33 -28 33 -74 2 -25 -17 -49 -31 -54 -31 -6 0 -26
23 -46 50 -20 28 -39 50 -43 49 -5 0 -18 -13 -30 -28z"/>
<path d="M2115 8891 c-52 -23 -98 -63 -126 -107 -21 -35 -22 -36 -2 -55 19
-19 19 -19 51 25 38 53 109 91 150 81 26 -6 82 -51 82 -65 0 -4 -27 -28 -59
-53 -66 -52 -111 -127 -111 -186 0 -92 92 -165 179 -141 57 15 107 62 128 121
17 48 18 48 38 29 20 -19 21 -19 53 2 l33 21 -24 26 c-13 14 -58 76 -101 137
-42 61 -89 122 -104 135 -59 52 -119 62 -187 30z m256 -272 c28 -89 -60 -183
-139 -150 -30 12 -62 57 -62 86 0 36 35 88 84 126 l51 39 27 -33 c16 -17 33
-48 39 -68z"/>
<path d="M1637 8786 c-43 -16 -130 -71 -195 -123 l-42 -35 46 -66 c26 -37 66
-94 89 -127 182 -263 251 -358 262 -362 7 -3 26 5 42 17 l30 21 -36 52 c-20
29 -54 75 -75 103 -21 28 -38 57 -38 65 0 8 15 23 32 34 101 60 166 165 153
250 -8 54 -42 112 -87 148 -45 36 -120 46 -181 23z m143 -104 c74 -73 60 -177
-32 -240 -68 -46 -79 -47 -108 -4 -14 20 -50 72 -80 115 l-55 79 30 24 c52 42
107 64 159 64 43 0 53 -4 86 -38z"/>
<path d="M16342 10478 c-16 -16 -15 -28 2 -28 16 0 29 27 17 34 -4 3 -13 0
-19 -6z"/>
<path d="M15597 9729 c7 -7 15 -10 18 -7 3 3 -2 9 -12 12 -14 6 -15 5 -6 -5z"/>
<path d="M12350 8751 c0 -5 5 -13 10 -16 6 -3 10 -2 10 4 0 5 -4 13 -10 16 -5
3 -10 2 -10 -4z"/>
<path d="M12310 8735 c-12 -14 -12 -18 1 -25 19 -12 33 4 22 25 -9 15 -11 15
-23 0z"/>
<path d="M12286 8687 c3 -10 9 -15 12 -12 3 3 0 11 -7 18 -10 9 -11 8 -5 -6z"/>
<path d="M12250 8666 c0 -9 5 -16 10 -16 6 0 10 4 10 9 0 6 -4 13 -10 16 -5 3
-10 -1 -10 -9z"/>
<path d="M12360 8640 c0 -5 5 -10 10 -10 6 0 10 5 10 10 0 6 -4 10 -10 10 -5
0 -10 -4 -10 -10z"/>
<path d="M12246 8627 c3 -10 9 -15 12 -12 3 3 0 11 -7 18 -10 9 -11 8 -5 -6z"/>
<path d="M13378 8113 c7 -3 16 -2 19 1 4 3 -2 6 -13 5 -11 0 -14 -3 -6 -6z"/>
<path d="M13162 7908 c-20 -20 -15 -47 8 -41 21 6 22 8 12 36 -6 14 -10 15
-20 5z"/>
<path d="M12060 7404 c0 -8 5 -12 10 -9 6 3 10 10 10 16 0 5 -4 9 -10 9 -5 0
-10 -7 -10 -16z"/>
<path d="M12012 7364 c-40 -20 -46 -31 -23 -39 12 -3 21 -11 21 -16 0 -5 5 -9
10 -9 6 0 10 11 10 25 0 15 6 25 14 25 8 0 17 4 20 9 9 14 -27 18 -52 5z"/>
<path d="M12010 7264 c0 -8 5 -12 10 -9 6 3 10 10 10 16 0 5 -4 9 -10 9 -5 0
-10 -7 -10 -16z"/>
<path d="M12030 7195 c0 -14 5 -25 10 -25 6 0 10 11 10 25 0 14 -4 25 -10 25
-5 0 -10 -11 -10 -25z"/>
<path d="M12037 7093 c-12 -11 -8 -23 8 -23 8 0 15 7 15 15 0 16 -12 20 -23 8z"/>
<path d="M12025 7030 c-3 -5 -1 -10 4 -10 6 0 11 5 11 10 0 6 -2 10 -4 10 -3
0 -8 -4 -11 -10z"/>
<path d="M12056 7005 c-9 -26 -7 -32 5 -12 6 10 9 21 6 23 -2 3 -7 -2 -11 -11z"/>
<path d="M12042 6948 c-18 -37 -19 -98 -1 -98 6 0 8 9 4 20 -4 12 -3 26 2 33
9 11 17 67 10 67 -2 0 -9 -10 -15 -22z"/>
<path d="M14530 6790 c0 -5 5 -10 10 -10 6 0 10 5 10 10 0 6 -4 10 -10 10 -5
0 -10 -4 -10 -10z"/>
<path d="M14465 6720 c3 -5 8 -10 11 -10 2 0 4 5 4 10 0 6 -5 10 -11 10 -5 0
-7 -4 -4 -10z"/>
<path d="M14410 6605 c-8 -9 -8 -15 -2 -15 12 0 26 19 19 26 -2 2 -10 -2 -17
-11z"/>
<path d="M14352 6570 c-12 -19 -11 -20 5 -12 10 6 21 10 26 11 12 2 9 16 -5
19 -7 1 -19 -7 -26 -18z"/>
<path d="M14260 6495 c0 -8 5 -15 10 -15 6 0 10 7 10 15 0 8 -4 15 -10 15 -5
0 -10 -7 -10 -15z"/>
<path d="M2555 5949 c-4 -6 -5 -13 -2 -16 7 -7 27 6 27 18 0 12 -17 12 -25 -2z"/>
<path d="M2409 5920 c-18 -15 -20 -19 -8 -20 9 0 24 9 34 20 23 26 4 26 -26 0z"/>
<path d="M4270 5390 c8 -5 20 -10 25 -10 6 0 3 5 -5 10 -8 5 -19 10 -25 10 -5
0 -3 -5 5 -10z"/>
<path d="M4320 5316 c0 -9 5 -16 10 -16 6 0 10 4 10 9 0 6 -4 13 -10 16 -5 3
-10 -1 -10 -9z"/>
<path d="M4480 5156 c0 -2 8 -10 18 -17 15 -13 16 -12 3 4 -13 16 -21 21 -21
13z"/>
<path d="M4490 5116 c0 -2 8 -10 18 -17 15 -13 16 -12 3 4 -13 16 -21 21 -21
13z"/>
<path d="M2456 5072 c-7 -12 16 -66 34 -77 5 -3 10 -13 10 -21 0 -8 15 -36 33
-62 18 -26 44 -69 57 -95 13 -27 28 -51 34 -54 5 -3 -21 51 -57 122 -37 70
-67 133 -67 141 0 7 -6 17 -14 21 -7 4 -15 15 -18 23 -3 10 -6 11 -12 2z"/>
<path d="M2630 4740 c0 -5 5 -10 11 -10 5 0 7 5 4 10 -3 6 -8 10 -11 10 -2 0
-4 -4 -4 -10z"/>
<path d="M9398 4682 l-37 -17 55 -143 c31 -79 54 -145 51 -148 -2 -3 -16 0
-31 6 -42 16 -117 12 -162 -9 -49 -23 -107 -88 -122 -140 -40 -132 22 -299
138 -369 50 -30 61 -33 121 -30 92 5 153 43 190 117 l27 54 17 -34 c10 -19 19
-36 21 -37 5 -6 74 19 74 26 0 4 -43 117 -97 252 -53 135 -117 299 -143 365
-26 65 -51 120 -56 122 -5 1 -26 -5 -46 -15z m62 -377 c39 -20 59 -48 91 -125
34 -85 37 -136 8 -191 -22 -43 -80 -78 -131 -79 -88 0 -163 79 -189 201 -32
149 93 259 221 194z"/>
<path d="M8739 4160 c-42 -22 -87 -72 -101 -112 -13 -36 -26 -35 -39 2 -12 34
-10 34 -59 19 l-37 -11 58 -139 c32 -77 74 -182 94 -236 53 -141 47 -134 95
-116 22 9 40 19 40 22 0 3 -27 75 -60 159 -64 164 -73 218 -45 273 22 42 71
69 124 69 70 0 103 -44 180 -240 58 -149 64 -160 84 -154 36 11 67 23 67 26 0
21 -145 357 -164 383 -55 71 -160 96 -237 55z"/>
<path d="M8168 3936 c-50 -18 -119 -59 -145 -88 -21 -22 -22 -26 -7 -46 20
-29 35 -28 65 4 33 36 96 64 145 64 36 0 47 -5 73 -35 17 -20 31 -41 30 -48 0
-7 -28 -25 -62 -41 -85 -41 -171 -127 -180 -181 -14 -90 39 -176 120 -193 39
-9 56 -7 99 9 53 20 106 69 119 108 8 27 19 26 39 -4 14 -21 19 -23 46 -14 16
6 32 14 35 19 5 7 -111 297 -143 358 -46 87 -138 122 -234 88z m212 -272 c25
-58 25 -110 0 -151 -36 -60 -129 -84 -169 -44 -25 25 -42 87 -32 114 17 44
125 125 169 127 7 0 22 -21 32 -46z"/>
<path d="M7819 3782 c-27 -28 -40 -51 -45 -80 -8 -51 -19 -53 -34 -6 -14 41
-27 49 -63 35 -33 -13 -34 -24 -1 -97 15 -33 57 -139 95 -238 37 -98 70 -180
72 -182 4 -4 77 24 86 32 2 2 -23 68 -54 146 -65 160 -77 226 -51 277 14 27
58 63 90 74 15 5 -22 77 -40 77 -9 0 -34 -17 -55 -38z"/>
<path d="M7192 3775 c-91 -31 -192 -82 -192 -95 0 -6 50 -137 111 -293 61
-155 120 -306 131 -334 10 -29 24 -55 29 -59 20 -12 179 48 252 95 84 55 112
89 126 152 27 122 -61 239 -179 239 -22 0 -40 2 -40 5 0 2 14 26 30 52 38 59
40 120 7 177 -46 82 -150 105 -275 61z m156 -71 c47 -32 66 -113 39 -160 -7
-12 -25 -32 -42 -46 -39 -31 -136 -71 -147 -60 -14 14 -88 214 -82 224 7 10
61 39 94 49 44 13 114 10 138 -7z m127 -303 c42 -19 85 -85 85 -131 0 -36 -29
-87 -66 -115 -32 -24 -153 -80 -158 -73 -2 2 -9 19 -16 38 -7 19 -21 53 -31
75 -28 64 -59 149 -59 161 0 18 127 60 185 63 11 0 38 -8 60 -18z"/>
<path d="M4756 3743 c-4 -9 -2 -21 4 -27 7 -7 10 -2 10 17 0 31 -5 34 -14 10z"/>
<path d="M3660 3830 c0 -5 5 -10 11 -10 5 0 7 5 4 10 -3 6 -8 10 -11 10 -2 0
-4 -4 -4 -10z"/>
<path d="M3221 3545 c0 -18 28 -61 29 -44 0 8 -7 24 -15 35 -8 10 -14 15 -14
9z"/>
<path d="M3477 3280 c-8 -11 -18 -20 -23 -19 -5 1 -22 -3 -37 -9 -16 -7 -37
-12 -48 -12 -24 0 -23 -27 2 -43 13 -8 21 -6 34 6 9 9 25 17 35 17 11 0 23 6
27 13 4 6 17 17 28 23 11 6 20 17 20 24 0 22 -22 22 -38 0z"/>
<path d="M3365 3280 c-13 -6 -15 -9 -5 -9 8 0 22 4 30 9 18 12 2 12 -25 0z"/>
<path d="M3566 3230 c5 -31 3 -45 -11 -60 -30 -33 -9 -34 24 -1 32 31 32 31
15 66 -22 47 -36 44 -28 -5z"/>
<path d="M3500 3210 c-9 -6 -10 -10 -3 -10 6 0 15 5 18 10 8 12 4 12 -15 0z"/>
<path d="M3400 3170 c-13 -9 -13 -10 0 -10 8 0 22 5 30 10 13 9 13 10 0 10 -8
0 -22 -5 -30 -10z"/>
<path d="M3340 3140 c0 -32 17 -50 47 -50 31 0 29 16 -4 37 -16 10 -31 22 -35
28 -4 5 -8 -1 -8 -15z"/>
<path d="M4502 3350 c-12 -16 -18 -32 -12 -35 9 -5 45 53 38 61 -3 2 -14 -9
-26 -26z"/>
<path d="M4327 2063 c-13 -13 -7 -71 8 -77 8 -3 14 0 12 7 -1 7 5 11 14 9 27
-4 31 28 7 49 -25 20 -31 22 -41 12z"/>
<path d="M4395 2010 c-3 -5 -1 -10 4 -10 6 0 11 5 11 10 0 6 -2 10 -4 10 -3 0
-8 -4 -11 -10z"/>
<path d="M4569 1423 c-13 -16 -12 -17 4 -4 9 7 17 15 17 17 0 8 -8 3 -21 -13z"/>
<path d="M4655 1360 c-3 -6 1 -7 9 -4 18 7 21 14 7 14 -6 0 -13 -4 -16 -10z"/>
<path d="M9585 10593 c-159 -33 -292 -85 -390 -153 -73 -50 -183 -159 -227
-224 -53 -77 -122 -225 -143 -306 -23 -89 -30 -268 -16 -371 50 -341 294 -637
619 -750 208 -73 439 -64 653 23 366 149 597 540 550 931 -15 122 -40 218 -80
303 -134 286 -382 482 -680 540 -70 13 -238 17 -286 7z m350 -161 c493 -170
716 -812 431 -1241 -145 -218 -404 -344 -671 -328 -106 7 -181 25 -273 68
-221 103 -385 305 -453 560 -19 68 -23 110 -23 219 0 125 2 142 33 237 69 213
225 385 426 470 160 68 360 73 530 15z"/>
<path d="M9700 10240 c-143 -35 -226 -81 -328 -182 -167 -165 -202 -422 -87
-648 32 -62 46 -81 115 -150 122 -122 300 -169 474 -124 57 15 177 68 256 114
40 23 160 139 160 154 0 6 -16 27 -36 47 l-37 38 -52 -52 c-60 -61 -167 -128
-245 -154 -38 -12 -85 -18 -150 -18 -87 0 -101 3 -161 32 -84 42 -151 112
-194 206 -46 99 -58 153 -54 239 7 129 73 233 197 306 84 50 180 80 282 88
l79 7 -5 46 c-3 25 -7 52 -10 59 -5 18 -115 14 -204 -8z"/>
<path d="M6496 7968 c-3 -7 -15 -67 -27 -133 -12 -66 -30 -160 -40 -210 -9
-49 -17 -91 -16 -91 1 -1 13 -4 27 -6 23 -3 25 1 42 82 50 252 69 352 66 355
-14 12 -49 14 -52 3z"/>
<path d="M7063 7823 c-16 -3 -23 -12 -23 -26 0 -31 -11 -44 -40 -48 -31 -5
-33 -33 -2 -37 27 -4 27 -11 2 -137 -16 -78 -18 -105 -9 -126 12 -30 55 -52
90 -47 36 5 33 26 -5 42 -42 18 -43 27 -17 156 l17 85 44 0 c34 0 45 4 48 17
3 14 -6 19 -39 24 l-41 7 5 48 c3 27 3 48 -1 48 -4 -1 -17 -4 -29 -6z"/>
<path d="M6613 7663 c-31 -161 -31 -172 8 -173 12 0 20 20 33 88 23 119 34
149 59 167 53 37 127 -2 127 -67 -1 -18 -9 -73 -19 -123 -19 -92 -17 -104 20
-105 12 0 21 27 38 124 22 120 23 125 5 161 -27 58 -107 83 -164 50 -34 -20
-42 -18 -35 5 3 11 2 20 -4 20 -5 0 -16 2 -23 5 -11 5 -21 -29 -45 -152z"/>
<path d="M7607 7783 c-2 -5 -7 -26 -11 -48 -4 -22 -23 -123 -42 -223 -20 -101
-34 -186 -32 -188 2 -2 15 -5 27 -6 23 -3 25 3 61 188 21 105 41 212 45 237 7
46 6 47 -18 47 -14 0 -28 -3 -30 -7z"/>
<path d="M7767 7738 c-3 -13 -19 -95 -36 -183 -16 -88 -35 -182 -41 -209 -8
-39 -8 -51 2 -58 27 -17 43 -2 55 52 29 130 74 394 69 406 -9 23 -43 16 -49
-8z"/>
<path d="M7271 7673 c-51 -25 -82 -81 -88 -155 -3 -51 0 -69 16 -95 35 -55
110 -82 209 -74 25 2 12 31 -14 31 -54 0 -114 23 -139 52 -24 28 -34 81 -17
91 4 3 48 -3 97 -14 121 -25 133 -25 141 7 9 34 -1 90 -21 121 -33 50 -121 67
-184 36z m129 -43 c22 -22 35 -63 27 -84 -5 -11 -19 -11 -89 3 -94 19 -105 33
-63 75 33 33 95 36 125 6z"/>
<path d="M7940 7553 c-54 -20 -100 -100 -100 -175 0 -101 66 -157 183 -158 50
0 57 2 57 20 0 17 -7 20 -45 20 -62 0 -110 22 -129 59 -17 31 -22 81 -8 81 4
0 55 -10 115 -21 59 -12 111 -19 114 -15 11 10 7 97 -6 128 -20 53 -116 85
-181 61z m99 -38 c47 -24 64 -106 22 -105 -33 1 -143 28 -153 38 -15 15 53 82
81 82 12 0 35 -7 50 -15z"/>
<path d="M8575 7518 c-2 -7 -5 -24 -7 -38 -3 -21 -8 -24 -30 -22 -23 3 -28 -1
-28 -17 0 -14 6 -21 20 -21 24 0 26 -26 5 -120 -21 -94 -19 -146 5 -170 22
-22 63 -35 85 -26 24 9 17 35 -10 42 -44 11 -48 35 -26 144 12 54 21 101 21
104 0 3 20 3 45 -1 40 -5 45 -4 45 14 0 16 -9 22 -40 27 -44 7 -43 5 -31 59 9
36 8 37 -20 37 -16 0 -32 -6 -34 -12z"/>
<path d="M8294 7489 c-70 -21 -122 -118 -110 -202 13 -84 71 -127 171 -127 48
0 56 2 53 18 -2 12 -16 19 -53 23 -66 8 -83 16 -100 50 -31 58 -12 149 37 183
26 18 84 21 124 6 21 -8 31 -8 42 4 13 12 11 16 -14 29 -39 20 -112 28 -150
16z"/>
<path d="M9497 7358 c-27 -126 -77 -385 -77 -397 0 -7 11 -11 27 -9 25 3 27 8
49 113 43 208 67 345 63 349 -2 2 -14 6 -25 10 -20 6 -23 1 -37 -66z"/>
<path d="M8776 7398 c-10 -30 -36 -195 -36 -226 0 -40 23 -88 49 -102 29 -15
104 -12 127 5 27 20 34 19 31 -7 -1 -16 4 -24 19 -26 18 -3 22 10 50 155 l31
158 -26 7 c-14 4 -26 6 -26 5 -1 -1 -11 -51 -23 -112 -18 -92 -25 -114 -48
-133 -19 -17 -36 -22 -63 -20 -30 2 -39 9 -53 38 -16 33 -16 40 4 143 12 59
19 109 17 111 -15 13 -50 16 -53 4z"/>
<path d="M9157 7323 c-4 -3 -7 -14 -7 -23 0 -13 7 -16 30 -12 16 2 46 1 66 -2
28 -6 38 -14 50 -42 8 -19 12 -39 9 -44 -3 -5 -35 -9 -70 -8 -77 1 -121 -15
-140 -53 -51 -98 52 -181 158 -127 13 7 17 4 17 -12 0 -14 7 -20 24 -20 22 0
25 7 45 112 13 63 20 125 17 143 -8 41 -47 81 -87 89 -41 8 -104 8 -112 -1z
m131 -178 c12 -12 -12 -77 -35 -95 -31 -24 -61 -26 -91 -4 -39 27 -24 87 28
107 15 6 90 0 98 -8z"/>
<path d="M6630 7105 c0 -3 -18 -101 -40 -217 -31 -164 -37 -214 -27 -220 15
-10 37 -10 38 0 0 4 8 43 17 87 13 61 21 79 32 76 124 -29 206 4 229 95 17 66
1 107 -52 138 -46 27 -197 58 -197 41z m131 -57 c62 -22 84 -73 57 -133 -18
-39 -60 -57 -113 -49 -24 3 -48 11 -53 18 -8 9 8 119 23 164 5 15 42 16 86 0z"/>
<path d="M6957 6914 c-4 -4 -7 -19 -8 -33 0 -14 -10 -78 -23 -141 -23 -116
-21 -150 9 -150 15 0 27 35 44 133 12 64 15 72 44 105 14 14 32 22 54 22 29 0
33 3 33 25 0 21 -5 25 -29 25 -15 0 -40 -9 -54 -20 l-26 -20 -3 27 c-3 27 -26
42 -41 27z"/>
<path d="M7193 6840 c-69 -42 -99 -169 -57 -242 22 -38 93 -78 139 -78 17 0
51 10 75 23 110 55 122 227 21 294 -45 30 -132 32 -178 3z m162 -52 c24 -29
27 -38 23 -95 -3 -52 -9 -68 -33 -93 -42 -43 -86 -49 -130 -16 -58 45 -60 137
-3 201 26 30 36 35 73 35 36 0 48 -5 70 -32z"/>
<path d="M7545 6797 c-2 -7 -11 -55 -20 -107 -9 -52 -25 -139 -36 -194 -23
-119 -24 -142 -3 -150 28 -11 31 -7 44 69 7 42 16 78 21 80 4 3 19 -5 33 -19
53 -48 143 -40 194 19 61 69 65 186 8 251 -29 35 -121 46 -161 20 -32 -21 -35
-20 -35 8 0 25 -38 45 -45 23z m198 -88 c19 -21 27 -40 27 -67 0 -120 -72
-183 -159 -137 -44 22 -55 61 -37 130 29 113 103 146 169 74z"/>
<path d="M7960 6698 c-50 -34 -69 -67 -80 -133 -9 -54 -7 -65 13 -104 29 -58
77 -84 160 -85 51 -1 62 2 65 17 3 14 -4 17 -43 17 -51 0 -103 18 -123 43 -17
20 -32 81 -23 95 4 6 43 3 110 -10 57 -10 110 -17 117 -14 20 8 18 84 -4 126
-33 67 -129 90 -192 48z m130 -38 c34 -34 40 -110 7 -97 -6 2 -45 10 -84 17
-83 15 -89 25 -44 71 36 35 90 40 121 9z"/>
<path d="M8535 6688 c-2 -7 -5 -24 -7 -38 -2 -21 -8 -25 -30 -22 -22 2 -28 -1
-28 -17 0 -11 9 -22 20 -26 24 -8 24 -17 5 -118 -28 -145 -15 -184 63 -194 38
-5 42 -4 42 16 0 11 -6 21 -14 21 -8 0 -24 8 -36 18 l-22 18 16 89 c27 148 20
135 71 128 40 -5 45 -4 45 14 0 16 -9 22 -41 27 l-40 6 7 45 c6 44 5 45 -20
45 -15 0 -29 -6 -31 -12z"/>
<path d="M8247 6517 c-15 -83 -27 -158 -27 -164 0 -7 11 -13 24 -13 26 0 24
-7 56 152 13 67 55 111 99 106 20 -2 27 2 29 20 2 13 -3 25 -13 28 -19 8 -85
-20 -85 -36 0 -5 -5 -10 -10 -10 -6 0 -8 11 -4 26 7 25 -6 43 -31 44 -5 0 -22
-69 -38 -153z"/>
<path d="M8700 6578 c0 -5 11 -59 24 -121 49 -222 48 -204 14 -242 -16 -19
-45 -40 -64 -47 -26 -9 -34 -18 -34 -36 0 -21 3 -23 28 -17 70 17 123 70 207
210 27 44 54 87 60 95 7 8 24 36 38 62 l26 46 -26 7 c-20 5 -29 2 -37 -12 -51
-84 -68 -115 -92 -160 -15 -29 -31 -53 -34 -53 -4 0 -11 21 -14 48 -4 26 -14
86 -23 134 -15 83 -16 86 -44 90 -16 3 -29 1 -29 -4z"/>
<path d="M18329 6192 c-26 -3 -27 -4 -22 -70 2 -37 5 -77 7 -89 3 -23 -17 -32
-28 -14 -4 5 -24 12 -46 16 -31 5 -51 2 -84 -15 -59 -28 -78 -60 -83 -139 -6
-85 23 -147 80 -175 49 -24 119 -15 154 20 29 29 33 30 33 4 0 -15 7 -20 28
-20 l28 0 -7 73 c-4 39 -10 142 -14 227 -4 85 -10 162 -14 170 -4 9 -16 14
-32 12z m-48 -215 c25 -19 37 -48 39 -97 4 -76 1 -90 -26 -115 -66 -61 -164
-2 -164 100 0 45 22 100 47 114 24 14 84 13 104 -2z"/>
<path d="M17266 6109 c-113 -8 -131 -14 -120 -42 5 -14 20 -17 75 -17 48 0 69
-4 70 -12 0 -7 6 -98 12 -203 l12 -190 29 2 c16 1 29 3 30 5 1 2 -1 64 -5 138
-4 74 -9 164 -11 200 l-3 65 35 3 c85 6 100 12 100 37 0 24 -3 25 -57 24 -32
-1 -107 -5 -167 -10z"/>
<path d="M19443 6098 c-24 -11 -30 -32 -13 -43 16 -10 50 14 50 35 0 22 -5 23
-37 8z"/>
<path d="M19154 6086 c-17 -8 -39 -24 -48 -37 l-16 -23 -15 21 c-33 47 -125
47 -164 0 -18 -22 -28 -21 -34 3 -3 12 -14 20 -27 20 -22 0 -22 -1 -15 -137 8
-187 10 -193 46 -193 l29 0 -6 93 c-3 50 -7 97 -9 104 -9 27 17 72 50 88 31
14 38 14 64 1 34 -18 38 -30 47 -168 l7 -108 28 0 29 0 -7 124 c-6 124 -6 124
20 150 30 30 66 33 97 8 23 -19 39 -104 40 -215 0 -58 0 -58 28 -55 l27 3 -3
119 c-3 122 -11 154 -50 189 -27 24 -80 30 -118 13z"/>
<path d="M18555 6051 c-63 -27 -103 -114 -91 -195 16 -101 85 -147 204 -135
35 4 68 11 73 16 15 15 -1 45 -20 37 -9 -4 -41 -9 -72 -11 -51 -5 -59 -3 -87
23 -17 16 -34 41 -37 55 -6 23 -3 27 26 33 17 3 64 6 104 6 41 0 80 3 89 6 33
13 10 99 -38 143 -28 26 -113 39 -151 22z m99 -42 c26 -12 52 -67 39 -80 -5
-4 -45 -9 -90 -11 -78 -3 -83 -2 -83 17 0 27 27 64 54 75 30 12 51 12 80 -1z"/>
<path d="M17795 6006 c-28 -9 -40 -18 -40 -32 0 -13 6 -18 20 -16 11 2 35 6
52 9 48 8 78 -3 91 -32 18 -39 16 -42 -45 -54 -82 -16 -120 -41 -133 -90 -26
-98 63 -153 165 -101 47 24 45 24 45 5 0 -15 17 -19 42 -10 11 4 12 26 6 113
-9 123 -19 160 -51 190 -29 27 -98 35 -152 18z m138 -188 c10 -64 -41 -118
-97 -104 -62 16 -53 98 14 122 61 22 77 18 83 -18z"/>
<path d="M17639 5999 c-14 -5 -32 -21 -39 -34 -14 -27 -30 -24 -30 6 0 14 -7
19 -25 19 -30 0 -29 10 -13 -182 l11 -148 28 0 28 0 -2 119 c-2 114 -1 120 22
145 14 14 35 26 48 26 20 0 24 4 21 27 -4 31 -13 35 -49 22z"/>
<path d="M19435 5935 c-34 -35 -35 -102 -2 -132 43 -39 44 -38 43 62 0 52 -4
95 -8 95 -4 0 -19 -11 -33 -25z"/>
<path d="M12372 4018 c-29 -29 -3 -72 40 -66 19 2 23 9 23 38 0 30 -4 35 -25
38 -14 2 -31 -3 -38 -10z"/>
<path d="M11984 3923 c3 -54 8 -179 12 -277 l6 -179 91 7 c49 3 116 6 149 6
55 0 58 1 58 25 l0 25 -114 0 -113 0 -7 38 c-3 20 -6 87 -6 147 0 61 -3 154
-7 208 l-6 97 -35 0 -34 0 6 -97z"/>
<path d="M14223 3939 c-105 -30 -154 -197 -92 -309 33 -58 78 -82 156 -84 37
0 85 3 106 7 30 7 37 12 37 32 0 29 1 28 -70 15 -93 -18 -171 23 -186 96 l-6
31 144 9 143 9 -3 38 c-12 127 -106 192 -229 156z m113 -54 c26 -17 48 -69 40
-90 -4 -12 -25 -15 -106 -15 -55 0 -100 4 -100 9 0 25 23 68 48 88 31 27 87
30 118 8z"/>
<path d="M13885 3931 c-72 -18 -95 -45 -95 -110 0 -51 21 -73 104 -111 79 -35
97 -69 56 -110 -22 -22 -81 -27 -123 -11 -21 8 -26 6 -36 -15 -10 -22 -8 -26
15 -34 75 -29 198 1 222 55 34 74 2 128 -98 168 -84 34 -101 69 -53 107 20 16
36 20 58 16 62 -12 67 -11 76 11 7 20 4 23 -29 33 -41 11 -54 11 -97 1z"/>
<path d="M13475 3908 c-11 -6 -30 -20 -42 -31 l-22 -20 -7 27 c-5 20 -12 26
-34 26 l-29 0 5 -92 c3 -51 7 -139 10 -196 l6 -103 32 3 31 3 -3 135 -4 135
30 35 c25 29 36 35 71 35 79 0 99 -53 100 -257 l1 -78 36 0 37 0 -5 143 c-6
157 -16 190 -67 226 -32 23 -112 28 -146 9z"/>
<path d="M13038 3900 c-74 -22 -119 -87 -126 -181 -9 -124 51 -202 163 -214
62 -6 156 11 162 30 1 6 -1 16 -6 24 -7 11 -15 11 -41 2 -68 -23 -143 -9 -181
35 -20 23 -40 82 -31 88 4 2 65 7 137 11 71 3 133 9 138 12 12 7 -3 94 -22
123 -43 68 -114 94 -193 70z m119 -76 c21 -23 33 -44 31 -58 -3 -20 -10 -21
-110 -24 l-107 -3 9 33 c14 48 62 88 106 88 29 0 44 -8 71 -36z"/>
<path d="M12713 3890 c-62 -9 -105 -38 -140 -92 -22 -36 -25 -49 -21 -118 3
-66 7 -82 31 -113 16 -21 39 -44 52 -53 33 -21 130 -29 183 -15 38 11 42 15
36 34 -3 12 -7 23 -8 24 -1 1 -19 -3 -41 -9 -86 -23 -163 20 -185 102 -15 56
1 118 42 157 27 26 36 28 103 28 69 0 74 2 78 23 2 12 2 24 -2 26 -17 10 -82
13 -128 6z"/>
<path d="M12380 3778 c0 -57 3 -147 7 -200 6 -96 6 -97 32 -95 26 2 26 3 29
97 2 52 0 141 -3 198 l-7 102 -29 0 -29 0 0 -102z"/>
<path d="M16782 3292 c-27 -90 -153 -560 -159 -594 -4 -19 0 -27 14 -31 209
-62 363 -101 369 -94 3 3 7 20 7 38 l2 32 -140 39 c-77 22 -142 41 -144 43 -2
2 33 138 78 301 45 164 78 301 74 305 -4 4 -25 12 -45 17 l-37 10 -19 -66z"/>
<path d="M17265 3011 c-25 -5 -31 -12 -33 -38 l-3 -33 43 6 c99 14 188 -40
188 -115 0 -22 -3 -42 -7 -44 -5 -3 -41 1 -82 8 -40 7 -81 11 -90 9 -9 -1 -33
-6 -54 -9 -42 -7 -104 -56 -119 -94 -5 -14 -10 -45 -10 -69 0 -107 133 -175
249 -127 46 20 46 20 38 -14 -6 -26 -3 -29 35 -39 39 -10 40 -9 46 17 3 14 21
85 39 156 45 174 48 189 40 236 -10 56 -63 114 -123 133 -61 19 -119 26 -157
17z m149 -287 c23 -5 23 -7 11 -53 -16 -62 -34 -88 -71 -106 -52 -25 -111 -17
-147 20 -36 35 -9 124 43 145 24 9 116 6 164 -6z"/>
<path d="M17675 2863 c1 -26 6 -143 10 -259 4 -117 10 -216 14 -222 3 -6 22
-13 42 -17 35 -6 35 -6 93 77 31 46 83 123 114 173 52 82 57 87 59 60 2 -17 7
-110 12 -208 5 -98 11 -180 14 -183 3 -3 23 -8 45 -11 35 -5 42 -2 53 18 6 13
55 89 107 169 52 80 111 169 130 198 19 29 33 54 31 56 -2 2 -21 8 -41 14 -30
8 -39 7 -51 -6 -17 -20 -121 -193 -166 -277 -47 -87 -51 -88 -51 -9 0 126 -12
359 -19 366 -4 4 -21 10 -37 14 -28 5 -34 2 -58 -33 -44 -62 -164 -250 -180
-282 -9 -16 -20 -32 -25 -35 -5 -3 -7 87 -4 208 4 238 10 216 -64 231 l-31 6
3 -48z"/>
<path d="M19459 2232 c-13 -51 -13 -62 -2 -62 19 0 25 20 21 75 l-3 48 -16
-61z"/>
<path d="M12793 2178 c-6 -18 -54 -152 -108 -298 -156 -428 -238 -661 -234
-664 2 -1 30 -12 62 -24 l58 -22 10 28 c6 15 40 108 75 207 36 99 87 239 114
310 26 72 65 177 85 235 20 58 45 128 56 157 10 29 15 54 11 57 -6 3 -114 46
-118 46 0 0 -5 -15 -11 -32z"/>
<path d="M13656 1927 c-7 -18 -34 -93 -60 -167 -66 -188 -72 -204 -84 -208 -5
-1 -12 8 -15 20 -19 75 -143 157 -249 165 -154 12 -280 -72 -358 -238 -55
-118 -63 -259 -20 -355 25 -58 89 -125 146 -153 88 -44 215 -39 287 11 16 11
30 18 33 16 2 -3 -3 -28 -12 -57 -8 -29 -13 -55 -11 -58 3 -2 28 -13 56 -24
39 -15 53 -16 56 -7 3 7 13 40 24 73 22 68 196 557 212 595 11 26 74 198 111
303 11 33 16 63 12 67 -5 5 -33 17 -62 28 l-52 20 -14 -31z m-306 -328 c51
-29 90 -86 102 -148 8 -44 4 -63 -27 -159 -42 -129 -76 -181 -141 -212 -118
-57 -254 0 -294 124 -17 53 -8 157 20 231 27 70 114 164 170 183 48 15 123 7
170 -19z"/>
<path d="M13961 1409 c-119 -38 -231 -179 -262 -328 -47 -225 75 -396 326
-456 39 -9 93 -15 120 -13 l50 3 3 48 c2 31 -1 47 -7 43 -17 -11 -138 13 -205
40 -111 44 -170 126 -169 235 1 69 10 99 29 99 8 0 112 -36 231 -81 284 -105
266 -103 288 -42 81 231 -8 416 -223 462 -73 15 -106 13 -181 -10z m202 -93
c76 -32 124 -122 111 -205 -12 -75 -11 -75 -199 -7 -225 82 -212 73 -177 122
17 22 51 55 78 72 38 26 58 32 101 32 30 0 68 -6 86 -14z"/>
<path d="M8908 1326 c-104 -28 -172 -124 -172 -245 1 -126 64 -196 201 -220
68 -13 93 -7 93 20 0 15 -7 19 -36 19 -137 0 -223 100 -194 227 31 139 160
201 276 133 23 -13 35 -15 43 -7 21 21 11 38 -31 56 -60 25 -125 31 -180 17z"/>
<path d="M18945 1199 c-68 -19 -104 -79 -80 -135 15 -37 46 -54 99 -54 73 0
116 -32 100 -74 -9 -23 -56 -46 -94 -46 -27 0 -31 -3 -28 -22 3 -20 8 -23 42
-20 113 9 175 106 113 177 -18 22 -33 27 -87 32 -80 7 -100 17 -100 48 0 27
27 49 73 60 17 5 27 14 27 26 0 21 -16 23 -65 8z"/>
<path d="M14630 1133 l0 -48 83 0 c174 -1 272 -93 237 -222 -8 -25 -18 -42
-24 -40 -133 51 -309 64 -388 29 -67 -30 -105 -67 -127 -128 -46 -121 -4 -226
114 -287 61 -31 178 -35 239 -8 l48 21 -7 -49 -6 -48 51 -17 c29 -9 54 -15 57
-13 2 3 19 51 37 108 19 57 56 167 84 244 28 77 53 165 57 195 7 65 -11 135
-49 185 -56 73 -194 125 -330 125 l-76 0 0 -47z m179 -372 c40 -11 78 -24 84
-30 7 -7 2 -33 -17 -85 -29 -80 -73 -131 -121 -141 -14 -3 -36 -7 -49 -10 -40
-8 -122 22 -150 56 -53 62 -25 166 54 207 54 27 104 28 199 3z"/>
<path d="M18625 1160 c-15 -17 -16 -24 -7 -46 17 -36 15 -52 -9 -59 -12 -4
-19 -13 -17 -23 4 -16 16 -19 46 -11 9 3 31 -35 63 -106 27 -60 57 -116 66
-122 25 -19 87 -16 113 5 32 26 18 44 -29 36 -25 -4 -40 -2 -48 8 -10 13 -93
193 -93 203 0 3 18 12 40 21 34 14 38 19 29 35 -9 18 -12 18 -46 4 -19 -8 -37
-15 -40 -15 -2 0 -12 20 -23 45 -11 25 -21 45 -23 45 -2 0 -12 -9 -22 -20z"/>
<path d="M9214 1119 c-47 -13 -90 -68 -105 -133 -10 -48 -10 -61 5 -99 22 -58
51 -83 109 -97 114 -25 195 40 204 164 6 77 -16 121 -77 153 -45 24 -84 27
-136 12z m106 -46 c38 -22 53 -53 53 -107 0 -113 -116 -183 -183 -111 -52 56
-26 190 42 220 43 19 54 18 88 -2z"/>
<path d="M9536 1038 c-2 -12 -26 -111 -51 -218 -26 -107 -48 -199 -49 -205 0
-5 11 -11 25 -13 25 -3 27 1 44 70 9 40 19 76 22 80 2 4 17 -7 33 -25 26 -30
33 -32 93 -32 56 0 69 4 92 25 91 85 90 234 -1 291 -37 23 -88 24 -128 4 -37
-20 -39 -19 -32 10 4 14 2 25 -3 25 -5 0 -16 3 -25 6 -10 4 -17 -1 -20 -18z
m190 -79 c62 -58 20 -205 -65 -224 -67 -15 -118 43 -107 121 16 116 103 168
172 103z"/>
<path d="M18425 985 c-91 -32 -123 -116 -85 -218 30 -79 73 -112 149 -112 38
1 71 8 104 24 51 25 63 40 53 67 -6 15 -8 15 -24 2 -32 -29 -81 -48 -122 -48
-33 0 -48 6 -71 29 -36 37 -36 49 -1 62 107 39 182 76 182 89 0 27 -48 87 -83
104 -42 19 -50 19 -102 1z m94 -59 c13 -14 21 -30 19 -37 -2 -6 -37 -25 -78
-41 -81 -32 -95 -28 -85 27 13 72 97 101 144 51z"/>
<path d="M9880 962 c0 -6 9 -70 20 -144 11 -73 20 -147 20 -165 0 -38 -27 -67
-87 -95 -69 -30 -50 -72 21 -48 42 14 121 96 192 200 27 41 67 99 87 127 20
29 37 57 37 62 0 5 -11 11 -25 13 -25 5 -43 -18 -145 -187 l-24 -39 -7 29 c-4
17 -13 77 -19 135 -6 58 -12 106 -13 107 -9 9 -57 13 -57 5z"/>
<path d="M10486 944 c-9 -8 -16 -18 -16 -22 1 -39 63 -42 68 -3 6 37 -26 52
-52 25z"/>
<path d="M18196 879 c-14 -17 -26 -38 -27 -47 0 -14 -3 -13 -15 4 -14 20 -54
24 -54 5 0 -19 127 -300 136 -301 5 0 18 6 27 13 14 11 12 20 -23 102 -49 112
-50 146 -10 187 21 21 29 36 25 49 -9 27 -30 23 -59 -12z"/>
<path d="M10197 728 c-20 -83 -34 -155 -30 -159 5 -4 17 -9 27 -11 16 -2 22 7
33 52 39 162 55 189 121 199 28 5 38 11 40 29 3 19 -1 22 -30 22 -18 0 -44 -7
-56 -16 -21 -14 -22 -14 -22 10 0 20 -5 26 -22 26 -21 0 -26 -12 -61 -152z"/>
<path d="M11021 813 c-48 -179 -102 -417 -97 -428 3 -8 14 -15 25 -15 20 0 32
30 61 157 17 75 42 103 91 103 47 0 79 -28 79 -69 0 -16 -11 -74 -24 -130 -24
-104 -23 -111 18 -111 18 0 70 229 62 268 -8 34 -39 66 -79 81 -21 8 -38 7
-69 -4 -23 -8 -44 -13 -45 -11 -2 1 6 40 18 86 22 90 20 110 -10 110 -15 0
-23 -10 -30 -37z"/>
<path d="M10418 673 c-38 -161 -38 -172 3 -173 21 0 95 310 77 322 -36 22 -43
9 -80 -149z"/>
<path d="M17978 800 c-89 -16 -156 -102 -144 -183 15 -95 84 -167 160 -167 41
0 137 38 151 59 4 7 1 18 -5 26 -10 12 -16 11 -39 -6 -36 -26 -93 -35 -131
-19 -37 15 -80 84 -80 129 0 66 54 121 120 121 13 0 20 7 20 19 0 26 -8 29
-52 21z"/>
<path d="M12165 788 c-2 -7 -22 -92 -46 -188 -23 -96 -65 -271 -94 -387 l-52
-213 1186 0 c652 0 1181 4 1175 8 -5 5 -31 17 -59 27 -27 10 -113 41 -190 71
-179 67 -588 217 -915 333 -252 91 -302 109 -759 276 -128 47 -235 85 -237 85
-3 0 -6 -6 -9 -12z"/>
<path d="M10653 770 c-42 -14 -80 -60 -98 -125 -24 -82 4 -158 71 -190 37 -17
96 -14 122 7 22 18 14 -36 -11 -73 -20 -31 -28 -34 -76 -37 -39 -2 -61 2 -87
17 -43 25 -41 25 -53 2 -9 -16 -3 -22 44 -45 57 -27 112 -33 161 -16 48 17 78
77 118 233 19 78 38 152 42 163 7 26 -29 40 -47 18 -10 -13 -17 -10 -44 16
-36 35 -88 46 -142 30z m109 -51 c37 -20 48 -67 33 -134 -21 -88 -74 -123
-140 -92 -45 22 -61 70 -45 137 19 81 90 122 152 89z"/>
<path d="M11389 663 c-5 -16 -11 -33 -14 -39 -2 -7 -15 -9 -29 -7 -21 4 -26 1
-26 -15 0 -12 9 -23 20 -27 25 -8 25 -18 -1 -117 -27 -106 -23 -169 11 -185
14 -6 38 -13 55 -15 41 -4 47 26 6 40 -16 6 -32 19 -35 29 -3 10 5 63 17 118
24 108 25 108 92 94 14 -3 21 2 23 17 2 16 -5 22 -35 30 -40 10 -41 12 -28 72
7 30 6 32 -19 32 -20 0 -29 -7 -37 -27z"/>
<path d="M17220 638 c-60 -30 -95 -95 -80 -149 17 -62 47 -80 154 -93 128 -15
165 -49 131 -119 -18 -39 -49 -56 -118 -64 -42 -5 -48 -9 -45 -27 7 -52 182 4
212 68 22 48 20 97 -7 137 -27 41 -71 58 -150 58 -69 1 -114 22 -123 57 -13
53 27 93 109 108 28 5 37 12 37 26 0 28 -63 27 -120 -2z"/>
<path d="M17577 635 c-46 -32 -67 -72 -67 -127 1 -57 28 -116 74 -156 32 -27
44 -32 89 -32 36 1 68 9 106 28 57 29 66 39 53 59 -5 9 -25 3 -71 -19 -61 -31
-64 -31 -104 -17 -26 9 -47 24 -57 42 -19 34 -19 33 108 83 50 19 92 40 92 45
0 17 -49 87 -72 103 -35 25 -107 21 -151 -9z m129 -40 c14 -14 24 -31 22 -37
-4 -12 -131 -68 -155 -68 -24 0 -16 65 13 99 34 40 83 43 120 6z"/>
<path d="M19380 362 c-164 -62 -465 -181 -670 -265 l-225 -92 237 -3 c269 -3
340 7 448 60 89 43 205 160 250 251 18 37 31 69 29 71 -2 1 -33 -8 -69 -22z"/>
<path d="M16502 362 c-10 -7 -5 -27 23 -93 19 -46 35 -85 35 -87 0 -2 -13 -1
-30 3 -68 15 -140 -31 -159 -101 -15 -54 -5 -84 28 -84 25 0 26 3 26 50 0 60
23 88 78 97 33 5 41 2 70 -29 18 -19 39 -54 46 -76 13 -38 17 -42 48 -42 18 0
33 1 33 3 0 1 -21 49 -46 107 -25 58 -59 140 -76 183 -31 76 -44 89 -76 69z"/>
<path d="M16802 320 c-47 -29 -72 -76 -72 -135 0 -60 32 -129 73 -159 42 -31
136 -29 200 4 57 29 63 36 46 56 -10 12 -14 12 -28 1 -9 -8 -37 -22 -63 -32
-56 -21 -105 -9 -138 33 -27 34 -20 40 103 87 53 20 97 42 97 49 0 16 -45 77
-73 98 -31 24 -104 23 -145 -2z m120 -49 c39 -35 36 -40 -51 -75 -81 -33 -91
-33 -91 2 0 46 10 67 38 85 39 24 67 21 104 -12z"/>
<path d="M16092 26 l-32 -23 104 0 c85 0 103 2 99 14 -16 40 -121 46 -171 9z"/>
<path d="M15710 10 c-11 -7 -7 -10 18 -10 20 0 31 4 27 10 -8 13 -26 13 -45 0z"/>
</g>
</svg>
