<?xml version="1.0" standalone="no"?>
<!DOCTYPE svg PUBLIC "-//W3C//DTD SVG 20010904//EN"
 "http://www.w3.org/TR/2001/REC-SVG-20010904/DTD/svg10.dtd">
<svg version="1.0" xmlns="http://www.w3.org/2000/svg"
 width="1948.000000pt" height="1161.000000pt" viewBox="0 0 1948.000000 1161.000000"
 preserveAspectRatio="xMidYMid meet">

<g transform="translate(0.000000,1161.000000) scale(0.100000,-0.100000)"
fill="#000000" stroke="none">
<path d="M6225 11577 c-41 -49 -62 -107 -38 -107 9 0 11 -5 7 -12 -4 -7 14 11
42 41 27 30 57 62 67 72 16 18 16 19 -25 19 -24 -1 -48 -6 -53 -13z"/>
<path d="M9482 11556 c-114 -71 -130 -98 -97 -163 15 -28 26 -68 27 -95 1 -27
5 -48 9 -48 4 0 26 15 48 34 106 88 216 126 307 106 43 -10 236 -112 430 -228
176 -105 1228 -737 1344 -807 74 -45 236 -142 360 -215 124 -73 347 -206 495
-295 421 -251 1031 -616 1350 -805 160 -95 317 -189 350 -210 33 -20 161 -97
285 -170 216 -128 685 -407 990 -590 80 -48 262 -157 405 -242 980 -584 1751
-1044 1850 -1103 104 -62 657 -392 911 -543 121 -72 237 -148 258 -169 62 -62
79 -122 55 -191 -6 -18 -134 -197 -285 -399 -151 -203 -341 -458 -422 -568
-82 -110 -256 -344 -387 -520 -131 -176 -304 -408 -384 -515 -79 -107 -262
-352 -406 -545 -143 -192 -296 -397 -338 -455 -43 -58 -88 -118 -101 -135 -38
-48 -1043 -1399 -1173 -1576 -38 -52 -48 -59 -120 -84 -43 -15 -92 -28 -109
-28 -27 -1 -31 -5 -41 -41 -5 -23 -24 -92 -41 -154 -37 -131 -39 -167 -13
-226 23 -49 108 -132 144 -141 37 -10 60 -3 67 20 3 11 13 32 23 46 9 14 24
60 32 100 17 90 27 118 53 145 11 12 22 29 23 39 5 25 56 51 104 53 53 1 141
19 103 21 -22 1 -28 6 -28 23 0 12 -7 29 -16 39 -15 17 -15 18 12 13 16 -2 24
-1 17 4 -7 4 -9 13 -4 20 13 22 59 3 119 -50 l57 -49 25 29 c24 28 89 115 304
412 57 80 116 161 131 180 15 19 88 119 163 221 75 103 173 236 217 295 44 60
122 168 174 239 52 72 117 162 146 200 213 288 307 416 381 519 27 37 96 132
154 211 106 144 255 346 374 510 37 50 132 180 214 290 81 109 207 280 280
380 73 99 139 187 145 195 7 8 86 113 176 234 121 162 166 215 173 205 6 -10
7 -7 3 9 -5 16 -2 22 10 22 10 0 13 -5 9 -12 -4 -7 -3 -8 4 -4 7 4 12 16 12
27 0 20 17 59 30 69 3 3 20 25 37 50 17 25 40 54 52 64 11 10 32 38 46 61 13
24 38 54 54 68 43 36 159 208 187 277 13 32 29 101 35 152 11 90 10 96 -16
173 -38 113 -79 180 -161 261 -97 96 -223 178 -664 432 -199 115 -247 143
-342 203 -40 26 -170 103 -288 172 -160 94 -221 135 -238 161 -28 42 -22 56
23 56 18 0 86 9 152 20 95 17 162 21 341 21 221 -1 245 -3 492 -47 260 -47
578 -169 818 -313 l82 -49 0 209 0 209 -57 29 c-84 42 -332 135 -453 170 -554
160 -1100 173 -1550 36 -47 -15 -105 -31 -130 -37 -32 -7 -56 -22 -81 -49 -22
-23 -46 -39 -59 -39 -13 0 -147 73 -298 163 -151 89 -293 173 -316 186 -23 12
-66 38 -96 55 -259 153 -397 234 -745 439 -220 129 -503 295 -630 369 -126 74
-329 193 -450 265 -121 71 -276 163 -345 203 -69 41 -273 161 -455 269 -181
107 -384 226 -450 264 -66 38 -228 133 -360 212 -132 78 -314 186 -405 240
-91 53 -182 113 -203 132 -22 19 -51 40 -66 47 -14 6 -69 37 -121 68 -52 31
-113 66 -135 78 -22 12 -161 92 -310 178 -148 85 -319 183 -380 217 -60 34
-254 147 -430 250 -176 103 -396 230 -490 283 -93 52 -217 123 -275 157 -58
35 -138 79 -177 99 l-73 36 -202 -1 -203 -1 -53 -32z m7818 -4155 c0 -5 16
-18 35 -30 19 -11 35 -28 35 -37 0 -10 5 -14 15 -10 8 3 15 1 15 -5 0 -23 -32
-19 -87 11 -32 18 -65 39 -73 47 -13 12 -13 15 0 23 19 12 60 13 60 1z m125
-119 c-3 -3 -11 0 -18 7 -9 10 -8 11 6 5 10 -3 15 -9 12 -12z"/>
<path d="M3685 11232 c-16 -1 -50 -9 -75 -17 -25 -7 -66 -16 -92 -20 -27 -3
-48 -10 -48 -14 0 -4 -24 -18 -52 -30 -43 -19 -58 -21 -85 -13 -45 14 -55 -5
-17 -34 16 -12 60 -39 98 -59 67 -35 72 -36 160 -34 50 2 96 0 103 -4 6 -4 21
-27 33 -52 33 -69 118 -110 262 -129 27 -3 60 -9 75 -12 48 -11 5 21 -47 36
-64 18 -130 85 -130 132 0 46 31 85 80 99 l38 12 -1 52 c-1 36 -5 50 -12 45
-6 -5 -37 -5 -68 -1 -32 4 -60 4 -63 -1 -3 -4 -2 -8 3 -9 19 -1 -34 -18 -60
-18 -19 -1 -27 3 -24 12 2 6 10 11 17 9 7 -2 20 0 28 3 13 5 12 8 -3 25 -17
19 -19 19 -32 2 -11 -12 -16 -14 -19 -4 -8 18 -35 28 -69 24z"/>
<path d="M10041 11116 c-15 -18 -7 -33 19 -36 27 -4 40 0 40 11 0 6 -8 8 -19
4 -15 -4 -20 -1 -23 16 -3 21 -4 21 -17 5z"/>
<path d="M10130 11060 c-11 -7 -12 -12 -3 -21 8 -8 14 -6 22 10 12 22 5 27
-19 11z"/>
<path d="M2652 11014 c-33 -23 -172 -90 -214 -104 -21 -6 -40 -15 -43 -20 -17
-27 54 -80 110 -82 55 -2 95 30 159 128 45 68 53 94 29 94 -10 0 -29 -7 -41
-16z"/>
<path d="M3000 10998 c0 -8 17 -18 42 -24 26 -6 49 -19 61 -36 18 -24 19 -32
8 -68 -15 -52 -49 -75 -99 -67 -41 7 -82 48 -82 83 0 26 -17 34 -69 34 -76 0
-160 -99 -146 -172 13 -68 88 -120 200 -138 38 -6 89 -20 114 -31 59 -26 70
-25 162 16 124 54 190 68 291 61 55 -4 89 -3 93 4 3 5 27 24 52 41 45 31 46
31 100 19 30 -6 57 -9 60 -6 8 7 -53 62 -92 83 -18 10 -59 18 -105 20 -88 3
-122 15 -141 50 -19 36 -107 73 -220 93 -93 17 -193 38 -211 45 -12 5 -18 2
-18 -7z"/>
<path d="M10240 10990 c-9 -6 -10 -10 -3 -10 6 0 15 5 18 10 8 12 4 12 -15 0z"/>
<path d="M10292 10949 c2 -7 10 -15 17 -17 8 -3 12 1 9 9 -2 7 -10 15 -17 17
-8 3 -12 -1 -9 -9z"/>
<path d="M4315 10890 c-3 -5 -1 -10 4 -10 6 0 11 5 11 10 0 6 -2 10 -4 10 -3
0 -8 -4 -11 -10z"/>
<path d="M10394 10889 c-3 -6 -2 -15 4 -21 7 -7 14 -3 21 11 10 17 9 21 -3 21
-8 0 -18 -5 -22 -11z"/>
<path d="M4269 10844 c-17 -21 -60 -42 -106 -53 -23 -5 -29 -9 -16 -10 12 -1
25 -5 28 -11 9 -15 48 -12 72 5 17 12 53 67 53 82 0 9 -19 1 -31 -13z"/>
<path d="M1690 10734 c-121 -64 -160 -96 -160 -134 0 -28 47 -99 65 -100 6 0
36 9 68 20 66 23 124 26 170 7 32 -14 154 -106 238 -181 92 -82 134 -116 144
-116 5 -1 41 -20 80 -44 47 -29 69 -49 69 -62 0 -27 -21 -84 -31 -84 -4 0 -29
-20 -55 -45 -27 -25 -52 -45 -58 -45 -5 0 -34 -11 -64 -25 -30 -14 -61 -25
-70 -25 -8 0 -21 -6 -28 -13 -7 -7 -33 -19 -58 -26 -25 -8 -56 -21 -68 -28
-13 -8 -26 -12 -29 -9 -4 3 -20 -3 -37 -13 -24 -15 -52 -19 -131 -20 -134 -2
-236 -12 -229 -22 3 -5 0 -9 -5 -9 -16 0 -13 -21 6 -42 13 -15 14 -22 4 -41
-22 -41 -37 -65 -50 -81 -22 -27 -2 -36 54 -25 66 14 107 33 136 64 24 25 100
65 124 65 6 0 20 9 30 20 10 11 24 20 32 20 7 0 23 5 36 12 12 6 29 14 37 18
22 11 83 24 96 22 6 -1 17 5 24 13 7 8 20 15 30 15 9 0 27 9 40 20 13 11 36
20 51 20 32 0 79 19 79 32 0 4 8 8 19 8 10 0 24 7 31 15 7 8 17 15 22 15 17 0
78 52 72 61 -5 8 9 13 29 10 4 0 7 8 7 19 0 11 8 23 18 27 20 7 39 24 85 73
41 44 86 87 134 127 110 93 153 137 153 157 0 23 -45 56 -76 56 -19 0 -144 36
-179 51 -31 14 -173 58 -255 80 -116 31 -361 136 -395 170 -45 43 -80 38 -205
-27z"/>
<path d="M4955 10561 c-6 -10 -29 -43 -53 -72 -23 -30 -64 -81 -90 -114 -26
-33 -55 -69 -65 -80 -10 -11 -34 -42 -53 -70 -107 -155 -135 -179 -211 -191
-42 -6 -45 -8 -28 -20 24 -18 69 -18 103 0 28 15 156 179 287 371 26 39 68 95
92 126 23 30 43 58 43 62 0 14 -16 7 -25 -12z"/>
<path d="M3963 10461 c-75 -69 -143 -156 -143 -181 0 -6 11 -10 25 -10 18 0
39 18 84 72 66 79 125 172 119 187 -1 5 -40 -25 -85 -68z"/>
<path d="M3623 10045 c-33 -14 -113 -107 -141 -163 -16 -32 -16 -35 3 -48 10
-8 26 -14 35 -14 9 0 34 -8 56 -19 21 -10 66 -25 99 -32 33 -7 80 -21 105 -32
25 -10 77 -29 115 -42 39 -12 93 -33 120 -45 52 -23 84 -34 200 -69 124 -37
204 -51 292 -51 104 0 152 13 200 55 l37 32 -22 19 c-12 10 -22 24 -22 30 0
19 -18 21 -84 11 -34 -5 -113 -9 -176 -9 -105 0 -123 3 -205 32 -91 32 -240
104 -250 120 -5 9 -45 37 -160 113 -33 22 -62 43 -65 47 -9 10 -97 80 -101 80
-2 -1 -18 -7 -36 -15z"/>
<path d="M4960 9910 c-18 -16 -31 -33 -28 -36 4 -3 -3 -15 -15 -27 l-21 -21
22 -9 c25 -12 52 6 52 33 0 10 6 20 14 23 7 3 18 19 24 36 14 41 -3 41 -48 1z"/>
<path d="M1420 9827 c0 -8 7 -20 15 -27 12 -10 15 -10 15 3 0 8 -7 20 -15 27
-12 10 -15 10 -15 -3z"/>
<path d="M4880 9808 c0 -9 5 -20 11 -23 17 -11 20 0 4 21 -13 17 -14 17 -15 2z"/>
<path d="M4867 9733 c-4 -3 -7 -11 -7 -17 0 -6 5 -5 12 2 6 6 9 14 7 17 -3 3
-9 2 -12 -2z"/>
<path d="M10969 9093 c-409 -410 -830 -845 -837 -863 -4 -9 231 -170 257 -177
16 -4 424 402 876 872 127 132 271 282 320 333 50 51 90 98 90 104 0 6 -27 28
-60 49 -124 78 -194 119 -202 119 -4 0 -204 -197 -444 -437z"/>
<path d="M8525 9280 c-77 -77 -151 -148 -165 -158 -14 -9 -117 -109 -229 -222
l-203 -204 31 -27 c42 -34 209 -149 218 -149 13 0 753 727 753 739 -1 11 -232
161 -248 161 -9 0 -80 -63 -157 -140z"/>
<path d="M10149 8938 c-319 -316 -529 -532 -529 -545 0 -6 59 -49 131 -97
l131 -87 161 158 c180 175 640 649 645 662 2 5 -46 39 -105 77 -59 37 -115 74
-124 81 -8 7 -22 13 -30 13 -8 0 -135 -118 -280 -262z"/>
<path d="M8901 9012 c-80 -75 -163 -157 -185 -182 -23 -25 -110 -112 -193
-194 -84 -82 -153 -154 -153 -162 0 -15 226 -174 249 -174 20 0 691 661 691
680 0 8 -248 170 -258 170 -4 0 -72 -62 -151 -138z"/>
<path d="M11502 8958 c-476 -483 -572 -582 -630 -648 -37 -41 -112 -121 -167
-178 -55 -56 -101 -109 -103 -117 -3 -13 243 -185 264 -185 10 0 551 550 664
675 35 39 131 139 212 223 81 85 146 157 143 162 -7 12 -260 170 -272 170 -5
0 -55 -46 -111 -102z"/>
<path d="M1888 8785 c-12 -14 -28 -25 -35 -25 -7 0 -13 -11 -13 -25 0 -33 28
-45 46 -19 21 31 32 42 45 46 14 5 3 48 -12 48 -5 0 -19 -11 -31 -25z"/>
<path d="M11809 8582 c-123 -125 -280 -288 -348 -362 -193 -210 -243 -262
-420 -449 -159 -166 -187 -198 -179 -206 1 -2 64 -44 138 -94 l135 -91 90 93
c50 52 151 158 225 238 74 79 169 178 211 219 85 83 422 440 483 510 21 25 70
77 107 116 38 39 69 75 69 80 0 11 -256 174 -274 174 -7 0 -114 -102 -237
-228z"/>
<path d="M9222 8673 c-70 -71 -164 -163 -208 -206 -98 -96 -248 -254 -252
-266 -2 -5 54 -48 124 -95 95 -64 131 -83 143 -76 15 8 130 123 456 453 75 76
125 133 122 141 -4 11 -164 122 -244 169 -7 5 -61 -42 -141 -120z"/>
<path d="M18139 8630 c-53 -60 -90 -116 -72 -109 22 9 132 95 142 112 9 13 8
22 -2 38 -14 19 -17 17 -68 -41z"/>
<path d="M2020 8625 c-13 -16 -7 -45 9 -45 14 0 33 38 26 50 -9 14 -21 12 -35
-5z"/>
<path d="M7532 8317 c-23 -23 -42 -46 -42 -49 0 -7 225 -167 246 -175 15 -6
107 88 97 98 -21 20 -239 169 -248 169 -6 0 -30 -19 -53 -43z"/>
<path d="M1139 8087 c-39 -26 -46 -60 -13 -65 29 -4 74 34 74 64 0 30 -17 31
-61 1z"/>
<path d="M7935 8059 c-30 -28 -55 -57 -55 -63 1 -6 24 -27 53 -47 29 -19 87
-59 130 -89 l77 -54 55 54 c30 30 55 59 55 65 0 5 -24 26 -53 45 -28 19 -81
55 -117 81 -36 25 -71 49 -77 53 -8 4 -34 -13 -68 -45z"/>
<path d="M11951 8013 c-230 -239 -440 -461 -457 -485 -12 -16 -53 -61 -90
-101 -207 -218 -330 -350 -337 -362 -8 -15 -12 -12 161 -129 72 -49 118 -74
126 -69 7 5 40 37 72 73 146 162 314 341 379 405 40 39 100 104 136 145 35 41
126 142 203 223 105 111 137 152 130 163 -5 7 -69 52 -143 99 l-133 86 -47
-48z"/>
<path d="M8360 7814 c-50 -48 -90 -91 -90 -94 0 -4 37 -33 83 -64 45 -31 104
-73 131 -92 26 -18 51 -34 55 -34 14 0 171 167 171 181 0 11 -164 131 -247
182 -10 6 -41 -17 -103 -79z"/>
<path d="M8815 7590 c-94 -95 -146 -153 -140 -159 25 -23 259 -181 270 -181
11 0 286 282 293 300 5 12 -244 190 -265 190 -5 0 -76 -67 -158 -150z"/>
<path d="M7344 7595 c-8 -20 2 -45 19 -45 19 0 50 36 42 49 -9 16 -55 13 -61
-4z"/>
<path d="M6433 7510 c-46 -44 -83 -84 -83 -89 0 -6 26 -29 58 -52 31 -23 100
-74 152 -112 52 -39 127 -94 165 -122 39 -28 158 -116 265 -195 253 -186 299
-220 518 -381 101 -74 317 -232 480 -351 366 -269 774 -566 812 -593 16 -11
136 -98 267 -194 131 -96 330 -242 443 -324 113 -83 210 -154 217 -159 7 -5
18 -6 26 -1 23 14 167 177 167 190 0 13 -33 38 -374 283 -126 91 -279 201
-340 245 -61 44 -199 144 -306 221 -107 77 -352 255 -545 394 -346 251 -468
338 -740 535 -265 192 -830 602 -955 693 -69 50 -129 92 -135 92 -5 -1 -47
-36 -92 -80z m2438 -1785 c0 -5 -9 -11 -21 -13 -20 -3 -27 8 -13 22 10 9 34 3
34 -9z m49 -5 c0 -5 -4 -10 -10 -10 -5 0 -10 5 -10 10 0 6 5 10 10 10 6 0 10
-4 10 -10z m29 -39 c11 -7 9 -10 -8 -16 -25 -8 -36 -2 -26 14 8 13 15 14 34 2z
m331 -209 c0 -13 -12 -22 -22 -16 -10 6 -1 24 13 24 5 0 9 -4 9 -8z m120 -112
c0 -5 -5 -10 -11 -10 -5 0 -7 5 -4 10 3 6 8 10 11 10 2 0 4 -4 4 -10z m70 -59
c0 -11 -26 -22 -34 -14 -12 12 -5 23 14 23 11 0 20 -4 20 -9z m90 -40 c0 -6
-4 -13 -10 -16 -5 -3 -10 1 -10 9 0 9 5 16 10 16 6 0 10 -4 10 -9z"/>
<path d="M9426 7518 c-29 -29 -120 -122 -201 -206 -145 -150 -148 -153 -129
-171 30 -29 250 -181 261 -181 5 0 29 21 53 48 24 26 113 118 198 205 179 184
177 157 19 264 -156 106 -139 103 -201 41z"/>
<path d="M7847 7252 c-36 -39 -9 -75 39 -54 40 19 28 72 -15 72 -4 0 -15 -8
-24 -18z"/>
<path d="M9602 6985 c-56 -59 -102 -112 -102 -119 0 -7 39 -39 86 -72 47 -32
106 -74 130 -92 25 -18 50 -32 57 -30 20 5 217 214 217 229 -1 16 -240 182
-268 187 -13 2 -51 -30 -120 -103z"/>
<path d="M10300 6993 c-24 -27 -110 -118 -190 -203 -221 -234 -203 -212 -182
-231 24 -23 263 -189 272 -189 4 0 61 60 128 133 66 72 163 177 216 232 52 55
95 107 95 115 1 21 -246 190 -277 190 -10 0 -38 -21 -62 -47z"/>
<path d="M8279 6941 c-14 -11 -20 -24 -16 -34 13 -33 67 -13 67 24 0 25 -26
30 -51 10z"/>
<path d="M13505 6651 c-11 -4 -87 -14 -170 -21 -82 -7 -177 -21 -210 -31 -196
-59 -235 -72 -232 -75 2 -2 50 10 108 26 57 17 129 35 159 41 95 18 329 41
354 35 18 -4 35 -31 74 -116 29 -61 52 -117 52 -125 0 -8 24 -30 53 -49 61
-41 142 -115 149 -135 3 -12 13 -11 59 6 58 23 219 70 336 99 90 23 91 22 137
-107 19 -51 62 -165 95 -252 34 -87 61 -164 61 -172 0 -7 15 -16 33 -20 59
-12 222 -67 238 -81 8 -8 32 -14 52 -14 42 0 159 -23 233 -46 50 -16 53 -15
80 5 16 11 76 41 134 65 58 24 164 69 235 100 72 30 140 56 151 56 12 0 28 8
35 17 8 9 57 36 109 61 52 24 154 73 225 108 125 62 158 73 168 56 5 -7 -60
-176 -101 -265 -11 -23 -38 -91 -60 -152 -67 -180 -117 -307 -141 -353 l-21
-42 20 -28 c11 -15 43 -81 71 -147 50 -119 51 -121 45 -198 -4 -42 -13 -114
-22 -160 -8 -45 -19 -118 -24 -162 -5 -44 -12 -92 -16 -107 -5 -24 -3 -28 15
-28 19 0 21 6 21 58 0 31 7 100 16 152 8 52 20 136 25 185 5 50 15 103 21 119
10 24 9 31 -5 40 -23 18 -109 218 -120 281 -4 22 13 76 65 205 38 96 76 189
84 205 7 17 29 73 48 125 58 160 106 262 132 287 27 25 28 40 1 57 -12 8 -23
5 -44 -11 -15 -12 -80 -47 -143 -79 -356 -174 -428 -208 -675 -314 -66 -28
-147 -63 -180 -77 -93 -41 -115 -43 -222 -22 -103 20 -133 28 -304 79 -143 44
-165 64 -213 198 -21 58 -35 113 -32 125 3 14 -3 28 -18 42 -13 12 -31 43 -41
71 -9 27 -26 72 -36 99 -10 28 -20 58 -23 69 -4 11 -13 16 -24 13 -311 -88
-421 -117 -443 -117 -31 0 -142 85 -198 152 -38 45 -121 220 -121 255 0 24
-17 29 -55 14z"/>
<path d="M12770 6494 c-47 -12 -87 -23 -89 -23 -3 -1 0 -6 6 -12 8 -8 19 -7
39 4 16 8 55 20 87 28 32 7 60 16 63 21 7 12 -10 9 -106 -18z"/>
<path d="M10428 6385 c-49 -51 -88 -100 -88 -108 0 -8 21 -29 48 -45 26 -17
89 -60 141 -96 104 -72 108 -72 154 -14 15 18 51 60 81 93 31 33 56 65 56 72
0 17 -250 186 -280 189 -20 2 -42 -15 -112 -91z"/>
<path d="M6030 5984 l-95 -95 30 -25 c17 -14 53 -43 80 -64 28 -21 75 -58 105
-81 49 -38 88 -68 259 -199 25 -20 107 -83 181 -140 186 -144 207 -160 217
-160 12 0 193 185 193 197 0 13 39 -18 -661 516 -181 137 -193 146 -204 147
-6 0 -53 -43 -105 -96z m633 -458 c6 -15 -1 -26 -15 -26 -4 0 -8 9 -8 20 0 23
15 27 23 6z"/>
<path d="M9532 6048 c-32 -32 1 -79 44 -59 35 16 31 65 -6 69 -14 2 -31 -3
-38 -10z"/>
<path d="M19381 5434 c0 -11 3 -14 6 -6 3 7 2 16 -1 19 -3 4 -6 -2 -5 -13z"/>
<path d="M19360 5411 c0 -5 5 -13 10 -16 6 -3 10 -2 10 4 0 5 -4 13 -10 16 -5
3 -10 2 -10 -4z"/>
<path d="M8508 5285 c-51 -53 -93 -104 -93 -113 0 -16 57 -61 410 -322 115
-85 268 -199 340 -252 71 -54 137 -98 146 -98 17 0 192 190 196 213 1 6 -57
55 -129 107 -152 110 -161 117 -497 365 -140 103 -260 189 -267 192 -7 2 -55
-39 -106 -92z m621 -444 c9 -6 10 -11 2 -15 -6 -4 -11 -3 -11 3 0 5 -8 12 -17
14 -13 3 -14 5 -3 6 8 0 21 -3 29 -8z"/>
<path d="M19340 5351 c0 -12 5 -21 10 -21 6 0 10 6 10 14 0 8 -4 18 -10 21 -5
3 -10 -3 -10 -14z"/>
<path d="M19165 5060 c-3 -5 -1 -10 4 -10 6 0 11 5 11 10 0 6 -2 10 -4 10 -3
0 -8 -4 -11 -10z"/>
<path d="M6495 5014 c-28 -24 -63 -55 -79 -70 -15 -14 -43 -33 -62 -41 -31
-15 -37 -15 -90 3 -30 10 -81 38 -112 61 -32 24 -61 43 -67 43 -11 -1 21 -31
120 -110 37 -30 73 -60 79 -65 26 -24 354 -283 386 -304 19 -13 40 -29 45 -35
18 -20 109 -93 205 -164 52 -39 118 -91 145 -116 51 -45 200 -166 354 -286 46
-36 113 -89 150 -118 36 -29 90 -72 119 -95 29 -23 68 -54 85 -70 18 -15 100
-80 182 -144 83 -65 163 -130 178 -145 16 -15 33 -28 38 -28 5 0 35 -24 67
-52 32 -29 105 -89 162 -133 56 -44 125 -100 153 -125 27 -25 60 -52 72 -60
12 -8 42 -28 66 -45 24 -16 58 -42 74 -56 72 -64 146 -123 224 -181 46 -35
123 -97 171 -138 94 -81 97 -84 185 -150 33 -25 106 -81 161 -125 56 -44 117
-91 135 -105 19 -14 46 -37 60 -51 15 -14 53 -46 85 -72 118 -94 333 -264 464
-367 162 -128 536 -426 585 -467 22 -19 89 -71 175 -136 30 -23 66 -54 80 -68
14 -14 33 -28 43 -32 9 -3 17 -11 17 -17 0 -5 6 -10 13 -10 18 -1 71 -50 62
-58 -4 -4 -10 -1 -12 6 -3 6 -8 10 -12 8 -7 -5 -96 58 -150 107 -17 15 -37 27
-44 27 -7 0 -24 13 -37 30 -14 16 -32 29 -41 30 -8 0 -26 11 -39 25 -13 14
-27 25 -32 25 -4 0 -27 15 -51 32 -24 18 -54 40 -67 48 -13 8 -40 30 -60 48
-21 17 -41 32 -45 32 -4 0 -15 8 -24 18 -26 27 -99 82 -110 82 -6 0 -11 4 -11
8 0 10 -80 72 -93 72 -6 0 -1 -8 11 -18 51 -43 68 -57 111 -90 25 -19 48 -37
51 -41 3 -3 28 -24 55 -46 28 -21 100 -80 160 -130 61 -50 141 -115 179 -144
37 -29 77 -60 88 -69 11 -10 40 -33 63 -52 241 -196 426 -342 430 -338 2 2 13
49 25 103 11 55 25 120 30 145 6 25 12 70 15 100 12 158 71 348 130 418 34 41
169 136 218 153 21 7 45 21 54 31 15 17 14 18 -14 18 -46 0 -85 35 -81 74 4
42 39 48 57 10 9 -20 15 -24 23 -16 9 9 9 15 0 24 -17 17 4 48 33 48 32 0 32
16 0 24 -28 7 -34 40 -9 50 48 19 104 -18 104 -68 0 -19 5 -21 38 -18 26 3 42
-1 51 -12 18 -21 37 -20 69 3 15 10 55 32 88 49 49 25 103 72 260 229 276 275
382 356 409 313 26 -42 66 32 147 270 59 173 115 283 209 411 85 115 141 208
163 272 9 26 29 74 46 107 16 33 30 68 30 79 0 11 -16 54 -35 96 -116 255
-313 484 -570 660 -92 63 -312 175 -345 175 -23 0 -34 -15 -103 -147 -87 -167
-146 -275 -206 -380 -22 -40 -41 -75 -41 -79 0 -3 -8 -18 -18 -32 -11 -15 -52
-90 -92 -167 -40 -77 -116 -219 -168 -315 -52 -96 -112 -206 -133 -245 -174
-322 -205 -378 -214 -377 -6 1 -10 36 -10 80 0 170 33 1080 39 1090 2 4 7 122
11 262 4 140 9 269 11 285 13 84 14 121 5 134 -21 31 -245 0 -458 -65 -231
-70 -573 -241 -573 -287 0 -6 42 -78 94 -161 51 -83 157 -257 236 -386 78
-129 174 -287 213 -350 38 -63 140 -230 225 -370 85 -140 161 -262 168 -271
23 -26 -1 -40 -45 -24 -50 18 -270 104 -306 121 -16 7 -104 43 -195 80 -233
94 -261 106 -390 159 -63 26 -171 70 -240 97 -69 27 -138 56 -155 63 -16 8
-77 33 -135 55 -58 23 -118 48 -135 55 -63 29 -137 55 -156 55 -16 0 -34 -27
-86 -137 -63 -132 -113 -262 -128 -330 -3 -18 -12 -33 -18 -33 -7 0 -33 15
-59 33 -59 41 -752 574 -1253 964 -66 51 -140 109 -165 128 -171 131 -321 248
-420 324 -63 49 -221 171 -350 271 -325 250 -374 288 -444 343 -242 189 -411
309 -441 313 -6 1 -33 -18 -60 -42z m4783 -1096 c22 -22 14 -65 -17 -87 -16
-12 -31 -32 -35 -45 -13 -51 -90 -55 -116 -6 -15 29 -14 33 43 93 41 45 58 57
83 57 16 0 35 -5 42 -12z m86 -64 c10 -4 16 -18 16 -40 0 -24 5 -34 15 -34 24
0 17 -14 -16 -33 -30 -16 -31 -19 -15 -36 20 -22 20 -40 -1 -63 -32 -35 -92
-13 -79 30 5 15 1 21 -16 26 -22 7 -22 8 -5 19 51 33 52 35 40 48 -20 20 -15
56 9 73 25 18 30 19 52 10z m1498 -381 c10 -9 18 -29 18 -45 0 -27 1 -28 39
-22 32 5 42 2 60 -17 11 -12 21 -33 21 -46 0 -20 4 -22 30 -17 36 8 60 -9 60
-43 0 -13 7 -26 15 -29 23 -9 18 -33 -10 -46 -18 -8 -24 -16 -19 -27 17 -40
15 -57 -10 -80 -22 -21 -31 -23 -54 -15 -21 7 -28 17 -30 42 -2 24 -8 32 -23
32 -27 0 -24 15 11 42 29 22 30 26 18 50 l-14 25 -43 -38 c-47 -42 -74 -48
-109 -23 -28 20 -29 66 -1 106 12 16 19 31 17 33 -2 3 -21 0 -42 -6 -36 -10
-37 -11 -21 -29 20 -22 14 -50 -10 -50 -9 0 -36 14 -61 30 -68 47 -58 71 42
93 41 9 60 19 62 31 3 13 -1 16 -22 10 -30 -7 -46 17 -26 41 17 20 79 19 102
-2z m-2469 -1125 c9 -11 17 -30 17 -42 0 -19 5 -22 28 -18 33 4 79 -28 84 -61
2 -17 9 -21 27 -19 30 3 61 -24 61 -53 0 -13 7 -25 15 -29 22 -8 18 -32 -9
-50 -21 -13 -24 -21 -19 -51 7 -43 -7 -45 -59 -10 -46 31 -64 60 -43 69 12 4
13 10 3 31 -11 23 -15 25 -60 19 -39 -5 -52 -3 -68 11 -25 23 -25 35 0 35 10
0 30 5 44 11 l25 12 -35 18 c-32 16 -39 16 -70 3 -29 -12 -39 -12 -61 -2 -33
16 -40 36 -16 44 53 17 72 27 67 35 -3 5 -10 7 -15 3 -13 -8 -39 14 -39 33 0
18 59 44 85 37 11 -3 28 -15 38 -26z m867 -1483 c10 -12 10 -15 -2 -15 -8 0
-15 7 -15 15 0 8 1 15 2 15 2 0 8 -7 15 -15z"/>
<path d="M11217 3883 c-12 -11 -8 -23 8 -23 8 0 15 7 15 15 0 16 -12 20 -23 8z"/>
<path d="M11155 3809 c-10 -15 1 -23 20 -15 9 3 13 10 10 16 -8 13 -22 13 -30
-1z"/>
<path d="M12885 3315 c-35 -45 -23 -66 16 -29 28 27 39 64 20 64 -6 0 -22 -16
-36 -35z"/>
<path d="M19135 5030 c-4 -6 -24 -22 -46 -36 -21 -13 -39 -29 -39 -34 0 -17
16 -11 44 17 21 21 29 24 35 14 6 -9 11 -10 15 -2 4 6 2 11 -5 11 -8 0 -8 4 1
15 7 9 10 18 7 21 -3 3 -8 0 -12 -6z"/>
<path d="M13170 4929 c0 -5 5 -7 10 -4 6 3 10 8 10 11 0 2 -4 4 -10 4 -5 0
-10 -5 -10 -11z"/>
<path d="M13128 4903 c7 -3 16 -2 19 1 4 3 -2 6 -13 5 -11 0 -14 -3 -6 -6z"/>
<path d="M18682 4810 c-7 -11 -10 -20 -6 -20 7 0 34 27 34 34 0 13 -16 5 -28
-14z"/>
<path d="M18923 4770 c-47 -19 -47 -76 -1 -101 40 -22 96 -28 102 -12 26 66
-38 138 -101 113z"/>
<path d="M13580 4640 c0 -5 5 -10 10 -10 6 0 10 5 10 10 0 6 -4 10 -10 10 -5
0 -10 -4 -10 -10z"/>
<path d="M8910 4600 c-12 -8 -11 -10 8 -10 12 0 22 5 22 10 0 13 -11 13 -30 0z"/>
<path d="M13726 4533 c-14 -4 -17 -11 -12 -36 7 -35 21 -47 53 -47 36 0 53 11
53 35 0 44 -36 63 -94 48z"/>
<path d="M8670 4379 c0 -5 5 -7 10 -4 6 3 10 8 10 11 0 2 -4 4 -10 4 -5 0 -10
-5 -10 -11z"/>
<path d="M18366 4354 c-9 -23 -7 -37 8 -57 12 -15 18 -16 35 -7 30 16 26 47
-8 64 -26 14 -30 14 -35 0z"/>
<path d="M13910 4350 c0 -5 5 -10 10 -10 6 0 10 5 10 10 0 6 -4 10 -10 10 -5
0 -10 -4 -10 -10z"/>
<path d="M14011 4301 c-6 -10 -7 -21 -4 -25 9 -8 33 14 33 30 0 20 -18 17 -29
-5z"/>
<path d="M18300 4245 c0 -15 26 -32 36 -23 2 3 2 13 -2 22 -8 20 -34 21 -34 1z"/>
<path d="M14175 4190 c-7 -12 -7 -12 28 -14 15 -1 27 3 27 9 0 14 -47 18 -55
5z"/>
<path d="M18425 3500 c3 -5 8 -10 11 -10 2 0 4 5 4 10 0 6 -5 10 -11 10 -5 0
-7 -4 -4 -10z"/>
<path d="M17898 3168 c9 -9 15 -9 24 0 9 9 7 12 -12 12 -19 0 -21 -3 -12 -12z"/>
<path d="M17033 2542 c-13 -15 -23 -31 -23 -37 1 -5 5 -2 11 8 5 9 16 17 24
17 18 0 30 19 19 30 -5 5 -19 -3 -31 -18z"/>
<path d="M14757 2462 c-23 -25 -21 -45 4 -61 19 -11 25 -10 47 13 25 25 25 26
7 46 -22 25 -37 25 -58 2z"/>
<path d="M17092 2450 c-43 -10 -51 -19 -24 -27 12 -3 23 -9 23 -14 1 -5 2 -14
3 -21 2 -24 22 -16 44 17 36 56 29 63 -46 45z"/>
<path d="M15265 2431 c-6 -11 9 -23 19 -14 9 9 7 23 -3 23 -6 0 -12 -4 -16 -9z"/>
<path d="M17203 2353 c-3 -10 -13 -26 -21 -36 -19 -22 -10 -32 16 -18 12 6 31
11 44 11 20 1 21 2 6 11 -10 5 -18 16 -18 24 0 22 -19 28 -27 8z"/>
<path d="M14920 2330 c0 -5 5 -10 10 -10 6 0 10 5 10 10 0 6 -4 10 -10 10 -5
0 -10 -4 -10 -10z"/>
<path d="M16860 2300 c0 -6 -21 -36 -47 -65 -27 -30 -56 -69 -66 -87 l-18 -33
30 34 c16 18 34 32 39 30 15 -6 250 -288 490 -589 472 -592 749 -935 766 -950
11 -8 25 -4 60 17 25 15 46 32 46 37 0 5 -44 62 -97 128 -54 65 -111 136 -128
157 -16 21 -50 62 -75 92 -49 60 -255 315 -335 414 -27 34 -77 95 -110 135
-61 74 -134 165 -204 255 -205 262 -351 439 -351 425z"/>
<path d="M14575 2236 c-29 -44 17 -86 56 -50 24 22 24 50 0 64 -29 15 -39 13
-56 -14z"/>
<path d="M15225 2109 c-10 -15 3 -25 16 -12 7 7 7 13 1 17 -6 3 -14 1 -17 -5z"/>
<path d="M16690 2078 c-30 -37 -62 -88 -55 -88 7 0 88 110 84 115 -3 2 -16
-10 -29 -27z"/>
<path d="M14362 2001 c-91 -31 -176 -132 -254 -299 -22 -48 -49 -103 -59 -123
-10 -20 -19 -52 -19 -71 0 -19 -11 -72 -24 -118 -13 -47 -27 -116 -31 -155
-14 -151 -40 -193 -72 -118 -13 31 -13 47 -4 98 7 33 16 92 21 130 10 77 22
120 69 240 27 72 104 365 97 373 -2 1 -11 -19 -21 -45 -23 -62 -101 -217 -135
-268 -14 -22 -39 -67 -54 -100 -15 -33 -34 -67 -41 -75 -7 -8 -20 -42 -30 -75
-10 -33 -25 -70 -33 -83 -10 -15 -13 -40 -10 -77 4 -49 9 -59 44 -91 45 -41
105 -74 132 -74 28 0 37 16 61 100 29 106 72 213 141 353 78 160 219 430 228
437 12 9 56 60 51 60 -2 -1 -28 -9 -57 -19z"/>
<path d="M15370 1995 c0 -9 5 -15 11 -13 6 2 11 8 11 13 0 5 -5 11 -11 13 -6
2 -11 -4 -11 -13z"/>
<path d="M16591 1941 c-17 -21 -31 -45 -31 -51 0 -11 39 37 64 78 15 26 -4 10
-33 -27z"/>
<path d="M16513 1835 c-29 -45 -30 -56 -1 -19 13 16 26 31 30 32 5 2 8 8 8 13
0 19 -16 8 -37 -26z"/>
<path d="M17551 1839 c-1 -24 24 -41 51 -36 20 4 20 4 -5 6 -19 1 -31 8 -37
24 -6 15 -9 17 -9 6z"/>
<path d="M16466 1763 c-6 -14 -5 -15 5 -6 7 7 10 15 7 18 -3 3 -9 -2 -12 -12z"/>
<path d="M17709 1738 c0 -2 -1 -22 -2 -46 -2 -40 13 -57 28 -32 3 6 1 10 -6
10 -7 0 -9 11 -5 35 4 22 3 35 -4 35 -5 0 -10 -1 -11 -2z"/>
<path d="M12087 1600 c-47 -55 -29 -72 40 -39 41 20 44 23 25 30 -11 4 -24 15
-30 24 -8 15 -12 13 -35 -15z"/>
<path d="M10265 1579 c7 -19 49 -46 43 -28 -2 7 -14 19 -26 27 -19 12 -22 12
-17 1z"/>
<path d="M16335 1550 c3 -5 8 -10 11 -10 2 0 4 5 4 10 0 6 -5 10 -11 10 -5 0
-7 -4 -4 -10z"/>
<path d="M10334 1521 c20 -22 26 -25 26 -13 0 4 -10 13 -22 21 -23 14 -23 14
-4 -8z"/>
<path d="M16325 1495 c-29 -24 -30 -25 -6 -25 18 0 22 -4 18 -20 -7 -25 7 -34
23 -15 7 8 18 15 25 15 20 0 25 26 9 49 -19 27 -32 26 -69 -4z m60 -15 c3 -5
-1 -10 -9 -10 -9 0 -16 5 -16 10 0 6 4 10 9 10 6 0 13 -4 16 -10z"/>
<path d="M12683 1430 c-46 -66 -74 -94 -97 -95 -28 -1 -83 -43 -92 -70 -4 -11
-16 -33 -27 -48 -15 -22 -22 -26 -28 -15 -7 10 -9 10 -9 1 0 -7 -9 -13 -20
-13 -24 0 -37 -25 -22 -43 5 -6 12 -29 16 -49 5 -30 3 -39 -11 -46 -10 -5 -26
-8 -35 -7 -10 2 -20 -1 -24 -6 -3 -5 5 -9 18 -10 19 -1 17 -3 -9 -10 -17 -5
-41 -23 -53 -39 -13 -18 -30 -30 -43 -30 -28 0 -114 -79 -98 -90 13 -7 -16
-58 -52 -94 -11 -11 -14 -27 -10 -50 4 -25 0 -44 -16 -69 l-21 -35 22 -5 c21
-6 21 -7 4 -26 -10 -11 -22 -18 -26 -16 -5 3 -6 -3 -3 -14 3 -12 -5 -25 -21
-39 -32 -24 -33 -35 -4 -54 18 -12 20 -18 11 -29 -6 -8 -9 -30 -8 -49 2 -24
-3 -40 -16 -53 -23 -22 -24 -31 -3 -48 10 -8 15 -26 13 -53 -2 -23 3 -54 11
-69 18 -36 8 -53 -50 -87 -23 -14 -46 -35 -51 -48 -7 -19 -5 -22 16 -22 13 0
27 4 30 10 8 13 45 13 45 0 0 -16 78 -11 105 6 22 14 65 91 65 115 0 4 11 24
24 44 14 19 36 66 50 103 75 200 88 238 101 303 15 72 29 121 72 249 31 94 52
142 134 310 37 74 77 158 90 185 13 28 33 65 46 84 24 35 30 61 14 61 -5 0
-22 -18 -38 -40z"/>
<path d="M16400 1419 c-19 -12 -36 -23 -38 -24 -2 -2 1 -13 8 -24 14 -27 33
-27 25 -1 -7 23 4 26 24 8 11 -11 13 -9 8 10 -5 23 16 32 28 12 3 -5 11 -10
16 -10 10 0 -21 49 -31 50 -3 0 -21 -10 -40 -21z"/>
<path d="M4950 1375 c-10 -12 -10 -15 4 -15 24 0 20 -37 -7 -64 -16 -16 -21
-30 -17 -47 6 -24 10 -16 67 129 7 17 -32 15 -47 -3z"/>
<path d="M4861 1321 l-23 -18 23 1 c23 1 39 12 39 29 0 12 -13 8 -39 -12z"/>
<path d="M18042 1303 c-20 -14 -27 -14 -44 -4 -24 15 -34 9 -13 -9 17 -14 50
-8 80 14 27 21 6 19 -23 -1z"/>
<path d="M5078 1219 c-23 -27 -45 -56 -46 -62 -2 -7 8 3 23 21 21 25 34 32 54
30 23 -3 26 1 29 30 2 17 -1 32 -6 32 -6 0 -30 -23 -54 -51z"/>
<path d="M18103 1223 c-40 -27 -24 -83 23 -83 22 0 79 39 58 40 -6 0 -17 -7
-24 -15 -17 -20 -50 -16 -64 8 -9 15 -6 22 19 43 33 26 23 32 -12 7z"/>
<path d="M5185 1160 c-21 -21 -42 -37 -47 -34 -4 3 -9 20 -9 37 -1 31 -2 30
-10 -8 -10 -52 -11 -85 -1 -85 10 0 115 120 110 125 -2 3 -22 -13 -43 -35z"/>
<path d="M18223 1078 c-37 -26 -40 -39 -16 -59 15 -13 15 -12 5 8 -11 19 -8
24 23 43 19 12 35 24 35 26 0 9 -17 3 -47 -18z"/>
<path d="M5283 1047 c-76 -43 -90 -58 -49 -50 33 7 79 -41 70 -71 -13 -45 16
1 46 72 28 66 31 93 12 91 -4 0 -40 -19 -79 -42z m67 -11 c0 -8 -10 -27 -23
-41 l-22 -27 -20 22 c-20 22 -20 22 4 41 28 22 61 25 61 5z"/>
<path d="M5446 904 c-54 -63 -56 -67 -40 -85 9 -11 22 -19 28 -19 6 0 5 5 -2
12 -19 19 -15 33 34 92 26 31 44 59 42 62 -3 3 -31 -25 -62 -62z"/>
<path d="M18375 860 c-3 -6 1 -7 9 -4 18 7 21 14 7 14 -6 0 -13 -4 -16 -10z"/>
<path d="M5620 813 c-7 -27 -23 -65 -36 -85 -28 -43 -19 -50 16 -13 12 13 47
34 76 46 30 13 54 26 54 31 0 11 -11 9 -40 -7 -14 -8 -33 -14 -44 -15 -18 0
-18 10 0 73 3 9 1 17 -4 17 -5 0 -15 -21 -22 -47z"/>
<path d="M2920 776 c0 -4 7 -14 15 -22 8 -9 15 -11 15 -6 0 5 -7 15 -15 22 -8
7 -15 9 -15 6z"/>
<path d="M2995 705 c39 -33 106 -93 174 -153 29 -26 61 -51 70 -56 9 -5 52
-45 95 -88 44 -43 84 -78 90 -78 6 0 45 -31 86 -70 41 -38 87 -75 102 -82 21
-9 26 -18 22 -32 -4 -12 -2 -16 5 -12 6 4 14 0 17 -8 3 -9 13 -16 20 -16 8 0
17 -7 20 -15 4 -8 10 -13 14 -10 5 3 11 1 15 -5 3 -5 10 -10 16 -10 24 0 2 25
-83 94 -51 41 -102 82 -113 93 -55 50 -211 182 -460 388 -77 64 -151 113 -90
60z"/>
<path d="M5792 698 c-17 -17 -15 -49 4 -87 15 -30 15 -34 0 -49 -20 -20 -49
-6 -54 27 -5 29 -22 27 -22 -3 0 -15 10 -30 27 -41 24 -16 30 -16 52 -3 29 16
32 43 10 96 -12 28 -12 34 1 42 25 16 40 11 50 -15 10 -26 30 -34 30 -12 0 20
-43 57 -66 57 -11 0 -25 -5 -32 -12z"/>
<path d="M18525 695 c-22 -7 -32 -13 -22 -14 11 -1 23 -13 30 -30 l11 -29 26
37 c40 53 30 61 -45 36z m30 -15 c3 -5 1 -10 -4 -10 -6 0 -11 5 -11 10 0 6 2
10 4 10 3 0 8 -4 11 -10z"/>
<path d="M17016 624 c-3 -9 -6 -16 -6 -17 0 -1 14 -2 30 -2 17 0 30 1 30 1 0
1 -11 9 -24 17 -22 15 -25 15 -30 1z"/>
<path d="M18630 580 c-27 -27 -25 -56 4 -76 21 -13 29 -14 52 -2 15 7 29 19
32 26 2 8 -7 6 -27 -5 -24 -14 -35 -15 -48 -7 -29 18 -26 40 9 63 22 14 27 21
16 21 -10 0 -27 -9 -38 -20z"/>
<path d="M5927 519 c-33 -39 -56 -73 -52 -77 8 -8 124 118 125 136 0 24 -16
11 -73 -59z"/>
<path d="M17080 573 c8 -3 23 -12 33 -21 10 -9 17 -11 17 -4 0 13 -32 32 -52
31 -9 0 -8 -2 2 -6z"/>
<path d="M17117 510 c-9 -11 -13 -20 -8 -20 11 0 35 29 29 35 -2 2 -12 -4 -21
-15z"/>
<path d="M7684 498 l-19 -23 23 19 c12 11 22 21 22 23 0 8 -8 2 -26 -19z"/>
<path d="M17045 510 c9 -15 45 -32 45 -22 0 5 -12 14 -26 20 -14 7 -23 8 -19
2z"/>
<path d="M11463 415 c34 -103 48 -121 22 -29 -29 103 -36 124 -45 124 -4 0 6
-43 23 -95z"/>
<path d="M6056 468 c-8 -12 -14 -24 -13 -27 2 -3 12 -23 22 -43 19 -36 19 -39
2 -55 -21 -21 -50 -8 -55 26 -5 29 -22 27 -22 -2 0 -30 29 -57 61 -57 49 0 64
47 32 100 -14 24 -14 31 -4 44 21 25 41 19 52 -14 12 -34 29 -40 29 -10 0 28
-35 60 -64 60 -14 0 -32 -9 -40 -22z"/>
<path d="M17120 425 c-1 -34 53 -46 86 -19 18 15 18 15 -3 5 -32 -16 -61 -13
-72 7 -6 9 -11 12 -11 7z"/>
<path d="M18757 423 c-15 -14 -6 -23 13 -13 22 12 55 -1 77 -29 11 -14 12 -14
13 1 0 32 -80 65 -103 41z"/>
<path d="M17250 372 c0 -4 9 -13 21 -20 19 -12 19 -11 9 8 -10 19 -30 28 -30
12z"/>
<path d="M18803 363 c6 -27 -14 -31 -33 -8 -7 9 -15 13 -18 10 -7 -7 29 -45
43 -45 7 0 18 7 25 16 11 12 10 18 -5 32 -17 16 -17 16 -12 -5z"/>
<path d="M17207 354 c-3 -4 5 -15 18 -26 19 -15 29 -17 42 -9 16 9 16 10 -3
11 -12 0 -24 7 -28 15 -6 16 -18 19 -29 9z"/>
<path d="M6340 270 c0 -5 11 -10 24 -10 13 0 29 -7 36 -15 19 -22 -12 -54 -46
-47 -23 4 -24 3 -13 -21 9 -21 9 -30 -1 -42 -21 -25 -54 -15 -58 18 -4 31 -32
38 -32 7 0 -23 42 -70 62 -70 25 0 58 31 58 55 0 16 9 28 28 37 33 16 40 52
16 79 -18 20 -74 27 -74 9z"/>
<path d="M17360 242 c0 -12 9 -26 20 -32 11 -6 20 -8 20 -4 0 3 -9 17 -20 31
-19 24 -20 25 -20 5z"/>
<path d="M18960 170 c-25 -16 -40 -30 -35 -30 11 0 85 48 85 55 0 8 -3 6 -50
-25z"/>
<path d="M17383 149 c-27 -17 -31 -24 -23 -39 6 -11 15 -22 21 -26 8 -5 8 -1
0 14 -15 27 -14 32 4 32 8 0 15 -4 15 -10 0 -5 5 -10 10 -10 7 0 7 6 0 20 -9
17 -8 20 8 20 10 0 23 -5 30 -12 7 -7 12 -9 12 -6 0 9 -30 38 -38 38 -4 0 -22
-10 -39 -21z"/>
<path d="M14065 69 c-16 -10 -37 -22 -45 -26 -8 -3 -17 -10 -20 -13 -3 -4 -14
-12 -25 -18 -16 -9 3 -11 93 -12 l112 0 0 29 c0 33 -31 61 -65 60 -11 0 -33
-9 -50 -20z"/>
<path d="M17470 63 c0 -7 -12 -13 -27 -14 -27 0 -27 -1 -5 -9 12 -5 22 -15 22
-22 0 -9 2 -10 8 -2 4 7 18 14 32 16 23 4 24 5 5 13 -11 5 -23 13 -27 19 -5 7
-8 7 -8 -1z"/>
<path d="M3782 30 c12 -17 31 -30 42 -30 18 1 16 5 -14 30 -44 38 -57 38 -28
0z"/>
<path d="M15064 48 c-5 -7 -13 -21 -17 -30 -6 -16 2 -18 86 -18 51 0 87 4 81
8 -6 4 -13 15 -17 25 -4 11 -17 17 -35 17 -16 0 -42 2 -58 5 -17 3 -33 0 -40
-7z"/>
</g>
</svg>
