<?xml version="1.0" standalone="no"?>
<!DOCTYPE svg PUBLIC "-//W3C//DTD SVG 20010904//EN"
 "http://www.w3.org/TR/2001/REC-SVG-20010904/DTD/svg10.dtd">
<svg version="1.0" xmlns="http://www.w3.org/2000/svg"
 width="1948.000000pt" height="1160.000000pt" viewBox="0 0 1948.000000 1160.000000"
 preserveAspectRatio="xMidYMid meet">

<g transform="translate(0.000000,1160.000000) scale(0.100000,-0.100000)"
fill="#000000" stroke="none">
<path d="M440 11584 c-36 -7 -94 -28 -130 -46 -88 -43 -205 -160 -248 -248
-67 -136 -62 266 -62 -4894 l0 -4689 713 6 c391 3 1063 11 1492 16 429 6 1125
12 1547 13 l767 3 6 40 c8 69 25 806 25 1128 l0 307 -77 36 c-43 20 -87 40
-98 45 -11 5 -42 22 -70 38 -27 17 -67 39 -87 51 -50 27 -136 115 -144 147
-19 74 63 78 209 9 53 -25 100 -46 105 -46 4 -1 25 -9 47 -20 22 -11 59 -19
82 -20 42 0 42 0 47 43 3 23 10 303 16 622 6 319 15 774 20 1010 5 237 14 684
20 995 15 851 16 873 71 988 25 51 95 123 152 157 105 61 45 58 1378 64 966 5
1219 9 1231 19 20 16 7 83 -22 124 -11 15 -20 30 -20 33 0 15 -75 85 -92 85
-10 0 -18 7 -18 18 0 9 -34 50 -75 90 -41 40 -75 80 -75 89 0 8 -11 24 -25 35
-14 11 -25 26 -25 34 0 8 -9 22 -20 31 -11 10 -20 30 -20 45 0 16 -4 28 -10
28 -5 0 -23 13 -40 30 -27 27 -30 35 -30 93 l0 64 -40 13 c-22 7 -45 19 -51
27 -7 7 -29 16 -50 19 -27 5 -39 12 -39 23 0 9 -18 24 -40 35 -22 10 -42 27
-45 37 -3 10 -22 34 -42 54 -25 25 -44 35 -67 35 -18 0 -41 8 -52 18 -11 10
-42 24 -69 31 -67 16 -111 40 -126 68 -7 13 -16 23 -21 23 -4 0 -8 7 -8 15 0
8 -4 15 -10 15 -5 0 -18 9 -28 20 -10 11 -42 29 -70 39 -29 10 -55 21 -59 24
-3 4 -17 7 -30 7 -14 0 -23 6 -23 15 0 11 -12 15 -46 15 -27 0 -43 4 -39 10 4
6 -12 10 -39 10 -58 0 -92 27 -101 82 -4 22 -13 42 -21 45 -28 10 -13 23 26
23 38 0 40 2 40 30 0 20 -5 30 -15 30 -11 0 -15 12 -15 45 0 41 -2 45 -25 45
-16 0 -25 6 -25 15 0 12 -17 15 -90 15 -49 0 -90 3 -90 8 0 4 -19 15 -41 25
-23 10 -47 23 -55 30 -32 29 -42 35 -77 48 -25 9 -33 16 -24 21 9 6 9 8 0 8
-25 0 -92 55 -93 75 0 29 -31 71 -70 97 -43 29 -182 97 -269 132 -79 32 -136
65 -179 105 -18 17 -45 34 -60 37 -15 4 -31 10 -37 14 -5 4 -26 10 -45 13 -76
12 -256 70 -270 87 -3 4 -27 21 -55 40 -62 42 -148 130 -186 192 -16 25 -36
49 -45 52 -8 3 -20 19 -25 36 -6 16 -14 29 -17 28 -12 -2 -45 15 -64 34 -11
11 -33 18 -59 18 -41 0 -117 15 -154 30 -11 4 -36 14 -55 21 -72 27 -168 108
-204 173 -74 132 20 246 155 188 59 -26 133 -79 185 -134 23 -24 48 -49 55
-56 45 -44 61 -62 53 -62 -5 0 4 -9 20 -20 26 -16 72 -29 126 -35 21 -2 55
-21 84 -48 44 -40 84 -67 99 -67 8 0 25 -8 38 -19 13 -10 35 -22 49 -26 14 -4
41 -21 60 -36 19 -16 38 -29 42 -29 4 0 18 -9 30 -19 13 -11 34 -29 48 -41 68
-58 129 -122 139 -148 8 -18 31 -39 63 -56 43 -23 58 -27 99 -21 54 8 111 -7
143 -37 11 -10 26 -16 34 -13 7 2 37 -4 67 -14 47 -17 54 -17 60 -4 5 14 8 13
26 -3 12 -11 30 -18 40 -16 11 2 19 -3 19 -11 0 -19 73 -63 78 -48 5 16 27 14
42 -4 7 -8 21 -15 31 -15 11 0 19 -4 19 -8 0 -5 11 -14 25 -20 32 -15 38 -15
30 -2 -3 5 20 -4 52 -20 32 -17 79 -34 104 -37 38 -4 56 -15 103 -59 46 -44
63 -54 91 -54 33 0 35 2 35 34 0 33 2 35 38 38 l37 4 -27 12 c-15 6 -30 22
-34 36 -4 18 -15 26 -40 30 -19 4 -34 10 -34 15 0 15 70 71 108 86 34 14 42
14 76 0 48 -20 96 -69 96 -99 0 -31 20 -86 31 -86 5 0 9 -7 9 -15 0 -11 12
-15 45 -15 33 0 45 4 45 15 0 12 14 15 63 15 109 0 197 -12 197 -26 0 -8 18
-15 48 -19 105 -14 122 -17 122 -26 0 -5 27 -9 61 -9 33 0 73 -6 87 -14 53
-28 113 -46 156 -46 30 0 46 -5 50 -15 4 -12 24 -15 91 -15 66 0 85 -3 85 -14
0 -11 22 -16 88 -21 91 -7 132 -19 132 -42 0 -7 9 -13 19 -13 11 0 26 -7 35
-15 8 -8 21 -15 29 -15 8 0 17 7 21 15 3 8 17 15 31 15 23 0 25 4 25 41 0 32
-4 42 -20 46 -11 3 -20 9 -20 14 0 5 -20 9 -45 9 -43 0 -45 1 -45 29 0 16 -6
31 -15 35 -8 3 -15 13 -15 21 0 9 -7 23 -15 32 -9 8 -13 23 -10 34 3 10 1 28
-6 40 -9 17 -13 19 -20 8 -8 -12 -11 -12 -19 1 -6 8 -8 23 -6 33 6 24 -21 86
-39 94 -8 3 -15 16 -15 28 0 33 -10 55 -25 55 -8 0 -17 9 -20 20 -4 11 -26 30
-51 41 -24 12 -54 33 -67 48 -12 14 -35 32 -50 40 -15 8 -27 18 -27 23 0 4
-11 8 -25 8 -14 0 -25 6 -25 13 0 6 -14 26 -30 44 -17 18 -30 39 -30 47 0 9
-6 16 -14 16 -19 0 -26 22 -26 82 0 42 -4 53 -25 70 -14 11 -25 30 -25 43 0
13 -5 27 -11 31 -7 4 -9 26 -6 58 4 40 0 57 -15 79 -11 15 -27 27 -36 27 -9 0
-30 9 -47 20 -16 11 -42 20 -56 20 -32 0 -59 28 -59 63 0 14 -7 32 -15 40 -21
22 -28 61 -20 122 l6 55 85 0 c83 0 84 0 84 -25 0 -21 5 -25 29 -25 16 0 37
-7 45 -16 14 -14 18 -13 41 3 19 14 24 27 25 61 0 30 4 42 15 42 8 0 15 4 15
9 0 12 -59 71 -71 71 -5 0 -9 13 -9 29 0 16 -7 34 -15 41 -22 18 -22 190 0
190 8 0 15 -7 15 -15 0 -20 83 -21 99 -1 10 12 6 15 -19 21 l-31 7 26 24 c26
24 95 35 95 14 0 -5 22 -10 49 -10 37 0 53 -5 63 -18 15 -21 110 -61 161 -68
29 -3 39 1 55 21 11 14 24 25 28 25 5 0 22 13 37 29 27 28 76 43 139 44 15 0
25 4 22 8 -3 5 0 9 5 9 6 0 16 -9 23 -20 7 -11 18 -20 24 -20 6 0 29 -14 50
-31 51 -41 127 -76 132 -60 2 6 21 11 43 11 28 0 39 4 39 15 0 8 5 15 10 15 6
0 19 9 30 20 11 11 20 16 20 10 0 -5 19 -15 43 -21 23 -7 46 -16 51 -21 6 -4
90 -8 188 -8 150 0 180 -2 184 -15 4 -10 21 -15 54 -15 41 0 53 -5 93 -40 44
-39 47 -40 121 -40 59 0 78 -3 82 -15 5 -12 25 -15 91 -15 l85 0 -3 43 -4 42
43 -4 42 -3 0 255 c0 141 3 262 6 271 5 13 22 16 85 16 78 0 79 0 79 25 l0 25
-4362 -1 c-3711 0 -4373 -3 -4428 -15z m70 -1130 c166 -87 249 -306 163 -435
-107 -162 -395 -99 -490 107 -73 160 -11 316 142 355 47 12 135 -1 185 -27z
m850 -1241 c55 -59 88 -127 77 -157 -7 -19 -58 -21 -90 -5 -38 19 -108 92
-123 128 -17 41 -18 87 -1 95 6 3 28 3 47 1 27 -3 48 -18 90 -62z m381 -412
c60 -30 119 -85 163 -149 38 -57 63 -165 52 -225 -6 -32 -14 -39 -81 -72 -71
-36 -78 -37 -147 -33 -97 7 -141 28 -214 99 -61 60 -88 132 -81 214 8 80 36
137 85 170 33 23 45 26 107 23 48 -3 84 -11 116 -27z m3819 -13 c0 -11 -8 -18
-19 -18 -26 0 -32 21 -13 43 17 19 32 8 32 -25z m-597 -776 c19 -9 50 -37 68
-62 27 -37 32 -53 32 -100 0 -48 -5 -63 -34 -103 -19 -25 -38 -46 -43 -47 -5
0 -18 -8 -28 -17 -17 -15 -25 -15 -80 -4 -94 19 -138 73 -138 166 0 61 26 123
59 140 15 7 33 21 40 29 18 21 78 20 124 -2z m-2272 -452 c77 -51 107 -141 66
-203 -39 -60 -173 -19 -228 69 -53 87 -12 171 80 162 26 -3 62 -15 82 -28z
m800 -77 c34 -20 46 -54 33 -92 -13 -36 -62 -41 -97 -9 -39 35 -43 63 -13 93
30 30 39 31 77 8z m-2472 -688 c145 -85 274 -322 217 -397 -34 -45 -155 -4
-254 86 -120 110 -172 245 -121 317 29 42 80 40 158 -6z m2024 -931 c106 -54
126 -152 42 -204 -37 -23 -75 -16 -131 22 -48 33 -67 72 -61 121 10 72 76 98
150 61z m-1002 -404 c10 -6 37 -34 59 -62 32 -40 38 -53 29 -64 -16 -20 -24
-18 -65 18 -39 34 -65 83 -57 105 6 16 9 16 34 3z m707 -385 c43 -50 20 -92
-44 -80 -36 6 -84 47 -84 71 0 50 87 56 128 9z m29 -890 c59 -45 105 -108 101
-137 -2 -19 -9 -23 -39 -22 -91 3 -204 135 -157 182 20 20 47 14 95 -23z"/>
<path d="M8990 10940 l0 -50 35 0 c28 0 35 4 35 20 0 17 7 20 45 20 43 0 45 1
45 30 l0 30 -80 0 -80 0 0 -50z"/>
<path d="M9820 10780 c6 -11 16 -20 23 -20 8 0 8 3 -2 9 -7 5 -10 14 -7 20 4
6 0 11 -9 11 -13 0 -14 -4 -5 -20z"/>
<path d="M9710 10775 c-11 -13 -8 -15 19 -15 21 0 31 5 31 15 0 8 -8 15 -19
15 -10 0 -24 -7 -31 -15z"/>
<path d="M9810 10720 c0 -5 5 -10 11 -10 5 0 7 5 4 10 -3 6 -8 10 -11 10 -2 0
-4 -4 -4 -10z"/>
<path d="M9795 10653 c26 -93 31 -362 10 -498 -42 -272 -44 -285 -59 -286 -19
-2 68 -27 96 -28 24 -1 27 -4 24 -33 -2 -18 -7 -44 -10 -58 -3 -14 -8 -36 -10
-50 -3 -14 -16 -81 -30 -150 -13 -69 -29 -181 -35 -249 -6 -68 -14 -127 -17
-132 -3 -5 61 -10 143 -10 l148 -2 -165 -12 c-91 -7 -180 -16 -198 -19 -62
-14 -20 -26 96 -27 64 -1 155 -4 202 -8 86 -6 -7 -11 -537 -27 -79 -2 -143 -7
-143 -10 0 -3 72 -7 159 -9 161 -4 221 -13 256 -39 19 -14 20 -28 20 -365 0
-305 -2 -351 -15 -352 -8 -1 -1 -5 15 -9 17 -4 101 -8 187 -9 l157 -1 -2 380
c-1 248 1 380 8 381 29 2 174 -3 200 -7 30 -4 65 9 53 21 -9 9 -155 22 -218
19 -36 -2 -49 0 -40 6 8 6 66 10 129 10 63 0 112 2 110 4 -2 3 -47 8 -99 11
-52 4 -97 9 -99 11 -2 2 -11 -2 -19 -9 -13 -10 -15 -9 -9 6 4 10 7 26 7 35 1
16 2 16 14 0 11 -15 17 -16 39 -5 15 6 27 15 27 18 0 10 -41 19 -87 19 -37 0
-43 3 -43 21 0 73 -34 378 -50 449 -27 117 -31 130 -41 130 -15 0 -10 62 6 74
14 10 14 20 5 71 -7 33 -14 87 -17 119 -4 49 -3 58 10 53 17 -6 27 19 27 71 0
17 4 32 8 32 9 0 77 -176 114 -292 17 -54 25 -68 46 -73 13 -3 26 -4 29 -2 4
5 -34 133 -68 225 -102 280 -191 458 -297 600 -30 40 -47 42 -37 5z"/>
<path d="M5900 9346 c0 -2 7 -9 15 -16 12 -10 15 -10 15 4 0 9 -7 16 -15 16
-8 0 -15 -2 -15 -4z"/>
<path d="M9295 9150 c-3 -5 -1 -10 5 -10 7 0 10 -7 6 -15 -4 -10 1 -15 14 -15
23 0 25 8 6 33 -15 19 -22 21 -31 7z"/>
<path d="M9225 9120 c-3 -5 -1 -10 4 -10 6 0 11 5 11 10 0 6 -2 10 -4 10 -3 0
-8 -4 -11 -10z"/>
<path d="M6020 8988 c0 -40 12 -67 31 -73 14 -5 19 -16 19 -46 0 -33 3 -40 18
-37 12 2 18 14 20 41 3 33 6 37 30 37 l27 0 -25 15 c-14 8 -35 19 -47 24 -15
7 -23 19 -23 36 0 20 -5 25 -25 25 -19 0 -25 -5 -25 -22z"/>
<path d="M6181 8863 l-1 -63 50 0 c37 0 50 4 50 14 0 8 6 16 14 18 13 3 13 6
0 22 -14 19 -14 19 -14 -2 0 -12 -4 -22 -9 -22 -11 0 -77 65 -84 83 -3 6 -6
-16 -6 -50z"/>
<path d="M10327 8384 c-4 -21 -7 -69 -7 -106 0 -37 -4 -70 -10 -73 -5 -3 -10
-25 -11 -48 0 -23 -7 -78 -14 -122 l-13 -80 5 110 c2 61 6 115 8 122 2 7 1 15
-4 17 -4 3 -13 -58 -20 -136 -6 -77 -25 -218 -41 -313 -16 -94 -36 -225 -44
-291 -9 -65 -20 -155 -26 -199 -11 -92 -29 -416 -32 -585 -1 -98 -2 -106 -7
-50 -9 97 -26 -228 -24 -444 1 -93 -2 -176 -7 -185 -7 -13 -10 -10 -11 14 -5
107 4 1156 12 1320 5 110 12 351 15 537 l7 336 -47 7 c-50 8 -402 2 -410 -6
-11 -11 -16 -82 -27 -429 -11 -361 -6 -891 10 -934 5 -11 14 -58 21 -103 7
-46 16 -80 21 -77 5 3 9 0 9 -6 0 -6 4 -9 9 -5 12 7 19 71 26 235 7 177 22
381 28 386 9 9 20 -186 13 -232 -3 -25 -2 -43 3 -40 10 7 26 -119 16 -133 -5
-10 4 -187 26 -496 5 -77 14 -256 18 -399 9 -269 11 -275 53 -276 15 0 18 14
20 108 l3 107 61 3 61 3 11 -39 c7 -22 12 -57 13 -78 2 -66 12 -89 39 -89 24
0 25 2 28 90 4 128 6 135 40 126 28 -9 28 -9 40 57 6 40 18 73 30 85 20 20 20
20 50 -2 l31 -21 6 20 c4 12 17 25 30 30 14 5 26 20 30 39 7 35 45 52 70 31
24 -20 35 -2 35 56 0 31 4 63 9 72 26 49 19 1233 -8 1442 -30 230 -48 320
-126 634 l-12 49 -6 -39z m-60 -481 c-3 -10 -5 -2 -5 17 0 19 2 27 5 18 2 -10
2 -26 0 -35z m-10 -60 c-3 -10 -5 -4 -5 12 0 17 2 24 5 18 2 -7 2 -21 0 -30z
m-10 -65 c-3 -7 -5 -2 -5 12 0 14 2 19 5 13 2 -7 2 -19 0 -25z"/>
<path d="M9166 7889 c-4 -39 -10 -78 -13 -87 -5 -11 -3 -13 6 -7 10 6 11 3 3
-11 -5 -11 -12 -62 -15 -114 -4 -52 -11 -142 -16 -200 -16 -174 -23 -969 -11
-1250 12 -296 22 -385 44 -409 9 -10 13 -21 9 -24 -3 -4 -4 -7 -1 -7 3 0 23
16 44 35 l39 36 10 -30 c5 -16 13 -33 18 -37 4 -4 7 -22 7 -41 0 -26 4 -33 20
-33 19 0 20 6 19 106 0 58 2 108 5 111 3 3 12 3 21 0 12 -5 15 -24 16 -87 2
-110 3 -120 12 -120 10 -1 37 26 32 32 -3 2 -5 38 -6 79 -1 41 -8 103 -15 139
-8 36 -17 142 -20 235 -14 416 -53 926 -89 1165 -8 52 -24 162 -35 244 -17
121 -63 331 -75 344 -1 1 -6 -29 -9 -69z"/>
<path d="M13350 7280 c-382 -4 -1139 -8 -1682 -9 -613 0 -996 -5 -1012 -11
l-26 -10 0 -397 c0 -219 -4 -438 -9 -488 -5 -49 -13 -152 -16 -227 -7 -123 -6
-138 9 -138 10 0 16 -9 16 -22 1 -21 2 -21 11 -5 18 30 38 19 51 -28 7 -25 15
-45 18 -45 4 0 4 -145 -1 -193 -2 -11 -8 -16 -16 -12 -8 3 -18 5 -22 5 -4 0
-13 11 -19 25 -15 33 -32 32 -33 -2 0 -25 -1 -25 -9 -8 -7 18 -8 16 -11 -10
-4 -28 1 -33 78 -78 46 -27 88 -45 94 -41 7 4 9 3 6 -2 -3 -5 43 -36 103 -67
61 -33 111 -53 114 -48 15 24 -20 117 -144 376 -21 44 -49 107 -63 140 -14 33
-55 127 -91 209 -36 82 -64 151 -62 154 4 3 126 -243 126 -254 0 -4 104 -231
160 -349 101 -211 118 -295 59 -295 -20 0 -26 -15 -10 -24 5 -3 7 -32 4 -64
l-5 -58 51 -52 c28 -28 51 -56 51 -62 0 -5 6 -10 13 -10 14 0 39 -46 58 -108
11 -37 11 -45 -2 -52 -11 -7 -11 -12 -1 -22 6 -6 12 -24 12 -39 0 -15 7 -34
15 -43 8 -8 15 -21 15 -28 1 -27 30 -92 44 -100 9 -5 25 -40 36 -77 12 -38 32
-84 46 -102 13 -18 24 -39 24 -47 0 -7 7 -20 15 -28 8 -9 15 -24 15 -35 0 -10
6 -19 13 -19 6 0 23 -14 37 -30 14 -17 33 -39 43 -50 22 -25 23 -90 2 -90 -8
0 -15 -4 -15 -10 0 -5 7 -10 15 -10 8 0 15 -7 15 -15 0 -8 6 -12 13 -10 20 8
66 -42 73 -81 3 -19 3 -70 0 -113 -7 -78 -7 -78 18 -83 18 -4 34 2 52 18 19
19 36 24 75 24 63 0 100 16 169 74 30 25 71 57 91 70 21 14 50 43 65 65 16 23
36 43 45 46 9 3 24 21 35 40 23 43 29 45 135 52 97 6 154 -11 170 -54 7 -18
16 -23 46 -23 43 0 50 4 81 44 12 16 22 26 22 22 0 -4 9 -2 20 4 11 6 20 16
20 23 0 7 13 23 29 34 l28 22 10 -22 c7 -15 7 -28 -1 -40 -9 -15 -6 -22 17
-41 15 -12 31 -36 36 -52 8 -28 8 -28 16 16 4 25 12 51 18 58 8 10 5 14 -11
19 -11 3 -22 15 -24 27 -2 13 -10 20 -21 20 -12 -1 -17 5 -17 22 0 15 -6 24
-16 24 -9 0 -14 3 -12 8 2 4 12 24 21 45 16 33 21 37 56 37 53 0 67 -19 53
-69 -7 -21 -21 -46 -32 -56 -39 -35 -11 -48 44 -20 34 18 98 18 146 1 l35 -13
52 57 c63 69 110 95 147 81 81 -32 63 -139 -41 -238 -19 -18 -39 -33 -45 -33
-16 0 -78 -49 -78 -62 0 -6 -13 -24 -30 -40 -16 -15 -30 -37 -30 -49 0 -11
-11 -31 -25 -45 -14 -14 -25 -37 -25 -52 0 -49 -11 -68 -48 -88 -20 -10 -42
-25 -48 -33 -6 -8 -16 -11 -21 -8 -6 4 -30 -12 -53 -34 -37 -36 -41 -43 -27
-51 10 -5 17 -16 17 -24 0 -8 4 -13 9 -10 14 9 29 -160 21 -244 -1 -14 1 -42
5 -63 7 -34 5 -39 -14 -44 -21 -5 -30 -23 -11 -23 6 0 10 -9 10 -19 0 -11 -4
-23 -10 -26 -5 -3 -10 -15 -10 -26 0 -13 7 -19 24 -19 39 0 50 -55 16 -85 -11
-10 -22 -26 -25 -37 -7 -21 -100 -113 -115 -113 -17 -1 -73 -54 -90 -87 l-20
-38 25 0 c27 0 48 -30 39 -55 -4 -8 -20 -23 -36 -31 -21 -11 -28 -21 -25 -33
2 -10 0 -43 -5 -72 -18 -101 -17 -170 3 -190 20 -20 49 -16 49 6 0 7 6 18 14
24 10 9 22 4 52 -20 21 -17 46 -42 54 -55 13 -22 13 -28 -2 -55 -17 -28 -17
-30 2 -49 11 -11 24 -20 29 -20 19 0 71 -65 71 -87 0 -13 -4 -23 -10 -23 -16
0 -12 -45 10 -104 12 -30 20 -58 19 -62 -1 -5 1 -22 6 -38 7 -25 4 -33 -19
-51 -24 -19 -27 -26 -20 -59 9 -50 -20 -110 -50 -101 -6 2 -26 6 -43 9 -28 5
-33 3 -33 -15 0 -11 14 -47 31 -81 17 -34 38 -85 46 -112 22 -76 44 -119 73
-141 56 -44 70 -64 70 -99 0 -28 -7 -40 -41 -67 -23 -18 -37 -35 -32 -40 5 -5
231 -8 504 -7 l494 3 -3 28 -3 29 573 -3 573 -4 13 50 c14 53 12 223 -8 655
-30 652 -40 883 -50 1150 -6 162 -15 405 -20 540 -38 975 -50 1320 -52 1535
-2 168 -3 182 -7 90 -6 -108 -6 -107 -13 85 -4 107 -12 353 -18 545 -20 697
-29 863 -55 1010 -5 28 -3 27 15 -10 l21 -40 -7 35 c-18 94 -86 179 -183 227
-56 27 -57 27 -286 29 -126 0 -543 -2 -925 -6z m-36 -576 c8 -22 -11 -54 -34
-54 -23 0 -36 36 -20 55 16 20 46 19 54 -1z m-24 -424 c15 -28 -4 -86 -35
-106 -19 -12 -28 -13 -45 -4 -18 10 -21 18 -16 42 8 41 43 88 66 88 11 0 24
-9 30 -20z m-458 -322 c48 -63 18 -151 -67 -199 -76 -42 -126 -22 -138 57 -17
116 141 225 205 142z m-1455 -30 c15 -19 22 -93 11 -109 -7 -12 -11 -11 -21 4
-7 10 -20 28 -29 39 -22 26 -23 42 -2 62 19 19 28 20 41 4z m-400 -14 c2 -6
-8 -16 -21 -22 -20 -9 -27 -8 -37 4 -10 13 -10 17 2 25 18 11 51 8 56 -7z
m248 -14 c10 -16 -16 -43 -28 -31 -11 11 -2 41 12 41 5 0 13 -5 16 -10z m-531
-219 c6 -10 -62 -6 -71 4 -5 4 -3 5 4 1 6 -3 14 -2 17 3 6 9 43 4 50 -8z m28
-13 c-8 -8 -9 -4 -5 13 4 13 8 18 11 10 2 -7 -1 -18 -6 -23z m864 7 c8 -33 -1
-55 -24 -55 -30 0 -44 23 -32 54 13 34 47 35 56 1z m-901 -15 c3 -5 -1 -10
-10 -10 -9 0 -13 5 -10 10 3 6 8 10 10 10 2 0 7 -4 10 -10z m1397 -15 c14 -30
-3 -55 -38 -55 -27 0 -40 30 -24 60 15 28 48 25 62 -5z m-652 -255 c0 -24 -26
-38 -42 -22 -16 16 -2 42 22 42 13 0 20 -7 20 -20z m50 -749 c0 -11 -5 -23
-11 -27 -15 -9 -33 12 -26 30 9 23 37 20 37 -3z m1345 -761 c3 -5 1 -10 -4
-10 -6 0 -11 5 -11 10 0 6 2 10 4 10 3 0 8 -4 11 -10z m1115 -520 c0 -27 -15
-40 -46 -40 -19 0 -18 44 1 64 22 21 45 9 45 -24z m-1124 -248 c6 -4 21 -23
32 -42 20 -31 20 -36 5 -52 -11 -12 -20 -15 -32 -8 -10 5 -32 8 -49 8 -41 -1
-76 17 -92 47 -22 42 -8 55 62 55 35 0 68 -4 74 -8z m982 -94 c19 -19 14 -44
-14 -77 -47 -57 -90 -36 -65 32 19 49 55 69 79 45z m-968 -93 c6 4 22 -3 35
-15 30 -28 43 -100 25 -138 -24 -53 -27 -57 -44 -60 -16 -4 -22 20 -18 81 1
15 -2 27 -8 27 -5 0 -10 7 -10 15 0 13 3 13 20 3 24 -15 38 -3 22 20 -7 9 -15
25 -18 35 -4 11 -17 17 -35 17 -16 0 -29 4 -29 9 0 14 23 20 37 9 7 -5 17 -7
23 -3z m-82 -87 c16 -16 15 -48 -1 -48 -7 0 -22 6 -32 14 -16 12 -17 16 -6 30
16 19 23 20 39 4z m-58 -128 c0 -5 -2 -10 -4 -10 -3 0 -8 5 -11 10 -3 6 -1 10
4 10 6 0 11 -4 11 -10z m-60 -28 c0 -16 -8 -32 -20 -39 -25 -16 -32 -3 -19 36
14 39 39 41 39 3z m451 -153 c17 -17 20 -29 16 -56 -7 -43 -23 -62 -64 -80
-40 -16 -64 -17 -86 0 -14 10 -15 18 -6 50 14 50 64 107 95 107 13 0 34 -10
45 -21z"/>
<path d="M5034 7250 c-166 -18 -279 -128 -303 -296 -6 -38 -15 -269 -21 -514
-6 -245 -15 -584 -20 -755 -5 -170 -14 -501 -20 -735 -5 -234 -15 -567 -21
-740 -6 -173 -12 -468 -14 -655 -2 -187 -10 -518 -19 -735 -39 -998 -45 -1311
-25 -1384 l14 -48 573 1 573 2 -6 -33 -6 -33 177 3 c97 2 188 8 202 13 22 8
24 14 19 46 -8 46 -17 55 -64 60 -21 2 -72 7 -113 12 l-75 8 69 2 c60 1 67 3
56 16 -10 13 -9 15 12 15 13 0 29 -5 36 -12 8 -8 15 -8 24 -1 7 6 27 14 44 17
19 4 34 15 37 26 6 24 0 30 -30 30 -16 0 -23 6 -23 19 0 23 22 40 28 23 14
-42 57 34 68 118 10 77 10 75 -14 73 -15 -2 -26 5 -33 21 -7 14 -26 28 -49 35
-44 13 -80 52 -80 87 0 14 -6 24 -15 24 -9 0 -14 9 -13 28 1 15 -2 35 -6 44
-5 12 4 28 31 56 42 44 53 87 30 124 -8 13 -27 82 -42 153 -16 72 -33 135 -40
140 -22 18 -28 54 -11 61 9 3 16 12 16 20 0 8 6 14 14 14 8 0 24 13 36 30 12
16 28 30 36 30 8 0 20 12 26 28 7 15 26 45 43 67 41 52 47 69 50 137 1 31 6
63 12 70 6 7 13 25 17 39 3 15 23 41 43 58 55 45 65 55 93 94 26 37 58 57 90
57 11 0 20 7 20 15 0 8 4 15 9 15 6 0 25 25 43 55 24 41 39 55 55 55 13 0 23
4 23 9 0 5 18 32 40 60 41 51 91 81 138 81 41 0 103 -22 112 -40 6 -12 17 -16
34 -13 14 3 45 -4 70 -17 26 -12 51 -18 58 -14 7 4 35 9 62 11 27 2 53 9 58
15 6 10 8 10 8 1 0 -6 -4 -15 -10 -18 -6 -3 -10 -12 -10 -18 0 -8 21 -12 61
-12 47 0 64 -4 72 -17 9 -13 15 -14 31 -6 19 10 20 10 7 -5 -11 -14 -11 -17 1
-17 18 0 47 -34 64 -77 8 -19 21 -36 29 -40 8 -3 15 -13 15 -22 0 -10 6 -25
13 -34 11 -16 15 -16 67 -1 30 10 66 16 79 16 14 -1 28 3 32 10 8 12 48 -25
75 -69 12 -19 6 -21 101 25 29 14 31 19 27 55 -4 32 -2 38 10 34 21 -8 26 4
30 60 3 41 6 48 23 46 30 -3 47 36 39 90 -7 43 -6 45 25 56 29 10 31 13 25 45
-8 43 0 63 28 70 19 5 50 34 129 123 17 19 21 41 24 120 4 97 3 98 -27 133
-16 19 -30 38 -30 42 0 4 -9 10 -20 13 -11 3 -20 12 -20 20 0 10 -17 12 -77 8
-94 -5 -146 15 -151 62 -4 33 31 75 63 75 38 0 112 -30 135 -56 13 -13 28 -24
33 -24 5 0 15 -7 22 -16 14 -19 55 -11 55 11 0 15 34 38 42 29 3 -2 17 14 32
36 27 40 34 80 15 80 -5 0 -7 5 -4 10 3 6 1 10 -5 10 -6 0 -15 -11 -19 -23
-14 -36 -84 -53 -153 -37 -60 15 -68 22 -68 67 0 28 6 36 46 59 43 25 50 27
88 15 22 -7 48 -13 56 -13 8 -1 24 -12 37 -26 l23 -25 -6 44 c-5 36 -1 50 18
79 21 31 30 35 72 38 33 2 60 12 87 32 22 15 63 34 91 41 27 8 52 19 55 26 3
7 20 21 40 33 27 15 33 25 28 40 -4 11 -2 20 4 20 6 0 11 8 11 18 0 11 7 33
16 51 9 18 20 64 25 104 5 44 15 76 24 83 17 13 37 104 26 119 -4 5 -13 24
-20 42 -14 35 -14 34 95 130 11 10 33 40 47 66 57 101 76 126 95 119 15 -5 16
14 2 23 -12 7 -3 46 12 56 5 3 1 9 -10 11 -19 5 -21 12 -38 138 -3 25 -8 47
-10 49 -6 6 -146 -63 -241 -119 -83 -50 -151 -80 -177 -80 -7 0 -20 6 -30 13
-18 13 -18 16 -2 72 10 32 30 85 46 119 16 34 45 101 65 151 21 49 48 112 60
140 13 28 33 75 45 105 12 30 40 90 61 134 84 165 79 129 79 619 l0 437 -1847
-1 c-1017 -1 -1880 -5 -1919 -9z m2971 -959 c7 -12 -12 -24 -25 -16 -11 7 -4
25 10 25 5 0 11 -4 15 -9z m23 -115 c3 -12 -1 -17 -10 -14 -7 3 -15 13 -16 22
-3 12 1 17 10 14 7 -3 15 -13 16 -22z m40 -482 c4 -27 -22 -38 -42 -18 -8 8
-13 21 -9 30 8 22 47 13 51 -12z m562 -526 c25 -28 23 -45 -11 -71 -24 -17
-30 -18 -55 -6 -36 17 -42 51 -15 78 27 27 55 27 81 -1z m-695 -273 c0 -30
-39 -27 -43 3 -3 20 0 23 20 20 15 -2 23 -10 23 -23z m524 -66 c17 -17 31 -38
31 -47 0 -21 -43 -62 -64 -62 -22 0 -64 28 -77 52 -12 21 15 74 40 81 32 9 40
6 70 -24z m-3302 -478 c42 -19 64 -54 45 -73 -15 -15 -84 -28 -112 -21 -72 17
-101 53 -73 92 18 27 82 28 140 2z m1388 -107 c31 -20 33 -59 4 -75 -26 -13
-76 -5 -101 18 -22 20 -23 31 -1 55 20 22 66 23 98 2z m430 -208 c72 -33 81
-47 50 -76 -22 -21 -35 -24 -96 -24 -59 1 -74 5 -94 24 -30 28 -32 53 -5 80
27 27 82 26 145 -4z m1129 -172 c30 -30 13 -74 -29 -74 -12 0 -26 5 -33 12 -7
7 -12 21 -12 33 0 42 44 59 74 29z m-438 -639 c4 -8 12 -15 20 -15 8 0 14 -7
14 -15 0 -8 -5 -15 -11 -15 -11 0 -48 40 -49 53 0 13 21 7 26 -8z m-1707 -561
c20 -23 21 -29 11 -55 -7 -16 -16 -29 -21 -29 -5 0 -9 -12 -10 -27 0 -27 -1
-27 -17 9 -9 21 -25 39 -38 42 -23 6 -42 38 -25 44 5 2 19 12 32 23 29 25 41
24 68 -7z m-36 -1171 c-7 -2 -19 -2 -25 0 -7 3 -2 5 12 5 14 0 19 -2 13 -5z"/>
<path d="M5930 2640 c0 -5 5 -10 10 -10 6 0 10 5 10 10 0 6 -4 10 -10 10 -5 0
-10 -4 -10 -10z"/>
<path d="M14752 6950 c0 -19 2 -27 5 -17 2 9 2 25 0 35 -3 9 -5 1 -5 -18z"/>
<path d="M9782 6410 c0 -14 2 -19 5 -12 2 6 2 18 0 25 -3 6 -5 1 -5 -13z"/>
<path d="M8831 6275 c0 -11 4 -29 9 -40 l9 -20 0 20 c0 11 -4 29 -9 40 l-9 20
0 -20z"/>
<path d="M8844 6125 c2 -38 10 -124 17 -190 7 -66 12 -133 11 -149 -1 -16 3
-36 9 -45 13 -21 5 205 -12 339 -15 114 -33 146 -25 45z"/>
<path d="M8882 5704 c-7 -8 -8 -14 -3 -14 10 0 25 19 20 25 -2 1 -10 -3 -17
-11z"/>
<path d="M9175 5644 c-18 -14 -18 -14 2 -14 23 0 39 15 26 23 -5 3 -17 -1 -28
-9z"/>
<path d="M10590 5629 c0 -5 5 -7 10 -4 6 3 10 8 10 11 0 2 -4 4 -10 4 -5 0
-10 -5 -10 -11z"/>
<path d="M10617 5624 c-8 -9 1 -24 14 -24 6 0 7 4 4 10 -3 6 1 7 9 4 14 -5 14
-8 1 -21 -17 -16 -20 -27 -5 -18 5 3 18 0 28 -6 14 -9 23 -9 38 0 17 10 16 11
-7 5 -15 -3 -30 -1 -33 5 -5 7 2 11 16 11 19 0 17 3 -15 20 -42 22 -41 22 -50
14z"/>
<path d="M9170 5570 c0 -5 5 -10 10 -10 6 0 10 5 10 10 0 6 -4 10 -10 10 -5 0
-10 -4 -10 -10z"/>
<path d="M10670 5540 c0 -5 5 -10 10 -10 6 0 10 5 10 10 0 6 -4 10 -10 10 -5
0 -10 -4 -10 -10z"/>
<path d="M9110 5530 c0 -5 5 -10 11 -10 5 0 7 5 4 10 -3 6 -8 10 -11 10 -2 0
-4 -4 -4 -10z"/>
<path d="M10816 5503 c-18 -5 -18 -6 5 -20 l24 -14 -25 7 c-19 5 -22 4 -14 -6
7 -7 21 -9 35 -5 20 7 21 8 4 17 -14 8 -15 12 -4 19 15 9 6 10 -25 2z"/>
<path d="M9107 5494 c-13 -13 3 -21 34 -16 22 3 27 7 18 13 -17 10 -43 12 -52
3z"/>
<path d="M10880 5480 c0 -6 7 -10 15 -10 8 0 15 2 15 4 0 2 -7 6 -15 10 -8 3
-15 1 -15 -4z"/>
<path d="M8950 5440 c0 -11 4 -20 8 -20 4 0 8 9 9 20 1 11 -2 20 -8 20 -5 0
-9 -9 -9 -20z"/>
<path d="M19330 5310 l0 -130 -45 0 -45 0 0 -45 0 -45 -40 0 c-40 0 -40 0 -40
-40 l0 -39 -87 -3 -88 -3 -3 -42 c-3 -43 -3 -43 -43 -43 l-39 0 0 -45 0 -45
-90 0 -90 0 0 -40 0 -40 -81 0 -80 0 1 78 c2 109 -3 113 -9 7 l-6 -90 -85 -6
c-47 -3 -66 -6 -42 -7 41 -2 42 -3 42 -36 l0 -34 -85 -7 -85 -7 0 -39 c0 -37
-1 -39 -32 -39 -44 0 -56 9 -61 45 -2 17 -2 -7 1 -52 l4 -83 -86 0 -86 0 0
-40 0 -39 -87 -3 -88 -3 -3 -42 -3 -43 -130 0 -129 0 0 -45 0 -45 -40 0 -40 0
-2 88 -2 87 -5 -85 -6 -85 -60 -3 c-91 -5 -103 1 -108 51 l-4 42 -1 -47 -2
-48 -40 0 -40 0 0 -40 c0 -39 -1 -40 -35 -40 l-34 0 -4 88 -3 87 -2 -92 -2
-93 -45 0 -45 0 0 -37 0 -38 -268 -3 c-147 -1 -302 0 -344 4 l-78 6 0 34 c0
34 -1 34 -45 34 l-45 0 0 45 0 45 -45 0 -45 0 0 45 0 45 -85 0 -85 0 0 -45 0
-45 -90 0 -90 0 0 45 0 45 -45 0 -45 0 0 -45 0 -45 -85 0 -85 0 0 -77 c0 -43
-3 -102 -6 -130 l-7 -53 -123 0 -124 0 0 -45 0 -45 -40 0 -39 0 -3 83 -3 82
-88 5 -87 5 -1 -85 c0 -47 -5 -107 -9 -135 l-9 -50 2 47 c1 27 -2 47 -8 47
-52 -6 -62 1 -69 43 -4 27 -3 44 5 48 13 9 2 71 -14 82 -19 12 -27 -2 -27 -44
0 -47 8 -45 21 4 7 26 8 22 4 -22 -12 -142 -14 -204 -6 -175 7 25 8 23 5 -14
-2 -24 -5 -56 -5 -70 -1 -14 -5 -1 -10 29 -5 30 -7 89 -4 130 2 45 1 63 -4 45
-5 -22 -9 -2 -15 80 -25 337 -27 126 -6 -435 16 -411 20 -518 30 -845 11 -346
29 -772 35 -820 2 -16 4 -49 4 -73 l1 -44 33 7 c45 10 53 21 31 42 -17 17 -17
18 7 21 13 1 80 -2 149 -6 124 -9 125 -9 38 -11 -51 0 -88 -5 -88 -11 0 -6 34
-10 83 -10 46 0 87 -4 93 -9 5 -5 54 -13 109 -16 55 -4 102 -9 105 -10 3 -2
483 -5 1065 -6 583 -1 1062 -5 1065 -9 3 -4 409 -10 903 -14 l897 -7 0 1846 0
1845 -75 0 -75 0 0 -130z m-4393 -1722 c-3 -8 -6 -5 -6 6 -1 11 2 17 5 13 3
-3 4 -12 1 -19z m20 -140 c-3 -8 -6 -5 -6 6 -1 11 2 17 5 13 3 -3 4 -12 1 -19z
m-10 -50 c-3 -7 -5 -2 -5 12 0 14 2 19 5 13 2 -7 2 -19 0 -25z m293 -1380 c0
-12 7 -29 16 -39 9 -10 19 -39 21 -64 l6 -45 -68 0 -68 0 7 53 c3 28 6 67 6
85 0 31 2 32 40 32 34 0 40 -3 40 -22z m-161 -108 c-1 -53 -6 -44 -12 24 -3
30 -1 43 4 35 5 -8 8 -34 8 -59z m-32 8 c-3 -7 -5 -2 -5 12 0 14 2 19 5 13 2
-7 2 -19 0 -25z"/>
<path d="M8916 5364 c-5 -14 -4 -15 9 -4 17 14 19 20 6 20 -5 0 -12 -7 -15
-16z"/>
<path d="M9044 5331 c1 -36 1 -36 46 -36 37 0 46 4 57 25 11 21 13 22 13 6 0
-11 3 -17 6 -13 4 3 3 18 0 32 -5 21 -10 24 -20 16 -7 -6 -16 -8 -20 -4 -3 4
-24 8 -45 9 -38 2 -38 1 -37 -35z"/>
<path d="M10430 5359 c0 -5 -6 -9 -14 -9 -13 0 -26 -20 -26 -39 0 -16 46 1 62
24 17 22 16 23 -2 28 -11 3 -20 1 -20 -4z"/>
<path d="M8980 5334 c0 -14 4 -23 10 -19 6 3 10 15 10 26 0 10 -4 19 -10 19
-5 0 -10 -12 -10 -26z"/>
<path d="M12832 1293 c-80 -3 -111 -7 -106 -15 4 -6 3 -8 -4 -5 -18 12 -42 -4
-39 -26 1 -16 -6 -24 -33 -33 -20 -7 -37 -19 -39 -30 -2 -11 -8 -23 -15 -27
-6 -5 -1 -7 14 -5 19 2 26 -2 28 -17 2 -16 -6 -24 -31 -33 -18 -7 -43 -12 -55
-12 -26 0 -72 -20 -72 -32 0 -4 0 -11 0 -15 0 -5 23 -6 50 -5 28 2 50 0 50 -6
0 -13 -160 -21 -557 -29 -303 -5 -380 -11 -363 -26 3 -3 106 -8 229 -11 123
-4 230 -10 237 -13 8 -3 23 2 33 11 15 13 26 15 59 8 22 -5 53 -7 68 -4 19 3
25 1 20 -7 -5 -8 7 -11 38 -11 25 0 46 -4 46 -9 0 -10 -83 -21 -161 -21 -55 0
-116 -20 -102 -33 3 -4 65 -7 137 -7 177 0 382 -11 398 -22 20 -13 -12 -30
-42 -22 -30 8 -251 20 -274 16 -25 -5 -20 -41 7 -46 12 -3 158 -7 325 -10
l303 -6 -27 35 c-33 43 -26 47 81 43 77 -3 79 -3 86 -32 5 -16 14 -33 21 -37
17 -11 658 -11 658 -1 0 5 -11 19 -25 32 -14 13 -25 27 -25 32 0 4 41 8 90 8
80 0 90 -2 90 -18 0 -10 7 -28 16 -40 15 -22 16 -22 340 -22 238 0 324 3 324
12 0 16 -309 312 -389 372 -36 28 -75 61 -85 74 -38 48 -58 50 -390 46 -281
-4 -345 -8 -308 -21 6 -3 12 -11 12 -19 0 -11 -18 -14 -85 -14 -48 0 -85 4
-85 10 0 5 -10 18 -22 30 -23 21 -69 23 -426 13z m128 -33 c0 -5 -13 -10 -29
-10 -17 0 -33 5 -36 10 -4 6 8 10 29 10 20 0 36 -4 36 -10z m908 3 c-10 -2
-26 -2 -35 0 -10 3 -2 5 17 5 19 0 27 -2 18 -5z m-378 -109 c0 -10 -8 -13 -27
-9 -17 3 -14 0 7 -6 48 -15 63 -23 68 -39 8 -23 -97 -5 -125 21 -27 26 -26 27
24 44 41 14 53 12 53 -11z m-170 6 c0 -5 -20 -10 -45 -10 -25 0 -45 5 -45 10
0 6 20 10 45 10 25 0 45 -4 45 -10z m-347 -42 c-7 -14 -33 4 -33 23 0 18 1 18
18 2 11 -10 17 -21 15 -25z m397 26 c0 -8 -4 -12 -10 -9 -5 3 -10 10 -10 16 0
5 5 9 10 9 6 0 10 -7 10 -16z m430 6 c0 -5 -4 -10 -10 -10 -5 0 -10 5 -10 10
0 6 5 10 10 10 6 0 10 -4 10 -10z m17 -27 c-4 -3 -1 -13 6 -21 10 -13 9 -14
-3 -10 -19 6 -26 38 -9 38 7 0 9 -3 6 -7z m-1267 -63 c12 -8 9 -10 -12 -10
-16 0 -28 5 -28 10 0 13 20 13 40 0z m455 0 c-3 -5 -10 -10 -16 -10 -5 0 -9 5
-9 10 0 6 7 10 16 10 8 0 12 -4 9 -10z m265 -10 c0 -6 -27 -10 -62 -9 -45 0
-57 3 -43 9 28 12 105 12 105 0z m115 0 c3 -5 -1 -10 -9 -10 -9 0 -16 5 -16
10 0 6 4 10 9 10 6 0 13 -4 16 -10z m-427 -96 c49 -14 4 -54 -60 -54 -33 0
-68 24 -68 47 0 14 83 19 128 7z m502 -100 c0 -8 -7 -14 -16 -14 -22 0 -56 19
-50 29 8 13 66 0 66 -15z m797 0 c-3 -3 -12 -4 -19 -1 -8 3 -5 6 6 6 11 1 17
-2 13 -5z"/>
<path d="M5427 1253 c-18 -20 -48 -55 -68 -77 -46 -51 -250 -345 -257 -368 -4
-17 16 -18 312 -18 195 0 325 4 336 10 11 6 22 26 26 45 6 34 8 35 53 35 105
0 149 -21 116 -54 -35 -34 -19 -36 290 -36 251 0 305 2 305 14 0 20 -55 26
-272 26 -166 0 -198 2 -198 14 0 22 8 24 95 27 44 1 86 7 93 12 8 6 104 7 261
3 221 -7 249 -6 254 8 6 14 -17 16 -213 16 -226 0 -283 8 -260 35 19 23 74 36
160 38 105 3 104 17 -1 17 -87 0 -159 16 -159 35 0 26 23 30 135 25 114 -5
116 -5 122 18 6 26 -4 43 -15 25 -5 -8 -33 -11 -82 -9 -41 2 -110 4 -152 5
-73 1 -101 13 -60 25 9 3 -3 4 -27 1 -29 -2 -40 0 -31 5 8 5 11 12 7 16 -4 4
-3 12 2 18 5 6 14 28 19 49 8 30 7 40 -5 52 -29 30 -75 0 -111 -72 -19 -36
-24 -39 -51 -35 -29 4 -31 7 -31 43 0 32 -4 39 -19 39 -29 0 -35 18 -9 22 22
4 22 5 -5 16 -19 8 -109 12 -279 12 l-250 0 -31 -37z m303 -3 c-8 -5 -28 -9
-45 -9 -26 0 -27 2 -10 9 11 5 31 9 45 9 20 1 22 -1 10 -9z m-70 -70 c0 -5 -4
-10 -10 -10 -5 0 -10 5 -10 10 0 6 5 10 10 10 6 0 10 -4 10 -10z m633 -114
c-4 -6 -8 -18 -8 -26 0 -11 -15 -16 -57 -18 -56 -3 -58 -2 -58 22 0 26 -2 25
107 32 15 1 20 -2 16 -10z m-854 -35 c-15 -5 -22 6 -14 19 6 9 10 9 16 -1 5
-8 4 -15 -2 -18z m-36 4 c1 -5 -6 -11 -15 -13 -11 -2 -18 3 -18 13 0 17 30 18
33 0z m147 5 c0 -5 -21 -10 -46 -10 -27 0 -43 4 -39 10 3 6 24 10 46 10 21 0
39 -4 39 -10z m94 -2 c-3 -4 -23 -8 -45 -8 -24 0 -38 4 -34 10 3 5 24 9 45 8
22 -1 37 -5 34 -10z m-314 -78 c0 -5 -4 -10 -10 -10 -5 0 -10 5 -10 10 0 6 5
10 10 10 6 0 10 -4 10 -10z m135 1 c-6 -11 -45 -10 -45 1 0 4 12 8 26 8 14 0
23 -4 19 -9z m-158 -113 c-3 -8 -6 -5 -6 6 -1 11 2 17 5 13 3 -3 4 -12 1 -19z
m56 1 c-6 -6 -19 -9 -29 -6 -17 3 -16 5 6 14 28 12 39 8 23 -8z m687 11 c0 -5
1 -13 3 -17 3 -8 -32 -13 -50 -6 -11 4 -9 9 9 18 29 16 38 18 38 5z m-770 -10
c0 -5 -4 -10 -10 -10 -5 0 -10 5 -10 10 0 6 5 10 10 10 6 0 10 -4 10 -10z"/>
<path d="M16210 1160 c-244 -7 -534 -24 -582 -34 -13 -3 -65 -8 -117 -11 -51
-3 -97 -8 -101 -10 -5 -3 -10 1 -13 7 -2 7 -8 10 -12 6 -12 -11 10 -33 119
-121 68 -55 109 -80 130 -82 17 -1 83 3 146 11 63 7 160 18 215 24 55 6 150
18 212 25 61 8 160 17 220 21 59 4 113 10 118 14 6 4 46 10 90 13 121 9 395
36 437 43 20 3 47 14 59 25 16 14 25 16 30 8 5 -9 16 -7 39 8 l33 21 -24 8
c-79 25 -556 37 -999 24z"/>
<path d="M6618 1002 c-32 -2 -58 -7 -58 -12 0 -6 10 -10 23 -10 34 0 160 -9
267 -18 65 -6 99 -5 109 2 8 6 30 16 50 22 30 10 6 12 -149 15 -102 2 -211 3
-242 1z"/>
<path d="M7180 995 l-75 -13 93 -1 c71 -1 93 2 90 12 -6 16 -20 16 -108 2z"/>
<path d="M11490 980 c0 -6 28 -10 65 -10 37 0 65 4 65 10 0 6 -28 10 -65 10
-37 0 -65 -4 -65 -10z"/>
<path d="M11826 909 c-76 -4 -141 -10 -144 -13 -3 -3 78 -6 181 -6 102 0 192
-3 201 -6 9 -3 16 -2 16 4 0 5 -19 12 -42 14 -24 3 -50 7 -58 10 -8 3 -77 1
-154 -3z"/>
<path d="M11528 903 c7 -3 16 -2 19 1 4 3 -2 6 -13 5 -11 0 -14 -3 -6 -6z"/>
<path d="M11638 903 c6 -2 18 -2 25 0 6 3 1 5 -13 5 -14 0 -19 -2 -12 -5z"/>
<path d="M7650 799 c0 -5 23 -9 52 -9 28 0 49 2 47 4 -9 8 -99 13 -99 5z"/>
<path d="M15820 229 c-123 -8 -1212 -27 -1960 -34 -289 -3 -606 -8 -705 -12
-167 -7 -173 -8 -90 -14 75 -4 61 -6 -85 -8 l-175 -3 100 -14 c55 -7 130 -13
168 -13 63 -1 68 -3 77 -27 15 -39 13 -42 -35 -36 -37 4 -45 2 -45 -12 0 -12
10 -16 43 -17 23 -1 -49 -8 -161 -15 -111 -7 -210 -15 -220 -17 -9 -3 759 -5
1708 -6 1645 -1 1724 0 1702 17 -25 20 -35 56 -34 122 0 37 -4 48 -24 63 -32
24 -132 34 -264 26z"/>
<path d="M16373 208 c-15 -20 -33 -78 -33 -107 0 -15 -9 -43 -19 -64 l-19 -37
186 0 c110 0 182 4 177 9 -6 5 -28 22 -51 37 -71 50 -164 127 -164 136 0 4 -7
8 -15 8 -9 0 -18 7 -21 15 -7 18 -28 20 -41 3z"/>
<path d="M4276 165 c-3 -9 -3 -27 0 -41 5 -21 12 -24 50 -24 30 0 43 4 42 13
-2 8 12 13 40 15 29 2 42 -1 42 -10 0 -10 22 -13 85 -13 47 0 85 3 85 8 0 10
167 9 174 -1 6 -10 86 -2 86 9 0 5 41 9 90 9 83 0 90 1 90 20 0 19 -7 20 -147
21 -82 0 -257 3 -389 5 -216 4 -242 3 -248 -11z m247 -22 c-13 -2 -35 -2 -50
0 -16 2 -5 4 22 4 28 0 40 -2 28 -4z m327 -4 c-76 -5 -129 -4 -134 2 -6 5 40
8 125 8 l134 -2 -125 -8z"/>
<path d="M4388 43 c12 -2 30 -2 40 0 9 3 -1 5 -23 4 -22 0 -30 -2 -17 -4z"/>
<path d="M4335 18 c-60 -4 -119 -9 -130 -11 -11 -3 218 -5 509 -6 291 0 527 1
525 4 -3 2 -180 7 -394 10 -214 4 -391 7 -394 9 -4 1 -55 -2 -116 -6z"/>
</g>
</svg>
