<?xml version="1.0" standalone="no"?>
<!DOCTYPE svg PUBLIC "-//W3C//DTD SVG 20010904//EN"
 "http://www.w3.org/TR/2001/REC-SVG-20010904/DTD/svg10.dtd">
<svg version="1.0" xmlns="http://www.w3.org/2000/svg"
 width="964.000000pt" height="960.000000pt" viewBox="0 0 964.000000 960.000000"
 preserveAspectRatio="xMidYMid meet">

<g transform="translate(0.000000,960.000000) scale(0.100000,-0.100000)"
fill="#000000" stroke="none">
<path d="M4298 9178 c-3 -8 -33 -14 -81 -16 -42 -2 -77 -8 -77 -12 0 -4 -25
-11 -55 -15 -30 -3 -55 -11 -55 -16 0 -5 -13 -9 -29 -9 -16 0 -36 -7 -45 -15
-9 -9 -33 -15 -64 -15 -35 0 -52 -4 -56 -15 -3 -8 -17 -15 -31 -15 -14 0 -25
-4 -25 -10 0 -5 -6 -10 -14 -10 -8 0 -21 -6 -28 -12 -24 -23 -75 -48 -97 -48
-12 0 -21 -4 -21 -9 0 -5 -11 -12 -25 -15 -14 -4 -25 -11 -25 -16 0 -6 -7 -10
-15 -10 -9 0 -18 -7 -21 -15 -4 -8 -17 -15 -30 -15 -15 0 -24 -6 -24 -15 0 -8
-5 -15 -11 -15 -6 0 -24 -13 -41 -30 -16 -16 -36 -30 -44 -30 -8 0 -14 -4 -14
-10 0 -5 -7 -10 -15 -10 -9 0 -15 -9 -15 -25 0 -14 -4 -25 -9 -25 -5 0 -12
-13 -16 -30 -4 -16 -11 -30 -16 -30 -5 0 -9 -4 -9 -10 0 -5 7 -10 15 -10 8 0
15 5 15 10 0 6 23 10 51 10 43 0 56 4 77 27 16 18 27 23 30 15 4 -14 52 -16
52 -2 0 6 -4 10 -10 10 -5 0 -10 7 -10 15 0 8 4 15 9 15 5 0 11 -7 15 -15 7
-19 56 -20 56 -1 0 11 23 15 107 18 74 2 108 7 111 16 4 13 52 17 52 3 0 -4
17 -11 37 -14 32 -6 41 -3 59 18 22 26 44 33 44 15 0 -6 30 -10 70 -10 52 0
70 -3 70 -13 0 -17 72 -15 78 2 5 15 79 14 84 -1 3 -8 27 -13 63 -13 36 -1 60
-6 63 -13 2 -7 17 -12 33 -12 19 0 29 -5 29 -15 0 -10 10 -15 29 -15 36 0 61
-23 61 -56 0 -13 5 -24 10 -24 6 0 10 7 10 16 0 14 7 16 39 11 37 -5 40 -3 46
24 7 30 25 40 25 14 0 -8 7 -15 15 -15 8 0 15 -7 15 -15 0 -11 11 -15 40 -15
22 0 40 -4 40 -9 0 -5 18 -11 40 -15 22 -3 40 -11 40 -16 0 -6 7 -10 15 -10 8
0 15 -7 15 -15 0 -8 7 -15 15 -15 8 0 15 -6 15 -14 0 -8 6 -17 13 -20 8 -3 7
-8 -5 -16 -22 -13 -23 -30 -3 -30 8 0 15 5 15 10 0 15 58 12 63 -2 2 -8 8 -9
13 -4 5 5 4 11 -3 13 -23 8 -14 33 12 33 16 0 25 -6 25 -15 0 -8 7 -15 15 -15
9 0 15 -9 15 -25 0 -22 4 -25 40 -25 36 0 40 -3 40 -24 0 -48 9 -56 61 -56 37
0 49 -4 49 -15 0 -8 7 -15 15 -15 9 0 15 -9 15 -25 0 -21 5 -25 31 -25 l30 0
-3 -56 c-2 -39 1 -58 10 -61 6 -3 12 2 12 11 0 9 5 16 10 16 6 0 10 -4 10 -9
0 -5 9 -11 20 -14 12 -3 20 -14 20 -27 0 -29 23 -50 54 -50 35 0 59 -27 54
-62 -3 -19 0 -28 9 -28 7 0 13 -4 13 -10 0 -5 7 -10 15 -10 8 0 15 -7 15 -15
0 -8 4 -15 10 -15 5 0 12 -11 16 -25 4 -15 16 -28 30 -31 17 -4 24 -13 24 -30
0 -19 5 -24 25 -24 14 0 25 -4 25 -9 0 -16 -31 -22 -81 -15 -39 5 -49 10 -49
25 0 13 -7 19 -24 19 -30 0 -35 -12 -28 -78 4 -47 7 -52 28 -52 15 0 24 6 24
16 0 17 22 14 28 -4 2 -7 -3 -12 -12 -12 -13 0 -16 -11 -16 -55 0 -42 3 -55
15 -55 8 0 15 -7 15 -15 0 -9 9 -15 24 -15 18 0 25 7 30 30 6 31 26 42 26 15
0 -8 7 -15 15 -15 8 0 15 -7 15 -15 0 -8 -7 -15 -15 -15 -9 0 -15 -9 -15 -25
0 -16 6 -25 15 -25 8 0 15 5 15 10 0 21 20 9 26 -15 3 -14 10 -25 15 -25 5 0
9 -7 9 -15 0 -9 -9 -15 -25 -15 -14 0 -25 -4 -25 -10 0 -5 7 -10 15 -10 8 0
15 -7 15 -15 0 -8 5 -15 10 -15 6 0 10 11 10 25 0 16 6 25 15 25 9 0 15 -9 15
-25 0 -16 6 -25 15 -25 9 0 15 -9 15 -25 0 -16 -6 -25 -15 -25 -8 0 -15 -7
-15 -15 0 -10 10 -15 30 -15 20 0 30 -5 30 -15 0 -8 5 -15 10 -15 6 0 10 18
10 39 0 25 5 41 15 45 8 3 15 17 15 31 0 20 -5 25 -25 25 -14 0 -25 4 -25 9 0
5 -9 11 -20 14 -12 3 -20 14 -20 26 0 12 -4 21 -10 21 -5 0 -10 7 -10 16 0 8
-7 22 -15 30 -19 19 -21 78 -2 72 6 -3 14 -15 15 -28 2 -13 10 -30 18 -37 8
-8 14 -21 14 -29 0 -8 10 -14 25 -14 16 0 25 -6 25 -15 0 -9 9 -15 25 -15 16
0 25 -6 25 -15 0 -8 6 -15 14 -15 8 0 16 -6 18 -12 3 -7 19 -13 37 -14 42 -2
46 -8 24 -33 -21 -25 -33 -27 -33 -6 0 10 -10 15 -30 15 -19 0 -30 -5 -30 -14
0 -8 -6 -17 -12 -20 -9 -3 -8 -8 5 -16 9 -6 17 -22 17 -35 0 -20 5 -25 25 -25
21 0 25 -5 25 -29 0 -16 -6 -32 -12 -34 -10 -4 -10 -8 -2 -14 6 -4 14 -18 18
-30 4 -12 16 -25 27 -28 28 -9 28 -85 0 -85 -21 0 -31 -19 -31 -56 0 -15 6
-24 15 -24 8 0 15 -7 15 -15 0 -8 7 -15 15 -15 8 0 15 -7 15 -15 0 -8 7 -15
15 -15 8 0 15 -4 15 -10 0 -14 48 -12 52 2 3 8 14 3 30 -15 25 -27 48 -35 48
-17 0 12 32 50 41 50 11 0 19 -44 12 -68 -4 -18 -12 -22 -43 -22 -21 0 -41 -6
-43 -12 -4 -10 -8 -10 -14 -1 -4 6 -21 15 -36 18 -15 4 -27 11 -27 16 0 5 -7
9 -15 9 -22 0 -19 -42 5 -63 11 -9 25 -17 30 -17 6 0 10 -7 10 -15 0 -12 -14
-15 -70 -15 -77 0 -85 8 -45 46 14 13 25 26 25 29 0 3 -18 5 -40 5 -38 0 -40
-2 -40 -29 0 -16 7 -36 15 -45 8 -8 15 -19 15 -25 0 -6 7 -11 15 -11 21 0 19
-12 -5 -33 -13 -11 -37 -17 -70 -17 l-50 0 0 -40 c0 -29 4 -40 15 -40 8 0 15
5 15 10 0 21 20 9 26 -15 3 -14 10 -25 14 -25 5 0 11 -13 15 -30 5 -23 12 -30
31 -30 15 0 24 6 24 15 0 32 18 13 24 -25 3 -22 11 -40 16 -40 6 0 10 -11 10
-25 0 -16 6 -25 15 -25 10 0 15 -10 15 -30 0 -25 -4 -30 -25 -30 -16 0 -25 6
-25 15 0 8 -7 15 -15 15 -19 0 -21 56 -2 64 10 5 10 7 0 12 -7 3 -13 12 -13
20 0 9 -11 14 -30 14 -20 0 -30 -5 -30 -15 0 -9 -9 -15 -25 -15 -20 0 -25 5
-25 25 0 16 -6 25 -15 25 -9 0 -15 -9 -15 -25 0 -16 6 -25 15 -25 9 0 15 -10
15 -26 0 -14 7 -32 15 -41 11 -11 14 -25 9 -51 -5 -26 -3 -38 8 -46 9 -7 17
-34 20 -71 3 -32 10 -61 16 -63 7 -2 12 -14 12 -28 0 -17 -7 -25 -25 -30 -14
-3 -25 -13 -25 -21 0 -10 6 -13 16 -9 9 3 19 6 24 6 4 0 11 11 14 25 6 24 46
37 46 15 0 -5 -4 -10 -10 -10 -5 0 -10 -7 -10 -15 0 -8 5 -15 10 -15 6 0 10
-7 10 -15 0 -8 -4 -15 -10 -15 -5 0 -10 -11 -10 -25 0 -14 5 -25 10 -25 6 0
10 5 10 10 0 6 14 10 30 10 17 0 30 -4 30 -10 0 -5 -7 -10 -15 -10 -10 0 -15
-10 -15 -30 0 -20 -5 -30 -15 -30 -8 0 -15 -7 -15 -15 0 -8 -4 -15 -10 -15 -5
0 -10 -11 -10 -25 0 -14 -7 -28 -15 -31 -8 -4 -15 -17 -15 -30 0 -35 45 -34
54 1 7 27 35 65 48 65 5 0 8 -57 8 -126 0 -130 -7 -154 -44 -154 -9 0 -16 -7
-16 -15 0 -8 -4 -15 -10 -15 -5 0 -10 -16 -10 -35 0 -19 5 -35 10 -35 6 0 10
11 10 25 0 23 4 25 40 25 22 0 40 4 40 9 0 5 14 11 30 14 36 8 40 27 6 27 -26
0 -41 34 -30 64 7 17 34 22 34 6 0 -16 38 -12 60 7 11 10 20 25 20 35 0 26 31
58 57 58 18 0 23 6 23 25 0 14 5 25 11 25 13 0 33 20 42 42 5 14 13 16 37 11
24 -4 36 -1 50 15 11 12 20 26 20 32 0 6 28 10 70 10 40 0 70 4 70 10 0 6 14
10 30 10 17 0 30 -4 30 -10 0 -5 5 -10 10 -10 6 0 10 7 10 15 0 9 9 15 24 15
13 0 26 7 30 15 3 8 16 15 30 15 13 0 26 3 28 8 5 11 67 42 85 42 8 0 21 7 29
15 9 8 24 15 35 15 10 0 19 5 19 10 0 6 18 10 40 10 22 0 40 -4 40 -10 0 -5
11 -10 25 -10 16 0 25 -6 25 -15 0 -18 27 -20 32 -3 4 11 21 -3 68 -59 6 -7
22 -13 35 -13 18 0 26 -7 31 -25 3 -14 12 -25 20 -25 8 0 14 -7 14 -15 0 -8
-7 -15 -15 -15 -9 0 -18 7 -21 15 -4 8 -13 15 -21 15 -7 0 -24 11 -37 25 -21
22 -33 26 -99 28 -70 2 -77 0 -100 -25 -15 -16 -31 -28 -37 -28 -5 0 -10 -5
-10 -11 0 -14 -25 -39 -39 -39 -6 0 -11 -7 -11 -15 0 -8 -7 -15 -15 -15 -8 0
-15 -7 -15 -15 0 -8 7 -15 15 -15 8 0 15 7 15 15 0 8 7 15 15 15 8 0 15 7 15
15 0 9 9 15 25 15 14 0 25 4 25 9 0 5 11 12 25 15 14 4 25 11 25 16 0 6 31 10
70 10 56 0 70 -3 70 -15 0 -8 7 -15 15 -15 8 0 15 -4 15 -9 0 -5 12 -12 26
-15 29 -8 54 -29 54 -45 0 -6 7 -11 15 -11 8 0 15 -7 15 -16 0 -12 7 -14 28
-10 15 3 32 3 38 -2 6 -4 14 -45 17 -92 3 -47 10 -86 16 -88 15 -5 14 -39 -1
-44 -8 -3 -14 -33 -16 -81 -2 -42 -8 -77 -12 -77 -4 0 -10 -18 -14 -40 -3 -22
-11 -40 -16 -40 -6 0 -10 -13 -10 -30 0 -16 -4 -30 -10 -30 -5 0 -13 -12 -16
-27 -4 -15 -13 -34 -21 -41 -7 -7 -13 -20 -13 -28 0 -8 -4 -14 -10 -14 -5 0
-10 -11 -10 -25 0 -16 -6 -25 -15 -25 -9 0 -15 -9 -15 -25 0 -14 -7 -28 -15
-31 -8 -4 -15 -17 -15 -30 0 -15 -6 -24 -15 -24 -8 0 -15 -7 -15 -15 0 -8 -4
-15 -10 -15 -5 0 -12 -11 -16 -25 -3 -14 -10 -25 -15 -25 -5 0 -9 -7 -9 -15 0
-8 -7 -15 -15 -15 -9 0 -15 9 -15 25 0 16 6 25 15 25 10 0 15 10 15 30 0 20 5
30 15 30 10 0 15 10 15 30 0 17 4 30 9 30 5 0 12 15 15 34 4 19 11 36 17 38
14 5 13 472 -1 476 -5 2 -12 26 -16 53 -6 43 -9 49 -30 49 -19 0 -24 -5 -24
-26 0 -14 -7 -32 -15 -40 -9 -9 -15 -34 -15 -60 0 -32 4 -44 15 -44 11 0 15
-12 15 -49 0 -29 5 -51 12 -53 7 -3 14 -32 16 -71 2 -37 8 -67 13 -67 5 0 9
-31 9 -70 0 -40 -4 -70 -10 -70 -5 0 -10 -11 -10 -24 0 -14 -7 -31 -15 -40 -8
-8 -15 -20 -15 -26 0 -6 -12 -25 -27 -40 -42 -44 -53 -58 -53 -68 0 -6 -12
-13 -27 -17 -15 -3 -37 -17 -50 -31 -12 -13 -31 -24 -43 -24 -11 0 -20 -7 -20
-15 0 -8 -7 -15 -15 -15 -8 0 -15 -4 -15 -9 0 -5 -13 -12 -30 -16 -16 -4 -30
-11 -30 -16 0 -8 17 -11 87 -13 38 -2 36 -14 -8 -60 -24 -25 -50 -52 -57 -61
-7 -8 -26 -15 -42 -15 -17 0 -30 -4 -30 -10 0 -5 -11 -12 -25 -16 -14 -3 -25
-10 -25 -15 0 -5 -25 -9 -55 -9 -52 0 -55 1 -55 25 0 36 -45 36 -54 0 -5 -18
-13 -25 -31 -25 -16 0 -25 -6 -25 -15 0 -8 -7 -15 -15 -15 -8 0 -15 -4 -15
-10 0 -5 -11 -12 -25 -16 -14 -3 -25 -10 -25 -14 0 -4 -11 -11 -25 -14 -14 -4
-25 -11 -25 -16 0 -6 -27 -10 -59 -10 -40 0 -65 -5 -75 -15 -8 -8 -31 -15 -50
-15 -20 0 -36 -4 -36 -9 0 -5 -13 -12 -30 -16 -16 -4 -30 -13 -30 -21 0 -8
-10 -14 -25 -14 -21 0 -26 -6 -31 -40 -5 -31 -11 -40 -26 -40 -21 0 -48 -22
-48 -39 0 -6 5 -11 10 -11 26 0 1 -40 -32 -53 -13 -5 -18 -17 -18 -47 0 -22
-4 -40 -10 -40 -5 0 -10 7 -10 15 0 8 -7 15 -15 15 -11 0 -15 -11 -15 -40 0
-29 4 -40 15 -40 8 0 15 -7 15 -15 0 -9 -9 -15 -25 -15 -16 0 -25 6 -25 15 0
8 -7 15 -15 15 -8 0 -15 -7 -15 -15 0 -8 5 -15 10 -15 19 0 10 -19 -12 -25
-11 -4 -31 -18 -43 -31 -12 -13 -27 -24 -34 -24 -6 0 -11 -11 -11 -24 0 -13
-7 -26 -15 -30 -9 -3 -15 -19 -15 -41 0 -19 -4 -35 -10 -35 -5 0 -10 -13 -10
-30 0 -20 -5 -30 -15 -30 -10 0 -15 -10 -15 -30 0 -16 -4 -30 -9 -30 -5 0 -12
-11 -15 -25 -7 -28 -21 -33 -30 -10 -3 8 -10 15 -16 15 -5 0 -10 -7 -10 -15 0
-8 -4 -15 -10 -15 -5 0 -10 -7 -10 -15 0 -8 5 -15 10 -15 20 0 9 -18 -15 -24
-15 -4 -27 -16 -31 -31 -3 -14 -10 -25 -15 -25 -5 0 -9 -13 -9 -30 0 -20 -5
-30 -15 -30 -8 0 -15 -7 -15 -15 0 -8 -7 -15 -15 -15 -8 0 -15 -4 -15 -9 0 -5
-11 -12 -25 -15 -16 -4 -25 -13 -25 -25 0 -12 -9 -21 -25 -25 -18 -5 -25 -13
-25 -31 0 -16 -6 -25 -15 -25 -8 0 -15 -4 -15 -9 0 -5 -13 -12 -30 -16 -16 -4
-30 -13 -30 -21 0 -8 -5 -14 -11 -14 -14 0 -39 -25 -39 -39 0 -6 -20 -11 -45
-11 -33 0 -45 -4 -45 -15 0 -11 -11 -15 -40 -15 -36 0 -40 -2 -40 -25 0 -22
-4 -25 -40 -25 -36 0 -40 -3 -40 -25 0 -19 -7 -26 -27 -31 -16 -4 -32 -12 -36
-18 -6 -8 -10 -7 -14 2 -10 26 -83 5 -83 -24 0 -4 -13 -20 -30 -36 -16 -15
-30 -35 -30 -43 0 -9 -10 -15 -25 -15 -16 0 -25 -6 -25 -15 0 -8 -7 -15 -15
-15 -8 0 -15 -7 -15 -15 0 -11 -11 -15 -40 -15 l-40 0 0 -40 c0 -28 -4 -40
-14 -40 -8 0 -16 -5 -18 -12 -6 -17 -28 0 -28 23 0 10 -4 19 -10 19 -5 0 -10
-13 -10 -30 0 -20 -5 -30 -15 -30 -8 0 -15 -4 -15 -10 0 -5 -10 -10 -23 -10
-13 0 -33 -13 -47 -30 -14 -16 -35 -29 -47 -30 -13 0 -23 -4 -23 -10 0 -5 -11
-12 -25 -16 -14 -3 -25 -10 -25 -15 0 -5 -6 -9 -14 -9 -8 0 -28 -13 -44 -30
-17 -16 -35 -30 -40 -30 -6 0 -12 -5 -14 -11 -2 -6 -27 -14 -56 -17 -29 -2
-52 -8 -52 -13 0 -5 -7 -9 -15 -9 -8 0 -15 -7 -15 -15 0 -16 -26 -21 -32 -6
-1 4 -13 12 -25 15 -17 6 -23 3 -23 -8 0 -10 -9 -16 -23 -16 -22 0 -57 -31
-57 -50 0 -6 -7 -10 -15 -10 -8 0 -15 -4 -15 -10 0 -15 -87 -12 -93 3 -4 9 -8
9 -14 1 -4 -7 -41 -13 -81 -16 -40 -2 -76 -8 -80 -13 -22 -31 -76 -45 -177
-45 -70 0 -105 -4 -107 -12 -6 -17 -290 -18 -295 0 -3 6 -15 12 -28 12 -12 0
-39 7 -58 15 -20 8 -59 15 -86 15 -29 0 -51 5 -53 12 -3 7 -36 12 -91 14 -97
2 -110 9 -121 67 -5 28 -13 38 -31 43 -14 3 -25 10 -25 15 0 5 -7 9 -15 9 -9
0 -15 9 -15 24 0 13 -7 26 -15 30 -8 3 -15 12 -15 21 0 8 -4 15 -9 15 -5 0
-12 11 -15 25 -4 16 -13 25 -26 25 -11 0 -20 7 -20 15 0 8 5 15 10 15 6 0 10
11 10 25 0 14 -6 25 -13 25 -9 0 -13 17 -14 55 -1 49 1 55 19 55 27 0 118 33
118 42 0 5 11 8 25 8 14 0 25 -4 25 -10 0 -5 7 -10 15 -10 8 0 15 7 15 15 0
10 10 15 30 15 17 0 30 5 30 10 0 6 -13 10 -30 10 -20 0 -30 5 -30 15 0 9 9
15 24 15 29 0 44 39 21 56 -21 16 -19 21 10 28 14 4 25 11 25 16 0 6 7 10 15
10 8 0 15 -4 15 -10 0 -16 47 -11 54 6 11 28 6 53 -11 64 -17 10 -17 10 0 20
9 6 17 20 17 30 0 13 9 22 25 26 18 4 25 13 25 30 0 23 -3 24 -65 24 -37 0
-65 -4 -65 -10 0 -5 -13 -10 -30 -10 -16 0 -30 5 -30 10 0 6 -20 10 -44 10
-26 0 -51 6 -60 15 -10 11 -36 15 -86 15 -63 0 -74 3 -94 25 -13 14 -28 25
-35 25 -6 0 -11 7 -11 15 0 8 -7 15 -15 15 -8 0 -15 -4 -15 -10 0 -19 -19 -10
-26 13 -4 12 -10 24 -14 27 -4 3 -10 16 -14 30 -6 19 -5 22 3 10 17 -24 31 6
31 68 0 40 4 52 15 52 12 0 14 -8 9 -40 -6 -37 -5 -40 16 -40 13 0 29 8 36 18
13 16 15 16 28 0 18 -25 24 -23 28 10 2 19 9 28 26 30 12 2 22 8 22 13 0 5 7
9 15 9 8 0 15 7 15 15 0 8 -5 15 -11 15 -6 0 -17 6 -25 14 -7 8 -18 16 -22 18
-5 1 -13 13 -16 26 -7 21 -4 22 38 22 34 0 46 4 46 15 0 8 5 15 11 15 15 0 39
26 39 43 0 9 6 18 13 21 10 5 10 7 0 12 -15 7 -18 84 -3 84 6 0 10 6 10 14 0
16 45 66 60 66 5 0 10 -4 10 -10 0 -13 47 -13 52 0 2 5 18 13 36 16 29 6 34 4
39 -16 5 -19 11 -21 42 -16 20 3 37 10 39 16 2 5 21 13 43 16 21 4 39 10 39
15 0 5 11 9 25 9 14 0 28 7 31 15 4 10 20 15 45 15 21 0 39 5 39 10 0 6 11 10
25 10 14 0 25 -4 25 -10 0 -6 48 -10 124 -10 87 0 126 -4 128 -12 3 -7 31 -14
69 -16 51 -3 69 0 82 12 12 13 39 16 136 16 101 0 121 2 121 15 0 8 -5 15 -11
15 -14 0 -39 25 -39 39 0 7 -23 11 -55 11 -30 0 -55 -4 -55 -9 0 -14 -53 -23
-84 -15 -19 4 -26 13 -26 30 0 23 -3 24 -59 24 -38 0 -61 5 -65 13 -5 10 -7
10 -12 0 -9 -19 -84 -17 -84 2 0 8 -7 15 -15 15 -9 0 -15 9 -15 25 0 25 -1 25
-79 25 -61 0 -80 3 -85 15 -3 8 -17 15 -31 15 -16 0 -25 6 -25 16 0 26 -25 9
-28 -19 -3 -21 -9 -27 -28 -27 -15 0 -24 -6 -24 -15 0 -12 -17 -15 -95 -15
-78 0 -95 3 -95 15 0 19 -56 21 -63 3 -5 -17 -259 -16 -265 1 -4 13 -82 15
-82 1 0 -5 -30 -10 -67 -12 l-68 -3 -3 -38 c-2 -23 3 -48 12 -62 9 -14 16 -33
16 -45 0 -11 5 -20 11 -20 6 0 18 -7 27 -16 13 -14 15 -37 13 -133 -1 -64 -6
-117 -11 -119 -6 -2 -10 -10 -10 -18 0 -8 -7 -14 -15 -14 -9 0 -15 9 -15 24 0
13 -7 26 -15 30 -11 4 -15 20 -15 56 0 27 -4 50 -10 50 -5 0 -13 18 -16 40 -4
22 -10 40 -14 40 -4 0 -11 25 -15 55 -3 30 -11 55 -16 55 -5 0 -9 14 -9 30 0
17 -4 30 -10 30 -5 0 -13 18 -16 40 -4 22 -10 40 -14 40 -5 0 -11 14 -15 30
-7 31 -25 42 -25 15 0 -8 -7 -15 -15 -15 -10 0 -15 -10 -15 -30 0 -20 -5 -30
-15 -30 -11 0 -15 -11 -15 -40 0 -22 -4 -40 -9 -40 -5 0 -11 -18 -15 -40 -3
-22 -11 -40 -16 -40 -6 0 -10 -53 -10 -135 0 -74 4 -135 9 -135 5 0 12 -25 16
-55 3 -30 11 -55 16 -55 5 0 9 -13 9 -29 0 -16 7 -36 15 -45 8 -8 15 -26 15
-40 0 -14 4 -26 10 -26 5 0 13 -18 16 -40 4 -22 10 -40 14 -40 5 0 11 -14 15
-30 4 -17 10 -30 15 -30 4 0 10 -35 12 -77 2 -48 8 -78 16 -81 7 -2 12 -16 12
-32 0 -16 5 -30 11 -32 6 -2 13 -25 16 -51 3 -26 9 -47 13 -47 4 0 11 -25 15
-55 3 -30 11 -55 16 -55 5 0 9 -11 9 -25 0 -14 7 -28 15 -31 10 -4 15 -20 15
-45 0 -21 4 -39 9 -39 5 0 12 -13 16 -30 4 -16 10 -30 14 -30 5 0 11 -35 14
-77 3 -43 11 -79 16 -81 15 -5 15 -159 0 -164 -5 -2 -13 -22 -16 -46 -3 -23
-10 -42 -14 -42 -5 0 -9 -36 -9 -80 0 -44 4 -80 9 -80 5 0 11 -23 13 -52 3
-29 11 -54 17 -56 6 -2 11 -15 11 -28 0 -13 5 -24 10 -24 6 0 14 -8 17 -17 4
-10 13 -24 20 -31 9 -9 13 -45 13 -118 0 -57 4 -104 9 -104 4 0 11 -36 14 -80
6 -96 21 -118 69 -101 17 6 52 11 79 11 26 0 49 4 51 10 1 5 31 13 66 16 34 4
62 11 62 15 0 14 358 11 362 -2 2 -7 49 -13 118 -16 63 -3 117 -9 118 -14 2
-5 21 -9 43 -9 28 0 39 -4 39 -15 0 -8 -4 -15 -10 -15 -5 0 -10 -11 -10 -25 0
-14 -7 -28 -15 -31 -8 -4 -15 -17 -15 -30 0 -13 -4 -24 -10 -24 -5 0 -13 -18
-16 -40 -4 -22 -10 -40 -15 -40 -5 0 -9 -7 -9 -15 0 -8 -7 -15 -15 -15 -10 0
-15 -10 -15 -29 0 -16 -7 -36 -15 -45 -8 -8 -15 -26 -15 -40 0 -14 -4 -26 -10
-26 -5 0 -12 -11 -16 -25 -3 -14 -10 -25 -15 -25 -5 0 -9 -11 -9 -25 0 -14 -7
-28 -15 -31 -8 -4 -15 -17 -15 -30 0 -13 -4 -24 -10 -24 -5 0 -13 -18 -16 -40
-4 -22 -10 -40 -14 -40 -5 0 -11 -13 -15 -30 -4 -16 -11 -30 -16 -30 -5 0 -9
-16 -9 -35 0 -22 -6 -38 -15 -41 -8 -4 -15 -17 -15 -31 0 -13 -7 -31 -15 -39
-8 -9 -15 -26 -15 -40 0 -13 -4 -24 -10 -24 -5 0 -13 -18 -16 -40 -4 -22 -10
-40 -15 -40 -5 0 -9 -9 -9 -19 0 -11 -7 -26 -15 -35 -8 -8 -15 -31 -15 -50 0
-25 -4 -36 -15 -36 -11 0 -15 -12 -15 -45 0 -25 -4 -45 -9 -45 -5 0 -11 -13
-13 -29 -4 -27 -1 -30 81 -64 213 -90 449 -167 686 -226 545 -134 1123 -171
1690 -106 202 24 274 39 238 52 -7 3 -13 13 -13 24 0 11 -6 22 -14 25 -8 3
-17 16 -20 30 -5 17 -13 24 -31 24 -34 0 -32 22 5 58 33 33 38 52 15 52 -8 0
-15 7 -15 15 0 8 -5 15 -11 15 -6 0 -24 13 -40 29 -31 32 -40 81 -14 81 9 0
15 9 15 25 0 24 -2 25 -70 25 -56 0 -70 3 -70 15 0 9 9 15 25 15 16 0 25 6 25
15 0 8 -9 15 -20 15 -24 0 -67 36 -56 47 4 5 30 7 57 6 39 -2 49 1 49 14 0 12
-7 14 -34 10 -51 -8 -76 1 -76 29 0 15 6 24 15 24 10 0 15 10 15 30 0 17 5 30
10 30 6 0 10 22 10 49 0 52 -8 61 -57 61 -42 0 -20 25 25 28 37 3 42 6 42 28
0 15 -6 24 -15 24 -11 0 -15 12 -15 51 l0 52 -42 -8 c-24 -3 -98 -8 -165 -10
-105 -4 -123 -2 -123 11 0 11 -9 15 -27 14 -45 -3 -53 -1 -53 15 0 9 -9 15
-25 15 -14 0 -25 5 -25 10 0 14 47 12 54 -2 5 -10 7 -10 12 0 3 6 12 12 19 12
13 0 28 38 19 52 -10 15 -101 9 -108 -7 -6 -17 -56 -21 -56 -5 0 14 -27 12
-33 -2 -3 -9 -9 -8 -18 4 -14 18 -59 15 -59 -3 0 -5 -13 -9 -30 -9 -16 0 -30
5 -30 10 0 6 -11 10 -25 10 -14 0 -25 -4 -25 -10 0 -5 -7 -10 -15 -10 -10 0
-15 10 -15 30 0 20 5 30 15 30 9 0 15 9 15 25 0 16 -6 25 -15 25 -9 0 -15 9
-15 24 0 20 -6 25 -45 30 -48 8 -85 1 -85 -15 0 -5 -7 -9 -15 -9 -12 0 -15 14
-15 70 0 39 4 70 9 70 5 0 11 18 15 40 5 34 10 40 31 40 16 0 25 -6 25 -15 0
-8 7 -15 15 -15 8 0 15 7 15 15 0 8 5 15 10 15 6 0 10 5 10 10 0 6 -22 10 -50
10 -49 0 -50 1 -50 30 0 25 4 30 25 30 14 0 25 5 25 10 0 6 7 10 15 10 8 0 15
7 15 15 0 8 -7 15 -15 15 -8 0 -15 7 -15 15 0 21 -7 19 -34 -10 -23 -25 -66
-34 -66 -15 0 6 5 10 10 10 6 0 10 9 10 20 0 11 6 20 13 20 22 0 -16 20 -39
20 -12 0 -24 7 -28 15 -3 8 -17 15 -31 15 -14 0 -25 5 -25 10 0 6 7 10 15 10
10 0 15 10 15 29 0 16 -7 36 -15 45 -8 8 -15 26 -15 40 0 22 -4 26 -30 26 -21
0 -30 -5 -30 -16 0 -11 -6 -14 -22 -8 -13 3 -24 11 -26 15 -2 5 -10 9 -18 9
-8 0 -14 7 -14 15 0 10 -11 15 -35 15 -31 0 -75 24 -75 41 0 4 12 10 27 14 21
5 24 8 12 16 -7 5 -24 9 -36 9 -24 0 -32 25 -11 32 8 3 3 14 -15 30 -38 35
-34 48 13 48 42 0 46 5 41 57 -2 20 3 23 38 23 25 0 41 5 45 15 3 8 12 15 21
15 19 0 65 47 65 66 0 8 9 14 21 14 11 0 27 7 35 15 9 8 29 15 45 15 16 0 29
4 29 9 0 5 14 12 30 16 17 4 30 11 30 16 0 5 11 9 24 9 14 0 31 7 40 15 8 8
32 15 55 15 30 0 41 4 41 15 0 9 9 15 25 15 14 0 25 4 25 9 0 5 14 12 30 16
17 4 30 11 30 16 0 5 18 9 40 9 29 0 40 4 40 15 0 11 11 15 40 15 22 0 40 4
40 9 0 5 14 12 30 16 17 4 30 10 30 15 0 4 18 10 40 14 22 3 40 10 40 15 0 5
11 12 25 15 14 4 25 11 25 16 0 6 7 10 16 10 8 0 22 7 30 15 9 8 26 15 40 15
13 0 24 5 24 10 0 6 7 10 15 10 8 0 15 7 15 15 0 8 7 15 15 15 8 0 15 4 15 10
0 5 11 12 25 16 14 3 25 10 25 15 0 5 7 9 15 9 8 0 15 6 15 14 0 8 11 17 24
20 14 3 28 15 31 26 3 11 18 23 33 27 15 3 32 11 39 17 33 29 43 36 53 36 5 0
10 7 10 15 0 8 7 15 15 15 17 0 27 8 75 53 15 15 33 27 39 27 6 0 11 7 11 15
0 8 7 15 15 15 8 0 15 7 15 15 0 8 9 15 20 15 12 0 31 11 44 25 13 14 32 25
44 25 11 0 22 7 26 15 3 8 10 15 16 15 6 0 18 7 26 15 9 8 26 15 40 15 13 0
24 5 24 10 0 6 -7 10 -16 10 -12 0 -15 6 -10 23 3 12 6 25 6 30 0 4 11 7 25 7
14 0 25 4 25 9 0 5 11 12 25 15 15 4 27 16 31 31 5 20 12 25 39 25 20 0 35 6
39 15 11 29 26 15 26 -24 0 -36 3 -40 30 -46 l30 -7 0 -94 c0 -77 -3 -94 -15
-94 -12 0 -15 -14 -15 -70 0 -40 -4 -70 -10 -70 -6 0 -10 -32 -10 -75 0 -43 4
-75 10 -75 6 0 10 -20 10 -45 0 -25 -4 -45 -10 -45 -5 0 -10 -11 -10 -24 0
-21 5 -25 37 -28 35 -3 61 -28 29 -28 -12 0 -16 -10 -16 -40 0 -22 -4 -40 -10
-40 -5 0 -10 -11 -10 -25 0 -14 5 -25 10 -25 6 0 10 -13 10 -30 0 -20 5 -30
15 -30 8 0 15 -7 15 -15 0 -8 -7 -15 -15 -15 -10 0 -15 -10 -15 -29 0 -16 -6
-32 -12 -35 -10 -5 -10 -7 0 -12 17 -8 15 -51 -3 -58 -8 -3 -15 -12 -15 -21 0
-8 -4 -15 -10 -15 -5 0 -10 -16 -10 -36 0 -27 7 -43 27 -61 27 -26 27 -27 -19
-54 -10 -5 -18 -21 -18 -34 0 -23 4 -25 45 -25 33 0 45 -4 45 -15 0 -8 -7 -15
-15 -15 -8 0 -15 -7 -15 -15 0 -8 4 -15 10 -15 5 0 12 -11 16 -25 6 -24 34
-36 34 -15 0 6 11 10 25 10 25 0 25 0 25 -95 0 -95 0 -95 -25 -95 -14 0 -25
-4 -25 -10 0 -5 11 -10 25 -10 21 0 25 -5 25 -30 0 -16 4 -30 10 -30 5 0 12
-11 16 -24 3 -14 12 -27 20 -30 8 -3 14 -19 14 -40 0 -28 4 -35 25 -40 22 -6
25 -11 25 -55 0 -34 5 -51 15 -55 8 -3 15 -17 15 -31 0 -14 5 -25 10 -25 6 0
10 25 10 55 0 54 0 55 30 55 17 0 30 -4 30 -10 0 -5 11 -10 25 -10 16 0 25 -6
25 -15 0 -8 7 -15 15 -15 11 0 15 11 15 40 0 36 -2 40 -25 40 -14 0 -25 5 -25
10 0 6 4 10 9 10 5 0 11 14 15 30 4 24 11 30 31 30 27 0 34 17 10 26 -8 4 -15
17 -15 30 0 20 5 24 31 24 28 0 31 3 25 22 -3 13 -6 26 -6 31 0 4 -7 7 -15 7
-22 0 -18 21 5 27 15 4 18 11 14 29 -6 21 -3 24 25 24 21 0 31 5 31 15 0 8 7
15 15 15 8 0 15 5 15 10 0 6 11 10 25 10 16 0 25 -6 25 -15 0 -8 7 -15 15 -15
8 0 15 -4 15 -9 0 -5 11 -12 25 -15 14 -4 25 -11 25 -16 0 -6 7 -10 15 -10 8
0 15 -4 15 -10 0 -5 7 -10 15 -10 10 0 15 -10 15 -30 0 -16 5 -30 10 -30 6 0
10 -7 10 -15 0 -8 7 -15 15 -15 14 0 26 -43 23 -85 -3 -45 3 -75 15 -75 21 0
14 -148 -8 -164 -18 -13 -13 -56 6 -56 5 0 9 -11 9 -25 0 -14 -4 -25 -10 -25
-5 0 -12 11 -16 25 -3 14 -8 25 -10 25 -13 0 -44 -43 -44 -61 0 -11 -7 -27
-15 -35 -8 -9 -15 -26 -15 -39 0 -12 -7 -25 -15 -29 -8 -3 -15 -12 -15 -21 0
-8 -4 -15 -10 -15 -5 0 -10 -9 -10 -20 0 -15 7 -20 25 -20 14 0 25 5 25 10 0
6 12 10 28 10 27 0 28 0 27 -67 0 -44 -4 -68 -12 -70 -8 -3 -13 -21 -13 -42 0
-20 -7 -46 -15 -57 -29 -38 -11 -124 26 -124 5 0 9 -11 9 -25 0 -14 -4 -25
-10 -25 -5 0 -10 -7 -10 -15 0 -8 -4 -15 -10 -15 -5 0 -12 -11 -16 -24 -3 -14
-12 -27 -20 -30 -8 -3 -14 -14 -14 -25 0 -14 -9 -23 -25 -27 -18 -4 -25 -13
-25 -30 0 -15 -6 -24 -15 -24 -8 0 -15 -4 -15 -10 0 -13 17 -13 25 -1 3 5 19
12 35 16 21 5 30 13 30 26 0 21 16 26 22 7 5 -15 291 132 478 248 331 204 582
405 888 711 224 224 253 263 197 263 -14 0 -25 5 -25 10 0 6 -9 10 -19 10 -11
0 -26 7 -35 15 -8 8 -26 15 -40 15 -14 0 -26 4 -26 10 0 5 -11 12 -25 16 -14
3 -25 10 -25 15 0 5 -18 12 -40 15 -22 4 -40 10 -40 14 0 4 -11 11 -25 14 -14
4 -25 11 -25 16 0 6 -14 10 -31 10 -17 0 -37 7 -45 15 -9 8 -26 15 -40 15 -13
0 -24 4 -24 9 0 5 -13 12 -30 16 -16 4 -30 10 -30 15 0 4 -18 10 -40 14 -22 3
-40 11 -40 16 0 6 -11 10 -25 10 -14 0 -25 4 -25 9 0 5 -13 12 -30 16 -16 4
-30 10 -30 15 0 4 -18 10 -40 14 -22 3 -40 11 -40 16 0 6 -12 10 -26 10 -14 0
-32 7 -40 15 -9 8 -27 15 -40 15 -14 0 -32 7 -40 15 -9 8 -29 15 -45 15 -16 0
-29 4 -29 9 0 5 -13 12 -30 16 -16 4 -30 10 -30 15 0 4 -18 10 -40 14 -22 3
-40 11 -40 16 0 6 -18 10 -40 10 -22 0 -40 4 -40 9 0 5 -13 12 -30 16 -16 4
-30 11 -30 16 0 5 -11 9 -25 9 -16 0 -25 6 -25 15 0 10 -10 15 -30 15 -20 0
-30 5 -30 15 0 9 -9 15 -25 15 -16 0 -25 6 -25 15 0 8 -7 15 -15 15 -8 0 -15
5 -15 10 0 6 -11 10 -25 10 -16 0 -25 6 -25 15 0 8 -7 15 -15 15 -9 0 -15 9
-15 25 0 14 -4 25 -9 25 -5 0 -12 13 -16 30 -4 16 -10 30 -15 30 -4 0 -11 11
-14 25 -4 14 -11 25 -16 25 -6 0 -10 11 -10 25 0 14 -7 28 -15 31 -8 4 -15 12
-15 20 0 8 -4 14 -10 14 -5 0 -12 11 -16 25 -3 14 -10 25 -15 25 -5 0 -9 7 -9
15 0 8 -7 15 -15 15 -8 0 -15 9 -15 20 0 12 -11 31 -24 43 -12 12 -26 39 -30
60 -4 20 -11 37 -16 37 -6 0 -10 38 -10 85 0 49 4 85 10 85 5 0 12 11 16 25 3
14 10 25 15 25 5 0 9 7 9 15 0 8 7 15 15 15 9 0 15 9 15 25 0 16 6 25 15 25 8
0 15 7 15 15 0 8 5 15 10 15 6 0 10 11 10 25 0 14 7 28 15 31 8 4 15 17 15 30
0 15 6 24 15 24 8 0 15 9 15 20 0 12 11 31 25 44 14 13 25 28 25 35 0 6 7 11
15 11 9 0 15 9 15 25 0 16 6 25 15 25 8 0 15 7 15 15 0 8 5 15 10 15 6 0 10 7
10 15 0 8 4 15 10 15 17 0 50 39 50 60 0 11 4 20 10 20 13 0 50 32 50 44 0 5
11 19 25 32 14 13 25 32 25 44 0 11 7 20 15 20 8 0 15 7 15 15 0 8 4 15 9 15
5 0 12 16 15 35 4 19 11 35 16 35 6 0 10 14 10 30 0 20 5 30 15 30 11 0 15 11
15 40 0 29 4 40 15 40 8 0 15 7 15 15 0 8 5 15 10 15 6 0 10 11 10 25 0 14 7
28 15 31 10 4 15 21 15 54 0 33 5 50 15 54 8 3 15 17 15 31 0 14 4 25 10 25 5
0 13 18 16 40 4 22 10 40 15 40 5 0 12 18 15 40 4 22 10 40 15 40 5 0 9 6 9
14 0 8 7 16 15 20 9 3 15 19 15 41 0 19 4 35 9 35 5 0 12 13 16 30 4 16 10 30
15 30 4 0 10 23 12 52 3 29 11 54 17 56 6 2 11 21 11 42 0 21 5 40 12 42 6 2
13 31 16 64 3 32 9 62 15 65 5 4 12 39 15 78 2 39 8 71 12 71 4 0 10 39 13 87
3 50 10 89 16 91 7 2 11 40 11 103 0 59 4 99 10 99 6 0 10 11 10 25 0 14 -4
25 -10 25 -6 0 -10 38 -10 95 0 53 4 95 10 95 5 0 12 27 16 60 4 33 10 60 14
60 5 0 11 34 15 75 4 41 11 75 16 75 5 0 9 27 9 59 0 40 5 65 15 75 10 10 15
35 15 79 0 36 4 67 10 69 5 2 12 45 16 96 4 50 11 92 15 92 15 0 11 307 -3
314 -10 5 -10 7 0 12 14 7 17 34 3 34 -5 0 -11 59 -13 132 -2 94 -7 133 -15
136 -9 2 -13 25 -13 65 -1 39 -6 69 -15 81 -9 12 -15 42 -15 73 0 29 -4 53 -9
53 -4 0 -11 19 -14 42 -3 24 -11 44 -16 46 -6 2 -11 21 -11 42 0 21 -7 45 -15
54 -8 8 -15 32 -15 55 0 23 -4 41 -10 41 -5 0 -12 11 -16 25 -3 14 -10 25 -14
25 -4 0 -10 18 -14 40 -3 22 -10 40 -15 40 -5 0 -12 14 -16 30 -4 17 -11 30
-16 30 -5 0 -9 11 -9 25 0 14 -4 25 -9 25 -5 0 -12 11 -15 25 -4 14 -11 25
-16 25 -6 0 -10 7 -10 15 0 8 -7 15 -15 15 -8 0 -15 8 -15 19 0 10 -7 24 -15
31 -8 7 -15 21 -15 32 0 10 -11 29 -25 42 -14 13 -25 28 -25 35 0 6 -6 11 -14
11 -8 0 -17 11 -20 25 -4 14 -11 25 -16 25 -6 0 -10 7 -10 15 0 8 -7 15 -15
15 -8 0 -15 7 -15 15 0 8 -4 15 -10 15 -5 0 -10 7 -10 15 0 8 -7 15 -15 15 -8
0 -15 7 -15 15 0 8 -5 15 -11 15 -14 0 -39 25 -39 39 0 6 -5 11 -10 11 -6 0
-21 11 -33 24 -12 13 -32 26 -44 30 -13 4 -23 12 -23 17 0 5 -7 9 -15 9 -8 0
-15 7 -15 15 0 8 -7 15 -15 15 -8 0 -15 7 -15 15 0 8 -7 15 -15 15 -8 0 -15 4
-15 9 0 5 -11 12 -25 15 -14 4 -25 11 -25 16 0 6 -7 10 -15 10 -8 0 -15 4 -15
10 0 5 -11 12 -25 16 -14 3 -25 10 -25 14 0 4 -11 11 -25 14 -14 4 -25 11 -25
16 0 6 -9 10 -20 10 -11 0 -20 4 -20 10 0 5 -11 12 -25 16 -14 3 -25 10 -25
14 0 5 -13 11 -30 15 -16 4 -30 11 -30 16 0 5 -11 9 -25 9 -16 0 -25 6 -25 15
0 9 -10 15 -26 15 -14 0 -32 7 -40 15 -9 8 -27 15 -40 15 -14 0 -32 7 -40 15
-9 8 -29 15 -45 15 -16 0 -29 4 -29 9 0 5 -11 12 -25 15 -14 4 -25 11 -25 16
0 6 -18 10 -39 10 -25 0 -41 5 -45 15 -3 8 -17 15 -31 15 -14 0 -25 4 -25 9 0
5 -18 11 -39 15 -22 3 -41 9 -43 13 -6 16 -71 43 -100 43 -16 0 -36 7 -44 15
-9 8 -29 15 -45 15 -16 0 -29 4 -29 9 0 5 -13 12 -30 16 -16 4 -30 11 -30 16
0 5 -16 9 -35 9 -22 0 -38 6 -41 15 -4 10 -21 15 -54 15 -33 0 -50 5 -54 15
-3 9 -19 15 -41 15 -19 0 -35 5 -35 10 0 6 -9 10 -19 10 -11 0 -26 7 -35 15
-9 9 -33 15 -64 15 -35 0 -52 4 -56 15 -4 11 -20 15 -55 15 -29 0 -51 5 -53
12 -3 7 -32 14 -71 16 -37 2 -67 8 -67 12 0 4 -47 11 -105 15 -58 4 -105 11
-105 16 0 15 -607 12 -612 -3z m572 -513 c0 -14 -4 -25 -10 -25 -5 0 -10 4
-10 9 0 5 -3 16 -6 25 -4 11 -1 16 10 16 10 0 16 -9 16 -25z m110 -5 c0 -5 -4
-10 -10 -10 -5 0 -10 5 -10 10 0 6 5 10 10 10 6 0 10 -4 10 -10z m770 -275 c0
-8 -4 -15 -10 -15 -5 0 -10 7 -10 15 0 8 5 15 10 15 6 0 10 -7 10 -15z m600
-495 c0 -5 -4 -10 -10 -10 -5 0 -10 5 -10 10 0 6 5 10 10 10 6 0 10 -4 10 -10z
m-550 -110 c0 -5 -4 -10 -10 -10 -5 0 -10 5 -10 10 0 6 5 10 10 10 6 0 10 -4
10 -10z m250 -65 c0 -30 -4 -31 -30 -5 -26 26 -25 30 5 30 20 0 25 -5 25 -25z
m160 -155 c0 -5 -11 -10 -25 -10 -14 0 -25 5 -25 10 0 6 11 10 25 10 14 0 25
-4 25 -10z m380 -80 c0 -5 -4 -10 -10 -10 -5 0 -10 5 -10 10 0 6 5 10 10 10 6
0 10 -4 10 -10z m-410 -30 c0 -5 7 -10 15 -10 9 0 18 -7 21 -15 4 -8 17 -15
30 -15 15 0 24 -6 24 -15 0 -8 -4 -15 -9 -15 -5 0 -11 -18 -15 -40 -4 -26 -11
-40 -21 -40 -8 0 -15 -7 -15 -15 0 -11 -12 -14 -50 -12 -40 2 -50 5 -50 20 0
12 8 17 25 17 14 0 25 5 25 10 0 6 11 10 25 10 22 0 25 4 25 40 0 34 -4 41
-25 46 -24 6 -37 44 -15 44 6 0 10 -4 10 -10z m310 -147 c0 -14 -6 -23 -15
-23 -16 0 -20 26 -9 55 5 13 8 14 15 3 5 -7 9 -23 9 -35z m-140 -13 c0 -5 -4
-10 -10 -10 -5 0 -10 5 -10 10 0 6 5 10 10 10 6 0 10 -4 10 -10z m-30 -55 c0
-8 7 -15 15 -15 8 0 15 -7 15 -15 0 -9 -9 -15 -25 -15 -16 0 -25 -6 -25 -15 0
-8 5 -15 10 -15 6 0 10 -16 10 -35 0 -19 -4 -35 -10 -35 -5 0 -10 16 -10 35 0
24 -5 35 -15 35 -9 0 -15 -9 -15 -25 0 -16 -6 -25 -15 -25 -22 0 -19 42 5 63
11 9 25 17 30 17 6 0 10 14 10 30 0 17 5 30 10 30 6 0 10 -7 10 -15z m-140
-80 c0 -25 -4 -45 -10 -45 -5 0 -10 20 -10 45 0 25 5 45 10 45 6 0 10 -20 10
-45z m-40 -65 c21 -21 29 -90 10 -90 -5 0 -10 11 -10 25 0 16 -6 25 -15 25
-10 0 -15 10 -15 30 0 35 3 37 30 10z m340 11 c0 -5 3 -16 6 -25 5 -12 0 -16
-20 -16 -21 0 -26 5 -26 25 0 18 5 25 20 25 11 0 20 -4 20 -9z m-130 -46 c0
-16 6 -25 15 -25 9 0 15 -9 15 -25 0 -16 -6 -25 -15 -25 -8 0 -15 5 -15 10 0
6 -11 10 -25 10 -16 0 -25 6 -25 15 0 8 7 15 15 15 9 0 15 9 15 25 0 14 5 25
10 25 6 0 10 -11 10 -25z m600 -15 c0 -5 -4 -10 -10 -10 -5 0 -10 5 -10 10 0
6 5 10 10 10 6 0 10 -4 10 -10z m-680 -56 c0 -17 -22 -14 -28 4 -2 7 3 12 12
12 9 0 16 -7 16 -16z m190 -24 c0 -22 -4 -40 -10 -40 -5 0 -10 8 -10 18 0 9
-3 27 -6 40 -5 16 -2 22 10 22 12 0 16 -10 16 -40z m110 -30 c0 -5 7 -10 15
-10 23 0 18 -17 -7 -24 -35 -9 -38 -8 -38 19 0 16 6 25 15 25 8 0 15 -4 15
-10z m-50 -75 c0 -8 -7 -15 -15 -15 -8 0 -15 -7 -15 -15 0 -10 -10 -15 -30
-15 -20 0 -30 5 -30 15 0 8 7 15 15 15 8 0 15 4 15 9 0 9 20 17 48 20 6 0 12
-6 12 -14z m-170 -45 c0 -20 5 -30 15 -30 8 0 15 -4 15 -10 0 -5 -11 -10 -25
-10 -18 0 -26 7 -31 25 -3 14 -4 32 0 40 10 26 26 16 26 -15z m-80 -30 c0 -20
5 -30 15 -30 8 0 15 -4 15 -10 0 -5 -7 -10 -15 -10 -8 0 -15 -7 -15 -15 0 -9
-9 -15 -25 -15 -14 0 -25 -4 -25 -10 0 -5 -7 -10 -15 -10 -8 0 -15 5 -15 10 0
6 5 10 10 10 6 0 10 7 10 15 0 8 -4 15 -10 15 -5 0 -10 7 -10 15 0 8 5 15 10
15 6 0 10 11 10 25 0 21 5 25 30 25 27 0 30 -3 30 -30z m240 -40 c0 -5 -4 -10
-9 -10 -5 0 -11 -12 -13 -27 -2 -18 -10 -29 -23 -32 -11 -2 -25 -11 -32 -20
-12 -15 -14 -15 -27 2 -7 9 -23 17 -35 17 -17 0 -21 6 -21 30 0 30 1 30 55 30
30 0 55 5 55 10 0 6 11 10 25 10 14 0 25 -4 25 -10z m60 0 c0 -5 -4 -10 -10
-10 -5 0 -10 5 -10 10 0 6 5 10 10 10 6 0 10 -4 10 -10z m20 -55 c0 -8 -4 -15
-10 -15 -5 0 -10 7 -10 15 0 8 5 15 10 15 6 0 10 -7 10 -15z m-240 -70 c0 -14
-4 -25 -10 -25 -5 0 -10 -7 -10 -15 0 -8 5 -15 10 -15 6 0 10 -4 10 -10 0 -5
-18 -10 -40 -10 -39 0 -40 1 -40 34 0 30 4 35 30 41 17 4 30 11 30 16 0 5 5 9
10 9 6 0 10 -11 10 -25z m-220 -10 c0 -8 -4 -15 -10 -15 -5 0 -10 7 -10 15 0
8 5 15 10 15 6 0 10 -7 10 -15z m330 -25 c0 -21 -15 -27 -25 -10 -7 12 2 30
16 30 5 0 9 -9 9 -20z m-190 -60 c0 -5 -7 -10 -15 -10 -8 0 -15 5 -15 10 0 6
7 10 15 10 8 0 15 -4 15 -10z m110 0 c0 -5 -7 -10 -15 -10 -8 0 -15 5 -15 10
0 6 7 10 15 10 8 0 15 -4 15 -10z m-170 -40 c0 -16 -4 -30 -10 -30 -5 0 -10
14 -10 30 0 17 5 30 10 30 6 0 10 -13 10 -30z m250 -5 c0 -8 -7 -15 -15 -15
-10 0 -15 -10 -15 -30 0 -16 -4 -30 -10 -30 -5 0 -10 18 -10 39 0 38 5 44 43
50 4 0 7 -6 7 -14z m-164 -80 c3 -14 11 -25 16 -25 12 0 38 -26 38 -38 0 -11
-67 -22 -87 -14 -15 5 -18 52 -3 52 6 0 10 11 10 25 0 14 4 25 10 25 5 0 12
-11 16 -25z m-246 -10 c0 -8 7 -15 15 -15 9 0 15 -9 15 -25 0 -16 -6 -25 -15
-25 -8 0 -15 5 -15 11 0 6 -7 17 -15 25 -8 9 -15 22 -15 30 0 8 7 14 15 14 8
0 15 -7 15 -15z m520 -55 c0 -5 -4 -10 -10 -10 -5 0 -10 5 -10 10 0 6 5 10 10
10 6 0 10 -4 10 -10z m-60 -25 c0 -8 -4 -15 -10 -15 -5 0 -10 7 -10 15 0 8 5
15 10 15 6 0 10 -7 10 -15z m170 -5 c0 -5 -4 -10 -10 -10 -5 0 -10 5 -10 10 0
6 5 10 10 10 6 0 10 -4 10 -10z m-250 -19 c0 -5 -6 -11 -12 -14 -9 -2 -12 -21
-11 -55 2 -50 1 -52 -23 -52 -21 0 -25 3 -18 18 4 9 9 38 12 65 3 42 7 47 28
47 13 0 24 -4 24 -9z m-80 -31 c0 -5 -4 -10 -10 -10 -5 0 -10 5 -10 10 0 6 5
10 10 10 6 0 10 -4 10 -10z m140 -30 c0 -5 -7 -10 -15 -10 -8 0 -15 5 -15 10
0 6 7 10 15 10 8 0 15 -4 15 -10z m-360 -25 c0 -8 7 -15 15 -15 9 0 15 -9 15
-25 0 -16 -6 -25 -15 -25 -9 0 -15 9 -15 24 0 13 -7 27 -16 30 -8 3 -12 10 -9
16 9 15 25 12 25 -5z m131 -15 c5 0 9 -18 9 -40 0 -36 -2 -40 -25 -40 -26 0
-35 24 -12 34 10 5 10 7 0 12 -20 9 -17 48 3 40 9 -3 20 -6 25 -6z m389 -10
c0 -5 -11 -10 -25 -10 -14 0 -25 5 -25 10 0 6 11 10 25 10 14 0 25 -4 25 -10z
m-300 -85 c0 -9 -9 -15 -25 -15 -16 0 -25 6 -25 15 0 9 9 15 25 15 16 0 25 -6
25 -15z m270 -55 c0 -5 -4 -10 -10 -10 -5 0 -10 5 -10 10 0 6 5 10 10 10 6 0
10 -4 10 -10z m520 -1120 c0 -5 -4 -10 -10 -10 -5 0 -10 5 -10 10 0 6 5 10 10
10 6 0 10 -4 10 -10z m-730 -470 c0 -5 -7 -10 -15 -10 -8 0 -15 5 -15 10 0 6
7 10 15 10 8 0 15 -4 15 -10z m-30 -125 c0 -8 -4 -15 -10 -15 -5 0 -10 7 -10
15 0 8 5 15 10 15 6 0 10 -7 10 -15z m-3910 -216 c0 -28 2 -31 25 -25 18 5 25
2 25 -9 0 -9 -9 -15 -25 -15 -16 0 -25 -6 -25 -15 0 -8 -7 -15 -15 -15 -9 0
-15 -9 -15 -25 0 -16 -6 -25 -15 -25 -11 0 -14 7 -9 25 4 18 2 25 -9 25 -18 0
-25 24 -19 73 4 36 6 37 43 37 37 0 39 -2 39 -31z m2760 -824 c0 -8 -7 -15
-15 -15 -16 0 -20 12 -8 23 11 12 23 8 23 -8z m-2842 -308 c2 -10 -3 -17 -12
-17 -10 0 -16 9 -16 21 0 24 23 21 28 -4z m4262 -1092 c0 -8 -7 -15 -15 -15
-16 0 -20 12 -8 23 11 12 23 8 23 -8z m-3030 -399 c0 -35 -5 -60 -15 -70 -8
-8 -15 -19 -15 -24 0 -6 7 -12 15 -16 8 -3 15 -15 15 -26 0 -11 -7 -23 -15
-26 -18 -7 -20 -31 -2 -37 7 -2 8 -8 3 -13 -5 -5 -11 -4 -13 4 -12 34 -63 -11
-63 -55 0 -18 -4 -33 -10 -33 -5 0 -10 -25 -10 -55 0 -30 5 -55 10 -55 6 0 10
4 10 9 0 12 45 22 64 15 22 -8 20 -21 -4 -29 -21 -7 -29 -55 -10 -55 6 0 10
-11 10 -24 0 -13 5 -26 11 -28 19 -6 23 -83 5 -100 -21 -21 -21 -68 -1 -68 8
0 15 -4 15 -10 0 -5 6 -10 14 -10 8 0 21 -6 28 -14 8 -7 24 -17 37 -21 18 -6
21 -9 10 -16 -21 -13 -39 -11 -39 6 0 16 -35 20 -64 9 -22 -8 -22 -74 -1 -74
8 0 15 -7 15 -15 0 -8 -7 -15 -15 -15 -8 0 -15 -7 -15 -15 0 -21 -76 -21 -84
0 -10 26 -26 16 -26 -15 0 -31 -16 -41 -26 -15 -5 11 -21 15 -59 15 -34 0 -59
5 -69 15 -8 8 -19 15 -25 15 -6 0 -11 7 -11 15 0 8 -7 15 -15 15 -8 0 -15 7
-15 15 0 8 -5 15 -11 15 -14 0 -39 25 -39 39 0 6 -7 11 -15 11 -8 0 -15 5 -15
11 0 14 -25 39 -39 39 -7 0 -11 24 -11 60 0 33 4 60 10 60 6 0 10 18 10 39 0
22 7 46 15 55 8 8 15 23 15 34 0 11 7 22 15 26 8 3 15 12 15 21 0 8 4 15 9 15
5 0 11 18 15 40 3 22 11 40 16 40 6 0 10 9 10 19 0 34 11 51 34 51 28 0 56 19
39 27 -15 6 -17 33 -3 33 6 0 10 7 10 15 0 8 7 15 15 15 9 0 15 9 15 24 0 13
7 26 15 30 8 3 15 12 15 21 0 11 6 14 25 9 19 -5 25 -2 25 10 0 13 11 16 55
16 52 0 55 1 55 25 0 16 6 25 15 25 8 0 15 7 15 15 0 8 7 15 15 15 11 0 15
-13 15 -54z m100 39 c0 -8 -4 -15 -10 -15 -5 0 -10 7 -10 15 0 8 5 15 10 15 6
0 10 -7 10 -15z m-210 -25 c0 -5 -7 -10 -15 -10 -8 0 -15 5 -15 10 0 6 7 10
15 10 8 0 15 -4 15 -10z m1360 -440 c0 -5 -7 -10 -15 -10 -8 0 -15 5 -15 10 0
6 7 10 15 10 8 0 15 -4 15 -10z m87 -76 c5 -14 -38 -27 -50 -15 -5 5 -6 14 -2
21 8 14 47 9 52 -6z m111 10 c34 -9 27 -21 -18 -28 -22 -3 -40 -11 -40 -16 0
-6 -7 -10 -15 -10 -8 0 -15 7 -15 15 0 8 7 15 15 15 8 0 15 7 15 15 0 16 20
19 58 9z m162 -99 c0 -16 -9 -19 -34 -9 -25 9 -19 24 9 24 16 0 25 -6 25 -15z
m-1532 -23 c2 -7 -3 -12 -12 -12 -9 0 -16 7 -16 16 0 17 22 14 28 -4z m1562
-32 c0 -5 -7 -10 -15 -10 -8 0 -15 5 -15 10 0 6 7 10 15 10 8 0 15 -4 15 -10z"/>
<path d="M3510 1380 c0 -5 -7 -10 -15 -10 -8 0 -15 -7 -15 -15 0 -10 10 -15
30 -15 20 0 30 5 30 15 0 8 5 15 10 15 6 0 10 5 10 10 0 6 -11 10 -25 10 -14
0 -25 -4 -25 -10z"/>
<path d="M3370 1300 c0 -5 5 -10 10 -10 6 0 10 5 10 10 0 6 -4 10 -10 10 -5 0
-10 -4 -10 -10z"/>
<path d="M3470 1283 c-8 -4 -21 -12 -28 -19 -10 -11 -9 -17 8 -34 27 -27 48
-25 56 5 11 43 -2 61 -36 48z"/>
<path d="M3442 1141 c-11 -7 -10 -10 3 -15 26 -10 35 -7 35 9 0 17 -18 19 -38
6z"/>
<path d="M5383 8093 c-22 -8 -14 -23 12 -23 16 0 25 6 25 15 0 15 -14 18 -37
8z"/>
<path d="M5450 8050 c0 -5 5 -10 10 -10 6 0 10 5 10 10 0 6 -4 10 -10 10 -5 0
-10 -4 -10 -10z"/>
<path d="M5725 7430 c-3 -5 1 -10 9 -10 9 0 16 5 16 10 0 6 -4 10 -9 10 -6 0
-13 -4 -16 -10z"/>
<path d="M2440 7330 c0 -11 5 -20 10 -20 6 0 10 9 10 20 0 11 -4 20 -10 20 -5
0 -10 -9 -10 -20z"/>
<path d="M4058 7319 c-3 -8 -48 -14 -126 -17 -67 -2 -122 -8 -122 -12 0 -4
-25 -11 -55 -15 -30 -3 -55 -10 -55 -15 0 -4 -30 -10 -67 -12 -39 -2 -68 -9
-71 -16 -2 -7 -25 -12 -58 -12 -30 0 -54 -4 -54 -9 0 -5 -12 -12 -26 -15 -40
-10 -54 -30 -54 -75 0 -37 -2 -41 -25 -41 -18 0 -26 -7 -31 -25 -3 -14 -10
-25 -15 -25 -5 0 -9 -7 -9 -15 0 -8 4 -15 9 -15 5 0 12 -11 15 -25 4 -14 11
-25 16 -25 6 0 10 -6 10 -14 0 -42 100 -65 134 -31 8 8 23 15 34 15 11 0 22 7
26 15 3 8 17 15 31 15 14 0 25 4 25 9 0 5 18 11 40 15 22 3 40 11 40 16 0 6 7
10 15 10 8 0 15 5 15 11 0 16 23 35 50 44 14 4 28 12 31 17 3 5 29 10 57 10
36 1 52 6 52 15 0 13 70 20 148 14 19 -1 45 5 58 13 30 20 68 20 88 1 8 -9 33
-15 56 -15 40 0 42 1 36 25 -5 18 -2 25 9 25 8 0 15 -4 15 -10 0 -5 7 -10 15
-10 8 0 15 -7 15 -15 0 -9 9 -15 25 -15 14 0 25 -4 25 -10 0 -5 7 -10 15 -10
8 0 15 9 15 20 0 15 7 20 25 20 14 0 25 -4 25 -10 0 -5 7 -10 15 -10 8 0 15
-7 15 -15 0 -11 11 -15 35 -15 25 0 43 -7 59 -25 15 -17 34 -25 55 -25 21 0
40 -8 56 -25 13 -15 39 -29 59 -32 20 -3 36 -10 36 -14 0 -16 49 -10 70 8 23
20 26 33 6 33 -8 0 -17 11 -20 25 -4 14 -11 25 -16 25 -6 0 -10 7 -10 15 0 8
-7 15 -15 15 -8 0 -15 6 -15 14 0 8 -11 17 -25 20 -14 4 -25 11 -25 16 0 6 -7
10 -15 10 -8 0 -15 5 -15 11 0 19 -28 39 -54 39 -16 0 -26 6 -26 15 0 10 -10
15 -30 15 -16 0 -30 4 -30 10 0 5 -11 12 -25 16 -14 3 -25 10 -25 15 0 5 -18
12 -40 15 -22 4 -40 10 -40 14 0 4 -37 10 -82 12 -53 2 -83 8 -86 16 -5 16
-209 17 -214 1z"/>
<path d="M2420 7275 c0 -16 -6 -25 -15 -25 -9 0 -15 -9 -15 -25 0 -14 -7 -28
-15 -31 -8 -4 -15 -16 -15 -29 0 -16 -7 -25 -25 -29 -14 -4 -25 -10 -25 -15 0
-5 -13 -23 -30 -39 -16 -17 -30 -38 -30 -47 0 -8 -7 -18 -15 -21 -8 -4 -15
-15 -15 -25 0 -10 -4 -19 -9 -19 -12 0 -25 -102 -17 -135 6 -24 26 -36 26 -15
0 21 36 50 62 50 16 0 28 5 28 10 0 6 18 10 40 10 22 0 40 -4 40 -9 0 -5 23
-12 50 -16 28 -4 50 -11 50 -15 0 -5 20 -12 45 -16 25 -3 45 -10 45 -15 0 -5
13 -9 29 -9 16 0 32 -6 34 -12 4 -10 6 -10 6 0 1 7 15 12 36 12 24 0 35 5 35
15 0 8 5 15 10 15 14 0 12 78 -2 82 -7 3 -14 32 -16 71 -4 64 -16 85 -28 52
-12 -30 -23 -14 -26 38 l-3 52 -37 3 c-21 2 -38 7 -38 12 0 6 -18 13 -39 16
-22 4 -42 13 -45 20 -3 8 -17 14 -31 14 -23 0 -25 3 -25 50 0 28 -4 50 -10 50
-5 0 -10 -11 -10 -25z"/>
<path d="M3590 6795 c0 -8 -7 -15 -15 -15 -8 0 -15 -4 -15 -10 0 -5 -11 -12
-25 -16 -15 -4 -28 -16 -31 -30 -5 -20 -13 -24 -41 -24 -25 0 -43 -8 -64 -29
-16 -16 -29 -34 -29 -40 0 -6 -7 -11 -15 -11 -12 0 -15 -14 -15 -62 0 -55 3
-65 27 -85 14 -13 35 -23 45 -23 16 0 19 -6 16 -37 l-3 -38 94 0 c67 0 96 -4
98 -12 3 -7 -2 -16 -11 -19 -9 -3 -16 -17 -16 -30 0 -44 41 -22 54 29 5 20 13
27 30 27 14 0 31 7 40 15 8 8 26 15 39 15 19 0 27 -7 32 -27 l7 -28 9 23 c5
13 15 30 23 38 18 17 62 19 70 2 3 -9 8 -8 16 5 8 12 24 17 60 17 46 0 49 -2
55 -30 7 -31 25 -42 25 -15 0 8 6 15 14 15 8 0 16 7 20 15 4 11 14 13 38 8 18
-3 35 -10 36 -15 2 -4 10 -8 19 -8 8 0 22 -7 31 -16 13 -14 30 -16 106 -10 50
4 93 11 94 16 2 6 28 10 58 10 41 0 54 4 54 15 0 9 9 15 25 15 14 0 25 4 25 9
0 5 3 16 6 25 4 12 0 16 -15 16 -12 0 -21 -4 -21 -10 0 -5 -20 -10 -45 -10
-33 0 -51 6 -67 22 -14 14 -18 23 -10 26 7 2 12 15 12 28 0 21 -5 24 -35 24
-26 0 -35 4 -37 18 -3 31 -5 57 -7 75 -1 11 -9 17 -26 17 -20 0 -25 -5 -25
-25 0 -22 -4 -25 -40 -25 -39 0 -40 1 -46 40 -5 29 -11 40 -24 40 -22 0 -30
-19 -30 -71 0 -35 -3 -39 -25 -39 -21 0 -25 5 -25 30 0 20 5 30 15 30 8 0 15
5 15 10 0 6 -6 10 -14 10 -8 0 -17 14 -21 30 -5 21 -13 30 -26 30 -10 0 -19 5
-19 10 0 6 -7 10 -15 10 -8 0 -15 -4 -15 -10 0 -5 -7 -10 -15 -10 -11 0 -15
-11 -15 -40 0 -22 -4 -40 -9 -40 -5 0 -11 18 -15 40 -4 26 -11 40 -21 40 -8 0
-15 5 -15 11 0 17 -27 39 -48 39 -13 0 -22 -9 -26 -25 -4 -14 -11 -25 -16 -25
-6 0 -10 11 -10 25 0 24 -3 25 -55 25 -40 0 -57 4 -61 15 -5 11 -22 15 -70 15
-50 0 -64 -3 -64 -15z m190 -50 c0 -9 -9 -15 -25 -15 -29 0 -34 16 -7 23 30 8
32 7 32 -8z"/>
<path d="M2222 6634 c-2 -113 -3 -116 -31 -145 -30 -29 -51 -37 -51 -19 0 16
-42 11 -55 -6 -9 -13 -20 -15 -48 -10 -21 4 -37 11 -37 16 0 6 -7 10 -15 10
-8 0 -15 7 -15 15 0 8 -4 15 -10 15 -5 0 -10 -13 -10 -30 0 -20 5 -30 15 -30
9 0 15 -9 15 -25 0 -19 -5 -25 -20 -25 -23 0 -70 45 -70 66 0 8 -4 14 -9 14
-5 0 -12 11 -15 25 -12 47 -26 25 -26 -40 0 -51 3 -65 15 -65 10 0 15 -10 15
-30 0 -20 -5 -30 -15 -30 -8 0 -15 -4 -15 -10 0 -5 5 -10 10 -10 6 0 10 -7 10
-15 0 -8 5 -15 10 -15 6 0 21 -11 33 -24 13 -14 35 -28 50 -31 15 -4 27 -11
27 -16 0 -5 11 -9 25 -9 14 0 25 5 25 10 0 6 11 10 25 10 14 0 25 -4 25 -10 0
-5 14 -10 30 -10 20 0 30 -5 30 -15 0 -8 4 -15 9 -15 5 0 11 7 15 15 3 10 19
15 46 15 22 0 40 5 40 11 0 32 72 55 83 27 8 -18 27 10 27 40 0 13 6 22 15 22
8 0 15 -9 15 -20 0 -11 5 -20 10 -20 6 0 10 5 10 10 0 6 7 10 15 10 8 0 15 7
15 15 0 10 10 15 30 15 17 0 30 5 30 10 0 6 28 10 65 10 37 0 65 -4 65 -10 0
-5 18 -10 39 -10 32 0 41 4 47 23 4 12 11 25 17 29 6 4 11 24 11 45 0 21 6 44
13 51 7 7 13 20 13 28 0 8 5 14 10 14 6 0 10 18 10 40 0 22 -4 40 -10 40 -5 0
-10 10 -10 23 0 12 -9 30 -20 40 -22 19 -60 23 -60 7 0 -5 5 -10 10 -10 6 0
10 -7 10 -15 0 -9 7 -18 15 -21 20 -8 20 -70 0 -78 -11 -4 -14 -13 -9 -31 6
-23 3 -25 -25 -25 -21 0 -31 5 -31 15 0 9 -10 15 -26 15 -14 0 -32 7 -40 15
-9 8 -26 15 -40 15 -13 0 -24 5 -24 10 0 6 -7 10 -15 10 -9 0 -18 7 -21 15 -4
8 -16 15 -28 15 -12 0 -31 7 -42 15 -10 8 -36 15 -57 15 -35 0 -38 2 -35 27 3
25 0 27 -35 28 -43 2 -60 19 -52 53 3 14 1 22 -7 22 -10 0 -14 -30 -16 -116z
m218 -114 c0 -5 7 -10 15 -10 8 0 15 -7 15 -16 0 -13 -6 -15 -27 -9 -16 3 -29
11 -31 16 -2 5 -15 9 -28 9 -13 0 -24 5 -24 10 0 6 18 10 40 10 22 0 40 -4 40
-10z m110 -20 c0 -5 11 -12 25 -16 14 -3 25 -12 25 -20 0 -8 7 -14 15 -14 8 0
15 -4 15 -10 0 -5 -18 -10 -40 -10 -29 0 -40 4 -40 15 0 8 -7 15 -15 15 -9 0
-15 9 -15 25 0 16 6 25 15 25 8 0 15 -4 15 -10z m-630 -170 c0 -5 -7 -10 -15
-10 -8 0 -15 5 -15 10 0 6 7 10 15 10 8 0 15 -4 15 -10z m88 -30 c2 -5 15 -10
29 -10 15 0 23 -5 20 -12 -4 -15 -80 -12 -85 3 -2 5 -15 9 -28 9 -24 0 -31 10
-16 24 10 10 76 -1 80 -14z"/>
<path d="M5920 6415 c0 -8 5 -15 10 -15 6 0 10 7 10 15 0 8 -4 15 -10 15 -5 0
-10 -7 -10 -15z"/>
<path d="M4000 6345 c0 -14 5 -25 10 -25 6 0 10 11 10 25 0 14 -4 25 -10 25
-5 0 -10 -11 -10 -25z"/>
<path d="M2250 6085 c0 -9 9 -15 25 -15 16 0 25 6 25 15 0 9 -9 15 -25 15 -16
0 -25 -6 -25 -15z"/>
<path d="M6000 6075 c0 -14 4 -25 9 -25 5 0 11 -9 14 -20 8 -31 27 -24 27 10
0 20 -5 30 -15 30 -8 0 -15 7 -15 15 0 8 -4 15 -10 15 -5 0 -10 -11 -10 -25z"/>
<path d="M6850 5745 c0 -14 5 -25 10 -25 6 0 10 11 10 25 0 14 -4 25 -10 25
-5 0 -10 -11 -10 -25z"/>
<path d="M6330 5715 c0 -14 5 -25 10 -25 6 0 10 11 10 25 0 14 -4 25 -10 25
-5 0 -10 -11 -10 -25z"/>
<path d="M6520 5730 c0 -5 5 -10 10 -10 6 0 10 5 10 10 0 6 -4 10 -10 10 -5 0
-10 -4 -10 -10z"/>
<path d="M6790 5620 c0 -11 -4 -20 -10 -20 -5 0 -10 -4 -10 -10 0 -5 16 -10
35 -10 19 0 35 5 35 10 0 6 -4 10 -9 10 -5 0 -11 9 -14 20 -3 11 -10 20 -16
20 -6 0 -11 -9 -11 -20z"/>
<path d="M6190 5555 c0 -20 5 -25 25 -25 14 0 25 5 25 10 0 6 -4 10 -10 10 -5
0 -10 7 -10 15 0 8 -7 15 -15 15 -9 0 -15 -9 -15 -25z"/>
<path d="M6550 5540 c0 -5 5 -10 10 -10 6 0 10 5 10 10 0 6 -4 10 -10 10 -5 0
-10 -4 -10 -10z"/>
<path d="M6076 5505 c-3 -9 -19 -15 -41 -15 -28 0 -35 -4 -35 -19 0 -22 19
-31 65 -31 53 0 65 9 65 46 0 29 -3 34 -24 34 -13 0 -26 -7 -30 -15z"/>
<path d="M5920 5485 c0 -8 5 -15 10 -15 6 0 10 7 10 15 0 8 -4 15 -10 15 -5 0
-10 -7 -10 -15z"/>
<path d="M2120 5480 c0 -5 -7 -10 -15 -10 -9 0 -15 -9 -15 -25 0 -13 -8 -28
-17 -34 -14 -7 -17 -21 -15 -68 1 -32 7 -59 12 -61 6 -2 10 -10 10 -18 0 -8 7
-14 15 -14 8 0 15 -4 15 -9 0 -5 14 -12 30 -16 17 -4 30 -13 30 -21 0 -8 5
-14 10 -14 6 0 10 -11 10 -24 0 -14 7 -31 15 -40 8 -8 15 -22 15 -30 0 -9 7
-16 15 -16 8 0 15 -4 15 -10 0 -5 -7 -10 -15 -10 -9 0 -15 -9 -15 -25 0 -14
-4 -25 -10 -25 -5 0 -10 5 -10 10 0 6 -7 10 -15 10 -9 0 -15 -9 -15 -25 0 -16
-6 -25 -15 -25 -13 0 -15 -27 -15 -180 0 -103 4 -180 9 -180 5 0 12 -13 16
-30 4 -16 10 -30 15 -30 5 0 12 -10 16 -22 11 -37 54 -67 54 -38 0 6 7 10 15
10 8 0 15 7 15 15 0 8 5 15 10 15 6 0 10 7 10 15 0 8 7 15 15 15 8 0 15 9 15
20 0 12 11 31 25 44 14 13 25 28 25 35 0 6 9 11 20 11 25 0 26 15 3 30 -13 8
-14 13 -5 16 6 3 12 12 12 20 0 8 7 14 15 14 24 0 17 17 -10 24 -23 6 -25 10
-25 71 0 62 1 65 24 65 24 0 56 23 56 41 0 5 18 12 40 15 22 4 40 10 40 15 0
5 10 9 23 9 33 0 67 11 67 21 0 5 -32 9 -70 9 -54 0 -72 4 -76 15 -7 17 -51
20 -56 4 -5 -16 -130 -17 -135 -1 -3 6 2 12 11 12 9 0 16 5 16 10 0 6 7 10 15
10 8 0 15 -4 15 -10 0 -5 11 -10 25 -10 20 0 25 5 25 24 0 19 7 26 30 31 17 4
30 11 30 16 0 5 18 9 40 9 36 0 40 3 40 24 0 23 -4 24 -80 31 -44 4 -80 11
-80 16 0 5 -13 9 -30 9 -20 0 -30 5 -30 15 0 9 -9 15 -25 15 -16 0 -25 6 -25
15 0 8 -7 15 -16 15 -20 0 -44 24 -44 44 0 9 -4 16 -10 16 -5 0 -12 11 -16 25
-3 14 -10 25 -14 25 -4 0 -10 16 -13 35 -7 42 -47 89 -47 55z"/>
<path d="M2825 5370 c-16 -4 -54 -8 -82 -9 -29 0 -53 -5 -53 -10 0 -5 -12 -12
-26 -15 -15 -4 -40 -20 -56 -37 -16 -16 -34 -29 -39 -29 -14 0 -43 -30 -36
-37 3 -3 13 2 22 11 9 9 23 16 31 16 8 0 14 5 14 10 0 6 7 10 16 10 8 0 22 7
30 15 12 12 45 15 165 15 93 0 149 4 149 10 0 6 18 10 40 10 53 0 55 25 3 35
-65 11 -147 14 -178 5z"/>
<path d="M3570 5350 c0 -5 5 -10 10 -10 6 0 10 5 10 10 0 6 -4 10 -10 10 -5 0
-10 -4 -10 -10z"/>
<path d="M3590 5320 c0 -5 5 -10 10 -10 6 0 10 5 10 10 0 6 -4 10 -10 10 -5 0
-10 -4 -10 -10z"/>
<path d="M3620 5299 c0 -7 11 -22 25 -35 14 -13 25 -26 25 -29 0 -4 14 -20 30
-37 17 -16 30 -34 30 -39 0 -5 7 -9 15 -9 19 0 8 28 -22 56 -13 12 -23 26 -23
33 0 6 -7 11 -15 11 -8 0 -15 7 -15 15 0 8 -7 15 -15 15 -8 0 -15 7 -15 15 0
8 -4 15 -10 15 -5 0 -10 -5 -10 -11z"/>
<path d="M6570 5211 c0 -5 -11 -12 -25 -15 -14 -4 -25 -11 -25 -16 0 -6 -12
-10 -28 -10 -53 0 -112 -55 -112 -105 0 -43 10 -44 40 -5 14 18 32 30 46 30
13 0 24 4 24 9 0 5 11 12 25 15 14 4 25 11 25 16 0 6 7 10 15 10 8 0 15 7 15
15 0 8 7 15 15 15 9 0 15 9 15 25 0 16 -6 25 -15 25 -8 0 -15 -4 -15 -9z"/>
<path d="M3760 5130 c0 -5 5 -10 10 -10 6 0 10 5 10 10 0 6 -4 10 -10 10 -5 0
-10 -4 -10 -10z"/>
<path d="M1870 5065 c0 -30 4 -55 9 -55 4 0 11 -19 14 -42 3 -24 11 -44 16
-46 6 -2 11 -21 11 -42 0 -21 7 -45 15 -54 8 -8 15 -30 15 -49 0 -22 6 -37 15
-41 8 -3 15 -12 15 -21 0 -8 5 -15 10 -15 6 0 10 14 10 30 0 17 -4 30 -10 30
-5 0 -10 24 -10 54 0 35 -5 60 -15 70 -8 8 -15 19 -15 25 0 6 -7 11 -15 11
-11 0 -15 12 -15 45 0 33 -4 45 -15 45 -12 0 -15 13 -15 55 0 30 -4 55 -10 55
-5 0 -10 -25 -10 -55z"/>
<path d="M6998 5113 c-10 -2 -18 -8 -18 -13 0 -4 -11 -11 -25 -14 -16 -4 -25
-13 -25 -26 0 -15 7 -20 25 -20 14 0 25 5 25 10 0 6 7 10 15 10 8 0 15 4 15
10 0 5 11 12 25 16 24 6 36 24 16 24 -5 0 -15 2 -23 4 -7 2 -21 2 -30 -1z"/>
<path d="M3780 5100 c0 -5 5 -10 10 -10 6 0 10 5 10 10 0 6 -4 10 -10 10 -5 0
-10 -4 -10 -10z"/>
<path d="M3810 5064 c0 -26 48 -84 69 -84 6 0 11 -9 11 -20 0 -21 33 -60 50
-60 6 0 10 -5 10 -11 0 -16 60 -73 68 -64 4 4 1 10 -5 12 -7 3 -13 9 -13 15 0
5 -13 23 -30 40 -16 16 -30 34 -30 40 0 6 -11 21 -25 34 -14 13 -25 28 -25 34
0 5 -7 10 -15 10 -8 0 -15 7 -15 15 0 8 -4 15 -10 15 -5 0 -12 11 -16 25 -8
33 -24 32 -24 -1z"/>
<path d="M6600 5045 c0 -8 -7 -15 -15 -15 -8 0 -15 -4 -15 -10 0 -16 47 -12
54 5 3 8 17 15 31 15 14 0 25 5 25 10 0 6 -18 10 -40 10 -29 0 -40 -4 -40 -15z"/>
<path d="M6770 5020 c0 -5 5 -10 10 -10 6 0 10 5 10 10 0 6 -4 10 -10 10 -5 0
-10 -4 -10 -10z"/>
<path d="M4030 4800 c0 -5 5 -10 10 -10 6 0 10 5 10 10 0 6 -4 10 -10 10 -5 0
-10 -4 -10 -10z"/>
<path d="M6350 4783 c0 -37 13 -55 33 -47 21 8 22 40 3 60 -22 22 -36 17 -36
-13z"/>
<path d="M4060 4770 c0 -5 5 -10 10 -10 6 0 10 5 10 10 0 6 -4 10 -10 10 -5 0
-10 -4 -10 -10z"/>
<path d="M6540 4730 c0 -20 5 -30 15 -30 8 0 15 7 15 15 0 8 7 15 15 15 8 0
15 7 15 15 0 10 -10 15 -30 15 -27 0 -30 -3 -30 -30z"/>
<path d="M3553 4635 c-21 -23 -15 -32 27 -39 22 -3 40 -11 40 -16 0 -6 34 -10
80 -10 64 0 80 -3 80 -15 0 -12 13 -15 55 -15 42 0 55 -3 55 -15 0 -9 9 -15
25 -15 14 0 25 -4 25 -10 0 -5 7 -10 15 -10 8 0 15 5 15 10 0 6 -4 10 -10 10
-5 0 -10 7 -10 15 0 8 -6 15 -14 15 -8 0 -16 5 -18 10 -2 6 -21 13 -43 17 -22
3 -46 12 -53 20 -7 7 -20 13 -28 13 -8 0 -14 4 -14 9 0 4 -42 11 -92 15 -51 4
-94 11 -96 16 -5 14 -25 11 -39 -5z"/>
<path d="M2630 3950 c0 -5 7 -10 15 -10 8 0 15 5 15 10 0 6 -7 10 -15 10 -8 0
-15 -4 -15 -10z"/>
<path d="M5640 3950 c0 -5 5 -10 10 -10 6 0 10 5 10 10 0 6 -4 10 -10 10 -5 0
-10 -4 -10 -10z"/>
<path d="M5670 3885 c0 -16 6 -25 15 -25 9 0 15 9 15 25 0 16 -6 25 -15 25 -9
0 -15 -9 -15 -25z"/>
<path d="M3240 3870 c0 -5 5 -10 10 -10 6 0 10 5 10 10 0 6 -4 10 -10 10 -5 0
-10 -4 -10 -10z"/>
<path d="M3130 3840 c0 -5 11 -10 25 -10 14 0 25 5 25 10 0 6 -11 10 -25 10
-14 0 -25 -4 -25 -10z"/>
<path d="M3045 3821 c-8 -14 10 -22 30 -15 13 5 14 8 3 15 -17 11 -26 11 -33
0z"/>
<path d="M2936 3784 c-5 -12 -17 -15 -54 -13 -36 3 -52 -1 -69 -16 -13 -11
-23 -23 -23 -27 0 -14 81 -8 96 7 9 8 29 15 45 15 16 0 29 4 29 10 0 5 18 13
40 16 56 9 50 24 -9 24 -35 0 -51 -4 -55 -16z"/>
<path d="M2640 3680 c0 -5 16 -10 35 -10 19 0 35 5 35 10 0 6 -16 10 -35 10
-19 0 -35 -4 -35 -10z"/>
<path d="M6065 3220 c-7 -12 12 -50 25 -50 6 0 10 14 10 30 0 30 -21 42 -35
20z"/>
<path d="M6080 2585 c0 -8 5 -15 10 -15 6 0 10 7 10 15 0 8 -4 15 -10 15 -5 0
-10 -7 -10 -15z"/>
<path d="M6190 1820 c0 -36 3 -40 25 -40 20 0 25 5 25 26 0 26 -20 54 -39 54
-6 0 -11 -18 -11 -40z"/>
<path d="M4357 1773 c-12 -11 -8 -23 8 -23 8 0 15 7 15 15 0 16 -12 20 -23 8z"/>
<path d="M2330 1601 c0 -5 -25 -12 -55 -16 -30 -3 -55 -11 -55 -16 0 -5 -28
-9 -62 -9 -40 -1 -70 -6 -82 -15 -12 -9 -42 -15 -73 -15 -29 0 -53 -4 -53 -9
0 -5 -25 -13 -55 -16 -30 -4 -55 -11 -55 -15 0 -4 -23 -10 -52 -12 -29 -3 -54
-11 -56 -17 -2 -6 -21 -11 -42 -11 -21 0 -40 -5 -42 -11 -2 -5 -22 -13 -46
-16 -23 -3 -42 -9 -42 -13 0 -4 -18 -10 -39 -14 -62 -10 -58 -28 22 -102 88
-81 292 -254 300 -254 12 0 126 122 132 141 4 10 11 19 16 19 5 0 9 7 9 15 0
8 7 15 15 15 8 0 15 7 15 15 0 8 5 15 11 15 6 0 17 6 25 14 8 8 14 19 14 25 0
6 7 11 15 11 8 0 15 7 15 15 0 8 7 15 15 15 8 0 15 7 15 15 0 8 4 15 10 15 5
0 12 11 16 25 3 14 12 25 20 25 8 0 14 7 14 15 0 8 5 15 11 15 13 0 39 25 39
38 0 5 11 13 25 16 14 4 25 11 25 16 0 6 7 10 15 10 8 0 15 7 15 15 0 8 7 15
15 15 9 0 15 9 15 25 0 16 -6 25 -15 25 -8 0 -15 -4 -15 -9z"/>
<path d="M6630 1380 c0 -5 5 -10 10 -10 6 0 10 5 10 10 0 6 -4 10 -10 10 -5 0
-10 -4 -10 -10z"/>
<path d="M5200 1355 c0 -8 7 -15 15 -15 8 0 15 -4 15 -10 0 -5 7 -10 15 -10 8
0 15 5 15 10 0 6 -7 10 -15 10 -8 0 -15 7 -15 15 0 8 -7 15 -15 15 -8 0 -15
-7 -15 -15z"/>
<path d="M6300 1335 c0 -14 5 -25 10 -25 6 0 10 11 10 25 0 14 -4 25 -10 25
-5 0 -10 -11 -10 -25z"/>
<path d="M6440 1316 c0 -15 -7 -26 -20 -29 -31 -8 -24 -27 10 -27 28 0 30 2
30 40 0 22 -4 40 -10 40 -5 0 -10 -11 -10 -24z"/>
<path d="M4600 1270 c0 -5 11 -10 25 -10 14 0 25 5 25 10 0 6 -11 10 -25 10
-14 0 -25 -4 -25 -10z"/>
<path d="M6680 1270 c0 -5 5 -10 10 -10 6 0 10 5 10 10 0 6 -4 10 -10 10 -5 0
-10 -4 -10 -10z"/>
<path d="M6660 1220 c0 -5 5 -10 10 -10 6 0 10 5 10 10 0 6 -4 10 -10 10 -5 0
-10 -4 -10 -10z"/>
<path d="M5010 1175 c0 -16 6 -25 15 -25 10 0 15 -10 15 -30 0 -20 -5 -30 -15
-30 -31 0 -14 -18 23 -24 70 -11 72 -10 72 39 0 33 4 45 15 45 9 0 15 9 15 25
0 19 -5 25 -21 25 -12 0 -28 -8 -35 -17 -13 -17 -15 -17 -28 0 -7 9 -23 17
-35 17 -16 0 -21 -6 -21 -25z"/>
<path d="M5150 1080 c0 -5 11 -10 25 -10 14 0 25 5 25 10 0 6 -11 10 -25 10
-14 0 -25 -4 -25 -10z"/>
<path d="M5450 1080 c0 -5 11 -10 25 -10 14 0 25 5 25 10 0 6 -11 10 -25 10
-14 0 -25 -4 -25 -10z"/>
<path d="M6300 1050 c0 -5 5 -10 10 -10 6 0 10 5 10 10 0 6 -4 10 -10 10 -5 0
-10 -4 -10 -10z"/>
<path d="M5408 991 c-10 -10 -18 -27 -18 -39 0 -18 6 -22 30 -22 20 0 30 5 30
15 0 9 9 15 25 15 14 0 25 4 25 9 0 5 3 16 6 25 9 24 -75 21 -98 -3z"/>
<path d="M5540 920 c0 -5 9 -10 20 -10 11 0 20 5 20 10 0 6 -9 10 -20 10 -11
0 -20 -4 -20 -10z"/>
<path d="M5450 885 c0 -9 -9 -15 -25 -15 -14 0 -25 -4 -25 -10 0 -5 11 -10 25
-10 16 0 25 -6 25 -15 0 -8 5 -15 10 -15 6 0 10 7 10 15 0 8 7 15 15 15 8 0
15 7 15 15 0 8 -7 15 -15 15 -8 0 -15 5 -15 10 0 6 -4 10 -10 10 -5 0 -10 -7
-10 -15z"/>
<path d="M5450 751 c0 -5 -14 -13 -32 -16 -28 -7 -30 -9 -15 -20 9 -7 17 -17
17 -24 0 -6 7 -11 15 -11 10 0 15 10 15 30 0 17 5 30 10 30 6 0 10 5 10 10 0
6 -4 10 -10 10 -5 0 -10 -4 -10 -9z"/>
<path d="M5590 585 c0 -12 -13 -15 -55 -15 -30 0 -55 -4 -55 -10 0 -5 25 -10
55 -10 42 0 55 -3 55 -15 0 -8 5 -15 10 -15 6 0 10 18 10 40 0 22 -4 40 -10
40 -5 0 -10 -7 -10 -15z"/>
<path d="M6820 560 c0 -5 5 -10 10 -10 6 0 10 5 10 10 0 6 -4 10 -10 10 -5 0
-10 -4 -10 -10z"/>
<path d="M5560 204 c0 -17 22 -14 28 4 2 7 -3 12 -12 12 -9 0 -16 -7 -16 -16z"/>
</g>
</svg>
