<?xml version="1.0" standalone="no"?>
<!DOCTYPE svg PUBLIC "-//W3C//DTD SVG 20010904//EN"
 "http://www.w3.org/TR/2001/REC-SVG-20010904/DTD/svg10.dtd">
<svg version="1.0" xmlns="http://www.w3.org/2000/svg"
 width="1468.000000pt" height="760.000000pt" viewBox="0 0 1468.000000 760.000000"
 preserveAspectRatio="xMidYMid meet">

<g transform="translate(0.000000,760.000000) scale(0.100000,-0.100000)"
fill="#000000" stroke="none">
<path d="M4700 7575 c0 -22 -4 -25 -35 -25 -24 0 -35 -5 -35 -15 0 -8 5 -15
10 -15 6 0 10 -9 10 -19 0 -10 7 -21 15 -25 13 -4 12 -10 -3 -38 -9 -18 -21
-36 -26 -39 -4 -4 -4 -8 2 -10 5 -2 13 -14 16 -26 6 -17 3 -23 -8 -23 -13 0
-16 -12 -16 -60 0 -33 4 -60 10 -60 6 0 10 -4 10 -10 0 -5 -11 -10 -25 -10
-14 0 -25 5 -25 10 0 6 -16 10 -35 10 -39 0 -46 17 -18 46 13 13 14 19 5 22
-6 2 -12 15 -12 28 0 21 -5 24 -35 24 -33 0 -35 -2 -35 -33 0 -23 7 -38 25
-51 14 -10 25 -27 25 -37 0 -12 7 -19 20 -19 16 0 20 -7 20 -31 0 -22 10 -40
38 -66 23 -22 32 -38 25 -40 -15 -5 -18 -33 -3 -33 5 0 -4 -14 -21 -31 -25
-25 -31 -28 -43 -16 -8 7 -15 22 -17 32 -5 25 -23 29 -42 10 -19 -18 -34 -19
-40 -2 -3 6 -3 -3 0 -20 3 -20 1 -33 -5 -33 -6 0 -17 -7 -26 -15 -13 -14 -20
-13 -66 12 -43 24 -52 26 -61 13 -8 -11 -12 -12 -16 -2 -8 21 -23 13 -23 -13
0 -19 -5 -25 -21 -25 -15 0 -19 -4 -15 -16 3 -9 6 -36 6 -60 0 -32 4 -44 15
-44 10 0 15 11 15 35 0 19 5 35 10 35 6 0 10 -11 10 -25 0 -14 5 -25 10 -25
16 0 12 -30 -7 -48 -12 -12 -18 -13 -21 -4 -4 14 -42 16 -42 2 0 -5 9 -19 20
-30 28 -28 26 -50 -5 -50 -16 0 -25 -6 -25 -15 0 -8 -4 -15 -10 -15 -5 0 -10
-4 -10 -10 0 -5 9 -10 20 -10 37 0 13 -32 -34 -44 -36 -9 -56 -29 -56 -54 0
-11 -6 -23 -12 -26 -10 -5 -10 -7 0 -12 6 -3 12 -14 12 -25 0 -10 5 -19 10
-19 6 0 10 -26 10 -59 0 -54 2 -59 25 -65 21 -5 25 -12 25 -40 0 -19 4 -36 9
-38 5 -1 11 -14 13 -28 1 -14 13 -35 26 -47 28 -28 30 -67 3 -58 -20 6 -38 -9
-22 -19 14 -9 61 15 61 31 0 20 31 12 44 -12 6 -11 19 -27 29 -36 19 -18 23
-39 7 -39 -5 0 -10 -7 -10 -16 0 -18 -23 -44 -39 -44 -6 0 -11 7 -11 16 0 20
-29 49 -38 39 -4 -4 -1 -10 6 -12 19 -7 14 -23 -8 -23 -11 0 -20 -7 -20 -15 0
-8 9 -20 20 -27 11 -7 20 -21 20 -30 0 -20 15 -24 25 -8 14 23 25 7 25 -36 0
-49 16 -74 49 -74 14 0 21 -6 21 -20 0 -11 5 -20 10 -20 6 0 10 -7 10 -15 0
-8 9 -15 20 -15 11 0 20 -4 20 -10 0 -5 -4 -10 -10 -10 -13 0 -13 -21 1 -40 8
-11 12 -12 16 -2 9 23 23 12 23 -18 0 -16 5 -30 10 -30 6 0 10 -11 10 -24 0
-13 6 -26 13 -29 10 -4 10 -7 0 -18 -15 -16 -17 -49 -3 -49 18 0 10 -22 -10
-27 -16 -4 -20 -14 -20 -45 0 -42 17 -68 45 -68 19 0 45 -23 45 -39 0 -6 11
-11 25 -11 20 0 25 -5 25 -25 0 -20 -5 -24 -22 -22 -20 2 -23 -2 -20 -28 2
-16 8 -31 13 -33 5 -2 9 -10 9 -18 0 -8 5 -14 10 -14 6 0 10 -16 10 -35 0 -26
-4 -35 -16 -35 -11 0 -15 -6 -11 -20 3 -11 1 -23 -4 -26 -5 -3 -9 -14 -9 -24
0 -10 -7 -25 -15 -34 -8 -8 -15 -19 -15 -25 0 -6 -4 -11 -9 -11 -5 0 -17 -22
-27 -50 -10 -27 -22 -50 -26 -50 -4 0 -8 -20 -8 -45 0 -25 -4 -45 -8 -45 -14
0 -33 -51 -27 -71 4 -11 2 -19 -4 -19 -6 0 -11 -11 -11 -25 0 -14 -4 -25 -10
-25 -5 0 -10 -20 -10 -45 0 -25 -4 -45 -10 -45 -5 0 -10 -11 -10 -25 0 -16 -6
-25 -15 -25 -11 0 -15 -12 -15 -50 0 -27 -4 -50 -10 -50 -6 0 -10 -28 -10 -65
0 -37 -4 -65 -10 -65 -5 0 -10 -16 -10 -35 0 -22 -6 -38 -15 -41 -8 -4 -15
-15 -15 -25 0 -10 -4 -19 -10 -19 -14 0 -12 -47 3 -54 10 -5 10 -7 0 -12 -7
-3 -13 -21 -13 -39 0 -18 -6 -36 -12 -39 -10 -5 -10 -7 0 -12 9 -4 12 -59 12
-224 0 -146 4 -220 11 -222 6 -2 12 -29 14 -60 2 -31 8 -65 14 -76 6 -12 11
-39 11 -61 0 -23 5 -41 10 -41 6 0 10 -9 10 -19 0 -10 6 -21 14 -24 23 -9 26
-46 5 -52 -27 -9 -24 -43 4 -47 14 -2 23 -11 25 -25 2 -13 8 -23 13 -23 14 0
11 -48 -3 -53 -10 -4 -10 -6 0 -6 6 -1 12 -12 12 -26 0 -14 5 -25 10 -25 6 0
16 -11 22 -25 6 -14 17 -25 25 -25 7 0 13 -11 13 -25 0 -14 3 -25 8 -25 4 0
15 -27 26 -60 13 -42 23 -60 35 -60 10 0 25 -15 34 -35 10 -21 24 -35 35 -35
10 0 24 -9 32 -20 8 -11 20 -20 27 -20 8 0 13 -12 13 -30 0 -32 26 -70 48 -70
24 0 64 -49 57 -70 -5 -14 -2 -20 10 -20 9 0 28 -11 43 -25 15 -14 39 -25 55
-25 24 0 27 -3 22 -21 -9 -28 24 -89 47 -89 14 0 18 -8 18 -34 0 -28 4 -35 25
-40 21 -5 25 -12 25 -42 0 -30 3 -34 18 -29 13 3 25 -3 38 -20 10 -14 28 -25
40 -25 20 0 34 -17 34 -41 0 -14 -17 -11 -34 6 -12 13 -46 12 -46 -2 0 -12 31
-33 49 -33 13 0 21 -7 21 -17 0 -10 7 -27 16 -38 13 -17 16 -18 25 -5 8 11 12
12 16 3 2 -7 11 -13 19 -13 8 0 14 -9 14 -20 0 -24 1 -24 47 -5 44 19 43 19
43 -5 0 -11 -4 -20 -10 -20 -18 0 -10 -18 10 -23 11 -3 20 -14 20 -24 0 -11 7
-28 15 -39 8 -10 15 -27 15 -36 0 -10 5 -18 10 -18 6 0 10 -11 10 -25 0 -14
-4 -25 -10 -25 -5 0 -10 -9 -10 -20 0 -11 -4 -20 -10 -20 -5 0 -10 -7 -10 -16
0 -13 3 -14 14 -5 10 8 22 7 49 -4 50 -21 54 -19 25 9 -20 18 -25 30 -20 52 3
16 10 33 16 37 8 6 7 10 -1 14 -28 11 -5 73 27 73 6 0 20 -9 32 -20 30 -27 38
-25 38 9 0 21 -6 32 -20 36 -11 3 -20 10 -20 13 0 4 9 14 20 22 11 8 20 22 20
32 0 9 -9 20 -20 23 -21 7 -28 25 -10 25 6 0 10 7 10 15 0 8 5 15 10 15 6 0
10 9 10 20 0 13 -7 20 -19 20 -32 0 -33 17 -4 41 18 14 23 23 16 26 -7 3 -13
15 -13 28 0 13 6 26 13 29 8 3 7 8 -6 16 -21 13 -14 30 14 30 10 0 19 5 19 10
0 6 -16 10 -36 10 -32 0 -35 2 -28 23 3 12 11 24 15 25 19 7 8 22 -16 22 -14
0 -25 5 -25 10 0 6 9 10 19 10 22 0 35 28 25 54 -3 9 -20 20 -38 25 l-31 8 28
8 c29 8 37 25 12 25 -8 0 -15 6 -15 14 0 8 -5 16 -12 18 -8 3 -3 14 15 32 15
15 27 30 27 34 0 3 -12 17 -27 31 -18 15 -24 25 -15 28 6 3 12 9 12 14 0 6 11
21 25 34 26 27 89 35 98 13 4 -10 8 -10 14 -2 4 7 17 13 28 15 12 3 21 14 23
27 2 12 8 22 13 22 5 0 9 51 9 115 0 70 -4 115 -10 115 -5 0 -10 11 -10 24 0
24 -23 56 -41 56 -5 0 -9 -7 -9 -15 0 -8 -9 -15 -20 -15 -11 0 -20 -4 -20 -8
0 -4 -22 -16 -50 -27 -27 -11 -50 -23 -50 -27 0 -4 -16 -8 -35 -8 -19 0 -35
-4 -35 -10 0 -5 -13 -10 -28 -10 -15 0 -32 -4 -38 -9 -13 -14 -124 -15 -157
-2 -16 6 -35 11 -43 11 -8 0 -14 5 -14 10 0 6 -6 10 -14 10 -7 0 -25 11 -40
25 -15 14 -34 25 -42 25 -7 0 -14 5 -14 10 0 6 -7 10 -15 10 -8 0 -15 5 -15
11 0 7 -9 19 -19 28 -11 10 -27 36 -36 59 -10 23 -21 42 -25 42 -5 0 -10 24
-13 53 -3 28 -10 77 -16 107 -12 59 -4 210 10 210 5 0 9 16 9 35 0 19 5 35 10
35 6 0 10 8 10 18 0 20 33 118 43 129 4 3 7 15 7 25 0 10 4 18 8 18 5 0 15 11
22 25 7 14 19 25 27 25 7 0 13 4 13 9 0 20 83 41 165 41 50 0 85 4 85 10 0 6
-9 10 -20 10 -11 0 -20 5 -20 10 0 6 5 10 10 10 6 0 10 5 10 11 0 22 30 39 69
39 23 0 41 5 41 10 0 19 48 11 55 -10 3 -11 15 -20 26 -20 10 0 19 -5 19 -11
0 -6 8 -8 19 -4 31 9 51 -5 51 -36 0 -16 -6 -29 -12 -30 -7 0 -3 -5 10 -11 12
-6 22 -15 22 -20 0 -4 5 -8 11 -8 16 0 39 -26 39 -45 0 -9 11 -28 25 -43 14
-15 25 -32 25 -39 0 -9 17 -13 55 -13 59 0 67 7 35 30 -11 8 -20 24 -20 35 0
11 9 27 20 35 20 15 28 60 10 60 -5 0 -10 18 -10 40 0 22 5 40 10 40 6 0 10
33 10 80 l0 80 -30 0 c-16 0 -30 5 -30 10 0 6 -7 10 -15 10 -8 0 -15 5 -15 10
0 6 10 10 23 10 29 0 57 19 40 27 -20 8 -15 23 7 23 11 0 20 3 20 6 0 11 -29
34 -43 34 -29 0 -47 12 -47 31 0 10 -4 19 -10 19 -5 0 -10 7 -10 15 0 8 5 15
10 15 6 0 10 16 10 35 0 24 5 35 15 35 8 0 15 5 15 10 0 6 -11 10 -25 10 -15
0 -25 -6 -25 -14 0 -22 -13 -26 -34 -10 -19 13 -19 14 7 37 36 31 34 37 -13
37 -22 0 -40 5 -40 10 0 6 7 10 15 10 23 0 18 18 -7 26 -28 9 -53 33 -43 42 4
4 10 1 12 -5 3 -7 16 -13 29 -13 13 0 24 -4 24 -10 0 -5 7 -10 15 -10 18 0 9
28 -17 51 -23 21 -23 39 1 39 25 0 37 31 17 46 -9 6 -16 19 -16 28 0 9 -4 16
-10 16 -14 0 -12 48 2 52 7 3 -7 24 -35 50 -52 51 -64 92 -25 86 13 -2 24 -11
26 -22 4 -19 25 -46 36 -46 3 0 6 11 6 25 0 14 5 25 10 25 6 0 10 -7 10 -15 0
-8 7 -15 15 -15 8 0 15 -4 15 -10 0 -5 5 -10 10 -10 6 0 10 11 10 25 0 15 -6
25 -14 25 -15 0 -30 29 -20 39 4 3 9 0 11 -6 5 -15 43 -17 43 -3 0 6 -4 10
-10 10 -5 0 -10 5 -10 11 0 7 -8 19 -18 28 -25 22 -37 81 -17 81 8 0 15 5 15
10 0 6 9 10 20 10 13 0 20 -7 20 -20 0 -11 5 -20 10 -20 6 0 10 9 10 20 0 15
7 20 25 20 14 0 25 -4 25 -10 0 -5 7 -10 15 -10 8 0 15 5 15 10 0 6 -7 10 -15
10 -8 0 -15 7 -15 15 0 16 9 19 34 9 10 -4 16 -18 16 -35 0 -22 5 -29 19 -29
24 0 32 21 24 60 -5 27 -3 30 21 30 14 0 26 -4 26 -10 0 -5 5 -10 11 -10 6 0
17 -7 26 -16 22 -22 57 -14 61 14 2 14 10 22 23 22 10 0 19 5 19 10 0 6 -4 10
-10 10 -5 0 -10 11 -10 25 0 20 5 25 25 25 14 0 25 5 25 10 0 6 16 10 35 10
19 0 35 -4 35 -10 0 -5 9 -10 20 -10 11 0 20 -4 20 -10 0 -5 5 -10 11 -10 17
0 39 27 39 49 0 16 -6 21 -25 21 -27 0 -30 7 -15 30 9 13 11 13 21 0 8 -11 12
-12 16 -2 8 19 23 14 23 -8 0 -12 7 -20 18 -21 42 -2 87 4 90 12 2 5 26 9 53
9 27 0 49 5 49 10 0 6 14 10 31 10 17 0 37 7 45 15 9 8 31 15 50 15 19 0 34 5
34 10 0 6 7 10 15 10 8 0 15 4 15 9 0 5 12 11 26 13 15 2 32 12 38 23 6 11 12
22 14 25 2 2 8 -2 13 -10 8 -11 12 -12 16 -2 2 6 9 12 15 12 16 0 38 28 38 49
0 16 6 21 25 21 14 0 25 -4 25 -9 0 -4 -11 -17 -25 -27 -14 -10 -25 -27 -25
-36 0 -13 8 -18 25 -18 14 0 25 5 25 10 0 6 9 10 20 10 11 0 20 4 20 9 0 5 10
13 22 17 12 3 41 26 64 50 23 24 45 44 48 44 11 0 56 48 56 60 0 5 -9 10 -21
10 -22 0 -55 27 -45 37 3 3 12 0 21 -7 10 -8 15 -9 15 -1 0 6 7 11 15 11 8 0
15 -4 15 -10 0 -5 7 -10 16 -10 11 0 14 -6 9 -20 -7 -24 9 -58 19 -41 11 18
26 13 26 -9 0 -11 5 -20 10 -20 6 0 10 -11 10 -25 0 -16 -6 -25 -15 -25 -8 0
-15 -4 -15 -10 0 -20 33 -9 56 18 32 36 31 62 -1 62 -30 0 -33 16 -5 23 16 4
19 11 14 36 -4 20 -2 31 5 31 6 0 11 7 11 15 0 8 9 15 20 15 24 0 90 -31 90
-42 0 -4 29 -8 65 -8 37 0 65 -4 65 -10 0 -5 13 -10 28 -10 15 0 32 -4 38 -9
16 -15 84 -21 84 -8 0 7 4 18 9 26 7 10 12 10 30 -5 11 -10 21 -24 21 -32 0
-7 8 -16 18 -19 9 -4 27 -18 39 -32 19 -21 23 -23 23 -8 0 9 7 17 15 17 8 0
15 -7 15 -15 0 -8 9 -15 19 -15 11 0 22 -9 26 -19 3 -12 19 -21 39 -25 21 -4
43 -18 58 -36 12 -16 31 -30 41 -30 10 0 25 -6 32 -12 33 -30 45 -38 55 -38 5
0 10 -4 10 -9 0 -5 16 -15 35 -22 19 -7 35 -19 35 -26 0 -7 9 -13 20 -13 11 0
20 -4 20 -8 0 -5 11 -15 25 -22 14 -7 25 -17 25 -22 0 -14 23 -35 48 -42 16
-5 22 -3 22 7 0 9 6 17 13 20 6 2 8 8 4 13 -4 5 -12 2 -16 -5 -7 -10 -13 -9
-30 5 -11 10 -21 26 -21 36 0 11 -7 18 -19 18 -10 0 -21 7 -25 15 -3 8 -13 15
-22 15 -17 0 -54 36 -54 52 0 4 -9 8 -20 8 -11 0 -20 7 -20 15 0 8 9 15 21 15
16 0 19 4 14 20 -6 18 -2 20 46 20 44 0 55 -4 75 -27 20 -23 24 -25 30 -10 8
23 24 22 24 -2 0 -10 7 -21 15 -25 20 -7 75 4 75 15 0 5 11 9 25 9 18 0 25 5
25 20 0 11 -4 20 -10 20 -5 0 -10 7 -10 15 0 8 5 15 10 15 6 0 10 -7 10 -15 0
-8 5 -15 10 -15 6 0 10 -9 10 -20 0 -25 34 -27 57 -4 14 13 14 17 2 25 -8 5
-19 9 -25 9 -6 0 -10 10 -10 22 1 15 -7 24 -24 29 -14 4 -18 7 -8 8 9 1 30 9
47 19 25 13 31 24 31 50 0 17 5 32 10 32 6 0 10 16 10 35 0 19 -4 35 -10 35
-5 0 -10 -11 -10 -25 0 -18 -5 -25 -20 -25 -11 0 -20 5 -20 10 0 6 -6 10 -13
10 -23 0 -57 36 -57 61 -1 32 -23 59 -49 59 -16 0 -21 7 -22 28 -1 15 -2 34
-3 43 -1 9 -16 30 -33 47 -18 16 -33 39 -33 50 0 11 -7 27 -15 36 -8 8 -15 19
-15 25 0 6 -4 11 -10 11 -20 0 -10 38 12 43 18 5 19 8 8 22 -11 13 -11 23 0
55 7 22 19 40 27 40 18 0 16 17 -3 24 -20 8 -9 26 17 26 10 0 19 5 19 10 0 20
27 10 40 -15 7 -14 17 -25 22 -25 4 0 8 11 8 25 0 14 -4 25 -10 25 -5 0 -10 9
-10 20 0 11 5 20 10 20 6 0 10 7 10 15 0 19 -16 19 -24 0 -7 -20 -36 -8 -36
16 0 11 -7 22 -15 25 -17 7 -21 64 -5 64 6 0 10 23 10 50 0 39 -4 50 -16 50
-8 0 -21 6 -28 13 -18 18 -31 77 -17 77 6 0 11 -4 11 -10 0 -5 11 -10 25 -10
14 0 25 5 25 10 0 6 -4 10 -10 10 -5 0 -10 7 -10 15 0 8 9 15 19 15 21 0 37
30 21 40 -6 4 -8 14 -4 23 4 11 0 19 -12 24 -23 8 -33 19 -57 55 -22 34 -22
54 0 62 15 6 13 10 -10 30 -15 13 -27 33 -27 45 0 17 6 21 35 21 33 0 35 2 35
35 0 41 -10 44 -36 10 -10 -14 -22 -25 -26 -25 -5 0 -8 11 -8 25 0 14 -4 25
-8 25 -5 0 -15 -11 -22 -25 -7 -14 -19 -25 -27 -25 -7 0 -13 -4 -13 -10 0 -5
-20 -10 -45 -10 -41 0 -45 2 -45 24 0 27 26 42 45 26 16 -13 28 2 19 24 -7 17
-44 22 -44 6 0 -19 -41 -10 -65 15 -14 13 -25 27 -25 30 0 10 -28 35 -39 35
-6 0 -11 5 -11 10 0 14 -48 12 -52 -2 -3 -9 -9 -8 -21 4 -9 9 -17 21 -17 26 0
6 -4 12 -10 14 -5 2 -12 49 -15 106 -5 89 -4 102 10 102 24 0 15 44 -10 49
-11 2 -27 12 -36 22 -9 11 -26 19 -38 19 -11 0 -21 4 -21 9 0 17 -77 21 -106
6 -16 -8 -35 -15 -41 -15 -7 0 -13 -4 -13 -10 0 -5 -5 -10 -11 -10 -17 0 -39
27 -39 49 0 15 -6 21 -23 21 -21 0 -22 4 -22 58 0 52 -2 57 -22 60 -13 2 -23
-1 -23 -7 0 -6 5 -11 10 -11 6 0 10 -11 10 -25 0 -20 -5 -25 -24 -25 -19 0
-25 6 -28 30 -2 16 0 32 6 34 6 2 -609 5 -1366 5 l-1378 1 0 -25z m3020 -155
c0 -5 -4 -10 -10 -10 -5 0 -10 5 -10 10 0 6 5 10 10 10 6 0 10 -4 10 -10z
m-3120 -260 c0 -5 -2 -10 -4 -10 -3 0 -8 5 -11 10 -3 6 -1 10 4 10 6 0 11 -4
11 -10z m3260 -40 c0 -5 -5 -10 -11 -10 -5 0 -7 5 -4 10 3 6 8 10 11 10 2 0 4
-4 4 -10z m354 -226 c18 -7 12 -24 -10 -24 -8 0 -14 7 -14 15 0 17 2 18 24 9z
m-3864 -108 c0 -8 6 -16 13 -19 6 -2 -1 -8 -16 -12 -32 -8 -32 -8 -41 23 -6
19 -4 22 18 22 16 0 26 -6 26 -14z m-50 -46 c0 -5 -4 -10 -10 -10 -5 0 -10 5
-10 10 0 6 5 10 10 10 6 0 10 -4 10 -10z m-62 -442 c-6 -18 -28 -21 -28 -4 0
9 7 16 16 16 9 0 14 -5 12 -12z m2658 -715 c20 -8 17 -23 -5 -23 -13 0 -20 9
-24 33 -2 17 -2 39 2 47 4 9 7 2 9 -18 2 -18 10 -36 18 -39z m104 23 c0 -14 5
-28 10 -31 18 -11 11 -35 -10 -35 -13 0 -20 7 -20 20 0 11 -4 20 -10 20 -14 0
-13 18 3 35 18 21 27 18 27 -9z m-140 -52 c0 -10 -28 -34 -41 -34 -8 0 -5 8 7
19 19 20 34 26 34 15z m1510 -4 c0 -5 -9 -10 -20 -10 -11 0 -20 5 -20 10 0 6
9 10 20 10 11 0 20 -4 20 -10z m-1390 -70 c0 -5 -9 -10 -20 -10 -11 0 -20 5
-20 10 0 6 9 10 20 10 11 0 20 -4 20 -10z m-270 -20 c10 -6 11 -10 3 -10 -7 0
-13 -7 -13 -15 0 -8 -9 -15 -20 -15 -11 0 -20 5 -20 10 0 6 5 10 10 10 6 0 10
7 10 15 0 17 9 19 30 5z m-200 -100 c0 -5 -4 -10 -10 -10 -5 0 -10 5 -10 10 0
6 5 10 10 10 6 0 10 -4 10 -10z m-40 -20 c0 -5 -4 -10 -10 -10 -5 0 -10 5 -10
10 0 6 5 10 10 10 6 0 10 -4 10 -10z m-1840 -70 c0 -5 -4 -10 -10 -10 -5 0
-10 5 -10 10 0 6 5 10 10 10 6 0 10 -4 10 -10z m300 -190 c0 -5 -4 -10 -10
-10 -5 0 -10 5 -10 10 0 6 5 10 10 10 6 0 10 -4 10 -10z m650 -600 c0 -5 -4
-10 -10 -10 -5 0 -10 5 -10 10 0 6 5 10 10 10 6 0 10 -4 10 -10z m140 -240 c0
-5 -4 -10 -10 -10 -5 0 -10 5 -10 10 0 6 5 10 10 10 6 0 10 -4 10 -10z m-390
-137 c0 -14 -20 -39 -20 -25 0 6 -7 12 -15 12 -8 0 -15 5 -15 10 0 6 11 10 25
10 14 0 25 -3 25 -7z m-770 -1223 c0 -5 -4 -10 -9 -10 -6 0 -13 5 -16 10 -3 6
1 10 9 10 9 0 16 -4 16 -10z m790 0 c0 -5 -4 -10 -10 -10 -5 0 -10 5 -10 10 0
6 5 10 10 10 6 0 10 -4 10 -10z m40 0 c0 -5 7 -10 15 -10 8 0 15 -4 15 -10 0
-5 -11 -10 -25 -10 -18 0 -25 5 -25 20 0 11 5 20 10 20 6 0 10 -4 10 -10z
m-40 -45 c0 -8 -4 -15 -10 -15 -5 0 -10 7 -10 15 0 8 5 15 10 15 6 0 10 -7 10
-15z m110 -1 c0 -11 -72 -75 -77 -70 -4 3 4 14 15 25 12 10 22 25 22 33 0 8 3
17 6 21 6 6 34 -2 34 -9z m30 -74 c0 -5 -4 -10 -10 -10 -5 0 -10 5 -10 10 0 6
5 10 10 10 6 0 10 -4 10 -10z"/>
<path d="M10960 7581 c0 -5 5 -11 10 -13 6 -2 12 -20 13 -40 4 -50 17 -61 17
-15 0 26 4 37 15 37 8 0 15 5 15 10 0 6 -11 10 -25 10 -14 0 -25 5 -25 10 0 6
-4 10 -10 10 -5 0 -10 -4 -10 -9z"/>
<path d="M11220 7560 c0 -5 -7 -10 -15 -10 -19 0 -20 -37 -1 -56 23 -22 50
-16 69 15 21 36 21 41 2 41 -8 0 -15 5 -15 10 0 6 -9 10 -20 10 -11 0 -20 -4
-20 -10z"/>
<path d="M11420 7546 c0 -9 -4 -16 -10 -16 -5 0 -10 -11 -10 -25 0 -14 -4 -25
-10 -25 -5 0 -10 -16 -10 -35 0 -19 5 -35 10 -35 6 0 10 -7 10 -15 0 -19 37
-19 70 0 29 16 80 20 80 5 0 -5 -7 -15 -15 -22 -9 -7 -22 -19 -30 -25 -7 -7
-23 -13 -34 -13 -16 0 -21 -6 -21 -25 0 -18 5 -25 20 -25 11 0 20 5 20 10 0 6
7 10 15 10 8 0 15 5 15 10 0 6 5 10 10 10 6 0 10 -18 10 -40 0 -44 16 -54 26
-16 4 17 11 22 25 19 10 -3 19 -9 19 -14 0 -5 9 -9 19 -9 41 0 51 -11 51 -56
0 -28 -4 -44 -12 -44 -9 0 -8 -4 2 -10 24 -15 36 -12 50 15 7 14 21 25 31 25
20 0 32 25 24 51 -9 26 30 25 70 -1 24 -15 26 -20 13 -25 -13 -5 -15 -15 -11
-41 4 -27 2 -34 -11 -34 -9 0 -16 -7 -16 -15 0 -8 -4 -15 -10 -15 -22 0 -8
-30 17 -36 19 -5 30 -2 39 10 9 14 20 16 43 11 21 -4 31 -3 31 5 0 18 27 40
49 40 24 0 28 18 6 26 -8 4 -15 10 -15 14 0 16 31 40 51 40 14 0 19 -7 19 -30
0 -17 -5 -30 -12 -30 -9 0 -8 -4 2 -10 20 -13 90 -13 90 0 0 6 -7 13 -15 16
-8 4 -15 15 -15 25 0 15 7 19 35 19 19 0 35 -4 35 -10 0 -5 11 -10 25 -10 31
0 32 -19 4 -51 -17 -20 -22 -21 -30 -9 -8 13 -10 13 -19 0 -16 -24 -12 -80 5
-80 8 0 15 -5 15 -11 0 -8 15 -10 44 -7 47 6 62 -6 50 -37 -7 -17 -44 -21 -44
-5 0 6 -11 10 -25 10 -18 0 -25 -5 -25 -19 0 -11 -4 -23 -10 -26 -6 -4 -5 -13
3 -25 15 -26 27 -25 27 0 0 14 7 20 21 20 12 0 23 -8 26 -20 3 -12 14 -20 27
-20 12 0 28 9 36 20 16 22 40 27 40 8 -1 -43 -13 -58 -46 -58 -19 0 -34 -4
-34 -10 0 -5 -11 -10 -25 -10 -14 0 -25 6 -25 13 0 8 -4 7 -10 -3 -16 -24 -12
-80 5 -80 8 0 15 -4 15 -8 0 -12 50 -33 61 -27 5 4 9 13 9 21 0 8 5 14 10 14
6 0 10 11 10 25 0 18 5 25 20 25 11 0 20 -6 20 -13 0 -7 -9 -19 -20 -27 -26
-19 -25 -28 3 -32 20 -3 22 -9 23 -68 1 -96 -4 -120 -27 -120 -10 0 -19 -4
-19 -10 0 -5 9 -10 20 -10 11 0 20 -7 20 -15 0 -8 -4 -15 -10 -15 -5 0 -10
-16 -10 -35 0 -19 -4 -35 -10 -35 -5 0 -10 -13 -10 -29 0 -28 2 -29 45 -28 50
2 57 15 25 50 -12 12 -16 23 -10 25 5 2 10 10 10 18 0 8 5 14 10 14 6 0 10
-11 10 -25 0 -14 5 -25 10 -25 6 0 10 11 10 25 0 14 -4 25 -10 25 -5 0 -10 9
-10 21 0 22 22 49 39 49 13 0 14 5 2 28 -12 23 -32 102 -34 132 -2 21 3 25 31
28 31 3 32 5 32 48 0 24 -4 44 -10 44 -5 0 -10 -4 -10 -10 0 -5 -4 -10 -10
-10 -18 0 -11 48 9 62 23 16 31 49 14 55 -7 3 -13 -2 -13 -11 0 -9 -8 -16 -20
-16 -23 0 -23 2 -9 53 10 37 23 47 32 25 4 -10 8 -10 15 1 6 8 34 16 64 19 43
3 58 0 72 -14 15 -14 19 -15 27 -3 5 8 9 18 9 22 0 5 12 7 28 6 46 -4 62 0 62
16 0 8 5 15 10 15 6 0 10 -9 10 -20 0 -11 -4 -20 -10 -20 -5 0 -10 -7 -10 -15
0 -8 3 -15 6 -15 10 0 34 28 34 39 0 6 5 11 10 11 6 0 10 4 10 10 0 14 -101
69 -116 63 -8 -3 -14 1 -14 9 0 8 -20 24 -43 35 l-44 21 5 -24 c4 -23 3 -24
-62 -24 -37 0 -66 4 -66 10 0 11 2 12 47 16 18 1 39 9 47 17 13 12 2 20 -88
60 -226 102 -453 180 -686 237 -130 31 -180 37 -180 20 0 -5 -11 -10 -25 -10
-18 0 -25 5 -25 19 0 15 -10 21 -42 26 -24 3 -51 9 -60 11 -12 4 -18 0 -18
-10z m120 -65 c0 -21 -42 -34 -79 -24 -24 6 -29 23 -6 23 8 0 15 5 15 10 0 6
16 10 35 10 28 0 35 -4 35 -19z m128 -10 c11 -7 10 -10 -3 -15 -19 -7 -35 0
-35 15 0 11 20 12 38 0z m-10 -73 c-7 -20 -48 -23 -48 -4 0 11 9 16 26 16 16
0 24 -5 22 -12z m-18 -48 c0 -5 -7 -10 -15 -10 -8 0 -15 5 -15 10 0 6 7 10 15
10 8 0 15 -4 15 -10z m270 0 c0 -5 -4 -10 -10 -10 -5 0 -10 5 -10 10 0 6 5 10
10 10 6 0 10 -4 10 -10z m230 1 c0 -5 -6 -12 -12 -15 -9 -3 -8 -8 5 -16 21
-13 23 -50 2 -50 -8 0 -15 5 -15 10 0 20 -19 9 -22 -12 -2 -16 -9 -22 -22 -20
-22 4 -46 26 -46 41 0 6 -4 11 -10 11 -5 0 -10 7 -10 15 0 8 3 15 6 15 3 0 12
-7 20 -15 20 -20 64 -20 64 0 0 17 20 44 33 45 4 0 7 -4 7 -9z m-320 -27 c0
-2 -12 -4 -26 -4 -14 0 -23 4 -20 9 6 8 46 4 46 -5z m390 -54 c0 -24 -6 -25
-26 -6 -19 20 -18 26 6 26 13 0 20 -7 20 -20z m70 -86 c0 -8 -4 -12 -10 -9 -5
3 -10 10 -10 16 0 5 5 9 10 9 6 0 10 -7 10 -16z m-390 -44 c0 -5 -4 -10 -10
-10 -5 0 -10 5 -10 10 0 6 5 10 10 10 6 0 10 -4 10 -10z m420 -45 c0 -8 -4
-15 -9 -15 -13 0 -22 16 -14 24 11 11 23 6 23 -9z m0 -85 c0 -16 -4 -30 -9
-30 -10 0 -22 40 -15 52 11 18 24 6 24 -22z m-20 -60 c0 -5 -7 -10 -15 -10 -8
0 -15 5 -15 10 0 6 7 10 15 10 8 0 15 -4 15 -10z m-5 -140 c-3 -5 -10 -10 -16
-10 -5 0 -9 5 -9 10 0 6 7 10 16 10 8 0 12 -4 9 -10z"/>
<path d="M7635 7540 c-3 -5 3 -10 14 -10 12 0 21 5 21 10 0 6 -6 10 -14 10 -8
0 -18 -4 -21 -10z"/>
<path d="M10845 7541 c-6 -11 9 -23 19 -14 9 9 7 23 -3 23 -6 0 -12 -4 -16 -9z"/>
<path d="M10940 7535 c0 -8 5 -15 10 -15 6 0 10 7 10 15 0 8 -4 15 -10 15 -5
0 -10 -7 -10 -15z"/>
<path d="M11335 7540 c-4 -6 5 -10 19 -10 14 0 26 5 26 10 0 6 -9 10 -19 10
-11 0 -23 -4 -26 -10z"/>
<path d="M11290 7456 c0 -9 5 -16 10 -16 6 0 10 -12 10 -26 0 -21 4 -25 23
-22 18 2 22 9 22 38 0 32 -3 35 -32 38 -25 2 -33 -1 -33 -12z"/>
<path d="M11170 7445 c0 -8 5 -15 10 -15 6 0 10 7 10 15 0 8 -4 15 -10 15 -5
0 -10 -7 -10 -15z"/>
<path d="M10948 7443 c6 -2 18 -2 25 0 6 3 1 5 -13 5 -14 0 -19 -2 -12 -5z"/>
<path d="M10992 7370 c0 -19 2 -27 5 -17 2 9 2 25 0 35 -3 9 -5 1 -5 -18z"/>
<path d="M10820 7360 c0 -11 5 -20 10 -20 6 0 10 9 10 20 0 11 -4 20 -10 20
-5 0 -10 -9 -10 -20z"/>
<path d="M10890 7350 c0 -11 2 -20 4 -20 2 0 11 -3 20 -6 13 -5 13 -2 3 20
-14 31 -27 34 -27 6z"/>
<path d="M11310 7340 c0 -11 5 -20 10 -20 6 0 10 9 10 20 0 11 -4 20 -10 20
-5 0 -10 -9 -10 -20z"/>
<path d="M11150 7330 c0 -5 5 -10 10 -10 6 0 10 5 10 10 0 6 -4 10 -10 10 -5
0 -10 -4 -10 -10z"/>
<path d="M10730 7255 c0 -8 5 -15 10 -15 6 0 10 7 10 15 0 8 -4 15 -10 15 -5
0 -10 -7 -10 -15z"/>
<path d="M10960 7245 c0 -14 5 -25 10 -25 6 0 10 11 10 25 0 14 -4 25 -10 25
-5 0 -10 -11 -10 -25z"/>
<path d="M10883 7253 c-21 -8 -16 -53 6 -53 21 0 33 22 25 45 -6 16 -11 17
-31 8z"/>
<path d="M11470 7210 c0 -16 5 -30 10 -30 6 0 10 5 10 10 0 6 11 10 25 10 18
0 25 5 25 20 0 22 -16 27 -23 8 -4 -10 -7 -10 -18 0 -21 19 -29 14 -29 -18z"/>
<path d="M11590 7224 c0 -15 23 -44 34 -44 3 0 6 14 6 30 0 23 -4 30 -20 30
-12 0 -20 -7 -20 -16z"/>
<path d="M10750 7190 c0 -5 5 -10 10 -10 6 0 10 5 10 10 0 6 -4 10 -10 10 -5
0 -10 -4 -10 -10z"/>
<path d="M11150 7190 c0 -5 5 -10 10 -10 6 0 10 5 10 10 0 6 -4 10 -10 10 -5
0 -10 -4 -10 -10z"/>
<path d="M4490 7160 c0 -5 5 -10 10 -10 6 0 10 5 10 10 0 6 -4 10 -10 10 -5 0
-10 -4 -10 -10z"/>
<path d="M11727 7153 c-12 -11 -8 -23 8 -23 8 0 15 7 15 15 0 16 -12 20 -23 8z"/>
<path d="M11450 7140 c0 -5 5 -10 10 -10 6 0 10 5 10 10 0 6 -4 10 -10 10 -5
0 -10 -4 -10 -10z"/>
<path d="M10780 7120 c0 -6 7 -10 15 -10 8 0 15 2 15 4 0 2 -7 6 -15 10 -8 3
-15 1 -15 -4z"/>
<path d="M12068 7109 c-18 -19 -14 -29 14 -29 18 0 23 17 10 36 -4 6 -13 4
-24 -7z"/>
<path d="M11908 7083 c-19 -5 -25 -43 -8 -43 6 0 10 -7 10 -15 0 -8 -9 -15
-20 -15 -11 0 -20 -4 -20 -10 0 -5 9 -10 20 -10 11 0 20 -7 20 -15 0 -9 9 -15
25 -15 15 0 25 6 25 14 0 8 6 17 13 20 10 5 10 7 0 12 -23 10 -15 43 12 50 14
3 25 10 25 14 0 16 -62 24 -102 13z"/>
<path d="M11610 7070 c0 -5 5 -10 10 -10 6 0 10 5 10 10 0 6 -4 10 -10 10 -5
0 -10 -4 -10 -10z"/>
<path d="M11730 7070 c0 -5 5 -10 10 -10 6 0 10 5 10 10 0 6 -4 10 -10 10 -5
0 -10 -4 -10 -10z"/>
<path d="M11792 7045 c-8 -10 -31 -15 -62 -15 -43 0 -50 -3 -50 -20 0 -15 7
-20 25 -20 16 0 25 6 25 15 0 22 33 18 54 -6 15 -18 15 -23 5 -30 -8 -5 -17
-9 -22 -9 -4 0 -21 -13 -37 -29 -31 -29 -40 -61 -17 -61 20 0 57 35 57 54 0
12 9 16 35 16 19 0 35 5 35 10 0 6 -4 10 -10 10 -5 0 -10 11 -10 25 0 14 5 25
10 25 6 0 10 11 10 25 0 28 -27 34 -48 10z"/>
<path d="M12660 6995 c0 -25 2 -45 4 -45 2 0 11 -3 20 -6 12 -5 16 0 16 20 0
14 -4 26 -10 26 -5 0 -10 11 -10 25 0 14 -4 25 -10 25 -5 0 -10 -20 -10 -45z"/>
<path d="M12075 7020 c3 -5 10 -10 16 -10 5 0 9 5 9 10 0 6 -7 10 -16 10 -8 0
-12 -4 -9 -10z"/>
<path d="M11310 6979 c0 -6 7 -18 16 -26 13 -14 17 -14 25 -2 15 25 10 39 -16
39 -14 0 -25 -5 -25 -11z"/>
<path d="M12500 6971 c-13 -26 -13 -31 5 -31 8 0 15 7 15 15 0 8 9 15 20 15
11 0 20 5 20 10 0 18 -49 11 -60 -9z"/>
<path d="M12100 6940 c0 -11 5 -20 10 -20 6 0 10 9 10 20 0 11 -4 20 -10 20
-5 0 -10 -9 -10 -20z"/>
<path d="M12615 6941 c-3 -11 -11 -21 -16 -21 -5 0 -9 -4 -9 -10 0 -5 11 -10
25 -10 26 0 33 22 16 49 -7 11 -10 9 -16 -8z"/>
<path d="M12531 6924 c-18 -21 -6 -30 14 -11 8 9 15 18 15 21 0 11 -15 5 -29
-10z"/>
<path d="M11960 6910 c0 -17 -56 -70 -74 -70 -9 0 -19 7 -22 15 -7 17 -84 22
-84 5 0 -5 16 -10 35 -10 19 0 35 -4 35 -10 0 -5 9 -10 20 -10 12 0 20 -7 20
-16 0 -12 5 -14 18 -9 9 4 30 10 45 13 32 5 64 58 54 86 -7 17 -47 22 -47 6z"/>
<path d="M12660 6895 c0 -14 5 -25 10 -25 6 0 10 11 10 25 0 14 -4 25 -10 25
-5 0 -10 -11 -10 -25z"/>
<path d="M12093 6893 c-7 -2 -13 -13 -13 -24 0 -14 7 -19 25 -19 14 0 28 0 32
-1 15 -1 13 19 -2 35 -17 17 -22 18 -42 9z"/>
<path d="M10800 6868 c0 -19 2 -20 10 -8 13 19 13 30 0 30 -5 0 -10 -10 -10
-22z"/>
<path d="M11610 6850 c0 -15 7 -20 25 -20 18 0 25 5 25 20 0 15 -7 20 -25 20
-18 0 -25 -5 -25 -20z"/>
<path d="M12506 6850 c-11 -12 -16 -26 -12 -37 6 -15 10 -14 30 10 13 15 33
27 45 27 11 0 21 5 21 10 0 17 -64 10 -84 -10z"/>
<path d="M11707 6843 c-11 -11 -8 -43 4 -43 7 0 20 -9 29 -20 16 -18 21 -19
46 -8 40 17 40 16 18 33 -22 17 -54 20 -54 5 0 -5 -4 -10 -10 -10 -5 0 -10 11
-10 25 0 24 -10 32 -23 18z"/>
<path d="M12635 6840 c-3 -5 -1 -10 4 -10 6 0 11 5 11 10 0 6 -2 10 -4 10 -3
0 -8 -4 -11 -10z"/>
<path d="M11010 6820 c6 -11 20 -20 30 -20 11 0 20 -4 20 -10 0 -15 30 -12 47
5 19 20 15 24 -34 36 -63 14 -75 12 -63 -11z"/>
<path d="M11444 6824 c-16 -7 -5 -44 12 -44 8 0 14 10 14 25 0 25 -4 28 -26
19z"/>
<path d="M12610 6810 c0 -5 5 -10 10 -10 6 0 10 5 10 10 0 6 -4 10 -10 10 -5
0 -10 -4 -10 -10z"/>
<path d="M12115 6770 c-18 -7 -17 -8 8 -15 16 -4 33 -3 38 2 14 14 -20 22 -46
13z"/>
<path d="M12530 6770 c-8 -5 -12 -12 -9 -15 8 -8 39 5 39 16 0 11 -11 11 -30
-1z"/>
<path d="M12575 6748 c-10 -18 -27 -40 -37 -49 -16 -15 -26 -59 -12 -59 10 0
31 26 38 48 4 12 12 22 17 22 5 0 9 11 9 25 0 14 5 25 10 25 6 0 10 5 10 10 0
20 -16 9 -35 -22z"/>
<path d="M11640 6722 c0 -7 -7 -12 -15 -12 -9 0 -15 -9 -15 -25 0 -36 27 -31
35 6 4 17 4 33 1 36 -3 4 -6 1 -6 -5z"/>
<path d="M12290 6695 c0 -19 5 -35 10 -35 6 0 10 16 10 35 0 19 -4 35 -10 35
-5 0 -10 -16 -10 -35z"/>
<path d="M11520 6699 c0 -16 30 -43 38 -34 4 4 1 10 -5 12 -7 3 -13 11 -13 19
0 8 -4 14 -10 14 -5 0 -10 -5 -10 -11z"/>
<path d="M11903 6697 c-7 -7 -19 -18 -28 -25 -25 -21 -17 -32 25 -32 36 0 40
-2 40 -25 0 -20 -5 -25 -25 -25 -23 0 -25 -4 -25 -45 0 -25 5 -45 10 -45 6 0
10 -11 10 -25 0 -20 -5 -25 -25 -25 -14 0 -25 5 -25 10 0 6 -16 10 -35 10 -37
0 -41 -6 -24 -30 8 -11 12 -12 16 -2 8 21 23 13 23 -13 0 -23 4 -25 41 -25 36
0 40 -2 37 -22 -2 -14 -13 -25 -28 -29 -24 -7 -24 -7 -2 -8 12 -1 22 -7 22
-16 0 -8 4 -15 9 -15 13 0 20 25 14 49 -4 15 -1 21 11 21 9 0 16 5 16 10 0 6
-4 10 -10 10 -5 0 -10 11 -10 25 0 14 5 25 10 25 6 0 10 11 10 25 0 14 2 25 5
25 13 0 45 -37 45 -52 0 -10 5 -18 10 -18 6 0 10 16 10 36 0 36 0 37 35 31 32
-5 35 -4 35 19 0 17 -5 24 -20 24 -11 0 -20 -4 -20 -10 0 -15 -70 -12 -86 4
-16 16 -19 56 -5 56 5 0 11 10 13 23 2 14 11 23 26 25 17 3 22 10 22 32 0 16
-7 30 -16 34 -25 10 -34 7 -34 -9 0 -8 -9 -15 -19 -15 -10 0 -21 7 -25 15 -6
18 -17 19 -33 2z"/>
<path d="M12100 6675 c0 -33 2 -35 35 -35 28 0 35 4 35 20 0 11 -4 20 -10 20
-5 0 -10 7 -10 15 0 9 -9 15 -25 15 -22 0 -25 -4 -25 -35z"/>
<path d="M12226 6694 c-23 -22 -20 -34 9 -34 20 0 25 5 25 25 0 29 -12 32 -34
9z"/>
<path d="M11730 6674 c0 -31 24 -57 48 -51 14 4 14 6 -5 12 -17 5 -23 15 -23
36 0 16 -4 29 -10 29 -5 0 -10 -12 -10 -26z"/>
<path d="M4050 6670 c0 -5 9 -10 20 -10 11 0 20 5 20 10 0 6 -9 10 -20 10 -11
0 -20 -4 -20 -10z"/>
<path d="M11680 6630 c0 -5 5 -10 10 -10 6 0 10 5 10 10 0 6 -4 10 -10 10 -5
0 -10 -4 -10 -10z"/>
<path d="M12260 6600 c0 -5 5 -10 10 -10 6 0 10 5 10 10 0 6 -4 10 -10 10 -5
0 -10 -4 -10 -10z"/>
<path d="M10570 6584 c0 -13 21 -44 30 -44 6 0 10 11 10 25 0 18 -5 25 -20 25
-11 0 -20 -3 -20 -6z"/>
<path d="M11730 6565 c0 -14 5 -25 10 -25 19 0 10 -38 -11 -43 -18 -5 -20 -10
-14 -54 6 -43 6 -46 -7 -30 -16 21 -69 20 -76 0 -2 -9 8 -13 32 -13 20 0 36
-4 36 -10 0 -14 27 -12 34 3 5 10 7 10 12 0 7 -15 44 -17 44 -3 0 6 -9 10 -20
10 -16 0 -20 7 -20 35 0 24 5 35 15 35 12 0 13 9 8 47 -8 63 -43 101 -43 48z"/>
<path d="M12200 6580 c0 -5 9 -10 20 -10 11 0 20 5 20 10 0 6 -9 10 -20 10
-11 0 -20 -4 -20 -10z"/>
<path d="M12470 6580 c0 -5 5 -10 10 -10 6 0 10 5 10 10 0 6 -4 10 -10 10 -5
0 -10 -4 -10 -10z"/>
<path d="M12281 6524 c-12 -14 -12 -17 0 -25 23 -14 29 -11 29 16 0 29 -9 31
-29 9z"/>
<path d="M11450 6510 c0 -5 5 -10 10 -10 6 0 10 5 10 10 0 6 -4 10 -10 10 -5
0 -10 -4 -10 -10z"/>
<path d="M12133 6455 c-7 -8 -13 -22 -13 -32 0 -21 20 -55 20 -35 0 6 7 12 15
12 9 0 15 9 15 25 0 14 5 25 10 25 6 0 10 5 10 10 0 15 -43 11 -57 -5z"/>
<path d="M11400 6415 c0 -19 5 -35 10 -35 6 0 10 5 10 10 0 6 6 10 13 10 6 0
18 4 26 9 12 8 12 12 -2 25 -8 9 -25 16 -36 16 -17 0 -21 -6 -21 -35z"/>
<path d="M12230 6420 c-12 -8 -11 -10 8 -10 12 0 22 5 22 10 0 13 -11 13 -30
0z"/>
<path d="M12350 6395 c0 -8 -4 -15 -10 -15 -12 0 -13 -37 -1 -44 5 -3 12 5 15
19 4 14 11 25 16 25 6 0 10 7 10 15 0 8 -7 15 -15 15 -8 0 -15 -7 -15 -15z"/>
<path d="M12010 6390 c0 -5 5 -10 10 -10 6 0 10 5 10 10 0 6 -4 10 -10 10 -5
0 -10 -4 -10 -10z"/>
<path d="M12253 6353 c-7 -2 -13 -13 -13 -24 0 -26 41 -25 58 1 7 11 8 20 3
20 -5 0 -15 2 -23 4 -7 3 -19 2 -25 -1z"/>
<path d="M11960 6325 c0 -3 9 -15 19 -26 20 -22 35 -12 25 15 -6 14 -44 24
-44 11z"/>
<path d="M12310 6300 c0 -5 5 -10 10 -10 6 0 10 5 10 10 0 6 -4 10 -10 10 -5
0 -10 -4 -10 -10z"/>
<path d="M10094 6253 c-29 -31 -21 -43 24 -36 32 5 38 16 26 47 -9 23 -21 20
-50 -11z"/>
<path d="M11730 6230 c0 -5 9 -10 20 -10 11 0 20 5 20 10 0 6 -9 10 -20 10
-11 0 -20 -4 -20 -10z"/>
<path d="M11910 6230 c0 -5 11 -10 25 -10 14 0 25 5 25 10 0 6 -11 10 -25 10
-14 0 -25 -4 -25 -10z"/>
<path d="M10520 6200 c0 -13 11 -13 30 0 12 8 11 10 -7 10 -13 0 -23 -4 -23
-10z"/>
<path d="M8350 6183 c0 -5 5 -15 10 -23 8 -12 10 -11 10 8 0 12 -4 22 -10 22
-5 0 -10 -3 -10 -7z"/>
<path d="M11730 6155 c0 -28 4 -35 20 -35 24 0 27 34 6 56 -22 21 -26 18 -26
-21z"/>
<path d="M11952 6174 c-11 -12 -10 -17 2 -30 14 -14 18 -14 31 0 8 8 15 22 15
30 0 20 -31 20 -48 0z"/>
<path d="M11620 6160 l-35 -7 37 -2 c20 0 43 -8 52 -16 20 -21 26 -19 26 10 0
27 -12 29 -80 15z"/>
<path d="M12215 6160 c-3 -5 1 -10 9 -10 9 0 16 5 16 10 0 6 -4 10 -9 10 -6 0
-13 -4 -16 -10z"/>
<path d="M13827 6130 c-6 -16 -15 -30 -19 -30 -4 0 -8 -9 -8 -20 0 -11 5 -20
10 -20 6 0 10 -5 10 -11 0 -7 8 -18 18 -25 15 -12 15 -13 1 -14 -22 0 -59 -34
-59 -53 0 -21 48 -34 69 -18 9 6 24 14 34 17 9 4 17 11 17 18 0 6 5 3 11 -7
15 -26 -22 -61 -59 -54 -37 7 -52 -1 -52 -29 0 -19 -5 -24 -25 -24 -21 0 -25
-5 -25 -30 0 -30 24 -43 32 -18 3 9 9 8 22 -5 10 -9 13 -17 7 -17 -20 0 -11
-32 15 -52 14 -11 23 -27 20 -34 -8 -22 4 -44 25 -44 10 0 19 4 19 9 0 6 23 9
50 9 28 -1 50 -5 50 -10 0 -4 -7 -8 -15 -8 -8 0 -15 -5 -15 -10 0 -6 -9 -20
-20 -32 -19 -21 -19 -21 0 -38 21 -18 28 -70 10 -70 -5 0 -10 -20 -10 -45 0
-25 -4 -45 -10 -45 -5 0 -10 -9 -10 -20 0 -13 7 -20 20 -20 11 0 20 5 20 10 0
21 18 9 25 -17 4 -16 10 -22 12 -15 3 6 11 12 19 12 10 0 14 14 14 50 l0 50
-35 0 c-38 0 -45 15 -18 35 19 14 53 0 53 -22 0 -6 6 -13 13 -16 19 -6 15
-150 -5 -171 -18 -17 -38 -21 -38 -7 0 15 -30 21 -71 15 -28 -5 -39 -11 -39
-24 0 -10 -6 -20 -14 -23 -19 -8 -96 4 -96 14 0 5 -7 9 -15 9 -11 0 -15 -13
-15 -54 0 -59 14 -82 24 -41 4 16 13 25 25 25 11 0 21 5 23 11 2 6 17 12 33
12 16 0 31 -6 33 -12 2 -6 11 -11 19 -11 10 0 13 -6 9 -16 -3 -9 -6 -20 -6
-25 0 -5 -16 -9 -35 -9 -19 0 -35 -4 -35 -10 0 -5 7 -10 15 -10 8 0 15 -4 15
-10 0 -20 33 -9 57 18 22 25 25 26 37 10 7 -10 25 -18 40 -18 14 0 26 -4 26
-10 0 -5 20 -10 45 -10 33 0 45 -4 45 -15 0 -8 -9 -15 -20 -15 -11 0 -20 -4
-20 -10 0 -5 9 -10 20 -10 11 0 20 5 20 10 0 6 11 10 24 10 13 0 26 5 28 12 6
18 68 -13 68 -34 0 -15 -10 -18 -67 -18 -81 0 -104 -10 -80 -34 8 -9 29 -16
46 -16 26 0 31 -4 31 -25 0 -29 -7 -31 -32 -8 -14 13 -23 14 -40 5 -13 -6 -17
-11 -10 -11 14 -1 17 -31 2 -31 -5 0 -10 -4 -10 -10 0 -5 16 -10 35 -10 19 0
35 5 35 10 0 6 5 10 10 10 6 0 10 -7 10 -16 0 -21 59 -9 81 17 20 23 26 23 45
5 25 -26 17 -39 -21 -33 -32 5 -35 4 -35 -19 0 -27 -34 -35 -44 -9 -11 29 -26
15 -26 -25 0 -22 -4 -40 -10 -40 -15 0 -12 -47 3 -53 10 -4 10 -6 0 -6 -22 -2
-14 -31 7 -31 11 0 20 -4 20 -10 0 -5 -4 -10 -10 -10 -5 0 -10 -11 -10 -23 0
-17 10 -29 35 -43 20 -10 35 -26 35 -36 0 -20 38 -33 69 -23 18 5 21 2 21 -19
0 -23 -4 -26 -34 -26 -19 0 -41 6 -48 13 -8 8 -29 12 -55 9 -34 -3 -43 -8 -43
-23 0 -10 5 -19 10 -19 6 0 10 -7 10 -15 0 -8 8 -15 18 -15 9 0 25 -7 36 -15
18 -13 17 -16 -18 -49 -35 -33 -36 -35 -20 -54 20 -24 54 -18 54 9 0 11 7 19
15 19 8 0 15 5 15 10 0 6 14 10 30 10 17 0 30 5 30 10 0 6 7 10 15 10 11 0 15
-12 15 -45 0 -41 -2 -45 -25 -45 -18 0 -25 -5 -25 -20 0 -11 5 -20 10 -20 6 0
10 7 10 15 0 17 16 20 25 4 9 -14 -24 -49 -47 -49 -13 0 -18 7 -18 25 0 23 -3
25 -50 25 -47 0 -50 -2 -50 -25 0 -16 -6 -25 -16 -25 -14 0 -44 -22 -44 -34 0
-2 15 -6 33 -8 26 -2 32 -7 30 -25 -2 -15 3 -23 12 -23 8 0 15 -4 15 -10 0 -5
15 -13 32 -18 34 -9 52 -42 24 -42 -9 0 -16 5 -16 10 0 6 -11 10 -25 10 -22 0
-24 -3 -18 -32 3 -18 10 -34 15 -36 4 -2 8 -24 8 -48 0 -45 13 -56 34 -30 14
18 56 31 56 17 0 -6 -4 -11 -10 -11 -5 0 -10 -4 -10 -10 0 -5 6 -10 14 -10 8
0 16 -5 18 -10 2 -6 27 -11 56 -11 37 -1 52 -6 52 -15 0 -9 -12 -14 -35 -14
-19 0 -35 -4 -35 -10 0 -5 -16 -10 -35 -10 -28 0 -35 4 -35 20 0 11 -4 20 -10
20 -5 0 -10 -9 -10 -20 0 -11 -5 -20 -11 -20 -18 0 -46 -33 -31 -38 14 -4 16
-32 2 -32 -5 0 -10 -9 -10 -20 0 -11 5 -20 10 -20 6 0 10 9 10 20 0 15 7 20
25 20 14 0 25 6 25 13 0 31 88 49 97 21 2 -7 -4 -20 -14 -30 -13 -12 -14 -19
-5 -22 6 -2 12 -10 12 -18 0 -8 7 -14 15 -14 32 0 11 -34 -27 -44 -25 -6 -28
-4 -28 18 0 15 -8 30 -19 36 -27 14 -31 13 -31 -10 0 -11 -4 -20 -10 -20 -5 0
-10 -9 -10 -20 0 -11 5 -20 10 -20 6 0 10 9 10 20 0 11 2 20 5 20 12 0 45 -36
45 -50 0 -9 9 -22 20 -30 21 -15 27 -40 10 -40 -5 0 -10 -16 -10 -35 0 -19 5
-35 10 -35 6 0 10 11 10 25 0 14 4 25 9 25 12 0 21 -39 10 -46 -12 -7 -11 -44
1 -44 6 0 10 -7 10 -15 0 -8 5 -15 10 -15 6 0 10 -9 10 -20 0 -11 4 -20 10
-20 5 0 12 -11 16 -25 3 -14 10 -25 15 -25 5 0 9 -5 9 -10 0 -6 10 -22 23 -35
37 -40 47 -54 47 -65 0 -5 5 -10 10 -10 6 0 10 -7 10 -15 0 -9 9 -25 19 -37
l20 -21 5 24 c3 13 8 51 10 85 3 33 7 67 10 75 11 33 16 219 5 219 -9 0 -7 16
8 58 3 6 -2 12 -11 12 -9 0 -16 5 -16 10 0 6 6 10 14 10 8 0 17 7 20 16 9 24
7 54 -4 54 -14 0 -12 48 2 52 9 3 9 13 1 39 l-11 34 -1 -37 c-1 -44 -4 -45
-31 -18 -24 24 -26 50 -4 50 13 0 15 9 12 47 -3 47 15 72 26 36 6 -22 -2 164
-10 225 -5 32 -11 42 -25 42 -23 0 -25 18 -4 26 16 6 21 60 7 80 -4 6 -31 11
-59 12 l-53 1 0 -35 c0 -19 5 -34 10 -34 6 0 10 -7 10 -15 0 -8 -4 -15 -10
-15 -5 0 -10 7 -10 15 0 8 -5 15 -11 15 -17 0 -39 27 -39 49 0 16 6 21 25 21
14 0 25 5 25 10 0 6 16 10 35 10 19 0 35 4 35 9 0 5 8 11 19 13 18 3 18 9 -10
143 -28 138 -100 403 -136 500 -11 31 -27 54 -41 60 -25 11 -29 25 -7 25 19 0
19 -1 -6 62 -20 51 -34 82 -121 271 l-41 87 -38 0 c-33 0 -39 3 -39 21 0 11 7
27 15 35 8 9 15 20 15 25 0 5 -7 12 -15 15 -8 4 -15 14 -15 23 0 13 -48 95
-144 244 -8 13 -19 16 -38 11 -25 -5 -28 -3 -28 19 0 14 5 27 12 29 11 4 -80
137 -94 138 -5 0 -8 -9 -8 -20 0 -13 7 -20 20 -20 15 0 20 -7 20 -25 0 -18 -5
-25 -20 -25 -15 0 -20 7 -20 25 0 14 -4 25 -9 25 -15 0 -23 63 -9 72 10 6 10
8 0 8 -8 0 -19 -13 -25 -30z m133 -252 c0 -9 -16 -13 -45 -13 -29 0 -45 4 -45
13 0 8 16 12 45 12 29 0 45 -4 45 -12z m90 -28 c0 -13 -11 -13 -30 0 -12 8
-11 10 8 10 12 0 22 -4 22 -10z m-90 -57 c0 -20 -5 -23 -43 -23 -30 0 -49 6
-60 18 -23 25 -14 31 49 29 49 -1 54 -3 54 -24z m-50 -68 c0 -29 -6 -31 -26
-11 -20 20 -17 36 6 36 15 0 20 -7 20 -25z m240 -35 c0 -5 -11 -10 -25 -10
-14 0 -25 5 -25 10 0 6 11 10 25 10 14 0 25 -4 25 -10z m-66 -46 c9 -3 16 -17
16 -30 0 -13 5 -24 10 -24 6 0 10 -7 10 -15 0 -26 -37 -17 -44 10 -6 25 -46
37 -46 14 0 -16 -29 -41 -40 -34 -13 8 -13 27 0 59 8 21 16 26 44 26 19 0 41
-3 50 -6z m64 -191 c2 -8 -6 -13 -22 -13 -17 0 -26 5 -26 16 0 19 41 16 48 -3z
m137 7 c3 -6 -1 -17 -9 -26 -9 -8 -16 -19 -16 -24 0 -12 -32 -22 -41 -13 -4 4
-10 23 -14 41 -7 32 -6 32 34 32 22 0 43 -5 46 -10z m-115 -65 c0 -14 -4 -25
-10 -25 -5 0 -10 11 -10 25 0 14 5 25 10 25 6 0 10 -11 10 -25z m-39 -36 c9
-17 8 -24 -6 -38 -13 -12 -19 -13 -22 -3 -3 6 -11 12 -19 12 -18 0 -18 15 2
34 21 21 31 20 45 -5z m179 -19 c0 -5 -9 -10 -20 -10 -11 0 -20 5 -20 10 0 6
9 10 20 10 11 0 20 -4 20 -10z m-280 -121 c0 -40 -35 -41 -43 -2 -7 35 -2 42
23 36 14 -4 20 -14 20 -34z m95 -39 c23 -5 26 -8 13 -14 -24 -11 -81 -3 -86
12 -4 13 24 14 73 2z m185 -10 c0 -5 -4 -10 -9 -10 -5 0 -13 -9 -16 -20 -3
-11 -11 -20 -16 -20 -13 0 -11 34 3 48 15 15 38 16 38 2z m-70 -180 c0 -5 -11
-10 -25 -10 -14 0 -25 5 -25 10 0 6 11 10 25 10 14 0 25 -4 25 -10z m180 -31
c0 -19 -21 -49 -34 -49 -3 0 -6 16 -6 35 0 28 4 35 20 35 14 0 20 -7 20 -21z
m50 -79 c0 -16 -4 -30 -10 -30 -5 0 -10 14 -10 30 0 17 5 30 10 30 6 0 10 -13
10 -30z m-188 -60 c-5 -24 10 -50 29 -50 14 0 19 -7 19 -25 0 -14 -4 -25 -10
-25 -5 0 -10 5 -10 10 0 6 -10 10 -22 10 -13 0 -29 4 -36 9 -11 6 -10 10 3 15
14 5 16 14 10 42 -5 28 -3 35 7 31 7 -2 12 -10 10 -17z m238 -40 c0 -5 -4 -10
-10 -10 -5 0 -10 5 -10 10 0 6 5 10 10 10 6 0 10 -4 10 -10z m-140 -44 c0 -23
3 -24 35 -19 29 5 35 3 35 -12 0 -15 -6 -17 -35 -12 -32 5 -35 4 -35 -19 0
-17 -6 -24 -19 -24 -26 0 -39 40 -17 52 9 5 16 20 16 33 0 14 5 25 10 25 6 0
10 -11 10 -24z m-102 -78 c-33 -33 -38 -34 -38 -8 0 11 4 20 9 20 5 0 12 11
15 25 6 23 7 24 24 7 16 -16 16 -18 -10 -44z m146 -54 c3 -9 2 -23 -3 -31 -7
-14 -10 -12 -16 8 -4 13 -13 27 -19 31 -6 5 -2 8 10 8 12 0 25 -7 28 -16z
m116 -4 c0 -11 -4 -20 -10 -20 -5 0 -10 9 -10 20 0 11 5 20 10 20 6 0 10 -9
10 -20z m50 -50 c0 -5 -11 -10 -25 -10 -14 0 -25 5 -25 10 0 6 11 10 25 10 14
0 25 -4 25 -10z m-136 -12 c5 -10 7 -10 12 0 7 14 54 16 54 2 0 -5 -9 -10 -21
-10 -11 0 -27 -7 -35 -15 -22 -22 -34 -18 -34 10 0 26 14 34 24 13z m-104 -38
c0 -24 -25 -60 -42 -60 -14 0 -18 8 -18 35 0 32 2 35 30 35 17 0 30 -4 30 -10z
m116 -65 c13 -14 28 -25 34 -25 6 0 8 -5 4 -11 -3 -6 -17 -8 -30 -5 -17 5 -24
2 -24 -8 0 -14 -34 -28 -44 -18 -12 11 -5 42 9 42 9 0 15 9 15 25 0 14 3 25 6
25 4 0 17 -11 30 -25z m74 15 c0 -5 -4 -10 -10 -10 -5 0 -10 5 -10 10 0 6 5
10 10 10 6 0 10 -4 10 -10z m-90 -165 c0 -10 -8 -14 -22 -12 -32 5 -35 27 -4
27 16 0 26 -6 26 -15z m-126 -40 c8 -8 24 -15 35 -15 16 0 21 -6 21 -25 0 -19
-5 -25 -21 -25 -22 0 -49 22 -49 39 0 6 -4 11 -10 11 -5 0 -10 7 -10 15 0 8 4
15 9 15 5 0 16 -7 25 -15z m-87 -31 c-3 -3 -12 -4 -19 -1 -8 3 -5 6 6 6 11 1
17 -2 13 -5z m353 -34 c0 -11 -7 -20 -15 -20 -8 0 -15 2 -15 4 0 2 -3 11 -6
20 -4 12 0 16 15 16 14 0 21 -6 21 -20z m-90 -11 c0 -5 -7 -9 -15 -9 -15 0
-20 12 -9 23 8 8 24 -1 24 -14z m-170 -24 c0 -9 9 -15 25 -15 14 0 25 -4 25
-10 0 -5 6 -10 13 -10 11 0 14 -32 8 -107 -1 -7 -10 -13 -21 -13 -14 0 -21 9
-26 35 -3 19 -10 38 -15 41 -5 3 -9 18 -9 35 0 16 -4 29 -10 29 -5 0 -10 7
-10 15 0 8 5 15 10 15 6 0 10 -7 10 -15z m300 0 c0 -8 -4 -15 -10 -15 -5 0
-10 7 -10 15 0 8 5 15 10 15 6 0 10 -7 10 -15z m-90 -45 c0 -5 -9 -10 -20 -10
-11 0 -20 5 -20 10 0 6 9 10 20 10 11 0 20 -4 20 -10z m21 -40 c5 0 9 -9 9
-20 0 -15 -7 -20 -25 -20 -20 0 -25 5 -25 26 0 20 4 25 16 20 9 -3 20 -6 25
-6z m99 -30 c0 -5 -11 -10 -25 -10 -14 0 -25 5 -25 10 0 6 11 10 25 10 14 0
25 -4 25 -10z m-154 -24 c16 -17 19 -66 4 -66 -5 0 -10 7 -10 15 0 8 -7 15
-15 15 -9 0 -15 9 -15 25 0 28 14 32 36 11z m14 -120 c0 -11 9 -13 35 -9 34 5
48 -8 25 -22 -5 -3 -10 -15 -10 -26 0 -14 -7 -19 -25 -19 -18 0 -25 5 -25 19
0 10 -7 21 -15 25 -8 3 -15 15 -15 26 0 11 7 20 15 20 8 0 15 -6 15 -14z m-50
-21 c0 -16 -35 -21 -44 -6 -8 12 4 21 26 21 10 0 18 -7 18 -15z m50 -95 c0 -5
-5 -10 -11 -10 -12 0 -8 -40 6 -72 4 -11 3 -18 -4 -18 -6 0 -11 9 -11 20 0 11
-7 20 -15 20 -10 0 -15 11 -15 35 0 31 3 35 25 35 14 0 25 -4 25 -10z m70 0
c0 -5 -11 -10 -25 -10 -14 0 -25 5 -25 10 0 6 11 10 25 10 14 0 25 -4 25 -10z
m-120 -130 c0 -11 -4 -20 -10 -20 -5 0 -10 9 -10 20 0 11 5 20 10 20 6 0 10
-9 10 -20z m25 -49 c8 -14 -10 -22 -30 -15 -13 5 -14 8 -3 15 17 11 26 11 33
0z m45 -6 c0 -8 -4 -15 -10 -15 -5 0 -10 7 -10 15 0 8 5 15 10 15 6 0 10 -7
10 -15z m-16 -51 c17 -7 22 -34 6 -34 -5 0 -10 6 -10 14 0 8 -6 17 -12 19 -7
3 -10 6 -6 6 3 1 13 -2 22 -5z m-24 -43 c40 -41 57 -100 33 -108 -8 -3 -13 5
-13 21 0 14 -4 26 -10 26 -5 0 -10 9 -10 21 0 22 -22 49 -39 49 -6 0 -11 7
-11 15 0 23 9 19 50 -24z"/>
<path d="M11878 6133 c6 -2 12 -11 12 -19 0 -8 5 -14 10 -14 6 0 10 9 10 20 0
14 -6 20 -22 19 -13 0 -17 -3 -10 -6z"/>
<path d="M12202 6120 c0 -14 2 -19 5 -12 2 6 2 18 0 25 -3 6 -5 1 -5 -13z"/>
<path d="M11940 6090 c0 -5 5 -10 10 -10 6 0 10 5 10 10 0 6 -4 10 -10 10 -5
0 -10 -4 -10 -10z"/>
<path d="M12170 6080 c0 -11 -4 -20 -10 -20 -5 0 -10 -7 -10 -15 0 -8 5 -15
10 -15 6 0 10 7 10 15 0 8 5 15 10 15 6 0 10 9 10 20 0 11 -4 20 -10 20 -5 0
-10 -9 -10 -20z"/>
<path d="M11730 6040 c0 -5 5 -10 10 -10 6 0 10 5 10 10 0 6 -4 10 -10 10 -5
0 -10 -4 -10 -10z"/>
<path d="M13764 6034 c3 -9 6 -18 6 -20 0 -2 7 -4 15 -4 8 0 15 9 15 20 0 14
-7 20 -21 20 -15 0 -19 -4 -15 -16z"/>
<path d="M11050 6010 c0 -11 4 -20 9 -20 13 0 32 26 24 33 -13 14 -33 6 -33
-13z"/>
<path d="M11960 6010 c0 -11 -4 -20 -10 -20 -5 0 -10 -14 -10 -31 0 -30 2 -31
30 -25 22 4 32 1 36 -9 11 -27 24 -16 24 20 0 31 -3 35 -25 35 -20 0 -25 5
-25 25 0 14 -4 25 -10 25 -5 0 -10 -9 -10 -20z"/>
<path d="M12100 6019 c0 -8 -13 -10 -37 -6 -21 3 -32 3 -25 0 6 -2 12 -16 12
-29 0 -13 5 -24 11 -24 14 0 39 25 39 39 0 15 17 14 23 -1 2 -7 8 -10 12 -6
12 11 -2 38 -20 38 -8 0 -15 -5 -15 -11z"/>
<path d="M13730 5965 c0 -8 -4 -15 -10 -15 -5 0 -10 -9 -10 -20 0 -11 -4 -20
-9 -20 -14 0 -25 -40 -14 -51 6 -6 17 6 28 31 10 22 22 40 27 40 4 0 8 11 8
25 0 14 -4 25 -10 25 -5 0 -10 -7 -10 -15z"/>
<path d="M12100 5950 c0 -5 5 -10 10 -10 6 0 10 5 10 10 0 6 -4 10 -10 10 -5
0 -10 -4 -10 -10z"/>
<path d="M12082 5910 c0 -14 2 -19 5 -12 2 6 2 18 0 25 -3 6 -5 1 -5 -13z"/>
<path d="M11960 5885 c0 -14 5 -25 10 -25 6 0 10 11 10 25 0 14 -4 25 -10 25
-5 0 -10 -11 -10 -25z"/>
<path d="M11730 5855 c0 -19 5 -35 10 -35 6 0 10 6 10 14 0 8 6 17 13 19 10 4
10 6 0 6 -7 1 -13 8 -13 16 0 8 -4 15 -10 15 -5 0 -10 -16 -10 -35z"/>
<path d="M11921 5854 c0 -11 3 -14 6 -6 3 7 2 16 -1 19 -3 4 -6 -2 -5 -13z"/>
<path d="M11240 5850 c0 -5 5 -10 10 -10 6 0 10 5 10 10 0 6 -4 10 -10 10 -5
0 -10 -4 -10 -10z"/>
<path d="M11840 5830 c0 -5 7 -10 15 -10 8 0 15 5 15 10 0 6 -7 10 -15 10 -8
0 -15 -4 -15 -10z"/>
<path d="M11960 5820 c0 -11 5 -20 10 -20 6 0 10 9 10 20 0 11 -4 20 -10 20
-5 0 -10 -9 -10 -20z"/>
<path d="M12030 5830 c0 -5 5 -10 10 -10 6 0 10 5 10 10 0 6 -4 10 -10 10 -5
0 -10 -4 -10 -10z"/>
<path d="M13660 5830 c0 -5 5 -10 10 -10 6 0 10 5 10 10 0 6 -4 10 -10 10 -5
0 -10 -4 -10 -10z"/>
<path d="M13710 5820 c0 -11 5 -20 10 -20 6 0 10 9 10 20 0 11 -4 20 -10 20
-5 0 -10 -9 -10 -20z"/>
<path d="M12004 5797 c-6 -7 -14 -25 -18 -40 -3 -15 -11 -27 -16 -27 -6 0 -10
-7 -10 -15 0 -8 5 -15 10 -15 6 0 10 7 10 15 0 8 5 15 10 15 6 0 10 9 10 20 0
11 7 20 15 20 8 0 15 9 15 20 0 23 -10 25 -26 7z"/>
<path d="M11680 5780 c0 -5 -9 -10 -20 -10 -18 0 -20 -6 -18 -57 1 -36 3 -45
5 -25 5 35 33 46 33 12 0 -11 5 -20 10 -20 6 0 10 13 10 28 0 15 5 33 11 39 9
9 8 16 -4 27 -18 18 -27 20 -27 6z"/>
<path d="M11940 5780 c0 -5 5 -10 10 -10 6 0 10 5 10 10 0 6 -4 10 -10 10 -5
0 -10 -4 -10 -10z"/>
<path d="M13730 5772 c0 -10 -6 -26 -14 -37 -8 -12 -10 -28 -6 -40 7 -19 7
-19 14 3 4 12 12 22 17 22 5 0 9 16 9 35 0 19 -4 35 -10 35 -5 0 -10 -8 -10
-18z"/>
<path d="M13603 5755 c-7 -8 -13 -18 -13 -24 0 -5 -6 -11 -12 -14 -7 -2 -10
-8 -6 -12 8 -9 38 18 38 34 0 6 5 11 10 11 6 0 10 5 10 10 0 14 -13 12 -27 -5z"/>
<path d="M13640 5698 c0 -19 2 -20 10 -8 13 19 13 30 0 30 -5 0 -10 -10 -10
-22z"/>
<path d="M13781 5682 c-1 -12 -8 -25 -17 -29 -13 -5 -13 -7 -2 -14 22 -14 58
-10 58 6 0 8 -4 15 -8 15 -5 0 -14 10 -20 23 l-11 22 0 -23z"/>
<path d="M11940 5660 c0 -11 5 -20 10 -20 6 0 10 9 10 20 0 11 -4 20 -10 20
-5 0 -10 -9 -10 -20z"/>
<path d="M13545 5669 c-10 -15 3 -25 16 -12 7 7 7 13 1 17 -6 3 -14 1 -17 -5z"/>
<path d="M7271 5634 c-7 -8 -10 -18 -6 -22 3 -3 9 -2 13 4 4 5 18 15 32 21
l25 12 -25 0 c-14 0 -31 -7 -39 -15z"/>
<path d="M13610 5640 c0 -5 5 -10 10 -10 6 0 10 5 10 10 0 6 -4 10 -10 10 -5
0 -10 -4 -10 -10z"/>
<path d="M11917 5616 c-4 -10 -5 -21 -2 -24 9 -9 17 6 13 25 -3 17 -4 17 -11
-1z"/>
<path d="M13520 5605 c0 -14 -4 -25 -10 -25 -5 0 -10 -9 -10 -20 0 -29 -21
-70 -37 -70 -7 0 -13 -4 -13 -10 0 -5 9 -10 20 -10 13 0 20 7 20 20 0 11 7 20
15 20 9 0 15 9 15 25 0 14 4 25 9 25 5 0 11 8 14 18 2 9 8 25 12 35 5 13 2 17
-14 17 -16 0 -21 -6 -21 -25z"/>
<path d="M13656 5615 c-6 -17 2 -45 14 -45 9 0 20 25 20 46 0 19 -26 18 -34
-1z"/>
<path d="M11890 5570 c0 -5 5 -10 10 -10 6 0 10 5 10 10 0 6 -4 10 -10 10 -5
0 -10 -4 -10 -10z"/>
<path d="M13756 5563 c-4 -13 -12 -23 -17 -23 -5 0 -9 -16 -9 -35 0 -19 5 -35
10 -35 6 0 10 15 10 34 0 19 5 36 11 38 6 2 9 13 7 23 -4 19 -5 18 -12 -2z"/>
<path d="M13800 5560 c0 -11 5 -20 10 -20 6 0 10 9 10 20 0 11 -4 20 -10 20
-5 0 -10 -9 -10 -20z"/>
<path d="M11800 5535 c0 -14 5 -25 10 -25 6 0 10 11 10 25 0 14 -4 25 -10 25
-5 0 -10 -11 -10 -25z"/>
<path d="M13590 5550 c0 -5 5 -10 10 -10 6 0 10 5 10 10 0 6 -4 10 -10 10 -5
0 -10 -4 -10 -10z"/>
<path d="M11680 5530 c0 -5 5 -10 10 -10 6 0 10 5 10 10 0 6 -4 10 -10 10 -5
0 -10 -4 -10 -10z"/>
<path d="M11870 5530 c0 -5 5 -10 10 -10 6 0 10 5 10 10 0 6 -4 10 -10 10 -5
0 -10 -4 -10 -10z"/>
<path d="M7162 5498 c-14 -14 -16 -28 -3 -28 9 0 24 30 18 36 -2 2 -9 -2 -15
-8z"/>
<path d="M7070 5482 c0 -4 -16 -16 -35 -26 -34 -19 -46 -36 -24 -36 6 0 17 6
24 13 33 29 45 37 55 37 5 0 10 5 10 10 0 6 -7 10 -15 10 -8 0 -15 -3 -15 -8z"/>
<path d="M13513 5475 c-16 -17 -17 -35 -3 -35 6 0 10 7 10 15 0 8 5 15 10 15
6 0 10 5 10 10 0 14 -13 12 -27 -5z"/>
<path d="M9680 5455 c0 -8 9 -15 20 -15 24 0 27 15 4 24 -22 9 -24 8 -24 -9z"/>
<path d="M11820 5460 c0 -5 5 -10 10 -10 6 0 10 5 10 10 0 6 -4 10 -10 10 -5
0 -10 -4 -10 -10z"/>
<path d="M11405 5450 c4 -6 11 -8 16 -5 14 9 11 15 -7 15 -8 0 -12 -5 -9 -10z"/>
<path d="M6960 5410 c0 -5 5 -10 10 -10 6 0 10 5 10 10 0 6 -4 10 -10 10 -5 0
-10 -4 -10 -10z"/>
<path d="M10113 5393 c-17 -7 -16 -31 2 -49 13 -14 17 -14 31 0 29 29 5 65
-33 49z"/>
<path d="M6901 5374 c-7 -8 -10 -18 -6 -22 3 -3 9 -2 13 4 4 6 16 16 27 22
l20 11 -20 0 c-11 0 -26 -7 -34 -15z"/>
<path d="M13380 5345 c0 -14 -4 -25 -10 -25 -14 0 -12 -38 3 -43 6 -2 8 -8 4
-13 -4 -5 -12 -2 -17 6 -11 19 -18 11 -26 -28 -6 -29 -4 -32 19 -32 14 0 28
-6 31 -12 5 -10 7 -10 12 0 3 6 12 12 20 12 19 0 18 36 -1 44 -11 4 -15 21
-15 61 0 30 -4 55 -10 55 -5 0 -10 -11 -10 -25z"/>
<path d="M11714 5325 c-3 -13 -4 -30 -1 -37 3 -8 6 -6 6 6 1 14 6 17 26 12 14
-4 25 -2 25 4 0 5 -4 10 -10 10 -5 0 -10 7 -10 15 0 25 -29 17 -36 -10z"/>
<path d="M10870 5305 c0 -18 5 -25 20 -25 15 0 20 7 20 25 0 18 -5 25 -20 25
-15 0 -20 -7 -20 -25z"/>
<path d="M13463 5323 c-7 -2 -13 -13 -13 -24 0 -14 7 -19 25 -19 27 0 34 -17
10 -26 -8 -4 -15 -15 -15 -25 0 -10 -4 -19 -10 -19 -5 0 -10 -16 -10 -35 0
-19 5 -35 10 -35 6 0 10 5 10 10 0 6 11 10 25 10 20 0 25 5 25 25 0 14 -4 25
-10 25 -5 0 -10 5 -10 10 0 6 11 10 24 10 14 0 27 4 30 9 9 14 -4 41 -20 41
-8 0 -14 10 -14 25 0 19 -5 25 -22 24 -13 0 -29 -3 -35 -6z"/>
<path d="M13590 5296 c0 -13 12 -16 65 -16 37 0 65 4 65 10 0 6 -22 10 -49 10
-27 0 -56 3 -65 6 -11 4 -16 1 -16 -10z"/>
<path d="M10420 5281 c0 -17 18 -31 41 -31 5 0 9 11 9 25 0 20 -5 25 -25 25
-18 0 -25 -5 -25 -19z"/>
<path d="M10566 5284 c-8 -20 -8 -19 22 -28 19 -6 22 -4 22 18 0 19 -5 26 -19
26 -10 0 -22 -7 -25 -16z"/>
<path d="M11750 5270 c0 -5 5 -10 10 -10 6 0 10 5 10 10 0 6 -4 10 -10 10 -5
0 -10 -4 -10 -10z"/>
<path d="M9730 5250 c0 -5 10 -10 23 -10 18 0 19 2 7 10 -19 13 -30 13 -30 0z"/>
<path d="M13610 5236 c0 -17 5 -26 16 -26 10 0 14 7 12 22 -5 32 -28 35 -28 4z"/>
<path d="M9470 5240 c0 -5 5 -10 10 -10 6 0 10 5 10 10 0 6 -4 10 -10 10 -5 0
-10 -4 -10 -10z"/>
<path d="M11680 5220 c0 -5 5 -10 10 -10 6 0 10 5 10 10 0 6 -4 10 -10 10 -5
0 -10 -4 -10 -10z"/>
<path d="M11540 5140 c0 -11 7 -20 15 -20 17 0 18 2 9 24 -9 23 -24 20 -24 -4z"/>
<path d="M13340 5150 c0 -5 5 -10 10 -10 6 0 10 5 10 10 0 6 -4 10 -10 10 -5
0 -10 -4 -10 -10z"/>
<path d="M13540 5150 c0 -5 -11 -10 -25 -10 -14 0 -25 -4 -25 -10 0 -5 11 -10
25 -10 14 0 25 5 25 10 0 6 11 10 25 10 14 0 25 -4 25 -10 0 -5 7 -10 16 -10
11 0 14 5 10 16 -3 9 -6 18 -6 20 0 2 -16 4 -35 4 -19 0 -35 -4 -35 -10z"/>
<path d="M8361 5104 c0 -11 3 -14 6 -6 3 7 2 16 -1 19 -3 4 -6 -2 -5 -13z"/>
<path d="M13920 5110 c0 -5 5 -10 10 -10 16 0 12 -47 -5 -54 -8 -3 -15 -15
-15 -26 0 -11 7 -20 15 -20 8 0 15 -4 15 -10 0 -5 5 -10 10 -10 6 0 10 9 10
20 0 15 7 20 25 20 22 0 25 -4 25 -36 0 -31 3 -35 22 -32 20 3 23 8 20 43 -4
46 -14 55 -59 55 -18 0 -33 5 -33 10 0 6 20 10 45 10 51 0 62 19 13 21 -18 1
-37 1 -41 0 -4 -1 -15 5 -23 14 -18 17 -34 20 -34 5z"/>
<path d="M11610 5080 c0 -5 5 -10 10 -10 6 0 10 5 10 10 0 6 -4 10 -10 10 -5
0 -10 -4 -10 -10z"/>
<path d="M13380 5080 c0 -5 5 -10 10 -10 6 0 10 5 10 10 0 6 -4 10 -10 10 -5
0 -10 -4 -10 -10z"/>
<path d="M13450 5080 c0 -5 5 -10 10 -10 6 0 10 5 10 10 0 6 -4 10 -10 10 -5
0 -10 -4 -10 -10z"/>
<path d="M14170 5080 c0 -5 9 -10 20 -10 11 0 20 5 20 10 0 6 -9 10 -20 10
-11 0 -20 -4 -20 -10z"/>
<path d="M8380 5060 c0 -5 5 -10 10 -10 6 0 10 -5 10 -11 0 -11 24 -39 34 -39
12 0 5 16 -18 43 -24 28 -36 34 -36 17z"/>
<path d="M13852 5050 c0 -14 2 -19 5 -12 2 6 2 18 0 25 -3 6 -5 1 -5 -13z"/>
<path d="M13497 5020 c3 -11 9 -20 14 -20 5 0 9 9 9 20 0 11 -6 20 -14 20 -9
0 -12 -7 -9 -20z"/>
<path d="M13660 4975 c0 -14 5 -25 10 -25 6 0 10 11 10 25 0 14 -4 25 -10 25
-5 0 -10 -11 -10 -25z"/>
<path d="M8450 4945 c0 -19 5 -35 10 -35 6 0 10 -11 10 -25 0 -14 5 -25 10
-25 6 0 10 -10 10 -22 0 -13 4 -29 9 -36 7 -11 10 -10 15 3 12 32 7 75 -9 75
-9 0 -15 9 -15 25 0 14 -4 25 -10 25 -5 0 -10 11 -10 25 0 14 -4 25 -10 25 -5
0 -10 -16 -10 -35z"/>
<path d="M9995 4969 c-10 -15 1 -23 20 -15 9 3 13 10 10 16 -8 13 -22 13 -30
-1z"/>
<path d="M13610 4920 c0 -5 5 -10 10 -10 6 0 10 5 10 10 0 6 -4 10 -10 10 -5
0 -10 -4 -10 -10z"/>
<path d="M13730 4920 c0 -5 -11 -10 -25 -10 -16 0 -25 -6 -25 -15 0 -16 46
-22 52 -6 2 5 16 11 33 13 22 2 30 -2 33 -16 2 -10 -2 -22 -10 -27 -10 -7 -10
-12 4 -26 14 -13 21 -14 30 -5 22 22 48 14 48 -13 0 -23 -4 -25 -45 -25 -39 0
-45 -3 -45 -21 0 -18 4 -20 43 -14 l43 7 2 -46 c2 -49 -2 -53 -32 -31 -25 19
-36 19 -36 0 0 -8 -8 -15 -18 -15 -26 0 -34 11 -19 28 9 12 9 16 0 19 -7 3
-13 16 -13 29 0 13 -4 24 -10 24 -15 0 -12 -48 3 -53 6 -2 9 -8 5 -12 -4 -4
-14 -2 -23 5 -10 8 -15 9 -15 1 0 -6 -11 -11 -25 -11 -31 0 -35 35 -5 43 12 3
20 14 20 27 0 17 -5 21 -27 20 -55 -4 -63 -1 -63 25 0 18 -5 25 -20 25 -11 0
-20 -7 -20 -15 0 -8 5 -15 10 -15 6 0 10 -7 10 -16 0 -9 11 -25 25 -36 14 -11
25 -28 25 -39 0 -10 5 -19 10 -19 6 0 10 -5 10 -10 0 -10 8 -22 38 -55 6 -7
12 -16 12 -20 0 -8 26 -35 34 -35 3 0 6 10 6 23 0 28 38 55 46 33 4 -10 15
-13 40 -9 27 4 34 2 34 -11 0 -9 4 -16 9 -16 13 0 41 29 41 43 0 6 9 1 20 -11
11 -12 20 -28 20 -37 0 -8 5 -15 10 -15 6 0 10 9 10 20 0 11 -4 20 -10 20 -13
0 -13 27 0 32 14 4 -11 68 -26 68 -6 0 -17 -7 -24 -15 -7 -8 -16 -15 -21 -15
-14 0 -11 28 4 34 10 5 10 7 0 12 -22 10 -14 24 12 24 14 0 34 -9 45 -20 24
-24 70 -27 70 -5 0 8 5 15 11 15 6 0 4 7 -5 15 -8 8 -27 15 -41 15 -18 0 -29
6 -32 20 -4 15 -11 18 -29 14 -20 -5 -24 -2 -24 17 0 31 10 46 35 50 25 5 34
49 11 49 -9 0 -16 -5 -16 -11 0 -13 -72 -8 -82 6 -5 6 -8 5 -8 -2 0 -7 -11
-13 -25 -13 -14 0 -25 5 -25 10 0 6 -16 10 -35 10 -19 0 -35 -4 -35 -10z"/>
<path d="M5750 4895 c0 -8 5 -15 10 -15 6 0 10 7 10 15 0 8 -4 15 -10 15 -5 0
-10 -7 -10 -15z"/>
<path d="M10716 4902 c-2 -4 2 -16 9 -26 13 -17 15 -17 29 -3 9 9 16 20 16 26
0 12 -46 15 -54 3z"/>
<path d="M13520 4901 c0 -6 5 -11 10 -11 6 0 10 -7 10 -15 0 -8 5 -15 11 -15
18 0 5 45 -13 48 -10 2 -18 -1 -18 -7z"/>
<path d="M5630 4836 c0 -10 9 -16 24 -16 14 0 31 -7 40 -15 20 -21 26 -19 26
9 0 18 -5 24 -22 23 -13 -1 -33 2 -45 7 -18 5 -23 4 -23 -8z"/>
<path d="M6965 4825 c-22 -8 -46 -15 -54 -15 -7 0 -28 -16 -47 -35 -18 -19
-37 -35 -43 -35 -6 0 -11 -9 -11 -20 0 -17 7 -20 50 -20 28 0 50 5 50 10 0 6
11 10 25 10 14 0 25 5 25 10 0 6 42 10 105 10 63 0 105 -4 105 -10 0 -5 20
-10 45 -10 25 0 45 -4 45 -10 0 -5 15 -10 33 -10 18 0 42 -7 53 -15 10 -8 25
-15 32 -15 20 0 42 -26 42 -49 0 -12 4 -21 9 -21 5 0 12 -9 16 -19 3 -11 15
-23 26 -26 10 -4 19 -15 19 -26 0 -10 4 -19 9 -19 5 0 12 -16 15 -35 4 -19 12
-35 17 -35 21 0 4 -45 -18 -48 -13 -2 -23 0 -23 5 0 5 -16 17 -35 27 -19 11
-35 22 -35 26 0 4 -23 10 -51 13 -28 4 -56 10 -63 15 -16 12 -198 7 -224 -7
-11 -6 -43 -11 -71 -11 -28 0 -51 -4 -51 -10 0 -5 -11 -10 -25 -10 -14 0 -25
-4 -25 -9 0 -5 -16 -12 -35 -15 -19 -4 -35 -11 -35 -16 0 -6 -7 -10 -15 -10
-8 0 -15 -4 -15 -10 0 -5 -9 -10 -20 -10 -12 0 -20 -7 -20 -16 0 -14 8 -16 58
-10 31 4 59 11 60 16 2 6 19 10 38 10 19 0 34 5 34 10 0 6 25 10 55 10 30 0
55 5 55 10 0 6 23 10 50 10 41 0 50 -3 50 -17 0 -29 -17 -46 -37 -41 -11 3
-51 -3 -89 -13 -38 -10 -103 -18 -146 -18 -51 -1 -78 -5 -82 -13 -5 -10 -7
-10 -12 0 -4 8 -30 12 -81 12 -71 0 -74 -1 -71 -22 2 -15 11 -24 26 -26 12 -2
22 -8 22 -13 0 -5 11 -9 25 -9 14 0 25 -4 25 -9 0 -5 21 -17 48 -26 26 -9 55
-21 65 -26 11 -6 17 -6 17 1 0 13 67 13 75 0 3 -5 19 -10 36 -10 16 0 29 -4
29 -9 0 -5 11 -12 25 -15 14 -4 25 -11 25 -16 0 -6 7 -10 15 -10 8 0 15 -4 15
-10 0 -5 7 -10 15 -10 9 0 25 -9 37 -19 l21 -20 -27 -7 c-14 -3 -26 -10 -26
-15 0 -5 -7 -9 -15 -9 -8 0 -15 5 -15 10 0 6 -13 10 -30 10 -16 0 -30 -4 -30
-10 0 -5 -7 -10 -15 -10 -22 0 -19 -8 16 -42 25 -26 33 -29 41 -17 7 11 11 11
15 2 3 -9 26 -13 64 -13 33 0 59 -4 59 -10 0 -6 42 -10 105 -10 63 0 105 4
105 10 0 6 30 10 69 10 52 0 70 4 75 15 3 8 15 15 26 15 13 0 20 7 20 20 0 11
4 20 8 20 8 0 42 52 42 64 0 3 -7 6 -15 6 -9 0 -15 9 -15 25 0 16 6 25 15 25
8 0 15 5 15 10 0 6 9 10 20 10 11 0 20 5 20 10 0 6 11 10 25 10 27 0 95 63 95
88 0 14 13 13 53 -3 27 -11 22 23 -8 51 -15 14 -22 29 -19 38 7 18 24 22 24 6
0 -5 9 -10 20 -10 14 0 20 7 20 23 0 12 -9 29 -20 37 -11 8 -20 22 -20 32 0
10 -10 20 -25 24 -27 7 -33 20 -13 26 16 6 -47 68 -69 68 -22 0 -42 30 -43 63
0 15 -4 27 -10 27 -5 0 -10 11 -10 25 0 16 -6 25 -15 25 -8 0 -15 5 -15 10 0
6 -12 10 -26 10 -27 0 -84 29 -84 42 0 4 -11 8 -25 8 -14 0 -25 5 -25 10 0 6
-36 10 -89 10 -59 0 -91 4 -93 12 -7 19 -313 22 -363 3z m500 -204 c3 -5 1
-12 -5 -16 -5 -3 -10 1 -10 9 0 18 6 21 15 7z m-205 -251 c0 -11 -4 -20 -10
-20 -5 0 -10 5 -10 10 0 6 -7 10 -15 10 -8 0 -15 5 -15 10 0 6 11 10 25 10 18
0 25 -5 25 -20z m24 -96 c18 -7 23 -94 6 -94 -5 0 -10 -6 -10 -14 0 -11 -10
-13 -42 -9 -24 4 -44 10 -46 14 -2 5 -26 9 -52 9 -27 0 -52 5 -55 10 -3 6 -18
10 -33 10 -60 0 -66 41 -9 56 18 4 43 11 57 15 32 9 163 11 184 3z m166 -224
c0 -5 -22 -10 -50 -10 -27 0 -50 5 -50 10 0 6 23 10 50 10 28 0 50 -4 50 -10z"/>
<path d="M13730 4815 c0 -29 34 -36 44 -9 10 27 7 34 -19 34 -20 0 -25 -5 -25
-25z"/>
<path d="M10800 4765 c0 -27 1 -28 24 -19 24 9 20 44 -4 44 -15 0 -20 -7 -20
-25z"/>
<path d="M8521 4740 c0 -32 2 -40 9 -29 5 9 6 28 0 45 -8 27 -8 26 -9 -16z"/>
<path d="M10388 4753 c6 -2 18 -2 25 0 6 3 1 5 -13 5 -14 0 -19 -2 -12 -5z"/>
<path d="M10400 4680 c0 -5 5 -10 10 -10 6 0 10 5 10 10 0 6 -4 10 -10 10 -5
0 -10 -4 -10 -10z"/>
<path d="M14030 4650 c0 -11 5 -20 10 -20 6 0 10 9 10 20 0 11 -4 20 -10 20
-5 0 -10 -9 -10 -20z"/>
<path d="M14080 4591 c0 -32 23 -47 54 -35 17 7 22 24 7 24 -5 0 -13 9 -16 20
-3 11 -15 20 -26 20 -14 0 -19 -7 -19 -29z"/>
<path d="M10290 4590 c0 -5 5 -10 10 -10 6 0 10 5 10 10 0 6 -4 10 -10 10 -5
0 -10 -4 -10 -10z"/>
<path d="M13756 4534 c-9 -22 -8 -24 9 -24 8 0 15 9 15 20 0 24 -15 27 -24 4z"/>
<path d="M14080 4520 c0 -5 5 -10 10 -10 6 0 10 5 10 10 0 6 -4 10 -10 10 -5
0 -10 -4 -10 -10z"/>
<path d="M8354 4500 c-12 -12 -73 -16 -95 -6 -12 5 -19 -1 -29 -23 -7 -17 -19
-31 -26 -31 -8 0 -14 -9 -14 -20 0 -12 -11 -32 -25 -46 -18 -18 -25 -36 -25
-64 0 -22 -4 -40 -10 -40 -12 0 -14 -197 -2 -202 11 -5 42 -76 42 -98 0 -11 5
-20 10 -20 6 0 10 -11 10 -25 0 -14 5 -25 11 -25 14 0 38 -30 39 -48 0 -18 25
-42 43 -42 8 0 23 -11 33 -25 10 -14 23 -25 27 -25 11 0 37 -26 37 -37 0 -5 9
-15 20 -23 11 -8 20 -20 20 -27 0 -7 4 -13 8 -13 5 0 17 -8 28 -18 20 -18 127
-72 144 -72 6 0 10 11 10 25 0 18 -5 25 -20 25 -11 0 -20 5 -20 10 0 6 -7 10
-15 10 -8 0 -15 7 -15 15 0 8 -7 15 -15 15 -8 0 -15 5 -15 10 0 6 -7 10 -16
10 -15 0 -44 23 -44 35 0 10 -28 35 -39 35 -6 0 -11 5 -11 10 0 6 11 10 25 10
14 0 25 -4 25 -10 0 -5 9 -10 20 -10 11 0 20 -6 20 -13 0 -8 11 -20 25 -27 14
-7 25 -17 25 -22 0 -4 11 -8 25 -8 14 0 25 -4 25 -10 0 -5 16 -10 35 -10 19 0
35 5 35 10 0 6 16 10 35 10 33 0 35 2 35 35 0 24 -5 35 -15 35 -8 0 -15 5 -15
10 0 6 5 10 10 10 6 0 18 16 27 36 14 28 15 37 5 43 -7 4 -12 21 -10 37 4 34
-21 44 -46 18 -9 -9 -20 -13 -24 -9 -4 4 -1 10 6 12 18 7 15 21 -13 49 -14 14
-25 31 -25 39 0 8 -7 15 -15 15 -8 0 -15 5 -15 10 0 6 -7 10 -15 10 -8 0 -15
4 -15 10 0 14 -55 40 -85 40 -14 0 -25 5 -25 10 0 6 -37 10 -90 10 -87 0 -117
11 -65 24 20 5 25 13 25 36 0 20 6 31 20 35 11 3 20 11 20 16 0 5 5 9 10 9 6
0 20 9 32 20 12 11 30 20 40 20 10 0 18 5 18 11 0 20 29 39 59 39 17 0 31 -4
31 -9 0 -5 9 -11 21 -14 11 -3 23 -15 26 -26 3 -12 9 -21 13 -21 4 0 16 -20
27 -45 10 -25 21 -45 26 -45 4 0 7 -16 7 -35 0 -19 5 -35 10 -35 6 0 10 25 10
55 0 30 -4 55 -10 55 -5 0 -10 16 -10 35 0 19 -4 35 -10 35 -5 0 -10 7 -10 15
0 8 -4 15 -9 15 -5 0 -12 11 -15 25 -4 14 -11 25 -16 25 -6 0 -10 9 -10 20 0
12 -7 20 -18 20 -9 0 -31 16 -47 35 -17 19 -36 35 -42 35 -7 0 -13 5 -13 11 0
8 -18 10 -55 7 -40 -3 -55 -1 -55 8 0 18 -15 25 -26 14z m-74 -50 c0 -5 -4
-10 -10 -10 -5 0 -10 5 -10 10 0 6 5 10 10 10 6 0 10 -4 10 -10z m300 -490 c0
-5 -16 -10 -35 -10 -19 0 -35 5 -35 10 0 6 16 10 35 10 19 0 35 -4 35 -10z
m-160 -70 c0 -5 9 -10 19 -10 50 0 66 -27 34 -58 -12 -12 -18 -13 -21 -4 -2 6
-19 12 -38 12 -19 0 -34 5 -34 10 0 6 -7 10 -15 10 -8 0 -15 -4 -15 -10 0 -5
5 -10 10 -10 6 0 10 -7 10 -15 0 -8 8 -15 17 -15 9 0 13 -3 10 -7 -8 -7 -54
15 -77 36 -11 11 -12 15 -2 19 6 2 12 8 12 13 0 21 26 38 58 39 17 0 32 -4 32
-10z m120 -50 c0 -5 -4 -10 -10 -10 -5 0 -10 5 -10 10 0 6 5 10 10 10 6 0 10
-4 10 -10z"/>
<path d="M11170 4476 c0 -18 45 -23 55 -6 3 6 0 10 -9 10 -8 0 -21 3 -30 6
-11 4 -16 1 -16 -10z"/>
<path d="M13870 4450 c0 -11 5 -20 10 -20 6 0 10 9 10 20 0 11 -4 20 -10 20
-5 0 -10 -9 -10 -20z"/>
<path d="M13940 4450 c0 -5 5 -10 10 -10 6 0 10 5 10 10 0 6 -4 10 -10 10 -5
0 -10 -4 -10 -10z"/>
<path d="M13825 4430 c-3 -5 1 -10 10 -10 9 0 13 5 10 10 -3 6 -8 10 -10 10
-2 0 -7 -4 -10 -10z"/>
<path d="M14061 4403 c-1 -7 -8 -13 -16 -13 -8 0 -15 -4 -15 -10 0 -5 -13 -10
-30 -10 -16 0 -30 -4 -30 -10 0 -5 9 -10 20 -10 15 0 20 -7 20 -25 0 -34 22
-32 58 5 17 17 27 30 23 30 -4 0 -12 12 -18 28 -6 15 -11 21 -12 15z"/>
<path d="M7960 4375 c0 -8 0 -18 -1 -22 0 -4 4 -9 10 -11 6 -2 11 8 11 22 0
14 -4 26 -10 26 -5 0 -10 -7 -10 -15z"/>
<path d="M13920 4380 c0 -5 5 -10 10 -10 6 0 10 5 10 10 0 6 -4 10 -10 10 -5
0 -10 -4 -10 -10z"/>
<path d="M14275 4360 c-3 -5 3 -10 14 -10 12 0 21 5 21 10 0 6 -6 10 -14 10
-8 0 -18 -4 -21 -10z"/>
<path d="M13890 4330 c0 -5 5 -10 10 -10 6 0 10 5 10 10 0 6 -4 10 -10 10 -5
0 -10 -4 -10 -10z"/>
<path d="M14090 4319 c-11 -8 -12 -12 -2 -16 6 -2 12 -20 12 -39 0 -38 7 -42
25 -18 13 18 6 76 -10 81 -6 1 -17 -2 -25 -8z"/>
<path d="M13920 4290 c0 -5 5 -10 11 -10 5 0 7 5 4 10 -3 6 -8 10 -11 10 -2 0
-4 -4 -4 -10z"/>
<path d="M13940 4260 c0 -5 5 -10 10 -10 6 0 10 5 10 10 0 6 -4 10 -10 10 -5
0 -10 -4 -10 -10z"/>
<path d="M14030 4250 c0 -11 4 -20 9 -20 5 0 11 -9 14 -21 7 -27 27 -15 27 17
0 15 -6 24 -15 24 -8 0 -15 5 -15 10 0 6 -4 10 -10 10 -5 0 -10 -9 -10 -20z"/>
<path d="M7820 4240 c0 -5 5 -10 10 -10 6 0 10 5 10 10 0 6 -4 10 -10 10 -5 0
-10 -4 -10 -10z"/>
<path d="M13976 4221 c-3 -5 1 -11 9 -15 9 -3 15 0 15 9 0 16 -16 20 -24 6z"/>
<path d="M5770 4190 c0 -5 9 -10 20 -10 11 0 20 5 20 10 0 6 -9 10 -20 10 -11
0 -20 -4 -20 -10z"/>
<path d="M14010 4160 c0 -24 6 -25 26 -6 19 20 18 26 -6 26 -13 0 -20 -7 -20
-20z"/>
<path d="M14070 4152 c0 -13 41 -44 48 -36 4 4 1 9 -5 11 -7 3 -13 11 -13 19
0 8 -7 14 -15 14 -8 0 -15 -3 -15 -8z"/>
<path d="M14170 4130 c0 -11 6 -20 14 -20 7 0 16 9 19 20 4 15 0 20 -14 20
-12 0 -19 -7 -19 -20z"/>
<path d="M14030 4120 c0 -5 5 -10 10 -10 6 0 10 5 10 10 0 6 -4 10 -10 10 -5
0 -10 -4 -10 -10z"/>
<path d="M14060 4090 c0 -11 5 -20 10 -20 6 0 10 9 10 20 0 11 -4 20 -10 20
-5 0 -10 -9 -10 -20z"/>
<path d="M14130 4060 c0 -11 5 -20 10 -20 6 0 10 9 10 20 0 11 -4 20 -10 20
-5 0 -10 -9 -10 -20z"/>
<path d="M14100 4020 c0 -11 5 -20 10 -20 6 0 10 9 10 20 0 11 -4 20 -10 20
-5 0 -10 -9 -10 -20z"/>
<path d="M14170 4026 c0 -8 -6 -17 -12 -19 -10 -4 -10 -6 0 -6 6 -1 12 -8 12
-16 0 -8 5 -15 10 -15 6 0 10 5 10 10 0 6 7 10 15 10 16 0 19 9 9 34 -8 20
-44 21 -44 2z"/>
<path d="M5425 4010 c-3 -5 -1 -10 4 -10 6 0 11 5 11 10 0 6 -2 10 -4 10 -3 0
-8 -4 -11 -10z"/>
<path d="M14130 3977 c0 -21 28 -53 38 -43 3 4 2 10 -4 14 -6 4 -16 16 -22 27
-10 18 -11 18 -12 2z"/>
<path d="M14220 3930 c0 -5 5 -10 10 -10 6 0 10 5 10 10 0 6 -4 10 -10 10 -5
0 -10 -4 -10 -10z"/>
<path d="M14194 3884 c3 -9 6 -19 6 -22 0 -9 20 21 20 31 0 4 -7 7 -16 7 -11
0 -14 -5 -10 -16z"/>
<path d="M5137 3864 c-32 -7 -68 -24 -82 -36 -13 -13 -30 -28 -37 -35 -27 -25
-38 -43 -38 -62 0 -11 -5 -21 -10 -23 -6 -2 -15 -50 -20 -108 -5 -58 -12 -126
-16 -151 -4 -31 -1 -58 10 -83 9 -21 16 -45 16 -53 0 -14 23 -43 34 -43 3 0 6
56 6 124 0 130 12 183 51 217 10 9 19 21 19 27 0 17 57 72 75 72 8 0 15 -8 15
-18 0 -9 9 -23 20 -30 24 -15 61 -1 104 40 24 24 28 33 23 64 -3 20 -15 44
-27 54 -11 9 -20 22 -20 28 0 7 -58 36 -64 31 -1 0 -27 -7 -59 -15z"/>
<path d="M10260 3821 c0 -13 30 -22 51 -16 31 10 21 25 -16 25 -19 0 -35 -4
-35 -9z"/>
<path d="M10610 3780 c0 -15 7 -20 25 -20 29 0 32 8 8 26 -25 19 -33 17 -33
-6z"/>
<path d="M10800 3754 c0 -10 31 -36 37 -31 3 3 -2 13 -10 22 -16 15 -27 19
-27 9z"/>
<path d="M14310 3700 c0 -5 5 -10 10 -10 6 0 10 5 10 10 0 6 -4 10 -10 10 -5
0 -10 -4 -10 -10z"/>
<path d="M7490 3680 c0 -5 -16 -10 -35 -10 -23 0 -42 -8 -59 -25 -14 -14 -30
-25 -36 -25 -5 0 -10 -11 -10 -25 0 -19 -5 -25 -20 -25 -19 0 -70 -40 -70 -55
0 -13 -29 -35 -46 -35 -9 0 -25 -9 -35 -21 -11 -13 -25 -19 -36 -15 -12 4 -24
-1 -33 -14 -11 -15 -26 -20 -62 -20 -26 0 -48 -4 -48 -10 0 -5 -12 -13 -27
-16 -16 -4 -33 -11 -40 -16 -7 -6 -19 -5 -32 2 -15 8 -26 7 -41 -2 -11 -7 -20
-16 -20 -20 0 -5 -7 -8 -15 -8 -8 0 -15 -4 -15 -9 0 -5 -9 -13 -20 -16 -11 -3
-20 -15 -20 -26 0 -12 -7 -19 -20 -19 -11 0 -20 5 -20 10 0 6 -15 10 -34 10
-25 0 -36 -5 -40 -18 -4 -10 -22 -26 -41 -35 -19 -9 -35 -21 -35 -27 0 -5 -9
-10 -20 -10 -15 0 -20 -7 -20 -25 0 -16 -6 -25 -15 -25 -8 0 -15 5 -15 10 0 6
-8 5 -20 -2 -21 -13 -29 -68 -10 -68 6 0 10 -9 10 -20 0 -11 6 -20 13 -21 6 0
2 -5 -10 -11 -20 -10 -23 -19 -25 -77 -1 -36 0 -83 1 -103 1 -23 -2 -38 -9
-38 -7 0 -10 -13 -8 -32 2 -24 -1 -33 -12 -34 -8 -1 -21 -2 -27 -3 -15 -1 -18
-61 -3 -61 6 0 10 -7 10 -15 0 -8 -4 -15 -10 -15 -5 0 -10 -7 -10 -16 0 -11
-6 -14 -22 -8 -13 3 -24 11 -26 15 -6 14 -42 11 -43 -3 -1 -7 -2 -32 -3 -56
-1 -24 -8 -48 -17 -53 -11 -8 -11 -12 -1 -16 14 -6 17 -73 2 -73 -5 0 -10 5
-10 10 0 6 -11 10 -25 10 -18 0 -25 -5 -25 -20 0 -11 -4 -20 -10 -20 -5 0 -10
9 -10 20 0 13 -7 20 -20 20 -11 0 -20 -4 -20 -10 0 -5 -7 -10 -15 -10 -10 0
-15 11 -15 35 0 32 -2 35 -30 35 -23 0 -31 -5 -36 -25 -3 -14 -10 -25 -15 -25
-5 0 -9 -11 -9 -24 0 -19 -8 -27 -35 -36 -19 -6 -35 -16 -35 -21 0 -5 -7 -9
-15 -9 -9 0 -15 -9 -15 -21 0 -19 -4 -21 -30 -15 -19 3 -30 1 -30 -6 0 -7 -13
-9 -36 -5 -25 4 -37 2 -41 -9 -11 -29 -63 -5 -63 29 0 29 -12 47 -31 47 -20 0
-28 -35 -9 -42 14 -5 16 -111 2 -116 -7 -2 -12 -19 -12 -38 0 -31 2 -34 31
-34 38 0 73 -35 65 -65 -3 -11 -6 -23 -6 -27 0 -5 -9 -8 -20 -8 -13 0 -20 -7
-20 -20 0 -11 5 -20 10 -20 6 0 10 7 10 16 0 18 35 11 58 -12 7 -8 18 -14 23
-14 5 0 9 -6 9 -14 0 -8 7 -16 15 -20 8 -3 15 -15 15 -26 0 -11 5 -20 10 -20
6 0 10 -18 10 -39 0 -22 5 -42 13 -44 10 -4 10 -6 0 -6 -7 -1 -13 -7 -13 -15
0 -8 -6 -16 -12 -19 -23 -8 0 -20 42 -22 36 -2 40 0 40 21 0 17 6 24 20 24 22
0 27 -16 8 -23 -24 -8 7 -42 41 -45 26 -3 31 -7 26 -22 -3 -10 -1 -21 5 -25 5
-3 10 -15 10 -26 0 -16 -7 -19 -44 -19 -26 0 -46 5 -49 13 -4 9 -8 8 -16 -3
-7 -10 -14 -11 -18 -4 -11 15 -70 37 -85 31 -9 -3 -6 -7 7 -13 11 -4 22 -10
25 -14 18 -21 65 -40 100 -40 22 0 40 -4 40 -10 0 -5 -7 -10 -15 -10 -24 0
-17 -35 10 -50 14 -7 25 -19 25 -27 0 -7 11 -13 24 -13 14 0 31 -7 40 -15 8
-8 17 -15 21 -15 18 0 35 -33 35 -69 0 -62 -31 -65 -45 -4 -6 29 -10 33 -41
33 -31 0 -34 3 -34 30 0 44 -20 37 -21 -7 -3 -103 9 -143 40 -143 6 0 11 -7
11 -15 0 -8 5 -15 10 -15 6 0 10 7 10 15 0 8 5 15 10 15 6 0 10 -4 10 -10 0
-5 16 -10 35 -10 31 0 35 -3 35 -25 0 -14 5 -25 10 -25 6 0 10 5 10 10 0 6 23
10 50 10 28 0 50 -4 50 -10 0 -5 -7 -10 -15 -10 -8 0 -15 -4 -15 -9 0 -5 -9
-13 -20 -16 -20 -6 -29 -45 -10 -45 6 0 10 5 10 10 0 6 11 10 25 10 16 0 25 6
25 15 0 8 5 15 10 15 6 0 10 -7 10 -15 0 -8 -4 -15 -10 -15 -5 0 -10 -4 -10
-10 0 -5 16 -10 35 -10 33 0 35 -2 35 -34 0 -19 5 -36 12 -38 16 -6 -22 -48
-44 -48 -13 0 -18 8 -18 25 0 14 -4 25 -10 25 -5 0 -10 -4 -10 -10 0 -18 -17
-10 -28 13 -6 12 -11 16 -11 10 -1 -8 -14 -13 -31 -13 -26 0 -30 4 -30 28 -1
24 -2 25 -14 10 -16 -22 -26 -23 -26 -4 0 8 -6 16 -12 18 -9 3 -8 9 4 21 20
20 34 22 41 5 3 -7 6 0 6 15 1 24 -2 27 -18 22 -13 -4 -23 0 -30 12 -9 15 -10
11 -11 -19 0 -34 -3 -38 -25 -38 -14 0 -25 5 -25 10 0 6 -7 10 -15 10 -8 0
-25 11 -39 25 -25 25 -26 25 -45 6 -11 -11 -17 -22 -14 -24 7 -8 -7 -47 -18
-47 -5 0 -9 20 -9 45 0 25 -3 45 -6 45 -13 0 -64 -60 -64 -74 0 -25 -30 -19
-31 7 -1 15 -4 11 -9 -13 -5 -19 -13 -36 -19 -38 -21 -7 -11 -22 14 -22 14 0
25 5 25 10 0 6 9 10 20 10 11 0 20 7 20 15 0 8 7 15 15 15 9 0 15 -9 15 -25 0
-20 -5 -25 -25 -25 -14 0 -25 -4 -25 -9 0 -13 25 -20 49 -14 17 4 21 1 21 -21
0 -16 -5 -26 -15 -26 -8 0 -15 5 -15 10 0 6 -4 10 -10 10 -5 0 -10 -9 -10 -20
0 -11 7 -20 15 -20 8 0 15 -7 15 -15 0 -10 -11 -15 -35 -15 -19 0 -35 -4 -35
-10 0 -5 10 -10 23 -10 30 0 40 -10 27 -25 -6 -7 -7 -20 -4 -30 6 -15 9 -15
20 6 11 20 14 22 19 7 8 -20 -23 -58 -47 -58 -10 0 -18 7 -18 15 0 8 -4 15
-10 15 -6 0 -10 -30 -10 -70 0 -68 -1 -70 -25 -70 -16 0 -25 6 -25 15 0 17 -9
19 -29 6 -12 -8 -8 -15 18 -40 18 -17 38 -31 43 -31 6 0 8 -9 5 -21 -3 -13 2
-28 14 -40 24 -24 24 -29 -1 -29 -14 0 -20 7 -20 23 0 19 -8 27 -40 37 -22 7
-40 17 -40 22 0 4 -7 8 -15 8 -8 0 -24 9 -35 20 -11 11 -20 27 -20 35 0 8 -8
15 -18 15 -17 0 -49 56 -38 67 3 4 6 1 6 -5 0 -7 7 -12 15 -12 8 0 15 -7 15
-16 0 -9 5 -14 12 -12 19 7 20 24 3 41 -8 9 -15 20 -15 25 0 5 -11 15 -25 22
-15 8 -25 22 -25 34 0 12 -9 28 -20 36 -17 12 -29 50 -15 50 17 0 56 -26 60
-41 7 -20 35 -33 47 -21 10 10 0 42 -13 42 -5 0 -9 7 -9 15 0 8 -4 15 -10 15
-5 0 -10 5 -10 10 0 15 40 12 56 -5 20 -19 34 -19 34 0 0 8 5 15 10 15 6 0 10
7 10 15 0 8 -4 15 -10 15 -5 0 -10 -7 -10 -15 0 -8 -4 -15 -10 -15 -5 0 -10 5
-10 10 0 6 -11 10 -25 10 -16 0 -25 6 -25 15 0 10 11 15 35 15 19 0 35 5 35
10 0 6 -7 10 -15 10 -8 0 -15 5 -15 10 0 6 -9 10 -20 10 -15 0 -20 7 -20 25 0
20 -5 25 -25 25 -29 0 -33 15 -8 24 15 6 13 10 -10 30 -15 13 -27 31 -27 40 0
19 -23 46 -39 46 -6 0 -11 9 -11 21 0 15 -5 19 -19 14 -20 -6 -71 13 -71 27 0
4 -16 8 -35 8 -19 0 -35 -4 -35 -10 0 -5 -4 -10 -10 -10 -5 0 -10 9 -10 20 0
12 -11 32 -25 46 -14 14 -25 36 -25 49 0 14 -4 25 -10 25 -5 0 -10 8 -10 18 0
10 -4 22 -9 28 -5 5 -11 20 -13 34 -3 22 -9 26 -53 31 -27 3 -63 11 -78 17
-16 7 -62 12 -103 12 -43 0 -74 4 -74 10 0 6 -24 10 -53 10 -29 0 -57 4 -62 9
-15 15 -121 33 -224 38 -92 4 -94 5 -132 43 -21 21 -39 46 -39 54 0 9 -4 16
-10 16 -5 0 -10 5 -10 11 0 6 -6 17 -12 24 -30 33 -38 45 -38 55 0 14 -38 13
-55 -2 -36 -32 -46 -38 -65 -38 -11 0 -20 -4 -20 -10 0 -5 -6 -10 -14 -10 -7
0 -34 -11 -60 -25 -26 -14 -56 -25 -67 -25 -10 0 -19 -4 -19 -10 0 -5 -7 -10
-15 -10 -25 0 -125 -34 -125 -42 0 -4 -20 -8 -45 -8 -25 0 -45 -4 -45 -10 0
-5 -5 -10 -11 -10 -6 0 -17 -6 -24 -12 -36 -32 -45 -38 -64 -38 -11 0 -21 -5
-23 -11 -2 -7 -58 -14 -143 -19 -166 -11 -235 -20 -235 -31 0 -5 -13 -9 -30
-9 -16 0 -30 -4 -30 -10 0 -5 -8 -10 -17 -10 -25 0 -103 -31 -103 -41 0 -5
-11 -9 -25 -9 -14 0 -25 -4 -25 -10 0 -5 -8 -10 -19 -10 -10 0 -24 -7 -31 -15
-7 -8 -19 -15 -26 -15 -8 0 -14 -4 -14 -10 0 -5 -5 -10 -10 -10 -6 0 -22 -10
-35 -23 -65 -59 -75 -67 -85 -67 -5 0 -10 -5 -10 -11 0 -14 -25 -39 -39 -39
-6 0 -11 -5 -11 -11 0 -6 -25 -35 -55 -64 -30 -30 -55 -61 -55 -70 0 -8 -4
-15 -10 -15 -5 0 -10 -7 -10 -15 0 -8 -7 -15 -15 -15 -8 0 -15 -9 -15 -20 0
-11 -4 -20 -10 -20 -5 0 -10 -7 -10 -15 0 -8 -4 -15 -10 -15 -5 0 -10 -8 -10
-19 0 -10 -7 -24 -15 -31 -8 -7 -15 -23 -15 -36 0 -13 -4 -24 -10 -24 -5 0
-10 -11 -10 -25 0 -14 -4 -25 -10 -25 -5 0 -12 -11 -16 -25 -3 -14 -10 -25
-15 -25 -5 0 -9 -16 -9 -35 0 -19 -4 -35 -10 -35 -5 0 -10 -16 -10 -35 0 -19
-4 -35 -9 -35 -9 0 -30 -79 -38 -148 -3 -23 -9 -42 -14 -42 -5 0 -9 -25 -9
-55 0 -30 -4 -55 -9 -55 -7 0 -15 -56 -24 -169 -2 -21 7 -27 78 -53 202 -74
480 -143 720 -177 272 -39 410 -42 1683 -39 l1223 3 -20 22 c-12 12 -21 26
-21 30 0 5 -16 26 -35 46 -19 20 -35 42 -35 47 0 6 -4 10 -10 10 -5 0 -10 8
-10 19 0 10 -11 27 -25 37 -14 10 -25 27 -25 36 0 10 -4 18 -10 18 -5 0 -10 7
-10 15 0 8 -7 15 -15 15 -8 0 -15 9 -15 20 0 11 -4 20 -10 20 -5 0 -10 5 -10
11 0 6 -6 17 -12 24 -29 32 -38 45 -38 52 0 5 -9 15 -20 23 -11 8 -20 19 -20
25 0 6 -11 22 -25 37 -14 15 -25 34 -25 43 0 19 -23 45 -39 45 -6 0 -11 7 -11
15 0 8 -4 15 -10 15 -5 0 -10 9 -10 20 0 11 -7 20 -15 20 -8 0 -15 7 -15 15 0
8 -9 20 -20 27 -11 7 -20 21 -20 30 0 10 -4 18 -10 18 -5 0 -10 7 -10 15 0 8
-11 25 -25 39 -14 14 -25 34 -25 46 0 11 -4 20 -10 20 -5 0 -10 5 -10 11 0 6
-7 17 -15 25 -8 9 -15 24 -15 35 0 10 -4 19 -10 19 -5 0 -10 11 -10 25 0 14
-4 25 -10 25 -5 0 -10 8 -10 19 0 10 -11 44 -25 75 -14 31 -25 65 -25 76 0 11
-4 20 -10 20 -5 0 -10 16 -10 35 0 19 3 35 8 35 9 0 42 -74 42 -94 0 -8 5 -18
10 -21 6 -3 10 -17 10 -31 0 -13 5 -24 10 -24 6 0 10 -9 10 -20 0 -11 4 -20
10 -20 5 0 12 -16 16 -35 3 -19 10 -35 15 -35 5 0 9 -9 9 -20 0 -11 5 -20 10
-20 6 0 10 -11 10 -25 0 -14 4 -25 10 -25 5 0 12 -11 16 -25 3 -14 10 -25 15
-25 5 0 9 -5 9 -11 0 -7 8 -19 18 -28 22 -20 52 -67 52 -81 0 -14 25 -40 39
-40 6 0 11 -5 11 -11 0 -11 24 -39 34 -39 3 0 6 9 6 20 0 11 5 20 10 20 6 0
10 -9 10 -20 0 -13 7 -20 19 -20 27 0 51 -10 51 -22 0 -5 -18 -6 -45 -2 -38 5
-45 4 -45 -10 0 -9 5 -16 11 -16 14 0 39 -25 39 -39 0 -6 5 -11 10 -11 6 0 10
-9 10 -20 0 -11 4 -20 9 -20 5 0 11 -10 13 -22 2 -15 11 -24 26 -26 14 -2 22
-10 22 -23 0 -11 6 -27 13 -34 31 -36 37 -45 37 -62 0 -10 9 -25 20 -33 11 -8
20 -19 20 -25 0 -6 11 -22 25 -37 14 -15 25 -31 25 -35 0 -5 9 -15 20 -23 11
-8 20 -21 20 -28 0 -8 23 -36 50 -63 28 -27 50 -53 50 -59 0 -39 9 -40 559
-40 524 0 531 0 531 20 0 11 3 20 8 20 4 0 16 16 26 35 11 19 23 35 28 35 4 0
8 9 8 21 0 22 22 49 39 49 6 0 11 -11 11 -25 0 -14 -3 -25 -7 -25 -11 0 -43
-58 -43 -76 0 -8 -4 -14 -10 -14 -5 0 -10 -9 -10 -20 0 -19 7 -20 130 -20
l130 0 0 65 c0 58 2 65 20 65 23 0 28 -34 8 -44 -10 -5 -10 -7 0 -12 14 -7 16
-34 2 -34 -16 0 -11 -27 6 -34 9 -3 652 -6 1430 -6 1407 0 1414 0 1414 20 0
11 -4 20 -10 20 -5 0 -10 10 -10 23 -1 12 -7 33 -15 47 -8 14 -14 35 -15 48 0
12 -4 22 -10 22 -5 0 -10 16 -10 35 0 19 -4 35 -10 35 -5 0 -10 9 -10 20 0 22
-31 93 -42 98 -5 2 -8 19 -8 38 0 19 -3 34 -7 34 -11 0 -43 58 -43 76 0 8 -4
14 -10 14 -5 0 -10 9 -10 20 0 12 -11 32 -25 46 -14 14 -25 31 -25 39 0 8 -4
15 -10 15 -5 0 -10 9 -10 20 0 11 -4 20 -10 20 -5 0 -10 5 -10 11 0 6 -6 17
-12 24 -28 31 -38 44 -38 50 0 4 -16 22 -35 41 -19 18 -35 40 -35 49 0 8 -7
15 -15 15 -9 0 -31 16 -49 35 -19 19 -37 35 -41 35 -3 0 -13 6 -20 13 -33 29
-45 37 -55 37 -5 0 -10 5 -10 10 0 6 -6 10 -14 10 -18 0 -76 32 -76 43 0 4 -9
7 -20 7 -11 0 -20 5 -20 10 0 6 -10 10 -23 10 -13 0 -29 6 -35 13 -9 8 -49 13
-115 14 -63 1 -103 5 -105 12 -2 7 -33 11 -78 11 -43 0 -74 4 -74 10 0 6 -26
10 -59 10 -33 0 -71 7 -87 15 -16 8 -37 15 -46 15 -9 0 -19 8 -22 18 -4 10
-28 26 -56 36 -28 10 -50 22 -50 27 0 5 -9 9 -19 9 -11 0 -21 3 -23 8 -4 10
-67 42 -84 42 -8 0 -14 5 -14 10 0 6 -7 10 -15 10 -8 0 -15 5 -15 10 0 6 -7
10 -16 10 -8 0 -22 7 -30 15 -9 8 -26 15 -40 15 -13 0 -24 5 -24 10 0 6 -13
10 -30 10 -16 0 -30 3 -30 8 0 9 -90 42 -114 42 -9 0 -16 5 -16 10 0 6 -16 10
-35 10 -19 0 -35 5 -35 10 0 6 -11 10 -25 10 -14 0 -42 7 -62 15 -19 8 -48 15
-64 15 -16 0 -29 5 -29 10 0 6 -24 10 -54 10 -48 0 -56 -3 -62 -22 -4 -13 -14
-30 -24 -38 -9 -8 -21 -23 -26 -33 -9 -16 -11 -16 -32 3 -11 11 -30 20 -42 20
-11 0 -20 4 -20 9 0 5 -14 11 -31 15 -19 4 -33 13 -36 26 -3 11 -13 20 -22 20
-9 0 -22 5 -28 11 -20 20 -174 39 -320 39 -89 0 -143 4 -143 10 0 6 -20 10
-45 10 -25 0 -54 6 -65 13 -17 10 -22 9 -31 -3 -8 -11 -12 -12 -16 -2 -2 6
-18 12 -34 12 -16 0 -46 7 -66 15 -19 8 -44 15 -54 15 -11 0 -19 4 -19 8 0 14
-54 35 -58 23 -2 -6 -15 -11 -28 -11 -17 0 -24 6 -24 19 0 22 -42 41 -48 22
-7 -22 -22 -10 -22 19 0 30 -13 40 -25 19 -5 -6 -12 -4 -20 7 -12 17 -14 17
-29 1 -10 -9 -19 -17 -22 -17 -14 0 -44 44 -44 64 0 29 -13 35 -57 28 -32 -4
-32 -4 -35 44 -3 42 -6 49 -25 52 -27 4 -27 6 -11 32 17 27 4 35 -37 23 -25
-8 -37 -8 -42 0 -3 6 -1 13 5 15 7 2 12 10 12 17 0 10 -9 12 -35 8 -21 -3 -35
-2 -35 5 0 6 -12 15 -27 20 -18 7 -22 11 -10 11 9 1 17 7 17 15 0 8 6 17 13
19 9 4 9 8 -2 15 -16 11 -7 48 13 55 18 7 56 -3 56 -14 0 -4 -11 -9 -25 -11
-47 -6 -25 -23 27 -21 51 3 74 12 51 20 -26 9 -12 23 22 23 33 0 35 2 35 35 0
19 5 35 10 35 6 0 10 -4 10 -10 0 -5 11 -10 25 -10 14 0 25 5 25 10 0 6 -11
10 -25 10 -24 0 -25 3 -25 60 0 57 1 60 25 60 14 0 25 5 25 11 0 7 8 19 19 28
10 9 22 31 25 49 7 27 12 32 38 32 32 0 63 23 53 40 -3 5 -19 10 -36 10 -22 0
-29 5 -29 20 0 13 7 20 18 20 11 0 24 10 30 23 6 12 11 16 11 10 2 -25 31 -13
31 12 0 22 4 25 35 25 19 0 35 5 35 10 0 6 -4 10 -10 10 -20 0 -9 22 30 60 23
22 47 40 55 40 8 0 15 5 15 10 0 6 7 10 15 10 8 0 15 6 15 14 0 8 6 17 13 19
10 4 10 6 0 6 -21 1 -15 29 7 36 22 7 27 40 8 48 -9 4 -10 8 -2 14 6 4 19 29
30 55 11 27 29 51 41 57 13 6 23 15 23 21 0 5 9 10 20 10 14 0 20 7 20 21 0
23 16 42 43 52 9 4 20 15 24 24 4 10 14 25 23 33 10 8 20 25 24 38 4 12 12 22
17 22 19 0 8 39 -13 46 -12 3 -28 12 -35 20 -15 15 -17 54 -3 54 6 0 10 11 10
24 0 27 11 37 60 56 19 8 37 17 40 22 9 12 77 38 84 31 3 -4 6 -13 6 -21 0
-17 59 -72 78 -72 6 0 12 -4 12 -10 0 -6 33 -10 80 -10 47 0 80 4 80 10 0 6
14 10 30 10 17 0 30 -4 30 -10 0 -5 24 -10 53 -10 79 0 91 -16 19 -25 -48 -5
-63 -11 -67 -26 -5 -14 -16 -19 -43 -19 -20 0 -43 -4 -50 -9 -17 -11 32 -21
99 -21 27 0 49 -4 49 -10 0 -5 -11 -10 -25 -10 -14 0 -25 -4 -25 -10 0 -5 9
-10 21 -10 11 0 29 -5 40 -11 15 -8 24 -7 35 2 13 10 17 10 26 -2 7 -11 11
-11 15 -1 2 6 11 12 18 12 7 0 15 6 18 13 3 8 11 5 24 -10 13 -15 32 -23 52
-23 19 0 34 -6 37 -15 4 -10 20 -15 45 -15 21 0 39 -4 39 -10 0 -5 16 -10 35
-10 19 0 35 -4 35 -10 0 -5 11 -10 25 -10 14 0 25 5 25 10 0 6 -4 10 -10 10
-5 0 -10 5 -10 10 0 6 11 10 24 10 13 0 26 5 28 11 5 14 38 0 38 -17 0 -8 4
-14 10 -14 5 0 12 -11 16 -25 3 -14 10 -25 15 -25 13 0 11 -34 -2 -47 -8 -8
-8 -17 0 -31 6 -11 11 -34 11 -51 0 -17 5 -31 10 -31 6 0 10 -45 10 -115 0
-70 -4 -115 -10 -115 -6 0 -10 40 -10 100 0 60 -4 100 -10 100 -5 0 -10 11
-10 24 0 27 -38 63 -77 72 -12 4 -23 10 -23 15 0 5 -9 9 -20 9 -11 0 -20 4
-20 8 0 10 -103 42 -135 42 -14 0 -25 5 -25 10 0 6 -7 10 -15 10 -8 0 -15 5
-15 11 0 7 -46 8 -142 5 -167 -5 -258 -15 -258 -26 0 -4 -15 -10 -32 -13 -67
-11 -128 -29 -128 -38 0 -5 -16 -9 -35 -9 -19 0 -35 -3 -35 -7 0 -5 -26 -21
-58 -38 -31 -16 -58 -33 -60 -37 -2 -5 -12 -8 -23 -8 -10 0 -19 -4 -19 -10 0
-5 -16 -12 -35 -16 -19 -3 -35 -10 -35 -15 0 -5 -11 -9 -25 -9 -15 0 -25 -6
-25 -14 0 -8 -5 -16 -11 -18 -15 -5 -16 -81 -1 -86 7 -2 12 -14 12 -27 0 -25
30 -85 43 -85 4 0 7 -5 7 -11 0 -11 93 -109 104 -109 4 0 14 -6 21 -12 8 -7
21 -19 29 -25 8 -7 40 -13 71 -13 30 0 55 -4 55 -10 0 -6 33 -10 80 -10 44 0
80 -4 80 -9 0 -5 15 -13 32 -17 18 -3 40 -15 49 -25 9 -11 20 -19 23 -19 4 0
14 -6 21 -12 30 -27 44 -38 50 -38 3 0 17 -11 31 -25 14 -14 29 -25 34 -25 5
0 11 -8 14 -17 6 -18 58 -53 80 -53 6 0 18 -9 26 -20 10 -14 26 -20 52 -20 21
0 38 4 38 9 0 5 9 13 20 16 11 3 20 15 20 26 0 10 7 19 15 19 9 0 15 9 15 23
0 12 9 29 20 37 11 8 20 21 20 28 0 9 6 12 15 8 19 -7 55 14 55 31 0 7 5 13
10 13 6 0 10 10 10 23 0 12 4 28 9 36 14 22 41 -10 41 -48 0 -17 5 -31 10 -31
6 0 10 -18 10 -40 0 -22 -4 -40 -10 -40 -5 0 -10 -13 -10 -29 0 -16 -5 -31
-12 -33 -10 -4 -20 -78 -20 -155 1 -18 -4 -33 -9 -33 -5 0 -9 -7 -9 -15 0 -8
-4 -15 -10 -15 -5 0 -10 -18 -10 -41 0 -23 -7 -47 -15 -56 -9 -9 -13 -23 -10
-34 4 -11 0 -26 -7 -34 -32 -36 -38 -45 -38 -64 0 -11 -6 -21 -12 -24 -7 -2
-10 -8 -6 -12 7 -7 38 17 38 30 0 7 14 24 48 60 12 13 22 27 22 30 0 7 14 24
48 60 12 13 22 29 22 35 0 5 4 10 9 10 5 0 12 11 15 25 4 14 11 25 16 25 6 0
10 9 10 20 0 11 4 20 9 20 5 0 12 20 15 44 4 23 16 53 28 66 16 17 18 24 8 30
-11 7 -11 14 0 42 8 18 17 35 20 38 12 10 60 103 60 116 0 8 5 14 10 14 6 0
10 11 10 25 0 14 4 25 9 25 5 0 12 11 15 25 4 14 11 25 16 25 6 0 10 11 10 24
0 13 4 26 8 28 11 4 62 98 62 114 0 8 5 14 10 14 6 0 10 16 10 35 0 19 5 35
10 35 6 0 10 11 10 24 0 14 -4 28 -10 31 -5 3 -10 22 -10 42 0 28 -8 43 -35
69 -19 18 -35 37 -35 43 0 6 -4 11 -10 11 -5 0 -10 7 -10 15 0 8 -11 25 -25
39 -14 14 -25 34 -25 46 0 11 -4 20 -10 20 -5 0 -10 7 -10 15 0 9 -8 19 -17
22 -23 9 -33 23 -33 51 0 15 -6 22 -20 22 -23 0 -26 10 -8 28 9 9 6 12 -15 12
-25 0 -27 3 -27 45 0 36 -6 52 -25 71 -14 14 -25 36 -25 49 0 14 -4 25 -10 25
-5 0 -10 11 -10 25 0 25 -1 25 -80 25 -47 0 -80 4 -80 10 0 17 -25 11 -40 -10
-8 -12 -26 -20 -42 -20 -24 0 -27 4 -34 45 -6 45 -7 45 -46 45 -32 0 -45 -6
-72 -35 -32 -33 -66 -46 -66 -25 0 6 -22 10 -50 10 -27 0 -50 -4 -50 -10 0
-14 -37 -12 -44 3 -5 10 -7 10 -12 0 -3 -7 -12 -13 -20 -13 -8 0 -14 -4 -14
-8 0 -14 -64 -32 -112 -32 -37 0 -47 4 -51 20 -3 12 -14 20 -26 20 -12 0 -21
4 -21 9 0 5 -10 11 -22 13 -20 3 -23 10 -26 61 -2 31 -7 57 -12 57 -6 0 -10
-4 -10 -10z m568 -721 c18 -10 39 -19 47 -19 7 0 15 -4 17 -10 2 -5 22 -11 46
-13 31 -2 49 -10 67 -29 14 -15 25 -32 25 -38 0 -5 5 -10 10 -10 6 0 10 -9 10
-19 0 -11 5 -21 11 -23 14 -5 23 -78 15 -132 -6 -35 -17 -55 -56 -95 -55 -57
-80 -65 -80 -26 0 14 5 25 10 25 15 0 12 39 -4 56 -8 8 -24 14 -35 14 -12 0
-21 5 -21 10 0 6 11 10 25 10 14 0 25 -4 25 -10 0 -5 9 -10 20 -10 33 0 24 34
-15 54 -19 11 -35 23 -35 28 0 4 -9 8 -20 8 -11 0 -20 5 -20 10 0 6 -18 10
-40 10 -22 0 -57 7 -77 15 -19 8 -44 15 -54 15 -11 0 -19 5 -19 10 0 6 -13 10
-30 10 -16 0 -30 -4 -30 -10 0 -5 -11 -10 -25 -10 -14 0 -25 5 -25 10 0 6 -16
10 -35 10 -19 0 -35 5 -35 10 0 6 -7 10 -15 10 -8 0 -15 -4 -15 -10 0 -5 -7
-10 -15 -10 -8 0 -15 -4 -15 -10 0 -5 -13 -10 -30 -10 -16 0 -30 5 -30 10 0 6
-11 10 -25 10 -14 0 -25 -4 -25 -10 0 -15 -117 -13 -123 3 -4 9 -8 8 -17 -3
-9 -11 -13 -12 -17 -2 -6 14 -53 17 -53 2 0 -5 -16 -10 -35 -10 -30 0 -35 3
-35 23 0 36 32 67 69 67 17 0 31 -4 31 -10 0 -5 5 -10 10 -10 6 0 10 9 10 20
0 11 5 20 10 20 6 0 10 7 10 15 0 8 6 15 14 15 8 0 17 6 19 13 4 8 8 9 14 1 4
-6 23 -14 40 -17 27 -5 37 -2 60 21 25 25 34 27 108 28 44 1 92 5 108 9 15 4
46 3 70 -3 33 -9 53 -8 87 3 49 15 69 12 118 -16z m-1128 -99 c0 -5 -4 -10
-10 -10 -5 0 -10 5 -10 10 0 6 5 10 10 10 6 0 10 -4 10 -10z m465 -90 c3 -5 1
-10 -4 -10 -6 0 -11 5 -11 10 0 6 2 10 4 10 3 0 8 -4 11 -10z m-485 -25 c0 -8
-7 -15 -15 -15 -16 0 -20 12 -8 23 11 12 23 8 23 -8z m-40 -15 c0 -16 -7 -20
-35 -20 -38 0 -41 4 -22 25 19 22 57 19 57 -5z m1250 -120 c0 -11 -4 -20 -10
-20 -5 0 -10 9 -10 20 0 11 5 20 10 20 6 0 10 -9 10 -20z m350 -100 c0 -5 -4
-10 -10 -10 -5 0 -10 5 -10 10 0 6 5 10 10 10 6 0 10 -4 10 -10z m-2190 -190
c0 -5 -4 -10 -10 -10 -5 0 -10 5 -10 10 0 6 5 10 10 10 6 0 10 -4 10 -10z
m-420 -20 c0 -5 -4 -10 -10 -10 -5 0 -10 5 -10 10 0 6 5 10 10 10 6 0 10 -4
10 -10z m700 -14 c0 -8 3 -21 6 -30 4 -11 1 -16 -10 -16 -11 0 -16 9 -16 30 0
17 5 30 10 30 6 0 10 -6 10 -14z m-230 -27 c0 -10 -6 -19 -14 -19 -19 0 -30
31 -14 41 17 10 28 2 28 -22z m320 16 c0 -8 -4 -15 -10 -15 -5 0 -10 7 -10 15
0 8 5 15 10 15 6 0 10 -7 10 -15z m-340 -75 c0 -5 -7 -10 -15 -10 -8 0 -15 5
-15 10 0 6 7 10 15 10 8 0 15 -4 15 -10z m137 -116 c-3 -3 -12 -4 -19 -1 -8 3
-5 6 6 6 11 1 17 -2 13 -5z m43 -44 c0 -5 -7 -10 -15 -10 -8 0 -15 5 -15 10 0
6 7 10 15 10 8 0 15 -4 15 -10z m190 -211 c0 -5 -11 -9 -25 -9 -24 0 -32 10
-19 22 8 8 44 -3 44 -13z m-1520 -209 c0 -5 -20 -10 -45 -10 -25 0 -45 5 -45
10 0 6 20 10 45 10 25 0 45 -4 45 -10z m360 -257 c0 -5 -4 -14 -9 -22 -8 -12
-12 -12 -25 2 -22 22 -20 27 9 27 14 0 25 -3 25 -7z m810 -3 c0 -5 -9 -10 -20
-10 -11 0 -20 5 -20 10 0 6 9 10 20 10 11 0 20 -4 20 -10z m-770 -20 c0 -5 -4
-10 -10 -10 -5 0 -10 5 -10 10 0 6 5 10 10 10 6 0 10 -4 10 -10z m700 0 c0 -5
-4 -10 -10 -10 -5 0 -10 5 -10 10 0 6 5 10 10 10 6 0 10 -4 10 -10z m250 -115
c0 -8 -4 -15 -10 -15 -5 0 -10 7 -10 15 0 8 5 15 10 15 6 0 10 -7 10 -15z
m-880 -45 c0 -5 -7 -10 -16 -10 -8 0 -12 5 -9 10 3 6 10 10 16 10 5 0 9 -4 9
-10z m840 -5 c0 -16 -9 -19 -35 -9 -13 5 -14 8 -3 15 20 13 38 11 38 -6z
m-800 -25 c0 -5 -9 -10 -20 -10 -11 0 -20 5 -20 10 0 6 9 10 20 10 11 0 20 -4
20 -10z m-80 -14 c0 -2 -3 -11 -6 -20 -9 -23 -24 -20 -24 4 0 11 7 20 15 20 8
0 15 -2 15 -4z m40 -56 c0 -5 -9 -10 -20 -10 -11 0 -20 5 -20 10 0 6 9 10 20
10 11 0 20 -4 20 -10z m810 -20 c0 -5 -4 -10 -10 -10 -5 0 -10 5 -10 10 0 6 5
10 10 10 6 0 10 -4 10 -10z m-410 -31 c0 -5 -7 -9 -15 -9 -8 0 -15 -4 -15 -10
0 -5 -4 -10 -10 -10 -18 0 -11 38 8 43 20 4 32 -1 32 -14z m-380 -129 c0 -5
-4 -10 -10 -10 -5 0 -10 5 -10 10 0 6 5 10 10 10 6 0 10 -4 10 -10z m308 -16
c14 -4 22 -14 22 -28 0 -32 -7 -36 -41 -24 -21 7 -29 16 -29 34 0 25 9 28 48
18z m-8 -84 c0 -5 -9 -10 -20 -10 -11 0 -20 5 -20 10 0 6 9 10 20 10 11 0 20
-4 20 -10z m37 -55 c8 -9 12 -19 9 -23 -4 -3 -12 0 -17 8 -8 11 -12 12 -16 3
-5 -13 -33 -18 -33 -7 0 6 31 33 38 34 2 0 10 -7 19 -15z m1673 -156 c0 -5 -7
-9 -15 -9 -8 0 -15 -7 -15 -15 0 -8 -4 -15 -10 -15 -5 0 -10 -8 -10 -18 0 -25
-7 -31 -31 -25 -19 5 -28 53 -10 53 5 0 12 9 16 19 8 27 75 36 75 10z m-1750
-24 c0 -8 -4 -15 -10 -15 -5 0 -10 7 -10 15 0 8 5 15 10 15 6 0 10 -7 10 -15z
m1741 -52 c3 -53 -4 -118 -12 -121 -5 -2 -9 -12 -9 -23 0 -23 -6 -24 -28 -2
-12 12 -13 18 -4 21 6 2 12 15 12 28 0 13 5 24 10 24 6 0 10 5 10 10 0 6 -9
10 -20 10 -11 0 -20 7 -20 16 0 11 6 14 20 9 16 -5 20 -2 20 19 0 29 19 36 21
9z m-71 -63 c0 -5 -9 -10 -20 -10 -11 0 -20 5 -20 10 0 6 9 10 20 10 11 0 20
-4 20 -10z m-40 -55 c0 -16 -6 -25 -15 -25 -8 0 -15 -6 -15 -13 0 -7 -9 -19
-20 -27 -11 -8 -20 -25 -20 -37 0 -13 -3 -23 -8 -23 -4 0 -16 -16 -26 -35 -11
-19 -23 -35 -28 -35 -17 0 -7 42 17 68 14 15 25 32 25 39 0 7 5 13 10 13 6 0
10 9 10 21 0 22 22 49 39 49 6 0 11 7 11 15 0 8 5 15 10 15 6 0 10 -11 10 -25z
m90 -85 c0 -5 -4 -10 -10 -10 -5 0 -10 5 -10 10 0 6 5 10 10 10 6 0 10 -4 10
-10z m0 -70 c0 -5 -4 -10 -10 -10 -5 0 -10 5 -10 10 0 6 5 10 10 10 6 0 10 -4
10 -10z m0 -50 c0 -5 -4 -10 -10 -10 -5 0 -10 5 -10 10 0 6 5 10 10 10 6 0 10
-4 10 -10z"/>
<path d="M14340 3673 c0 -13 5 -23 10 -23 13 0 13 11 0 30 -8 12 -10 11 -10
-7z"/>
<path d="M5384 3659 c-4 -7 -9 -43 -12 -80 -4 -59 -7 -69 -23 -69 -16 0 -19 8
-19 59 0 92 -15 111 -56 73 -10 -9 -38 -26 -61 -36 -24 -11 -43 -23 -43 -28 0
-4 -5 -8 -11 -8 -11 0 -21 -9 -62 -58 -23 -29 -27 -42 -27 -101 0 -64 9 -91
46 -128 15 -15 94 -17 94 -3 0 6 -4 10 -10 10 -17 0 -11 20 15 45 13 14 27 25
30 25 3 0 18 11 33 25 15 14 32 25 39 25 18 0 16 -61 -3 -88 -13 -20 -14 -24
0 -37 8 -8 29 -15 46 -15 27 0 30 3 25 20 -5 16 -2 20 14 20 12 0 21 7 21 15
0 8 9 15 20 15 11 0 20 2 20 4 0 15 -24 66 -31 66 -5 0 -9 9 -9 20 0 11 -4 20
-10 20 -5 0 -10 11 -10 25 0 14 5 25 10 25 6 0 10 5 10 10 0 6 11 22 25 36 45
45 25 124 -33 124 -11 0 -24 -5 -28 -11z"/>
<path d="M10497 3360 c3 -11 7 -20 9 -20 2 0 4 9 4 20 0 11 -4 20 -9 20 -5 0
-7 -9 -4 -20z"/>
<path d="M10610 3320 c0 -11 5 -20 10 -20 6 0 10 9 10 20 0 11 -4 20 -10 20
-5 0 -10 -9 -10 -20z"/>
<path d="M5400 3260 c0 -5 5 -10 10 -10 6 0 10 5 10 10 0 6 -4 10 -10 10 -5 0
-10 -4 -10 -10z"/>
<path d="M5510 3220 c0 -11 7 -20 15 -20 8 0 15 6 15 14 0 8 6 17 13 19 6 3 0
6 -15 6 -22 1 -28 -4 -28 -19z"/>
<path d="M5072 3203 c2 -13 14 -19 38 -20 19 -1 29 0 23 3 -7 3 -13 12 -13 20
0 8 -10 14 -26 14 -19 0 -25 -5 -22 -17z"/>
<path d="M5436 3115 c-3 -8 -15 -15 -26 -15 -12 0 -18 -4 -15 -10 10 -16 45
-12 71 9 20 16 21 20 8 25 -24 9 -31 7 -38 -9z"/>
<path d="M5260 3090 c0 -5 9 -10 20 -10 11 0 20 5 20 10 0 6 -9 10 -20 10 -11
0 -20 -4 -20 -10z"/>
<path d="M6150 2740 c0 -5 5 -10 10 -10 6 0 10 5 10 10 0 6 -4 10 -10 10 -5 0
-10 -4 -10 -10z"/>
<path d="M6251 2734 c-12 -14 -12 -17 0 -25 20 -13 29 -11 35 6 4 8 15 15 25
15 10 0 19 5 19 10 0 16 -64 11 -79 -6z"/>
<path d="M6170 2650 c0 -5 5 -10 10 -10 6 0 10 5 10 10 0 6 -4 10 -10 10 -5 0
-10 -4 -10 -10z"/>
<path d="M9233 2613 c-17 -6 -16 -38 1 -52 22 -18 46 -2 46 30 0 29 -15 36
-47 22z"/>
<path d="M9430 2600 c0 -5 5 -10 10 -10 6 0 10 5 10 10 0 6 -4 10 -10 10 -5 0
-10 -4 -10 -10z"/>
<path d="M6163 2575 c-7 -8 -13 -23 -13 -35 0 -16 6 -20 31 -20 38 0 70 27 48
41 -8 5 -20 9 -26 9 -7 0 -13 5 -13 10 0 14 -13 12 -27 -5z"/>
<path d="M5960 2440 c0 -5 5 -10 10 -10 6 0 10 5 10 10 0 6 -4 10 -10 10 -5 0
-10 -4 -10 -10z"/>
<path d="M9350 2390 c0 -5 5 -10 10 -10 6 0 10 5 10 10 0 6 -4 10 -10 10 -5 0
-10 -4 -10 -10z"/>
<path d="M6750 2355 c0 -27 1 -28 24 -19 24 9 20 44 -4 44 -15 0 -20 -7 -20
-25z"/>
<path d="M9050 2250 c0 -5 11 -10 25 -10 14 0 25 5 25 10 0 6 -11 10 -25 10
-14 0 -25 -4 -25 -10z"/>
<path d="M7566 2233 c-10 -10 -7 -63 4 -63 6 0 10 -9 10 -20 0 -13 -7 -20 -20
-20 -13 0 -20 -7 -20 -18 0 -10 -4 -22 -9 -27 -5 -6 -11 -19 -15 -30 -8 -28
54 -95 88 -95 15 0 26 -4 26 -10 0 -5 -4 -10 -10 -10 -5 0 -10 -11 -10 -25 0
-14 5 -25 10 -25 6 0 10 -7 10 -15 0 -8 3 -15 8 -15 4 0 16 -17 27 -37 25 -50
25 -49 34 -34 6 9 14 10 22 5 21 -13 36 -15 131 -20 66 -4 93 -1 110 10 13 8
38 17 56 21 37 8 102 64 102 89 0 9 4 16 8 16 5 0 17 16 28 35 10 19 22 35 26
35 5 0 8 18 8 40 0 24 5 40 12 40 6 0 9 2 6 5 -3 3 -32 2 -64 -3 -58 -10 -152
4 -196 29 -10 5 -31 9 -48 9 -16 0 -30 5 -30 10 0 6 -7 10 -15 10 -8 0 -15 6
-15 13 0 15 -55 37 -93 37 -15 0 -27 5 -27 10 0 6 -13 10 -28 10 -15 0 -34 6
-40 12 -10 10 -15 10 -23 -2 -8 -13 -13 -11 -33 12 -13 15 -27 24 -30 21z"/>
<path d="M9330 2229 c0 -6 7 -17 15 -25 12 -12 18 -12 35 -2 32 20 25 38 -15
38 -19 0 -35 -5 -35 -11z"/>
<path d="M5005 2200 c3 -5 8 -10 11 -10 2 0 4 5 4 10 0 6 -5 10 -11 10 -5 0
-7 -4 -4 -10z"/>
<path d="M6700 2180 c0 -5 5 -10 10 -10 6 0 10 5 10 10 0 6 -4 10 -10 10 -5 0
-10 -4 -10 -10z"/>
<path d="M4910 2110 c0 -5 5 -10 10 -10 6 0 10 5 10 10 0 6 -4 10 -10 10 -5 0
-10 -4 -10 -10z"/>
<path d="M6531 2104 c-7 -8 -11 -17 -8 -20 6 -7 57 18 57 28 0 14 -34 8 -49
-8z"/>
<path d="M8890 2100 c0 -11 2 -20 4 -20 2 0 11 -3 19 -6 15 -5 47 20 47 37 0
5 -16 9 -35 9 -28 0 -35 -4 -35 -20z"/>
<path d="M9450 2110 c0 -5 5 -10 10 -10 6 0 10 5 10 10 0 6 -4 10 -10 10 -5 0
-10 -4 -10 -10z"/>
<path d="M9282 2071 c2 -7 7 -12 11 -12 12 1 9 15 -3 20 -7 2 -11 -2 -8 -8z"/>
<path d="M5560 2060 c0 -5 5 -10 10 -10 6 0 10 5 10 10 0 6 -4 10 -10 10 -5 0
-10 -4 -10 -10z"/>
<path d="M7240 2030 c0 -16 4 -30 10 -30 5 0 9 -8 8 -17 -3 -44 3 -73 16 -73
8 0 16 -6 19 -12 2 -7 8 -10 12 -6 4 4 0 19 -9 32 -9 14 -16 39 -16 56 0 16
-4 30 -10 30 -5 0 -10 11 -10 25 0 14 -4 25 -10 25 -5 0 -10 -13 -10 -30z"/>
<path d="M9602 2002 c-17 -12 -4 -42 18 -42 22 0 35 30 18 42 -7 4 -15 8 -18
8 -3 0 -11 -4 -18 -8z"/>
<path d="M9285 1910 c-9 -15 7 -40 26 -40 26 0 25 36 -1 43 -11 3 -22 1 -25
-3z"/>
<path d="M6820 1830 c0 -5 5 -10 10 -10 6 0 10 5 10 10 0 6 -4 10 -10 10 -5 0
-10 -4 -10 -10z"/>
<path d="M5840 1760 c0 -5 5 -10 10 -10 6 0 10 5 10 10 0 6 -4 10 -10 10 -5 0
-10 -4 -10 -10z"/>
<path d="M9570 1585 c0 -8 4 -15 10 -15 5 0 7 7 4 15 -4 8 -8 15 -10 15 -2 0
-4 -7 -4 -15z"/>
<path d="M9260 1565 c0 -14 5 -25 10 -25 6 0 10 5 10 10 0 6 7 10 15 10 8 0
15 7 15 15 0 9 -9 15 -25 15 -20 0 -25 -5 -25 -25z"/>
<path d="M5960 1500 c0 -5 5 -10 10 -10 6 0 10 5 10 10 0 6 -4 10 -10 10 -5 0
-10 -4 -10 -10z"/>
<path d="M9383 1304 c-31 -34 -29 -44 7 -44 28 0 30 3 30 35 0 42 -7 43 -37 9z"/>
<path d="M6096 1284 c-9 -23 -8 -24 15 -24 19 0 49 21 49 34 0 14 -58 5 -64
-10z"/>
<path d="M5800 1180 c0 -5 5 -10 11 -10 5 0 7 5 4 10 -3 6 -8 10 -11 10 -2 0
-4 -4 -4 -10z"/>
<path d="M5840 1110 c0 -5 5 -10 10 -10 6 0 10 5 10 10 0 6 -4 10 -10 10 -5 0
-10 -4 -10 -10z"/>
<path d="M5816 1054 c-10 -26 -7 -30 27 -29 37 0 53 18 20 23 -13 2 -23 8 -23
13 0 15 -17 10 -24 -7z"/>
<path d="M5783 1023 c-7 -3 -13 -11 -13 -18 0 -7 -6 -16 -12 -18 -7 -3 1 -6
19 -6 17 -1 35 -5 38 -11 6 -10 45 -14 45 -4 0 8 -27 34 -36 34 -4 0 -12 6
-18 14 -6 7 -17 12 -23 9z"/>
<path d="M5713 953 c-16 -6 -17 -23 -2 -23 14 0 39 -25 39 -39 0 -6 5 -11 10
-11 15 0 12 -47 -2 -53 -7 -3 -3 -6 8 -6 25 -1 51 24 34 34 -5 3 -10 22 -10
41 0 30 -3 34 -19 29 -13 -4 -20 0 -24 15 -5 20 -12 23 -34 13z"/>
<path d="M5770 775 c0 -8 5 -15 10 -15 6 0 10 7 10 15 0 8 -4 15 -10 15 -5 0
-10 -7 -10 -15z"/>
</g>
</svg>
