<?xml version="1.0" standalone="no"?>
<!DOCTYPE svg PUBLIC "-//W3C//DTD SVG 20010904//EN"
 "http://www.w3.org/TR/2001/REC-SVG-20010904/DTD/svg10.dtd">
<svg version="1.0" xmlns="http://www.w3.org/2000/svg"
 width="964.000000pt" height="960.000000pt" viewBox="0 0 964.000000 960.000000"
 preserveAspectRatio="xMidYMid meet">

<g transform="translate(0.000000,960.000000) scale(0.100000,-0.100000)"
fill="#000000" stroke="none">
<path d="M4940 8720 c0 -6 -26 -10 -58 -10 -46 0 -60 -4 -72 -20 -10 -14 -26
-20 -52 -20 -21 0 -38 -4 -38 -10 0 -5 -13 -10 -30 -10 -16 0 -30 -4 -30 -10
0 -5 -13 -10 -30 -10 -16 0 -30 -4 -30 -10 0 -6 -27 -10 -60 -10 -33 0 -60 4
-60 10 0 6 -9 10 -20 10 -11 0 -20 -4 -20 -10 0 -5 -13 -10 -30 -10 -16 0 -30
-4 -30 -10 0 -5 -13 -10 -28 -10 -16 0 -34 -8 -42 -20 -8 -11 -25 -20 -38 -20
-14 0 -36 -13 -52 -30 -27 -29 -80 -42 -80 -20 0 6 -17 10 -38 10 -26 0 -42
-6 -52 -20 -8 -11 -20 -20 -28 -20 -18 0 -42 -25 -42 -44 0 -9 -4 -16 -10 -16
-5 0 -10 -13 -10 -30 0 -16 -4 -30 -10 -30 -5 0 -10 -9 -10 -20 0 -11 -4 -20
-10 -20 -5 0 -10 -9 -10 -20 0 -11 -4 -20 -10 -20 -5 0 -10 -12 -10 -26 0 -29
-21 -54 -44 -54 -9 0 -16 -8 -16 -20 0 -11 -4 -20 -10 -20 -5 0 -10 9 -10 20
0 19 -7 20 -100 20 -60 0 -100 -4 -100 -10 0 -5 -22 -10 -48 -10 -36 0 -51 5
-62 20 -15 21 -50 28 -50 10 0 -6 -27 -10 -60 -10 -33 0 -60 -4 -60 -10 0 -5
-9 -10 -20 -10 -11 0 -20 -4 -20 -10 0 -5 -9 -10 -20 -10 -11 0 -20 -4 -20
-10 0 -5 -7 -10 -15 -10 -14 0 -145 -122 -145 -135 0 -3 9 -5 20 -5 11 0 20 5
20 10 0 6 9 10 20 10 11 0 20 -4 20 -10 0 -5 -9 -10 -20 -10 -12 0 -20 -7 -20
-16 0 -20 -24 -44 -43 -44 -9 0 -18 -6 -21 -12 -5 -10 -7 -10 -12 0 -10 21
-24 13 -24 -14 0 -17 -14 -39 -40 -64 -22 -21 -40 -46 -40 -54 0 -9 -4 -16
-10 -16 -5 0 -10 -9 -10 -20 0 -11 -4 -20 -10 -20 -5 0 -10 -9 -10 -20 0 -11
-4 -20 -10 -20 -5 0 -10 -13 -10 -30 0 -16 -4 -30 -10 -30 -6 0 -10 -27 -10
-60 0 -33 4 -60 10 -60 6 0 10 23 10 50 0 28 5 50 10 50 6 0 10 9 10 20 0 11
5 20 10 20 6 0 10 -25 10 -56 0 -35 5 -61 14 -70 21 -21 26 -18 26 16 0 30 14
40 24 18 5 -10 7 -10 12 0 8 17 24 15 24 -4 0 -8 -18 -33 -40 -54 -22 -21 -40
-46 -40 -54 0 -9 -4 -16 -10 -16 -5 0 -10 -9 -10 -19 0 -11 -6 -21 -12 -24 -7
-2 -9 -8 -5 -13 4 -5 13 -2 18 6 8 11 12 12 16 3 7 -19 23 -16 23 5 0 10 9 24
20 32 11 8 20 20 20 28 0 13 23 42 34 42 3 0 6 -9 6 -20 0 -11 -4 -20 -10 -20
-5 0 -10 -8 -10 -18 0 -10 -9 -24 -20 -32 -11 -8 -20 -22 -20 -32 0 -10 -4
-18 -10 -18 -5 0 -10 -13 -10 -30 0 -16 -4 -30 -10 -30 -5 0 -10 -18 -10 -40
0 -22 -4 -40 -10 -40 -5 0 -10 -9 -10 -20 0 -13 7 -20 20 -20 13 0 20 7 20 20
0 11 5 20 10 20 6 0 10 7 10 15 0 15 42 65 55 65 14 0 3 -37 -15 -50 -15 -11
-20 -26 -20 -62 0 -26 5 -48 10 -48 6 0 10 9 10 20 0 11 5 20 10 20 6 0 10
-18 10 -40 0 -22 5 -40 10 -40 6 0 10 23 10 50 0 28 -4 50 -10 50 -5 0 -10 9
-10 20 0 11 5 20 10 20 6 0 10 9 10 20 0 11 5 20 10 20 6 0 10 7 10 16 0 15
23 44 34 44 3 0 6 -13 6 -30 0 -16 -4 -30 -10 -30 -6 0 -10 -26 -10 -59 0 -38
-5 -61 -12 -65 -10 -5 -10 -7 0 -12 14 -7 17 -64 2 -64 -5 0 -10 -9 -10 -20 0
-11 -4 -20 -10 -20 -15 0 -12 -49 4 -66 8 -8 22 -14 30 -14 9 0 16 -8 16 -20
0 -11 5 -20 10 -20 6 0 10 -22 10 -50 0 -27 -4 -50 -10 -50 -5 0 -10 -13 -10
-30 0 -16 5 -30 10 -30 6 0 10 -13 10 -30 0 -16 -4 -30 -10 -30 -18 0 -11 -35
10 -50 11 -8 20 -21 20 -28 0 -8 14 -27 30 -42 18 -17 30 -38 30 -54 0 -14 5
-26 10 -26 6 0 10 -18 10 -40 0 -22 -4 -40 -10 -40 -5 0 -10 -9 -10 -20 0 -11
5 -20 10 -20 6 0 10 -9 10 -20 0 -11 5 -20 10 -20 6 0 10 -29 10 -68 0 -56 3
-70 20 -82 14 -10 20 -26 20 -52 0 -21 5 -38 10 -38 6 0 10 -9 10 -20 0 -11 5
-20 10 -20 6 0 10 -9 10 -20 0 -13 7 -20 20 -20 11 0 20 5 20 10 0 6 5 10 10
10 6 0 10 -9 10 -20 0 -22 16 -27 22 -8 3 9 9 8 21 -4 18 -18 23 -68 7 -68
-18 0 -10 -31 15 -55 13 -14 27 -25 30 -25 11 0 5 39 -7 44 -10 5 -10 7 0 12
15 7 18 224 2 224 -6 0 -10 47 -10 120 0 73 -4 120 -10 120 -5 0 -10 23 -10
50 0 28 5 50 10 50 6 0 10 30 10 70 0 40 4 70 10 70 6 0 10 9 10 20 0 11 -4
20 -10 20 -5 0 -10 9 -10 20 0 11 5 20 10 20 6 0 10 9 10 20 0 11 5 20 10 20
6 0 10 9 10 20 0 13 -7 20 -20 20 -11 0 -20 5 -20 10 0 6 -4 10 -10 10 -5 0
-10 -9 -10 -20 0 -11 -4 -20 -10 -20 -5 0 -10 -9 -10 -20 0 -11 -4 -20 -10
-20 -22 0 -9 53 20 80 23 21 30 37 30 64 0 20 5 36 10 36 6 0 10 7 10 16 0 9
9 25 21 35 19 17 20 20 5 34 -14 15 -18 15 -31 1 -8 -8 -15 -22 -15 -30 0 -9
-4 -16 -10 -16 -5 0 -10 9 -10 20 0 11 5 20 10 20 6 0 10 27 10 60 0 33 4 60
10 60 6 0 10 9 10 20 0 16 -7 20 -30 20 -16 0 -30 5 -30 10 0 6 7 10 16 10 23
0 44 25 44 54 0 14 5 26 10 26 6 0 10 9 10 20 0 11 5 20 10 20 6 0 10 14 10
30 0 17 5 30 10 30 6 0 10 9 10 19 0 11 6 22 13 24 9 4 8 8 -3 17 -11 9 -12
13 -2 17 6 2 12 11 12 19 0 26 107 124 135 124 14 0 25 5 25 10 0 6 9 10 20
10 11 0 20 5 20 10 0 6 33 10 80 10 47 0 80 4 80 10 0 6 14 10 30 10 17 0 30
5 30 10 0 6 9 10 19 10 11 0 22 6 25 13 5 10 7 10 12 0 3 -7 19 -13 35 -13 22
0 29 5 29 20 0 19 7 20 90 20 53 0 90 4 90 10 0 6 9 10 20 10 11 0 20 -4 20
-10 0 -5 23 -10 50 -10 28 0 50 -4 50 -10 0 -5 14 -10 30 -10 17 0 30 -4 30
-10 0 -5 9 -10 20 -10 11 0 20 -4 20 -10 0 -5 9 -10 20 -10 11 0 20 -4 20 -10
0 -5 9 -10 20 -10 11 0 20 -4 20 -10 0 -5 18 -10 40 -10 22 0 40 5 40 10 0 6
18 10 40 10 l40 0 0 -60 c0 -60 0 -60 29 -60 16 0 31 6 33 12 7 21 38 -17 38
-46 0 -14 5 -26 10 -26 6 0 10 -9 10 -20 0 -11 -4 -20 -10 -20 -5 0 -10 -13
-10 -29 0 -16 -6 -31 -12 -34 -9 -3 -6 -11 10 -24 12 -11 22 -23 22 -27 0 -12
-58 -6 -63 7 -2 7 -8 8 -13 3 -5 -5 -4 -11 4 -13 6 -3 12 -13 12 -24 0 -10 5
-19 10 -19 6 0 10 -18 10 -40 l0 -40 40 0 c22 0 40 5 40 10 0 6 -4 10 -10 10
-5 0 -10 9 -10 20 0 11 5 20 10 20 6 0 10 -4 10 -10 0 -5 9 -10 20 -10 13 0
20 -7 20 -20 0 -11 -4 -20 -10 -20 -5 0 -10 -4 -10 -10 0 -15 29 -12 46 4 16
17 19 46 4 46 -5 0 -10 9 -10 20 0 26 8 25 33 -2 13 -16 21 -19 24 -10 3 6 18
12 34 12 27 0 29 -2 29 -40 0 -46 21 -54 51 -19 16 19 20 20 34 6 17 -17 20
-47 5 -47 -5 0 -10 -9 -10 -20 0 -11 5 -20 10 -20 6 0 10 -4 10 -10 0 -5 -9
-10 -20 -10 -23 0 -28 -34 -7 -44 10 -5 10 -7 0 -12 -8 -3 -13 -25 -13 -55 0
-27 -4 -49 -10 -49 -5 0 -10 -4 -10 -10 0 -5 9 -10 20 -10 11 0 20 5 20 10 0
6 5 10 10 10 6 0 10 -9 10 -20 0 -17 -7 -20 -40 -20 l-40 0 0 40 c0 22 5 40
10 40 15 0 12 29 -4 46 -22 21 -26 17 -26 -25 0 -22 -6 -42 -12 -45 -10 -5
-10 -7 0 -12 20 -10 15 -44 -8 -44 -11 0 -20 -4 -20 -10 0 -5 5 -10 10 -10 6
0 10 -4 10 -10 0 -5 -13 -10 -30 -10 -23 0 -30 -4 -30 -20 0 -13 -7 -20 -20
-20 -13 0 -20 -7 -20 -20 0 -11 -4 -20 -10 -20 -5 0 -10 -7 -10 -15 0 -27 -47
-65 -80 -65 -34 0 -60 -19 -60 -44 0 -9 -8 -16 -20 -16 -11 0 -20 5 -20 10 0
6 5 10 10 10 6 0 10 14 10 30 0 17 -4 30 -10 30 -5 0 -10 -13 -10 -30 0 -16
-4 -30 -10 -30 -18 0 -11 -35 10 -50 16 -12 20 -26 20 -71 0 -36 5 -60 13 -63
10 -5 10 -7 0 -12 -15 -7 -17 -44 -3 -44 6 0 10 -9 10 -20 0 -11 5 -20 10 -20
6 0 10 -27 10 -60 0 -33 4 -60 10 -60 6 0 10 -22 10 -50 0 -27 5 -50 10 -50 6
0 10 -13 10 -30 0 -16 5 -30 10 -30 6 0 10 -18 10 -40 0 -38 14 -54 22 -28 3
9 10 7 24 -6 13 -14 15 -21 6 -24 -14 -4 -17 -62 -2 -62 6 0 10 -18 10 -40 0
-33 -3 -40 -20 -40 -13 0 -20 -7 -20 -20 0 -16 -7 -20 -36 -20 -38 0 -64 -18
-64 -44 0 -9 -4 -16 -10 -16 -5 0 -10 -18 -10 -40 0 -29 4 -40 15 -40 17 0
105 -84 105 -100 0 -18 73 -86 78 -72 6 20 31 14 60 -15 17 -17 22 -28 14 -31
-7 -2 -12 -23 -12 -53 0 -48 -1 -49 -30 -49 -16 0 -30 -4 -30 -10 0 -5 -22
-10 -50 -10 -27 0 -50 -4 -50 -10 0 -5 -22 -10 -49 -10 -30 0 -52 -5 -55 -12
-5 -10 -7 -10 -12 0 -7 14 -104 17 -104 2 0 -5 -9 -10 -20 -10 -11 0 -20 -4
-20 -10 0 -5 -9 -10 -20 -10 -11 0 -20 -4 -20 -10 0 -5 -9 -10 -20 -10 -11 0
-20 -4 -20 -10 0 -5 -9 -10 -20 -10 -11 0 -20 -4 -20 -10 0 -5 -9 -10 -20 -10
-11 0 -20 -4 -20 -10 0 -5 -9 -10 -20 -10 -11 0 -20 -4 -20 -10 0 -5 -9 -10
-20 -10 -11 0 -20 5 -20 10 0 6 -13 10 -30 10 -27 0 -30 -3 -30 -30 l0 -30 90
0 c53 0 90 4 90 10 0 6 9 10 20 10 11 0 20 5 20 10 0 6 23 10 50 10 28 0 50
-4 50 -10 0 -5 16 -10 36 -10 19 0 42 -6 50 -14 18 -19 18 -26 -2 -26 -45 0
-64 -101 -24 -130 15 -11 20 -26 20 -62 0 -47 1 -48 30 -48 17 0 30 -4 30 -10
0 -5 -4 -10 -10 -10 -5 0 -10 -4 -10 -10 0 -5 23 -10 50 -10 28 0 50 -4 50
-10 0 -5 9 -10 20 -10 11 0 20 5 20 10 0 6 14 10 30 10 23 0 30 -4 30 -20 0
-16 -7 -20 -30 -20 -23 0 -30 -5 -30 -19 0 -11 -6 -21 -12 -24 -8 -2 -9 -8 -4
-13 5 -5 11 -4 13 4 8 20 43 15 43 -7 0 -11 6 -21 13 -24 8 -3 5 -11 -10 -24
-27 -24 -29 -39 -9 -59 21 -21 26 -18 26 16 0 23 4 30 20 30 18 0 20 -7 20
-69 0 -46 4 -71 13 -75 10 -5 10 -7 0 -12 -7 -3 -13 -19 -13 -35 0 -22 -5 -29
-20 -29 -13 0 -20 -7 -20 -20 0 -16 -7 -20 -30 -20 -16 0 -30 -4 -30 -10 0 -5
-8 -10 -18 -10 -10 0 -24 -9 -32 -20 -11 -15 -26 -20 -61 -20 -28 0 -50 -5
-53 -12 -5 -10 -7 -10 -12 0 -10 20 -44 15 -44 -8 0 -13 7 -20 20 -20 12 0 20
-7 20 -16 0 -18 23 -44 40 -44 16 0 80 -67 80 -85 0 -8 -9 -15 -20 -15 -11 0
-20 -4 -20 -10 0 -5 5 -10 10 -10 15 0 12 -77 -2 -84 -10 -5 -10 -7 0 -12 8
-4 12 -31 12 -81 0 -65 3 -78 22 -94 l21 -19 -21 -19 c-28 -23 -29 -51 -2 -51
22 0 27 -15 8 -24 -10 -5 -10 -7 0 -12 6 -3 12 -13 12 -21 0 -9 9 -24 21 -34
19 -16 20 -20 6 -34 -9 -8 -23 -15 -31 -15 -9 0 -16 -4 -16 -10 0 -5 14 -10
30 -10 27 0 30 -3 30 -30 0 -16 -4 -30 -10 -30 -5 0 -10 -18 -10 -39 0 -22 -6
-42 -12 -45 -10 -5 -10 -7 0 -12 6 -3 12 -14 12 -25 0 -10 5 -19 10 -19 6 0
10 -13 10 -30 0 -16 5 -30 10 -30 6 0 10 -18 10 -40 0 -22 5 -40 10 -40 15 0
13 -97 -2 -102 -9 -3 -8 -10 5 -22 17 -17 19 -17 36 3 23 26 31 27 31 1 0 -11
-4 -20 -10 -20 -5 0 -10 -4 -10 -10 0 -5 9 -10 20 -10 13 0 20 7 20 20 0 13 7
20 20 20 16 0 20 7 20 30 0 28 2 30 40 30 22 0 40 -4 40 -10 0 -5 -13 -10 -30
-10 -23 0 -30 -4 -30 -20 0 -11 5 -20 10 -20 6 0 10 5 10 10 0 6 9 10 20 10
17 0 20 -7 20 -40 0 -22 5 -40 10 -40 6 0 10 -9 10 -20 0 -11 5 -20 10 -20 6
0 10 -9 10 -20 0 -11 -4 -20 -10 -20 -5 0 -10 -18 -10 -40 0 -22 5 -40 10 -40
6 0 10 5 10 10 0 6 23 10 50 10 28 0 50 5 50 10 0 6 14 10 30 10 17 0 30 5 30
10 0 6 14 10 30 10 17 0 30 5 30 10 0 6 9 10 20 10 11 0 20 5 20 10 0 6 14 10
30 10 17 0 30 5 30 10 0 6 9 10 20 10 11 0 20 5 20 10 0 6 9 10 20 10 11 0 20
5 20 10 0 6 13 10 29 10 16 0 31 6 34 13 2 6 8 9 12 5 9 -9 -19 -38 -37 -38
-8 0 -20 -9 -28 -20 -8 -12 -26 -20 -42 -20 -15 0 -28 -4 -28 -10 0 -5 -9 -10
-20 -10 -11 0 -20 -4 -20 -10 0 -5 -9 -10 -20 -10 -11 0 -20 -4 -20 -10 0 -5
5 -10 10 -10 6 0 10 -13 10 -30 0 -30 14 -41 23 -17 2 6 8 9 12 5 4 -4 -1 -15
-11 -25 -12 -13 -19 -14 -22 -5 -6 19 -22 14 -22 -8 0 -11 5 -20 10 -20 6 0
10 -9 10 -20 0 -11 -4 -20 -10 -20 -5 0 -10 9 -10 20 0 11 -4 20 -10 20 -5 0
-10 9 -10 20 0 11 5 20 10 20 6 0 10 9 10 20 0 11 -4 20 -10 20 -5 0 -10 -9
-10 -20 0 -11 -4 -20 -10 -20 -5 0 -10 9 -10 20 0 11 -4 20 -10 20 -5 0 -10
-9 -10 -19 0 -11 -6 -21 -12 -24 -8 -2 -9 -8 -4 -13 5 -5 11 -4 13 4 7 19 23
14 23 -8 0 -11 5 -20 10 -20 6 0 10 -9 10 -20 0 -11 -4 -20 -10 -20 -15 0 -12
-30 6 -47 13 -14 17 -14 25 -2 8 12 10 12 18 -1 6 -8 14 -11 18 -6 4 5 2 11
-4 13 -15 5 -18 43 -4 43 5 0 12 -6 15 -12 5 -10 7 -10 12 0 3 6 14 12 25 12
10 0 19 5 19 10 0 6 -9 10 -20 10 -11 0 -20 -4 -20 -10 0 -5 -4 -10 -10 -10
-15 0 -12 30 6 47 13 14 17 14 25 2 8 -12 10 -12 18 1 8 12 13 10 32 -10 14
-17 23 -21 26 -12 3 6 13 12 24 12 10 0 19 5 19 10 0 6 9 10 20 10 11 0 20 5
20 10 0 6 7 10 16 10 9 0 25 10 36 22 16 18 21 20 28 8 7 -11 15 -7 38 18 22
24 39 32 64 32 22 0 38 7 48 20 8 12 26 20 42 20 21 0 28 5 28 20 0 11 5 20
10 20 6 0 10 -4 10 -10 0 -5 5 -10 10 -10 6 0 10 7 10 16 0 20 24 44 43 44 9
0 17 6 19 12 3 9 10 7 24 -6 13 -14 15 -21 6 -24 -16 -5 -16 -39 1 -46 10 -5
10 -7 0 -12 -7 -3 -13 -14 -13 -25 0 -12 -7 -19 -20 -19 -13 0 -20 -7 -20 -20
0 -13 7 -20 20 -20 11 0 20 -4 20 -10 0 -18 -35 -11 -50 10 -18 26 -30 26 -30
0 0 -13 -7 -20 -20 -20 -11 0 -20 -4 -20 -10 0 -5 9 -10 20 -10 11 0 20 5 20
10 0 6 5 10 10 10 6 0 10 -9 10 -20 0 -13 -7 -20 -20 -20 -11 0 -20 -4 -20
-10 0 -5 -7 -10 -16 -10 -9 0 -29 -13 -44 -30 -15 -16 -35 -30 -44 -30 -9 0
-16 -4 -16 -10 0 -5 -9 -10 -20 -10 -11 0 -20 -4 -20 -10 0 -5 9 -10 20 -10
11 0 20 5 20 10 0 6 13 10 28 10 16 0 34 8 42 20 8 11 22 20 32 20 10 0 18 5
18 10 0 6 14 10 30 10 27 0 30 -3 30 -30 0 -23 -5 -30 -19 -30 -11 0 -21 6
-23 12 -3 9 -9 8 -21 -4 -22 -22 -21 -28 3 -28 11 0 20 -4 20 -10 0 -5 -18
-10 -40 -10 -33 0 -40 -3 -40 -20 0 -11 -4 -20 -10 -20 -5 0 -10 -4 -10 -10 0
-5 9 -10 20 -10 12 0 20 -7 20 -16 0 -20 24 -44 44 -44 9 0 16 -4 16 -10 0 -5
-13 -10 -30 -10 -23 0 -30 -4 -30 -20 0 -11 5 -20 10 -20 6 0 10 -9 10 -20 0
-11 5 -20 10 -20 6 0 10 -4 10 -10 0 -5 -7 -10 -16 -10 -26 0 -44 -26 -44 -64
0 -20 -4 -36 -10 -36 -5 0 -10 -4 -10 -10 0 -5 9 -10 20 -10 11 0 20 -4 20
-10 0 -5 9 -10 20 -10 11 0 20 -4 20 -10 0 -5 -22 -10 -50 -10 -27 0 -50 -4
-50 -10 0 -5 9 -10 20 -10 11 0 20 -4 20 -10 0 -5 -13 -10 -30 -10 -16 0 -30
-3 -30 -6 0 -14 31 -34 54 -34 19 0 26 -5 26 -20 0 -11 -4 -20 -10 -20 -6 0
-10 -33 -10 -80 0 -73 -2 -80 -20 -80 -13 0 -20 -7 -20 -20 0 -11 -4 -20 -10
-20 -5 0 -10 -18 -10 -40 0 -22 5 -40 10 -40 6 0 10 -9 10 -20 0 -13 -7 -20
-20 -20 -15 0 -20 -7 -20 -26 0 -29 -21 -54 -44 -54 -9 0 -16 -4 -16 -10 0 -5
9 -10 20 -10 11 0 20 5 20 10 0 6 5 10 10 10 14 0 12 -37 -2 -44 -10 -5 -10
-7 0 -12 14 -7 16 -44 2 -44 -5 0 -10 5 -10 10 0 6 -4 10 -10 10 -5 0 -10 -13
-10 -30 0 -16 5 -30 10 -30 6 0 10 -9 10 -20 0 -13 -7 -20 -20 -20 -11 0 -20
-3 -20 -6 0 -11 29 -34 44 -34 11 0 16 -9 16 -30 0 -16 -4 -30 -10 -30 -5 0
-10 9 -10 20 0 24 -6 25 -26 6 -9 -9 -14 -35 -14 -70 0 -49 2 -56 20 -56 27 0
25 -7 -12 -42 -26 -24 -29 -31 -17 -39 12 -8 12 -10 -1 -18 -8 -6 -11 -13 -7
-18 5 -4 12 -1 18 7 8 13 10 13 20 0 8 -11 12 -12 16 -2 2 6 18 12 34 12 16 0
29 5 29 10 0 6 7 10 16 10 25 0 44 26 44 60 0 38 -20 60 -54 60 -14 0 -26 5
-26 10 0 6 23 10 50 10 28 0 50 -4 50 -10 0 -5 5 -10 10 -10 6 0 10 23 10 50
0 28 5 50 10 50 6 0 10 -4 10 -10 0 -5 5 -10 10 -10 6 0 10 13 10 29 0 16 6
31 12 33 17 6 -14 38 -36 38 -9 0 -16 8 -16 20 0 26 8 25 33 -3 13 -15 21 -18
24 -9 3 6 13 12 24 12 25 0 24 12 -1 30 -28 20 -25 30 10 30 28 0 30 2 30 39
0 22 5 42 13 44 9 4 8 8 -3 17 -11 9 -12 13 -2 17 19 8 14 23 -8 23 -11 0 -20
2 -20 5 0 11 49 55 60 55 22 0 40 29 40 64 0 20 -4 36 -10 36 -5 0 -10 -9 -10
-20 0 -13 -7 -20 -20 -20 -11 0 -20 5 -20 10 0 6 5 10 10 10 6 0 10 9 10 20 0
16 7 20 30 20 30 0 40 14 18 24 -10 5 -10 7 0 12 6 3 12 14 12 25 0 10 5 19
10 19 6 0 10 14 10 30 0 17 5 30 10 30 6 0 10 5 10 10 0 6 -9 10 -20 10 -11 0
-20 5 -20 10 0 6 -9 10 -20 10 -13 0 -20 7 -20 20 0 11 -4 20 -10 20 -5 0 -10
5 -10 10 0 6 14 10 30 10 23 0 30 4 30 20 0 11 -4 20 -10 20 -5 0 -10 5 -10
10 0 6 14 10 30 10 29 0 30 1 30 50 0 28 5 50 10 50 6 0 10 9 10 20 0 11 5 20
10 20 6 0 10 5 10 10 0 6 -7 10 -16 10 -15 0 -44 23 -44 34 0 3 9 6 20 6 16 0
20 7 20 30 0 17 5 30 10 30 6 0 10 13 10 29 0 16 6 32 13 35 10 5 10 7 0 12
-19 9 -15 38 7 54 21 15 28 50 10 50 -5 0 -10 13 -10 29 0 16 -6 32 -12 35
-10 5 -10 7 0 12 6 3 12 14 12 24 0 10 -6 21 -12 24 -10 5 -10 7 0 12 6 3 12
14 12 25 0 10 5 19 10 19 6 0 10 5 10 10 0 6 -9 10 -20 10 -11 0 -20 4 -20 8
0 4 9 14 20 22 11 8 20 25 20 38 0 27 21 52 44 52 9 0 16 8 16 20 0 11 5 20
10 20 6 0 10 7 10 16 0 15 23 44 34 44 3 0 6 -9 6 -20 0 -11 5 -20 10 -20 6 0
10 -4 10 -10 0 -5 -13 -10 -30 -10 -23 0 -30 -4 -30 -20 0 -13 7 -20 20 -20
11 0 20 -4 20 -10 0 -5 -9 -10 -20 -10 -13 0 -20 -7 -20 -20 0 -22 16 -27 22
-8 3 9 10 7 24 -6 13 -14 15 -21 6 -24 -8 -2 -12 -25 -12 -63 0 -52 2 -59 20
-59 11 0 20 -4 20 -8 0 -4 -9 -14 -20 -22 -15 -11 -20 -26 -20 -62 0 -26 5
-48 10 -48 6 0 10 -9 10 -20 0 -13 -7 -20 -20 -20 -27 0 -26 -28 2 -52 19 -16
20 -21 8 -29 -11 -8 -12 -12 -2 -16 20 -8 14 -43 -8 -43 -16 0 -20 -7 -20 -30
0 -16 -4 -30 -10 -30 -5 0 -10 -18 -10 -40 0 -38 2 -40 30 -40 23 0 30 -4 30
-20 0 -13 7 -20 20 -20 11 0 20 -4 20 -10 0 -5 -13 -10 -30 -10 -28 0 -30 -3
-30 -36 0 -38 18 -64 44 -64 9 0 16 -4 16 -10 0 -5 -13 -10 -30 -10 -16 0 -30
5 -30 10 0 6 -18 10 -40 10 -22 0 -40 -4 -40 -10 0 -5 14 -10 30 -10 22 0 30
-5 30 -18 0 -10 9 -24 20 -32 28 -20 25 -30 -10 -30 -16 0 -30 -4 -30 -10 0
-5 9 -10 19 -10 11 0 22 -6 25 -12 5 -11 7 -11 12 0 9 19 24 14 24 -8 0 -16
-7 -20 -30 -20 -23 0 -30 -4 -30 -20 0 -13 7 -20 20 -20 11 0 20 -4 20 -10 0
-5 -4 -10 -10 -10 -18 0 -11 -35 10 -50 11 -8 20 -22 20 -32 0 -10 5 -18 10
-18 6 0 10 -9 10 -20 0 -11 -4 -20 -10 -20 -5 0 -10 -13 -10 -30 0 -16 5 -30
10 -30 6 0 10 5 10 10 0 6 5 10 10 10 6 0 10 -13 10 -30 0 -30 -14 -41 -23
-17 -4 9 -8 8 -16 -3 -9 -13 -12 -13 -20 -1 -8 12 -12 12 -25 -2 -25 -24 -20
-27 42 -27 46 0 60 4 72 20 8 11 18 20 22 20 13 0 9 -38 -4 -43 -9 -3 -6 -11
10 -24 26 -24 29 -53 6 -53 -9 0 -29 14 -44 30 -23 25 -36 30 -74 30 -39 0
-46 -3 -46 -20 0 -13 7 -20 18 -20 10 0 24 -9 32 -20 8 -11 18 -20 22 -20 4 0
8 9 8 20 0 11 5 20 10 20 6 0 10 -13 10 -30 0 -25 4 -30 25 -30 22 0 75 -39
75 -55 0 -3 -58 -5 -130 -5 -80 0 -130 -4 -130 -10 0 -5 9 -10 19 -10 11 0 22
-6 25 -12 5 -10 7 -10 12 0 7 14 44 16 44 2 0 -5 9 -10 20 -10 11 0 20 5 20
10 0 6 9 10 20 10 11 0 20 -4 20 -10 0 -5 12 -10 26 -10 35 0 54 -22 54 -64 0
-29 -4 -36 -20 -36 -13 0 -20 7 -20 20 0 11 -4 20 -10 20 -5 0 -10 9 -10 20 0
13 -7 20 -20 20 -13 0 -20 -7 -20 -20 0 -11 5 -20 10 -20 6 0 10 -9 10 -20 0
-13 7 -20 20 -20 13 0 20 -7 20 -20 0 -13 -7 -20 -20 -20 -11 0 -20 -4 -20
-10 0 -5 7 -10 16 -10 8 0 23 -7 31 -16 13 -13 14 -17 3 -24 -11 -7 -6 -16 21
-41 21 -20 29 -34 22 -36 -17 -6 -17 -60 -1 -65 8 -3 2 -15 -17 -33 -18 -19
-30 -25 -33 -17 -4 14 -62 16 -62 2 0 -5 -9 -10 -20 -10 -11 0 -20 -4 -20 -10
0 -5 9 -10 20 -10 11 0 20 -4 20 -10 0 -5 9 -10 20 -10 11 0 20 5 20 10 0 6
-9 10 -20 10 -11 0 -20 5 -20 10 0 6 14 10 30 10 27 0 30 -3 30 -30 0 -23 -4
-30 -20 -30 -13 0 -20 -7 -20 -18 0 -10 9 -24 20 -32 24 -17 26 -30 4 -30 -8
0 -23 -7 -31 -16 -14 -13 -14 -17 -2 -24 11 -7 9 -13 -10 -29 l-24 -21 21 -19
c23 -19 30 -51 12 -51 -14 0 -12 -38 3 -43 8 -3 4 -12 -13 -27 -17 -15 -21
-24 -12 -27 19 -7 14 -23 -8 -23 -16 0 -20 -7 -20 -30 0 -16 -4 -30 -10 -30
-5 0 -10 5 -10 10 0 6 -9 10 -20 10 -17 0 -20 -7 -20 -40 0 -33 3 -40 20 -40
17 0 20 -7 20 -40 0 -22 -4 -40 -10 -40 -5 0 -10 -9 -10 -20 0 -26 -12 -26
-30 0 -8 11 -22 20 -32 20 -14 0 -18 8 -18 40 0 33 3 40 20 40 13 0 20 7 20
20 0 15 -7 20 -29 20 -16 0 -31 -6 -33 -12 -3 -9 -10 -8 -22 5 -10 10 -15 21
-11 25 4 4 10 1 12 -5 9 -24 23 -13 23 17 0 23 -4 30 -20 30 -13 0 -20 7 -20
18 0 10 9 24 20 32 19 14 28 50 12 50 -4 0 -14 -9 -22 -20 -19 -26 -50 -26
-50 0 0 13 7 20 20 20 11 0 20 5 20 10 0 6 -9 10 -20 10 -11 0 -20 5 -20 10 0
6 -13 10 -30 10 -16 0 -30 5 -30 10 0 6 5 10 10 10 6 0 10 9 10 20 0 13 -7 20
-20 20 -11 0 -20 5 -20 10 0 15 -29 12 -46 -4 -19 -20 -18 -26 6 -26 11 0 20
-4 20 -10 0 -18 -35 -11 -50 10 -20 28 -30 25 -30 -10 0 -28 2 -30 40 -30 22
0 40 -4 40 -10 0 -5 18 -10 40 -10 33 0 40 -3 40 -20 0 -13 -7 -20 -20 -20
-11 0 -20 5 -20 10 0 6 -9 10 -20 10 -11 0 -20 -4 -20 -10 0 -5 9 -10 20 -10
11 0 20 -4 20 -10 0 -5 -9 -10 -20 -10 -11 0 -20 -4 -20 -10 0 -14 -38 -12
-42 2 -3 9 -10 7 -24 -6 -13 -14 -15 -21 -6 -24 6 -2 12 -12 12 -23 0 -14 -7
-19 -30 -19 -35 0 -38 -10 -10 -30 11 -8 20 -22 20 -32 0 -11 -7 -18 -20 -18
-11 0 -20 -4 -20 -10 0 -5 14 -10 30 -10 23 0 30 -4 30 -20 0 -17 -7 -20 -40
-20 -22 0 -40 -4 -40 -10 0 -5 9 -10 19 -10 11 0 21 -6 24 -12 3 -9 11 -6 24
10 21 22 53 30 53 12 0 -5 5 -10 10 -10 6 0 10 9 10 20 0 26 12 26 30 0 10
-14 26 -20 52 -20 21 0 38 -4 38 -10 0 -5 9 -10 20 -10 11 0 20 -4 20 -10 0
-5 -9 -10 -20 -10 -11 0 -20 -4 -20 -10 0 -5 -13 -10 -30 -10 -23 0 -30 4 -30
20 0 13 -7 20 -20 20 -17 0 -20 -7 -20 -40 0 -22 -4 -40 -10 -40 -5 0 -10 9
-10 20 0 24 -6 25 -26 6 -19 -20 -18 -26 6 -26 11 0 20 -4 20 -10 0 -5 9 -10
20 -10 11 0 20 -4 20 -10 0 -6 27 -10 60 -10 33 0 60 4 60 10 0 6 -18 10 -40
10 -43 0 -47 4 -26 26 17 16 106 20 106 4 0 -5 7 -10 16 -10 23 0 44 -25 44
-54 0 -22 -4 -26 -30 -26 -16 0 -30 5 -30 10 0 6 -9 10 -20 10 -11 0 -20 -4
-20 -10 0 -6 -27 -10 -60 -10 -33 0 -60 -4 -60 -10 0 -5 18 -10 39 -10 22 0
42 -6 45 -12 5 -11 7 -11 12 0 3 6 19 12 35 12 24 0 29 -4 29 -25 0 -21 3 -23
23 -16 12 5 49 19 82 32 124 46 298 123 287 127 -22 7 -12 22 14 22 23 0 54
20 54 34 0 3 -9 6 -20 6 -11 0 -20 5 -20 10 0 6 5 10 10 10 6 0 10 14 10 30 0
17 5 30 10 30 6 0 10 17 10 38 0 26 -6 42 -20 52 -14 10 -20 26 -20 52 0 21
-4 38 -10 38 -5 0 -10 5 -10 10 0 6 7 10 16 10 15 0 44 23 44 34 0 3 -9 6 -20
6 -16 0 -20 7 -20 30 0 21 -5 30 -16 30 -15 0 -44 23 -44 34 0 15 37 4 50 -14
16 -22 45 -26 54 -7 5 9 7 9 12 0 3 -7 19 -13 35 -13 l29 0 0 90 0 90 -30 0
c-16 0 -30 5 -30 10 0 6 5 10 10 10 6 0 10 5 10 10 0 6 -9 10 -20 10 -13 0
-20 7 -20 20 0 11 -4 20 -10 20 -5 0 -10 5 -10 10 0 18 35 11 50 -10 20 -28
30 -25 30 10 0 17 5 30 10 30 14 0 12 37 -2 44 -10 5 -10 7 0 12 20 10 15 44
-8 44 -11 0 -20 5 -20 10 0 6 14 10 30 10 27 0 30 3 30 30 0 21 -5 30 -16 30
-8 0 -22 7 -31 15 -14 14 -13 18 8 36 20 17 21 22 9 30 -11 8 -12 12 -2 16 23
9 12 23 -18 23 -23 0 -30 4 -30 20 0 11 5 20 10 20 6 0 10 9 10 20 0 13 7 20
20 20 11 0 20 5 20 10 0 6 -9 10 -20 10 -11 0 -20 5 -20 10 0 6 5 10 10 10 6
0 10 5 10 10 0 6 -9 10 -20 10 -11 0 -20 5 -20 10 0 6 -9 10 -20 10 -13 0 -20
7 -20 20 0 11 5 20 10 20 6 0 10 -4 10 -10 0 -5 5 -10 10 -10 6 0 10 14 10 30
0 17 5 30 10 30 6 0 10 9 10 20 0 17 -7 20 -40 20 -22 0 -40 5 -40 10 0 6 -9
10 -20 10 -11 0 -20 5 -20 10 0 6 14 10 30 10 17 0 30 5 30 10 0 6 -4 10 -10
10 -5 0 -10 9 -10 20 0 11 5 20 10 20 6 0 10 9 10 20 0 16 -7 20 -30 20 -16 0
-30 5 -30 10 0 6 12 10 26 10 14 0 32 6 40 14 18 19 18 26 -2 26 -8 0 -22 6
-30 14 -16 17 -19 46 -4 46 6 0 10 13 10 28 0 16 8 34 20 42 27 20 25 30 -6
30 -42 0 -75 50 -41 63 9 4 8 8 -3 16 -12 8 -11 13 8 29 22 19 31 72 12 72 -5
0 -10 9 -10 20 0 11 -4 20 -10 20 -5 0 -10 5 -10 10 0 6 9 10 20 10 16 0 20 7
20 30 0 17 5 30 10 30 6 0 10 9 10 20 0 11 -4 20 -10 20 -5 0 -10 14 -10 30 0
17 5 30 10 30 14 0 12 37 -2 44 -10 5 -10 7 0 12 6 3 12 14 12 25 0 10 5 19
10 19 20 0 9 33 -20 60 -29 27 -42 80 -20 80 6 0 10 9 10 20 0 11 -4 20 -10
20 -14 0 -12 38 2 42 15 5 -13 38 -32 38 -19 0 -47 33 -32 38 30 10 6 102 -28
102 -12 0 -40 24 -40 34 0 3 14 6 30 6 27 0 30 3 30 30 0 27 -3 30 -30 30 -27
0 -30 3 -30 30 0 30 14 40 24 18 5 -10 7 -10 12 0 7 14 124 17 124 3 0 -5 -6
-11 -12 -14 -8 -2 -9 -8 -4 -13 5 -5 11 -4 13 4 3 6 18 12 34 12 30 0 39 14
17 24 -10 5 -10 7 0 12 20 9 15 44 -7 44 -11 0 -22 6 -24 13 -4 9 -8 8 -17 -3
-9 -11 -13 -12 -17 -2 -2 6 -18 12 -34 12 -16 0 -29 5 -29 10 0 6 -13 10 -30
10 -16 0 -30 5 -30 10 0 6 -7 10 -15 10 -20 0 -85 65 -85 85 0 10 -10 15 -30
15 -16 0 -30 -4 -30 -10 0 -5 -4 -10 -10 -10 -5 0 -10 9 -10 20 0 11 -4 20
-10 20 -5 0 -10 14 -10 30 0 17 -4 30 -10 30 -5 0 -10 7 -10 15 0 20 -45 65
-65 65 -8 0 -15 7 -15 15 0 20 -45 65 -65 65 -8 0 -15 5 -15 10 0 6 -4 10 -10
10 -5 0 -10 -9 -10 -20 0 -11 5 -20 10 -20 6 0 10 -9 10 -20 0 -11 -4 -20 -10
-20 -5 0 -10 5 -10 10 0 6 -13 10 -30 10 -28 0 -30 2 -30 40 0 22 -4 40 -10
40 -5 0 -10 9 -10 20 0 22 -16 27 -23 8 -2 -8 -8 -9 -13 -4 -5 5 -4 11 4 13
21 8 14 43 -8 43 -12 0 -20 7 -20 16 0 20 -24 44 -44 44 -9 0 -16 5 -16 10 0
6 -9 10 -20 10 -11 0 -20 5 -20 10 0 6 -9 10 -20 10 -11 0 -20 5 -20 10 0 6
-13 10 -30 10 -35 0 -38 -10 -10 -30 11 -8 20 -22 20 -32 0 -11 -7 -18 -20
-18 -13 0 -20 7 -20 20 0 11 -4 20 -10 20 -5 0 -10 14 -10 30 0 17 -4 30 -10
30 -5 0 -10 9 -10 20 0 11 -4 20 -10 20 -5 0 -10 14 -10 30 0 17 -4 30 -10 30
-5 0 -10 18 -10 40 0 22 -4 40 -10 40 -6 0 -10 30 -10 70 0 40 -4 70 -10 70
-6 0 -10 33 -10 80 0 47 -4 80 -10 80 -6 0 -10 53 -10 140 0 87 -4 140 -10
140 -5 0 -10 9 -10 20 0 11 5 20 10 20 6 0 10 9 10 20 0 11 5 20 10 20 6 0 10
8 10 18 0 10 9 24 20 32 11 8 20 22 20 32 0 10 5 18 10 18 14 0 12 38 -2 43
-8 2 -9 8 -4 13 5 5 11 4 13 -3 7 -20 23 -15 23 7 0 11 5 20 10 20 6 0 10 9
10 20 0 22 -16 27 -23 8 -2 -7 -8 -10 -12 -6 -5 5 2 16 13 27 12 10 22 26 22
35 0 9 5 16 10 16 6 0 10 14 10 30 0 17 5 30 10 30 6 0 10 33 10 80 0 47 -4
80 -10 80 -5 0 -10 9 -10 20 0 11 5 20 10 20 6 0 10 14 10 30 0 17 -4 30 -10
30 -5 0 -10 14 -10 30 0 17 5 30 10 30 6 0 10 5 10 10 0 6 -9 10 -20 10 -11 0
-20 5 -20 10 0 6 5 10 10 10 15 0 12 29 -4 46 -21 21 -26 18 -26 -16 0 -16 -4
-30 -10 -30 -5 0 -10 -9 -10 -20 0 -11 -4 -20 -10 -20 -5 0 -10 14 -10 30 0
17 5 30 10 30 15 0 12 97 -2 104 -10 5 -10 7 0 12 6 3 12 18 12 33 0 15 9 33
20 41 12 8 20 26 20 42 0 15 5 28 10 28 6 0 10 9 10 20 0 13 -7 20 -20 20 -16
0 -20 7 -20 30 0 23 4 30 20 30 17 0 20 7 20 40 0 22 5 40 10 40 6 0 10 14 10
30 0 17 -4 30 -10 30 -5 0 -10 22 -10 49 0 30 -5 51 -12 54 -10 4 -9 8 2 17
11 9 12 13 3 17 -7 2 -13 18 -13 34 0 22 -5 29 -20 29 -11 0 -20 5 -20 10 0 6
5 10 10 10 6 0 10 14 10 30 0 17 -4 30 -10 30 -5 0 -10 13 -10 29 0 16 -6 32
-12 35 -10 5 -10 7 0 12 6 3 12 14 12 24 0 10 -6 21 -12 23 -10 4 -9 8 2 17
11 9 12 13 3 17 -7 2 -13 16 -13 30 0 14 -10 34 -22 45 -18 15 -20 21 -9 28
12 7 12 11 -2 24 -8 9 -23 16 -31 16 -11 0 -16 9 -16 30 0 23 4 30 20 30 11 0
20 5 20 10 0 15 29 12 46 -4 8 -8 14 -22 14 -30 0 -9 5 -16 10 -16 6 0 10 -9
10 -20 0 -11 5 -20 10 -20 6 0 10 -13 10 -30 0 -16 5 -30 10 -30 6 0 10 -22
10 -50 0 -27 5 -50 10 -50 6 0 10 -27 10 -60 0 -33 4 -60 10 -60 6 0 10 -18
10 -40 0 -22 5 -40 10 -40 6 0 10 -22 10 -50 0 -27 5 -50 10 -50 6 0 10 -40
10 -100 0 -60 4 -100 10 -100 6 0 10 -13 10 -30 0 -16 -4 -30 -10 -30 -6 0
-10 -33 -10 -80 0 -47 -4 -80 -10 -80 -14 0 -12 -37 3 -44 10 -5 10 -7 0 -12
-19 -9 -18 -191 1 -210 17 -16 146 -20 146 -4 0 6 7 10 15 10 20 0 85 65 85
85 0 8 5 15 10 15 6 0 10 9 10 20 0 11 5 20 10 20 6 0 10 14 10 30 0 17 5 30
10 30 6 0 10 43 10 110 0 67 -4 110 -10 110 -6 0 -10 27 -10 60 0 33 -4 60
-10 60 -5 0 -10 14 -10 30 0 17 -4 30 -10 30 -5 0 -10 14 -10 30 0 17 -4 30
-10 30 -5 0 -10 9 -10 20 0 11 -4 20 -10 20 -6 0 -10 30 -10 70 0 40 -4 70
-10 70 -5 0 -10 7 -10 16 0 18 -23 44 -40 44 -11 0 -60 44 -60 55 0 3 14 5 30
5 27 0 30 3 30 30 0 17 5 30 10 30 6 0 10 9 10 20 0 11 -4 20 -10 20 -5 0 -10
18 -10 40 0 22 -4 40 -10 40 -6 0 -10 33 -10 80 0 47 4 80 10 80 6 0 10 21 10
46 0 38 5 51 30 74 30 28 30 29 30 134 0 64 -4 106 -10 106 -5 0 -10 14 -10
30 0 17 -4 30 -10 30 -5 0 -10 9 -10 20 0 11 5 20 10 20 6 0 10 9 10 20 0 11
-4 20 -10 20 -6 0 -10 26 -10 59 0 38 -5 61 -12 65 -10 5 -10 7 0 12 14 7 17
64 2 64 -5 0 -10 13 -10 29 0 16 -6 32 -12 35 -10 5 -10 7 0 12 6 3 12 14 12
25 0 16 7 19 50 19 28 0 50 -4 50 -10 0 -5 9 -10 20 -10 16 0 20 7 20 30 0 30
-15 41 -22 18 -7 -21 -58 38 -58 67 0 14 -4 25 -10 25 -5 0 -10 5 -10 10 0 15
29 12 46 -4 8 -8 14 -26 14 -40 0 -14 5 -26 10 -26 6 0 10 40 10 100 0 60 -4
100 -10 100 -5 0 -10 7 -10 16 0 8 -23 38 -52 66 -38 37 -48 52 -38 58 11 7
10 11 -3 24 -8 9 -22 16 -29 16 -8 0 -20 9 -28 20 -8 11 -22 20 -32 20 -11 0
-18 7 -18 18 0 10 -9 24 -20 32 -11 8 -20 20 -20 28 0 16 -45 62 -60 62 -16 0
-60 47 -60 65 0 8 -9 15 -20 15 -11 0 -20 5 -20 10 0 6 -13 10 -30 10 -16 0
-30 5 -30 10 0 6 -9 10 -20 10 -11 0 -20 5 -20 10 0 6 -13 10 -30 10 -16 0
-30 5 -30 10 0 6 -9 10 -20 10 -11 0 -20 5 -20 10 0 6 -9 10 -20 10 -13 0 -20
7 -20 20 0 13 -7 20 -20 20 -11 0 -20 5 -20 10 0 6 -7 10 -15 10 -18 0 -65 44
-65 60 0 17 -26 40 -44 40 -9 0 -16 5 -16 10 0 6 -9 10 -20 10 -11 0 -20 5
-20 10 0 6 -9 10 -20 10 -11 0 -20 5 -20 10 0 6 -13 10 -30 10 -16 0 -30 5
-30 10 0 6 -26 10 -59 10 -38 0 -61 4 -64 13 -4 9 -8 8 -16 -3 -10 -13 -12
-13 -21 0 -9 13 -11 13 -21 0 -8 -11 -12 -12 -16 -2 -2 6 -13 12 -24 12 -12 0
-19 7 -19 20 0 13 -7 20 -20 20 -11 0 -20 7 -20 15 0 20 -65 85 -85 85 -8 0
-15 5 -15 10 0 6 -9 10 -20 10 -11 0 -20 -4 -20 -10z m160 -140 c0 -5 -4 -10
-10 -10 -5 0 -10 5 -10 10 0 6 5 10 10 10 6 0 10 -4 10 -10z m-720 -60 c0 -5
-4 -10 -10 -10 -5 0 -10 5 -10 10 0 6 5 10 10 10 6 0 10 -4 10 -10z m-260 -50
c0 -13 -7 -20 -20 -20 -13 0 -20 7 -20 20 0 13 7 20 20 20 13 0 20 -7 20 -20z
m-720 -310 c0 -5 -9 -10 -20 -10 -13 0 -20 -7 -20 -20 0 -13 -7 -20 -20 -20
-11 0 -20 -4 -20 -10 0 -5 -8 -10 -18 -10 -10 0 -24 -9 -32 -20 -8 -11 -22
-20 -32 -20 -11 0 -18 7 -18 20 0 13 7 20 20 20 11 0 20 5 20 10 0 6 9 10 20
10 11 0 20 5 20 10 0 6 8 10 18 10 10 0 24 9 32 20 15 21 50 28 50 10z m2640
-120 c0 -5 -4 -10 -10 -10 -5 0 -10 5 -10 10 0 6 5 10 10 10 6 0 10 -4 10 -10z
m-2820 -20 c0 -5 -4 -10 -10 -10 -5 0 -10 5 -10 10 0 6 5 10 10 10 6 0 10 -4
10 -10z m960 -70 c0 -11 -4 -20 -10 -20 -5 0 -10 9 -10 20 0 11 5 20 10 20 6
0 10 -9 10 -20z m160 -40 c0 -11 -4 -20 -10 -20 -5 0 -10 9 -10 20 0 11 5 20
10 20 6 0 10 -9 10 -20z m200 -50 c0 -16 -4 -30 -10 -30 -5 0 -10 14 -10 30 0
17 5 30 10 30 6 0 10 -13 10 -30z m-180 0 c0 -5 -4 -10 -10 -10 -5 0 -10 5
-10 10 0 6 5 10 10 10 6 0 10 -4 10 -10z m-620 -20 c0 -5 -4 -10 -10 -10 -5 0
-10 5 -10 10 0 6 5 10 10 10 6 0 10 -4 10 -10z m580 -70 c0 -11 -4 -20 -10
-20 -5 0 -10 9 -10 20 0 11 5 20 10 20 6 0 10 -9 10 -20z m-1254 -74 c8 -8 14
-34 14 -60 0 -39 -3 -46 -20 -46 -18 0 -20 7 -20 60 0 63 3 69 26 46z m1994
-136 c0 -5 -4 -10 -10 -10 -5 0 -10 5 -10 10 0 6 5 10 10 10 6 0 10 -4 10 -10z
m-113 -105 c8 -9 13 -19 10 -22 -6 -5 -37 21 -37 31 0 10 11 6 27 -9z m133
-15 c0 -5 -4 -10 -10 -10 -5 0 -10 5 -10 10 0 6 5 10 10 10 6 0 10 -4 10 -10z
m-40 -40 c0 -34 -5 -37 -26 -15 -13 12 -13 17 -2 29 20 23 28 19 28 -14z
m-1940 -26 c0 -20 -29 -49 -38 -39 -4 4 -1 10 6 12 6 3 12 13 12 24 0 10 5 19
10 19 6 0 10 -7 10 -16z m1860 6 c0 -5 -4 -10 -10 -10 -5 0 -10 5 -10 10 0 6
5 10 10 10 6 0 10 -4 10 -10z m-1920 -20 c0 -5 -4 -10 -10 -10 -5 0 -10 5 -10
10 0 6 5 10 10 10 6 0 10 -4 10 -10z m1960 -30 c0 -38 -2 -40 -30 -40 -16 0
-30 5 -30 10 0 6 9 10 20 10 16 0 20 7 20 30 0 17 5 30 10 30 6 0 10 -18 10
-40z m120 20 c0 -11 -4 -20 -10 -20 -5 0 -10 9 -10 20 0 11 5 20 10 20 6 0 10
-9 10 -20z m-60 -40 c0 -11 -4 -20 -10 -20 -5 0 -10 9 -10 20 0 11 5 20 10 20
6 0 10 -9 10 -20z m-1620 -346 c0 -3 -7 -12 -15 -21 -20 -19 -32 -10 -14 11
14 15 29 21 29 10z m-140 -24 c0 -5 -4 -10 -10 -10 -5 0 -10 5 -10 10 0 6 5
10 10 10 6 0 10 -4 10 -10z m1980 -40 c0 -5 -4 -10 -10 -10 -5 0 -10 5 -10 10
0 6 5 10 10 10 6 0 10 -4 10 -10z m-2020 -30 c0 -11 -4 -20 -10 -20 -5 0 -10
9 -10 20 0 11 5 20 10 20 6 0 10 -9 10 -20z m2500 -10 c0 -5 -4 -10 -10 -10
-5 0 -10 5 -10 10 0 6 5 10 10 10 6 0 10 -4 10 -10z m-2360 -89 c0 -11 -6 -22
-12 -24 -10 -4 -9 -8 2 -16 8 -5 11 -13 8 -17 -8 -8 -38 20 -38 36 0 13 22 39
33 40 4 0 7 -9 7 -19z m-80 -141 c0 -11 -4 -20 -10 -20 -5 0 -10 -9 -10 -20 0
-11 -4 -20 -10 -20 -14 0 -12 48 3 65 17 20 27 18 27 -5z m160 0 c0 -11 -4
-20 -10 -20 -5 0 -10 9 -10 20 0 11 5 20 10 20 6 0 10 -9 10 -20z m-240 -10
c0 -5 -9 -10 -20 -10 -11 0 -20 5 -20 10 0 6 9 10 20 10 11 0 20 -4 20 -10z
m140 -200 c0 -5 -4 -10 -10 -10 -5 0 -10 5 -10 10 0 6 5 10 10 10 6 0 10 -4
10 -10z m2800 -340 c0 -5 9 -10 20 -10 11 0 20 -4 20 -10 0 -15 -29 -12 -46 4
-16 17 -18 26 -4 26 6 0 10 -4 10 -10z m-60 -290 c0 -11 -4 -20 -10 -20 -5 0
-10 9 -10 20 0 11 5 20 10 20 6 0 10 -9 10 -20z m-300 -1130 c0 -5 -4 -10 -10
-10 -5 0 -10 5 -10 10 0 6 5 10 10 10 6 0 10 -4 10 -10z m-700 -160 c0 -5 -4
-10 -10 -10 -5 0 -10 5 -10 10 0 6 5 10 10 10 6 0 10 -4 10 -10z m1215 -935
c29 -28 31 -35 9 -35 -20 0 -44 24 -44 44 0 22 7 20 35 -9z m205 -245 c0 -5
-4 -10 -10 -10 -5 0 -10 5 -10 10 0 6 5 10 10 10 6 0 10 -4 10 -10z m-40 -90
c0 -13 -7 -20 -20 -20 -23 0 -25 5 -7 25 17 20 27 18 27 -5z m220 -10 c0 -5
-4 -10 -10 -10 -5 0 -10 5 -10 10 0 6 5 10 10 10 6 0 10 -4 10 -10z m180 0 c0
-5 -13 -10 -30 -10 -16 0 -30 5 -30 10 0 6 14 10 30 10 17 0 30 -4 30 -10z
m-440 -40 c0 -5 -4 -10 -10 -10 -5 0 -10 5 -10 10 0 6 5 10 10 10 6 0 10 -4
10 -10z m240 -20 c0 -5 -4 -10 -10 -10 -5 0 -10 5 -10 10 0 6 5 10 10 10 6 0
10 -4 10 -10z m-840 -50 c0 -13 -7 -20 -18 -20 -10 0 -24 -9 -32 -20 -13 -18
-70 -30 -70 -14 0 11 29 34 44 34 9 0 16 5 16 10 0 6 9 10 20 10 11 0 20 5 20
10 0 6 5 10 10 10 6 0 10 -9 10 -20z m380 -10 c0 -5 -4 -10 -10 -10 -5 0 -10
5 -10 10 0 6 5 10 10 10 6 0 10 -4 10 -10z m160 0 c0 -5 -4 -10 -10 -10 -5 0
-10 5 -10 10 0 6 5 10 10 10 6 0 10 -4 10 -10z m300 0 c0 -5 -4 -10 -10 -10
-5 0 -10 5 -10 10 0 6 5 10 10 10 6 0 10 -4 10 -10z m-460 -40 c0 -5 -9 -10
-20 -10 -11 0 -20 5 -20 10 0 6 9 10 20 10 11 0 20 -4 20 -10z m140 0 c0 -5
-4 -10 -10 -10 -5 0 -10 5 -10 10 0 6 5 10 10 10 6 0 10 -4 10 -10z m187 -25
c8 -9 13 -19 10 -22 -6 -5 -37 21 -37 31 0 10 11 6 27 -9z m-367 -135 c0 -5
-4 -10 -10 -10 -5 0 -10 5 -10 10 0 6 5 10 10 10 6 0 10 -4 10 -10z m140 0 c0
-5 -4 -10 -10 -10 -5 0 -10 5 -10 10 0 6 5 10 10 10 6 0 10 -4 10 -10z m-120
-56 c0 -11 -29 -34 -44 -34 -9 0 -16 -4 -16 -10 0 -5 -4 -10 -10 -10 -14 0
-12 28 3 45 11 14 67 21 67 9z m540 -64 c0 -5 9 -10 20 -10 11 0 20 -4 20 -10
0 -15 -49 -12 -66 4 -19 20 -18 26 6 26 11 0 20 -4 20 -10z m-1260 -30 c0 -11
-4 -20 -10 -20 -5 0 -10 9 -10 20 0 11 5 20 10 20 6 0 10 -9 10 -20z m540 -90
c0 -5 -4 -10 -10 -10 -5 0 -10 5 -10 10 0 6 5 10 10 10 6 0 10 -4 10 -10z
m520 -160 c0 -5 -4 -10 -10 -10 -5 0 -10 5 -10 10 0 6 5 10 10 10 6 0 10 -4
10 -10z m-380 -500 c0 -5 -4 -10 -10 -10 -5 0 -10 5 -10 10 0 6 5 10 10 10 6
0 10 -4 10 -10z m580 -89 c0 -11 -6 -22 -12 -25 -10 -5 -10 -7 0 -12 22 -10
12 -24 -18 -24 -16 0 -30 5 -30 10 0 6 5 10 10 10 6 0 10 5 10 10 0 6 -9 10
-20 10 -13 0 -20 7 -20 20 0 17 7 20 40 20 33 0 40 -3 40 -19z m-20 -111 c0
-16 5 -30 10 -30 6 0 10 5 10 10 0 6 5 10 10 10 6 0 10 -22 10 -50 0 -55 -3
-58 -28 -33 -12 12 -13 18 -4 21 17 5 15 22 -4 22 -22 0 -53 32 -36 38 6 2 12
12 12 23 0 10 5 19 10 19 6 0 10 -13 10 -30z m-780 0 c0 -5 -4 -10 -10 -10 -5
0 -10 5 -10 10 0 6 5 10 10 10 6 0 10 -4 10 -10z m160 0 c0 -5 -18 -10 -40
-10 -22 0 -40 5 -40 10 0 6 18 10 40 10 22 0 40 -4 40 -10z m600 -80 c0 -5 -4
-10 -10 -10 -5 0 -10 5 -10 10 0 6 5 10 10 10 6 0 10 -4 10 -10z m126 -25 c14
-13 14 -17 0 -31 -15 -14 -17 -14 -32 0 -12 13 -13 18 -2 30 16 19 16 19 34 1z
m-106 -35 c0 -5 -4 -10 -10 -10 -5 0 -10 5 -10 10 0 6 5 10 10 10 6 0 10 -4
10 -10z m-780 -100 c0 -5 -4 -10 -10 -10 -5 0 -10 5 -10 10 0 6 5 10 10 10 6
0 10 -4 10 -10z m60 -40 c0 -5 -4 -10 -10 -10 -5 0 -10 5 -10 10 0 6 5 10 10
10 6 0 10 -4 10 -10z m780 -80 c0 -5 -4 -10 -10 -10 -5 0 -10 5 -10 10 0 6 5
10 10 10 6 0 10 -4 10 -10z m60 0 c0 -5 -4 -10 -10 -10 -5 0 -10 5 -10 10 0 6
5 10 10 10 6 0 10 -4 10 -10z m-160 -40 c0 -5 -4 -10 -10 -10 -5 0 -10 5 -10
10 0 6 5 10 10 10 6 0 10 -4 10 -10z m-760 -50 c0 -13 -7 -20 -20 -20 -23 0
-25 5 -7 25 17 20 27 18 27 -5z m860 -50 c0 -5 -9 -10 -20 -10 -11 0 -20 5
-20 10 0 6 9 10 20 10 11 0 20 -4 20 -10z m100 0 c0 -5 -4 -10 -10 -10 -5 0
-10 5 -10 10 0 6 5 10 10 10 6 0 10 -4 10 -10z m0 -60 c0 -5 -4 -10 -10 -10
-5 0 -10 5 -10 10 0 6 5 10 10 10 6 0 10 -4 10 -10z m-140 -140 c0 -5 -9 -10
-20 -10 -11 0 -20 5 -20 10 0 6 9 10 20 10 11 0 20 -4 20 -10z m120 -70 c0
-13 -7 -20 -20 -20 -13 0 -20 7 -20 20 0 13 7 20 20 20 13 0 20 -7 20 -20z
m-614 -334 c21 -22 17 -26 -26 -26 -33 0 -40 3 -40 20 0 24 43 28 66 6z m-6
-66 c0 -13 7 -20 20 -20 11 0 20 5 20 10 0 15 29 12 46 -4 21 -21 17 -46 -6
-46 -11 0 -20 5 -20 10 0 6 -18 10 -40 10 -22 0 -40 -4 -40 -10 0 -5 -9 -10
-20 -10 -13 0 -20 7 -20 20 0 13 7 20 20 20 13 0 20 7 20 20 0 11 5 20 10 20
6 0 10 -9 10 -20z m580 10 c0 -5 -9 -10 -20 -10 -11 0 -20 5 -20 10 0 6 9 10
20 10 11 0 20 -4 20 -10z m-220 -80 c0 -5 -4 -10 -10 -10 -5 0 -10 5 -10 10 0
6 5 10 10 10 6 0 10 -4 10 -10z m-180 -60 c0 -5 9 -10 20 -10 13 0 20 -7 20
-20 0 -26 -6 -25 -35 5 -27 26 -31 35 -15 35 6 0 10 -4 10 -10z"/>
<path d="M2880 7320 c0 -5 5 -10 10 -10 6 0 10 5 10 10 0 6 -4 10 -10 10 -5 0
-10 -4 -10 -10z"/>
<path d="M4780 7120 c0 -5 5 -10 10 -10 6 0 10 5 10 10 0 6 -4 10 -10 10 -5 0
-10 -4 -10 -10z"/>
<path d="M3531 6834 c-18 -21 -6 -30 14 -11 8 9 15 18 15 21 0 11 -15 5 -29
-10z"/>
<path d="M4260 6700 c0 -5 -22 -10 -50 -10 -27 0 -50 -4 -50 -10 0 -5 -22 -10
-50 -10 -27 0 -50 -4 -50 -10 0 -5 -18 -10 -40 -10 -22 0 -40 -4 -40 -10 0 -5
-13 -10 -30 -10 -16 0 -30 -4 -30 -10 0 -5 -8 -10 -18 -10 -10 0 -24 -9 -32
-20 -8 -11 -20 -20 -28 -20 -18 0 -42 -25 -42 -44 0 -13 12 -16 60 -16 33 0
60 4 60 10 0 6 70 10 190 10 120 0 190 4 190 10 0 6 18 10 40 10 22 0 40 5 40
10 0 6 27 10 60 10 33 0 60 -4 60 -10 0 -5 9 -10 20 -10 13 0 20 7 20 20 0 13
7 20 20 20 11 0 20 7 20 15 0 20 -45 65 -65 65 -8 0 -15 5 -15 10 0 6 -37 10
-90 10 -53 0 -90 4 -90 10 0 6 -13 10 -30 10 -16 0 -30 -4 -30 -10z"/>
<path d="M4240 6500 c0 -5 -13 -10 -30 -10 -23 0 -30 -4 -30 -20 0 -11 -4 -20
-10 -20 -5 0 -10 5 -10 10 0 6 -4 10 -10 10 -5 0 -10 -9 -10 -20 0 -16 -7 -20
-30 -20 -16 0 -30 -4 -30 -10 0 -5 -13 -10 -30 -10 -16 0 -30 -4 -30 -10 0 -5
-11 -10 -25 -10 -29 0 -115 -79 -115 -105 0 -8 -4 -15 -10 -15 -5 0 -10 -4
-10 -10 0 -5 7 -10 16 -10 18 0 44 23 44 40 0 21 69 80 95 80 14 0 25 5 25 10
0 6 18 10 40 10 22 0 40 5 40 10 0 6 9 10 20 10 13 0 20 -7 20 -20 0 -16 -7
-20 -30 -20 -16 0 -30 -4 -30 -10 0 -5 -9 -10 -20 -10 -11 0 -20 -4 -20 -10 0
-5 -8 -10 -18 -10 -10 0 -24 -9 -32 -20 -8 -11 -22 -20 -32 -20 -10 0 -18 -4
-18 -10 0 -5 -8 -10 -18 -10 -10 0 -24 -9 -32 -20 -8 -11 -22 -20 -32 -20 -11
0 -18 -7 -18 -20 0 -13 7 -20 20 -20 11 0 20 5 20 10 0 6 30 10 70 10 40 0 70
-4 70 -10 0 -5 9 -10 20 -10 11 0 20 5 20 10 0 6 -7 10 -16 10 -20 0 -44 24
-44 44 0 9 8 16 18 16 10 0 24 9 32 20 15 21 50 28 50 10 0 -5 -9 -10 -20 -10
-13 0 -20 -7 -20 -20 0 -11 5 -20 10 -20 6 0 10 -18 10 -40 0 -38 2 -40 30
-40 17 0 30 -4 30 -10 0 -5 9 -10 20 -10 11 0 20 -4 20 -10 0 -5 -4 -10 -10
-10 -5 0 -10 -4 -10 -10 0 -5 9 -10 20 -10 11 0 20 5 20 10 0 6 30 10 70 10
40 0 70 4 70 10 0 6 9 10 20 10 11 0 20 -4 20 -10 0 -5 9 -10 20 -10 13 0 20
7 20 18 0 10 9 24 20 32 11 8 20 18 20 22 0 4 -9 8 -20 8 -11 0 -20 3 -20 6 0
11 29 34 44 34 12 0 16 10 16 38 0 26 6 42 20 52 21 15 28 50 10 50 -5 0 -10
7 -10 16 0 20 -24 44 -44 44 -9 0 -16 5 -16 10 0 6 -9 10 -20 10 -11 0 -20 5
-20 10 0 6 -18 10 -40 10 -22 0 -40 5 -40 10 0 15 -57 12 -64 -2 -5 -10 -7
-10 -12 0 -7 14 -24 16 -24 2z"/>
<path d="M3330 5890 c-8 -11 -22 -20 -32 -20 -10 0 -18 -4 -18 -10 0 -5 5 -10
10 -10 6 0 10 -9 10 -20 0 -11 5 -20 10 -20 6 0 10 -27 10 -60 0 -33 4 -60 10
-60 6 0 10 7 10 16 0 9 14 29 30 44 22 21 30 37 30 63 0 20 5 37 12 39 15 5
-35 58 -54 58 -8 0 -20 -9 -28 -20z"/>
<path d="M4880 5780 c0 -5 5 -10 10 -10 6 0 10 5 10 10 0 6 -4 10 -10 10 -5 0
-10 -4 -10 -10z"/>
<path d="M3443 5685 c-38 -39 -43 -50 -43 -90 0 -25 5 -45 10 -45 6 0 10 -16
10 -36 0 -36 29 -81 38 -56 6 19 36 14 52 -8 20 -27 30 -25 30 6 0 16 -12 37
-30 54 -23 21 -30 37 -30 64 0 20 5 36 10 36 6 0 10 14 10 30 0 17 5 30 10 30
6 0 10 14 10 30 0 43 -26 38 -77 -15z"/>
<path d="M4660 5660 c0 -5 -9 -10 -20 -10 -13 0 -20 -7 -20 -19 0 -11 -5 -21
-12 -23 -16 -6 35 -58 56 -58 8 0 17 -6 20 -12 5 -10 7 -10 12 0 3 6 14 12 25
12 10 0 19 5 19 10 0 6 9 10 20 10 11 0 20 5 20 10 0 6 9 10 20 10 23 0 27 25
6 46 -8 8 -26 14 -40 14 -14 0 -26 5 -26 10 0 6 -18 10 -40 10 -22 0 -40 -4
-40 -10z"/>
<path d="M2563 5545 c-13 -13 -23 -31 -23 -40 0 -11 -11 -15 -40 -15 -22 0
-40 -4 -40 -10 0 -5 -7 -10 -16 -10 -8 0 -22 -7 -30 -15 -14 -13 -14 -17 0
-30 11 -11 40 -15 120 -15 64 0 106 4 106 10 0 6 13 10 28 10 16 0 34 8 42 20
8 11 20 20 28 20 12 0 82 63 82 75 0 11 -39 4 -43 -7 -2 -8 -8 -9 -13 -4 -5 5
-4 11 4 13 6 3 12 9 12 14 0 14 -37 11 -44 -3 -5 -10 -7 -10 -12 0 -4 8 -28
12 -72 11 -57 0 -70 -4 -89 -24z"/>
<path d="M9283 5405 c-30 -31 -29 -60 2 -90 42 -43 135 -29 135 19 0 9 5 16
10 16 6 0 10 9 10 20 0 16 -7 20 -30 20 -16 0 -30 5 -30 10 0 6 -9 10 -20 10
-11 0 -20 5 -20 10 0 18 -35 9 -57 -15z"/>
<path d="M4873 5375 c-7 -8 -13 -30 -13 -50 0 -34 1 -35 36 -35 36 0 81 29 56
38 -6 2 -12 17 -12 33 0 25 -4 29 -27 29 -16 -1 -34 -7 -40 -15z"/>
<path d="M9440 5330 c0 -11 5 -20 10 -20 6 0 10 5 10 10 0 6 9 10 20 10 11 0
20 5 20 10 0 6 -13 10 -30 10 -23 0 -30 -4 -30 -20z"/>
<path d="M9540 5340 c0 -5 5 -10 10 -10 6 0 10 5 10 10 0 6 -4 10 -10 10 -5 0
-10 -4 -10 -10z"/>
<path d="M3591 5194 c-7 -8 -10 -18 -6 -22 4 -4 10 -1 12 6 3 6 13 12 24 12
10 0 19 5 19 10 0 15 -33 11 -49 -6z"/>
<path d="M3520 5160 c0 -5 5 -10 10 -10 6 0 10 5 10 10 0 6 -4 10 -10 10 -5 0
-10 -4 -10 -10z"/>
<path d="M580 4060 c0 -5 -18 -10 -40 -10 -22 0 -40 -4 -40 -10 0 -5 -7 -10
-15 -10 -20 0 -85 -65 -85 -85 0 -8 -4 -15 -10 -15 -5 0 -10 -9 -10 -20 0 -11
-4 -20 -10 -20 -15 0 -12 -70 4 -86 8 -8 31 -14 50 -14 20 0 36 -4 36 -10 0
-5 23 -10 50 -10 28 0 50 -4 50 -10 0 -5 14 -10 30 -10 17 0 30 -4 30 -10 0
-5 18 -10 40 -10 22 0 40 -4 40 -10 0 -5 14 -10 30 -10 17 0 30 5 30 10 0 6 9
10 20 10 11 0 20 5 20 10 0 6 14 10 30 10 23 0 30 4 30 20 0 11 5 20 10 20 6
0 10 13 10 29 0 16 6 32 13 35 10 5 10 7 0 12 -7 3 -13 14 -13 25 0 12 -7 19
-18 19 -10 0 -24 9 -32 20 -8 11 -21 20 -30 20 -9 0 -22 9 -30 20 -8 11 -21
20 -28 20 -8 0 -27 14 -42 30 -17 18 -38 30 -54 30 -14 0 -26 5 -26 10 0 6 -9
10 -20 10 -11 0 -20 -4 -20 -10z"/>
<path d="M3740 3720 c0 -5 -8 -10 -18 -10 -10 0 -24 -9 -32 -20 -8 -11 -21
-20 -30 -20 -9 0 -22 -9 -30 -20 -9 -13 -26 -20 -48 -20 -18 0 -40 -6 -48 -14
-16 -17 -19 -66 -4 -66 6 0 10 -9 10 -20 0 -11 5 -20 10 -20 6 0 10 -13 10
-30 0 -16 5 -30 10 -30 6 0 10 -9 10 -20 0 -11 5 -20 10 -20 6 0 10 -9 10 -20
0 -11 5 -20 10 -20 6 0 10 -13 10 -28 0 -16 8 -34 20 -42 11 -8 20 -22 20 -32
0 -10 5 -18 10 -18 6 0 10 -7 10 -15 0 -19 104 -125 123 -125 7 0 19 -9 27
-20 8 -11 22 -20 32 -20 10 0 18 -4 18 -10 0 -5 9 -10 20 -10 11 0 20 -4 20
-10 0 -5 13 -10 28 -10 16 0 34 -8 42 -20 8 -11 18 -20 22 -20 4 0 8 9 8 20 0
13 -7 20 -20 20 -11 0 -20 5 -20 10 0 6 -8 10 -18 10 -10 0 -24 9 -32 20 -8
11 -20 20 -28 20 -16 0 -62 45 -62 60 0 6 -22 33 -50 60 -27 27 -50 55 -50 62
0 8 -9 20 -20 28 -11 8 -20 22 -20 32 0 10 -4 18 -10 18 -5 0 -10 14 -10 30 0
17 -4 30 -10 30 -5 0 -10 18 -10 40 0 22 -4 40 -10 40 -5 0 -10 14 -10 30 0
17 5 30 10 30 6 0 10 12 10 26 0 17 16 41 50 74 46 45 64 80 40 80 -5 0 -10
-4 -10 -10z"/>
<path d="M6760 3340 c0 -5 9 -10 20 -10 11 0 20 5 20 10 0 6 -9 10 -20 10 -11
0 -20 -4 -20 -10z"/>
<path d="M6840 3300 c0 -5 9 -10 20 -10 11 0 20 5 20 10 0 6 -9 10 -20 10 -11
0 -20 -4 -20 -10z"/>
<path d="M6900 3300 c0 -5 5 -10 10 -10 6 0 10 5 10 10 0 6 -4 10 -10 10 -5 0
-10 -4 -10 -10z"/>
<path d="M7040 3240 c0 -5 5 -10 10 -10 6 0 10 5 10 10 0 6 -4 10 -10 10 -5 0
-10 -4 -10 -10z"/>
<path d="M2900 3220 c0 -5 5 -10 10 -10 6 0 10 5 10 10 0 6 -4 10 -10 10 -5 0
-10 -4 -10 -10z"/>
<path d="M6960 3204 c0 -11 29 -34 43 -34 9 0 18 -6 21 -12 5 -10 7 -10 12 0
3 6 19 12 35 12 16 0 29 5 29 10 0 6 -18 10 -40 10 -22 0 -40 5 -40 10 0 6
-13 10 -30 10 -16 0 -30 -3 -30 -6z"/>
<path d="M2780 3160 c0 -5 9 -10 20 -10 11 0 20 5 20 10 0 6 -9 10 -20 10 -11
0 -20 -4 -20 -10z"/>
<path d="M7020 3120 c0 -5 18 -10 40 -10 22 0 40 5 40 10 0 6 -18 10 -40 10
-22 0 -40 -4 -40 -10z"/>
<path d="M7240 3120 c0 -5 9 -10 20 -10 11 0 20 5 20 10 0 6 -9 10 -20 10 -11
0 -20 -4 -20 -10z"/>
<path d="M7320 3100 c0 -5 5 -10 10 -10 6 0 10 5 10 10 0 6 -4 10 -10 10 -5 0
-10 -4 -10 -10z"/>
<path d="M5120 3060 c0 -5 9 -10 20 -10 11 0 20 5 20 10 0 6 -9 10 -20 10 -11
0 -20 -4 -20 -10z"/>
<path d="M6980 3050 c0 -24 6 -25 26 -6 19 20 18 26 -6 26 -13 0 -20 -7 -20
-20z"/>
<path d="M7060 3050 c0 -22 35 -29 43 -7 2 7 8 8 13 3 5 -5 4 -11 -3 -13 -7
-3 -13 -9 -13 -14 0 -14 30 -11 46 6 14 13 14 17 0 30 -8 8 -31 15 -50 15 -29
0 -36 -4 -36 -20z"/>
<path d="M7180 3060 c0 -5 5 -10 10 -10 6 0 10 5 10 10 0 6 -4 10 -10 10 -5 0
-10 -4 -10 -10z"/>
<path d="M7220 3060 c0 -5 9 -10 19 -10 11 0 22 -6 25 -12 5 -10 7 -10 12 0 7
14 44 16 44 2 0 -5 9 -10 20 -10 11 0 20 5 20 10 0 6 -9 10 -20 10 -11 0 -20
5 -20 10 0 6 -22 10 -50 10 -27 0 -50 -4 -50 -10z"/>
<path d="M5000 3040 c0 -5 5 -10 10 -10 6 0 10 5 10 10 0 6 -4 10 -10 10 -5 0
-10 -4 -10 -10z"/>
<path d="M3220 2990 c0 -11 5 -20 10 -20 6 0 10 -27 10 -60 0 -33 -4 -60 -10
-60 -5 0 -10 -18 -10 -40 0 -22 -4 -40 -10 -40 -6 0 -10 -27 -10 -60 0 -33 4
-60 10 -60 6 0 10 18 10 40 0 22 5 40 10 40 6 0 10 27 10 60 0 33 4 60 10 60
6 0 10 23 10 50 0 28 5 50 10 50 15 0 12 29 -4 46 -21 21 -46 17 -46 -6z"/>
<path d="M7140 2994 c0 -27 27 -44 70 -44 43 0 70 17 70 44 0 11 -9 16 -30 16
-30 0 -41 -14 -17 -23 6 -2 9 -8 5 -12 -5 -5 -16 2 -27 13 -22 26 -71 30 -71
6z"/>
<path d="M7620 3000 c0 -5 5 -10 10 -10 6 0 10 5 10 10 0 6 -4 10 -10 10 -5 0
-10 -4 -10 -10z"/>
<path d="M7080 2970 c0 -11 5 -20 10 -20 6 0 10 9 10 20 0 11 -4 20 -10 20 -5
0 -10 -9 -10 -20z"/>
<path d="M7320 2960 c0 -5 5 -10 10 -10 6 0 10 5 10 10 0 6 -4 10 -10 10 -5 0
-10 -4 -10 -10z"/>
<path d="M7720 2960 c0 -5 5 -10 10 -10 6 0 10 5 10 10 0 6 -4 10 -10 10 -5 0
-10 -4 -10 -10z"/>
<path d="M7620 2930 c0 -11 -4 -20 -10 -20 -5 0 -10 -9 -10 -20 0 -11 -4 -20
-10 -20 -5 0 -10 -13 -10 -28 0 -16 -8 -34 -20 -42 -21 -15 -28 -70 -10 -70 6
0 10 -9 10 -20 0 -13 -7 -20 -20 -20 -13 0 -20 -7 -20 -18 0 -10 -9 -24 -20
-32 -11 -8 -20 -22 -20 -32 0 -11 -7 -18 -20 -18 -13 0 -20 -7 -20 -20 0 -11
5 -20 10 -20 6 0 10 -9 10 -20 0 -13 -7 -20 -20 -20 -16 0 -20 -7 -20 -30 0
-23 -4 -30 -20 -30 -13 0 -20 -7 -20 -20 0 -11 5 -20 10 -20 6 0 10 -4 10 -10
0 -5 -9 -10 -20 -10 -13 0 -20 -7 -20 -20 0 -11 5 -20 10 -20 6 0 10 -4 10
-10 0 -5 -9 -10 -20 -10 -13 0 -20 -7 -20 -20 0 -11 -4 -20 -10 -20 -5 0 -10
-22 -10 -50 0 -27 -4 -50 -10 -50 -5 0 -10 -18 -10 -40 0 -22 5 -40 10 -40 18
0 11 -55 -10 -70 -18 -13 -20 -26 -20 -122 0 -65 -4 -108 -10 -108 -5 0 -10
-9 -10 -20 0 -16 7 -20 30 -20 27 0 30 -3 30 -30 0 -21 -5 -30 -16 -30 -22 0
-53 -32 -36 -38 8 -2 12 -24 12 -61 0 -45 4 -59 20 -71 11 -8 20 -18 20 -22 0
-4 -9 -8 -20 -8 -13 0 -20 -7 -20 -20 0 -13 7 -20 20 -20 13 0 20 -7 20 -20 0
-12 -7 -20 -16 -20 -8 0 -22 -7 -31 -15 -14 -14 -13 -18 6 -34 21 -19 29 -71
11 -71 -5 0 -10 -4 -10 -10 0 -5 9 -10 20 -10 26 0 25 -8 -2 -33 -16 -13 -19
-21 -10 -24 6 -3 12 -18 12 -34 0 -26 4 -29 30 -29 17 0 30 -4 30 -10 0 -5
-13 -10 -30 -10 -30 0 -41 -14 -17 -23 9 -4 8 -8 -3 -17 -11 -9 -12 -13 -2
-17 14 -6 16 -43 2 -43 -19 0 -10 -53 13 -73 15 -13 18 -21 10 -24 -15 -5 -18
-63 -3 -63 6 0 10 -9 10 -20 0 -11 -4 -20 -10 -20 -5 0 -10 -4 -10 -10 0 -5 7
-10 15 -10 15 0 65 -42 65 -55 0 -3 -18 -5 -40 -5 -33 0 -40 -3 -40 -20 0 -42
51 -23 185 66 251 167 453 333 683 558 139 137 170 176 142 176 -5 0 -10 5
-10 10 0 6 14 10 30 10 28 0 30 2 30 40 0 22 -4 40 -10 40 -5 0 -10 5 -10 10
0 6 9 10 20 10 13 0 20 7 20 20 0 11 -4 20 -10 20 -5 0 -10 9 -10 20 0 22 35
29 43 8 2 -8 8 -9 13 -4 5 5 4 11 -3 13 -7 3 -13 18 -13 34 0 16 -4 29 -10 29
-5 0 -10 9 -10 20 0 11 5 20 10 20 6 0 10 14 10 30 0 17 5 30 10 30 6 0 10 9
10 20 0 11 -4 20 -10 20 -5 0 -10 21 -10 46 0 47 -16 74 -44 74 -9 0 -16 5
-16 10 0 6 9 10 20 10 11 0 20 -4 20 -10 0 -5 5 -10 10 -10 6 0 10 14 10 30 0
17 -4 30 -10 30 -5 0 -10 9 -10 20 0 13 7 20 20 20 13 0 20 7 20 20 0 13 -7
20 -20 20 -11 0 -20 5 -20 10 0 6 9 10 20 10 11 0 20 4 20 8 0 4 -9 14 -20 22
-11 8 -20 18 -20 22 0 4 9 8 20 8 11 0 20 5 20 10 0 6 -4 10 -10 10 -5 0 -10
9 -10 20 0 11 -4 20 -10 20 -5 0 -10 5 -10 10 0 6 8 10 18 10 10 0 24 9 32 20
8 11 18 20 22 20 13 0 9 -38 -4 -43 -10 -4 -9 -8 2 -17 11 -9 12 -13 3 -17
-15 -6 -17 -43 -3 -43 6 0 10 -9 10 -20 0 -11 5 -20 10 -20 6 0 10 14 10 30 0
23 4 30 20 30 11 0 20 -4 20 -10 0 -5 9 -10 20 -10 34 0 23 29 -30 80 -27 27
-50 56 -50 64 0 11 -9 16 -30 16 -16 0 -30 5 -30 10 0 6 -9 10 -20 10 -11 0
-20 5 -20 10 0 6 -9 10 -20 10 -13 0 -20 7 -20 20 0 28 47 27 72 -2 16 -19 21
-20 29 -8 8 11 12 12 16 3 8 -20 23 -15 23 7 0 13 -7 20 -20 20 -13 0 -20 7
-20 20 0 12 -7 20 -16 20 -8 0 -33 18 -54 40 -21 22 -45 40 -52 40 -7 0 -20 9
-28 20 -8 11 -21 20 -30 20 -9 0 -22 9 -30 20 -8 11 -22 20 -32 20 -10 0 -18
5 -18 10 0 6 -8 10 -18 10 -10 0 -24 9 -32 20 -8 11 -21 20 -30 20 -9 0 -22 9
-30 20 -8 11 -22 20 -31 20 -10 0 -19 6 -22 13 -2 7 -8 8 -13 3 -5 -5 -4 -11
4 -13 6 -3 12 -13 12 -24 0 -14 7 -19 25 -19 14 0 37 -11 51 -25 22 -22 23
-27 10 -40 -21 -21 -46 -19 -46 5 0 13 -7 20 -20 20 -11 0 -20 -4 -20 -10 0
-5 -7 -10 -16 -10 -20 0 -44 -24 -44 -44 0 -9 -8 -16 -18 -16 -10 0 -24 -9
-32 -20 -15 -21 -50 -28 -50 -10 0 6 -13 10 -30 10 -36 0 -37 6 -8 32 19 16
20 21 8 29 -11 8 -12 12 -2 16 23 9 12 23 -18 23 -23 0 -30 4 -30 20 0 13 7
20 20 20 11 0 20 -4 20 -10 0 -5 18 -10 40 -10 22 0 40 3 40 6 0 11 -29 34
-44 34 -9 0 -16 8 -16 20 0 17 -7 20 -40 20 -33 0 -40 3 -40 20 0 11 5 20 10
20 6 0 10 5 10 10 0 6 -9 10 -20 10 -13 0 -20 -7 -20 -20 0 -13 -7 -20 -20
-20 -22 0 -27 16 -8 22 21 7 -17 38 -46 38 -14 0 -26 5 -26 10 0 6 -4 10 -10
10 -5 0 -10 -9 -10 -20z m440 -230 c0 -5 12 -10 26 -10 33 0 63 -28 44 -40
-11 -7 -10 -12 4 -26 15 -14 19 -15 26 -3 5 7 12 10 17 6 4 -5 1 -13 -7 -18
-11 -8 -12 -12 -2 -16 13 -5 17 -43 4 -43 -4 0 -14 9 -22 20 -15 21 -50 28
-50 10 0 -5 5 -10 10 -10 6 0 10 -9 10 -20 0 -13 7 -20 20 -20 13 0 20 -7 20
-20 0 -17 -7 -20 -50 -20 -27 0 -50 -4 -50 -10 0 -5 9 -10 20 -10 15 0 20 -7
20 -26 0 -29 -21 -54 -44 -54 -9 0 -16 -7 -16 -16 0 -20 -24 -44 -44 -44 -12
0 -16 -10 -16 -40 0 -22 -4 -40 -10 -40 -5 0 -10 -9 -10 -20 0 -16 -7 -20 -30
-20 -16 0 -30 -4 -30 -10 0 -5 14 -10 30 -10 17 0 30 -4 30 -10 0 -5 -13 -10
-30 -10 -28 0 -30 -2 -30 -40 0 -22 5 -40 10 -40 6 0 10 -4 10 -10 0 -5 -9
-10 -20 -10 -13 0 -20 -7 -20 -20 0 -12 -7 -20 -16 -20 -22 0 -44 -25 -44 -50
0 -23 -22 -50 -40 -50 -19 0 -47 -33 -32 -38 8 -2 12 -25 12 -63 0 -52 -2 -59
-20 -59 -11 0 -20 5 -20 10 0 6 -7 10 -16 10 -8 0 -22 7 -30 15 -14 13 -14 17
0 30 8 8 26 15 40 15 32 0 35 29 6 50 -22 16 -27 65 -7 74 10 5 10 7 0 12 -7
3 -13 14 -13 25 0 12 -7 19 -20 19 -11 0 -20 5 -20 10 0 6 9 10 20 10 22 0 27
15 8 24 -10 5 -10 7 0 12 7 3 12 25 12 54 0 29 -5 51 -12 54 -10 5 -10 7 0 12
6 3 12 14 12 24 0 10 6 21 13 23 9 4 8 8 -3 17 -11 9 -12 13 -2 17 6 2 12 21
12 40 0 24 7 42 23 56 15 13 18 21 10 24 -23 8 -14 23 13 23 14 0 32 6 40 14
16 17 19 46 4 46 -5 0 -10 5 -10 10 0 6 9 10 20 10 17 0 20 7 20 40 0 30 -4
40 -16 40 -15 0 -44 23 -44 34 0 3 18 6 40 6 33 0 40 -3 40 -20 0 -13 7 -20
20 -20 13 0 20 7 20 20 0 15 7 20 28 20 16 0 34 8 42 20 8 11 21 20 30 20 9 0
22 9 30 20 15 21 30 26 30 10z m240 -80 c0 -5 -9 -10 -20 -10 -11 0 -20 5 -20
10 0 6 9 10 20 10 11 0 20 -4 20 -10z m-494 -44 c21 -21 17 -46 -6 -46 -16 0
-20 7 -20 30 0 34 5 37 26 16z m534 -16 c0 -5 -4 -10 -10 -10 -5 0 -10 5 -10
10 0 6 5 10 10 10 6 0 10 -4 10 -10z m-580 -40 c0 -5 -4 -10 -10 -10 -5 0 -10
-9 -10 -20 0 -13 -7 -20 -20 -20 -11 0 -20 -4 -20 -10 0 -5 -4 -10 -10 -10 -5
0 -10 9 -10 20 0 13 7 20 20 20 13 0 20 7 20 20 0 13 7 20 20 20 11 0 20 -4
20 -10z m520 -90 c0 -11 -4 -20 -10 -20 -5 0 -10 9 -10 20 0 11 5 20 10 20 6
0 10 -9 10 -20z m-90 -20 c8 -12 26 -20 42 -20 21 0 28 -5 28 -20 0 -13 -7
-20 -20 -20 -11 0 -20 -4 -20 -8 0 -4 9 -14 20 -22 11 -8 20 -18 20 -22 0 -4
-9 -8 -20 -8 -11 0 -20 -4 -20 -8 0 -4 9 -14 20 -22 31 -23 26 -50 -10 -50
-23 0 -30 -4 -30 -20 0 -11 5 -20 10 -20 6 0 10 -9 10 -20 0 -13 -7 -20 -20
-20 -13 0 -20 -7 -20 -20 0 -13 7 -20 20 -20 13 0 20 -7 20 -20 0 -13 -7 -20
-20 -20 -11 0 -20 5 -20 10 0 6 -18 10 -40 10 -38 0 -40 2 -40 30 0 27 3 30
30 30 17 0 30 5 30 10 0 6 -7 10 -16 10 -22 0 -53 32 -36 38 6 2 12 17 12 33
0 22 5 29 20 29 13 0 20 7 20 20 0 13 7 20 20 20 11 0 20 5 20 10 0 6 -4 10
-10 10 -5 0 -10 23 -10 50 0 43 -3 50 -20 50 -11 0 -20 5 -20 10 0 18 35 11
50 -10z m-24 -374 c9 -9 14 -35 14 -69 0 -35 5 -57 13 -60 8 -3 5 -11 -10 -24
-18 -16 -23 -31 -23 -67 0 -25 -4 -46 -10 -46 -5 0 -10 5 -10 10 0 6 -9 10
-20 10 -11 0 -20 -4 -20 -10 0 -5 7 -10 16 -10 8 0 22 -7 31 -15 14 -14 13
-18 -8 -36 -19 -17 -21 -22 -9 -29 12 -7 11 -12 -8 -28 -24 -21 -29 -48 -10
-54 21 -7 -17 -38 -46 -38 -14 0 -26 -4 -26 -10 0 -5 9 -10 20 -10 13 0 20 -7
20 -20 0 -32 -27 -23 -75 25 -46 45 -57 75 -29 75 8 0 22 7 31 15 14 14 13 18
-6 34 -22 19 -29 51 -11 51 6 0 10 14 10 30 0 17 5 30 10 30 6 0 10 14 10 30
0 17 5 30 10 30 6 0 10 9 10 20 0 11 5 20 10 20 6 0 10 9 10 20 0 11 5 20 10
20 14 0 12 37 -2 44 -10 5 -10 7 0 12 6 3 12 19 12 35 0 27 3 29 36 29 19 0
42 -6 50 -14z m-156 -526 c8 -11 22 -20 32 -20 10 0 18 -4 18 -10 0 -5 -13
-10 -30 -10 -16 0 -30 -4 -30 -10 0 -5 -4 -10 -10 -10 -5 0 -10 9 -10 19 0 11
-5 21 -12 23 -9 3 -8 9 2 21 19 21 23 21 40 -3z m-10 -100 c0 -13 -7 -20 -20
-20 -13 0 -20 7 -20 20 0 13 7 20 20 20 13 0 20 -7 20 -20z"/>
<path d="M8040 2430 c0 -11 5 -20 10 -20 6 0 10 9 10 20 0 11 -4 20 -10 20 -5
0 -10 -9 -10 -20z"/>
<path d="M7160 2912 c0 -10 9 -24 20 -32 11 -8 20 -22 20 -32 0 -10 5 -18 10
-18 6 0 10 9 10 20 0 11 -4 20 -10 20 -14 0 -12 38 3 43 6 2 8 8 4 13 -4 5
-13 2 -18 -6 -8 -11 -12 -12 -16 -2 -7 18 -23 15 -23 -6z"/>
<path d="M7840 2920 c0 -5 5 -10 10 -10 6 0 10 5 10 10 0 6 -4 10 -10 10 -5 0
-10 -4 -10 -10z"/>
<path d="M2940 2880 c0 -5 5 -10 10 -10 6 0 10 5 10 10 0 6 -4 10 -10 10 -5 0
-10 -4 -10 -10z"/>
<path d="M7240 2880 c0 -5 5 -10 10 -10 6 0 10 5 10 10 0 6 -4 10 -10 10 -5 0
-10 -4 -10 -10z"/>
<path d="M7900 2880 c0 -5 9 -10 20 -10 11 0 20 -4 20 -10 0 -5 9 -10 20 -10
24 0 25 6 6 26 -17 16 -66 19 -66 4z"/>
<path d="M5293 2855 c-15 -16 -17 -45 -4 -45 5 0 12 6 15 13 5 10 7 10 12 0 3
-7 14 -13 25 -13 10 0 19 -4 19 -10 0 -5 5 -10 10 -10 6 0 10 9 10 19 0 11 6
21 12 23 9 3 8 10 -5 23 -16 15 -20 16 -29 4 -7 -11 -11 -11 -15 -1 -6 16 -35
15 -50 -3z"/>
<path d="M7120 2860 c0 -5 9 -10 20 -10 11 0 20 5 20 10 0 6 -9 10 -20 10 -11
0 -20 -4 -20 -10z"/>
<path d="M2060 2830 c0 -13 7 -20 20 -20 24 0 25 6 6 26 -20 19 -26 18 -26 -6z"/>
<path d="M5240 2820 c0 -16 5 -30 10 -30 6 0 10 14 10 30 0 17 -4 30 -10 30
-5 0 -10 -13 -10 -30z"/>
<path d="M7880 2844 c0 -7 27 -34 34 -34 3 0 6 9 6 20 0 13 -7 20 -20 20 -11
0 -20 -3 -20 -6z"/>
<path d="M2873 2815 c-7 -8 -13 -21 -13 -29 0 -8 6 -17 13 -20 10 -5 10 -7 0
-12 -15 -7 -18 -104 -3 -104 6 0 10 -9 10 -20 0 -11 -4 -20 -10 -20 -5 0 -10
-4 -10 -10 0 -5 18 -10 40 -10 32 0 40 4 40 18 0 10 -9 24 -20 32 -11 8 -20
22 -20 32 0 11 7 18 20 18 13 0 20 7 20 20 0 13 -7 20 -20 20 -11 0 -20 5 -20
10 0 6 9 10 20 10 11 0 20 5 20 10 0 6 -4 10 -10 10 -5 0 -10 7 -10 16 0 13
-23 45 -32 44 -2 -1 -9 -7 -15 -15z"/>
<path d="M4980 2800 c0 -16 -4 -30 -10 -30 -5 0 -10 -9 -10 -20 0 -24 6 -25
26 -6 16 16 19 86 4 86 -5 0 -10 -13 -10 -30z"/>
<path d="M5020 2810 c0 -11 5 -20 10 -20 6 0 10 9 10 20 0 11 -4 20 -10 20 -5
0 -10 -9 -10 -20z"/>
<path d="M5060 2820 c0 -5 5 -10 10 -10 6 0 10 5 10 10 0 6 -4 10 -10 10 -5 0
-10 -4 -10 -10z"/>
<path d="M5960 2810 c0 -11 5 -20 10 -20 6 0 10 9 10 20 0 11 -4 20 -10 20 -5
0 -10 -9 -10 -20z"/>
<path d="M7960 2810 c0 -11 5 -20 10 -20 6 0 10 9 10 20 0 11 -4 20 -10 20 -5
0 -10 -9 -10 -20z"/>
<path d="M4560 2800 c0 -5 5 -10 10 -10 6 0 10 5 10 10 0 6 -4 10 -10 10 -5 0
-10 -4 -10 -10z"/>
<path d="M5140 2780 c0 -16 5 -30 10 -30 6 0 10 14 10 30 0 17 -4 30 -10 30
-5 0 -10 -13 -10 -30z"/>
<path d="M5180 2800 c0 -5 5 -10 10 -10 6 0 10 5 10 10 0 6 -4 10 -10 10 -5 0
-10 -4 -10 -10z"/>
<path d="M5060 2770 c0 -11 5 -20 10 -20 6 0 10 9 10 20 0 11 -4 20 -10 20 -5
0 -10 -9 -10 -20z"/>
<path d="M2053 2755 c-18 -20 -16 -25 7 -25 11 0 20 -4 20 -10 0 -5 -4 -10
-10 -10 -5 0 -10 -9 -10 -20 0 -11 5 -20 10 -20 6 0 10 -18 10 -40 0 -22 3
-40 6 -40 11 0 34 29 34 42 0 8 9 20 20 28 11 8 20 20 20 28 0 18 -25 42 -44
42 -9 0 -16 8 -16 20 0 23 -29 26 -47 5z"/>
<path d="M4580 2750 c0 -11 5 -20 10 -20 6 0 10 9 10 20 0 11 -4 20 -10 20 -5
0 -10 -9 -10 -20z"/>
<path d="M5100 2754 c0 -20 29 -49 38 -39 4 4 1 10 -5 12 -7 3 -13 13 -13 24
0 10 -4 19 -10 19 -5 0 -10 -7 -10 -16z"/>
<path d="M5220 2750 c0 -11 5 -20 10 -20 6 0 10 9 10 20 0 11 -4 20 -10 20 -5
0 -10 -9 -10 -20z"/>
<path d="M5260 2740 c0 -16 5 -30 10 -30 6 0 10 14 10 30 0 17 -4 30 -10 30
-5 0 -10 -13 -10 -30z"/>
<path d="M5340 2750 c0 -11 5 -20 10 -20 6 0 10 9 10 20 0 11 -4 20 -10 20 -5
0 -10 -9 -10 -20z"/>
<path d="M4540 2740 c0 -5 5 -10 10 -10 6 0 10 5 10 10 0 6 -4 10 -10 10 -5 0
-10 -4 -10 -10z"/>
<path d="M5300 2740 c0 -5 5 -10 10 -10 6 0 10 5 10 10 0 6 -4 10 -10 10 -5 0
-10 -4 -10 -10z"/>
<path d="M5380 2740 c0 -5 5 -10 10 -10 6 0 10 5 10 10 0 6 -4 10 -10 10 -5 0
-10 -4 -10 -10z"/>
<path d="M5420 2740 c0 -5 5 -10 10 -10 6 0 10 5 10 10 0 6 -4 10 -10 10 -5 0
-10 -4 -10 -10z"/>
<path d="M5360 2700 c0 -5 5 -10 10 -10 6 0 10 5 10 10 0 6 -4 10 -10 10 -5 0
-10 -4 -10 -10z"/>
<path d="M5700 2690 c0 -16 7 -20 30 -20 17 0 30 5 30 10 0 6 -9 10 -20 10
-11 0 -20 5 -20 10 0 6 -4 10 -10 10 -5 0 -10 -9 -10 -20z"/>
<path d="M4920 2680 c0 -5 5 -10 10 -10 6 0 10 5 10 10 0 6 -4 10 -10 10 -5 0
-10 -4 -10 -10z"/>
<path d="M5280 2680 c0 -5 5 -10 10 -10 6 0 10 5 10 10 0 6 -4 10 -10 10 -5 0
-10 -4 -10 -10z"/>
<path d="M5840 2680 c0 -5 -13 -10 -30 -10 -16 0 -30 -4 -30 -10 0 -5 -9 -10
-20 -10 -11 0 -20 -4 -20 -10 0 -5 -13 -10 -30 -10 -16 0 -30 -4 -30 -10 0 -5
-9 -10 -20 -10 -11 0 -20 -4 -20 -10 0 -14 37 -12 43 3 4 9 8 8 17 -3 9 -11
13 -12 17 -2 6 14 83 17 83 2 0 -5 9 -10 20 -10 11 0 20 5 20 10 0 6 -9 10
-20 10 -11 0 -20 3 -20 6 0 11 29 34 44 34 9 0 16 5 16 10 0 6 9 10 20 10 11
0 20 5 20 10 0 6 -13 10 -30 10 -16 0 -30 -4 -30 -10z"/>
<path d="M6400 2680 c0 -5 9 -10 20 -10 11 0 20 5 20 10 0 6 -9 10 -20 10 -11
0 -20 -4 -20 -10z"/>
<path d="M5040 2640 c0 -16 5 -30 10 -30 6 0 10 14 10 30 0 17 -4 30 -10 30
-5 0 -10 -13 -10 -30z"/>
<path d="M5620 2650 c0 -11 5 -20 10 -20 6 0 10 9 10 20 0 11 -4 20 -10 20 -5
0 -10 -9 -10 -20z"/>
<path d="M5660 2660 c0 -5 5 -10 10 -10 6 0 10 5 10 10 0 6 -4 10 -10 10 -5 0
-10 -4 -10 -10z"/>
<path d="M2160 2640 c0 -5 9 -10 20 -10 11 0 20 5 20 10 0 6 -9 10 -20 10 -11
0 -20 -4 -20 -10z"/>
<path d="M5200 2640 c0 -5 5 -10 10 -10 6 0 10 5 10 10 0 6 -4 10 -10 10 -5 0
-10 -4 -10 -10z"/>
<path d="M5480 2640 c0 -5 5 -10 10 -10 6 0 10 5 10 10 0 6 -4 10 -10 10 -5 0
-10 -4 -10 -10z"/>
<path d="M5580 2640 c0 -5 5 -10 10 -10 6 0 10 5 10 10 0 6 -4 10 -10 10 -5 0
-10 -4 -10 -10z"/>
<path d="M9020 2630 c0 -11 5 -20 10 -20 6 0 10 9 10 20 0 11 -4 20 -10 20 -5
0 -10 -9 -10 -20z"/>
<path d="M4600 2620 c0 -5 5 -10 10 -10 6 0 10 5 10 10 0 6 -4 10 -10 10 -5 0
-10 -4 -10 -10z"/>
<path d="M5540 2620 c0 -5 5 -10 10 -10 6 0 10 5 10 10 0 6 -4 10 -10 10 -5 0
-10 -4 -10 -10z"/>
<path d="M5400 2590 c0 -11 -4 -20 -10 -20 -5 0 -10 5 -10 10 0 6 -4 10 -10
10 -5 0 -10 -9 -10 -20 0 -13 7 -20 20 -20 11 0 20 5 20 10 0 6 9 10 20 10 24
0 25 6 6 26 -20 19 -26 18 -26 -6z"/>
<path d="M5460 2600 c0 -5 5 -10 10 -10 6 0 10 5 10 10 0 6 -4 10 -10 10 -5 0
-10 -4 -10 -10z"/>
<path d="M5600 2590 c0 -22 -15 -27 -24 -7 -5 10 -7 10 -12 0 -3 -7 -14 -13
-25 -13 -10 0 -19 -4 -19 -10 0 -14 37 -12 43 3 4 9 8 9 15 -2 9 -12 13 -12
26 2 18 17 21 47 6 47 -5 0 -10 -9 -10 -20z"/>
<path d="M5920 2600 c0 -5 5 -10 10 -10 6 0 10 5 10 10 0 6 -4 10 -10 10 -5 0
-10 -4 -10 -10z"/>
<path d="M5220 2580 c0 -5 5 -10 10 -10 6 0 10 5 10 10 0 6 -4 10 -10 10 -5 0
-10 -4 -10 -10z"/>
<path d="M4420 2560 c0 -5 5 -10 10 -10 6 0 10 5 10 10 0 6 -4 10 -10 10 -5 0
-10 -4 -10 -10z"/>
<path d="M4460 2550 c0 -11 5 -20 10 -20 6 0 10 9 10 20 0 11 -4 20 -10 20 -5
0 -10 -9 -10 -20z"/>
<path d="M4500 2560 c0 -5 5 -10 10 -10 6 0 10 5 10 10 0 6 -4 10 -10 10 -5 0
-10 -4 -10 -10z"/>
<path d="M5180 2560 c0 -5 5 -10 10 -10 6 0 10 5 10 10 0 6 -4 10 -10 10 -5 0
-10 -4 -10 -10z"/>
<path d="M5320 2560 c0 -5 5 -10 10 -10 6 0 10 5 10 10 0 6 -4 10 -10 10 -5 0
-10 -4 -10 -10z"/>
<path d="M5700 2550 c0 -11 -4 -20 -10 -20 -5 0 -10 -9 -10 -20 0 -13 -7 -20
-20 -20 -11 0 -20 -4 -20 -10 0 -5 5 -10 10 -10 6 0 10 -9 10 -20 0 -11 5 -20
10 -20 6 0 10 -9 10 -20 0 -13 -7 -20 -20 -20 -13 0 -20 7 -20 20 0 24 -6 25
-28 3 -12 -12 -13 -18 -4 -21 6 -2 12 -17 12 -33 0 -26 4 -29 30 -29 23 0 30
-4 30 -20 0 -11 5 -20 10 -20 6 0 10 9 10 20 0 11 5 20 10 20 14 0 12 37 -2
44 -10 5 -10 7 0 12 6 3 12 18 12 34 0 16 -6 31 -12 33 -10 4 -9 8 2 17 11 9
12 13 3 17 -15 6 -17 43 -3 43 6 0 10 -4 10 -10 0 -5 14 -10 30 -10 17 0 30 5
30 10 0 6 -4 10 -10 10 -5 0 -10 9 -10 20 0 16 -7 20 -30 20 -23 0 -30 -4 -30
-20z"/>
<path d="M2860 2540 c0 -5 5 -10 10 -10 6 0 10 5 10 10 0 6 -4 10 -10 10 -5 0
-10 -4 -10 -10z"/>
<path d="M5220 2540 c0 -5 9 -10 20 -10 11 0 20 5 20 10 0 6 -9 10 -20 10 -11
0 -20 -4 -20 -10z"/>
<path d="M2260 2520 c0 -5 9 -10 20 -10 11 0 20 5 20 10 0 6 -9 10 -20 10 -11
0 -20 -4 -20 -10z"/>
<path d="M5340 2520 c0 -5 -22 -10 -50 -10 -54 0 -61 -7 -30 -30 25 -18 26
-50 2 -50 -10 0 -24 9 -32 20 -15 21 -70 28 -70 10 0 -5 12 -10 26 -10 14 0
32 -7 40 -15 14 -13 14 -17 -1 -31 -14 -15 -17 -14 -34 5 -19 22 -51 29 -51
11 0 -5 -9 -10 -20 -10 -11 0 -20 5 -20 10 0 6 -4 10 -10 10 -5 0 -10 -9 -10
-20 0 -16 7 -20 30 -20 17 0 30 -4 30 -10 0 -5 -7 -10 -15 -10 -9 0 -32 -16
-51 -36 l-36 -35 21 -18 c12 -10 21 -30 21 -45 0 -22 -4 -26 -30 -26 -16 0
-30 -4 -30 -10 0 -5 -9 -10 -20 -10 -11 0 -20 5 -20 10 0 6 -13 10 -30 10 -23
0 -30 -4 -30 -20 0 -11 5 -20 10 -20 14 0 12 -37 -2 -43 -10 -4 -10 -8 1 -15
12 -9 12 -13 -2 -26 -8 -9 -23 -16 -31 -16 -9 0 -16 -4 -16 -10 0 -5 5 -10 10
-10 6 0 10 -9 10 -20 0 -11 -4 -20 -10 -20 -5 0 -10 -18 -10 -40 0 -38 2 -40
30 -40 17 0 30 -4 30 -10 0 -5 -4 -10 -10 -10 -5 0 -10 -9 -10 -20 0 -23 34
-28 44 -7 5 10 7 10 12 0 8 -17 32 -16 50 1 21 22 17 26 -26 26 -33 0 -40 3
-40 20 0 16 7 20 30 20 27 0 30 3 30 30 0 27 -3 30 -30 30 -34 0 -37 5 -15 27
14 14 18 13 34 -6 24 -28 71 -29 71 -1 0 13 -7 20 -20 20 -11 0 -20 4 -20 8 0
4 9 14 20 22 22 16 27 66 8 72 -9 3 -8 10 5 22 17 17 19 17 36 -3 25 -29 91
-30 91 -1 0 16 -7 20 -30 20 -16 0 -30 5 -30 10 0 6 5 10 10 10 6 0 10 9 10
20 0 17 7 20 50 20 l50 0 0 40 c0 38 -13 54 -23 28 -2 -7 -8 -10 -12 -6 -10 9
19 38 39 38 9 0 16 8 16 20 0 16 7 20 30 20 17 0 30 5 30 10 0 6 -9 10 -20 10
-13 0 -20 7 -20 20 0 11 5 20 10 20 6 0 10 7 10 16 0 23 25 44 54 44 14 0 26
5 26 10 0 6 -13 10 -30 10 -16 0 -30 -4 -30 -10z m-160 -220 c0 -5 -13 -10
-30 -10 -16 0 -30 5 -30 10 0 6 14 10 30 10 17 0 30 -4 30 -10z m-40 -40 c0
-5 -4 -10 -10 -10 -5 0 -10 5 -10 10 0 6 5 10 10 10 6 0 10 -4 10 -10z m-20
-40 c0 -5 -4 -10 -10 -10 -5 0 -10 5 -10 10 0 6 5 10 10 10 6 0 10 -4 10 -10z
m-100 -116 c0 -3 -7 -12 -15 -20 -13 -14 -17 -14 -30 0 -22 21 -19 26 15 26
17 0 30 -3 30 -6z"/>
<path d="M5500 2520 c0 -5 5 -10 10 -10 6 0 10 5 10 10 0 6 -4 10 -10 10 -5 0
-10 -4 -10 -10z"/>
<path d="M4400 2490 c0 -11 5 -20 10 -20 6 0 10 9 10 20 0 11 -4 20 -10 20 -5
0 -10 -9 -10 -20z"/>
<path d="M4540 2480 c0 -16 -4 -30 -10 -30 -5 0 -10 5 -10 10 0 6 -9 10 -20
10 -11 0 -20 -4 -20 -10 0 -5 9 -10 20 -10 11 0 20 -4 20 -10 0 -5 -4 -10 -10
-10 -5 0 -10 -9 -10 -20 0 -15 -7 -20 -28 -20 -16 0 -34 -8 -42 -20 -8 -11
-22 -20 -32 -20 -11 0 -18 -7 -18 -20 0 -16 7 -20 30 -20 17 0 30 -4 30 -10 0
-5 18 -10 39 -10 22 0 41 -5 43 -12 3 -9 9 -8 21 4 23 23 21 48 -3 48 -11 0
-20 5 -20 10 0 6 -13 10 -30 10 -16 0 -30 5 -30 10 0 6 9 10 20 10 11 0 20 5
20 10 0 6 9 10 20 10 16 0 20 7 20 30 0 17 5 30 10 30 6 0 10 14 10 30 0 17
-4 30 -10 30 -5 0 -10 -13 -10 -30z"/>
<path d="M5200 2500 c0 -5 5 -10 10 -10 6 0 10 5 10 10 0 6 -4 10 -10 10 -5 0
-10 -4 -10 -10z"/>
<path d="M8980 2500 c0 -5 5 -10 10 -10 6 0 10 5 10 10 0 6 -4 10 -10 10 -5 0
-10 -4 -10 -10z"/>
<path d="M4440 2480 c0 -5 5 -10 10 -10 6 0 10 5 10 10 0 6 -4 10 -10 10 -5 0
-10 -4 -10 -10z"/>
<path d="M2220 2460 c0 -5 14 -10 30 -10 17 0 30 5 30 10 0 6 -13 10 -30 10
-16 0 -30 -4 -30 -10z"/>
<path d="M4580 2460 c0 -5 14 -10 30 -10 17 0 30 5 30 10 0 6 -13 10 -30 10
-16 0 -30 -4 -30 -10z"/>
<path d="M4660 2460 c0 -5 5 -10 10 -10 6 0 10 5 10 10 0 6 -4 10 -10 10 -5 0
-10 -4 -10 -10z"/>
<path d="M8960 2450 c0 -11 5 -20 10 -20 6 0 10 9 10 20 0 11 -4 20 -10 20 -5
0 -10 -9 -10 -20z"/>
<path d="M2300 2430 c0 -11 5 -20 10 -20 6 0 10 -4 10 -10 0 -5 -9 -10 -20
-10 -11 0 -20 -4 -20 -10 0 -5 9 -10 20 -10 15 0 20 -7 20 -25 0 -14 11 -37
25 -51 l25 -25 26 26 c22 22 23 27 10 40 -8 8 -22 15 -30 15 -9 0 -16 5 -16
10 0 6 9 10 20 10 11 0 20 5 20 10 0 6 -7 10 -16 10 -9 0 -29 14 -44 30 -33
35 -40 37 -40 10z"/>
<path d="M4320 2440 c0 -5 5 -10 10 -10 6 0 10 5 10 10 0 6 -4 10 -10 10 -5 0
-10 -4 -10 -10z"/>
<path d="M4360 2440 c0 -5 5 -10 10 -10 6 0 10 5 10 10 0 6 -4 10 -10 10 -5 0
-10 -4 -10 -10z"/>
<path d="M5560 2400 c0 -5 5 -10 10 -10 6 0 10 5 10 10 0 6 -4 10 -10 10 -5 0
-10 -4 -10 -10z"/>
<path d="M5313 2335 c-18 -20 -16 -25 7 -25 13 0 20 7 20 20 0 23 -10 25 -27
5z"/>
<path d="M1660 2312 c0 -10 9 -24 20 -32 11 -8 20 -20 20 -28 0 -16 -24 -42
-40 -42 -25 0 -40 -30 -40 -81 0 -40 -5 -56 -22 -70 l-21 -19 21 -19 c22 -18
31 -71 12 -71 -14 0 -12 -37 3 -44 10 -5 10 -7 0 -12 -7 -3 -13 -14 -13 -25 0
-10 -4 -19 -10 -19 -18 0 -11 -35 10 -50 11 -8 20 -18 20 -22 0 -4 -9 -8 -20
-8 -11 0 -20 -4 -20 -8 0 -4 9 -14 20 -22 12 -8 20 -26 20 -42 0 -21 5 -28 20
-28 11 0 20 5 20 10 0 6 5 10 10 10 6 0 10 -9 10 -20 0 -16 -7 -20 -30 -20
-36 0 -37 -6 -9 -31 19 -16 20 -20 6 -34 -21 -20 -27 -19 -27 5 0 11 -4 20
-10 20 -5 0 -10 -9 -10 -20 0 -11 5 -20 10 -20 6 0 10 -27 10 -60 0 -33 4 -60
10 -60 15 0 12 -97 -2 -104 -10 -5 -10 -7 0 -12 14 -7 16 -44 2 -44 -5 0 -10
-4 -10 -10 0 -5 9 -10 20 -10 11 0 20 -4 20 -10 0 -5 -4 -10 -10 -10 -5 0 -10
-9 -10 -20 0 -11 5 -20 10 -20 6 0 10 -8 11 -17 0 -17 126 -127 205 -181 33
-22 34 -22 34 -2 0 11 -4 20 -10 20 -5 0 -10 9 -10 20 0 11 5 20 10 20 6 0 10
14 10 30 0 17 -4 30 -10 30 -5 0 -10 -4 -10 -10 0 -5 -4 -10 -10 -10 -5 0 -10
14 -10 30 0 23 4 30 20 30 13 0 20 7 20 20 0 11 5 20 10 20 6 0 10 5 10 10 0
6 -9 10 -20 10 -11 0 -20 5 -20 10 0 6 5 10 10 10 6 0 10 18 10 40 0 33 -3 40
-20 40 -19 0 -20 7 -20 110 0 103 1 110 20 110 16 0 20 7 20 30 0 17 -4 30
-10 30 -5 0 -10 18 -10 40 0 22 -4 40 -10 40 -15 0 -12 57 3 64 10 5 10 7 0
12 -7 3 -13 14 -13 25 0 12 -7 19 -20 19 -11 0 -20 5 -20 10 0 6 7 10 16 10 8
0 22 7 30 15 14 13 14 17 0 30 -8 8 -22 15 -30 15 -11 0 -16 9 -16 30 0 17 5
30 10 30 18 0 11 35 -10 50 -15 11 -20 26 -20 59 0 33 -6 48 -22 63 -19 16
-20 21 -8 29 11 8 12 12 3 16 -7 2 -13 13 -13 24 0 10 -4 19 -10 19 -5 0 -10
14 -10 30 0 17 -4 30 -10 30 -5 0 -10 7 -10 16 0 8 -6 22 -14 30 -20 20 -46
18 -46 -4z m60 -152 c0 -5 -4 -10 -10 -10 -5 0 -10 5 -10 10 0 6 5 10 10 10 6
0 10 -4 10 -10z"/>
<path d="M6880 2300 c0 -5 5 -10 10 -10 6 0 10 5 10 10 0 6 -4 10 -10 10 -5 0
-10 -4 -10 -10z"/>
<path d="M2760 2280 c0 -5 5 -10 10 -10 6 0 10 5 10 10 0 6 -4 10 -10 10 -5 0
-10 -4 -10 -10z"/>
<path d="M4980 2280 c0 -5 9 -10 20 -10 11 0 20 5 20 10 0 6 -9 10 -20 10 -11
0 -20 -4 -20 -10z"/>
<path d="M2080 2250 c0 -11 5 -20 10 -20 6 0 10 9 10 20 0 11 -4 20 -10 20 -5
0 -10 -9 -10 -20z"/>
<path d="M4360 2260 c0 -5 5 -10 10 -10 6 0 10 5 10 10 0 6 -4 10 -10 10 -5 0
-10 -4 -10 -10z"/>
<path d="M4400 2260 c0 -5 5 -10 10 -10 6 0 10 5 10 10 0 6 -4 10 -10 10 -5 0
-10 -4 -10 -10z"/>
<path d="M5560 2250 c0 -16 7 -20 30 -20 17 0 30 5 30 10 0 6 -9 10 -20 10
-11 0 -20 5 -20 10 0 6 -4 10 -10 10 -5 0 -10 -9 -10 -20z"/>
<path d="M2000 2240 c0 -5 9 -10 20 -10 11 0 20 5 20 10 0 6 -9 10 -20 10 -11
0 -20 -4 -20 -10z"/>
<path d="M2340 2241 c0 -5 6 -11 13 -14 8 -3 5 -11 -10 -24 -32 -28 -29 -33
17 -33 33 0 40 3 40 20 0 11 -4 20 -10 20 -5 0 -10 9 -10 20 0 13 -7 20 -20
20 -11 0 -20 -4 -20 -9z"/>
<path d="M5660 2240 c0 -5 5 -10 10 -10 6 0 10 5 10 10 0 6 -4 10 -10 10 -5 0
-10 -4 -10 -10z"/>
<path d="M4380 2220 c0 -5 9 -10 20 -10 11 0 20 5 20 10 0 6 -9 10 -20 10 -11
0 -20 -4 -20 -10z"/>
<path d="M8460 2220 c0 -5 5 -10 10 -10 6 0 10 5 10 10 0 6 -4 10 -10 10 -5 0
-10 -4 -10 -10z"/>
<path d="M8660 2200 c0 -16 5 -30 10 -30 6 0 10 -4 10 -10 0 -5 -9 -10 -20
-10 -11 0 -20 -4 -20 -10 0 -5 5 -10 10 -10 6 0 10 -27 10 -60 0 -33 4 -60 10
-60 6 0 10 -9 10 -19 0 -36 26 -30 54 12 14 23 22 43 16 45 -5 2 -10 19 -10
39 0 26 -8 42 -30 63 -18 17 -30 38 -30 54 0 14 -4 26 -10 26 -5 0 -10 -13
-10 -30z"/>
<path d="M2720 2200 c0 -5 5 -10 10 -10 6 0 10 5 10 10 0 6 -4 10 -10 10 -5 0
-10 -4 -10 -10z"/>
<path d="M5620 2200 c0 -5 9 -10 20 -10 11 0 20 5 20 10 0 6 -9 10 -20 10 -11
0 -20 -4 -20 -10z"/>
<path d="M8540 2190 c0 -11 5 -20 10 -20 6 0 10 -9 10 -19 0 -11 6 -22 13 -25
10 -5 10 -7 0 -12 -15 -7 -17 -44 -3 -44 6 0 10 -9 10 -20 0 -11 -4 -20 -10
-20 -5 0 -10 -13 -10 -30 0 -16 5 -30 10 -30 6 0 10 -13 10 -30 0 -16 5 -30
10 -30 6 0 10 -17 10 -37 l1 -38 33 39 c29 34 33 45 29 75 -4 20 -10 38 -15
39 -4 2 -8 21 -8 43 0 21 -4 39 -10 39 -5 0 -10 21 -10 46 0 47 -16 74 -44 74
-9 0 -16 5 -16 10 0 6 -4 10 -10 10 -5 0 -10 -9 -10 -20z"/>
<path d="M2000 2180 c0 -5 9 -10 20 -10 11 0 20 5 20 10 0 6 -9 10 -20 10 -11
0 -20 -4 -20 -10z"/>
<path d="M5560 2180 c0 -5 5 -10 10 -10 6 0 10 5 10 10 0 6 -4 10 -10 10 -5 0
-10 -4 -10 -10z"/>
<path d="M6440 2180 c0 -5 5 -10 10 -10 6 0 10 5 10 10 0 6 -4 10 -10 10 -5 0
-10 -4 -10 -10z"/>
<path d="M2360 2120 c0 -5 9 -10 20 -10 11 0 20 5 20 10 0 6 -9 10 -20 10 -11
0 -20 -4 -20 -10z"/>
<path d="M5100 2120 c0 -5 5 -10 10 -10 6 0 10 5 10 10 0 6 -4 10 -10 10 -5 0
-10 -4 -10 -10z"/>
<path d="M5480 2110 c0 -13 7 -20 20 -20 24 0 25 6 6 26 -20 19 -26 18 -26 -6z"/>
<path d="M5420 2100 c0 -5 5 -10 10 -10 6 0 10 5 10 10 0 6 -4 10 -10 10 -5 0
-10 -4 -10 -10z"/>
<path d="M5960 2100 c0 -5 5 -10 10 -10 6 0 10 5 10 10 0 6 -4 10 -10 10 -5 0
-10 -4 -10 -10z"/>
<path d="M3560 2080 c0 -5 5 -10 10 -10 6 0 10 5 10 10 0 6 -4 10 -10 10 -5 0
-10 -4 -10 -10z"/>
<path d="M4820 2084 c0 -7 27 -34 34 -34 3 0 6 9 6 20 0 13 -7 20 -20 20 -11
0 -20 -3 -20 -6z"/>
<path d="M2020 2040 c0 -23 4 -30 20 -30 13 0 20 7 20 20 0 11 5 20 10 20 6 0
10 5 10 10 0 6 -13 10 -30 10 -27 0 -30 -3 -30 -30z"/>
<path d="M3380 2060 c0 -5 -9 -10 -20 -10 -12 0 -20 -7 -20 -16 0 -9 -13 -29
-30 -44 -16 -15 -30 -35 -30 -44 0 -9 -4 -16 -10 -16 -5 0 -10 -9 -10 -20 0
-11 -4 -20 -10 -20 -5 0 -10 -13 -10 -30 0 -16 -4 -30 -10 -30 -5 0 -10 -13
-10 -30 0 -16 -4 -30 -10 -30 -5 0 -10 -13 -10 -30 0 -16 -4 -30 -10 -30 -5 0
-10 -22 -10 -50 0 -27 -4 -50 -10 -50 -5 0 -10 -21 -10 -46 0 -38 5 -51 30
-74 17 -15 30 -31 30 -34 0 -3 -13 -6 -30 -6 -34 0 -37 -5 -14 -27 13 -14 17
-14 26 -2 7 11 11 11 15 2 3 -9 26 -13 64 -13 33 0 59 -4 59 -10 0 -5 23 -10
50 -10 28 0 50 5 50 10 0 6 7 10 15 10 18 0 85 64 85 81 0 6 14 24 30 39 17
15 30 35 30 44 0 9 5 16 10 16 6 0 10 14 10 30 0 17 5 30 10 30 6 0 10 13 10
29 0 16 6 32 13 35 10 5 10 7 0 12 -7 3 -13 18 -13 34 0 16 6 31 13 34 10 5
10 7 0 12 -9 4 -13 31 -13 85 l0 79 -30 0 c-16 0 -30 5 -30 10 0 6 14 10 30
10 17 0 30 5 30 10 0 6 -13 10 -30 10 -16 0 -30 5 -30 10 0 6 -8 10 -18 10
-10 0 -24 9 -32 20 -12 17 -26 20 -82 20 -39 0 -68 -4 -68 -10z"/>
<path d="M5120 2060 c0 -5 5 -10 10 -10 6 0 10 5 10 10 0 6 -4 10 -10 10 -5 0
-10 -4 -10 -10z"/>
<path d="M1560 1990 c0 -24 6 -25 26 -6 19 20 18 26 -6 26 -13 0 -20 -7 -20
-20z"/>
<path d="M6460 1940 c0 -5 -16 -10 -36 -10 -31 0 -64 -18 -64 -34 0 -3 14 -6
30 -6 17 0 30 5 30 10 0 6 9 10 20 10 11 0 20 5 20 10 0 6 18 10 40 10 22 0
40 5 40 10 0 6 -18 10 -40 10 -22 0 -40 -4 -40 -10z"/>
<path d="M4820 1890 c0 -23 25 -27 46 -6 21 21 18 26 -16 26 -23 0 -30 -4 -30
-20z"/>
<path d="M6460 1880 c0 -5 9 -10 20 -10 11 0 20 5 20 10 0 6 -9 10 -20 10 -11
0 -20 -4 -20 -10z"/>
<path d="M4740 1840 c0 -5 5 -10 10 -10 6 0 10 5 10 10 0 6 -4 10 -10 10 -5 0
-10 -4 -10 -10z"/>
<path d="M4872 1814 c-11 -12 -11 -17 2 -29 21 -22 26 -19 26 15 0 33 -8 37
-28 14z"/>
<path d="M6900 1820 c0 -5 5 -10 10 -10 6 0 10 5 10 10 0 6 -4 10 -10 10 -5 0
-10 -4 -10 -10z"/>
<path d="M8580 1819 c0 -5 5 -7 10 -4 6 3 10 8 10 11 0 2 -4 4 -10 4 -5 0 -10
-5 -10 -11z"/>
<path d="M4733 1775 c-19 -21 -16 -25 17 -25 23 0 30 4 30 20 0 23 -29 26 -47
5z"/>
<path d="M4680 1720 c0 -5 5 -10 10 -10 6 0 10 5 10 10 0 6 -4 10 -10 10 -5 0
-10 -4 -10 -10z"/>
<path d="M4740 1710 c0 -11 -4 -20 -10 -20 -5 0 -10 -4 -10 -10 0 -15 49 -12
66 4 19 20 18 26 -6 26 -11 0 -20 5 -20 10 0 6 -4 10 -10 10 -5 0 -10 -9 -10
-20z"/>
<path d="M4540 1680 c0 -5 5 -10 10 -10 6 0 10 5 10 10 0 6 -4 10 -10 10 -5 0
-10 -4 -10 -10z"/>
<path d="M4620 1680 c0 -5 5 -10 10 -10 6 0 10 5 10 10 0 6 -4 10 -10 10 -5 0
-10 -4 -10 -10z"/>
<path d="M6300 1660 c0 -23 4 -30 20 -30 23 0 27 25 6 46 -21 21 -26 18 -26
-16z"/>
<path d="M6400 1660 c0 -5 14 -10 30 -10 17 0 30 5 30 10 0 6 -13 10 -30 10
-16 0 -30 -4 -30 -10z"/>
<path d="M4620 1644 c0 -11 29 -34 44 -34 20 0 20 7 2 26 -14 14 -46 20 -46 8z"/>
<path d="M4560 1620 c0 -5 5 -10 10 -10 6 0 10 5 10 10 0 6 -4 10 -10 10 -5 0
-10 -4 -10 -10z"/>
<path d="M4700 1620 c0 -5 5 -10 10 -10 6 0 10 5 10 10 0 6 -4 10 -10 10 -5 0
-10 -4 -10 -10z"/>
<path d="M5320 1600 c0 -5 5 -10 10 -10 6 0 10 5 10 10 0 6 -4 10 -10 10 -5 0
-10 -4 -10 -10z"/>
<path d="M4590 1573 c-10 -12 -11 -18 -2 -21 31 -10 6 -22 -48 -22 -53 0 -60
-2 -60 -20 0 -11 5 -20 10 -20 6 0 10 -18 10 -40 0 -22 -4 -40 -10 -40 -5 0
-10 5 -10 10 0 6 -9 10 -20 10 -13 0 -20 -7 -20 -20 0 -16 -7 -20 -30 -20 -23
0 -30 -4 -30 -20 0 -11 5 -20 10 -20 18 0 11 -35 -10 -50 -11 -8 -20 -18 -20
-22 0 -13 38 -9 44 5 5 10 7 10 12 0 3 -7 14 -13 25 -13 12 0 19 -7 19 -20 0
-11 5 -20 10 -20 6 0 10 -4 10 -10 0 -5 -9 -10 -20 -10 -11 0 -20 -3 -20 -6 0
-14 31 -34 54 -34 14 0 26 -4 26 -10 0 -5 5 -10 10 -10 6 0 10 9 10 20 0 11 4
20 8 20 4 0 14 -9 22 -20 15 -21 50 -28 50 -10 0 6 -4 10 -10 10 -5 0 -10 5
-10 10 0 14 38 12 43 -2 2 -7 8 -10 12 -6 12 12 -22 38 -49 38 -14 0 -26 5
-26 10 0 6 9 10 20 10 11 0 20 5 20 10 0 6 -22 10 -50 10 -27 0 -50 -4 -50
-10 0 -5 -9 -10 -20 -10 -13 0 -20 7 -20 20 0 17 7 20 46 20 26 0 52 6 60 14
21 21 18 26 -16 26 -16 0 -30 5 -30 10 0 6 7 10 16 10 20 0 44 24 44 44 0 9 5
16 10 16 6 0 10 9 10 20 0 13 -7 20 -20 20 -16 0 -20 7 -20 30 0 23 4 30 20
30 16 0 20 -7 20 -30 0 -25 4 -30 25 -30 16 0 39 13 61 35 l35 35 -25 25 c-27
27 -52 32 -58 13 -6 -17 -38 14 -38 36 0 20 -11 20 -30 -1z m70 -93 c0 -5 -4
-10 -10 -10 -5 0 -10 5 -10 10 0 6 5 10 10 10 6 0 10 -4 10 -10z m-160 -160
c0 -5 -18 -10 -40 -10 -22 0 -40 5 -40 10 0 6 18 10 40 10 22 0 40 -4 40 -10z"/>
<path d="M6400 1580 c0 -5 5 -10 10 -10 6 0 10 5 10 10 0 6 -4 10 -10 10 -5 0
-10 -4 -10 -10z"/>
<path d="M4500 1560 c0 -5 14 -10 30 -10 17 0 30 5 30 10 0 6 -13 10 -30 10
-16 0 -30 -4 -30 -10z"/>
<path d="M6400 1540 c0 -5 5 -10 10 -10 6 0 10 5 10 10 0 6 -4 10 -10 10 -5 0
-10 -4 -10 -10z"/>
<path d="M5300 1500 c0 -5 5 -10 10 -10 6 0 10 5 10 10 0 6 -4 10 -10 10 -5 0
-10 -4 -10 -10z"/>
<path d="M6560 1490 c0 -11 5 -20 10 -20 6 0 10 9 10 20 0 11 -4 20 -10 20 -5
0 -10 -9 -10 -20z"/>
<path d="M6080 1460 c0 -5 5 -10 10 -10 6 0 10 5 10 10 0 6 -4 10 -10 10 -5 0
-10 -4 -10 -10z"/>
<path d="M4720 1430 c0 -11 5 -20 10 -20 6 0 10 9 10 20 0 11 -4 20 -10 20 -5
0 -10 -9 -10 -20z"/>
<path d="M6540 1444 c0 -10 31 -36 37 -31 3 3 -2 13 -10 22 -16 15 -27 19 -27
9z"/>
<path d="M1880 1410 c0 -13 7 -20 20 -20 13 0 20 7 20 20 0 13 -7 20 -20 20
-13 0 -20 -7 -20 -20z"/>
<path d="M4640 1400 c0 -5 9 -10 20 -10 11 0 20 5 20 10 0 6 -9 10 -20 10 -11
0 -20 -4 -20 -10z"/>
<path d="M6540 1370 c0 -16 7 -20 30 -20 17 0 30 5 30 10 0 6 -9 10 -20 10
-11 0 -20 5 -20 10 0 6 -4 10 -10 10 -5 0 -10 -9 -10 -20z"/>
<path d="M4620 1360 c0 -5 5 -10 10 -10 6 0 10 5 10 10 0 6 -4 10 -10 10 -5 0
-10 -4 -10 -10z"/>
<path d="M6040 1340 c0 -5 9 -10 20 -10 11 0 20 5 20 10 0 6 -9 10 -20 10 -11
0 -20 -4 -20 -10z"/>
<path d="M4680 1314 c0 -20 29 -49 38 -39 4 4 1 10 -5 12 -7 3 -13 13 -13 24
0 10 -4 19 -10 19 -5 0 -10 -7 -10 -16z"/>
<path d="M6400 1320 c0 -5 5 -10 10 -10 6 0 10 5 10 10 0 6 -4 10 -10 10 -5 0
-10 -4 -10 -10z"/>
<path d="M6280 1270 c0 -16 7 -20 30 -20 17 0 30 5 30 10 0 6 -9 10 -20 10
-11 0 -20 5 -20 10 0 6 -4 10 -10 10 -5 0 -10 -9 -10 -20z"/>
<path d="M6380 1260 c0 -16 5 -30 10 -30 6 0 10 14 10 30 0 17 -4 30 -10 30
-5 0 -10 -13 -10 -30z"/>
<path d="M5913 1255 c-13 -14 -18 -45 -7 -45 11 0 34 29 34 44 0 20 -11 20
-27 1z"/>
<path d="M6040 1260 c0 -5 5 -10 10 -10 6 0 10 5 10 10 0 6 -4 10 -10 10 -5 0
-10 -4 -10 -10z"/>
<path d="M6140 1260 c0 -5 5 -10 10 -10 6 0 10 5 10 10 0 6 -4 10 -10 10 -5 0
-10 -4 -10 -10z"/>
<path d="M4380 1230 c0 -13 7 -20 20 -20 13 0 20 7 20 20 0 13 -7 20 -20 20
-13 0 -20 -7 -20 -20z"/>
<path d="M5860 1240 c0 -5 5 -10 10 -10 6 0 10 5 10 10 0 6 -4 10 -10 10 -5 0
-10 -4 -10 -10z"/>
<path d="M5960 1220 c0 -5 9 -10 20 -10 11 0 20 5 20 10 0 6 -9 10 -20 10 -11
0 -20 -4 -20 -10z"/>
<path d="M6440 1224 c0 -11 29 -34 44 -34 9 0 16 -4 16 -10 0 -5 -13 -10 -29
-10 -16 0 -32 -6 -35 -12 -5 -10 -7 -10 -12 0 -9 19 -24 14 -24 -8 0 -13 7
-20 19 -20 11 0 22 -6 25 -12 5 -10 7 -10 12 0 7 14 44 16 44 2 0 -5 5 -10 10
-10 6 0 10 9 10 19 0 11 6 22 13 25 10 5 10 7 0 12 -7 3 -13 14 -13 25 0 12
-7 19 -20 19 -11 0 -20 5 -20 10 0 6 -9 10 -20 10 -11 0 -20 -3 -20 -6z"/>
<path d="M6320 1190 c0 -11 5 -20 10 -20 6 0 10 5 10 10 0 6 14 10 30 10 17 0
30 5 30 10 0 6 -18 10 -40 10 -33 0 -40 -3 -40 -20z"/>
<path d="M4320 1180 c0 -5 7 -10 16 -10 15 0 44 -23 44 -34 0 -3 -7 -6 -16 -6
-20 0 -44 -24 -44 -44 0 -12 -11 -16 -50 -16 -27 0 -50 -4 -50 -10 0 -5 13
-10 29 -10 16 0 32 -6 35 -12 5 -10 7 -10 12 0 7 14 44 16 44 2 0 -6 30 -10
70 -10 63 0 70 -2 70 -20 0 -11 -4 -20 -10 -20 -5 0 -10 5 -10 10 0 14 -37 12
-44 -2 -5 -10 -7 -10 -12 0 -3 6 -23 12 -45 12 -37 0 -39 -2 -39 -30 0 -27 -3
-30 -30 -30 -34 0 -37 -5 -14 -27 13 -13 17 -14 24 -3 6 10 14 7 34 -13 31
-31 32 -37 6 -37 -13 0 -20 -7 -20 -20 0 -17 7 -20 40 -20 22 0 40 -4 40 -10
0 -5 -9 -10 -20 -10 -22 0 -27 -16 -8 -22 9 -3 7 -10 -6 -24 -14 -13 -21 -15
-24 -6 -5 17 -30 15 -49 -3 -14 -14 -13 -18 6 -34 12 -10 21 -28 21 -40 0 -24
-27 -57 -38 -47 -3 4 0 11 7 16 12 7 12 11 -2 24 -8 9 -18 16 -21 16 -12 0 -6
-98 7 -104 10 -5 10 -7 0 -12 -7 -3 -13 -14 -13 -24 0 -10 6 -21 13 -24 10 -5
10 -7 0 -12 -13 -6 -18 -44 -7 -44 4 0 15 10 25 22 11 11 22 18 27 13 4 -4 1
-10 -5 -12 -7 -3 -13 -13 -13 -24 0 -12 -7 -19 -20 -19 -11 0 -20 -4 -20 -10
0 -5 14 -10 30 -10 36 0 37 -6 8 -31 l-21 -19 21 -19 c17 -14 22 -30 22 -65 0
-25 -4 -46 -10 -46 -5 0 -10 5 -10 10 0 6 -9 10 -20 10 -11 0 -20 -4 -20 -10
0 -5 -9 -10 -20 -10 -13 0 -20 7 -20 20 0 11 -4 20 -10 20 -5 0 -10 -4 -10
-10 0 -5 -13 -10 -30 -10 -23 0 -30 4 -30 20 0 12 7 20 16 20 20 0 49 29 39
38 -4 4 -10 1 -12 -5 -3 -7 -11 -13 -20 -13 -17 0 -43 -24 -43 -40 0 -17 26
-40 44 -40 10 0 16 -9 16 -26 0 -14 7 -32 15 -41 14 -14 18 -13 34 6 23 27 51
27 51 1 0 -16 -7 -20 -30 -20 -16 0 -30 -4 -30 -10 0 -14 -37 -12 -44 3 -5 9
-7 9 -12 0 -3 -7 -12 -13 -21 -13 -32 0 -58 -53 -30 -63 6 -2 9 -8 5 -12 -5
-5 -16 2 -27 13 -22 27 -51 29 -51 4 0 -22 53 -38 182 -52 64 -7 94 -8 96 0 5
15 42 12 42 -3 0 -10 25 -16 96 -20 l96 -7 28 30 c27 29 60 40 60 20 0 -5 -9
-10 -20 -10 -13 0 -20 -7 -20 -20 0 -22 15 -27 24 -7 5 9 7 9 12 0 4 -9 29
-13 75 -13 l69 0 0 40 c0 22 -4 40 -10 40 -5 0 -10 18 -10 40 0 22 -4 40 -10
40 -5 0 -10 23 -10 50 0 28 -4 50 -10 50 -5 0 -10 13 -10 29 0 16 -6 32 -12
34 -10 4 -9 8 2 16 12 8 11 13 -10 31 -21 18 -22 23 -10 31 11 8 12 12 3 16
-7 2 -13 17 -13 32 0 15 -9 33 -20 41 -14 10 -20 26 -20 52 0 31 4 38 20 38
13 0 20 7 20 20 0 13 -7 20 -20 20 -22 0 -28 35 -7 43 9 4 8 8 -3 16 -13 10
-13 12 0 22 11 8 12 12 3 16 -15 6 -17 43 -3 43 6 0 10 18 10 40 0 33 3 40 20
40 11 0 20 5 20 10 0 6 -13 10 -30 10 -16 0 -30 5 -30 10 0 6 9 10 20 10 13 0
20 7 20 19 0 11 6 22 13 25 10 5 10 7 0 12 -7 3 -13 19 -13 35 0 16 -4 29 -10
29 -5 0 -10 -9 -10 -20 0 -11 -4 -20 -10 -20 -15 0 -12 57 3 64 10 5 10 7 0
12 -21 10 -16 44 7 44 13 0 20 -7 20 -20 0 -16 7 -20 30 -20 23 0 30 4 30 20
0 11 -4 20 -10 20 -5 0 -10 9 -10 20 0 11 -4 20 -10 20 -5 0 -10 -4 -10 -10 0
-6 -27 -10 -60 -10 -33 0 -60 4 -60 10 0 6 -22 10 -50 10 -27 0 -50 5 -50 10
0 15 -58 12 -63 -2 -2 -7 -8 -9 -13 -5 -5 4 -2 12 5 17 12 7 12 11 -2 24 -17
17 -87 22 -87 6z m140 -100 c0 -23 -4 -30 -20 -30 -11 0 -20 5 -20 10 0 6 -13
10 -30 10 -23 0 -30 4 -30 20 0 17 7 20 50 20 49 0 50 -1 50 -30z m120 -9 c0
-11 6 -21 13 -24 7 -2 8 -8 3 -13 -5 -5 -11 -4 -13 4 -3 7 -22 12 -44 12 -21
0 -39 5 -39 10 0 6 9 10 20 10 11 0 20 5 20 10 0 6 9 10 20 10 13 0 20 -7 20
-19z m-34 -55 c19 -20 18 -26 -6 -26 -13 0 -20 7 -20 20 0 24 6 25 26 6z
m-186 -56 c0 -5 -4 -10 -10 -10 -5 0 -10 5 -10 10 0 6 5 10 10 10 6 0 10 -4
10 -10z m100 -50 c0 -13 -7 -20 -20 -20 -23 0 -25 5 -7 25 17 20 27 18 27 -5z
m40 -10 c0 -5 -4 -10 -10 -10 -5 0 -10 5 -10 10 0 6 5 10 10 10 6 0 10 -4 10
-10z m120 -20 c0 -5 -13 -10 -30 -10 -16 0 -30 5 -30 10 0 6 14 10 30 10 17 0
30 -4 30 -10z m-260 -170 c0 -24 -6 -25 -26 -6 -19 20 -18 26 6 26 13 0 20 -7
20 -20z m-40 -130 c0 -5 -4 -10 -10 -10 -5 0 -10 5 -10 10 0 6 5 10 10 10 6 0
10 -4 10 -10z m-20 -440 c0 -5 -9 -10 -20 -10 -11 0 -20 5 -20 10 0 6 9 10 20
10 11 0 20 -4 20 -10z m60 -20 c0 -5 -4 -10 -10 -10 -5 0 -10 5 -10 10 0 6 5
10 10 10 6 0 10 -4 10 -10z m60 0 c0 -5 -4 -10 -10 -10 -5 0 -10 5 -10 10 0 6
5 10 10 10 6 0 10 -4 10 -10z"/>
<path d="M6560 1180 c0 -5 5 -10 10 -10 6 0 10 5 10 10 0 6 -4 10 -10 10 -5 0
-10 -4 -10 -10z"/>
<path d="M5920 1150 c0 -11 -4 -20 -10 -20 -5 0 -10 5 -10 10 0 6 -18 10 -40
10 -44 0 -48 -4 -23 -28 12 -12 18 -13 21 -4 4 14 42 16 42 2 0 -5 14 -10 30
-10 17 0 30 5 30 10 0 6 -4 10 -10 10 -5 0 -10 9 -10 20 0 11 -4 20 -10 20 -5
0 -10 -9 -10 -20z"/>
<path d="M6240 1140 c0 -5 -9 -10 -20 -10 -24 0 -25 -6 -6 -26 25 -24 46 -17
46 16 0 17 -4 30 -10 30 -5 0 -10 -4 -10 -10z"/>
<path d="M6100 1120 c0 -5 5 -10 10 -10 6 0 10 5 10 10 0 6 -4 10 -10 10 -5 0
-10 -4 -10 -10z"/>
<path d="M6360 1110 c0 -17 -7 -20 -40 -20 -44 0 -48 -4 -24 -27 13 -14 17
-14 26 -2 7 11 11 11 15 2 8 -20 23 -15 23 7 0 13 7 20 20 20 22 0 27 -16 8
-23 -7 -2 -10 -8 -6 -12 4 -4 14 0 23 9 15 14 14 18 -9 41 -30 30 -36 31 -36
5z"/>
<path d="M5980 1080 c0 -5 9 -10 20 -10 11 0 20 5 20 10 0 6 -9 10 -20 10 -11
0 -20 -4 -20 -10z"/>
<path d="M6420 1040 c0 -5 9 -10 20 -10 11 0 20 5 20 10 0 6 -9 10 -20 10 -11
0 -20 -4 -20 -10z"/>
<path d="M6320 990 c0 -11 5 -20 10 -20 6 0 10 9 10 20 0 11 -4 20 -10 20 -5
0 -10 -9 -10 -20z"/>
<path d="M6400 1000 c0 -5 5 -10 10 -10 6 0 10 5 10 10 0 6 -4 10 -10 10 -5 0
-10 -4 -10 -10z"/>
<path d="M5880 970 c0 -24 6 -25 26 -6 19 20 18 26 -6 26 -13 0 -20 -7 -20
-20z"/>
<path d="M6220 980 c0 -5 9 -10 20 -10 11 0 20 5 20 10 0 6 -9 10 -20 10 -11
0 -20 -4 -20 -10z"/>
<path d="M6280 980 c0 -5 5 -10 10 -10 6 0 10 5 10 10 0 6 -4 10 -10 10 -5 0
-10 -4 -10 -10z"/>
<path d="M6440 970 c0 -16 -7 -20 -30 -20 -16 0 -30 -4 -30 -10 0 -5 9 -10 20
-10 16 0 20 -7 20 -30 0 -23 4 -30 20 -30 13 0 20 7 20 20 0 11 5 20 10 20 15
0 12 49 -4 66 -20 19 -26 18 -26 -6z"/>
<path d="M6500 980 c0 -5 5 -10 10 -10 6 0 10 5 10 10 0 6 -4 10 -10 10 -5 0
-10 -4 -10 -10z"/>
<path d="M7000 960 c0 -5 5 -10 10 -10 6 0 10 5 10 10 0 6 -4 10 -10 10 -5 0
-10 -4 -10 -10z"/>
<path d="M5952 934 c-11 -12 -11 -17 2 -29 19 -20 46 -19 46 1 0 13 -23 45
-32 44 -2 -1 -9 -7 -16 -16z"/>
<path d="M5840 920 c0 -5 14 -10 30 -10 17 0 30 5 30 10 0 6 -13 10 -30 10
-16 0 -30 -4 -30 -10z"/>
<path d="M6320 904 c0 -3 6 -12 14 -20 21 -21 46 -17 46 6 0 16 -7 20 -30 20
-16 0 -30 -3 -30 -6z"/>
<path d="M4240 880 c0 -5 5 -10 10 -10 6 0 10 5 10 10 0 6 -4 10 -10 10 -5 0
-10 -4 -10 -10z"/>
<path d="M5760 860 c0 -5 18 -10 40 -10 22 0 40 5 40 10 0 6 -18 10 -40 10
-22 0 -40 -4 -40 -10z"/>
<path d="M5920 860 c0 -5 5 -10 10 -10 6 0 10 5 10 10 0 6 -4 10 -10 10 -5 0
-10 -4 -10 -10z"/>
<path d="M4260 820 c0 -27 3 -30 30 -30 17 0 30 5 30 10 0 6 -4 10 -10 10 -5
0 -10 9 -10 20 0 13 -7 20 -20 20 -16 0 -20 -7 -20 -30z"/>
<path d="M6560 830 c0 -11 5 -20 10 -20 6 0 10 9 10 20 0 11 -4 20 -10 20 -5
0 -10 -9 -10 -20z"/>
<path d="M5820 820 c0 -5 9 -10 20 -10 11 0 20 -4 20 -10 0 -5 9 -10 20 -10
13 0 20 7 20 20 0 17 -7 20 -40 20 -22 0 -40 -4 -40 -10z"/>
<path d="M6460 820 c0 -5 5 -10 10 -10 6 0 10 5 10 10 0 6 -4 10 -10 10 -5 0
-10 -4 -10 -10z"/>
<path d="M4140 780 c0 -5 5 -10 10 -10 6 0 10 5 10 10 0 6 -4 10 -10 10 -5 0
-10 -4 -10 -10z"/>
<path d="M6500 760 c0 -5 5 -10 10 -10 6 0 10 5 10 10 0 6 -4 10 -10 10 -5 0
-10 -4 -10 -10z"/>
<path d="M5720 680 c0 -5 5 -10 10 -10 6 0 10 5 10 10 0 6 -4 10 -10 10 -5 0
-10 -4 -10 -10z"/>
<path d="M5780 680 c0 -5 9 -10 20 -10 11 0 20 5 20 10 0 6 -9 10 -20 10 -11
0 -20 -4 -20 -10z"/>
<path d="M5620 660 c0 -5 5 -10 10 -10 6 0 10 5 10 10 0 6 -4 10 -10 10 -5 0
-10 -4 -10 -10z"/>
<path d="M5900 660 c0 -5 5 -10 10 -10 6 0 10 5 10 10 0 6 -4 10 -10 10 -5 0
-10 -4 -10 -10z"/>
<path d="M6920 660 c0 -5 9 -10 20 -10 11 0 20 5 20 10 0 6 -9 10 -20 10 -11
0 -20 -4 -20 -10z"/>
<path d="M5860 630 c0 -11 5 -20 10 -20 6 0 10 9 10 20 0 11 -4 20 -10 20 -5
0 -10 -9 -10 -20z"/>
<path d="M4100 580 c0 -5 9 -10 20 -10 11 0 20 5 20 10 0 6 -9 10 -20 10 -11
0 -20 -4 -20 -10z"/>
<path d="M5700 560 c0 -5 9 -10 20 -10 11 0 20 5 20 10 0 6 -9 10 -20 10 -11
0 -20 -4 -20 -10z"/>
<path d="M5780 560 c0 -5 5 -10 10 -10 6 0 10 5 10 10 0 6 -4 10 -10 10 -5 0
-10 -4 -10 -10z"/>
<path d="M4120 510 c0 -13 7 -20 20 -20 13 0 20 7 20 20 0 13 -7 20 -20 20
-13 0 -20 -7 -20 -20z"/>
<path d="M4200 500 c0 -5 5 -10 10 -10 6 0 10 5 10 10 0 6 -4 10 -10 10 -5 0
-10 -4 -10 -10z"/>
<path d="M6040 470 c0 -11 5 -20 10 -20 6 0 10 9 10 20 0 11 -4 20 -10 20 -5
0 -10 -9 -10 -20z"/>
<path d="M6080 470 c0 -16 7 -20 30 -20 17 0 30 5 30 10 0 6 -9 10 -20 10 -11
0 -20 5 -20 10 0 6 -4 10 -10 10 -5 0 -10 -9 -10 -20z"/>
<path d="M5720 460 c0 -5 5 -10 10 -10 6 0 10 5 10 10 0 6 -4 10 -10 10 -5 0
-10 -4 -10 -10z"/>
<path d="M5760 460 c0 -5 9 -10 20 -10 11 0 20 5 20 10 0 6 -9 10 -20 10 -11
0 -20 -4 -20 -10z"/>
<path d="M4220 440 c0 -5 5 -10 10 -10 6 0 10 5 10 10 0 6 -4 10 -10 10 -5 0
-10 -4 -10 -10z"/>
<path d="M6080 400 c0 -6 27 -10 60 -10 33 0 60 4 60 10 0 6 -27 10 -60 10
-33 0 -60 -4 -60 -10z"/>
<path d="M6200 360 c0 -5 -9 -10 -20 -10 -11 0 -20 -4 -20 -10 0 -5 9 -10 20
-10 11 0 20 -4 20 -10 0 -5 14 -10 30 -10 23 0 30 4 30 20 0 13 -7 20 -20 20
-11 0 -20 5 -20 10 0 6 -4 10 -10 10 -5 0 -10 -4 -10 -10z"/>
<path d="M4000 320 c0 -5 9 -10 20 -10 11 0 20 5 20 10 0 6 -9 10 -20 10 -11
0 -20 -4 -20 -10z"/>
<path d="M5820 300 c0 -5 5 -10 10 -10 6 0 10 5 10 10 0 6 -4 10 -10 10 -5 0
-10 -4 -10 -10z"/>
<path d="M5780 260 c0 -5 9 -10 20 -10 11 0 20 5 20 10 0 6 -9 10 -20 10 -11
0 -20 -4 -20 -10z"/>
<path d="M6260 261 c0 -15 68 -18 98 -5 25 11 22 12 -35 13 -35 1 -63 -3 -63
-8z"/>
<path d="M6100 244 c0 -7 27 -34 34 -34 3 0 6 9 6 20 0 13 -7 20 -20 20 -11 0
-20 -3 -20 -6z"/>
<path d="M4020 170 c0 -23 25 -27 46 -6 21 21 18 26 -16 26 -23 0 -30 -4 -30
-20z"/>
<path d="M5691 174 c-7 -8 -10 -18 -6 -22 3 -3 10 0 16 8 8 13 10 13 20 0 8
-11 12 -12 16 -2 2 7 22 12 44 12 21 0 39 5 39 10 0 17 -113 11 -129 -6z"/>
<path d="M5620 160 c0 -5 5 -10 10 -10 6 0 10 5 10 10 0 6 -4 10 -10 10 -5 0
-10 -4 -10 -10z"/>
<path d="M5700 110 c0 -11 -5 -20 -12 -20 -6 0 -9 -2 -6 -5 3 -3 13 -3 22 1
17 7 23 44 6 44 -5 0 -10 -9 -10 -20z"/>
<path d="M5640 79 c0 -5 5 -7 10 -4 6 3 10 8 10 11 0 2 -4 4 -10 4 -5 0 -10
-5 -10 -11z"/>
</g>
</svg>
