<?xml version="1.0" standalone="no"?>
<!DOCTYPE svg PUBLIC "-//W3C//DTD SVG 20010904//EN"
 "http://www.w3.org/TR/2001/REC-SVG-20010904/DTD/svg10.dtd">
<svg version="1.0" xmlns="http://www.w3.org/2000/svg"
 width="1468.000000pt" height="960.000000pt" viewBox="0 0 1468.000000 960.000000"
 preserveAspectRatio="xMidYMid meet">

<g transform="translate(0.000000,960.000000) scale(0.100000,-0.100000)"
fill="#000000" stroke="none">
<path d="M8630 8785 c0 -12 -13 -15 -55 -15 -48 0 -55 -2 -55 -20 0 -11 7 -20
15 -20 8 0 15 -7 15 -15 0 -8 9 -15 19 -15 30 0 51 -11 51 -26 0 -11 -32 -14
-175 -14 -141 0 -175 -3 -175 -14 0 -13 -77 -26 -156 -26 -36 0 -45 -19 -24
-50 9 -13 12 -13 21 3 13 23 75 23 87 0 7 -12 27 -18 76 -21 48 -3 66 -8 66
-18 0 -8 10 -14 24 -14 44 0 86 -12 86 -25 0 -9 24 -14 81 -17 64 -2 83 -7 90
-21 6 -9 17 -17 24 -17 8 0 15 -7 15 -15 0 -8 9 -15 20 -15 11 0 20 7 20 15 0
8 9 15 20 15 16 0 20 -7 20 -35 0 -28 4 -35 20 -35 11 0 20 -7 20 -15 0 -10
10 -15 28 -15 41 0 72 -11 72 -25 0 -7 15 -16 34 -19 19 -4 37 -13 40 -21 3
-9 19 -15 41 -15 23 0 35 -5 35 -14 0 -8 15 -17 35 -20 21 -4 35 -13 35 -21 0
-8 9 -15 20 -15 13 0 20 -7 20 -20 0 -16 7 -20 35 -20 24 0 35 -5 35 -15 0 -8
14 -17 35 -21 20 -3 35 -12 35 -20 0 -8 9 -14 20 -14 13 0 20 -7 20 -20 0 -11
6 -20 14 -20 13 0 26 -28 26 -57 0 -7 -9 -13 -20 -13 -16 0 -20 -7 -20 -35 0
-28 4 -35 20 -35 11 0 20 -6 20 -14 0 -7 9 -16 20 -19 11 -3 20 -12 20 -21 0
-9 7 -16 15 -16 8 0 15 -9 15 -20 0 -13 7 -20 20 -20 11 0 20 -7 20 -15 0 -8
14 -17 35 -21 20 -3 35 -12 35 -20 0 -8 7 -14 15 -14 8 0 15 7 15 15 0 8 -7
15 -15 15 -8 0 -15 9 -15 20 0 13 7 20 20 20 13 0 20 -7 20 -20 0 -11 7 -20
15 -20 10 0 15 -11 15 -35 0 -28 4 -35 20 -35 11 0 20 -7 20 -15 0 -8 14 -17
35 -21 25 -4 35 -11 35 -25 0 -11 6 -19 14 -19 8 0 16 -7 20 -15 3 -8 12 -15
20 -15 8 0 16 -15 20 -35 4 -21 13 -35 21 -35 8 0 15 -7 15 -15 0 -8 7 -15 16
-15 9 0 18 -9 21 -20 3 -11 12 -20 20 -20 8 0 17 -9 20 -20 3 -11 12 -20 19
-20 8 0 14 -6 14 -14 0 -7 9 -16 20 -19 11 -3 20 -12 20 -21 0 -9 7 -16 15
-16 8 0 15 -9 15 -20 0 -11 7 -20 15 -20 10 0 17 -14 21 -40 4 -24 12 -40 20
-40 8 0 14 -7 14 -15 0 -8 9 -15 20 -15 16 0 20 -7 20 -35 0 -24 5 -35 15 -35
10 0 17 -14 21 -40 4 -23 12 -40 20 -40 7 0 16 -16 20 -35 3 -20 12 -35 20
-35 9 0 14 -12 14 -35 0 -28 4 -35 20 -35 16 0 20 -7 20 -35 0 -28 4 -35 20
-35 16 0 20 -7 20 -35 0 -24 5 -35 15 -35 10 0 15 -10 15 -34 0 -25 5 -35 20
-39 17 -4 20 -14 20 -56 0 -39 4 -51 15 -51 11 0 15 -11 15 -36 0 -27 5 -37
20 -41 17 -5 20 -14 20 -59 0 -39 4 -54 14 -54 15 0 26 -30 26 -72 0 -18 5
-28 14 -28 11 0 16 -22 22 -90 5 -66 10 -90 20 -90 11 0 14 -18 14 -75 0 -60
3 -75 15 -75 11 0 15 -12 15 -44 0 -63 11 -106 26 -106 9 0 14 -12 14 -37 0
-79 12 -143 27 -143 21 0 15 536 -7 550 -10 6 -15 35 -18 109 -3 74 -8 101
-17 101 -9 0 -16 24 -20 75 -5 51 -12 75 -20 75 -9 0 -14 25 -16 86 -3 69 -7
87 -21 95 -13 7 -18 23 -18 59 0 38 -4 50 -15 50 -9 0 -15 9 -15 24 0 45 -13
86 -26 86 -10 0 -14 14 -14 50 0 36 -4 50 -14 50 -9 0 -17 15 -21 40 -4 25
-12 40 -21 40 -9 0 -14 12 -14 35 0 28 -4 35 -20 35 -17 0 -20 7 -20 40 0 28
-4 40 -15 40 -8 0 -17 14 -21 35 -3 20 -12 35 -20 35 -9 0 -14 12 -14 34 0 25
-5 35 -20 39 -15 4 -20 14 -20 41 0 25 -4 36 -15 36 -8 0 -15 7 -15 15 0 8 -9
15 -20 15 -16 0 -20 7 -20 34 0 25 -5 35 -20 39 -11 3 -20 12 -20 21 0 9 -6
16 -14 16 -8 0 -17 15 -20 35 -4 21 -13 35 -21 35 -8 0 -15 9 -15 20 0 11 -7
20 -15 20 -8 0 -17 14 -21 35 -3 20 -12 35 -20 35 -8 0 -14 9 -14 20 0 13 -7
20 -20 20 -16 0 -20 7 -20 35 0 28 -4 35 -20 35 -16 0 -20 7 -20 35 0 23 -5
35 -14 35 -8 0 -17 15 -20 35 -4 21 -13 35 -21 35 -8 0 -15 9 -15 20 0 11 -7
20 -15 20 -8 0 -17 14 -21 35 -3 19 -12 35 -19 35 -7 0 -15 9 -18 20 -3 11
-12 20 -21 20 -9 0 -16 7 -16 15 0 8 -7 15 -15 15 -9 0 -15 9 -15 21 0 12 -8
23 -19 26 -12 3 -23 17 -26 34 -4 16 -13 29 -21 29 -8 0 -14 9 -14 20 0 13 -7
20 -20 20 -13 0 -20 7 -20 20 0 11 -7 20 -15 20 -8 0 -15 7 -15 15 0 8 -9 15
-20 15 -13 0 -20 7 -20 20 0 13 -7 20 -20 20 -11 0 -20 7 -20 15 0 8 -7 15
-15 15 -8 0 -15 9 -15 20 0 16 -7 20 -35 20 -28 0 -35 4 -35 20 0 13 -7 20
-20 20 -11 0 -20 7 -20 15 0 8 -9 15 -20 15 -13 0 -20 7 -20 20 0 16 -7 20
-35 20 -24 0 -35 5 -35 15 0 8 -14 17 -35 21 -20 3 -35 12 -35 20 0 9 -12 14
-34 14 -25 0 -35 5 -39 20 -4 17 -14 20 -56 20 -39 0 -51 4 -51 15 0 11 -11
15 -40 15 -29 0 -40 -4 -40 -15 0 -8 -9 -15 -20 -15 -11 0 -20 7 -20 15 0 8
-7 15 -15 15 -8 0 -15 -7 -15 -15 0 -8 -7 -15 -15 -15 -8 0 -15 7 -15 15 0 12
-15 15 -75 15 -60 0 -75 -3 -75 -15z m70 -140 c0 -8 -9 -15 -20 -15 -11 0 -20
7 -20 15 0 8 9 15 20 15 11 0 20 -7 20 -15z m730 -690 c0 -8 -9 -15 -20 -15
-11 0 -20 7 -20 15 0 8 9 15 20 15 11 0 20 -7 20 -15z m40 -40 c0 -8 7 -15 15
-15 8 0 15 -9 15 -20 0 -13 7 -20 20 -20 16 0 20 -7 20 -35 0 -28 -4 -35 -20
-35 -11 0 -20 7 -20 15 0 8 -6 15 -14 15 -8 0 -17 15 -20 35 -4 21 -13 35 -21
35 -8 0 -15 9 -15 20 0 13 7 20 20 20 11 0 20 -7 20 -15z"/>
<path d="M6880 8750 c0 -13 -7 -20 -20 -20 -11 0 -20 -6 -20 -14 0 -8 -13 -17
-30 -21 -16 -4 -30 -13 -30 -21 0 -8 -8 -14 -19 -14 -10 0 -21 -9 -24 -20 -3
-11 -12 -20 -21 -20 -9 0 -16 -7 -16 -15 0 -8 -9 -15 -20 -15 -13 0 -20 -7
-20 -20 0 -16 -7 -20 -35 -20 -23 0 -35 -5 -35 -14 0 -8 -15 -17 -35 -20 -21
-4 -35 -13 -35 -21 0 -8 -9 -15 -20 -15 -13 0 -20 -7 -20 -20 0 -13 -7 -20
-20 -20 -11 0 -20 -7 -20 -15 0 -8 -14 -17 -36 -21 -33 -6 -35 -8 -29 -36 6
-24 3 -30 -14 -35 -15 -4 -21 -13 -21 -34 0 -28 24 -42 32 -18 2 6 34 13 71
16 47 4 67 10 67 19 0 9 11 14 29 14 49 0 91 12 91 26 0 8 9 14 20 14 11 0 20
6 20 14 0 11 31 15 140 21 109 6 140 10 140 21 0 8 -7 14 -15 14 -31 0 -14 29
20 36 20 3 35 12 35 20 0 9 12 14 35 14 24 0 35 -5 35 -15 0 -11 11 -15 40
-15 30 0 40 4 40 16 0 9 -9 18 -20 21 -15 4 -20 14 -20 39 0 24 -5 34 -15 34
-8 0 -15 6 -15 14 0 9 -15 17 -40 21 -25 4 -40 12 -40 21 0 10 -14 14 -55 14
-48 0 -55 2 -55 20 0 13 7 20 20 20 11 0 20 7 20 15 0 12 13 15 55 15 42 0 55
-3 55 -15 0 -10 11 -15 35 -15 28 0 35 -4 35 -20 0 -11 7 -20 15 -20 8 0 15
-9 15 -20 0 -11 -7 -20 -15 -20 -8 0 -15 -7 -15 -15 0 -8 7 -15 15 -15 9 0 18
-6 21 -14 3 -8 19 -18 35 -21 25 -6 29 -11 29 -42 0 -26 5 -36 20 -40 31 -8
24 -21 -15 -29 -20 -3 -35 -12 -35 -20 0 -10 -15 -14 -55 -14 -48 0 -55 -2
-55 -20 0 -11 -6 -20 -14 -20 -7 0 -16 -9 -19 -20 -5 -18 -14 -20 -111 -20
-88 0 -106 -3 -106 -15 0 -12 15 -15 75 -15 68 0 75 -2 75 -20 0 -18 -7 -20
-55 -20 -42 0 -55 -3 -55 -15 0 -11 -11 -15 -40 -15 -29 0 -40 4 -40 15 0 13
-21 15 -130 15 -109 0 -130 -2 -130 -15 0 -11 -11 -15 -39 -15 -57 0 -101 -11
-101 -25 0 -7 -16 -16 -35 -19 -21 -4 -35 -13 -35 -21 0 -11 -14 -15 -55 -15
-42 0 -55 -4 -55 -15 0 -13 46 -15 328 -17 l327 -3 3 -37 c2 -25 8 -38 18 -38
8 0 14 -7 14 -15 0 -8 -6 -15 -14 -15 -7 0 -16 -9 -19 -20 -5 -19 -14 -20
-146 -20 -115 0 -141 -3 -141 -14 0 -11 -22 -16 -90 -22 -66 -5 -90 -10 -90
-20 0 -10 -13 -14 -40 -14 -26 0 -43 -5 -46 -14 -3 -8 -19 -18 -35 -21 -16 -4
-29 -13 -29 -21 0 -9 -12 -14 -36 -14 -27 0 -37 -5 -41 -20 -4 -15 -14 -20
-39 -20 -27 0 -34 -4 -34 -20 0 -11 -7 -20 -15 -20 -8 0 -15 -7 -15 -15 0 -8
-9 -15 -20 -15 -13 0 -20 -7 -20 -20 0 -13 -7 -20 -20 -20 -13 0 -20 -7 -20
-20 0 -11 -6 -20 -14 -20 -8 0 -17 -13 -21 -30 -4 -16 -13 -30 -21 -30 -8 0
-14 -8 -14 -19 0 -10 -9 -21 -20 -24 -15 -4 -20 -14 -20 -36 0 -21 -5 -31 -15
-31 -9 0 -15 -9 -15 -21 0 -12 -8 -23 -20 -26 -14 -4 -20 -14 -20 -34 0 -15
-7 -32 -16 -37 -10 -5 -18 -28 -21 -55 -4 -31 -10 -47 -19 -47 -8 0 -14 -10
-14 -24 0 -45 -13 -86 -26 -86 -10 0 -14 -15 -14 -55 0 -39 -4 -56 -16 -63
-10 -5 -18 -28 -21 -55 -4 -31 -10 -47 -19 -47 -8 0 -14 -10 -14 -24 0 -45
-13 -86 -26 -86 -10 0 -14 -15 -14 -55 0 -40 -4 -55 -14 -55 -17 0 -26 -43
-26 -121 0 -46 -3 -59 -15 -59 -12 0 -15 -14 -15 -67 0 -81 -8 -113 -26 -113
-11 0 -14 -26 -14 -130 0 -105 -3 -130 -14 -130 -11 0 -16 -26 -21 -112 -9
-140 -5 -172 18 -176 14 -3 17 4 17 32 0 37 22 51 34 21 8 -22 33 -18 39 5 3
11 12 20 21 20 9 0 16 8 16 20 0 11 7 20 15 20 8 0 15 7 15 15 0 13 21 15 130
15 108 0 130 -2 130 -15 0 -10 14 -17 40 -21 24 -4 40 -12 40 -20 0 -9 11 -14
31 -14 22 0 32 -5 36 -20 4 -15 14 -20 39 -20 23 0 34 -5 34 -15 0 -8 14 -17
35 -21 20 -3 35 -12 35 -20 0 -8 9 -14 20 -14 13 0 20 -7 20 -20 0 -16 7 -20
34 -20 31 0 34 -3 40 -35 6 -32 10 -35 41 -35 l35 0 0 -50 c0 -38 4 -50 15
-50 8 0 15 7 15 16 0 21 34 14 38 -9 2 -12 -3 -17 -17 -17 -12 0 -21 -6 -21
-15 0 -10 -11 -15 -35 -15 -24 0 -35 5 -35 15 0 10 -11 15 -35 15 -23 0 -35 5
-35 14 0 14 -42 26 -91 26 -18 0 -29 5 -29 14 0 11 -25 16 -104 21 -129 9
-246 -1 -246 -21 0 -8 -9 -14 -20 -14 -11 0 -23 -7 -26 -15 -4 -8 -12 -15 -20
-15 -8 0 -14 -9 -14 -19 0 -15 -10 -21 -40 -26 -25 -4 -40 -12 -40 -21 0 -8
-7 -14 -15 -14 -11 0 -15 -11 -15 -40 0 -28 4 -40 14 -40 8 0 17 -13 21 -30 5
-24 13 -31 41 -36 19 -3 34 -12 34 -19 0 -13 42 -25 86 -25 15 0 24 -6 24 -15
0 -12 13 -15 55 -15 41 0 55 -4 55 -15 0 -8 14 -17 35 -21 19 -3 35 -12 35
-20 0 -8 14 -14 37 -16 41 -3 57 -26 24 -35 -24 -6 -29 -43 -6 -43 8 0 15 -7
15 -15 0 -8 9 -15 20 -15 11 0 20 -6 20 -14 0 -16 -30 -26 -77 -26 -21 0 -33
-5 -33 -14 0 -10 30 -14 127 -19 79 -3 129 -9 131 -16 2 -6 19 -11 38 -11 31
0 34 3 34 29 0 20 6 30 20 34 11 3 20 12 20 21 0 13 13 16 70 16 56 0 70 -3
70 -15 0 -8 9 -15 20 -15 11 0 20 7 20 15 0 8 7 15 15 15 12 0 15 13 15 56 l0
57 31 -7 c18 -3 37 -14 44 -23 7 -10 19 -14 29 -10 15 6 16 17 10 92 -7 82 -6
85 15 85 14 0 21 6 21 20 0 11 7 20 15 20 10 0 15 11 15 35 0 24 -5 35 -15 35
-8 0 -15 9 -15 20 0 11 -7 20 -15 20 -8 0 -15 9 -15 20 0 11 5 20 10 20 13 0
13 97 0 102 -6 2 -14 29 -17 61 -4 38 -10 57 -19 57 -9 0 -14 11 -14 30 0 23
-4 30 -20 30 -13 0 -20 7 -20 20 0 13 -7 20 -20 20 -11 0 -20 6 -20 14 0 15
-30 26 -72 26 -17 0 -28 5 -28 14 0 9 -15 17 -40 21 -25 4 -40 12 -40 21 0 9
-12 14 -35 14 -23 0 -35 5 -35 14 0 13 -41 26 -86 26 -15 0 -24 6 -24 15 0 10
-10 15 -32 15 -48 0 -78 10 -78 26 0 10 -15 14 -55 14 -42 0 -55 3 -55 15 0 9
-9 15 -24 15 -45 0 -86 13 -86 26 0 10 -13 14 -40 14 -29 0 -40 -4 -40 -15 0
-8 -4 -15 -10 -15 -5 0 -10 7 -10 15 0 9 -9 15 -25 15 -15 0 -25 -6 -25 -14 0
-15 -30 -26 -72 -26 -18 0 -28 -5 -28 -15 0 -10 -11 -15 -35 -15 -24 0 -35 5
-35 15 0 8 7 15 15 15 11 0 15 13 15 54 0 45 3 54 20 59 15 4 20 14 20 41 0
24 5 36 14 36 9 0 15 16 19 47 3 27 11 50 21 55 10 6 16 22 16 43 0 23 5 35
14 35 8 0 17 15 20 35 4 21 13 35 21 35 11 0 15 13 15 50 0 36 4 52 15 56 8 4
18 24 21 45 4 23 12 39 20 39 7 0 16 16 20 35 3 20 12 35 20 35 9 0 14 12 14
35 0 28 4 35 20 35 16 0 20 7 20 30 0 20 5 30 15 30 9 0 15 9 15 21 0 12 8 23
20 26 11 3 20 14 20 24 0 11 6 19 14 19 8 0 17 14 21 30 4 17 13 30 21 30 8 0
14 9 14 20 0 13 7 20 20 20 13 0 20 7 20 20 0 11 6 20 14 20 7 0 16 9 19 20 3
11 12 20 21 20 11 0 16 9 16 30 0 23 4 30 20 30 13 0 20 7 20 20 0 13 7 20 20
20 11 0 20 7 20 15 0 8 7 15 15 15 8 0 15 9 15 20 0 13 7 20 20 20 13 0 20 7
20 20 0 11 6 20 14 20 7 0 16 9 19 20 3 11 12 20 21 20 9 0 16 7 16 15 0 8 7
15 16 15 9 0 18 9 21 20 4 15 14 20 39 20 27 0 34 4 34 20 0 16 7 20 35 20 23
0 35 5 35 14 0 8 15 17 35 20 21 4 35 13 35 21 0 11 12 15 40 15 27 0 40 4 40
14 0 14 66 26 143 26 26 0 37 4 37 15 0 8 6 15 14 15 7 0 16 9 19 20 4 17 14
20 56 20 39 0 51 4 51 15 0 11 11 15 43 15 80 0 147 12 147 26 0 11 24 14 110
14 103 0 110 -1 110 -20 0 -11 7 -20 15 -20 8 0 15 -7 15 -15 0 -8 9 -15 20
-15 11 0 20 -6 20 -14 0 -16 30 -26 78 -26 20 0 32 -5 32 -14 0 -13 41 -26 86
-26 15 0 24 -6 24 -15 0 -11 12 -15 51 -15 42 0 52 -3 56 -20 3 -11 14 -20 24
-20 11 0 19 -7 19 -15 0 -8 14 -17 35 -21 20 -3 35 -12 35 -20 0 -8 9 -14 20
-14 11 0 20 -7 20 -15 0 -8 14 -17 35 -21 19 -3 35 -12 35 -19 0 -7 19 -14 47
-18 27 -3 50 -11 55 -21 6 -10 22 -16 43 -16 24 0 35 -5 35 -15 0 -8 14 -17
35 -21 20 -3 35 -12 35 -20 0 -8 9 -14 20 -14 11 0 20 -7 20 -15 0 -8 14 -17
35 -21 19 -3 35 -12 35 -19 0 -7 9 -15 20 -18 11 -3 20 -12 20 -21 0 -12 10
-16 35 -16 28 0 35 -4 35 -20 0 -11 7 -20 15 -20 8 0 17 -14 21 -35 6 -32 9
-35 40 -35 22 0 34 -5 34 -14 0 -7 9 -16 20 -19 11 -3 20 -12 20 -20 0 -9 13
-18 29 -22 30 -6 41 -26 41 -77 0 -21 5 -28 20 -28 13 0 20 -7 20 -20 0 -11 6
-20 14 -20 8 0 17 -15 20 -35 4 -21 13 -35 21 -35 8 0 15 -9 15 -20 0 -11 6
-20 14 -20 7 0 16 -9 19 -20 3 -11 12 -20 21 -20 11 0 16 -9 16 -30 0 -19 5
-30 14 -30 9 0 17 -15 21 -40 4 -25 12 -40 21 -40 9 0 14 -12 14 -35 0 -28 4
-35 20 -35 18 0 20 -7 20 -55 0 -40 4 -55 14 -55 15 0 26 -30 26 -72 0 -18 5
-28 15 -28 11 0 15 -11 15 -40 0 -29 4 -40 15 -40 10 0 15 -11 15 -35 0 -19
-4 -35 -10 -35 -5 0 -10 -16 -10 -35 0 -24 5 -35 15 -35 8 0 15 7 15 15 0 8 7
15 15 15 8 0 15 -7 15 -15 0 -8 -7 -15 -15 -15 -13 0 -15 -27 -15 -180 0 -153
2 -180 15 -180 12 0 15 -17 15 -95 0 -78 -3 -95 -15 -95 -8 0 -15 -7 -15 -15
0 -8 7 -15 15 -15 8 0 15 -9 15 -20 0 -11 -6 -20 -14 -20 -9 0 -15 -20 -18
-71 -4 -45 -11 -74 -19 -80 -11 -6 -15 -43 -17 -149 -3 -112 -7 -140 -18 -140
-8 0 -14 9 -14 20 0 13 -7 20 -20 20 -13 0 -20 7 -20 20 0 11 -7 20 -15 20 -8
0 -15 7 -15 16 0 9 -9 18 -19 21 -12 3 -23 17 -26 34 -4 16 -13 29 -21 29 -8
0 -14 9 -14 20 0 12 -7 20 -16 20 -9 0 -18 9 -21 20 -3 11 -14 20 -24 20 -11
0 -19 6 -19 14 0 8 -13 17 -30 21 -16 4 -30 13 -30 21 0 8 -9 14 -20 14 -11 0
-20 6 -20 14 0 13 -41 26 -86 26 -14 0 -24 6 -24 14 0 12 -52 15 -321 18 -293
3 -321 5 -330 21 -14 23 -146 25 -155 2 -4 -9 -19 -15 -38 -15 -70 0 -136 -13
-136 -26 0 -8 -9 -14 -20 -14 -13 0 -20 -7 -20 -20 0 -11 -6 -20 -14 -20 -7 0
-16 -9 -19 -20 -3 -11 -12 -20 -21 -20 -9 0 -16 -7 -16 -15 0 -8 -9 -15 -20
-15 -16 0 -20 -7 -20 -35 0 -28 -4 -35 -20 -35 -13 0 -20 -7 -20 -20 0 -11 -7
-20 -15 -20 -8 0 -15 -9 -15 -20 0 -13 -7 -20 -20 -20 -13 0 -20 -7 -20 -20 0
-11 -7 -20 -15 -20 -11 0 -15 -12 -15 -50 l0 -50 35 0 35 0 0 -110 c0 -103 1
-110 20 -110 13 0 20 7 20 20 0 11 7 20 15 20 8 0 15 7 15 15 0 8 9 15 20 15
13 0 20 7 20 20 0 13 7 20 20 20 11 0 20 7 20 15 0 8 7 15 15 15 10 0 15 -11
15 -35 0 -28 -4 -35 -20 -35 -11 0 -20 -7 -20 -15 0 -8 9 -15 20 -15 11 0 20
7 20 15 0 8 9 15 20 15 12 0 20 -7 20 -16 0 -9 -9 -18 -20 -21 -11 -3 -20 -12
-20 -19 0 -8 9 -14 20 -14 12 0 20 -7 20 -16 0 -9 -9 -18 -20 -21 -15 -4 -20
-14 -20 -39 l0 -34 55 0 c41 0 55 -4 55 -15 0 -8 14 -17 35 -21 19 -3 35 -12
35 -19 0 -7 -16 -16 -35 -19 -34 -7 -51 -36 -20 -36 8 0 15 -7 15 -16 0 -9 9
-18 20 -21 11 -3 20 -12 20 -19 0 -8 9 -14 20 -14 13 0 20 -7 20 -20 0 -16 7
-20 35 -20 23 0 35 -5 35 -14 0 -8 15 -17 35 -20 21 -4 35 -13 35 -21 0 -11
14 -15 55 -15 40 0 55 -4 55 -14 0 -15 43 -26 106 -26 32 0 44 -4 44 -15 0
-13 21 -15 130 -15 103 0 130 3 130 14 0 9 18 16 50 20 34 5 50 11 50 21 0 13
24 15 145 15 126 0 145 2 145 16 0 9 9 18 20 21 15 4 20 14 20 39 0 32 2 34
35 34 22 0 38 -6 41 -15 4 -8 12 -15 20 -15 8 0 14 -8 14 -19 0 -10 9 -21 20
-24 15 -4 20 -14 20 -36 0 -19 5 -31 14 -31 9 0 15 -19 19 -57 3 -32 11 -59
17 -61 13 -5 13 -62 0 -62 -5 0 -10 -9 -10 -21 0 -12 -8 -23 -20 -26 -14 -4
-20 -14 -20 -32 0 -41 -11 -71 -26 -71 -10 0 -14 -13 -14 -40 0 -28 -4 -40
-15 -40 -8 0 -17 -14 -21 -35 -3 -20 -12 -35 -20 -35 -8 0 -14 -7 -14 -15 0
-8 -9 -15 -20 -15 -13 0 -20 -7 -20 -20 0 -11 -7 -20 -15 -20 -9 0 -15 -9 -15
-24 0 -13 -3 -38 -6 -55 -6 -27 -10 -31 -40 -31 -27 0 -34 -4 -34 -20 0 -11
-7 -20 -15 -20 -8 0 -17 -14 -21 -35 -3 -20 -12 -35 -20 -35 -8 0 -14 -9 -14
-20 0 -13 -7 -20 -20 -20 -11 0 -20 -7 -20 -15 0 -8 -9 -15 -20 -15 -11 0 -20
-6 -20 -14 0 -13 -41 -26 -86 -26 -15 0 -24 -6 -24 -15 0 -8 -7 -15 -15 -15
-8 0 -15 -6 -15 -14 0 -17 -31 -26 -97 -26 -40 0 -53 -4 -53 -15 0 -10 -10
-15 -27 -15 -43 0 -73 -11 -73 -26 0 -10 -13 -14 -40 -14 -27 0 -40 -4 -40
-14 0 -8 -15 -17 -34 -20 -40 -8 -116 3 -116 15 0 5 -7 9 -15 9 -8 0 -15 -4
-15 -10 0 -5 -16 -10 -35 -10 -24 0 -35 5 -35 15 0 8 -9 15 -20 15 -11 0 -20
7 -20 15 0 8 -7 15 -16 15 -9 0 -18 9 -21 20 -3 11 -12 20 -19 20 -8 0 -14 9
-14 20 0 13 -7 20 -20 20 -13 0 -20 7 -20 20 0 11 -7 20 -15 20 -10 0 -15 10
-15 31 0 22 -5 32 -20 36 -11 3 -20 14 -20 24 0 11 -6 19 -14 19 -8 0 -17 13
-21 30 -4 16 -13 30 -21 30 -8 0 -14 9 -14 20 0 13 -7 20 -20 20 -13 0 -20 7
-20 20 0 11 -7 20 -15 20 -8 0 -15 7 -15 15 0 8 -8 15 -19 15 -14 0 -19 -9
-23 -44 -7 -56 1 -96 17 -96 7 0 16 -16 19 -35 4 -21 13 -35 21 -35 12 0 15
-15 15 -70 0 -53 3 -70 14 -70 9 0 15 -17 18 -50 6 -63 0 -100 -18 -100 -8 0
-14 -15 -16 -37 l-3 -38 -87 -3 c-69 -2 -88 -6 -88 -17 0 -10 11 -15 35 -15
29 0 35 -4 35 -21 0 -20 -4 -21 -47 -16 -27 3 -50 11 -55 21 -6 10 -22 16 -43
16 -23 0 -35 5 -35 14 0 10 -20 16 -70 21 -50 5 -70 11 -70 21 0 10 -15 14
-55 14 -40 0 -55 4 -55 14 0 13 -102 26 -212 26 -36 0 -48 4 -48 15 0 13 -23
15 -144 15 -135 0 -144 1 -149 20 -4 15 -14 20 -41 20 -25 0 -36 4 -36 15 0
10 -10 15 -27 15 -43 0 -73 11 -73 26 0 8 -9 14 -20 14 -11 0 -20 6 -20 14 0
15 -42 26 -101 26 -28 0 -39 4 -39 15 0 10 -10 15 -29 15 -49 0 -91 12 -91 26
0 10 -15 14 -55 14 -40 0 -55 4 -55 14 0 14 -66 26 -142 26 -27 0 -38 4 -38
15 0 8 -9 15 -20 15 -11 0 -20 6 -20 14 0 16 -30 26 -77 26 -31 0 -33 2 -33
35 0 24 -5 35 -15 35 -8 0 -15 7 -15 15 0 9 -9 15 -24 15 -13 0 -38 3 -55 6
-30 6 -31 8 -31 60 0 39 4 54 14 54 7 0 16 9 19 20 4 15 14 20 40 20 20 0 37
5 39 11 2 6 27 14 56 17 33 3 52 9 52 17 0 7 16 16 35 19 21 4 35 13 35 21 0
8 9 15 20 15 11 0 20 7 20 15 0 8 14 17 35 21 20 3 35 12 35 20 0 8 9 14 20
14 13 0 20 7 20 20 0 13 7 20 20 20 13 0 20 7 20 20 0 11 7 20 15 20 26 0 16
27 -12 33 -39 8 -83 -3 -83 -19 0 -9 -11 -14 -27 -14 -43 0 -73 -11 -73 -26 0
-8 -10 -14 -25 -14 -15 0 -25 -6 -25 -14 0 -15 -30 -26 -72 -26 -18 0 -28 -5
-28 -15 0 -10 -10 -15 -32 -15 -48 0 -78 -10 -78 -26 0 -10 -16 -14 -60 -14
-47 0 -60 -3 -60 -15 0 -8 -7 -15 -15 -15 -8 0 -15 -9 -15 -20 0 -11 -7 -20
-15 -20 -8 0 -15 7 -15 15 0 8 -9 15 -20 15 -11 0 -20 -7 -20 -15 0 -9 -7 -18
-15 -21 -11 -4 -15 -21 -15 -55 0 -37 4 -49 15 -49 9 0 15 -9 15 -21 0 -19 4
-20 36 -15 31 6 36 4 41 -13 3 -12 12 -21 19 -21 9 0 14 -12 14 -35 0 -25 4
-35 16 -35 9 0 18 -9 21 -20 6 -23 33 -27 33 -5 0 8 9 15 20 15 11 0 20 -7 20
-15 0 -8 9 -15 20 -15 11 0 20 -7 20 -15 0 -8 7 -15 15 -15 12 0 15 -15 15
-75 0 -57 3 -75 14 -75 7 0 16 -9 19 -20 3 -11 12 -20 21 -20 9 0 16 -6 16
-14 0 -7 9 -16 20 -19 15 -4 20 -14 20 -36 0 -21 5 -31 15 -31 9 0 15 -9 15
-21 0 -12 8 -23 20 -26 15 -4 20 -14 20 -39 0 -27 4 -34 20 -34 17 0 20 -7 20
-50 0 -38 4 -50 15 -50 8 0 15 6 15 14 0 10 13 16 38 18 33 3 37 6 40 34 2 25
-1 33 -17 37 -18 4 -21 13 -21 69 0 34 3 73 6 86 7 25 34 31 34 7 0 -8 9 -15
20 -15 11 0 20 6 20 14 0 15 45 30 60 21 6 -4 10 -12 10 -19 0 -8 17 -15 46
-19 26 -2 49 -9 53 -15 3 -6 23 -13 44 -17 20 -4 37 -13 37 -20 0 -15 44 -25
106 -25 32 0 44 -4 44 -15 0 -11 12 -15 49 -15 40 0 50 -3 54 -20 3 -11 12
-20 21 -20 9 0 16 -8 16 -20 0 -11 7 -20 15 -20 8 0 15 -7 15 -15 0 -8 9 -15
20 -15 11 0 20 6 20 14 0 18 65 30 114 21 21 -4 36 -13 36 -21 0 -10 14 -14
49 -14 40 0 50 -3 54 -20 4 -17 14 -20 61 -20 56 0 56 0 56 -30 0 -28 3 -30
35 -30 31 0 35 -3 35 -25 0 -16 6 -25 15 -25 8 0 15 -7 15 -15 0 -8 -7 -15
-15 -15 -12 0 -15 -13 -15 -55 0 -40 4 -55 14 -55 7 0 16 9 19 20 3 11 12 20
21 20 9 0 16 8 16 20 0 13 7 20 20 20 11 0 20 7 20 15 0 12 13 15 55 15 l55 0
0 -35 c0 -22 -6 -38 -15 -41 -8 -3 -17 -21 -21 -40 -3 -19 -12 -34 -20 -34 -8
0 -14 -7 -14 -15 0 -8 -9 -15 -20 -15 -13 0 -20 -7 -20 -20 0 -14 -7 -20 -24
-20 -47 0 -86 13 -86 28 0 12 -10 14 -52 10 -29 -3 -54 -11 -56 -17 -5 -16
-32 -13 -32 4 0 11 -11 15 -40 15 -33 0 -40 3 -40 20 0 11 -6 20 -12 20 -30 0
-58 -13 -58 -26 0 -9 -12 -14 -35 -14 -24 0 -35 5 -35 15 0 10 -10 15 -29 15
-49 0 -91 12 -91 26 0 9 -11 14 -29 14 -20 0 -30 6 -34 20 -5 18 -14 20 -76
20 -56 0 -71 3 -71 15 0 9 -9 15 -24 15 -13 0 -38 3 -55 6 -26 5 -31 11 -31
34 0 30 -18 40 -77 40 -23 0 -33 5 -33 15 0 10 -10 15 -34 15 -25 0 -35 5 -39
20 -3 11 -12 20 -21 20 -9 0 -16 -8 -16 -20 0 -13 7 -20 20 -20 13 0 20 -7 20
-20 0 -13 7 -20 20 -20 11 0 20 -7 20 -15 0 -10 11 -15 35 -15 24 0 35 -5 35
-15 0 -8 14 -17 35 -21 19 -3 35 -12 35 -20 0 -7 16 -16 35 -20 20 -3 35 -12
35 -20 0 -9 12 -14 35 -14 23 0 35 -5 35 -14 0 -9 15 -17 40 -21 25 -4 40 -12
40 -21 0 -10 13 -14 48 -14 61 0 92 -9 92 -26 0 -8 9 -14 20 -14 11 0 20 -6
20 -14 0 -8 15 -17 35 -20 21 -4 35 -13 35 -21 0 -8 9 -15 20 -15 11 0 20 -7
20 -15 0 -12 -13 -15 -55 -15 -42 0 -55 3 -55 15 0 8 -9 15 -20 15 -11 0 -20
-7 -20 -15 0 -8 -7 -15 -15 -15 -8 0 -15 7 -15 15 0 13 -25 15 -164 15 l-164
0 -6 35 c-7 34 -36 51 -36 21 0 -7 -9 -16 -20 -19 -11 -3 -20 -12 -20 -21 0
-12 10 -16 40 -16 33 0 40 -3 40 -20 0 -13 7 -20 20 -20 11 0 20 -7 20 -15 0
-8 7 -15 15 -15 8 0 15 -7 15 -15 0 -8 14 -17 35 -21 20 -3 35 -12 35 -20 0
-9 12 -14 33 -14 46 0 77 -10 77 -25 0 -8 19 -14 51 -17 28 -3 55 -12 60 -19
7 -11 55 -14 254 -14 224 0 247 2 256 17 7 13 23 18 59 18 36 0 50 4 50 14 0
9 15 17 40 21 25 4 40 12 40 21 0 9 11 14 31 14 22 0 32 5 36 20 3 11 12 20
19 20 8 0 14 7 14 15 0 8 9 15 20 15 13 0 20 7 20 20 0 13 7 20 20 20 11 0 20
7 20 15 0 8 7 15 16 15 9 0 18 9 21 19 3 12 17 23 33 26 16 3 31 13 34 21 3 8
12 14 21 14 8 0 15 6 15 14 0 9 15 17 40 21 25 4 40 12 40 21 0 10 14 14 55
14 49 0 55 2 55 21 0 19 5 21 48 18 87 -4 122 0 122 16 0 11 11 15 40 15 l40
0 0 -70 c0 -53 -3 -70 -14 -70 -8 0 -17 -15 -20 -35 -4 -21 -13 -35 -21 -35
-8 0 -15 -9 -15 -20 0 -13 -7 -20 -20 -20 -13 0 -20 -7 -20 -20 0 -13 7 -20
20 -20 11 0 20 -7 20 -15 0 -8 6 -15 14 -15 10 0 16 -13 18 -37 2 -27 8 -39
21 -41 32 -6 87 8 87 22 0 8 15 17 34 20 28 5 36 12 41 36 6 25 11 30 37 30
21 0 31 6 35 20 3 11 11 20 18 20 7 0 15 9 18 20 3 11 12 20 21 20 9 0 16 7
16 15 0 8 9 15 20 15 11 0 20 6 20 14 0 15 30 26 73 26 24 0 27 -3 27 -35 0
-24 -5 -35 -15 -35 -12 0 -15 -14 -15 -70 l0 -69 -35 -7 c-32 -6 -35 -9 -35
-40 0 -24 -4 -34 -16 -34 -9 0 -18 -9 -21 -20 -3 -11 -12 -20 -19 -20 -8 0
-14 -7 -14 -15 0 -8 -9 -15 -20 -15 -13 0 -20 -7 -20 -20 0 -11 -6 -20 -14
-20 -7 0 -16 -9 -19 -20 -3 -11 -12 -20 -21 -20 -9 0 -16 -7 -16 -15 0 -8 -9
-15 -20 -15 -13 0 -20 -7 -20 -20 0 -11 -7 -20 -15 -20 -8 0 -15 -7 -15 -15 0
-9 -9 -15 -21 -15 -12 0 -23 -8 -26 -20 -5 -18 -14 -20 -109 -20 l-104 0 0 35
c0 24 5 35 15 35 10 0 15 11 15 35 0 28 4 35 20 35 13 0 20 7 20 20 0 11 6 20
14 20 7 0 16 9 19 20 3 11 12 20 21 20 9 0 16 6 16 13 0 6 3 22 6 35 6 20 3
22 -35 22 l-41 0 0 -40 c0 -29 -4 -40 -15 -40 -8 0 -15 -7 -15 -15 0 -8 -9
-15 -20 -15 -11 0 -20 -6 -20 -14 0 -8 -15 -17 -34 -20 -28 -5 -36 -12 -41
-36 -5 -24 -13 -31 -41 -36 -24 -4 -34 -12 -34 -25 0 -11 -6 -19 -14 -19 -8 0
-17 -13 -21 -29 -5 -22 -14 -31 -35 -36 -16 -3 -30 -14 -33 -26 -3 -10 -12
-19 -20 -19 -8 0 -17 -9 -20 -20 -3 -11 -12 -20 -21 -20 -9 0 -16 -7 -16 -15
0 -8 -9 -15 -20 -15 -11 0 -20 -7 -20 -15 0 -8 -7 -15 -15 -15 -8 0 -15 -9
-15 -20 0 -13 -7 -20 -20 -20 -13 0 -20 -7 -20 -20 0 -13 -7 -20 -20 -20 -11
0 -20 -6 -20 -14 0 -8 -15 -17 -35 -20 -21 -4 -35 -13 -35 -21 0 -8 -9 -15
-20 -15 -11 0 -20 -6 -20 -14 0 -9 -18 -16 -50 -20 -32 -4 -50 -12 -50 -20 0
-8 -15 -17 -34 -20 -19 -4 -37 -13 -40 -21 -3 -8 -15 -15 -26 -15 -11 0 -20
-7 -20 -15 0 -11 -11 -15 -39 -15 -59 0 -101 -11 -101 -26 0 -11 -22 -14 -104
-14 -95 0 -104 -2 -109 -20 -5 -19 -14 -20 -206 -20 -172 0 -201 -2 -201 -15
0 -12 -17 -15 -90 -15 -71 0 -90 3 -90 14 0 9 -15 17 -40 21 -25 4 -40 12 -40
21 0 10 -14 14 -50 14 -36 0 -50 4 -50 14 0 16 -52 28 -86 20 -29 -7 -32 -34
-4 -34 11 0 20 -7 20 -15 0 -8 14 -17 35 -21 20 -3 35 -12 35 -20 0 -8 7 -14
16 -14 9 0 18 -9 21 -20 4 -15 14 -20 39 -20 23 0 34 -5 34 -15 0 -8 14 -17
35 -21 25 -4 35 -11 35 -25 0 -11 -7 -19 -15 -19 -8 0 -15 -4 -15 -10 0 -5 7
-10 15 -10 12 0 15 -19 15 -110 0 -87 3 -110 14 -110 7 0 16 -14 20 -31 9 -46
8 -49 -14 -49 -11 0 -20 -7 -20 -15 0 -8 6 -15 14 -15 8 0 17 -15 20 -35 4
-21 13 -35 21 -35 9 0 15 -10 15 -25 0 -14 9 -33 20 -42 18 -16 20 -30 20
-174 0 -148 1 -157 20 -162 14 -4 20 -14 20 -35 0 -32 17 -42 73 -42 17 0 27
-5 27 -15 0 -8 9 -15 20 -15 13 0 20 -7 20 -20 0 -13 7 -20 20 -20 11 0 20 -6
20 -14 0 -7 9 -16 20 -19 11 -3 20 -12 20 -21 0 -9 7 -16 15 -16 8 0 15 -9 15
-20 0 -18 7 -20 55 -20 48 0 55 -2 55 -20 0 -11 7 -20 15 -20 8 0 15 -7 15
-15 0 -8 9 -15 20 -15 14 0 20 7 20 21 0 21 3 22 98 16 54 -2 120 -3 145 0 46
5 47 7 47 39 l0 34 130 0 c104 0 130 3 130 14 0 7 9 16 20 19 11 3 20 12 20
21 0 13 13 16 70 16 57 0 70 3 70 16 0 9 9 18 20 21 11 3 20 11 20 19 0 8 18
16 50 20 47 6 50 8 50 35 0 22 5 29 20 29 13 0 20 7 20 20 0 13 7 20 20 20 13
0 20 7 20 20 0 16 7 20 35 20 29 0 35 -4 35 -21 0 -21 3 -21 67 -15 43 5 71
12 76 22 10 18 36 18 43 -1 4 -8 12 -15 20 -15 8 0 14 -8 14 -19 0 -10 9 -21
20 -24 15 -4 20 -14 20 -41 0 -29 4 -36 20 -36 11 0 20 -7 20 -15 0 -8 7 -15
15 -15 8 0 15 -9 15 -20 0 -18 7 -20 55 -20 l55 0 0 -35 c0 -24 5 -35 15 -35
8 0 17 14 21 35 6 32 9 35 40 35 27 0 34 -4 34 -20 0 -21 30 -26 78 -14 36 10
27 34 -13 34 -24 0 -35 5 -35 15 0 11 11 15 40 15 29 0 40 -4 40 -15 0 -30 28
-14 34 20 4 21 13 35 21 35 8 0 15 9 15 20 0 11 7 20 15 20 8 0 17 14 21 35 3
19 12 35 19 35 8 0 16 17 20 40 4 25 12 40 21 40 10 0 14 14 14 50 0 43 3 50
20 50 11 0 20 -7 20 -15 0 -8 7 -15 15 -15 10 0 15 11 15 35 0 28 4 35 20 35
11 0 20 7 20 15 0 8 14 17 35 21 30 5 35 10 35 34 0 19 6 29 20 33 26 7 26 37
0 44 -14 4 -20 14 -20 34 0 22 -5 29 -20 29 -13 0 -20 7 -20 20 0 11 -7 20
-15 20 -8 0 -15 9 -15 20 0 13 -7 20 -20 20 -18 0 -20 7 -20 55 0 40 -4 55
-14 55 -10 0 -16 20 -21 70 -5 50 -11 70 -21 70 -12 0 -14 46 -14 275 0 238 2
275 15 275 12 0 15 14 15 64 0 106 11 186 26 186 9 0 14 12 14 35 0 33 2 35
35 35 24 0 35 -5 35 -15 0 -11 11 -15 40 -15 27 0 40 -4 40 -14 0 -19 32 -26
133 -26 71 0 87 3 87 15 0 10 10 15 28 15 45 0 70 11 75 31 3 10 12 19 21 19
9 0 16 7 16 15 0 8 9 15 20 15 16 0 20 7 20 35 0 24 5 35 15 35 8 0 15 -7 15
-15 0 -8 9 -15 20 -15 11 0 20 6 20 14 0 7 9 16 20 19 15 4 20 14 20 36 0 22
5 31 16 31 9 0 18 9 21 20 3 11 12 20 19 20 9 0 14 12 14 35 0 28 4 35 20 35
16 0 20 7 20 35 0 23 5 35 14 35 9 0 17 15 21 40 4 25 12 40 21 40 8 0 14 9
14 20 0 11 6 20 14 20 15 0 26 30 26 73 0 16 5 27 14 27 9 0 17 15 21 40 4 25
12 40 21 40 10 0 14 13 14 49 0 40 3 50 20 54 17 4 20 14 20 56 0 37 4 51 14
51 13 0 26 41 26 86 0 15 6 24 15 24 12 0 15 17 15 90 0 70 3 90 14 90 14 0
26 42 26 91 0 19 5 29 15 29 13 0 15 23 15 148 0 203 9 312 26 312 11 0 14
-30 14 -145 0 -122 2 -145 15 -145 13 0 15 63 15 510 0 447 -2 510 -15 510
-12 0 -15 18 -15 103 0 157 -10 257 -26 257 -11 0 -14 18 -14 70 0 53 -3 70
-14 70 -10 0 -16 21 -21 75 -5 55 -11 75 -21 75 -11 0 -14 17 -14 75 0 57 -3
75 -14 75 -15 0 -26 30 -26 73 0 17 -5 27 -15 27 -11 0 -15 11 -15 40 0 33 -3
40 -20 40 -18 0 -20 7 -20 55 0 48 -2 55 -20 55 -16 0 -20 7 -20 35 0 23 -5
35 -14 35 -8 0 -17 15 -20 35 -4 21 -13 35 -21 35 -10 0 -15 11 -15 34 0 25
-5 35 -20 39 -15 4 -20 14 -20 36 0 21 -5 31 -15 31 -9 0 -15 9 -15 21 0 12
-8 23 -20 26 -15 4 -20 14 -20 39 0 22 -5 34 -14 34 -9 0 -16 18 -20 50 -5 34
-11 50 -21 50 -8 0 -15 8 -15 18 0 10 -9 25 -20 35 -11 9 -20 28 -20 42 0 15
-6 25 -15 25 -8 0 -17 14 -21 35 -3 20 -12 35 -20 35 -9 0 -14 12 -14 35 0 28
-4 35 -20 35 -16 0 -20 7 -20 35 0 24 -5 35 -15 35 -8 0 -15 9 -15 20 0 13 -7
20 -20 20 -16 0 -20 7 -20 35 0 24 -5 35 -15 35 -8 0 -17 14 -21 35 -3 19 -12
35 -19 35 -7 0 -16 16 -19 35 -4 21 -13 35 -21 35 -8 0 -15 9 -15 20 0 11 -7
20 -15 20 -8 0 -17 14 -21 35 -3 20 -12 35 -20 35 -8 0 -14 9 -14 20 0 13 -7
20 -20 20 -16 0 -20 7 -20 35 0 23 -5 35 -14 35 -7 0 -16 9 -19 20 -3 11 -12
20 -21 20 -9 0 -16 8 -16 20 0 11 -7 20 -15 20 -8 0 -17 14 -21 35 -3 19 -12
35 -20 35 -7 0 -16 16 -20 35 -3 20 -12 35 -20 35 -8 0 -14 9 -14 20 0 13 -7
20 -20 20 -13 0 -20 7 -20 20 0 11 -7 20 -15 20 -8 0 -15 7 -15 15 0 8 -9 15
-20 15 -16 0 -20 7 -20 35 0 28 -4 35 -20 35 -13 0 -20 7 -20 20 0 13 -7 20
-20 20 -11 0 -20 7 -20 15 0 8 -7 15 -15 15 -8 0 -15 9 -15 20 0 13 -7 20 -20
20 -13 0 -20 7 -20 20 0 11 -7 20 -15 20 -8 0 -15 7 -15 15 0 9 -6 18 -14 21
-8 3 -18 18 -21 34 -3 16 -14 30 -26 33 -10 3 -19 12 -19 20 0 9 -13 18 -29
22 -22 5 -31 14 -36 35 -5 22 -13 29 -41 34 -20 4 -34 13 -34 21 0 8 -9 15
-20 15 -13 0 -20 7 -20 20 0 11 -7 20 -15 20 -8 0 -15 6 -15 14 0 8 -15 17
-35 20 -21 4 -35 13 -35 21 0 11 -12 15 -40 15 -33 0 -40 3 -40 20 0 13 -7 20
-20 20 -11 0 -20 7 -20 15 0 8 9 15 20 15 13 0 20 7 20 20 0 18 -7 20 -55 20
l-55 0 0 35 c0 33 -2 35 -35 35 -23 0 -35 5 -35 14 0 15 30 26 73 26 17 0 27
5 27 15 0 10 -10 15 -31 15 -22 0 -32 5 -36 20 -4 15 -14 20 -39 20 -22 0 -34
5 -34 14 0 9 19 15 59 19 78 8 161 -2 161 -19 0 -11 29 -14 145 -14 117 0 145
-3 145 -14 0 -17 31 -26 98 -26 39 0 52 -4 52 -15 0 -9 9 -15 24 -15 45 0 86
-13 86 -26 0 -9 12 -14 35 -14 24 0 35 -5 35 -15 0 -8 7 -15 15 -15 8 0 15 7
15 15 0 11 11 15 40 15 28 0 40 -4 40 -15 0 -8 14 -17 35 -21 20 -3 35 -12 35
-20 0 -10 15 -14 55 -14 48 0 55 -2 55 -20 0 -18 7 -20 55 -20 40 0 55 -4 55
-14 0 -8 15 -17 35 -20 21 -4 35 -13 35 -21 0 -11 12 -15 41 -15 33 0 40 3 37
18 -2 12 -14 18 -41 20 -29 3 -37 7 -37 23 0 10 -7 19 -15 19 -8 0 -15 7 -15
15 0 10 -10 15 -34 15 -25 0 -35 5 -39 20 -3 11 -12 20 -21 20 -9 0 -16 7 -16
15 0 10 -10 15 -34 15 -25 0 -35 5 -39 20 -4 15 -14 20 -41 20 -24 0 -36 5
-36 14 0 10 -20 16 -70 21 -50 5 -70 11 -70 21 0 10 -15 14 -60 14 -44 0 -60
4 -60 14 0 15 -30 26 -72 26 -17 0 -28 5 -28 14 0 11 -21 15 -86 17 -69 3 -87
7 -95 22 -7 12 -23 17 -58 17 -40 0 -50 3 -54 20 -5 18 -14 20 -76 20 -56 0
-71 3 -71 15 0 12 13 15 55 15 49 0 55 2 55 20 0 17 -6 20 -32 19 -18 -2 -59
-2 -90 -1 -51 2 -58 5 -58 22 0 16 7 20 35 20 24 0 35 5 35 15 0 10 -11 15
-35 15 -24 0 -35 -5 -35 -15 0 -10 -11 -15 -35 -15 -24 0 -35 5 -35 15 0 8 -9
15 -20 15 -13 0 -20 7 -20 20 0 13 -7 20 -20 20 -13 0 -20 -7 -20 -20 0 -16
-7 -20 -35 -20 -24 0 -35 5 -35 15 0 11 -11 15 -36 15 -27 0 -37 5 -41 20 -7
25 -63 29 -63 5 0 -8 7 -15 15 -15 8 0 15 -9 15 -20 0 -11 7 -20 15 -20 8 0
15 -9 15 -20 0 -11 -7 -20 -15 -20 -8 0 -15 9 -15 20 0 16 -7 20 -34 20 -25 0
-35 5 -39 20 -3 11 -12 20 -21 20 -9 0 -16 7 -16 15 0 8 -9 15 -20 15 -11 0
-20 -7 -20 -15 0 -10 -11 -15 -35 -15 -24 0 -35 5 -35 15 0 8 -9 15 -20 15
-11 0 -20 -7 -20 -15 0 -8 -7 -15 -15 -15 -8 0 -15 7 -15 15 0 12 -15 15 -75
15 -57 0 -75 3 -75 14 0 18 -32 26 -112 26 -61 0 -68 -2 -68 -20z m400 -325
c0 -8 -7 -15 -15 -15 -8 0 -15 7 -15 15 0 8 7 15 15 15 8 0 15 -7 15 -15z
m-40 -70 c0 -12 -14 -15 -70 -15 -56 0 -70 3 -70 15 0 12 14 15 70 15 56 0 70
-3 70 -15z m-323 -337 c-3 -8 -6 -5 -6 6 -1 11 2 17 5 13 3 -3 4 -12 1 -19z
m-327 -213 c0 -12 -13 -15 -55 -15 -42 0 -55 3 -55 15 0 12 13 15 55 15 42 0
55 -3 55 -15z m110 0 c0 -8 -9 -15 -20 -15 -11 0 -20 7 -20 15 0 8 9 15 20 15
11 0 20 -7 20 -15z m-1170 -1810 c0 -8 -7 -15 -15 -15 -8 0 -15 7 -15 15 0 8
7 15 15 15 8 0 15 -7 15 -15z m550 -435 c0 -13 7 -20 20 -20 11 0 20 -7 20
-15 0 -11 -11 -15 -40 -15 -29 0 -40 4 -40 15 0 12 -18 15 -102 15 -106 0
-148 6 -148 20 0 13 36 17 168 19 116 1 122 0 122 -19z m370 -75 c0 -8 7 -15
15 -15 10 0 15 -11 15 -35 0 -24 5 -35 15 -35 10 0 15 -11 15 -35 0 -24 -5
-35 -15 -35 -10 0 -15 11 -15 35 0 24 -5 35 -14 35 -8 0 -17 14 -21 30 -4 17
-13 30 -21 30 -8 0 -14 9 -14 20 0 13 7 20 20 20 11 0 20 -7 20 -15z m2228
-311 c12 -4 22 -13 22 -20 0 -8 9 -14 20 -14 11 0 20 -6 20 -14 0 -7 9 -16 20
-19 11 -3 20 -12 20 -21 0 -9 8 -16 20 -16 11 0 20 -6 20 -14 0 -8 7 -16 15
-20 8 -3 15 -12 15 -21 0 -8 7 -15 15 -15 8 0 15 -9 15 -20 0 -13 7 -20 20
-20 14 0 20 -7 20 -21 0 -20 -4 -21 -52 -15 -29 3 -70 6 -90 6 -26 0 -38 5
-38 14 0 8 -15 17 -34 20 -19 4 -37 13 -40 21 -3 8 -12 15 -21 15 -8 0 -15 6
-15 14 0 9 -15 17 -40 21 -25 4 -40 12 -40 21 0 10 -14 14 -50 14 -37 0 -50 4
-50 14 0 10 -13 16 -37 18 -31 2 -39 7 -41 26 -7 50 -2 52 145 52 76 0 148 -3
161 -6z m-558 -119 c0 -8 -9 -15 -20 -15 -11 0 -20 7 -20 15 0 8 9 15 20 15
11 0 20 -7 20 -15z m110 1 c0 -14 -55 -30 -71 -20 -5 3 -9 12 -9 20 0 10 12
14 40 14 27 0 40 -4 40 -14z m-6 -118 c12 -48 12 -48 -104 -48 -87 0 -110 3
-110 14 0 7 9 16 20 19 11 3 20 12 20 21 0 13 14 16 84 16 78 0 84 -1 90 -22z
m76 -32 c0 -8 15 -17 35 -20 19 -4 35 -11 35 -16 0 -6 -16 -10 -35 -10 -24 0
-35 5 -35 15 0 8 -9 15 -20 15 -11 0 -20 7 -20 15 0 8 9 15 20 15 11 0 20 -6
20 -14z m-330 -181 c0 -25 -23 -35 -35 -15 -10 16 2 40 20 40 9 0 15 -9 15
-25z m0 -180 c0 -8 -9 -15 -20 -15 -11 0 -20 7 -20 15 0 8 9 15 20 15 11 0 20
-7 20 -15z m870 -1705 c0 -11 -7 -20 -15 -20 -15 0 -21 21 -8 33 12 13 23 7
23 -13z m-1524 -52 c-3 -17 -8 -34 -11 -36 -8 -8 -14 3 -21 36 -6 28 -4 32 16
32 20 0 22 -4 16 -32z m1714 -202 c0 -8 -16 -17 -37 -21 -21 -4 -40 -11 -43
-15 -3 -5 -18 -12 -33 -15 -23 -6 -29 -4 -34 14 -3 11 -12 21 -19 21 -8 0 -14
7 -14 15 0 12 17 15 90 15 70 0 90 -3 90 -14z m-1202 -438 c-6 -18 -28 -21
-28 -4 0 9 7 16 16 16 9 0 14 -5 12 -12z m612 -1233 c0 -8 -7 -15 -15 -15 -8
0 -15 7 -15 15 0 8 7 15 15 15 8 0 15 -7 15 -15z"/>
<path d="M8300 8135 c0 -8 9 -15 20 -15 13 0 20 -7 20 -20 0 -16 7 -20 35 -20
28 0 35 -4 35 -20 0 -13 7 -20 20 -20 11 0 20 -6 20 -14 0 -8 15 -17 35 -20
21 -4 35 -13 35 -21 0 -8 6 -15 14 -15 7 0 16 -9 19 -20 3 -11 12 -20 21 -20
11 0 16 -9 16 -31 0 -22 5 -32 20 -36 11 -3 20 -11 20 -18 0 -7 9 -15 20 -18
11 -3 20 -12 20 -21 0 -9 7 -16 15 -16 8 0 15 -9 15 -20 0 -13 7 -20 20 -20
16 0 20 -7 20 -30 0 -32 23 -42 34 -15 10 28 34 16 40 -20 4 -21 13 -35 21
-35 8 0 15 -9 15 -20 0 -11 7 -20 15 -20 8 0 15 -9 15 -20 0 -13 7 -20 20 -20
16 0 20 -7 20 -35 0 -24 5 -35 14 -35 10 0 16 -20 21 -75 5 -52 11 -75 21 -75
7 0 16 -16 20 -35 5 -30 10 -35 35 -35 19 0 29 -5 29 -15 0 -8 -7 -15 -15 -15
-8 0 -15 -9 -15 -20 0 -13 7 -20 20 -20 18 0 20 -7 20 -55 0 -48 -2 -55 -20
-55 -16 0 -20 7 -20 34 0 25 -5 35 -20 39 -15 4 -20 14 -20 36 0 21 -5 31 -15
31 -9 0 -15 9 -15 21 0 12 -8 23 -20 26 -15 4 -20 14 -20 39 0 22 -5 34 -14
34 -7 0 -16 9 -19 20 -3 11 -12 20 -21 20 -11 0 -16 9 -16 30 0 23 -4 30 -20
30 -13 0 -20 7 -20 20 0 11 -6 20 -14 20 -8 0 -17 15 -20 35 -4 19 -12 35 -19
35 -14 0 -57 44 -57 58 0 5 -15 13 -34 16 -27 5 -35 12 -39 35 -5 22 -13 31
-36 36 -23 5 -30 13 -35 41 -4 20 -13 34 -21 34 -8 0 -15 9 -15 20 0 16 -7 20
-35 20 -24 0 -35 5 -35 15 0 8 -9 15 -20 15 -11 0 -20 -7 -20 -15 0 -8 9 -15
20 -15 13 0 20 -7 20 -20 0 -11 6 -20 14 -20 8 0 17 -15 20 -35 4 -21 13 -35
21 -35 8 0 15 -9 15 -20 0 -11 7 -20 15 -20 8 0 17 -14 21 -35 4 -25 11 -35
25 -35 12 0 19 -7 19 -20 0 -11 7 -20 15 -20 8 0 15 -9 15 -20 0 -11 6 -20 14
-20 8 0 17 -13 21 -30 4 -16 13 -30 21 -30 8 0 14 -9 14 -20 0 -13 7 -20 20
-20 13 0 20 -7 20 -20 0 -11 7 -20 15 -20 8 0 17 -14 21 -35 3 -19 12 -35 19
-35 7 0 15 -9 18 -20 3 -11 12 -20 21 -20 12 0 16 -10 16 -35 0 -28 4 -35 20
-35 11 0 20 -7 20 -15 0 -8 7 -15 15 -15 9 0 15 -9 15 -25 0 -15 6 -25 14 -25
8 0 17 -13 21 -30 4 -16 13 -30 21 -30 8 0 14 -9 14 -20 0 -13 7 -20 20 -20
17 0 20 -7 20 -40 0 -28 4 -40 14 -40 8 0 17 -13 21 -30 4 -16 12 -30 20 -30
7 0 15 -17 19 -40 4 -26 11 -40 21 -40 10 0 15 -11 15 -35 0 -24 5 -35 15 -35
8 0 17 -14 21 -35 3 -20 12 -35 20 -35 9 0 14 -12 14 -36 0 -27 5 -37 20 -41
15 -4 20 -14 20 -39 0 -27 4 -34 20 -34 13 0 20 -7 20 -20 0 -11 7 -20 15 -20
10 0 15 -11 15 -35 0 -24 5 -35 15 -35 8 0 17 -14 21 -35 3 -19 12 -35 19 -35
7 0 16 -16 19 -35 4 -21 13 -35 21 -35 11 0 15 -12 15 -40 0 -28 4 -40 15 -40
8 0 17 -14 21 -35 3 -20 12 -35 20 -35 9 0 14 -11 14 -27 0 -43 11 -73 26 -73
10 0 14 -13 14 -40 0 -33 3 -40 20 -40 16 0 20 -7 20 -35 0 -24 5 -35 15 -35
10 0 15 -10 15 -32 0 -48 10 -78 26 -78 11 0 14 -17 14 -70 0 -53 3 -70 14
-70 13 0 26 -41 26 -86 0 -15 6 -24 15 -24 11 0 15 -11 15 -40 0 -27 4 -40 14
-40 15 0 26 -42 26 -101 0 -28 4 -39 15 -39 10 0 15 -10 15 -32 0 -47 10 -78
25 -78 9 0 14 -22 17 -66 3 -49 9 -69 21 -76 12 -6 17 -22 17 -58 0 -36 4 -50
14 -50 13 0 26 -41 26 -86 0 -15 6 -24 15 -24 12 0 15 -17 15 -95 0 -73 3 -95
14 -95 14 0 26 -66 26 -142 0 -25 5 -38 13 -38 11 0 16 -26 20 -102 5 -76 10
-104 22 -110 12 -7 15 -29 15 -98 0 -69 3 -90 13 -90 16 0 27 -137 27 -342 0
-107 2 -128 15 -128 8 0 15 6 15 14 0 7 9 16 20 19 12 3 20 14 20 26 0 12 6
21 15 21 8 0 17 14 21 35 3 20 12 35 20 35 8 0 14 9 14 20 0 11 7 20 15 20 8
0 17 14 21 35 3 19 12 35 19 35 7 0 16 16 19 35 4 21 13 35 21 35 11 0 15 13
15 50 0 36 4 50 14 50 14 0 26 42 26 91 0 19 5 29 15 29 11 0 15 11 15 38 0
76 12 142 26 142 10 0 14 15 14 55 0 40 4 55 14 55 17 0 26 31 26 98 0 38 4
52 14 52 12 0 15 31 18 173 3 194 1 217 -18 217 -8 0 -14 10 -14 24 0 45 -13
86 -26 86 -11 0 -14 40 -14 220 0 189 2 220 15 220 8 0 15 7 15 15 0 8 -7 15
-15 15 -13 0 -15 21 -15 125 0 104 2 125 15 125 10 0 15 11 15 35 0 24 -5 35
-15 35 -13 0 -15 23 -15 150 0 143 -1 150 -20 150 -17 0 -20 7 -20 50 0 38 -4
50 -15 50 -12 0 -15 14 -15 64 0 94 -10 156 -26 156 -10 0 -14 13 -14 40 0 29
-4 40 -15 40 -9 0 -15 9 -15 24 0 45 -13 86 -26 86 -9 0 -14 12 -14 35 0 28
-4 35 -20 35 -16 0 -20 7 -20 35 0 23 -5 35 -14 35 -9 0 -17 15 -21 40 -4 25
-12 40 -21 40 -9 0 -14 11 -14 31 0 22 -5 32 -20 36 -17 4 -20 14 -20 54 0 35
-4 49 -14 49 -8 0 -17 15 -20 35 -4 21 -13 35 -21 35 -9 0 -15 10 -15 25 0 15
-6 25 -14 25 -8 0 -17 14 -21 30 -4 17 -13 30 -21 30 -8 0 -14 9 -14 20 0 13
-7 20 -20 20 -11 0 -20 7 -20 15 0 8 -7 15 -15 15 -11 0 -15 -12 -15 -50 0
-38 4 -50 15 -50 8 0 15 -9 15 -20 0 -11 6 -20 14 -20 8 0 17 -15 20 -35 4
-21 13 -35 21 -35 10 0 15 -11 15 -35 0 -23 -5 -35 -14 -35 -8 0 -17 15 -20
35 -6 30 -11 35 -35 35 -25 0 -30 5 -35 35 -5 27 -12 35 -28 35 -16 0 -19 -4
-14 -22 3 -13 6 -29 6 -35 0 -7 7 -13 15 -13 10 0 15 -10 15 -34 0 -44 9 -66
26 -66 8 0 14 -10 14 -25 0 -31 -29 -34 -37 -5 -3 11 -12 20 -19 20 -8 0 -14
9 -14 20 0 11 -7 20 -15 20 -8 0 -17 14 -21 35 -3 19 -12 35 -20 35 -7 0 -16
16 -20 35 -3 20 -12 35 -20 35 -8 0 -14 9 -14 20 0 13 -7 20 -20 20 -16 0 -20
7 -20 35 0 28 -4 35 -20 35 -13 0 -20 7 -20 20 0 11 -7 20 -15 20 -8 0 -15 9
-15 20 0 13 -7 20 -20 20 -11 0 -20 7 -20 15 0 8 -6 15 -14 15 -7 0 -16 9 -19
20 -3 11 -12 20 -21 20 -9 0 -16 -8 -16 -20 0 -11 7 -20 15 -20 8 0 17 -14 21
-35 3 -20 12 -35 20 -35 8 0 14 -9 14 -20 0 -13 7 -20 20 -20 16 0 20 -7 20
-35 0 -23 5 -35 14 -35 8 0 17 -15 20 -35 4 -21 13 -35 21 -35 11 0 15 -12 15
-40 0 -29 4 -40 15 -40 11 0 15 -12 15 -49 0 -47 -2 -50 -30 -56 -16 -4 -30
-13 -30 -21 0 -8 -9 -14 -20 -14 -11 0 -20 7 -20 15 0 8 7 15 15 15 8 0 15 9
15 20 0 11 -7 20 -15 20 -8 0 -15 -9 -15 -20 0 -11 -7 -20 -15 -20 -8 0 -15
-6 -15 -14 0 -16 -53 -26 -93 -19 -18 4 -27 12 -27 24 0 11 -6 19 -14 19 -8 0
-17 14 -21 30 -4 17 -13 30 -21 30 -8 0 -14 10 -14 25 0 16 -6 25 -15 25 -8 0
-15 7 -15 15 0 8 -9 15 -20 15 -16 0 -20 7 -20 34 0 25 -5 35 -20 39 -15 4
-20 14 -20 36 0 21 -5 31 -15 31 -9 0 -15 9 -15 21 0 12 -8 23 -19 26 -12 3
-23 17 -26 34 -4 16 -13 29 -21 29 -8 0 -14 9 -14 20 0 11 -6 20 -14 20 -7 0
-16 9 -19 20 -3 11 -12 20 -21 20 -9 0 -16 8 -16 20 0 11 -7 20 -15 20 -8 0
-17 14 -21 35 -3 20 -12 35 -20 35 -8 0 -14 7 -14 15 0 8 -9 15 -20 15 -13 0
-20 7 -20 20 0 11 -7 20 -15 20 -8 0 -15 7 -15 15 0 8 7 15 15 15 8 0 15 9 15
20 0 13 -7 20 -20 20 -11 0 -20 -7 -20 -15 0 -8 -7 -15 -15 -15 -8 0 -15 7
-15 15 0 8 7 15 15 15 8 0 15 9 15 20 0 11 -7 20 -15 20 -8 0 -15 7 -15 15 0
8 -9 15 -20 15 -13 0 -20 7 -20 20 0 13 -7 20 -20 20 -11 0 -20 7 -20 15 0 8
-14 17 -35 21 -30 5 -35 10 -35 35 0 24 -5 29 -35 35 -21 4 -35 12 -35 21 0 8
-9 17 -20 20 -11 3 -20 12 -20 19 0 8 -7 14 -15 14 -8 0 -15 -9 -15 -20 0 -11
7 -20 15 -20 10 0 15 -11 15 -35 0 -28 4 -35 20 -35 11 0 20 -7 20 -15 0 -8
-9 -15 -20 -15 -11 0 -20 7 -20 15 0 8 -9 15 -20 15 -13 0 -20 7 -20 20 0 11
-7 20 -15 20 -8 0 -15 9 -15 20 0 11 -6 20 -14 20 -8 0 -17 13 -21 29 -3 17
-14 31 -26 34 -10 3 -19 12 -19 21 0 12 -10 16 -35 16 -28 0 -35 4 -35 20 0
16 -7 20 -35 20 -23 0 -35 5 -35 14 0 8 -15 17 -35 20 -21 4 -35 13 -35 21 0
8 -9 15 -20 15 -11 0 -20 -7 -20 -15z m650 -430 c0 -8 -7 -15 -15 -15 -8 0
-15 7 -15 15 0 8 7 15 15 15 8 0 15 -7 15 -15z m185 -605 c4 -25 12 -40 21
-40 10 0 14 -14 14 -50 0 -43 3 -50 20 -50 17 0 20 -7 20 -40 0 -27 4 -40 14
-40 16 0 27 -47 19 -79 -11 -43 -33 -10 -33 52 0 17 -5 27 -15 27 -8 0 -15 9
-15 20 0 13 -7 20 -20 20 -18 0 -20 7 -20 55 l0 55 -35 0 c-33 0 -35 2 -35 35
0 28 4 35 20 35 13 0 20 7 20 20 0 36 18 21 25 -20z m909 -102 c9 -34 8 -38
-9 -38 -10 0 -15 10 -15 30 0 35 15 40 24 8z m-254 -93 c0 -8 -7 -15 -15 -15
-8 0 -15 7 -15 15 0 8 7 15 15 15 8 0 15 -7 15 -15z m360 -107 c0 -7 3 -23 6
-35 5 -17 2 -23 -10 -23 -12 0 -16 9 -16 35 0 19 5 35 10 35 6 0 10 -6 10 -12z
m-870 -78 c0 -11 -7 -20 -15 -20 -8 0 -15 9 -15 20 0 11 7 20 15 20 8 0 15 -9
15 -20z m760 0 c0 -11 -4 -20 -10 -20 -5 0 -10 9 -10 20 0 11 5 20 10 20 6 0
10 -9 10 -20z m150 -55 c0 -24 -5 -35 -15 -35 -10 0 -15 11 -15 35 0 24 5 35
15 35 10 0 15 -11 15 -35z m-870 -20 c0 -8 -7 -15 -15 -15 -8 0 -15 7 -15 15
0 8 7 15 15 15 8 0 15 -7 15 -15z m760 0 c0 -8 -7 -15 -15 -15 -8 0 -15 7 -15
15 0 8 7 15 15 15 8 0 15 -7 15 -15z m-730 -70 c0 -8 -7 -15 -15 -15 -8 0 -15
7 -15 15 0 8 7 15 15 15 8 0 15 -7 15 -15z m770 -35 c0 -11 -7 -20 -15 -20 -8
0 -15 9 -15 20 0 11 7 20 15 20 8 0 15 -9 15 -20z m-260 -945 c0 -8 -4 -15
-10 -15 -5 0 -10 7 -10 15 0 8 5 15 10 15 6 0 10 -7 10 -15z m440 -430 c0 -42
-3 -55 -15 -55 -12 0 -15 13 -15 55 0 42 3 55 15 55 12 0 15 -13 15 -55z m-40
-220 c0 -8 -4 -15 -10 -15 -5 0 -10 7 -10 15 0 8 5 15 10 15 6 0 10 -7 10 -15z"/>
<path d="M9100 8060 c0 -13 7 -20 20 -20 11 0 20 -7 20 -15 0 -10 11 -15 35
-15 24 0 35 5 35 15 0 8 -9 15 -20 15 -13 0 -20 7 -20 20 0 16 -7 20 -35 20
-28 0 -35 -4 -35 -20z"/>
<path d="M6190 7955 c0 -8 9 -15 20 -15 11 0 20 7 20 15 0 8 -9 15 -20 15 -11
0 -20 -7 -20 -15z"/>
<path d="M6080 7915 c0 -8 7 -15 15 -15 8 0 15 7 15 15 0 8 -7 15 -15 15 -8 0
-15 -7 -15 -15z"/>
<path d="M8380 7885 c0 -8 7 -15 15 -15 8 0 15 7 15 15 0 8 -7 15 -15 15 -8 0
-15 -7 -15 -15z"/>
<path d="M9430 7515 c0 -8 7 -15 15 -15 8 0 15 7 15 15 0 8 -7 15 -15 15 -8 0
-15 -7 -15 -15z"/>
<path d="M9840 7190 c0 -5 5 -10 10 -10 6 0 10 5 10 10 0 6 -4 10 -10 10 -5 0
-10 -4 -10 -10z"/>
<path d="M9540 7010 c0 -11 7 -20 15 -20 8 0 15 9 15 20 0 11 -7 20 -15 20 -8
0 -15 -9 -15 -20z"/>
<path d="M9580 6970 c0 -11 7 -20 15 -20 8 0 15 9 15 20 0 11 -7 20 -15 20 -8
0 -15 -9 -15 -20z"/>
<path d="M5210 6175 c0 -47 -3 -55 -19 -55 -17 0 -19 -9 -22 -85 -3 -59 -8
-88 -18 -94 -7 -5 -16 -32 -19 -60 -3 -34 -9 -51 -18 -51 -11 0 -14 -24 -14
-114 0 -142 -8 -206 -26 -206 -11 0 -14 -21 -14 -95 0 -74 -3 -95 -14 -95 -15
0 -26 -42 -26 -101 0 -28 -4 -39 -15 -39 -10 0 -15 -11 -15 -35 0 -21 -6 -37
-16 -43 -22 -12 -33 -102 -12 -102 17 0 28 -99 28 -247 0 -67 3 -83 15 -83 11
0 15 11 15 36 0 27 5 37 20 41 19 5 20 14 20 144 0 110 3 139 14 139 14 0 26
104 26 233 0 53 3 67 15 67 13 0 15 32 15 230 0 223 1 230 20 230 17 0 20 7
20 40 0 29 4 40 15 40 11 0 15 11 15 39 0 59 11 101 26 101 11 0 14 23 14 110
0 91 -3 110 -15 110 -12 0 -15 -13 -15 -55z"/>
<path d="M5390 5760 c0 -20 5 -30 15 -30 10 0 15 10 15 30 0 20 -5 30 -15 30
-10 0 -15 -10 -15 -30z"/>
<path d="M5830 5665 c0 -8 7 -15 15 -15 8 0 15 7 15 15 0 8 -7 15 -15 15 -8 0
-15 -7 -15 -15z"/>
<path d="M7320 4965 c0 -24 5 -35 15 -35 10 0 15 11 15 35 0 24 -5 35 -15 35
-10 0 -15 -11 -15 -35z"/>
<path d="M6190 3960 c0 -11 6 -20 14 -20 7 0 16 -9 19 -20 3 -11 12 -20 21
-20 9 0 16 -7 16 -15 0 -8 9 -15 20 -15 11 0 20 -7 20 -15 0 -8 14 -17 35 -21
20 -3 35 -12 35 -20 0 -8 7 -14 15 -14 8 0 15 9 15 20 0 11 -4 20 -10 20 -5 0
-12 16 -16 35 -4 25 -11 35 -25 35 -11 0 -19 7 -19 15 0 8 -7 15 -15 15 -8 0
-15 9 -15 20 0 18 -7 20 -55 20 -48 0 -55 -2 -55 -20z"/>
<path d="M6880 3856 c0 -10 -30 -15 -130 -21 -102 -5 -130 -10 -130 -21 0 -10
-14 -14 -55 -14 l-55 0 0 -55 c0 -42 -3 -55 -15 -55 -10 0 -15 -11 -15 -35 0
-23 5 -35 14 -35 8 0 17 -15 20 -34 6 -29 12 -35 41 -40 21 -4 35 -13 35 -21
0 -11 12 -15 40 -15 28 0 40 -4 40 -14 0 -11 25 -16 105 -21 79 -6 105 -11
105 -21 0 -12 42 -14 235 -14 l235 0 0 35 c0 28 4 35 20 35 16 0 20 7 20 35 0
28 -4 35 -20 35 -11 0 -20 6 -20 13 0 29 13 57 26 57 11 0 14 18 14 75 l0 75
-35 0 c-28 0 -35 -4 -35 -20 0 -18 -7 -20 -55 -20 -42 0 -55 -3 -55 -15 0 -10
-11 -15 -35 -15 -23 0 -35 5 -35 14 0 9 -15 17 -40 21 -25 4 -40 12 -40 21 0
8 -6 14 -14 14 -7 0 -16 9 -19 20 -4 15 -14 20 -41 20 -25 0 -36 4 -36 15 0
10 -11 15 -35 15 -23 0 -35 -5 -35 -14z"/>
<path d="M10020 3745 c0 -8 5 -15 10 -15 6 0 10 7 10 15 0 8 -4 15 -10 15 -5
0 -10 -7 -10 -15z"/>
<path d="M9650 3151 c0 -20 -6 -30 -20 -34 -15 -4 -20 -14 -20 -41 0 -29 4
-36 20 -36 16 0 20 7 20 35 0 24 5 35 15 35 10 0 15 11 15 35 0 24 -5 35 -15
35 -10 0 -15 -10 -15 -29z"/>
<path d="M9580 2985 c0 -8 7 -15 15 -15 8 0 15 7 15 15 0 8 -7 15 -15 15 -8 0
-15 -7 -15 -15z"/>
<path d="M6810 2950 c0 -11 7 -20 15 -20 8 0 15 9 15 20 0 11 -7 20 -15 20 -8
0 -15 -9 -15 -20z"/>
<path d="M5900 2854 c0 -31 3 -36 20 -31 15 4 20 0 20 -14 0 -10 7 -19 15 -19
8 0 15 -9 15 -20 0 -13 7 -20 20 -20 13 0 20 -7 20 -19 0 -15 8 -18 55 -18 47
0 55 3 55 18 0 15 -8 19 -35 19 -31 0 -35 3 -40 34 -6 29 -12 35 -41 41 -19 3
-34 10 -34 14 0 5 -9 11 -20 14 -11 3 -20 12 -20 21 0 9 -7 16 -15 16 -11 0
-15 -11 -15 -36z"/>
<path d="M5720 1715 c0 -8 9 -15 20 -15 11 0 20 7 20 15 0 8 -9 15 -20 15 -11
0 -20 -7 -20 -15z"/>
<path d="M8810 915 c0 -8 -7 -15 -16 -15 -9 0 -18 -9 -21 -20 -3 -11 -12 -20
-19 -20 -8 0 -14 -6 -14 -14 0 -7 -9 -16 -20 -19 -11 -3 -20 -12 -20 -21 0 -9
8 -16 20 -16 13 0 20 -7 20 -20 0 -13 -7 -20 -20 -20 -11 0 -20 -7 -20 -15 0
-12 15 -15 71 -15 63 0 71 -2 76 -20 9 -32 38 -20 39 15 2 64 4 75 19 75 8 0
15 9 15 20 0 17 -7 20 -41 20 l-42 0 7 50 c6 46 5 50 -14 50 -11 0 -20 -7 -20
-15z"/>
<path d="M8990 805 c0 -8 -9 -15 -20 -15 -21 0 -24 -10 -14 -47 10 -37 34 -28
34 12 0 28 4 35 20 35 11 0 20 7 20 15 0 8 -9 15 -20 15 -11 0 -20 -7 -20 -15z"/>
<path d="M9198 753 c-69 -3 -88 -7 -88 -18 0 -11 -12 -15 -40 -15 -29 0 -40
-4 -40 -15 0 -9 -9 -15 -24 -15 -45 0 -86 -13 -86 -26 0 -9 -12 -14 -32 -14
-48 0 -78 -10 -78 -26 0 -8 -9 -14 -20 -14 -11 0 -20 -7 -20 -15 0 -8 -14 -17
-35 -21 -19 -3 -35 -12 -35 -19 0 -7 -16 -16 -35 -19 -21 -4 -35 -13 -35 -21
0 -10 -11 -15 -35 -15 -24 0 -35 -5 -35 -15 0 -8 -9 -15 -20 -15 -13 0 -20 -7
-20 -20 0 -16 -7 -20 -36 -20 -27 0 -37 -5 -41 -20 -4 -15 -14 -20 -39 -20
-24 0 -34 -5 -34 -15 0 -8 -7 -15 -16 -15 -9 0 -18 -9 -21 -20 -4 -15 -14 -20
-39 -20 -24 0 -34 -5 -34 -15 0 -8 -7 -15 -16 -15 -9 0 -18 -9 -21 -20 -4 -17
-14 -20 -54 -20 -42 0 -49 -3 -49 -20 0 -17 -7 -20 -40 -20 -28 0 -40 -4 -40
-14 0 -8 -13 -17 -30 -21 -16 -4 -30 -13 -30 -21 0 -8 -8 -14 -19 -14 -10 0
-21 -9 -24 -20 -4 -15 -14 -20 -36 -20 -20 0 -31 -5 -31 -14 0 -8 -15 -17 -35
-20 -21 -4 -35 -13 -35 -21 0 -8 -9 -15 -20 -15 -11 0 -20 -7 -20 -15 0 -13
134 -15 1143 -15 1131 0 1308 4 1572 36 261 31 673 118 642 136 -10 5 -17 16
-17 23 0 8 -9 15 -20 15 -11 0 -20 7 -20 15 0 8 -14 17 -35 21 -19 3 -35 12
-35 19 0 8 -13 16 -30 20 -16 4 -30 13 -30 21 0 10 -12 14 -40 14 -28 0 -40 4
-40 15 0 8 -14 17 -35 21 -20 3 -35 12 -35 20 0 10 -15 14 -55 14 -48 0 -55 2
-55 20 0 18 -7 20 -55 20 -40 0 -55 4 -55 14 0 9 -21 15 -70 20 -51 5 -70 11
-70 22 0 10 -12 14 -40 14 -28 0 -40 4 -40 15 0 8 -14 17 -35 21 -19 3 -35 12
-35 19 0 7 -17 16 -37 20 -21 4 -41 12 -45 18 -4 7 -42 13 -93 16 -61 2 -85 7
-85 16 0 9 -23 15 -70 20 -50 5 -70 11 -70 21 0 11 -20 14 -95 14 -74 0 -95 3
-95 14 0 15 -30 26 -72 26 -18 0 -28 5 -28 15 0 12 -14 15 -67 15 -38 0 -104
2 -148 4 -44 2 -119 1 -167 -1z"/>
<path d="M8740 665 c0 -10 11 -15 35 -15 24 0 35 5 35 15 0 10 -11 15 -35 15
-24 0 -35 -5 -35 -15z"/>
<path d="M8160 410 c0 -5 7 -10 15 -10 8 0 15 5 15 10 0 6 -7 10 -15 10 -8 0
-15 -4 -15 -10z"/>
<path d="M7830 155 c0 -8 7 -15 15 -15 8 0 15 7 15 15 0 8 -7 15 -15 15 -8 0
-15 -7 -15 -15z"/>
</g>
</svg>
