<?xml version="1.0" standalone="no"?>
<!DOCTYPE svg PUBLIC "-//W3C//DTD SVG 20010904//EN"
 "http://www.w3.org/TR/2001/REC-SVG-20010904/DTD/svg10.dtd">
<svg version="1.0" xmlns="http://www.w3.org/2000/svg"
 width="1949.000000pt" height="1160.000000pt" viewBox="0 0 1949.000000 1160.000000"
 preserveAspectRatio="xMidYMid meet">

<g transform="translate(0.000000,1160.000000) scale(0.100000,-0.100000)"
fill="#000000" stroke="none">
<path d="M7730 10430 c0 -13 -7 -20 -20 -20 -11 0 -20 -7 -20 -15 0 -8 6 -15
14 -15 18 0 26 -31 26 -107 0 -49 3 -63 15 -63 12 0 15 -16 15 -84 l0 -85 33
-3 32 -3 3 -67 c2 -52 6 -68 17 -68 8 0 15 -6 15 -14 0 -7 9 -16 20 -19 11 -3
20 -12 20 -21 0 -9 7 -16 15 -16 8 0 15 -7 15 -15 0 -8 6 -15 14 -15 7 0 16
-9 19 -20 3 -11 12 -20 21 -20 13 0 16 -11 16 -50 l0 -50 35 0 c24 0 35 -5 35
-15 0 -10 10 -15 30 -15 16 0 33 -6 37 -13 4 -8 16 -16 26 -20 9 -3 17 -13 17
-22 0 -8 7 -15 15 -15 10 0 15 -11 15 -35 0 -32 2 -35 30 -35 20 0 30 5 30 15
0 8 -6 15 -14 15 -16 0 -26 44 -19 83 3 15 12 27 19 27 11 0 14 19 14 85 0 69
-3 85 -15 85 -10 0 -15 10 -15 28 0 42 -11 72 -26 72 -8 0 -14 7 -14 15 0 8
-7 15 -15 15 -10 0 -15 11 -15 35 0 24 -5 35 -15 35 -8 0 -15 9 -15 20 0 11
-6 20 -14 20 -15 0 -26 30 -26 73 0 17 -5 27 -15 27 -8 0 -15 9 -15 20 0 11
-9 28 -20 37 -11 10 -20 23 -20 30 0 7 -7 13 -15 13 -8 0 -15 7 -15 15 0 9 -6
18 -14 21 -8 3 -18 19 -21 34 -5 21 -14 30 -36 35 -16 4 -29 13 -29 21 0 9
-11 14 -35 14 -23 0 -35 5 -35 14 0 7 -9 16 -20 19 -11 3 -20 12 -20 21 0 11
-9 16 -30 16 -23 0 -30 -4 -30 -20z"/>
<path d="M11700 10125 c0 -11 11 -15 40 -15 29 0 40 4 40 15 0 11 -11 15 -40
15 -29 0 -40 -4 -40 -15z"/>
<path d="M11300 8835 c0 -467 5 -564 24 -492 16 59 1 1007 -16 1007 -4 0 -8
-232 -8 -515z"/>
<path d="M4740 8715 c0 -8 7 -15 15 -15 8 0 15 7 15 15 0 8 -7 15 -15 15 -8 0
-15 -7 -15 -15z"/>
<path d="M11360 8053 c0 -111 6 -143 26 -143 9 0 14 -12 14 -35 0 -32 2 -35
30 -35 23 0 30 4 30 20 0 11 -7 20 -15 20 -12 0 -15 16 -15 80 0 63 -3 80 -14
80 -10 0 -17 17 -21 55 -5 37 -12 55 -21 55 -11 0 -14 -21 -14 -97z"/>
<path d="M12138 7703 c-12 -3 -18 -14 -18 -33 0 -22 6 -29 27 -35 15 -3 31
-12 35 -18 4 -7 8 -67 8 -134 0 -75 4 -123 10 -123 6 0 10 52 10 135 0 75 -4
135 -9 135 -5 0 -12 18 -16 40 -7 39 -12 43 -47 33z"/>
<path d="M12190 7140 c0 -127 2 -150 15 -150 17 0 20 85 9 223 -11 127 -24 87
-24 -73z"/>
<path d="M14390 6520 c0 -11 5 -20 10 -20 6 0 10 9 10 20 0 11 -4 20 -10 20
-5 0 -10 -9 -10 -20z"/>
<path d="M14420 6280 c0 -100 3 -120 15 -120 13 0 15 -47 15 -360 0 -295 -2
-360 -13 -360 -11 0 -15 -34 -20 -152 -5 -107 -10 -154 -19 -159 -9 -6 -14
-41 -16 -109 -3 -72 -7 -100 -16 -100 -9 0 -15 -26 -20 -82 -4 -45 -12 -85
-18 -89 -6 -4 -14 -35 -16 -68 -3 -40 -9 -61 -17 -61 -9 0 -14 -22 -17 -66 -2
-36 -9 -69 -16 -73 -7 -4 -15 -31 -19 -59 -4 -34 -10 -52 -19 -52 -10 0 -14
-14 -14 -50 0 -36 -4 -50 -14 -50 -9 0 -16 -18 -20 -50 -5 -34 -11 -50 -21
-50 -11 0 -15 -13 -15 -50 0 -36 -4 -50 -14 -50 -9 0 -15 -16 -19 -47 -3 -27
-11 -50 -21 -55 -9 -5 -16 -22 -16 -38 0 -20 -5 -30 -15 -30 -10 0 -15 -11
-15 -35 0 -20 -6 -37 -16 -43 -8 -5 -18 -27 -21 -50 -3 -24 -11 -42 -18 -42
-7 0 -16 -16 -19 -35 -4 -19 -11 -35 -15 -35 -5 0 -12 -16 -15 -35 -4 -21 -13
-35 -21 -35 -10 0 -15 -11 -15 -35 0 -23 -5 -35 -14 -35 -8 0 -17 -15 -20 -35
-4 -21 -13 -35 -21 -35 -8 0 -15 -9 -15 -20 0 -11 -7 -20 -15 -20 -10 0 -15
-10 -15 -30 0 -17 -6 -33 -14 -36 -8 -3 -18 -19 -21 -35 -4 -16 -13 -29 -21
-29 -9 0 -14 -11 -14 -35 0 -25 -4 -35 -16 -35 -9 0 -18 -9 -21 -20 -3 -11
-12 -20 -19 -20 -9 0 -14 -11 -14 -30 0 -19 -5 -30 -14 -30 -8 0 -17 -15 -20
-35 -4 -21 -13 -35 -21 -35 -8 0 -15 -9 -15 -20 0 -11 -6 -20 -14 -20 -8 0
-17 -13 -21 -29 -3 -16 -13 -32 -21 -35 -8 -3 -14 -12 -14 -21 0 -8 -7 -15
-15 -15 -8 0 -15 -9 -15 -20 0 -11 -6 -20 -14 -20 -8 0 -17 -13 -21 -30 -4
-17 -13 -30 -21 -30 -8 0 -14 -9 -14 -20 0 -11 -6 -20 -14 -20 -8 0 -17 -14
-21 -30 -4 -17 -13 -30 -21 -30 -8 0 -14 -9 -14 -20 0 -11 -7 -20 -15 -20 -8
0 -15 -6 -15 -14 0 -7 -9 -16 -20 -19 -11 -3 -20 -12 -20 -21 0 -9 -7 -16 -15
-16 -8 0 -15 -9 -15 -20 0 -11 -9 -28 -20 -37 -11 -10 -20 -23 -20 -30 0 -7
-7 -13 -15 -13 -8 0 -15 -7 -15 -15 0 -8 -7 -15 -15 -15 -8 0 -15 -9 -15 -20
0 -13 -7 -20 -20 -20 -13 0 -20 -7 -20 -20 0 -11 -7 -20 -15 -20 -8 0 -15 -7
-15 -15 0 -8 -7 -15 -15 -15 -8 0 -15 -7 -15 -16 0 -9 -9 -18 -19 -21 -12 -3
-23 -17 -26 -34 -4 -16 -13 -29 -21 -29 -8 0 -14 -7 -14 -15 0 -8 -7 -15 -15
-15 -8 0 -15 -9 -15 -20 0 -13 -7 -20 -20 -20 -11 0 -20 -7 -20 -15 0 -8 -7
-15 -15 -15 -8 0 -15 -9 -15 -20 0 -13 -7 -20 -20 -20 -11 0 -20 -7 -20 -15 0
-8 -7 -15 -15 -15 -8 0 -15 -6 -15 -14 0 -7 -9 -16 -20 -19 -11 -3 -20 -12
-20 -20 0 -9 -13 -18 -30 -22 -16 -4 -30 -13 -30 -21 0 -8 -7 -14 -15 -14 -8
0 -15 -7 -15 -15 0 -8 -9 -15 -20 -15 -13 0 -20 -7 -20 -20 0 -11 -7 -20 -15
-20 -8 0 -15 -7 -15 -15 0 -8 -9 -15 -20 -15 -11 0 -20 -7 -20 -15 0 -8 -7
-15 -15 -15 -8 0 -15 -7 -15 -16 0 -9 -9 -18 -20 -21 -11 -3 -20 -11 -20 -18
0 -8 -13 -16 -29 -20 -16 -3 -32 -13 -35 -21 -3 -8 -12 -14 -21 -14 -8 0 -15
-7 -15 -15 0 -8 -7 -15 -15 -15 -8 0 -15 -6 -15 -14 0 -7 -9 -16 -20 -19 -11
-3 -20 -12 -20 -21 0 -11 -9 -16 -30 -16 -20 0 -30 -5 -30 -15 0 -8 -8 -15
-19 -15 -10 0 -21 -9 -24 -20 -3 -14 -14 -20 -31 -20 -16 0 -26 -6 -26 -15 0
-8 -9 -15 -20 -15 -12 0 -20 -7 -20 -16 0 -9 -9 -18 -20 -21 -11 -3 -20 -12
-20 -19 0 -9 -11 -14 -30 -14 -18 0 -33 -6 -36 -15 -4 -8 -11 -15 -18 -15 -6
0 -19 -9 -29 -20 -9 -11 -26 -20 -37 -20 -11 0 -20 -6 -20 -14 0 -8 -13 -17
-29 -21 -16 -3 -32 -13 -35 -21 -3 -8 -15 -14 -26 -14 -11 0 -20 -7 -20 -15 0
-10 -10 -15 -30 -15 -20 0 -30 -5 -30 -15 0 -8 -14 -17 -35 -21 -19 -3 -35
-12 -35 -19 0 -7 -16 -16 -35 -19 -19 -4 -35 -11 -35 -16 0 -4 -13 -11 -30
-15 -16 -4 -30 -13 -30 -21 0 -9 -11 -14 -35 -14 -23 0 -35 -5 -35 -14 0 -8
-15 -17 -35 -20 -21 -4 -35 -13 -35 -21 0 -10 -11 -15 -35 -15 -24 0 -35 -5
-35 -15 0 -10 -11 -15 -35 -15 -24 0 -35 -5 -35 -15 0 -10 -16 -16 -50 -21
-32 -4 -50 -11 -50 -20 0 -9 -12 -14 -35 -14 -23 0 -35 -5 -35 -14 0 -13 -41
-26 -86 -26 -15 0 -24 -6 -24 -15 0 -11 -12 -15 -45 -15 -32 0 -45 -4 -45 -14
0 -10 -17 -17 -55 -21 -37 -5 -55 -12 -55 -21 0 -10 -15 -14 -55 -14 -40 0
-55 -4 -55 -14 0 -9 -19 -15 -62 -19 -41 -4 -64 -11 -70 -21 -7 -12 -25 -16
-73 -16 -48 0 -65 -4 -65 -14 0 -10 -25 -15 -96 -19 -64 -4 -100 -10 -105 -19
-6 -9 -43 -14 -129 -17 -94 -2 -120 -6 -120 -17 0 -11 -16 -14 -65 -14 -51 0
-65 -3 -65 -15 0 -12 14 -15 70 -15 56 0 70 -3 70 -15 0 -10 10 -15 34 -15 54
0 96 -11 96 -26 0 -8 9 -14 20 -14 11 0 20 -7 20 -15 0 -10 10 -15 31 -15 22
0 32 -5 36 -20 4 -15 14 -20 39 -20 24 0 34 -5 34 -15 0 -12 20 -15 120 -15
73 0 120 4 120 10 0 6 7 10 15 10 8 0 15 -4 15 -10 0 -5 7 -10 15 -10 8 0 15
-9 15 -20 0 -16 7 -20 35 -20 32 0 35 3 35 29 0 21 6 30 23 35 39 10 77 6 83
-9 8 -20 64 -20 64 0 0 8 9 15 20 15 11 0 20 7 20 15 0 10 10 15 30 15 20 0
30 -5 30 -15 0 -10 10 -15 34 -15 29 0 34 4 40 30 5 25 10 30 36 30 16 0 30
-4 30 -10 0 -14 37 -13 42 2 2 6 31 13 66 16 41 3 62 9 62 17 0 13 43 25 86
25 15 0 24 6 24 15 0 11 12 15 50 15 38 0 50 4 50 15 0 11 12 15 50 15 43 0
50 3 50 20 0 16 7 20 35 20 24 0 35 5 35 15 0 11 12 15 50 15 43 0 50 3 50 20
0 16 7 20 35 20 24 0 35 5 35 15 0 10 11 15 35 15 23 0 35 5 35 14 0 8 15 17
35 20 21 4 35 13 35 21 0 10 11 15 35 15 24 0 35 5 35 15 0 10 11 15 35 15 28
0 35 4 35 20 0 16 7 20 30 20 20 0 30 5 30 15 0 10 11 15 35 15 28 0 35 4 35
20 0 13 7 20 20 20 11 0 20 4 20 10 0 5 16 12 35 16 19 3 35 12 35 19 0 8 14
16 30 20 17 4 30 13 30 21 0 8 9 14 20 14 11 0 20 7 20 15 0 10 11 15 35 15
28 0 35 4 35 20 0 11 6 20 14 20 8 0 16 7 20 15 3 9 18 15 36 15 23 0 30 4 30
20 0 13 7 20 20 20 11 0 20 7 20 15 0 10 10 15 30 15 21 0 30 5 30 16 0 9 9
18 20 21 11 3 20 12 20 19 0 8 9 14 20 14 11 0 20 6 20 14 0 8 14 17 30 21 17
4 30 13 30 21 0 8 7 14 15 14 8 0 15 7 15 15 0 8 9 15 20 15 12 0 20 7 20 16
0 9 9 18 20 21 11 3 20 9 20 13 0 5 14 11 30 15 17 4 30 13 30 22 0 8 9 17 20
20 11 3 20 12 20 19 0 8 7 14 15 14 8 0 15 7 15 15 0 8 7 15 15 15 8 0 15 7
15 16 0 9 9 18 20 21 11 3 20 12 20 19 0 8 9 14 20 14 11 0 20 7 20 15 0 8 7
15 15 15 8 0 15 9 15 20 0 13 7 20 20 20 11 0 20 7 20 15 0 8 7 15 15 15 8 0
15 6 15 14 0 7 9 16 20 19 11 3 20 12 20 21 0 9 7 16 15 16 8 0 15 7 15 15 0
8 7 15 15 15 8 0 15 9 15 20 0 13 7 20 20 20 11 0 20 7 20 15 0 8 7 15 15 15
8 0 15 9 15 20 0 11 7 20 15 20 8 0 15 6 15 14 0 7 9 16 20 19 11 3 20 12 20
21 0 9 7 16 15 16 8 0 15 7 15 15 0 8 7 15 15 15 8 0 15 7 15 16 0 9 9 18 20
21 11 3 20 12 20 19 0 8 6 14 14 14 8 0 17 15 20 35 4 21 13 35 21 35 8 0 15
7 15 15 0 8 7 15 15 15 8 0 15 9 15 20 0 13 7 20 20 20 13 0 20 7 20 20 0 11
6 20 14 20 8 0 17 13 21 30 4 16 13 30 21 30 8 0 14 9 14 20 0 11 7 20 15 20
8 0 15 7 15 15 0 8 6 15 14 15 8 0 17 15 20 35 4 21 13 35 21 35 8 0 15 7 15
15 0 8 6 15 14 15 8 0 17 15 20 35 4 21 13 35 21 35 8 0 15 9 15 20 0 11 6 20
14 20 8 0 17 13 21 30 4 16 10 30 15 30 4 0 10 9 13 20 3 11 12 20 21 20 12 0
16 10 16 35 0 24 5 35 14 35 8 0 17 14 21 30 4 17 13 30 21 30 8 0 14 9 14 20
0 11 7 20 15 20 10 0 15 11 15 35 0 28 4 35 20 35 16 0 20 7 20 35 0 24 5 35
15 35 8 0 17 14 21 35 3 19 10 35 14 35 5 0 11 13 15 30 4 16 13 30 21 30 9 0
14 11 14 35 0 23 5 35 14 35 8 0 17 15 20 35 4 21 13 35 21 35 10 0 15 11 15
35 0 24 5 35 15 35 10 0 15 11 15 35 0 28 4 35 20 35 18 0 20 7 20 65 0 51 3
65 15 65 8 0 15 9 15 20 0 11 6 20 14 20 10 0 16 20 21 70 5 46 11 70 20 70 7
0 14 18 18 46 2 26 10 50 17 54 6 4 14 35 17 69 4 42 10 61 19 61 10 0 14 15
14 55 0 42 3 55 15 55 11 0 15 11 15 39 0 59 11 101 26 101 11 0 14 20 14 85
0 66 3 85 14 85 11 0 15 22 18 95 2 72 7 98 18 105 8 5 15 24 16 42 4 203 4
208 19 208 12 0 15 16 15 85 0 69 -3 85 -15 85 -8 0 -15 7 -15 15 0 10 -11 15
-35 15 -23 0 -35 5 -35 14 0 7 -9 16 -20 19 -11 3 -20 12 -20 21 0 9 -7 16
-15 16 -8 0 -15 7 -15 15 0 8 -7 15 -16 15 -9 0 -18 9 -21 20 -4 16 -14 20
-49 20 l-44 0 0 158 c0 87 -3 288 -7 445 -5 230 -9 287 -20 287 -10 0 -13 26
-13 120 0 100 -2 120 -15 120 -12 0 -15 -20 -15 -120z"/>
<path d="M3400 6245 c0 -8 7 -15 15 -15 8 0 15 7 15 15 0 8 -7 15 -15 15 -8 0
-15 -7 -15 -15z"/>
<path d="M3030 6145 c0 -8 5 -15 10 -15 6 0 10 7 10 15 0 8 -4 15 -10 15 -5 0
-10 -7 -10 -15z"/>
<path d="M3190 6145 c0 -12 16 -15 85 -15 69 0 86 -3 93 -17 7 -12 27 -18 76
-21 45 -3 66 -8 66 -17 0 -10 26 -14 95 -17 67 -2 98 -7 104 -17 5 -8 35 -15
75 -18 46 -4 66 -10 66 -19 0 -11 22 -14 100 -14 82 0 100 3 100 15 0 11 -12
15 -50 15 -36 0 -50 4 -50 14 0 18 -31 26 -107 26 -49 0 -63 3 -63 15 0 12
-16 15 -85 15 -63 0 -86 4 -92 14 -6 11 -39 17 -126 22 -88 5 -117 10 -117 20
0 11 -20 14 -85 14 -69 0 -85 -3 -85 -15z"/>
<path d="M3130 6035 c0 -8 7 -15 15 -15 10 0 15 -10 15 -31 0 -22 5 -32 20
-36 11 -3 20 -12 20 -19 0 -10 13 -14 45 -14 43 0 44 1 51 35 6 32 9 35 40 35
27 0 34 -4 34 -20 0 -15 7 -20 29 -20 30 0 41 -18 41 -67 0 -20 5 -23 35 -23
19 0 35 5 35 10 0 6 14 10 30 10 28 0 30 3 30 35 0 28 4 35 20 35 11 0 20 -7
20 -15 0 -10 10 -15 29 -15 24 0 31 -5 36 -29 9 -42 75 -56 75 -15 0 8 7 14
15 14 8 0 15 7 15 15 0 8 7 15 15 15 8 0 15 7 15 15 0 12 -18 15 -100 15 -77
0 -102 3 -106 14 -4 9 -32 16 -90 21 -62 5 -84 10 -84 21 0 11 -23 14 -115 14
-96 0 -115 3 -115 15 0 10 -11 15 -35 15 -24 0 -35 -5 -35 -15z"/>
<path d="M4060 5975 c0 -10 10 -15 30 -15 35 0 40 15 8 24 -34 9 -38 8 -38 -9z"/>
<path d="M4190 5970 c0 -15 5 -20 18 -18 9 2 17 10 17 18 0 8 -8 16 -17 18
-13 2 -18 -3 -18 -18z"/>
<path d="M3336 5889 c-12 -62 -9 -69 29 -69 28 0 35 4 35 20 0 11 -6 20 -14
20 -8 0 -17 14 -21 30 -9 39 -21 38 -29 -1z"/>
<path d="M3820 5900 c0 -11 7 -20 15 -20 8 0 15 -7 15 -15 0 -8 6 -15 14 -15
8 0 17 -13 21 -30 6 -30 8 -30 71 -30 50 0 64 3 64 15 0 8 9 15 20 15 11 0 20
7 20 15 0 10 10 15 30 15 20 0 30 5 30 15 0 11 -11 15 -39 15 -59 0 -101 11
-101 26 0 11 -19 14 -80 14 -73 0 -80 -2 -80 -20z"/>
<path d="M4230 5835 c0 -8 7 -15 15 -15 8 0 15 7 15 15 0 8 -7 15 -15 15 -8 0
-15 -7 -15 -15z"/>
<path d="M3780 5765 c0 -8 6 -15 14 -15 8 0 21 -3 30 -6 12 -4 16 0 16 15 0
17 -6 21 -30 21 -20 0 -30 -5 -30 -15z"/>
<path d="M10820 5458 c0 -91 -12 -158 -26 -158 -9 0 -14 -11 -14 -29 0 -20 -6
-30 -20 -34 -11 -3 -20 -12 -20 -21 0 -9 -7 -16 -15 -16 -8 0 -15 -6 -15 -14
0 -7 -9 -16 -20 -19 -11 -3 -20 -12 -20 -21 0 -9 -7 -16 -15 -16 -8 0 -15 -9
-15 -20 0 -11 -7 -20 -15 -20 -8 0 -15 -7 -15 -16 0 -13 6 -15 28 -9 15 3 31
13 35 21 4 8 15 14 22 14 8 0 15 7 15 15 0 8 7 15 15 15 8 0 15 7 15 15 0 8 7
15 16 15 9 0 18 9 21 20 3 11 12 20 19 20 8 0 14 7 14 15 0 8 7 15 15 15 9 0
18 7 21 15 4 8 12 15 20 15 11 0 14 20 14 90 0 70 -3 90 -14 90 -8 0 -17 15
-20 35 -10 53 -26 42 -26 -17z"/>
<path d="M10093 5216 c0 -35 4 -46 19 -49 10 -3 18 -12 18 -21 0 -13 11 -16
50 -16 38 0 50 -4 50 -15 0 -12 13 -15 56 -15 54 0 56 1 50 23 -3 12 -6 25 -6
28 0 4 -16 10 -35 13 -21 4 -35 13 -35 21 0 10 -11 15 -35 15 -24 0 -35 5 -35
15 0 10 -10 15 -30 15 -18 0 -33 6 -36 15 -13 32 -31 15 -31 -29z"/>
<path d="M10370 4975 c0 -8 -9 -15 -20 -15 -11 0 -20 -7 -20 -15 0 -8 -7 -15
-15 -15 -8 0 -15 -9 -15 -20 0 -11 7 -20 15 -20 8 0 15 -7 15 -15 0 -7 7 -18
15 -23 9 -4 18 -25 22 -47 5 -30 2 -41 -12 -51 -10 -8 -19 -31 -22 -58 -4 -30
-10 -46 -19 -46 -8 0 -14 -7 -14 -15 0 -8 -9 -15 -20 -15 -11 0 -20 -7 -20
-15 0 -8 -14 -17 -35 -21 -25 -4 -35 -12 -35 -24 0 -10 -6 -21 -12 -23 -21 -9
13 -27 50 -27 23 0 32 5 32 16 0 9 9 18 20 21 11 3 20 12 20 19 0 8 6 14 14
14 8 0 17 15 20 35 4 21 13 35 21 35 8 0 15 9 15 20 0 11 7 20 15 20 10 0 15
10 15 30 0 19 5 30 14 30 13 0 26 41 26 86 0 15 6 24 15 24 11 0 15 12 15 50
0 38 -4 50 -15 50 -8 0 -15 7 -15 15 0 10 -11 15 -35 15 -24 0 -35 -5 -35 -15z"/>
<path d="M10300 415 c0 -10 10 -15 30 -15 20 0 30 5 30 15 0 10 -10 15 -30 15
-20 0 -30 -5 -30 -15z"/>
</g>
</svg>
