<svg width="34" height="34" viewBox="0 0 34 34" fill="none" xmlns="http://www.w3.org/2000/svg">
<g id="comment-alt-message">
<path id="Vector" d="M24.0833 12.7513H9.91667C9.54094 12.7513 9.18061 12.602 8.91493 12.3364C8.64926 12.0707 8.5 11.7104 8.5 11.3346C8.5 10.9589 8.64926 10.5986 8.91493 10.3329C9.18061 10.0672 9.54094 9.91797 9.91667 9.91797H24.0833C24.4591 9.91797 24.8194 10.0672 25.0851 10.3329C25.3507 10.5986 25.5 10.9589 25.5 11.3346C25.5 11.7104 25.3507 12.0707 25.0851 12.3364C24.8194 12.602 24.4591 12.7513 24.0833 12.7513ZM24.0833 18.418H9.91667C9.54094 18.418 9.18061 18.2687 8.91493 18.003C8.64926 17.7374 8.5 17.377 8.5 17.0013C8.5 16.6256 8.64926 16.2652 8.91493 15.9996C9.18061 15.7339 9.54094 15.5846 9.91667 15.5846H24.0833C24.4591 15.5846 24.8194 15.7339 25.0851 15.9996C25.3507 16.2652 25.5 16.6256 25.5 17.0013C25.5 17.377 25.3507 17.7374 25.0851 18.003C24.8194 18.2687 24.4591 18.418 24.0833 18.418Z" fill="#6563FF"/>
<path id="Vector_2" d="M26.9167 2.83203H7.08337C5.95655 2.83316 4.8762 3.28128 4.07941 4.07807C3.28263 4.87486 2.8345 5.95521 2.83337 7.08203V21.2487C2.8345 22.3755 3.28263 23.4559 4.07941 24.2527C4.8762 25.0494 5.95655 25.4976 7.08337 25.4987H23.4969L28.7485 30.7503C28.9466 30.9483 29.199 31.0832 29.4737 31.1379C29.7485 31.1925 30.0333 31.1644 30.2921 31.0572C30.551 30.95 30.7722 30.7685 30.9279 30.5356C31.0835 30.3027 31.1666 30.0288 31.1667 29.7487V7.08203C31.1656 5.95521 30.7175 4.87486 29.9207 4.07807C29.1239 3.28128 28.0435 2.83316 26.9167 2.83203ZM24.0834 18.4154H9.91671C9.54098 18.4154 9.18065 18.2661 8.91497 18.0004C8.6493 17.7348 8.50004 17.3744 8.50004 16.9987C8.50004 16.623 8.6493 16.2626 8.91497 15.997C9.18065 15.7313 9.54098 15.582 9.91671 15.582H24.0834C24.4591 15.582 24.8194 15.7313 25.0851 15.997C25.3508 16.2626 25.5 16.623 25.5 16.9987C25.5 17.3744 25.3508 17.7348 25.0851 18.0004C24.8194 18.2661 24.4591 18.4154 24.0834 18.4154ZM24.0834 12.7487H9.91671C9.54098 12.7487 9.18065 12.5994 8.91497 12.3338C8.6493 12.0681 8.50004 11.7078 8.50004 11.332C8.50004 10.9563 8.6493 10.596 8.91497 10.3303C9.18065 10.0646 9.54098 9.91536 9.91671 9.91536H24.0834C24.4591 9.91536 24.8194 10.0646 25.0851 10.3303C25.3508 10.596 25.5 10.9563 25.5 11.332C25.5 11.7078 25.3508 12.0681 25.0851 12.3338C24.8194 12.5994 24.4591 12.7487 24.0834 12.7487Z" fill="#B2B1FF"/>
</g>
</svg>
