<svg width="56" height="56" viewBox="0 0 56 56" fill="none" xmlns="http://www.w3.org/2000/svg">
<g id="circle">
<path id="Vector" d="M35 4.66675C31.1811 4.66864 27.4837 6.00897 24.5507 8.45468C21.6178 10.9004 19.6348 14.2967 18.9467 18.0531C21.6019 16.6011 24.6561 16.0487 27.6518 16.4785C30.6474 16.9083 33.4231 18.2972 35.563 20.4371C37.7029 22.577 39.0918 25.3527 39.5216 28.3483C39.9514 31.3439 39.3989 34.3982 37.947 37.0534C41.9565 36.3207 45.547 34.1146 48.0125 30.869C50.4781 27.6233 51.6404 23.5728 51.2711 19.5136C50.9017 15.4544 49.0274 11.6802 46.0165 8.93287C43.0056 6.18553 39.0759 4.66378 35 4.66675Z" fill="#D8D8FF"/>
<path id="Vector_2" d="M16.3333 51.3333C22.7766 51.3333 28 46.11 28 39.6667C28 33.2233 22.7766 28 16.3333 28C9.89 28 4.66666 33.2233 4.66666 39.6667C4.66666 46.11 9.89 51.3333 16.3333 51.3333Z" fill="#6563FF"/>
<path id="Vector_3" d="M25.6667 16.3333C22.1938 16.3336 18.845 17.6246 16.2707 19.9557C13.6965 22.2868 12.0805 25.4914 11.7367 28.9473C13.8794 28.0264 16.2491 27.7693 18.5395 28.2092C20.83 28.6491 22.9358 29.7658 24.585 31.415C26.2341 33.0641 27.3508 35.17 27.7907 37.4604C28.2306 39.7508 27.9735 42.1205 27.0527 44.2633C30.6255 43.9046 33.924 42.1869 36.2662 39.4652C38.6084 36.7434 39.8152 33.2257 39.6373 29.6394C39.4593 26.053 37.9101 22.6721 35.3099 20.1956C32.7098 17.7191 29.2575 16.3364 25.6667 16.3333Z" fill="#B2B1FF"/>
</g>
</svg>
