<svg width="56" height="56" viewBox="0 0 56 56" fill="none" xmlns="http://www.w3.org/2000/svg">
<g id="pencil">
<path id="Vector" d="M16.9003 51.3334H6.99999C6.38115 51.3334 5.78766 51.0876 5.35007 50.65C4.91249 50.2124 4.66666 49.6189 4.66666 49.0001V39.0997C4.66679 38.4809 4.91271 37.8876 5.35032 37.4501L37.457 5.3504C37.8946 4.91297 38.4879 4.66724 39.1067 4.66724C39.7254 4.66724 40.3188 4.91297 40.7563 5.3504L50.6497 15.2437C51.0871 15.6813 51.3328 16.2747 51.3328 16.8934C51.3328 17.5121 51.0871 18.1055 50.6497 18.5431L18.55 50.6497C18.1125 51.0874 17.5191 51.3333 16.9003 51.3334Z" fill="#B2B1FF"/>
<path id="Vector_2" d="M50.6497 15.2437L40.7563 5.3504C40.3188 4.91297 39.7254 4.66724 39.1067 4.66724C38.4879 4.66724 37.8946 4.91297 37.457 5.3504L29.2017 13.6034L42.3967 26.7937L50.6497 18.5431C51.0871 18.1055 51.3328 17.5121 51.3328 16.8934C51.3328 16.2747 51.0871 15.6813 50.6497 15.2437Z" fill="#6563FF"/>
</g>
</svg>
