<svg width="56" height="56" viewBox="0 0 56 56" fill="none" xmlns="http://www.w3.org/2000/svg">
<g id="timer">
<path id="Vector" d="M32.6667 10.4999H23.3333C21.9333 10.4999 21 9.56659 21 8.16659C21 6.76659 21.9333 5.83325 23.3333 5.83325H32.6667C34.0667 5.83325 35 6.76659 35 8.16659C35 9.56659 34.0667 10.4999 32.6667 10.4999Z" fill="#6563FF"/>
<path id="Vector_2" d="M28 33.8334C26.6 33.8334 25.6667 32.9001 25.6667 31.5001V24.5001C25.6667 23.1001 26.6 22.1667 28 22.1667C29.4 22.1667 30.3333 23.1001 30.3333 24.5001V31.5001C30.3333 32.9001 29.4 33.8334 28 33.8334Z" fill="#D8D8FF"/>
<path id="Vector_3" d="M28 12.8333C17.7333 12.8333 9.33334 21.2333 9.33334 31.4999C9.33334 41.7666 17.7333 50.1666 28 50.1666C38.2667 50.1666 46.6667 41.7666 46.6667 31.4999C46.6667 21.2333 38.2667 12.8333 28 12.8333ZM30.3333 31.4999C30.3333 32.8999 29.4 33.8333 28 33.8333C26.6 33.8333 25.6667 32.8999 25.6667 31.4999V24.4999C25.6667 23.0999 26.6 22.1666 28 22.1666C29.4 22.1666 30.3333 23.0999 30.3333 24.4999V31.4999Z" fill="#B2B1FF"/>
<path id="Vector_4" d="M13.3 20.0667C14.2333 18.9 15.4 17.7333 16.5667 16.8L14.4667 14.7C13.5333 13.7667 12.1333 13.7667 11.2 14.7C10.2667 15.6333 10.2667 17.0333 11.2 17.9667L13.3 20.0667ZM42.7 20.0667L44.8 17.9667C45.7333 17.0333 45.7333 15.6333 44.8 14.7C43.8667 13.7667 42.4667 13.7667 41.5333 14.7L39.4333 16.8C40.6 17.7333 41.7667 18.9 42.7 20.0667Z" fill="#6563FF"/>
<path id="Vector_5" d="M28 35C29.933 35 31.5 33.433 31.5 31.5C31.5 29.567 29.933 28 28 28C26.067 28 24.5 29.567 24.5 31.5C24.5 33.433 26.067 35 28 35Z" fill="#6563FF"/>
</g>
</svg>
